<?xml version="1.0" encoding="UTF-8" standalone="no"?>
<svg
   xmlns:dc="http://purl.org/dc/elements/1.1/"
   xmlns:cc="http://creativecommons.org/ns#"
   xmlns:rdf="http://www.w3.org/1999/02/22-rdf-syntax-ns#"
   xmlns:svg="http://www.w3.org/2000/svg"
   xmlns="http://www.w3.org/2000/svg"
   xmlns:sodipodi="http://sodipodi.sourceforge.net/DTD/sodipodi-0.dtd"
   xmlns:inkscape="http://www.inkscape.org/namespaces/inkscape"
   sodipodi:docname="ASMEB18.6.3.1A.svg"
   inkscape:version="1.0 (4035a4fb49, 2020-05-01)"
   version="1.1"
   id="svg15825"
   viewBox="0 0 48.000001 48.000001"
   height="48"
   width="48">
  <defs
     id="defs15827" />
  <sodipodi:namedview
     inkscape:document-rotation="0"
     inkscape:window-maximized="1"
     inkscape:window-y="0"
     inkscape:window-x="0"
     inkscape:window-height="1027"
     inkscape:window-width="1920"
     units="px"
     showgrid="false"
     inkscape:current-layer="layer1"
     inkscape:document-units="px"
     inkscape:cy="29.497036"
     inkscape:cx="30.998769"
     inkscape:zoom="8.9272231"
     inkscape:pageshadow="2"
     inkscape:pageopacity="0.0"
     borderopacity="1.0"
     bordercolor="#666666"
     pagecolor="#ffffff"
     id="base" />
  <metadata
     id="metadata15830">
    <rdf:RDF>
      <cc:Work
         rdf:about="">
        <dc:format>image/svg+xml</dc:format>
        <dc:type
           rdf:resource="http://purl.org/dc/dcmitype/StillImage" />
        <dc:title></dc:title>
      </cc:Work>
    </rdf:RDF>
  </metadata>
  <g
     transform="translate(0,-1004.3622)"
     id="layer1"
     inkscape:groupmode="layer"
     inkscape:label="Layer 1">
    <path
       inkscape:connector-curvature="0"
       id="path15368"
       d="m 22.721376,1008.1083 c -2.293444,-0.079 -4.567808,0.3457 -6.712299,1.1487 -0.907369,0.171 -0.557397,1.1622 -0.0035,1.5413 6.564983,7.6557 13.018059,15.4089 19.680417,22.9801 0.45524,0.4757 1.131484,1.4618 1.843591,0.8014 3.103368,-2.7729 5.288086,-6.8578 5.00406,-11.1011 -0.09761,-5.0755 -3.441455,-9.6044 -7.657087,-12.1888 -2.885091,-1.7548 -6.183523,-2.9482 -9.566785,-3.1617 -0.86265,-0.026 -1.725985,-0.02 -2.588925,-0.02 z"
       style="fill:#5fd3c2;fill-opacity:1;fill-rule:evenodd;stroke:none;stroke-width:1.16061;stroke-linecap:round;stroke-linejoin:round;stroke-miterlimit:4;stroke-dasharray:none;stroke-dashoffset:0;stroke-opacity:1" />
    <path
       inkscape:connector-curvature="0"
       id="path15370"
       d="m 15.661473,1011.8264 c -0.321235,0.7657 0.313818,1.5622 0.725883,2.1762 4.603381,5.7384 9.460798,11.2685 14.222835,16.875 1.607347,1.8031 3.103554,3.7215 4.829992,5.4102 0.73446,0.4584 1.575128,-0.5235 1.037369,-1.193 -4.710646,-5.7116 -9.586412,-11.2912 -14.389767,-16.9271 -1.89699,-2.1546 -3.699367,-4.4091 -5.671124,-6.4887 -0.290467,-0.1225 -0.524377,-0.061 -0.755188,0.1474 z"
       style="fill:#5fd3c2;fill-opacity:1;fill-rule:evenodd;stroke:none;stroke-width:1.16061;stroke-linecap:round;stroke-linejoin:round;stroke-miterlimit:4;stroke-dasharray:none;stroke-dashoffset:0;stroke-opacity:1" />
    <path
       inkscape:connector-curvature="0"
       id="path15372"
       d="m 15.937235,1014.2813 c -0.670882,0.2299 -1.509449,0.5383 -1.821887,1.2225 0.07138,0.8436 0.967512,1.3455 1.391763,2.0318 5.61394,6.6688 11.287629,13.2869 16.93525,19.9273 0.706292,0.5105 1.405412,-0.358 1.98204,-0.7214 0.804631,-0.5982 -0.174905,-1.3381 -0.573669,-1.8381 -5.817814,-6.8267 -11.618462,-13.6695 -17.447754,-20.4856 -0.13137,-0.1042 -0.29923,-0.153 -0.465743,-0.1365 z"
       style="fill:#5fd3c2;fill-opacity:1;fill-rule:evenodd;stroke:none;stroke-width:1.16061;stroke-linecap:round;stroke-linejoin:round;stroke-miterlimit:4;stroke-dasharray:none;stroke-dashoffset:0;stroke-opacity:1" />
    <path
       inkscape:connector-curvature="0"
       id="path15374"
       d="m 10.936579,1012.41 c -1.0573433,0.3685 -1.7122453,1.4319 -2.4987446,2.1855 -3.5641064,3.9783 -4.5518261,10.051 -2.3845425,14.9493 2.2951797,5.4118 7.5729701,8.9923 13.0800281,10.5103 4.538666,1.237 9.494537,1.1042 13.89223,-0.6047 0.807185,-0.657 -0.242221,-1.3919 -0.621715,-1.9439 -6.927568,-8.3386 -13.887542,-16.651 -20.942266,-24.8815 -0.130363,-0.1451 -0.331871,-0.2245 -0.52499,-0.215 z"
       style="fill:#5fd3c2;fill-opacity:1;fill-rule:evenodd;stroke:none;stroke-width:4.11241;stroke-linecap:round;stroke-linejoin:round;stroke-miterlimit:4;stroke-dasharray:none;stroke-dashoffset:0;stroke-opacity:1" />
    <path
       inkscape:connector-curvature="0"
       id="path15376"
       d="m 13.209778,1038.2247 c -0.691355,0.4006 -0.385707,1.3646 -0.419945,2.0261 0.159132,2.5138 1.663834,4.7695 3.736762,6.136 2.101479,1.4709 4.688849,2.2353 7.254945,2.0096 1.767489,0.02 3.493915,-0.4768 5.015318,-1.3684 2.651645,-1.3654 4.668283,-4.3325 4.348244,-7.3735 -0.307737,-0.9093 -1.359022,-0.1432 -1.97178,-0.02 -5.689137,1.907 -12.174919,1.4477 -17.450343,-1.3638 -0.158679,-0.096 -0.339561,-0.043 -0.513201,-0.046 z"
       style="fill:#5fd3c2;fill-opacity:1;fill-rule:evenodd;stroke:none;stroke-width:1.16061;stroke-linecap:round;stroke-linejoin:round;stroke-miterlimit:4;stroke-dasharray:none;stroke-dashoffset:0;stroke-opacity:1" />
    <g
       transform="matrix(4.1124146,0,0,4.1124144,-582.17872,490.65342)"
       id="g14141">
      <path
         style="fill:none;stroke:#000000;stroke-width:0.282222;stroke-linecap:round;stroke-linejoin:round;stroke-miterlimit:4;stroke-dasharray:none"
         id="88"
         d="m 144.62348,132.98428 0.0368,0.44246"
         inkscape:connector-curvature="0"
         sodipodi:nodetypes="cc" />
      <path
         style="fill:none;stroke:#000000;stroke-width:0.282222;stroke-linecap:round;stroke-linejoin:round;stroke-miterlimit:4;stroke-dasharray:none"
         id="89"
         d="m 149.63054,133.01716 0.0201,0.71998"
         inkscape:connector-curvature="0"
         sodipodi:nodetypes="cc" />
      <path
         style="fill:none;stroke:#000000;stroke-width:0.282222;stroke-linecap:round;stroke-linejoin:round;stroke-miterlimit:4;stroke-dasharray:none"
         id="90"
         d="m 151.92924,129.89444 -0.0211,0.33432"
         inkscape:connector-curvature="0" />
      <path
         style="fill:none;stroke:#000000;stroke-width:0.282222;stroke-linecap:round;stroke-linejoin:round;stroke-miterlimit:4;stroke-dasharray:none"
         id="91"
         d="m 142.74686,129.32309 -0.0211,0.33432"
         inkscape:connector-curvature="0" />
      <path
         style="fill:none;stroke:#000000;stroke-width:0.282222;stroke-linecap:round;stroke-linejoin:round;stroke-miterlimit:4;stroke-dasharray:none"
         d="m 148.61397,135.2952 c 0.6164,-0.35602 0.99785,-0.92932 1.03665,-1.55806"
         id="path10521"
         inkscape:connector-curvature="0"
         sodipodi:nodetypes="cc" />
      <path
         style="fill:none;stroke:#000000;stroke-width:0.282222;stroke-linecap:round;stroke-linejoin:round;stroke-miterlimit:4;stroke-dasharray:none"
         d="m 144.66024,133.42674 c -0.1088,1.73545 2.25223,2.85123 3.95373,1.86846"
         id="path10523"
         inkscape:connector-curvature="0"
         sodipodi:nodetypes="cc" />
      <path
         style="fill:none;stroke:#000000;stroke-width:0.282222;stroke-linecap:round;stroke-linejoin:round;stroke-miterlimit:4;stroke-dasharray:none"
         d="m 150.50703,132.4349 a 4.6,3.81445 3.5595999 0 0 1.42221,-2.54046"
         id="path10527"
         inkscape:connector-curvature="0" />
      <path
         style="fill:none;stroke:#000000;stroke-width:0.282222;stroke-linecap:round;stroke-linejoin:round;stroke-miterlimit:4;stroke-dasharray:none"
         d="m 151.92924,129.89444 a 4.6,3.81445 3.5595999 0 0 -6.73765,-3.70217"
         id="path10529"
         inkscape:connector-curvature="0" />
      <path
         style="fill:none;stroke:#000000;stroke-width:0.282222;stroke-linecap:round;stroke-linejoin:round;stroke-miterlimit:4;stroke-dasharray:none"
         id="580"
         d="m 150.50703,132.4349 -5.31544,-6.24263"
         inkscape:connector-curvature="0" />
      <path
         style="fill:none;stroke:#000000;stroke-width:0.282222;stroke-linecap:round;stroke-linejoin:round;stroke-miterlimit:4;stroke-dasharray:none"
         id="581"
         d="m 150.50703,132.4349 -0.0206,0.33519"
         inkscape:connector-curvature="0" />
      <path
         style="fill:none;stroke:#000000;stroke-width:0.282222;stroke-linecap:round;stroke-linejoin:round;stroke-miterlimit:4;stroke-dasharray:none"
         d="m 150.48647,132.77009 a 4.6,3.81445 3.5595999 0 0 1.42171,-2.54133"
         id="path10533"
         inkscape:connector-curvature="0" />
      <path
         style="fill:none;stroke:#000000;stroke-width:0.282222;stroke-linecap:round;stroke-linejoin:round;stroke-miterlimit:4;stroke-dasharray:none"
         id="583"
         d="m 145.19159,126.19227 -0.0211,0.33432"
         inkscape:connector-curvature="0" />
      <path
         style="fill:none;stroke:#000000;stroke-width:0.282222;stroke-linecap:round;stroke-linejoin:round;stroke-miterlimit:4;stroke-dasharray:none"
         d="m 145.17052,126.52659 0.0253,0.057 0.0254,0.0569 0.0249,0.0561 0.0245,0.0552 0.0245,0.0552 0.024,0.0543 0.0241,0.0542 0.0236,0.0533 0.0232,0.0524 0.0233,0.0524 0.0228,0.0515 0.0229,0.0514 0.0225,0.0505 0.022,0.0497"
         id="path10536"
         inkscape:connector-curvature="0" />
      <path
         style="fill:none;stroke:#000000;stroke-width:0.282222;stroke-linecap:round;stroke-linejoin:round;stroke-miterlimit:4;stroke-dasharray:none"
         id="585"
         d="m 150.11152,132.68866 -4.60808,-5.41204"
         inkscape:connector-curvature="0" />
      <path
         style="fill:none;stroke:#000000;stroke-width:0.282222;stroke-linecap:round;stroke-linejoin:round;stroke-miterlimit:4;stroke-dasharray:none"
         d="m 150.11152,132.68866 0.0255,0.006 0.025,0.005 0.0258,0.006 0.0255,0.005 0.0261,0.006 0.0263,0.006 0.027,0.006 0.0266,0.005 0.0273,0.006 0.027,0.005 0.0277,0.006 0.0284,0.007 0.0281,0.006 0.0287,0.007"
         id="path10539"
         inkscape:connector-curvature="0" />
      <path
         style="fill:none;stroke:#000000;stroke-width:0.282222;stroke-linecap:round;stroke-linejoin:round;stroke-miterlimit:4;stroke-dasharray:none"
         d="m 150.11152,132.68866 a 4,3.31691 3.5599999 0 1 -0.4822,0.3292"
         id="path10541"
         inkscape:connector-curvature="0" />
      <path
         style="fill:none;stroke:#000000;stroke-width:0.282222;stroke-linecap:round;stroke-linejoin:round;stroke-miterlimit:4;stroke-dasharray:none"
         d="m 149.62932,133.01786 a 4,3.31691 3.5599999 0 1 -0.14933,0.0827"
         id="path10543"
         inkscape:connector-curvature="0" />
      <path
         style="fill:none;stroke:#000000;stroke-width:0.282222;stroke-linecap:round;stroke-linejoin:round;stroke-miterlimit:4;stroke-dasharray:none"
         d="m 142.7258,129.65741 a 4.6,3.81445 3.5595999 0 0 6.73816,3.70303"
         id="path10545"
         inkscape:connector-curvature="0" />
      <path
         style="fill:none;stroke:#000000;stroke-width:0.282222;stroke-linecap:round;stroke-linejoin:round;stroke-miterlimit:4;stroke-dasharray:none"
         d="m 144.86323,127.59775 a 4,3.31691 3.5599999 0 1 0.64021,-0.32113"
         id="path10547"
         inkscape:connector-curvature="0" />
      <path
         style="fill:none;stroke:#000000;stroke-width:0.282222;stroke-linecap:round;stroke-linejoin:round;stroke-miterlimit:4;stroke-dasharray:none"
         id="591"
         d="m 149.48452,133.02525 -5.31545,-6.24263"
         inkscape:connector-curvature="0" />
      <path
         style="fill:none;stroke:#000000;stroke-width:0.282222;stroke-linecap:round;stroke-linejoin:round;stroke-miterlimit:4;stroke-dasharray:none"
         id="592"
         d="m 149.48452,133.02525 -0.0206,0.33519"
         inkscape:connector-curvature="0" />
      <path
         style="fill:none;stroke:#000000;stroke-width:0.282222;stroke-linecap:round;stroke-linejoin:round;stroke-miterlimit:4;stroke-dasharray:none"
         d="m 144.16907,126.78262 a 4.6,3.81445 3.5595999 0 0 -1.42221,2.54047"
         id="path10551"
         inkscape:connector-curvature="0" />
      <path
         style="fill:none;stroke:#000000;stroke-width:0.282222;stroke-linecap:round;stroke-linejoin:round;stroke-miterlimit:4;stroke-dasharray:none"
         d="m 142.74686,129.32309 a 4.6,3.81445 3.5595999 0 0 6.73766,3.70216"
         id="path10553"
         inkscape:connector-curvature="0" />
    </g>
  </g>
</svg>
