<?xml version="1.0" encoding="UTF-8" standalone="no"?>
<svg
   xmlns:dc="http://purl.org/dc/elements/1.1/"
   xmlns:cc="http://creativecommons.org/ns#"
   xmlns:rdf="http://www.w3.org/1999/02/22-rdf-syntax-ns#"
   xmlns:svg="http://www.w3.org/2000/svg"
   xmlns="http://www.w3.org/2000/svg"
   xmlns:sodipodi="http://sodipodi.sourceforge.net/DTD/sodipodi-0.dtd"
   xmlns:inkscape="http://www.inkscape.org/namespaces/inkscape"
   sodipodi:docname="ASMEB18.3.1A.svg"
   inkscape:version="1.0 (4035a4fb49, 2020-05-01)"
   version="1.1"
   id="svg15825"
   viewBox="0 0 48.000001 48.000001"
   height="48"
   width="48">
  <defs
     id="defs15827" />
  <sodipodi:namedview
     inkscape:document-rotation="0"
     inkscape:window-maximized="1"
     inkscape:window-y="0"
     inkscape:window-x="0"
     inkscape:window-height="1027"
     inkscape:window-width="1920"
     units="px"
     showgrid="false"
     inkscape:current-layer="layer1"
     inkscape:document-units="px"
     inkscape:cy="20.831683"
     inkscape:cx="24"
     inkscape:zoom="12.625"
     inkscape:pageshadow="2"
     inkscape:pageopacity="0.0"
     borderopacity="1.0"
     bordercolor="#666666"
     pagecolor="#ffffff"
     id="base" />
  <metadata
     id="metadata15830">
    <rdf:RDF>
      <cc:Work
         rdf:about="">
        <dc:format>image/svg+xml</dc:format>
        <dc:type
           rdf:resource="http://purl.org/dc/dcmitype/StillImage" />
        <dc:title></dc:title>
      </cc:Work>
    </rdf:RDF>
  </metadata>
  <g
     transform="translate(0,-1004.3622)"
     id="layer1"
     inkscape:groupmode="layer"
     inkscape:label="Layer 1">
    <path
       sodipodi:open="true"
       sodipodi:end="6.2751393"
       sodipodi:start="0"
       sodipodi:ry="12.577369"
       sodipodi:rx="15.154697"
       sodipodi:cy="1020.2416"
       sodipodi:cx="24.155022"
       sodipodi:type="arc"
       id="path15479"
       style="fill:#5fd3c2;fill-opacity:1;fill-rule:evenodd;stroke:none;stroke-width:3.54331;stroke-linecap:round;stroke-linejoin:round;stroke-miterlimit:4;stroke-dasharray:none;stroke-dashoffset:0;stroke-opacity:1"
       sodipodi:arc-type="arc"
       d="m 39.309719,1020.2416 a 15.154697,12.577369 0 0 1 -15.124214,12.5773 15.154697,12.577369 0 0 1 -15.1850581,-12.5267 15.154697,12.577369 0 0 1 15.0631241,-12.6278 15.154697,12.577369 0 0 1 15.245658,12.476" />
    <path
       inkscape:connector-curvature="0"
       id="path15481"
       d="m 8.92433,1024.1648 c -0.35937,1.7651 -0.21936,3.603 -0.23881,5.3999 0.13397,2.8399 1.76493,5.4271 3.80258,7.3231 3.26321,2.9495 7.73681,4.5015 12.12029,4.3238 4.64231,-0.1843 9.37825,-2.2757 12.0617,-6.1721 1.16508,-1.6585 1.80994,-3.644 1.88232,-5.6672 0.0917,-1.0952 0.22851,-2.1921 0.22868,-3.2914 -0.17734,-0.6296 -0.9505,-0.4095 -1.14047,0.085 -2.33347,3.716 -6.5217,6.0081 -10.81335,6.5565 -3.08582,0.3247 -6.3131,0.029 -9.21693,-1.2144 -2.79811,-1.1266 -5.26771,-3.0989 -6.9147,-5.6309 -0.43008,-0.6074 -0.61799,-1.3877 -1.1604,-1.9005 -0.26631,-0.055 -0.41986,-0 -0.61091,0.188 z"
       style="fill:#5fd3c2;fill-opacity:1;fill-rule:evenodd;stroke:none;stroke-width:1;stroke-linecap:round;stroke-linejoin:round;stroke-miterlimit:4;stroke-dasharray:none;stroke-dashoffset:0;stroke-opacity:1" />
    <path
       inkscape:connector-curvature="0"
       id="path15483"
       d="m 14.28437,1039.0342 c -0.20733,1.0359 -0.1154,2.1566 0.12525,3.1927 0.83833,3.0648 3.84439,5.0239 6.82549,5.6256 3.3651,0.6311 7.24198,-0.4601 9.30718,-3.3095 0.92787,-1.3057 1.37719,-2.9847 1.18444,-4.5614 -0.54389,-0.5564 -1.25528,0.2048 -1.86903,0.3166 -3.46114,1.2181 -7.30624,1.2935 -10.84688,0.3211 -1.48153,-0.3906 -2.81702,-1.1144 -4.20645,-1.7427 -0.21964,-0.088 -0.34688,0.043 -0.52,0.1576 z"
       style="fill:#5fd3c2;fill-opacity:1;fill-rule:evenodd;stroke:none;stroke-width:1;stroke-linecap:round;stroke-linejoin:round;stroke-miterlimit:4;stroke-dasharray:none;stroke-dashoffset:0;stroke-opacity:1" />
    <g
       transform="matrix(3.5433071,0,0,3.543307,-374.50636,715.61424)"
       id="g14053">
      <path
         style="fill:none;stroke:#000000;stroke-width:0.282222;stroke-linecap:round;stroke-linejoin:round;stroke-miterlimit:4;stroke-dasharray:none"
         d="m 114.97587,88.906715 a 4.25,3.52422 3.5595999 0 0 1.76285,-2.647644"
         id="path10758"
         inkscape:connector-curvature="0" />
      <path
         style="fill:none;stroke:#000000;stroke-width:0.282222;stroke-linecap:round;stroke-linejoin:round;stroke-miterlimit:4;stroke-dasharray:none"
         d="m 108.25513,85.731254 a 4.25,3.52422 3.5595999 0 0 6.72074,3.175461"
         id="path10760"
         inkscape:connector-curvature="0" />
      <path
         style="fill:none;stroke:#000000;stroke-width:0.282222;stroke-linecap:round;stroke-linejoin:round;stroke-miterlimit:4;stroke-dasharray:none"
         id="92"
         d="m 109.67678,91.06363 0.003,0.533818"
         inkscape:connector-curvature="0"
         sodipodi:nodetypes="cc" />
      <path
         style="fill:none;stroke:#000000;stroke-width:0.282222;stroke-linecap:round;stroke-linejoin:round;stroke-miterlimit:4;stroke-dasharray:none"
         id="93"
         d="m 114.66716,91.374024 0.003,0.533818"
         inkscape:connector-curvature="0"
         sodipodi:nodetypes="cc" />
      <path
         style="fill:none;stroke:#000000;stroke-width:0.282222;stroke-linecap:round;stroke-linejoin:round;stroke-miterlimit:4;stroke-dasharray:none"
         d="m 116.73872,86.259071 c 0.0282,-0.490887 -0.0485,-0.988376 -0.28702,-1.51634 -0.12999,-0.284753 -0.30997,-0.576677 -0.57394,-0.878298 -0.26579,-0.300348 -0.61562,-0.61048 -1.13335,-0.896422 -0.22609,-0.122583 -0.51766,-0.256198 -0.85063,-0.360134 -0.33264,-0.104942 -0.70646,-0.180217 -1.0897,-0.209408 -0.38285,-0.03011 -0.77498,-0.0141 -1.13681,0.04019 -0.36147,0.05351 -0.69251,0.145328 -0.94597,0.243738 -0.58645,0.222428 -0.98911,0.495202 -1.30055,0.766578 -0.30953,0.273278 -0.52789,0.54507 -0.6943,0.815627 -0.30256,0.496151 -0.43854,0.979033 -0.47132,1.466653"
         id="path9442"
         inkscape:connector-curvature="0" />
      <path
         style="fill:none;stroke:#000000;stroke-width:0.282222;stroke-linecap:round;stroke-linejoin:round;stroke-miterlimit:4;stroke-dasharray:none"
         id="95"
         d="m 108.25513,85.731254 -0.148,2.379259"
         inkscape:connector-curvature="0" />
      <path
         style="fill:none;stroke:#000000;stroke-width:0.282222;stroke-linecap:round;stroke-linejoin:round;stroke-miterlimit:4;stroke-dasharray:none"
         id="96"
         d="m 116.73872,86.259071 -0.14796,2.379122"
         inkscape:connector-curvature="0" />
      <path
         style="fill:none;stroke:#000000;stroke-width:0.282222;stroke-linecap:round;stroke-linejoin:round;stroke-miterlimit:4;stroke-dasharray:none"
         d="m 113.63362,93.465253 c 0.6163,-0.355838 0.99782,-0.928871 1.03691,-1.557411"
         id="path10555"
         inkscape:connector-curvature="0"
         sodipodi:nodetypes="cc" />
      <path
         style="fill:none;stroke:#000000;stroke-width:0.282222;stroke-linecap:round;stroke-linejoin:round;stroke-miterlimit:4;stroke-dasharray:none"
         d="m 109.68015,91.597448 c -0.10792,1.734962 2.25231,2.850047 3.95347,1.867805"
         id="path10557"
         inkscape:connector-curvature="0"
         sodipodi:nodetypes="cc" />
      <path
         style="fill:none;stroke:#000000;stroke-width:0.282222;stroke-linecap:round;stroke-linejoin:round;stroke-miterlimit:4;stroke-dasharray:none"
         d="m 113.88154,87.32208 a 2.34404,1.94375 3.5595999 0 0 0.96369,-1.754042"
         id="path10561"
         inkscape:connector-curvature="0" />
      <path
         style="fill:none;stroke:#000000;stroke-width:0.282222;stroke-linecap:round;stroke-linejoin:round;stroke-miterlimit:4;stroke-dasharray:none"
         d="m 114.84523,85.568038 -0.0771,0.182404 -0.0742,0.170086 -0.0716,0.158774 -0.0696,0.148483 -0.0678,0.139148 -0.0666,0.130473 -0.0658,0.122852 -0.0654,0.115794 -0.0654,0.109566 -0.0657,0.104074 -0.0664,0.09897 -0.0677,0.09474 -0.0692,0.09089 -0.0712,0.08779"
         id="path10563"
         inkscape:connector-curvature="0" />
      <path
         style="fill:none;stroke:#000000;stroke-width:0.282222;stroke-linecap:round;stroke-linejoin:round;stroke-miterlimit:4;stroke-dasharray:none"
         d="m 111.55052,87.470238 a 2.34404,1.94375 3.5595999 0 0 2.33102,-0.148158"
         id="path10565"
         inkscape:connector-curvature="0" />
      <path
         style="fill:none;stroke:#000000;stroke-width:0.282222;stroke-linecap:round;stroke-linejoin:round;stroke-miterlimit:4;stroke-dasharray:none"
         d="m 114.84523,85.568038 a 2.34404,1.94375 3.5595999 0 0 -1.3672,-1.605846"
         id="path10567"
         inkscape:connector-curvature="0" />
      <path
         style="fill:none;stroke:#000000;stroke-width:0.282222;stroke-linecap:round;stroke-linejoin:round;stroke-miterlimit:4;stroke-dasharray:none"
         d="m 110.18324,85.864442 a 2.34404,1.94375 3.5595999 0 0 1.36728,1.605796"
         id="path10569"
         inkscape:connector-curvature="0" />
      <path
         style="fill:none;stroke:#000000;stroke-width:0.282222;stroke-linecap:round;stroke-linejoin:round;stroke-miterlimit:4;stroke-dasharray:none"
         d="m 113.47803,83.962192 a 2.34404,1.94375 3.5595999 0 0 -2.33105,0.148295"
         id="path10571"
         inkscape:connector-curvature="0" />
      <path
         style="fill:none;stroke:#000000;stroke-width:0.282222;stroke-linecap:round;stroke-linejoin:round;stroke-miterlimit:4;stroke-dasharray:none"
         d="m 111.14698,84.110487 a 2.34404,1.94375 3.5595999 0 0 -0.96374,1.753955"
         id="path10573"
         inkscape:connector-curvature="0" />
      <path
         style="fill:none;stroke:#000000;stroke-width:0.282222;stroke-linecap:round;stroke-linejoin:round;stroke-miterlimit:4;stroke-dasharray:none"
         d="m 113.88154,87.32208 -0.1825,0.05871 -0.17585,0.05061 -0.17046,0.04276 -0.16603,0.03523 -0.16262,0.02773 -0.16023,0.02068 -0.15876,0.01361 -0.15834,0.0065 -0.15884,-3.23e-4 -0.16048,-0.0073 -0.16295,-0.01423 -0.16646,-0.02132 -0.17097,-0.02854 -0.17653,-0.03595"
         id="path10575"
         inkscape:connector-curvature="0" />
      <path
         style="fill:none;stroke:#000000;stroke-width:0.282222;stroke-linecap:round;stroke-linejoin:round;stroke-miterlimit:4;stroke-dasharray:none"
         d="m 113.47803,83.962192 0.10234,0.171048 0.0993,0.159044 0.0968,0.14804 0.0949,0.138026 0.0936,0.128878 0.0929,0.12036 0.0928,0.112795 0.0933,0.105734 0.0942,0.09941 0.0958,0.09367 0.0981,0.08865 0.10078,0.08396 0.10421,0.0799 0.10817,0.07635"
         id="path10577"
         inkscape:connector-curvature="0" />
      <path
         style="fill:none;stroke:#000000;stroke-width:0.282222;stroke-linecap:round;stroke-linejoin:round;stroke-miterlimit:4;stroke-dasharray:none"
         d="m 111.55052,87.470238 -0.10825,-0.0763 -0.10421,-0.0799 -0.10078,-0.08396 -0.0981,-0.08865 -0.0958,-0.09367 -0.0942,-0.0994 -0.0933,-0.105734 -0.0928,-0.112795 -0.0928,-0.12041 -0.0937,-0.128828 -0.0949,-0.138026 -0.0968,-0.14804 -0.0993,-0.159044 -0.10233,-0.171048"
         id="path10579"
         inkscape:connector-curvature="0" />
      <path
         style="fill:none;stroke:#000000;stroke-width:0.282222;stroke-linecap:round;stroke-linejoin:round;stroke-miterlimit:4;stroke-dasharray:none"
         d="m 111.14698,84.110487 0.17661,0.0359 0.17098,0.02854 0.16646,0.02133 0.16295,0.01423 0.16034,0.0073 0.15897,3.59e-4 0.15829,-0.0066 0.15882,-0.01352 0.16023,-0.02068 0.16257,-0.02781 0.16608,-0.03515 0.17037,-0.04271 0.17594,-0.05066 0.18244,-0.0588"
         id="path10581"
         inkscape:connector-curvature="0" />
      <path
         style="fill:none;stroke:#000000;stroke-width:0.282222;stroke-linecap:round;stroke-linejoin:round;stroke-miterlimit:4;stroke-dasharray:none"
         d="m 110.18324,85.864442 0.0713,-0.0877 0.0692,-0.09089 0.0677,-0.09474 0.0664,-0.09905 0.0657,-0.103987 0.0654,-0.109567 0.0653,-0.11588 0.0658,-0.122766 0.0665,-0.130559 0.0679,-0.139061 0.0696,-0.148483 0.0716,-0.158775 0.0742,-0.170086 0.0771,-0.182403"
         id="path10583"
         inkscape:connector-curvature="0" />
      <path
         style="fill:none;stroke:#000000;stroke-width:0.282222;stroke-linecap:round;stroke-linejoin:round;stroke-miterlimit:4;stroke-dasharray:none"
         id="610"
         d="m 113.47803,83.962192 -0.0867,1.3946"
         inkscape:connector-curvature="0" />
      <path
         style="fill:none;stroke:#000000;stroke-width:0.282222;stroke-linecap:round;stroke-linejoin:round;stroke-miterlimit:4;stroke-dasharray:none"
         d="m 113.39132,85.356792 0.0756,0.110737 0.0739,0.105958 0.0723,0.10166 0.0709,0.09754 0.0698,0.09388 0.069,0.09044 0.0682,0.0873 0.0678,0.0845 0.0675,0.08192 0.0675,0.07959 0.0678,0.0776 0.0683,0.07583 0.0689,0.07431 0.0697,0.07301"
         id="path10586"
         inkscape:connector-curvature="0" />
      <path
         style="fill:none;stroke:#000000;stroke-width:0.282222;stroke-linecap:round;stroke-linejoin:round;stroke-miterlimit:4;stroke-dasharray:none"
         d="m 110.57486,86.478152 0.0326,-0.05979 0.0327,-0.06092 0.0329,-0.06219 0.033,-0.0634 0.0334,-0.06477 0.0337,-0.06623 0.0341,-0.06781 0.0344,-0.06954 0.0349,-0.07131 0.0355,-0.07314 0.036,-0.07519 0.0367,-0.07729 0.0374,-0.07966 0.0381,-0.08181"
         id="path10588"
         inkscape:connector-curvature="0" />
      <path
         style="fill:none;stroke:#000000;stroke-width:0.282222;stroke-linecap:round;stroke-linejoin:round;stroke-miterlimit:4;stroke-dasharray:none"
         d="m 111.06026,85.505087 0.17788,0.01589 0.17194,0.01181 0.16731,0.0078 0.16362,0.0038 0.16087,-1.59e-4 0.15921,-0.004 0.15838,-0.0081 0.15873,-0.01208 0.15991,-0.01623 0.16212,-0.02039 0.1654,-0.02471 0.16962,-0.02922 0.1748,-0.03383 0.18127,-0.03884"
         id="path10590"
         inkscape:connector-curvature="0" />
      <path
         style="fill:none;stroke:#000000;stroke-width:0.282222;stroke-linecap:round;stroke-linejoin:round;stroke-miterlimit:4;stroke-dasharray:none"
         d="m 114.82791,91.285838 a 4.25,3.52422 3.5595999 0 0 1.76285,-2.647645"
         id="path10592"
         inkscape:connector-curvature="0" />
      <path
         style="fill:none;stroke:#000000;stroke-width:0.282222;stroke-linecap:round;stroke-linejoin:round;stroke-miterlimit:4;stroke-dasharray:none"
         d="m 108.10713,88.110513 a 4.25,3.52422 3.5595999 0 0 6.72078,3.175325"
         id="path10598"
         inkscape:connector-curvature="0" />
      <path
         style="fill:none;stroke:#000000;stroke-width:0.282222;stroke-linecap:round;stroke-linejoin:round;stroke-miterlimit:4;stroke-dasharray:none"
         id="618"
         d="m 111.14698,84.110487 -0.0867,1.3946"
         inkscape:connector-curvature="0" />
      <g
         style="fill:none;stroke:#000000;stroke-width:0.282222;stroke-linecap:round;stroke-linejoin:round;stroke-miterlimit:4;stroke-dasharray:none"
         transform="matrix(0.99807075,0.06208678,0.06208678,-0.99807075,25.411852,98.138641)"
         id="g10754">
        <ellipse
           cx="86.163101"
           cy="17.806299"
           rx="3.75"
           ry="3.1096001"
           id="ellipse10756"
           style="stroke-width:0.282222;stroke-linecap:round;stroke-linejoin:round;stroke-miterlimit:4;stroke-dasharray:none" />
      </g>
    </g>
  </g>
</svg>
