<?xml version="1.0" encoding="UTF-8" standalone="no"?>
<!-- Created with Inkscape (http://www.inkscape.org/) -->

<svg
   width="48"
   height="48"
   viewBox="0 0 12.7 12.7"
   version="1.1"
   id="svg5"
   xml:space="preserve"
   xmlns="http://www.w3.org/2000/svg"
   xmlns:svg="http://www.w3.org/2000/svg"><defs
     id="defs2"><marker
       id="DistanceX"
       orient="auto"
       refX="0"
       refY="0"
       style="overflow:visible"><path
         d="M 3,-3 -3,3 M 0,-5 V 5"
         style="stroke:#000000;stroke-width:0.5"
         id="path134" /></marker><pattern
       id="Hatch"
       patternUnits="userSpaceOnUse"
       width="8"
       height="8"
       x="0"
       y="0"><path
         d="M8 4 l-4,4"
         stroke="#000000"
         stroke-width="0.25"
         linecap="square"
         id="path137" /><path
         d="M6 2 l-4,4"
         stroke="#000000"
         stroke-width="0.25"
         linecap="square"
         id="path139" /><path
         d="M4 0 l-4,4"
         stroke="#000000"
         stroke-width="0.25"
         linecap="square"
         id="path141" /></pattern><symbol
       id="*MODEL_SPACE" /><symbol
       id="*PAPER_SPACE" /></defs><path
     id="path202"
     style="display:inline;fill:#5fd3c2;fill-opacity:1;stroke:none;stroke-width:0.333356;stroke-dasharray:none"
     d="m 2.1309033,4.2710757 1.209e-4,0.1612448 c 1.107e-4,2.9007301 3.8744139,4.5895639 6.6674171,2.9060758 L 8.7258018,7.1161352 8.7600558,6.9675873 C 8.9259668,6.827249 9.074301,6.6727956 9.2027205,6.5068698 9.3762458,6.506383 9.5705218,6.5048598 9.7855127,6.5024698 L 9.7854563,6.342194 m -5.693513,1.1041757 1.21e-4,2.176387 c 1.19e-4,0.5932753 0.3260328,1.1528263 0.8822825,1.5141083 l 1.3756531,0.894236 1.3756559,-0.894237 c 0.077857,-0.0503 0.1515817,-0.105028 0.2208673,-0.163636 C 8.3699399,10.615071 8.6078138,10.129309 8.607936,9.6227594 L 8.6080574,7.4463697 M 9.7858035,6.5032321 C 10.29513,5.8986356 10.568857,5.1747276 10.568977,4.4323256 l -1e-6,-0.1612609 C 10.568856,1.3703304 6.694547,-0.31849459 3.9015676,1.4451834 4.1164426,1.8914794 4.3110238,2.2216875 4.4849976,2.5160949 4.2469749,2.6475918 4.0294808,2.8038013 3.8374393,2.9810248 L 2.9141913,2.2001654 C 2.4048708,2.8047581 2.1311471,3.5286598 2.1311452,4.2710437" /><path
     id="path993"
     style="display:inline;fill:none;stroke:#000000;stroke-width:0.333356;stroke-dasharray:none"
     d="m 2.1309033,4.4323137 v -0.161238 m 8.4381937,0.161238 V 4.2710757 M 4.0919433,9.6227168 V 7.4463697 M 8.6080574,9.6227168 V 7.4463697 M 4.9745081,11.136655 6.3499999,12.031101 7.7254918,11.136655 M 2.1311452,4.2710437 c -7.7e-6,2.900722 3.8742941,4.5895536 6.6671045,2.9062312 M 10.568855,4.2710538 c 1e-6,-2.9007234 -3.874308,-4.58954839 -6.6671142,-2.9062185 m 5.88406,4.9771114 C 10.295128,5.7373507 10.568854,5.0134434 10.568855,4.2710538 m -6.6674881,-2.9058969 1.38e-5,0.1603216 c 0.2150619,0.3660009 0.4096431,0.696209 0.5837575,0.9906774 M 9.7854563,6.3421931 3.9013669,1.3651569 M 4.485218,2.5161292 9.202819,6.5070682 M 8.6529708,7.0543074 c 0.036434,-0.028246 0.072137,-0.057159 0.1070837,-0.086719 M 2.1311452,4.4323274 c -1.03e-5,2.9007232 3.8742929,4.589557 6.6671045,2.9062339 L 8.7986328,7.1779631 2.9143672,2.2000614 C 2.4048708,2.8047581 2.1311471,3.5286598 2.1311452,4.2710437 M 4.484857,2.5160339 C 4.2469749,2.6475918 4.0294808,2.8038013 3.8374393,2.9810248 M 9.7858035,6.5032321 C 10.29513,5.8986356 10.568857,5.1747276 10.568857,4.4323375 M 9.2027411,6.5070563 c 0.1735047,-6.733e-4 0.3677807,-0.0022 0.5827716,-0.00459 L 9.7854563,6.3421931 M 8.7600571,6.9675862 C 8.9259668,6.827249 9.074301,6.6727956 9.2026999,6.5066833 M 7.7258198,11.137073 c 0.077693,-0.05051 0.1514177,-0.105237 0.2207047,-0.163845 m -2.9723363,0.163848 c 0.8112608,0.527369 1.9403724,0.527368 2.7516316,-3e-6 M 4.0921853,9.6227965 c -2e-6,0.5932355 0.3259118,1.1527865 0.8820002,1.5142785 M 7.9465217,10.973227 C 8.3699399,10.615071 8.6078138,10.129309 8.6078146,9.622802" /></svg>
