<?xml version="1.0" encoding="UTF-8" standalone="no"?>
<!-- Created with Inkscape (http://www.inkscape.org/) -->

<svg
   width="48"
   height="48"
   viewBox="0 0 12.7 12.7"
   version="1.1"
   id="svg5"
   xml:space="preserve"
   xmlns="http://www.w3.org/2000/svg"
   xmlns:svg="http://www.w3.org/2000/svg"><defs
     id="defs2"><marker
       id="DistanceX"
       orient="auto"
       refX="0"
       refY="0"
       style="overflow:visible"><path
         d="M 3,-3 -3,3 M 0,-5 V 5"
         style="stroke:#000000;stroke-width:0.5"
         id="path134" /></marker><pattern
       id="Hatch"
       patternUnits="userSpaceOnUse"
       width="8"
       height="8"
       x="0"
       y="0"><path
         d="M8 4 l-4,4"
         stroke="#000000"
         stroke-width="0.25"
         linecap="square"
         id="path137" /><path
         d="M6 2 l-4,4"
         stroke="#000000"
         stroke-width="0.25"
         linecap="square"
         id="path139" /><path
         d="M4 0 l-4,4"
         stroke="#000000"
         stroke-width="0.25"
         linecap="square"
         id="path141" /></pattern><symbol
       id="*MODEL_SPACE" /><symbol
       id="*PAPER_SPACE" /><marker
       id="DistanceX-3"
       orient="auto"
       refX="0.0"
       refY="0.0"
       style="overflow:visible"><path
         d="M 3,-3 L -3,3 M 0,-5 L  0,5"
         style="stroke:#000000; stroke-width:0.5"
         id="path5225" /></marker><pattern
       id="Hatch-5"
       patternUnits="userSpaceOnUse"
       width="8"
       height="8"
       x="0"
       y="0"><path
         d="M8 4 l-4,4"
         stroke="#000000"
         stroke-width="0.25"
         linecap="square"
         id="path5228" /><path
         d="M6 2 l-4,4"
         stroke="#000000"
         stroke-width="0.25"
         linecap="square"
         id="path5230" /><path
         d="M4 0 l-4,4"
         stroke="#000000"
         stroke-width="0.25"
         linecap="square"
         id="path5232" /></pattern><symbol
       id="*MODEL_SPACE-5" /><symbol
       id="*PAPER_SPACE-6" /><marker
       id="DistanceX-1"
       orient="auto"
       refX="0.0"
       refY="0.0"
       style="overflow:visible"><path
         d="M 3,-3 L -3,3 M 0,-5 L  0,5"
         style="stroke:#000000; stroke-width:0.5"
         id="path8517" /></marker><pattern
       id="Hatch-4"
       patternUnits="userSpaceOnUse"
       width="8"
       height="8"
       x="0"
       y="0"><path
         d="M8 4 l-4,4"
         stroke="#000000"
         stroke-width="0.25"
         linecap="square"
         id="path8520" /><path
         d="M6 2 l-4,4"
         stroke="#000000"
         stroke-width="0.25"
         linecap="square"
         id="path8522" /><path
         d="M4 0 l-4,4"
         stroke="#000000"
         stroke-width="0.25"
         linecap="square"
         id="path8524" /></pattern><symbol
       id="*MODEL_SPACE-52" /><symbol
       id="*PAPER_SPACE-9" /></defs><path
     id="path9172"
     style="fill:#5fd3c2;fill-opacity:1;stroke:none;stroke-width:0.333356;stroke-dasharray:none"
     d="M 6.35 0.69608154 C 4.2393391 0.69607912 2.128556 1.8859701 2.1285522 4.2664062 C 2.1285521 4.3206572 2.1300735 4.3743207 2.1326864 4.4276367 L 2.1285522 4.4276367 C 2.1285479 5.7764758 2.9462584 6.8395753 4.0907064 7.4455404 L 4.0907064 9.6211182 C 4.0908256 10.21474 4.4169263 10.775084 4.9733398 11.136788 C 4.9877143 11.146132 5.0021776 11.155163 5.016748 11.164176 L 6.35 12.031307 L 7.6884196 11.161076 C 7.7012558 11.153089 7.7139768 11.145033 7.7266602 11.136788 C 7.8043991 11.086258 7.8779911 11.031099 7.9473185 10.972457 C 8.3709849 10.614091 8.6091719 10.127965 8.6092936 9.6211182 L 8.6092936 7.4501912 C 8.8623577 7.3119822 9.1056824 7.1463761 9.3348307 6.9525472 C 10.126477 6.2829199 10.571448 5.3746303 10.571448 4.4276367 L 10.566797 4.4276367 C 10.569652 4.3741 10.571448 4.3202303 10.571448 4.2664062 C 10.571452 1.8859701 8.4606609 0.69608397 6.35 0.69608154 z " /><path
     id="path9051"
     style="display:inline;fill:none;fill-opacity:1;stroke:#000000;stroke-width:0.333356;stroke-dasharray:none"
     d="M 2.1284314,4.4278615 V 4.2665292 M 10.571569,4.4278615 V 4.2665292 M 4.0906202,9.6213055 v -2.177622 m 4.5187596,2.177622 V 7.4436835 M 7.7262978,11.136131 6.35,12.031101 v 0 L 4.9737022,11.136131 M 4.0935315,1.435087 9.5950837,6.0884923 M 8.6064928,6.9238952 C 8.798841,6.8107435 8.9789128,6.683348 9.1445809,6.543214 M 8.606323,6.9241184 C 6.9011968,4.7492294 4.810313,2.9806367 3.1051929,2.2709386 M 4.0934975,1.4349074 C 3.7080509,1.6616526 3.3734523,1.9446777 3.1053894,2.270713 M 9.5947756,6.0887956 C 7.88965,3.9139064 5.7987661,2.1453127 4.0936455,1.4356134 M 9.1445809,6.543214 C 9.3102404,6.4030891 9.4608417,6.250782 9.5946057,6.088092 M 2.128674,4.2664977 c -7.6e-6,3.1811256 4.5469753,4.7742394 7.206262,2.5248381 m 1.23639,-2.5248284 c 8e-6,-4.760877 -8.4426444,-4.7608867 -8.442652,-9.7e-6 m 7.206262,2.5248381 c 0.791647,-0.6696274 1.236389,-1.5778347 1.23639,-2.5248284 M 2.128674,4.4278761 c -1.02e-5,3.1811267 4.5469743,4.7742426 7.206262,2.5248405 m 0,0 c 0.791647,-0.669628 1.23639,-1.5778363 1.23639,-2.5248308 M 7.7266229,11.136548 c 0.077739,-0.05053 0.1515061,-0.105298 0.2208336,-0.16394 m -2.974077,0.163943 c 0.8117361,0.527678 1.941509,0.527677 2.7532434,-3e-6 M 4.0908628,9.6213855 c -2.1e-6,0.5935825 0.3261026,1.1534615 0.8825167,1.5151655 m 2.974077,-0.163943 C 8.3711233,10.614242 8.6091368,10.128195 8.6091372,9.6213904" /></svg>
