<?xml version="1.0" encoding="UTF-8" standalone="no"?>
<!-- Created with Inkscape (http://www.inkscape.org/) -->

<svg
   width="48"
   height="48"
   viewBox="0 0 12.7 12.7"
   version="1.1"
   id="svg5"
   xml:space="preserve"
   xmlns="http://www.w3.org/2000/svg"
   xmlns:svg="http://www.w3.org/2000/svg"><defs
     id="defs2"><marker
       id="DistanceX"
       orient="auto"
       refX="0"
       refY="0"
       style="overflow:visible"><path
         d="M 3,-3 -3,3 M 0,-5 V 5"
         style="stroke:#000000;stroke-width:0.5"
         id="path134" /></marker><pattern
       id="Hatch"
       patternUnits="userSpaceOnUse"
       width="8"
       height="8"
       x="0"
       y="0"><path
         d="M8 4 l-4,4"
         stroke="#000000"
         stroke-width="0.25"
         linecap="square"
         id="path137" /><path
         d="M6 2 l-4,4"
         stroke="#000000"
         stroke-width="0.25"
         linecap="square"
         id="path139" /><path
         d="M4 0 l-4,4"
         stroke="#000000"
         stroke-width="0.25"
         linecap="square"
         id="path141" /></pattern><symbol
       id="*MODEL_SPACE" /><symbol
       id="*PAPER_SPACE" /><marker
       id="DistanceX-3"
       orient="auto"
       refX="0.0"
       refY="0.0"
       style="overflow:visible"><path
         d="M 3,-3 L -3,3 M 0,-5 L  0,5"
         style="stroke:#000000; stroke-width:0.5"
         id="path5225" /></marker><pattern
       id="Hatch-5"
       patternUnits="userSpaceOnUse"
       width="8"
       height="8"
       x="0"
       y="0"><path
         d="M8 4 l-4,4"
         stroke="#000000"
         stroke-width="0.25"
         linecap="square"
         id="path5228" /><path
         d="M6 2 l-4,4"
         stroke="#000000"
         stroke-width="0.25"
         linecap="square"
         id="path5230" /><path
         d="M4 0 l-4,4"
         stroke="#000000"
         stroke-width="0.25"
         linecap="square"
         id="path5232" /></pattern><symbol
       id="*MODEL_SPACE-5" /><symbol
       id="*PAPER_SPACE-6" /></defs><path
     id="path5339"
     style="fill:#5fd3c2;fill-opacity:1;stroke:none;stroke-width:1.37407;stroke-dasharray:none"
     d="m 510.599,706.541 v -0.665 m 34.802,0.665 v -0.665 m -26.714,13.096 5e-4,8.97617 c 4.9e-4,2.44686 1.34467,4.75464 3.63817,6.24556 3.34592,2.17505 8.00276,2.17505 11.34867,-10e-6 0.32043,-0.2083 0.6245,-0.43403 0.91026,-0.67575 1.74632,-1.47716 2.7274,-3.48061 2.7279,-5.56979 l 5e-4,-8.97618 m -14.986,15.22 5.673,3.689 5.673,-3.689 m -23.07304,-28.31613 c -3e-5,13.11237 18.7423,19.67907 29.70371,10.4072 3.26313,-2.76016 5.09633,-6.50372 5.09633,-10.40716 m 0,0 c 10e-6,-8.12853 -7.79022,-14.718 -17.39998,-14.71801 -9.60975,-1e-5 -17.40001,6.58944 -17.40002,14.71797 m 0,0.66519 c -4e-5,13.11237 18.7423,19.67908 29.70369,10.40721 3.26311,-2.76016 5.09631,-6.50373 5.09631,-10.40717"
     transform="matrix(0.24260494,0,0,0.24260494,-121.74541,-166.98248)" /><path
     id="path5822"
     style="display:inline;fill:none;stroke:#000000;stroke-width:1.37407;stroke-dasharray:none"
     d="m 510.599,706.541 v -0.665 m 34.802,0.665 v -0.665 m -26.714,22.072 v -8.976 m 18.626,8.976 v -8.976 m -14.986,15.22 5.673,3.689 5.673,-3.689 m -3.583,-24.763 -0.661,4.395 m -3.519,-4.395 0.661,4.395 m -5.20785,-6.32668 c -0.75968,-0.86173 -1.64409,-1.8633 -2.70992,-3.07653 m 5.14777,-0.30979 0.442,3.708 m 0.994,-4.279 0.798,6.652 m 0.63839,-1.50035 c -0.24189,0.61229 -0.44599,1.09229 -0.63874,1.50048 M 525.91,702.323 l 0.763,6.369 m 0.0268,-0.76759 c -0.0101,0.27717 -0.0189,0.53291 -0.0264,0.76724 m 2.62852,-0.76967 c -0.84739,-0.22612 -1.75652,-0.22612 -2.60391,0 m 2.62856,0.76967 c -0.008,-0.23433 -0.0163,-0.49007 -0.0264,-0.76724 m 0.78979,-5.60141 -0.763,6.369 m 0.63835,1.50013 c -0.19275,-0.40819 -0.39685,-0.88819 -0.63874,-1.50048 m 1.43639,-5.15165 -0.798,6.652 m 2.234,-6.081 -0.442,3.708 m 5.58977,-3.39821 c -1.06583,1.21323 -1.95024,2.2148 -2.70992,3.07653 m 2.7101,-0.16599 c 0.2094,-0.96219 0.2094,-1.94862 0,-2.91081 m 5e-5,2.91048 -5.148,0.314 m 0,0 -1.436,0.567 m 0,0 -0.673,1.217 m 0,0 -0.37,4.354 m -3.44058,-8.6e-4 c 1.13752,0.17712 2.30371,0.17712 3.44123,-10e-6 m -3.44065,8.7e-4 -0.37,-4.354 m 0,0 -0.673,-1.217 m 0,0 -1.436,-0.567 m 0,0 -5.148,-0.314 m 5e-5,-2.91049 c -0.2094,0.96218 -0.2094,1.94862 0,2.9108 m -5e-5,-2.91031 5.148,-0.31 m 0,0 1.436,-0.571 m 0,0 0.673,-1.217 m 0,0 0.37,-4.354 m 3.4406,6.7e-4 c -1.13752,-0.17712 -2.30371,-0.17712 -3.44123,1e-5 m 3.44063,-6.8e-4 0.37,4.354 m 0,0 0.673,1.217 m 0,0 1.436,0.571 m 0,0 5.148,0.31 m -26.747,1.45487 c -3e-5,13.11237 18.7423,19.67907 29.70369,10.4072 M 545.4,705.87591 c 10e-6,-8.12853 -7.79022,-14.718 -17.39998,-14.71801 -9.60975,-1e-5 -17.40001,6.58944 -17.40002,14.71797 m 29.70369,10.4072 C 543.5668,713.52291 545.4,709.77935 545.4,705.87591 m -34.8,0.66515 c -4e-5,13.11237 18.7423,19.67908 29.70369,10.40721 m 0,0 C 543.5668,714.18811 545.4,710.44454 545.4,706.5411 m -11.72566,27.65262 c 0.32043,-0.2083 0.6245,-0.43403 0.91026,-0.67575 m -12.25893,0.67576 c 3.34592,2.17505 8.00276,2.17505 11.34867,-10e-6 M 518.688,727.94833 c -10e-6,2.4467 1.34417,4.75448 3.63767,6.2454 m 12.25893,-0.67576 c 1.74632,-1.47716 2.7274,-3.48061 2.7274,-5.56962"
     transform="matrix(0.24260494,0,0,0.24260494,-121.74541,-166.98248)" /></svg>
