<?xml version="1.0" encoding="UTF-8" standalone="no"?>
<!-- Created with Inkscape (http://www.inkscape.org/) -->

<svg
   width="48"
   height="48"
   viewBox="0 0 12.7 12.7"
   version="1.1"
   id="svg5"
   xml:space="preserve"
   xmlns="http://www.w3.org/2000/svg"
   xmlns:svg="http://www.w3.org/2000/svg"><defs
     id="defs2"><marker
       id="DistanceX"
       orient="auto"
       refX="0"
       refY="0"
       style="overflow:visible"><path
         d="M 3,-3 -3,3 M 0,-5 V 5"
         style="stroke:#000000;stroke-width:0.5"
         id="path134" /></marker><pattern
       id="Hatch"
       patternUnits="userSpaceOnUse"
       width="8"
       height="8"
       x="0"
       y="0"><path
         d="M8 4 l-4,4"
         stroke="#000000"
         stroke-width="0.25"
         linecap="square"
         id="path137" /><path
         d="M6 2 l-4,4"
         stroke="#000000"
         stroke-width="0.25"
         linecap="square"
         id="path139" /><path
         d="M4 0 l-4,4"
         stroke="#000000"
         stroke-width="0.25"
         linecap="square"
         id="path141" /></pattern><symbol
       id="*MODEL_SPACE" /><symbol
       id="*PAPER_SPACE" /><marker
       id="DistanceX-3"
       orient="auto"
       refX="0.0"
       refY="0.0"
       style="overflow:visible"><path
         d="M 3,-3 L -3,3 M 0,-5 L  0,5"
         style="stroke:#000000; stroke-width:0.5"
         id="path5225" /></marker><pattern
       id="Hatch-5"
       patternUnits="userSpaceOnUse"
       width="8"
       height="8"
       x="0"
       y="0"><path
         d="M8 4 l-4,4"
         stroke="#000000"
         stroke-width="0.25"
         linecap="square"
         id="path5228" /><path
         d="M6 2 l-4,4"
         stroke="#000000"
         stroke-width="0.25"
         linecap="square"
         id="path5230" /><path
         d="M4 0 l-4,4"
         stroke="#000000"
         stroke-width="0.25"
         linecap="square"
         id="path5232" /></pattern><symbol
       id="*MODEL_SPACE-5" /><symbol
       id="*PAPER_SPACE-6" /><marker
       id="DistanceX-1"
       orient="auto"
       refX="0.0"
       refY="0.0"
       style="overflow:visible"><path
         d="M 3,-3 L -3,3 M 0,-5 L  0,5"
         style="stroke:#000000; stroke-width:0.5"
         id="path8517" /></marker><pattern
       id="Hatch-4"
       patternUnits="userSpaceOnUse"
       width="8"
       height="8"
       x="0"
       y="0"><path
         d="M8 4 l-4,4"
         stroke="#000000"
         stroke-width="0.25"
         linecap="square"
         id="path8520" /><path
         d="M6 2 l-4,4"
         stroke="#000000"
         stroke-width="0.25"
         linecap="square"
         id="path8522" /><path
         d="M4 0 l-4,4"
         stroke="#000000"
         stroke-width="0.25"
         linecap="square"
         id="path8524" /></pattern><symbol
       id="*MODEL_SPACE-52" /><symbol
       id="*PAPER_SPACE-9" /><marker
       id="DistanceX-2"
       orient="auto"
       refX="0.0"
       refY="0.0"
       style="overflow:visible"><path
         d="M 3,-3 L -3,3 M 0,-5 L  0,5"
         style="stroke:#000000; stroke-width:0.5"
         id="path11956" /></marker><pattern
       id="Hatch-9"
       patternUnits="userSpaceOnUse"
       width="8"
       height="8"
       x="0"
       y="0"><path
         d="M8 4 l-4,4"
         stroke="#000000"
         stroke-width="0.25"
         linecap="square"
         id="path11959" /><path
         d="M6 2 l-4,4"
         stroke="#000000"
         stroke-width="0.25"
         linecap="square"
         id="path11961" /><path
         d="M4 0 l-4,4"
         stroke="#000000"
         stroke-width="0.25"
         linecap="square"
         id="path11963" /></pattern><symbol
       id="*MODEL_SPACE-6" /><symbol
       id="*PAPER_SPACE-4" /></defs><path
     id="path12074"
     style="fill:#5fd3c2;fill-opacity:1;stroke:none;stroke-width:1.37407;stroke-dasharray:none"
     d="m 510.599,706.541 v -0.665 m 34.802,0.665 v -0.665 m -26.714,13.096 5e-4,8.97617 c 4.9e-4,2.44686 1.34467,4.75464 3.63817,6.24556 3.34592,2.17505 8.00276,2.17505 11.34867,-10e-6 0.32043,-0.2083 0.6245,-0.43403 0.91026,-0.67575 1.74632,-1.47716 2.7274,-3.48061 2.7279,-5.56979 l 5e-4,-8.97618 m -14.986,15.22 5.673,3.689 5.673,-3.689 m -3.659,-27.341 -0.616,4.105 m -3.412,-4.105 0.616,4.105 m -4.65302,-5.87002 c -0.6652,-0.75212 -1.44,-1.62897 -2.36221,-2.67968 m 4.28623,-0.7523 0.427,3.56 m 1.005,-4.187 0.73,6.092 m 0.63839,-1.5001 c -0.24189,0.61228 -0.44599,1.09228 -0.63874,1.50047 m -0.0487,-7.24937 0.687,5.749 m 0.0268,-0.76735 c -0.0101,0.27717 -0.0189,0.53292 -0.0264,0.76725 m -0.31753,-8.93859 c 0.15874,3.79087 0.26456,6.29292 0.34393,8.17134 m 2.60212,0.001 c -0.84739,-0.22612 -1.75652,-0.22612 -2.60391,0 m 2.60211,-0.001 c 0.0794,-1.87842 0.18519,-4.38047 0.34393,-8.17134 m -0.31748,8.93859 c -0.008,-0.23433 -0.0163,-0.49008 -0.0264,-0.76725 m 0.71379,-4.98165 -0.687,5.749 m 0.63835,1.50037 c -0.19275,-0.40819 -0.39685,-0.88819 -0.63874,-1.50047 m 1.36839,-4.5919 -0.73,6.092 m 2.162,-5.465 -0.427,3.56 m 4.71323,-2.8077 c -0.92221,1.05071 -1.69701,1.92756 -2.36221,2.67968 m -3.35517,0.49957 c -0.22612,0.41568 -0.45309,0.83733 -0.6807,1.26457 m -0.36869,4.06505 c 0.12912,-1.38966 0.25266,-2.74862 0.36979,-4.06761 m -3.66125,4.06747 c 1.08638,0.17964 2.2036,0.17964 3.28998,0 m -3.66125,-4.0677 c 0.11713,1.31908 0.24068,2.67813 0.36981,4.0679 m -0.36881,-4.06532 c -0.22756,-0.42714 -0.45448,-0.8487 -0.68055,-1.2643 m 0.002,-6.5e-4 c -0.47807,-0.18001 -0.95509,-0.35388 -1.43063,-0.52146 m -8.6e-4,-10e-4 c -1.44703,-0.004 -2.87986,0.0384 -4.28874,0.12713 m -10e-4,-2.78354 c -0.21238,0.91894 -0.21237,1.86398 10e-6,2.78292 m 4.28985,-3.53476 c -1.44703,0.19406 -2.87987,0.44553 -4.28876,0.75269 m 5.72015,-1.3803 c -0.47807,0.20244 -0.95509,0.41246 -1.43063,0.62986 m 2.10915,-1.78659 c -0.22761,0.37741 -0.45458,0.7629 -0.6807,1.15615 m 1.04937,-4.34489 c -0.12912,0.99377 -0.25266,2.05878 -0.36978,3.18777 m 3.66128,-3.18925 c -1.0864,-0.17965 -2.20366,-0.17965 -3.29006,0 m 3.66129,3.1892 c -0.11712,-1.12899 -0.24066,-2.194 -0.36978,-3.18777 m 1.04935,4.34489 c -0.22612,-0.39325 -0.45309,-0.77874 -0.6807,-1.15615 m 2.10912,1.78661 c -0.47554,-0.2174 -0.95256,-0.42741 -1.43063,-0.62985 m 5.72046,1.38038 c -1.40899,-0.30719 -2.84193,-0.55868 -4.28907,-0.75276 m 4.28991,3.53479 c 0.21238,-0.91895 0.21239,-1.86399 1e-5,-2.78294 m -9.3e-4,2.78354 c -1.40888,-0.0887 -2.84172,-0.1312 -4.28875,-0.12713 m -8.6e-4,10e-4 c -0.47564,0.16762 -0.95276,0.34152 -1.43093,0.52157 M 510.6,705.87587 c -3e-5,13.11237 18.7423,19.67907 29.70369,10.4072 3.26311,-2.76016 5.09631,-6.50372 5.09631,-10.40716 m 0,0 c 10e-6,-8.12853 -7.79022,-14.718 -17.39998,-14.71801 -9.60975,-1e-5 -17.40001,6.58944 -17.40002,14.71797 m 0,0.66519 c -4e-5,13.11237 18.7423,19.67908 29.70369,10.40721 3.26311,-2.76016 5.09631,-6.50373 5.09631,-10.40717"
     transform="matrix(0.24260494,0,0,0.24260494,-121.74541,-166.98248)" /><path
     id="path12607"
     style="display:inline;fill:none;stroke:#000000;stroke-width:1.37407;stroke-dasharray:none"
     d="m 510.599,706.541 v -0.665 m 34.802,0.665 v -0.665 m -26.714,22.072 v -8.976 m 18.626,8.976 v -8.976 m -14.986,15.22 5.673,3.689 5.673,-3.689 m -3.659,-27.341 -0.616,4.105 m -3.412,-4.105 0.616,4.105 m -4.65302,-5.87002 c -0.6652,-0.75212 -1.44,-1.62897 -2.36221,-2.67968 m 4.28623,-0.7523 0.427,3.56 m 1.005,-4.187 0.73,6.092 m 0.63839,-1.5001 c -0.24189,0.61228 -0.44599,1.09228 -0.63874,1.50047 m -0.0487,-7.24937 0.687,5.749 m 0.0268,-0.76735 c -0.0101,0.27717 -0.0189,0.53292 -0.0264,0.76725 m -0.31753,-8.93859 c 0.15874,3.79087 0.26456,6.29292 0.34393,8.17134 m 2.60212,0.001 c -0.84739,-0.22612 -1.75652,-0.22612 -2.60391,0 m 2.60211,-0.001 c 0.0794,-1.87842 0.18519,-4.38047 0.34393,-8.17134 m -0.31748,8.93859 c -0.008,-0.23433 -0.0163,-0.49008 -0.0264,-0.76725 m 0.71379,-4.98165 -0.687,5.749 m 0.63835,1.50037 c -0.19275,-0.40819 -0.39685,-0.88819 -0.63874,-1.50047 m 1.36839,-4.5919 -0.73,6.092 m 2.162,-5.465 -0.427,3.56 m 4.71323,-2.8077 c -0.92221,1.05071 -1.69701,1.92756 -2.36221,2.67968 m -3.35517,0.49957 c -0.22612,0.41568 -0.45309,0.83733 -0.6807,1.26457 m -0.36869,4.06505 c 0.12912,-1.38966 0.25266,-2.74862 0.36979,-4.06761 m -3.66125,4.06747 c 1.08638,0.17964 2.2036,0.17964 3.28998,0 m -3.66125,-4.0677 c 0.11713,1.31908 0.24068,2.67813 0.36981,4.0679 m -0.36881,-4.06532 c -0.22756,-0.42714 -0.45448,-0.8487 -0.68055,-1.2643 m 0.002,-6.5e-4 c -0.47807,-0.18001 -0.95509,-0.35388 -1.43063,-0.52146 m -8.6e-4,-10e-4 c -1.44703,-0.004 -2.87986,0.0384 -4.28874,0.12713 m -10e-4,-2.78354 c -0.21238,0.91894 -0.21237,1.86398 10e-6,2.78292 m 4.28985,-3.53476 c -1.44703,0.19406 -2.87987,0.44553 -4.28876,0.75269 m 5.72015,-1.3803 c -0.47807,0.20244 -0.95509,0.41246 -1.43063,0.62986 m 2.10915,-1.78659 c -0.22761,0.37741 -0.45458,0.7629 -0.6807,1.15615 m 1.04937,-4.34489 c -0.12912,0.99377 -0.25266,2.05878 -0.36978,3.18777 m 3.66128,-3.18925 c -1.0864,-0.17965 -2.20366,-0.17965 -3.29006,0 m 3.66129,3.1892 c -0.11712,-1.12899 -0.24066,-2.194 -0.36978,-3.18777 m 1.04935,4.34489 c -0.22612,-0.39325 -0.45309,-0.77874 -0.6807,-1.15615 m 2.10912,1.78661 c -0.47554,-0.2174 -0.95256,-0.42741 -1.43063,-0.62985 m 5.72046,1.38038 c -1.40899,-0.30719 -2.84193,-0.55868 -4.28907,-0.75276 m 4.28991,3.53479 c 0.21238,-0.91895 0.21239,-1.86399 1e-5,-2.78294 m -9.3e-4,2.78354 c -1.40888,-0.0887 -2.84172,-0.1312 -4.28875,-0.12713 m -8.6e-4,10e-4 c -0.47564,0.16762 -0.95276,0.34152 -1.43093,0.52157 M 510.6,705.87587 c -3e-5,13.11237 18.7423,19.67907 29.70369,10.4072 M 545.4,705.87591 c 10e-6,-8.12853 -7.79022,-14.718 -17.39998,-14.71801 -9.60975,-1e-5 -17.40001,6.58944 -17.40002,14.71797 m 29.70369,10.4072 C 543.5668,713.52291 545.4,709.77935 545.4,705.87591 m -34.8,0.66515 c -4e-5,13.11237 18.7423,19.67908 29.70369,10.40721 m 0,0 C 543.5668,714.18811 545.4,710.44454 545.4,706.5411 m -11.72566,27.65262 c 0.32043,-0.2083 0.6245,-0.43403 0.91026,-0.67575 m -12.25893,0.67576 c 3.34592,2.17505 8.00276,2.17505 11.34867,-10e-6 M 518.688,727.94833 c -10e-6,2.4467 1.34417,4.75448 3.63767,6.2454 m 12.25893,-0.67576 c 1.74632,-1.47716 2.7274,-3.48061 2.7274,-5.56962"
     transform="matrix(0.24260494,0,0,0.24260494,-121.74541,-166.98248)" /></svg>
