<?xml version="1.0" encoding="UTF-8"?>
<svg width="48" height="48" version="1.1" viewBox="0 0 48 48" xml:space="preserve" xmlns="http://www.w3.org/2000/svg" xmlns:cc="http://creativecommons.org/ns#" xmlns:dc="http://purl.org/dc/elements/1.1/" xmlns:rdf="http://www.w3.org/1999/02/22-rdf-syntax-ns#"><metadata><rdf:RDF><cc:Work rdf:about=""><dc:format>image/svg+xml</dc:format><dc:type rdf:resource="http://purl.org/dc/dcmitype/StillImage"/></cc:Work></rdf:RDF></metadata><g stroke="#000000" stroke-linecap="round" stroke-linejoin="round"><path d="m44.44 20.31v8.887l-20.26 11.7-20.31-11.73v-8.854s5.593-6.102 9.717-8.483c4.52-2.61 10.57-3.391 10.57-3.391s5.026 0.1687 10.63 3.406c5.607 3.237 9.658 8.464 9.658 8.464z" fill="#5fd3c2"/><path d="m24.17 40.89v-8.828" fill="none"/><path d="m3.857 20.31s5.489 0.3084 10.06 2.949c4.573 2.64 10.25 8.807 10.25 8.807s4.566-5.513 9.885-8.584c5.319-3.071 10.38-3.175 10.38-3.175" fill="none"/><ellipse cx="24.15" cy="18.08" rx="6.297" ry="3.395" fill="none"/><ellipse cx="24.15" cy="17.44" rx="8.747" ry="4.952" fill="none"/></g><ellipse cx="24.15" cy="17.47" rx="13.11" ry="7.764" fill="none" stroke="#000000" stroke-linecap="round" stroke-linejoin="round"/></svg>
