<?xml version="1.0" encoding="UTF-8" standalone="no"?>
<svg
   xmlns:dc="http://purl.org/dc/elements/1.1/"
   xmlns:cc="http://creativecommons.org/ns#"
   xmlns:rdf="http://www.w3.org/1999/02/22-rdf-syntax-ns#"
   xmlns:svg="http://www.w3.org/2000/svg"
   xmlns="http://www.w3.org/2000/svg"
   xmlns:sodipodi="http://sodipodi.sourceforge.net/DTD/sodipodi-0.dtd"
   xmlns:inkscape="http://www.inkscape.org/namespaces/inkscape"
   sodipodi:docname="ASMEB18.3.2.svg"
   inkscape:version="1.0 (4035a4fb49, 2020-05-01)"
   version="1.1"
   id="svg15825"
   viewBox="0 0 48.000001 48.000001"
   height="48"
   width="48">
  <defs
     id="defs15827" />
  <sodipodi:namedview
     inkscape:document-rotation="0"
     inkscape:window-maximized="1"
     inkscape:window-y="0"
     inkscape:window-x="0"
     inkscape:window-height="1027"
     inkscape:window-width="1920"
     units="px"
     showgrid="false"
     inkscape:current-layer="layer1"
     inkscape:document-units="px"
     inkscape:cy="24"
     inkscape:cx="24"
     inkscape:zoom="12.625"
     inkscape:pageshadow="2"
     inkscape:pageopacity="0.0"
     borderopacity="1.0"
     bordercolor="#666666"
     pagecolor="#ffffff"
     id="base" />
  <metadata
     id="metadata15830">
    <rdf:RDF>
      <cc:Work
         rdf:about="">
        <dc:format>image/svg+xml</dc:format>
        <dc:type
           rdf:resource="http://purl.org/dc/dcmitype/StillImage" />
        <dc:title></dc:title>
      </cc:Work>
    </rdf:RDF>
  </metadata>
  <g
     transform="translate(0,-1004.3622)"
     id="layer1"
     inkscape:groupmode="layer"
     inkscape:label="Layer 1">
    <path
       sodipodi:open="true"
       sodipodi:end="6.2751393"
       sodipodi:start="0"
       sodipodi:ry="16.475813"
       sodipodi:rx="19.295498"
       sodipodi:cy="1023.8632"
       sodipodi:cx="24.062946"
       sodipodi:type="arc"
       id="path15409"
       style="fill:#5fd3c2;fill-opacity:1;fill-rule:evenodd;stroke:none;stroke-width:3.80049;stroke-linecap:round;stroke-linejoin:round;stroke-miterlimit:4;stroke-dasharray:none;stroke-dashoffset:0;stroke-opacity:1"
       sodipodi:arc-type="arc"
       d="m 43.358444,1023.8632 a 19.295498,16.475813 0 0 1 -19.256685,16.4758 19.295498,16.475813 0 0 1 -19.3341544,-16.4095 19.295498,16.475813 0 0 1 19.1789034,-16.5418 19.295498,16.475813 0 0 1 19.411312,16.343" />
    <path
       inkscape:connector-curvature="0"
       id="path15411"
       d="m 14.028789,1038.1953 c -0.781966,0.2965 -0.391761,1.3008 -0.512705,1.9377 -0.219086,2.4204 1.105833,4.7279 2.96834,6.1887 3.82352,3.0802 9.911326,3.0754 13.528857,-0.3375 1.575237,-1.3645 2.380457,-3.4273 2.383814,-5.4881 0.20068,-0.5814 -0.108588,-1.4853 -0.853754,-1.1272 -4.148405,1.3714 -8.763213,1.5211 -12.959981,0.3812 -1.518358,-0.3553 -2.925297,-1.0459 -4.387838,-1.5556 -0.05449,0.015 -0.111827,-0.01 -0.166733,8e-4 z"
       style="fill:#5fd3c2;fill-opacity:1;fill-rule:evenodd;stroke:none;stroke-width:1.07258;stroke-linecap:round;stroke-linejoin:round;stroke-miterlimit:4;stroke-dasharray:none;stroke-dashoffset:0;stroke-opacity:1" />
    <g
       transform="matrix(3.8004887,0,0,3.8004885,-491.60792,582.90033)"
       id="g14111">
      <path
         style="fill:none;stroke:#000000;stroke-width:0.282222;stroke-linecap:round;stroke-linejoin:round;stroke-miterlimit:4;stroke-dasharray:none"
         id="38"
         d="m 132.9333,119.67069 -0.0453,0.64525"
         inkscape:connector-curvature="0"
         sodipodi:nodetypes="cc" />
      <path
         style="fill:none;stroke:#000000;stroke-width:0.282222;stroke-linecap:round;stroke-linejoin:round;stroke-miterlimit:4;stroke-dasharray:none"
         id="39"
         d="m 137.92359,119.98114 -0.0451,0.6452"
         inkscape:connector-curvature="0"
         sodipodi:nodetypes="cc" />
      <path
         style="fill:none;stroke:#000000;stroke-width:0.282222;stroke-linecap:round;stroke-linejoin:round;stroke-miterlimit:4;stroke-dasharray:none"
         id="40"
         d="m 130.68214,115.59758 -0.0211,0.33432"
         inkscape:connector-curvature="0" />
      <path
         style="fill:none;stroke:#000000;stroke-width:0.282222;stroke-linecap:round;stroke-linejoin:round;stroke-miterlimit:4;stroke-dasharray:none"
         id="41"
         d="m 140.66282,116.21841 -0.0211,0.33433"
         inkscape:connector-curvature="0" />
      <path
         style="fill:none;stroke:#000000;stroke-width:0.282222;stroke-linecap:round;stroke-linejoin:round;stroke-miterlimit:4;stroke-dasharray:none"
         d="m 136.84174,122.18441 c 0.61641,-0.35602 0.99785,-0.92933 1.03665,-1.55807"
         id="path9924"
         inkscape:connector-curvature="0"
         sodipodi:nodetypes="cc" />
      <path
         style="fill:none;stroke:#000000;stroke-width:0.282222;stroke-linecap:round;stroke-linejoin:round;stroke-miterlimit:4;stroke-dasharray:none"
         d="m 132.88801,120.31594 c -0.10881,1.73545 2.25223,2.85124 3.95373,1.86847"
         id="path9926"
         inkscape:connector-curvature="0"
         sodipodi:nodetypes="cc" />
      <path
         style="fill:none;stroke:#000000;stroke-width:0.282222;stroke-linecap:round;stroke-linejoin:round;stroke-miterlimit:4;stroke-dasharray:none"
         d="m 136.70283,117.11792 a 1.76669,1.46499 3.5595999 0 0 0.72617,-1.32223"
         id="path9930"
         inkscape:connector-curvature="0" />
      <path
         style="fill:none;stroke:#000000;stroke-width:0.282222;stroke-linecap:round;stroke-linejoin:round;stroke-miterlimit:4;stroke-dasharray:none"
         d="m 137.429,115.79569 -0.0581,0.13749 -0.0559,0.12813 -0.0538,0.11998 -0.0522,0.11214 -0.0512,0.10464 -0.0503,0.0983 -0.0497,0.0922 -0.0492,0.0873 -0.0492,0.0827 -0.0495,0.0782 -0.0499,0.075 -0.0512,0.0711 -0.0519,0.0692 -0.0538,0.0657"
         id="path9932"
         inkscape:connector-curvature="0" />
      <path
         style="fill:none;stroke:#000000;stroke-width:0.282222;stroke-linecap:round;stroke-linejoin:round;stroke-miterlimit:4;stroke-dasharray:none"
         d="m 138.5886,119.33277 a 5,4.14614 3.5595999 0 0 2.07422,-3.11436"
         id="path9934"
         inkscape:connector-curvature="0" />
      <path
         style="fill:none;stroke:#000000;stroke-width:0.282222;stroke-linecap:round;stroke-linejoin:round;stroke-miterlimit:4;stroke-dasharray:none"
         d="m 140.66282,116.21841 a 5,4.14614 3.5595999 1 0 -9.98068,-0.62083"
         id="path9936"
         inkscape:connector-curvature="0" />
      <path
         style="fill:none;stroke:#000000;stroke-width:0.282222;stroke-linecap:round;stroke-linejoin:round;stroke-miterlimit:4;stroke-dasharray:none"
         d="m 130.68214,115.59758 a 5,4.14614 3.5595999 0 0 7.90646,3.73519"
         id="path9938"
         inkscape:connector-curvature="0" />
      <path
         style="fill:none;stroke:#000000;stroke-width:0.282222;stroke-linecap:round;stroke-linejoin:round;stroke-miterlimit:4;stroke-dasharray:none"
         d="m 134.94576,117.22939 a 1.76669,1.46499 3.5595999 0 0 1.75707,-0.11147"
         id="path9940"
         inkscape:connector-curvature="0" />
      <path
         style="fill:none;stroke:#000000;stroke-width:0.282222;stroke-linecap:round;stroke-linejoin:round;stroke-miterlimit:4;stroke-dasharray:none"
         d="m 137.429,115.79569 a 1.76669,1.46499 3.5595999 0 0 -1.03031,-1.20995"
         id="path9942"
         inkscape:connector-curvature="0" />
      <path
         style="fill:none;stroke:#000000;stroke-width:0.282222;stroke-linecap:round;stroke-linejoin:round;stroke-miterlimit:4;stroke-dasharray:none"
         d="m 133.91545,116.01944 a 1.76669,1.46499 3.5595999 0 0 1.03031,1.20995"
         id="path9944"
         inkscape:connector-curvature="0" />
      <path
         style="fill:none;stroke:#000000;stroke-width:0.282222;stroke-linecap:round;stroke-linejoin:round;stroke-miterlimit:4;stroke-dasharray:none"
         d="m 136.39869,114.58574 a 1.76669,1.46499 3.5595999 0 0 -1.75698,0.11142"
         id="path9946"
         inkscape:connector-curvature="0" />
      <path
         style="fill:none;stroke:#000000;stroke-width:0.282222;stroke-linecap:round;stroke-linejoin:round;stroke-miterlimit:4;stroke-dasharray:none"
         d="m 134.64171,114.69716 a 1.76669,1.46499 3.5595999 0 0 -0.72626,1.32228"
         id="path9948"
         inkscape:connector-curvature="0" />
      <path
         style="fill:none;stroke:#000000;stroke-width:0.282222;stroke-linecap:round;stroke-linejoin:round;stroke-miterlimit:4;stroke-dasharray:none"
         d="m 138.56813,119.6679 a 5,4.14614 3.5595999 0 0 2.07362,-3.11516"
         id="path9950"
         inkscape:connector-curvature="0" />
      <path
         style="fill:none;stroke:#000000;stroke-width:0.282222;stroke-linecap:round;stroke-linejoin:round;stroke-miterlimit:4;stroke-dasharray:none"
         d="m 130.66108,115.9319 a 5,4.14614 3.5595999 0 0 7.90705,3.736"
         id="path9952"
         inkscape:connector-curvature="0" />
      <path
         style="fill:none;stroke:#000000;stroke-width:0.282222;stroke-linecap:round;stroke-linejoin:round;stroke-miterlimit:4;stroke-dasharray:none"
         d="m 136.70283,117.11792 -0.13737,0.0447 -0.13296,0.0375 -0.12825,0.0325 -0.1253,0.0262 -0.12257,0.0211 -0.12075,0.0154 -0.11973,0.0102 -0.11912,0.005 -0.11972,-1.6e-4 -0.12084,-0.005 -0.12288,-0.011 -0.12562,-0.0164 -0.12888,-0.0214 -0.13308,-0.0271"
         id="path9954"
         inkscape:connector-curvature="0" />
      <path
         style="fill:none;stroke:#000000;stroke-width:0.282222;stroke-linecap:round;stroke-linejoin:round;stroke-miterlimit:4;stroke-dasharray:none"
         d="m 136.39869,114.58574 0.0771,0.1287 0.0747,0.11966 0.0728,0.11153 0.0717,0.10412 0.0709,0.0976 0.0697,0.0902 0.0701,0.0854 0.0702,0.0796 0.0709,0.0745 0.0726,0.0713 0.0735,0.0661 0.076,0.0635 0.0788,0.0607 0.0813,0.057"
         id="path9956"
         inkscape:connector-curvature="0" />
      <path
         style="fill:none;stroke:#000000;stroke-width:0.282222;stroke-linecap:round;stroke-linejoin:round;stroke-miterlimit:4;stroke-dasharray:none"
         d="m 134.94576,117.22939 -0.0813,-0.057 -0.0788,-0.0607 -0.076,-0.0635 -0.0735,-0.0661 -0.0726,-0.0713 -0.0709,-0.0745 -0.0702,-0.0796 -0.0702,-0.0853 -0.0697,-0.0902 -0.0708,-0.0977 -0.0717,-0.10412 -0.0729,-0.11148 -0.0747,-0.11971 -0.0771,-0.1287"
         id="path9958"
         inkscape:connector-curvature="0" />
      <path
         style="fill:none;stroke:#000000;stroke-width:0.282222;stroke-linecap:round;stroke-linejoin:round;stroke-miterlimit:4;stroke-dasharray:none"
         d="m 134.64171,114.69716 0.13308,0.0271 0.12879,0.0215 0.12562,0.0164 0.12297,0.011 0.12084,0.005 0.11972,1.6e-4 0.11912,-0.005 0.11973,-0.0102 0.12075,-0.0154 0.12248,-0.0211 0.1254,-0.0262 0.12824,-0.0325 0.13246,-0.0384 0.13778,-0.0438"
         id="path9960"
         inkscape:connector-curvature="0" />
      <path
         style="fill:none;stroke:#000000;stroke-width:0.282222;stroke-linecap:round;stroke-linejoin:round;stroke-miterlimit:4;stroke-dasharray:none"
         d="m 133.91545,116.01944 0.0534,-0.0667 0.0524,-0.0683 0.0511,-0.0711 0.0499,-0.075 0.0496,-0.0783 0.0492,-0.0827 0.0492,-0.0873 0.0497,-0.0922 0.0503,-0.0983 0.0513,-0.10464 0.0523,-0.11219 0.0538,-0.11998 0.0559,-0.12813 0.0581,-0.13749"
         id="path9962"
         inkscape:connector-curvature="0" />
      <path
         style="fill:none;stroke:#000000;stroke-width:0.282222;stroke-linecap:round;stroke-linejoin:round;stroke-miterlimit:4;stroke-dasharray:none"
         id="268"
         d="m 136.39869,114.58574 -0.0658,1.05993"
         inkscape:connector-curvature="0" />
      <path
         style="fill:none;stroke:#000000;stroke-width:0.282222;stroke-linecap:round;stroke-linejoin:round;stroke-miterlimit:4;stroke-dasharray:none"
         d="m 136.33284,115.64567 0.0566,0.0828 0.0557,0.0799 0.0541,0.0761 0.0532,0.0732 0.0528,0.0712 0.0514,0.0673 0.0515,0.0661 0.0507,0.0631 0.0508,0.0619 0.0506,0.0597 0.0509,0.0584 0.0513,0.057 0.0515,0.0557 0.0525,0.0551"
         id="path9965"
         inkscape:connector-curvature="0" />
      <path
         style="fill:none;stroke:#000000;stroke-width:0.282222;stroke-linecap:round;stroke-linejoin:round;stroke-miterlimit:4;stroke-dasharray:none"
         d="m 134.21284,116.48513 0.0247,-0.0443 0.0241,-0.0463 0.0246,-0.0465 0.025,-0.0468 0.0248,-0.0489 0.0254,-0.0493 0.025,-0.0514 0.0258,-0.0519 0.0262,-0.0532 0.0266,-0.0546 0.027,-0.056 0.0271,-0.0584 0.0282,-0.059 0.0283,-0.0614"
         id="path9967"
         inkscape:connector-curvature="0" />
      <path
         style="fill:none;stroke:#000000;stroke-width:0.282222;stroke-linecap:round;stroke-linejoin:round;stroke-miterlimit:4;stroke-dasharray:none"
         d="m 134.57577,115.75714 0.13385,0.0116 0.12986,0.009 0.12605,0.006 0.1232,0.003 0.12152,2.8e-4 0.11977,-0.003 0.11974,-0.006 0.11911,-0.01 0.1207,-0.0119 0.12238,-0.0152 0.1245,-0.0188 0.12789,-0.0219 0.1319,-0.0254 0.1366,-0.0292"
         id="path9969"
         inkscape:connector-curvature="0" />
      <path
         style="fill:none;stroke:#000000;stroke-width:0.282222;stroke-linecap:round;stroke-linejoin:round;stroke-miterlimit:4;stroke-dasharray:none"
         id="272"
         d="m 134.64171,114.69716 -0.0659,1.05998"
         inkscape:connector-curvature="0" />
    </g>
  </g>
</svg>
