<?xml version="1.0" encoding="UTF-8" standalone="no"?>
<svg
   xmlns:dc="http://purl.org/dc/elements/1.1/"
   xmlns:cc="http://creativecommons.org/ns#"
   xmlns:rdf="http://www.w3.org/1999/02/22-rdf-syntax-ns#"
   xmlns:svg="http://www.w3.org/2000/svg"
   xmlns="http://www.w3.org/2000/svg"
   xmlns:sodipodi="http://sodipodi.sourceforge.net/DTD/sodipodi-0.dtd"
   xmlns:inkscape="http://www.inkscape.org/namespaces/inkscape"
   sodipodi:docname="ASMEB18.3.5D.svg"
   inkscape:version="1.0 (4035a4fb49, 2020-05-01)"
   id="svg8"
   version="1.1"
   viewBox="0 0 12.7 12.7"
   height="48"
   width="48">
  <defs
     id="defs2" />
  <sodipodi:namedview
     inkscape:window-maximized="1"
     inkscape:window-y="0"
     inkscape:window-x="0"
     inkscape:window-height="1027"
     inkscape:window-width="1920"
     inkscape:snap-nodes="false"
     inkscape:snap-bbox-midpoints="true"
     inkscape:snap-bbox="true"
     units="px"
     showgrid="false"
     inkscape:document-rotation="0"
     inkscape:current-layer="layer10"
     inkscape:document-units="mm"
     inkscape:cy="24.141824"
     inkscape:cx="23.139331"
     inkscape:zoom="7.919596"
     inkscape:pageshadow="2"
     inkscape:pageopacity="0.0"
     borderopacity="1.0"
     bordercolor="#666666"
     pagecolor="#ffffff"
     id="base" />
  <metadata
     id="metadata5">
    <rdf:RDF>
      <cc:Work
         rdf:about="">
        <dc:format>image/svg+xml</dc:format>
        <dc:type
           rdf:resource="http://purl.org/dc/dcmitype/StillImage" />
        <dc:title></dc:title>
      </cc:Work>
    </rdf:RDF>
  </metadata>
  <g
     inkscape:groupmode="layer"
     id="layer10"
     inkscape:label="Layer 3"
     style="display:inline">
    <path
       style="fill:#ffaa00;fill-opacity:1;stroke:none;stroke-width:0.00898825"
       d="M 9.0418703,1.9010393 C 8.6332396,1.7011405 8.2934355,1.5563556 8.0885904,1.4948616 7.8380471,1.419649 7.672878,1.3919799 7.3880264,1.3775019 6.2991146,1.3221591 5.6668247,1.3337232 5.1274733,1.418848 4.9345229,1.4493044 4.5349836,1.5554296 4.215826,1.6610053 4.119791,1.6927727 4.0400596,1.7176061 4.0386456,1.7161966 4.0372058,1.7147568 4.1158057,1.6673027 4.2132547,1.6106822 4.3656405,1.5221435 4.4099299,1.501081 4.5297525,1.4601653 4.8067812,1.3655687 5.0337959,1.3111739 5.3041241,1.2746186 5.9306856,1.1898925 6.5813199,1.1486464 6.9678657,1.1691482 c 0.2669142,0.014156 0.4639864,0.045522 0.8650806,0.1376933 0.3372284,0.077494 0.6998327,0.222746 0.9572523,0.3834577 0.1020505,0.063709 0.4125493,0.2686102 0.4264938,0.281443 0.023492,0.02162 -0.03182,-7.495e-4 -0.1748221,-0.070703 z"
       id="path4645" />
    <path
       style="fill:#5fd3c2;fill-opacity:1;stroke:none;stroke-width:0.00898825"
       d="M 10.566995,8.4554307 C 10.522845,8.2897227 10.401711,8.0062473 10.322701,7.8837587 10.214046,7.7153098 10.02673,7.511897 9.8553101,7.3762036 9.6694716,7.2290976 9.2553347,6.9690272 9.0059175,6.8428011 8.7478371,6.7121911 8.4290016,6.6081097 8.0576536,6.5332472 7.9736132,6.5163026 7.8320476,6.4859826 7.743064,6.4658628 7.0403729,6.3069917 6.2855921,6.2803365 5.4465574,6.3847612 5.2570474,6.4083442 5.0144081,6.448258 4.8560737,6.4818874 4.6234147,6.5313042 3.7963761,6.8081396 3.5859831,6.9070285 3.4084821,6.9904573 3.2001307,7.1287969 2.993626,7.300337 2.8570081,7.4138236 2.6150706,7.6539219 2.5313848,7.7590642 2.4083658,7.9136233 2.3016147,8.0907318 2.2368682,8.247687 L 2.2037062,8.328079 2.1986262,8.234572 C 2.1958252,8.1831398 2.1870195,7.1824657 2.1790473,6.0108435 L 2.1645504,3.8806208 2.182897,3.7408906 C 2.2329276,3.3597941 2.2863744,3.2029131 2.4491451,2.959322 2.6071363,2.7228824 2.7535883,2.5674685 3.015626,2.3581743 3.3852515,2.0629483 3.6851698,1.9036249 4.2025727,1.7276418 4.5053965,1.6246426 4.9259877,1.5115812 5.1364761,1.4765931 c 0.146014,-0.024273 0.417644,-0.050947 0.6516496,-0.063997 0.3502915,-0.019529 1.4223725,0.00235 1.7946661,0.03664 0.2218177,0.020423 0.5213564,0.098936 0.769092,0.2015811 0.1982854,0.082156 0.688802,0.310189 0.9723274,0.4520199 0.1770024,0.088543 0.2745295,0.1496068 0.4637001,0.2903313 0.184945,0.1375804 0.2295377,0.1890091 0.4597197,0.5302 0.111727,0.1656087 0.211286,0.3172858 0.221241,0.3370601 0.04083,0.081102 0.07225,0.2200247 0.0925,0.4089671 0.0098,0.091533 0.02812,3.3422052 0.02423,4.3000372 l -0.0022,0.5474289 z"
       id="path4647" />
    <path
       style="fill:#5fd3c2;fill-opacity:1;stroke:none;stroke-width:0.00898825"
       d="M 3.9005727,10.744391 C 3.595558,10.602194 3.3601369,10.470069 3.1927989,10.34717 3.0465196,10.239737 2.7097452,9.8910716 2.5096199,9.6398695 2.3186624,9.4001727 2.181461,8.9702722 2.1980138,8.6634896 2.2219606,8.219592 2.5286878,7.7520605 3.0961221,7.2945253 3.3410037,7.097072 3.5787968,6.9605283 3.8376548,6.8687318 4.3517491,6.6864225 4.7075702,6.5730648 4.8802955,6.5365672 5.1316678,6.4834523 5.4745676,6.4348305 5.8105827,6.404659 c 0.2531259,-0.022727 0.956327,-0.022833 1.171598,-1.515e-4 0.3081065,0.032434 0.6037128,0.080967 0.8327889,0.1367346 0.04944,0.012034 0.1525766,0.034457 0.229201,0.049818 0.4743987,0.09513 0.7986617,0.2154634 1.1724036,0.4350775 0.4899755,0.2879128 0.744201,0.4864134 0.9444648,0.7374433 0.129002,0.1617006 0.19006,0.2717785 0.277462,0.5002119 0.124259,0.3247623 0.161159,0.5484102 0.127313,0.7716299 -0.02433,0.1604864 -0.06156,0.2512318 -0.182502,0.4449196 -0.162223,0.2597922 -0.227115,0.3394682 -0.4258832,0.5229067 -0.2285063,0.210883 -0.3442004,0.299006 -0.5605217,0.426944 -0.10958,0.06481 -0.5379804,0.299258 -0.5662339,0.30988 -0.00999,0.0038 0.00892,-0.02296 0.042634,-0.06024 0.1559459,-0.172415 0.2510714,-0.339466 0.3051586,-0.535896 0.016429,-0.05966 0.019377,-0.09434 0.019377,-0.2276745 0,-0.1722715 -0.00902,-0.2222759 -0.065982,-0.365805 C 8.9997656,9.2176263 8.674682,8.9059796 8.2159805,8.6724424 7.8268914,8.4743479 7.4043504,8.3507363 6.9026592,8.2882419 6.7126452,8.2645756 6.2656064,8.2551939 6.0699809,8.2707669 5.1768204,8.3418873 4.4070025,8.6438987 3.9500091,9.1024614 3.697031,9.3563077 3.5760679,9.6150687 3.5761779,9.9021532 c 1.007e-4,0.2935388 0.1146565,0.5452248 0.3651013,0.8022308 0.054517,0.05595 0.09699,0.101514 0.094377,0.101255 -0.00258,-2.52e-4 -0.063399,-0.02781 -0.1350833,-0.06123 z"
       id="path4649" />
    <path
       style="fill:#5fd3c2;fill-opacity:1;stroke:none;stroke-width:0.00898825"
       d="M 4.5072826,10.978612 C 3.8924724,10.624778 3.6045608,10.159548 3.7203125,9.7069647 3.8405943,9.2366677 4.385705,8.8013026 5.1499439,8.5651562 5.8768478,8.3405467 6.7010128,8.3222456 7.4464505,8.5141632 c 0.5372053,0.1383056 0.9933642,0.3768792 1.2897337,0.6745367 0.1634701,0.1641802 0.2730131,0.3441585 0.3198639,0.5255305 0.032798,0.1269575 0.032813,0.2768649 4.47e-5,0.4042606 -0.029138,0.113303 -0.1026369,0.262431 -0.1798214,0.364869 -0.063156,0.08382 -0.1997442,0.222223 -0.292804,0.296691 C 8.5025594,10.844801 8.3122018,10.968966 8.29854,10.965909 8.2923245,10.964569 7.8622228,10.432274 7.3426965,9.7831312 6.823171,9.1339886 6.3943894,8.6041296 6.3898502,8.6056665 c -0.00455,0.00152 0.6730557,1.4703385 0.1905545,2.1253595 -0.482502,0.65502 -1.9600833,0.268326 -1.9683003,0.279322 l -0.014937,0.01999 z"
       id="path4651"
       sodipodi:nodetypes="cssssccsccscsscc" />
    <path
       style="fill:#5fd3c2;fill-opacity:1;stroke:none;stroke-width:0.00898825"
       d="m 6.0444026,11.425625 c -0.3536425,-0.03127 -0.740205,-0.113717 -1.0427651,-0.22241 -0.1068193,-0.03838 -0.3268138,-0.131608 -0.3387818,-0.143576 -0.00402,-0.004 0.3836047,-0.538187 0.8614432,-1.1869861 0.4778368,-0.648799 0.8716887,-1.1764138 0.8752262,-1.1724785 0.00356,0.00394 0.4061253,0.5066788 0.8946413,1.117208 0.4885152,0.6105296 0.9018405,1.1269346 0.9185001,1.1475676 l 0.03029,0.03752 -0.039785,0.02332 c -0.06014,0.03525 -0.2448537,0.116456 -0.3804872,0.167284 -0.3145441,0.117876 -0.6979056,0.200068 -1.0863043,0.232902 -0.1238882,0.01048 -0.5721486,0.01025 -0.6919734,-3.53e-4 z"
       id="path4653" />
  </g>
  <g
     inkscape:groupmode="layer"
     id="layer9"
     inkscape:label="Layer 2"
     style="display:inline">
    <path
       id="path4633"
       style="fill:none;stroke:#000000;stroke-width:0.406;stroke-miterlimit:4;stroke-dasharray:none"
       d="m 9.1442693,9.9163416 c 0,0.8657534 -1.2883015,1.5844644 -2.7465933,1.5844644 -1.4582918,0 -2.764079,-0.728102 -2.7640797,-1.5938546 0,-0.8657535 1.3010319,-1.5871323 2.7593237,-1.5871323 1.4582926,0 2.7513501,0.7307703 2.7513493,1.5965225 z"
       sodipodi:nodetypes="sssss" />
    <path
       style="fill:none;stroke:#000000;stroke-width:0.406;stroke-linecap:butt;stroke-linejoin:miter;stroke-miterlimit:4;stroke-dasharray:none;stroke-opacity:1"
       d="m 4.3763263,10.973656 c 0,0 -0.9587618,-0.344398 -1.3586997,-0.733474 C 2.6176873,9.8511085 2.417361,9.5692538 2.417361,9.5692538 c 0,0 -0.2689784,-0.4352038 -0.25162,-0.9078391 C 2.183095,8.1887794 2.59107,7.7333835 2.59107,7.7333835 c 0,0 0.5429524,-0.6409038 1.1644329,-0.8661809 0.6214812,-0.2252772 0.9953754,-0.3325337 0.9953754,-0.3325337 0,0 0.6824872,-0.1705421 1.5822642,-0.1840236 0.8997762,-0.013481 1.5845239,0.1866872 1.5845239,0.1866872 0,0 0.673495,0.1013184 1.1562236,0.3724969 0.4827285,0.2711776 0.7104626,0.4488188 0.7104626,0.4488188 0,0 0.4336774,0.3079723 0.6170554,0.7335188 0.183378,0.4255466 0.194024,0.6207219 0.194024,0.6207219 0,0 0.06974,0.3641291 -0.122301,0.6793905 -0.192037,0.3152613 -0.282601,0.4226418 -0.282601,0.4226418 0,0 -0.2742162,0.2952068 -0.5533844,0.4985968 -0.2791679,0.203391 -1.2314626,0.679853 -1.2314626,0.679853"
       id="path4636" />
    <path
       style="fill:none;stroke:#000000;stroke-width:0.406;stroke-linecap:butt;stroke-linejoin:miter;stroke-miterlimit:4;stroke-dasharray:none;stroke-opacity:1"
       d="M 8.3152839,11.045436 6.392294,8.6439586"
       id="path4638"
       sodipodi:nodetypes="cc" />
    <path
       style="fill:none;stroke:#000000;stroke-width:0.406;stroke-linecap:butt;stroke-linejoin:miter;stroke-miterlimit:4;stroke-dasharray:none;stroke-opacity:1"
       d="M 2.1714874,8.6869802 2.1345517,3.9214834 c 0,0 0.025834,-0.387825 0.1164375,-0.6554864 0.090606,-0.2676622 0.3923886,-0.6141646 0.3923886,-0.6141646 0,0 0.4758135,-0.5022687 1.0672847,-0.7669421 0.5914712,-0.2646733 1.3271324,-0.4216309 1.3271324,-0.4216309 0,0 0.3504642,-0.073076 0.9668393,-0.088852 0.6163759,-0.01577 1.5755371,0.043165 1.5755371,0.043165 0,0 0.3729811,0.02616 0.848105,0.2329158 0.4751247,0.2067525 1.0574893,0.4979219 1.0574893,0.4979219 0,0 0.4618806,0.289913 0.5790434,0.454995 0.117162,0.1650813 0.409519,0.6056969 0.409519,0.6056969 0,0 0.08518,0.096701 0.11571,0.4647608 0.03053,0.3680599 0.01464,0.6619922 0.01464,0.6619922 l 0.01783,4.5162608"
       id="path4640" />
    <path
       style="fill:none;stroke:#000000;stroke-width:0.406;stroke-linecap:butt;stroke-linejoin:miter;stroke-miterlimit:4;stroke-dasharray:none;stroke-opacity:1"
       d="M 3.3534159,2.0766162 4.3760694,1.4821645 c 0,0 0.3060566,-0.1178053 0.6368208,-0.1897396 0.3307643,-0.071931 1.1295661,-0.1356851 1.1295661,-0.1356851 0,0 0.7017682,-0.0541 1.1067901,0.00568 0.4050221,0.059799 0.8079085,0.1682239 0.8079085,0.1682239 0,0 0.3844118,0.1306592 0.6168108,0.2555334 0.2323998,0.1248752 0.9836211,0.6555262 0.9836211,0.6555262"
       id="path4642" />
  </g>
</svg>
