<?xml version="1.0" encoding="UTF-8" standalone="no"?>
<svg
   xmlns:dc="http://purl.org/dc/elements/1.1/"
   xmlns:cc="http://creativecommons.org/ns#"
   xmlns:rdf="http://www.w3.org/1999/02/22-rdf-syntax-ns#"
   xmlns:svg="http://www.w3.org/2000/svg"
   xmlns="http://www.w3.org/2000/svg"
   xmlns:sodipodi="http://sodipodi.sourceforge.net/DTD/sodipodi-0.dtd"
   xmlns:inkscape="http://www.inkscape.org/namespaces/inkscape"
   sodipodi:docname="ASMEB18.2.2.4B.svg"
   inkscape:version="1.0 (4035a4fb49, 2020-05-01)"
   version="1.1"
   id="svg15825"
   viewBox="0 0 48.000001 48.000001"
   height="48"
   width="48">
  <defs
     id="defs15827" />
  <sodipodi:namedview
     inkscape:document-rotation="0"
     inkscape:window-maximized="1"
     inkscape:window-y="0"
     inkscape:window-x="0"
     inkscape:window-height="1027"
     inkscape:window-width="1920"
     units="px"
     showgrid="false"
     inkscape:current-layer="layer1"
     inkscape:document-units="px"
     inkscape:cy="19.321749"
     inkscape:cx="21.90099"
     inkscape:zoom="12.625"
     inkscape:pageshadow="2"
     inkscape:pageopacity="0.0"
     borderopacity="1.0"
     bordercolor="#666666"
     pagecolor="#ffffff"
     id="base" />
  <metadata
     id="metadata15830">
    <rdf:RDF>
      <cc:Work
         rdf:about="">
        <dc:format>image/svg+xml</dc:format>
        <dc:type
           rdf:resource="http://purl.org/dc/dcmitype/StillImage" />
        <dc:title></dc:title>
      </cc:Work>
    </rdf:RDF>
  </metadata>
  <g
     transform="translate(0,-1004.3622)"
     id="layer1"
     inkscape:groupmode="layer"
     inkscape:label="Layer 1">
    <path
       sodipodi:nodetypes="cccccccccccccccc"
       inkscape:connector-curvature="0"
       id="path8155"
       d="m 31.161908,1010.3656 c -5.40149,0.056 -16.274987,0.8716 -20.144309,2.0939 -2.3052936,2.8145 -4.9178085,8.2413 -6.6653397,13.733 -0.7942605,6.9674 -1.555256,4.3537 -0.7942605,7.5083 2.79759,3.1852 9.1337912,9.6917 13.2593702,12.0189 6.076372,0.1601 14.487426,0.2493 20.406208,-1.8966 3.080474,-4.3872 7.505689,-11.7343 7.287028,-14.5122 0.237147,-3.0756 0.681679,-3.6267 0.520772,-6.4478 -4.051947,-4.0933 -7.646198,-9.688 -13.869469,-12.4975 z m -9.590553,14.5923 c 2.24786,-0.2235 4.408389,0.2469 6.231079,0.7253 1.884538,1.1235 2.60386,1.5497 3.981053,3.3575 -3.102335,1.8165 -1.651727,0.9732 -4.492086,2.2666 -4.182272,0.3558 -5.305149,-0.073 -6.744262,-0.4354 -1.437957,-0.8796 -2.973766,-2.1049 -4.214321,-3.3333 0,0 3.610703,-2.2741 5.238537,-2.5807 z"
       style="fill:#5fd3c2;fill-opacity:1;fill-rule:evenodd;stroke:none;stroke-width:1;stroke-linecap:round;stroke-linejoin:round;stroke-miterlimit:4;stroke-dasharray:none;stroke-dashoffset:0;stroke-opacity:1" />
    <path
       inkscape:connector-curvature="0"
       id="path4347"
       d="m 30.50459,1030.2565 a 9.3786248,6.877192 5.3305994 0 0 3.308443,-4.6556"
       style="fill:none;stroke:#000000;stroke-width:1;stroke-linecap:round;stroke-linejoin:miter;stroke-miterlimit:4;stroke-dasharray:none" />
    <path
       inkscape:connector-curvature="0"
       id="path4349"
       d="M 33.813033,1025.6009 A 9.3790421,6.8774982 5.3305994 0 0 15.136216,1023.857"
       style="fill:none;stroke:#000000;stroke-width:1;stroke-linecap:round;stroke-linejoin:miter;stroke-miterlimit:4;stroke-dasharray:none" />
    <path
       inkscape:connector-curvature="0"
       id="path4351"
       d="m 15.136216,1023.857 a 9.3786248,6.877192 5.3305994 0 0 15.368374,6.3995"
       style="fill:none;stroke:#000000;stroke-width:1;stroke-linecap:round;stroke-linejoin:miter;stroke-miterlimit:4;stroke-dasharray:none" />
    <g
       id="g4353"
       transform="matrix(4.5177114,0.42152906,0.42152906,-4.5177114,-820.42484,1212.8582)"
       style="fill:none;stroke:#000000;stroke-width:0.220394;stroke-linecap:round;stroke-linejoin:miter;stroke-miterlimit:4;stroke-dasharray:none">
      <ellipse
         id="ellipse4355"
         ry="2.1081901"
         rx="2.875"
         cy="58.730099"
         cx="181.55299"
         style="stroke-width:0.220394;stroke-linecap:round;stroke-miterlimit:4;stroke-dasharray:none" />
    </g>
    <path
       inkscape:connector-curvature="0"
       id="path4357"
       d="m 32.189574,1028.9589 a 9.3786248,6.877192 5.3305994 0 0 -16.080432,-1.4984"
       style="fill:none;stroke:#000000;stroke-width:1;stroke-linecap:round;stroke-linejoin:miter;stroke-miterlimit:4;stroke-dasharray:none" />
    <path
       inkscape:connector-curvature="0"
       id="path4359"
       d="m 36.208443,1034.7646 a 18.149337,13.308636 5.3305994 0 0 5.362161,-5.4325"
       style="fill:none;stroke:#000000;stroke-width:1;stroke-linecap:round;stroke-linejoin:miter;stroke-miterlimit:4;stroke-dasharray:none" />
    <path
       inkscape:connector-curvature="0"
       id="path4361"
       d="m 27.718485,1037.3296 a 18.149337,13.308636 5.3305994 0 0 8.489958,-2.565"
       style="fill:none;stroke:#000000;stroke-width:1;stroke-linecap:round;stroke-linejoin:miter;stroke-miterlimit:4;stroke-dasharray:none" />
    <path
       inkscape:connector-curvature="0"
       id="path4363"
       d="m 41.570604,1029.3321 a 18.149337,13.308636 5.3305994 0 0 -3.182849,-13.2672"
       style="fill:none;stroke:#000000;stroke-width:1;stroke-linecap:round;stroke-linejoin:miter;stroke-miterlimit:4;stroke-dasharray:none" />
    <path
       inkscape:connector-curvature="0"
       id="path4365"
       d="m 10.683941,1032.0596 a 18.149337,13.308636 5.3305994 0 0 17.034544,5.27"
       style="fill:none;stroke:#000000;stroke-width:1;stroke-linecap:round;stroke-linejoin:miter;stroke-miterlimit:4;stroke-dasharray:none" />
    <path
       inkscape:connector-curvature="0"
       id="path4367"
       d="M 38.387755,1016.0649 A 18.149337,13.308636 5.3305994 0 0 21.355449,1010.799"
       style="fill:none;stroke:#000000;stroke-width:1;stroke-linecap:round;stroke-linejoin:miter;stroke-miterlimit:4;stroke-dasharray:none" />
    <path
       inkscape:connector-curvature="0"
       id="path4369"
       d="m 7.5033918,1018.7965 a 18.149337,13.308636 5.3305994 0 0 3.1805492,13.2631"
       style="fill:none;stroke:#000000;stroke-width:1;stroke-linecap:round;stroke-linejoin:miter;stroke-miterlimit:4;stroke-dasharray:none" />
    <path
       inkscape:connector-curvature="0"
       id="path4371"
       d="m 21.355449,1010.799 a 18.149337,13.308636 5.3305994 0 0 -13.8520572,7.9975"
       style="fill:none;stroke:#000000;stroke-width:1;stroke-linecap:round;stroke-linejoin:miter;stroke-miterlimit:4;stroke-dasharray:none" />
    <path
       inkscape:connector-curvature="0"
       id="path4373"
       d="m 41.570604,1029.3321 -0.241991,0.4857 -0.243807,0.4919 -0.243805,0.5022 -0.247436,0.5093 -0.248646,0.5209 -0.251065,0.5324 -0.253487,0.5445 -0.257115,0.5572 -0.26135,0.57 -0.26377,0.5873 -0.271636,0.5971 -0.272845,0.6187 -0.280105,0.6335 -0.285549,0.6519"
       style="fill:none;stroke:#000000;stroke-width:1;stroke-linecap:round;stroke-linejoin:miter;stroke-miterlimit:4;stroke-dasharray:none" />
    <path
       inkscape:connector-curvature="0"
       id="path4375"
       d="m 37.946908,1037.135 -0.790949,-0.031 -0.777094,-0.024 -0.765477,-0.019 h -0.75096 -0.743881 -0.73281 l -0.725489,0.017 -0.718654,0.019 -0.712482,0.024 -0.707158,0.031 -0.703046,0.036 -0.701532,0.043 -0.699416,0.055 -0.699475,0.06"
       style="fill:none;stroke:#000000;stroke-width:1;stroke-linecap:round;stroke-linejoin:miter;stroke-miterlimit:4;stroke-dasharray:none" />
    <path
       inkscape:connector-curvature="0"
       id="path4377"
       d="m 45.059754,1022.9586 -0.266191,0.4518 -0.26377,0.4459 -0.258326,0.4477 -0.255299,0.4458 -0.252882,0.4448 -0.249251,0.4477 -0.24562,0.4505 -0.245623,0.4508 -0.24562,0.4507 -0.241386,0.4592 -0.242596,0.4598 -0.239571,0.4683 -0.241992,0.47 -0.24078,0.4798"
       style="fill:none;stroke:#000000;stroke-width:1;stroke-linecap:round;stroke-linejoin:miter;stroke-miterlimit:4;stroke-dasharray:none" />
    <path
       inkscape:connector-curvature="0"
       id="path4379"
       d="m 38.387755,1016.0649 0.459179,0.4265 0.456152,0.4284 0.459783,0.4422 0.459178,0.447 0.462808,0.461 0.463415,0.4659 0.470067,0.4827 0.472488,0.4919 0.477327,0.5052 0.483377,0.5172 0.491243,0.5335 0.496082,0.5464 0.506971,0.5661 0.513021,0.579"
       style="fill:none;stroke:#000000;stroke-width:1;stroke-linecap:round;stroke-linejoin:miter;stroke-miterlimit:4;stroke-dasharray:none" />
    <path
       inkscape:connector-curvature="0"
       id="path4381"
       d="m 17.355577,1038.9535 -0.51302,-0.5789 -0.506972,-0.5662 -0.496083,-0.5464 -0.491241,-0.5335 -0.482772,-0.5179 -0.477933,-0.5045 -0.472489,-0.4919 -0.470067,-0.4829 -0.463413,-0.4657 -0.462808,-0.461 -0.459178,-0.4477 -0.459783,-0.4417 -0.456154,-0.4282 -0.459179,-0.4265"
       style="fill:none;stroke:#000000;stroke-width:1;stroke-linecap:round;stroke-linejoin:miter;stroke-miterlimit:4;stroke-dasharray:none" />
    <path
       inkscape:connector-curvature="0"
       id="path4383"
       d="m 27.718485,1037.3296 -0.700686,0.065 -0.700926,0.075 -0.706009,0.077 -0.707765,0.089 -0.714842,0.092 -0.718169,0.1058 -0.727182,0.111 -0.736621,0.1161 -0.74497,0.1263 -0.754528,0.1366 -0.767052,0.1435 -0.780422,0.1519 -0.793066,0.1639 -0.81067,0.1691"
       style="fill:none;stroke:#000000;stroke-width:1;stroke-linecap:round;stroke-linejoin:miter;stroke-miterlimit:4;stroke-dasharray:none" />
    <path
       inkscape:connector-curvature="0"
       id="path4385"
       d="m 31.58387,1010.6043 0.532381,0.3787 0.523307,0.3794 0.513625,0.3794 0.504552,0.3792 0.496082,0.3787 0.490032,0.3824 0.482168,0.3816 0.478537,0.3892 0.471278,0.3877 0.468253,0.3951 0.465833,0.4017 0.462202,0.4042 0.457364,0.4065 0.458574,0.4161"
       style="fill:none;stroke:#000000;stroke-width:1;stroke-linecap:round;stroke-linejoin:miter;stroke-miterlimit:4;stroke-dasharray:none" />
    <path
       inkscape:connector-curvature="0"
       id="path4387"
       d="m 21.355449,1010.799 0.699476,-0.06 0.699353,-0.055 0.701593,-0.043 0.705284,-0.036 0.707581,-0.031 0.71212,-0.024 0.718593,-0.019 0.725489,-0.017 h 0.73281 0.741642 l 0.753198,0.017 0.76318,0.019 0.777094,0.024 0.791008,0.031"
       style="fill:none;stroke:#000000;stroke-width:1;stroke-linecap:round;stroke-linejoin:miter;stroke-miterlimit:4;stroke-dasharray:none" />
    <path
       inkscape:connector-curvature="0"
       id="path4389"
       d="m 3.8796952,1026.5994 0.2855495,-0.6522 0.2801045,-0.6333 0.2752642,-0.6146 0.269821,-0.6008 0.265585,-0.5831 0.2613507,-0.5699 0.2571146,-0.5573 0.2534865,-0.5445 0.2510654,-0.5324 0.2486461,-0.5209 0.2450161,-0.5136 0.2444118,-0.5026 0.2438056,-0.4919 0.2419907,-0.4858"
       style="fill:none;stroke:#000000;stroke-width:1;stroke-linecap:round;stroke-linejoin:miter;stroke-miterlimit:4;stroke-dasharray:none" />
    <path
       inkscape:connector-curvature="0"
       id="path4391"
       d="m 10.683941,1032.0596 -0.458572,-0.4161 -0.4579698,-0.4065 -0.462202,-0.4041 -0.4658336,-0.4018 -0.4682529,-0.3951 -0.4706723,-0.3884 -0.4785382,-0.3889 -0.4821665,-0.3818 -0.4900323,-0.3823 -0.4960816,-0.3794 -0.505158,-0.3793 -0.5136249,-0.3793 -0.5233058,-0.3793 -0.5323805,-0.3787"
       style="fill:none;stroke:#000000;stroke-width:1;stroke-linecap:round;stroke-linejoin:miter;stroke-miterlimit:4;stroke-dasharray:none" />
    <path
       inkscape:connector-curvature="0"
       id="path4393"
       d="m 10.99478,1012.4268 0.808432,-0.173 0.795363,-0.1605 0.778122,-0.1553 0.767052,-0.1435 0.756768,-0.1331 0.744969,-0.1264 0.734746,-0.1212 0.72682,-0.111 0.720408,-0.1007 0.712603,-0.097 0.710003,-0.085 0.703769,-0.082 0.700929,-0.075 0.700685,-0.065"
       style="fill:none;stroke:#000000;stroke-width:1;stroke-linecap:round;stroke-linejoin:miter;stroke-miterlimit:4;stroke-dasharray:none" />
    <path
       inkscape:connector-curvature="0"
       id="path4395"
       d="m 7.5033918,1018.7965 0.2407801,-0.4798 0.2419924,-0.47 0.2419907,-0.4647 0.2401757,-0.4634 0.2432013,-0.4549 0.2432012,-0.455 0.2456205,-0.4507 0.2480417,-0.447 0.2492504,-0.4477 0.2504611,-0.4489 0.2559061,-0.4465 0.26014,-0.4434 0.261955,-0.4502 0.268006,-0.4482"
       style="fill:none;stroke:#000000;stroke-width:1;stroke-linecap:round;stroke-linejoin:miter;stroke-miterlimit:4;stroke-dasharray:none" />
    <path
       inkscape:connector-curvature="0"
       id="path4397"
       d="m 37.305751,1043.9966 0.266192,-0.4519 0.264374,-0.4458 0.258327,-0.4477 0.2553,-0.446 0.253486,-0.4451 0.249251,-0.4478 0.24562,-0.4506 0.247436,-0.4465 0.243201,-0.455 0.241386,-0.4591 0.242597,-0.4598 0.242597,-0.4646 0.240176,-0.4738 0.24078,-0.4798"
       style="fill:none;stroke:#000000;stroke-width:1;stroke-linecap:round;stroke-linejoin:miter;stroke-miterlimit:4;stroke-dasharray:none" />
    <path
       inkscape:connector-curvature="0"
       id="path4399"
       d="m 40.795265,1037.623 0.241991,-0.486 0.243805,-0.4917 0.244412,-0.5028 0.247435,-0.5093 0.248646,-0.5209 0.250461,-0.5324 0.254091,-0.5445 0.257117,-0.5573 0.261349,-0.5697 0.263771,-0.5869 0.271635,-0.5972 0.273451,-0.6189 0.280104,-0.6331 0.28555,-0.6522"
       style="fill:none;stroke:#000000;stroke-width:1;stroke-linecap:round;stroke-linejoin:miter;stroke-miterlimit:4;stroke-dasharray:none" />
    <path
       inkscape:connector-curvature="0"
       d="m 44.418961,1029.8199 0.640793,-6.8613"
       id="108"
       style="fill:none;stroke:#000000;stroke-width:1;stroke-linecap:round;stroke-linejoin:miter;stroke-miterlimit:4;stroke-dasharray:none" />
    <path
       inkscape:connector-curvature="0"
       d="m 37.305751,1043.9966 0.641157,-6.8616"
       id="109"
       style="fill:none;stroke:#000000;stroke-width:1;stroke-linecap:round;stroke-linejoin:miter;stroke-miterlimit:4;stroke-dasharray:none" />
    <path
       inkscape:connector-curvature="0"
       id="path4403"
       d="m 16.714785,1045.815 0.791008,0.031 0.776671,0.024 0.765902,0.019 h 0.750898 0.743941 0.73281 l 0.725489,-0.017 0.718231,-0.019 0.712482,-0.024 0.707582,-0.031 0.702621,-0.036 0.701956,-0.043 0.698992,-0.055 0.699838,-0.06"
       style="fill:none;stroke:#000000;stroke-width:1;stroke-linecap:round;stroke-linejoin:miter;stroke-miterlimit:4;stroke-dasharray:none" />
    <path
       inkscape:connector-curvature="0"
       id="path4405"
       d="m 26.943206,1045.6203 0.700747,-0.063 0.703165,-0.072 0.703771,-0.082 0.707764,-0.089 0.714842,-0.094 0.720407,-0.1007 0.724521,-0.1144 0.736621,-0.1161 0.745394,-0.1264 0.754468,-0.1366 0.767052,-0.1434 0.780422,-0.1519 0.792701,-0.1639 0.81067,-0.1691"
       style="fill:none;stroke:#000000;stroke-width:1;stroke-linecap:round;stroke-linejoin:miter;stroke-miterlimit:4;stroke-dasharray:none" />
    <path
       inkscape:connector-curvature="0"
       d="m 16.714785,1045.815 0.640792,-6.8615"
       id="112"
       style="fill:none;stroke:#000000;stroke-width:1;stroke-linecap:round;stroke-linejoin:miter;stroke-miterlimit:4;stroke-dasharray:none" />
    <path
       inkscape:connector-curvature="0"
       id="path4408"
       d="m 3.2389625,1033.4607 0.5148355,0.5827 0.5051563,0.5626 0.4985027,0.5505 0.4888218,0.53 0.4851918,0.5216 0.4779339,0.5045 0.4724872,0.4917 0.4676486,0.4793 0.4652274,0.47 0.4609932,0.4567 0.4609932,0.4513 0.4573632,0.4381 0.4579677,0.4325 0.4573633,0.4222"
       style="fill:none;stroke:#000000;stroke-width:1;stroke-linecap:round;stroke-linejoin:miter;stroke-miterlimit:4;stroke-dasharray:none" />
    <path
       inkscape:connector-curvature="0"
       id="path4410"
       d="m 9.9105376,1040.3546 0.4585734,0.4163 0.459783,0.4101 0.461598,0.4041 0.464018,0.3975 0.468253,0.3951 0.473094,0.392 0.476721,0.3854 0.483983,0.386 0.487612,0.3787 0.498502,0.383 0.505156,0.3792 0.511206,0.3758 0.522701,0.3792 0.532987,0.3787"
       style="fill:none;stroke:#000000;stroke-width:1;stroke-linecap:round;stroke-linejoin:miter;stroke-miterlimit:4;stroke-dasharray:none" />
    <path
       inkscape:connector-curvature="0"
       d="m 3.2389625,1033.4607 0.6407327,-6.8613"
       id="115"
       style="fill:none;stroke:#000000;stroke-width:1;stroke-linecap:round;stroke-linejoin:miter;stroke-miterlimit:4;stroke-dasharray:none" />
  </g>
</svg>
