<?xml version="1.0" encoding="UTF-8" standalone="no"?>
<!-- Created with Inkscape (http://www.inkscape.org/) -->

<svg
   width="48"
   height="48"
   viewBox="0 0 48 48"
   version="1.1"
   id="svg23520"
   xml:space="preserve"
   xmlns="http://www.w3.org/2000/svg"
   xmlns:svg="http://www.w3.org/2000/svg"><defs
     id="defs23517"><marker
       id="DistanceX"
       orient="auto"
       refX="0"
       refY="0"
       style="overflow:visible"><path
         d="M 3,-3 -3,3 M 0,-5 V 5"
         style="stroke:#000000;stroke-width:0.5"
         id="path24006" /></marker><pattern
       id="Hatch"
       patternUnits="userSpaceOnUse"
       width="8"
       height="8"
       x="0"
       y="0"><path
         d="M8 4 l-4,4"
         stroke="#000000"
         stroke-width="0.25"
         linecap="square"
         id="path24009" /><path
         d="M6 2 l-4,4"
         stroke="#000000"
         stroke-width="0.25"
         linecap="square"
         id="path24011" /><path
         d="M4 0 l-4,4"
         stroke="#000000"
         stroke-width="0.25"
         linecap="square"
         id="path24013" /></pattern><symbol
       id="*MODEL_SPACE" /><symbol
       id="*PAPER_SPACE" /><marker
       id="DistanceX-1"
       orient="auto"
       refX="0.0"
       refY="0.0"
       style="overflow:visible"><path
         d="M 3,-3 L -3,3 M 0,-5 L  0,5"
         style="stroke:#000000; stroke-width:0.5"
         id="path30866" /></marker><pattern
       id="Hatch-9"
       patternUnits="userSpaceOnUse"
       width="8"
       height="8"
       x="0"
       y="0"><path
         d="M8 4 l-4,4"
         stroke="#000000"
         stroke-width="0.25"
         linecap="square"
         id="path30869" /><path
         d="M6 2 l-4,4"
         stroke="#000000"
         stroke-width="0.25"
         linecap="square"
         id="path30871" /><path
         d="M4 0 l-4,4"
         stroke="#000000"
         stroke-width="0.25"
         linecap="square"
         id="path30873" /></pattern><symbol
       id="*MODEL_SPACE-5" /><symbol
       id="*PAPER_SPACE-0" /><marker
       id="DistanceX-5"
       orient="auto"
       refX="0.0"
       refY="0.0"
       style="overflow:visible"><path
         d="M 3,-3 L -3,3 M 0,-5 L  0,5"
         style="stroke:#000000; stroke-width:0.5"
         id="path31863" /></marker><pattern
       id="Hatch-96"
       patternUnits="userSpaceOnUse"
       width="8"
       height="8"
       x="0"
       y="0"><path
         d="M8 4 l-4,4"
         stroke="#000000"
         stroke-width="0.25"
         linecap="square"
         id="path31866" /><path
         d="M6 2 l-4,4"
         stroke="#000000"
         stroke-width="0.25"
         linecap="square"
         id="path31868" /><path
         d="M4 0 l-4,4"
         stroke="#000000"
         stroke-width="0.25"
         linecap="square"
         id="path31870" /></pattern><symbol
       id="*MODEL_SPACE-8" /><symbol
       id="*PAPER_SPACE-8" /></defs><path
     id="path31919"
     style="fill:#5fd3c2;fill-opacity:1;stroke:none;stroke-width:1.25978;stroke-dasharray:none"
     d="m 14.558248,32.795262 0,4.517817 c -2e-5,7.037753 10.05924,10.562187 15.942357,5.585849 1.751353,-1.481413 2.735251,-3.490634 2.73525,-5.585841 V 32.795262 M 15.123596,6.4956336 C 14.096698,7.0940188 13.159131,7.7952639 12.331317,8.5840933 L 11.161483,8.1734116 C 9.3838511,10.356089 8.4320009,12.944032 8.4316035,15.594233 v 6.774114 c 3.471e-4,11.654098 16.6584845,17.490567 26.4009305,9.249751 2.900241,-2.453219 4.529577,-5.780488 4.529966,-9.249731 l 1.56e-4,-6.774236 C 39.362423,5.0558678 25.383802,-1.1567689 15.123907,4.8217698 m -6.62e-4,0.00144 v 1.6732024" /><path
     id="path32397"
     style="display:inline;fill:none;stroke:#000000;stroke-width:1.25978;stroke-dasharray:none"
     d="m 33.235855,32.795262 v 4.517646 M 14.558248,32.795262 v 4.517646 M 39.362889,15.593964 v 6.774524 M 8.4312144,15.593964 v 6.774524 m 6.1270336,14.944763 a 9.3388037,7.8993391 0 0 0 15.942357,5.585677 m 0,0 a 9.3388037,7.8993391 0 0 0 2.73525,-5.585661 M 32.669145,26.366359 A 26.243732,9.8984012 49.773374 0 0 11.160076,8.1726256 M 15.123245,6.4964119 36.632845,24.68918 M 15.123245,4.8232095 v 1.6732024 m 3.51e-4,-7.783e-4 A 15.465059,13.081306 0 0 0 12.331317,8.5840933 M 8.4319926,15.594501 A 15.465059,13.081306 0 0 0 32.670476,26.367083 M 11.161483,8.1734116 A 15.465059,13.081306 0 0 0 8.4319926,15.594501 M 32.670858,26.365728 v 1.673981 m -4.13e-4,7.8e-4 a 15.465059,13.081306 0 0 0 2.162066,-1.522694 M 8.4319926,22.368207 a 15.465059,13.081306 0 0 0 26.4005414,9.249891 m 0,0 a 15.465059,13.081306 0 0 0 4.529577,-9.249852 m -4.5296,4.149557 a 15.465059,13.081306 0 0 0 1.80007,-1.8287 m 2.64e-4,-1.673904 v 1.673981 m 0.0016,-1.673024 A 26.243732,9.8984012 49.773374 0 0 15.125331,4.8224236 M 39.362422,15.594298 A 15.465059,13.081306 0 0 0 15.123907,4.8217698 M 36.632908,23.015456 a 15.465059,13.081306 0 0 0 2.729514,-7.421158" /></svg>
