<?xml version="1.0" encoding="UTF-8" standalone="no"?>
<!-- Created with Inkscape (http://www.inkscape.org/) -->

<svg
   width="48"
   height="48"
   viewBox="0 0 48 48"
   version="1.1"
   id="svg23520"
   xml:space="preserve"
   xmlns="http://www.w3.org/2000/svg"
   xmlns:svg="http://www.w3.org/2000/svg"><defs
     id="defs23517"><marker
       id="DistanceX"
       orient="auto"
       refX="0"
       refY="0"
       style="overflow:visible"><path
         d="M 3,-3 -3,3 M 0,-5 V 5"
         style="stroke:#000000;stroke-width:0.5"
         id="path24006" /></marker><pattern
       id="Hatch"
       patternUnits="userSpaceOnUse"
       width="8"
       height="8"
       x="0"
       y="0"><path
         d="M8 4 l-4,4"
         stroke="#000000"
         stroke-width="0.25"
         linecap="square"
         id="path24009" /><path
         d="M6 2 l-4,4"
         stroke="#000000"
         stroke-width="0.25"
         linecap="square"
         id="path24011" /><path
         d="M4 0 l-4,4"
         stroke="#000000"
         stroke-width="0.25"
         linecap="square"
         id="path24013" /></pattern><symbol
       id="*MODEL_SPACE" /><symbol
       id="*PAPER_SPACE" /></defs><g
     id="layer1"><path
       id="path24070"
       style="fill:#5fd3c2;fill-opacity:1;stroke:none"
       d="m 516,729.139 v 1.99912 c -3e-5,9.04314 12.92573,13.5719 20.48531,7.1775 C 538.73573,736.41206 540,733.8303 540,731.13814 V 729.139 m -29.05701,-33.56231 c -0.73323,-0.13228 -1.2737,0.004 -1.61764,0.39685 -3.15212,3.63969 -4.95496,8.31874 -4.93959,13.04331 l -7.6e-4,2.91737 c -10e-4,17.79687 25.43682,26.70948 40.31408,14.12531 4.42883,-3.7462 6.91692,-8.82713 6.91592,-14.12528 l -7.5e-4,-2.91741 c 0.0153,-4.42597 -1.56449,-8.82156 -4.36134,-12.34408 -1.87842,-2.38111 -4.28976,-4.38048 -7.02236,-5.86205 -3.8022,-2.07118 -8.22803,-3.12945 -12.64252,-3.05386 -4.55811,0.0643 -9.08976,1.34173 -12.89197,3.6737 -0.43339,0.26961 -0.65134,0.75969 -0.65411,1.4716 -1.25479,0.77891 -2.41545,1.65939 -3.46533,2.62997"
       transform="matrix(0.80650176,0,0,0.80650176,-401.83293,-552.2708)" /><path
       id="path24134"
       style="display:inline;fill:none;stroke:#000000;stroke-width:1.26;stroke-dasharray:none"
       d="M 13.595043,10.677099 A 12.184768,10.306633 0 0 0 30.340765,24.841685 M 5.1480951,19.597612 A 18.851905,15.94611 0 0 0 35.142437,32.460334 m 4.064104,-3.437663 a 18.851905,15.94611 0 0 0 3.645364,-9.425019 m -8.446964,1.806314 A 12.184768,10.306633 0 0 0 17.659211,7.239373 M 33.57922,35.660655 v 1.595739 M 14.42078,35.660655 v 1.595739 M 9.0926183,9.1857189 C 6.5763807,12.091168 5.1372306,15.826305 5.1493005,19.597652 M 42.850309,19.5979 v 2.328549 M 5.1496916,19.5979 v 2.328549 M 42.8507,19.597652 C 42.862754,16.06466 41.601626,12.5558 39.368989,9.7438841 37.869506,7.8431193 35.944609,6.2470856 33.763261,5.0643952 30.728085,3.4110377 27.195085,2.5662543 23.671138,2.6265954 20.032543,2.6779241 16.41507,3.697656 13.379886,5.5591938 M 14.42078,37.256585 a 9.5792201,8.1026982 0 0 0 16.352775,5.729476 m 0,0 A 9.5792201,8.1026982 0 0 0 33.57922,37.256609 M 13.593774,10.676453 30.342242,24.841725 m -3.43e-4,-3.92e-4 c 1.167603,0.986588 2.335214,2.299013 3.210164,3.623508 1.001675,1.505526 1.596034,2.998974 1.590007,3.994615 M 13.594101,10.676158 C 12.423473,9.683543 11.258879,9.0228003 10.383929,8.8689261 9.7986148,8.7633312 9.3671747,8.8721192 9.0926183,9.1857189 M 37.330347,30.873225 a 18.851905,15.94611 0 0 0 1.876194,-1.850554 M 12.857523,6.7350031 A 18.851905,15.94611 0 0 0 10.091468,8.8333473 M 35.142437,32.460334 a 18.851905,15.94611 0 0 0 2.18791,-1.587109 M 5.1480951,21.926792 a 18.851905,15.94611 0 0 0 32.1822519,11.27562 m 0,0 A 18.851905,15.94611 0 0 0 42.851905,21.92684 M 12.857771,6.7330075 39.206214,29.023054 M 13.379886,5.5591938 q -0.518938,0.3228277 -0.521956,1.173646 m 4.800172,0.5068685 C 16.991332,6.6724987 16.321537,6.2108841 15.709074,5.8910739 14.713433,5.375153 13.874693,5.2514534 13.379886,5.5591938 M 34.405899,21.404884 c 1.170629,0.98658 2.335222,2.299013 3.210172,3.623508 1.001667,1.502508 1.596034,2.998974 1.589999,3.994614 M 17.657758,7.2399079 34.406226,21.405179" /></g></svg>
