<?xml version="1.0" encoding="UTF-8" standalone="no"?>
<svg
   xmlns:dc="http://purl.org/dc/elements/1.1/"
   xmlns:cc="http://creativecommons.org/ns#"
   xmlns:rdf="http://www.w3.org/1999/02/22-rdf-syntax-ns#"
   xmlns:svg="http://www.w3.org/2000/svg"
   xmlns="http://www.w3.org/2000/svg"
   xmlns:sodipodi="http://sodipodi.sourceforge.net/DTD/sodipodi-0.dtd"
   xmlns:inkscape="http://www.inkscape.org/namespaces/inkscape"
   width="48"
   height="48"
   viewBox="0 0 12.7 12.7"
   version="1.1"
   id="svg8"
   inkscape:version="1.0 (4035a4fb49, 2020-05-01)"
   sodipodi:docname="ASMEB18.3.5C.svg">
  <defs
     id="defs2" />
  <sodipodi:namedview
     inkscape:snap-smooth-nodes="true"
     id="base"
     pagecolor="#ffffff"
     bordercolor="#666666"
     borderopacity="1.0"
     inkscape:pageopacity="0.0"
     inkscape:pageshadow="2"
     inkscape:zoom="11.2"
     inkscape:cx="12.454715"
     inkscape:cy="18.89321"
     inkscape:document-units="mm"
     inkscape:current-layer="layer8"
     inkscape:document-rotation="0"
     showgrid="false"
     units="px"
     inkscape:snap-bbox="true"
     inkscape:snap-bbox-midpoints="true"
     inkscape:snap-nodes="true"
     inkscape:window-width="1920"
     inkscape:window-height="1027"
     inkscape:window-x="0"
     inkscape:window-y="0"
     inkscape:window-maximized="1" />
  <metadata
     id="metadata5">
    <rdf:RDF>
      <cc:Work
         rdf:about="">
        <dc:format>image/svg+xml</dc:format>
        <dc:type
           rdf:resource="http://purl.org/dc/dcmitype/StillImage" />
        <dc:title></dc:title>
      </cc:Work>
    </rdf:RDF>
  </metadata>
  <g
     style="display:inline"
     inkscape:label="Layer 3"
     id="layer8"
     inkscape:groupmode="layer">
    <path
       id="path3919"
       d="m 8.7939621,1.0746614 c -0.03766,-0.01635 -0.220812,-0.075026 -0.40701,-0.13039094 -0.340866,-0.1013561 -0.554593,-0.1365413 -1.38659,-0.2282708 -0.7504,-0.082733 -2.101882,0.032315 -2.772526,0.2360187 -0.131389,0.039909 -0.24586,0.072451 -0.254381,0.072316 -0.0085,-1.367e-4 0.02421,-0.02294 0.07272,-0.050677 0.166913,-0.095422 0.860124,-0.2968798 1.254916,-0.3646986 0.48385,-0.083118 1.46737,-0.09893 1.933297,-0.031082 0.590586,0.086001 1.119858,0.2365363 1.485586,0.42253084 0.186486,0.094839 0.236107,0.144642 0.07398,0.074255 z"
       style="fill:#ffaa00;fill-opacity:1;stroke:none;stroke-width:0.0203505" />
    <path
       id="path3921"
       d="m 11.074884,6.3564091 c -0.08564,-0.367219 -0.302382,-0.6708 -0.776566,-1.087696 -0.4602749,-0.404667 -0.7380899,-0.557417 -1.4460609,-0.79508 -0.553248,-0.185723 -0.669648,-0.21585 -1.088752,-0.281786 -0.72808,-0.114547 -0.810114,-0.120699 -1.45408,-0.109051 -0.625746,0.01132 -0.871337,0.03409 -1.379922,0.127926 -0.619621,0.114326 -0.907217,0.200839 -1.456594,0.438165 -0.488143,0.210873 -0.880169,0.468967 -1.256959,0.827532 -0.228498,0.217446 -0.358863,0.389068 -0.484593,0.637955 l -0.09876,0.195501 -0.0094,-1.335129 c -0.0051,-0.73432 -0.0014,-1.4221266 0.0084,-1.5284579 0.0586,-0.6397117 0.296728,-1.020576 1.007913,-1.6120295 0.399083,-0.3318958 0.739792,-0.5214848 1.238544,-0.6891942 0.482215,-0.16214894 0.771099,-0.22969434 1.250057,-0.29228184 0.961334,-0.1256218 1.388531,-0.1240078 2.452961,0.00927 0.406891,0.050946 0.513029,0.072155 0.803845,0.16062704 0.184281,0.056062 0.390555,0.1238516 0.458388,0.150644 0.262281,0.1035956 0.942644,0.4350747 1.097698,0.534808 0.3558189,0.2288698 0.8235079,0.6753765 0.9412399,0.8986096 0.117419,0.2226405 0.205575,0.4950044 0.222871,0.6885708 0.0089,0.099827 0.01164,0.854596 0.006,1.677265 -0.0087,1.277159 -0.01399,1.479403 -0.03628,1.383834 z"
       style="fill:#5fd3c2;fill-opacity:1;stroke:none;stroke-width:0.0203505" />
    <path
       id="path3923"
       d="m 3.1846441,8.8778421 c -0.457564,-0.262036 -0.723657,-0.489181 -1.128274,-0.963127 -0.206458,-0.241834 -0.282563,-0.379849 -0.345794,-0.627098 -0.155761,-0.609062 -0.06499,-1.014784 0.34071,-1.5228 0.226831,-0.284041 0.778135,-0.720158 1.142002,-0.903398 0.600373,-0.302343 1.182194,-0.484554 1.945394,-0.609246 0.456417,-0.07457 0.758222,-0.09689 1.332567,-0.09855 0.482699,-0.0014 0.550105,0.0031 0.965259,0.06395 0.650359,0.09537 0.785031,0.126491 1.32472,0.306118 0.775902,0.258248 1.045273,0.409271 1.5770549,0.884176 0.381928,0.341079 0.565948,0.612729 0.660329,0.974775 0.07367,0.282587 0.09786,0.475752 0.0888,0.709032 -0.0081,0.207999 -0.0098,0.214105 -0.116565,0.424713 -0.271922,0.536156 -0.685167,0.930988 -1.4130259,1.350066 -0.110015,0.06334 -0.203095,0.11517 -0.206843,0.11517 -0.0038,0 -0.0099,-0.194602 -0.01365,-0.432448 l -0.0068,-0.432448 -0.07474,-0.156518 c -0.155426,-0.325477 -0.336101,-0.52738 -0.685358,-0.765881 -0.376231,-0.256922 -0.638792,-0.36214 -1.152847,-0.461991 -0.502428,-0.09759 -0.702439,-0.116905 -1.056555,-0.102015 -0.631654,0.02656 -1.087528,0.09385 -1.459639,0.215449 -0.567906,0.185583 -1.192287,0.65284 -1.370354,1.025509 -0.112995,0.236481 -0.139595,0.369444 -0.152015,0.75985 l -0.01119,0.3516 z"
       style="fill:#5fd3c2;fill-opacity:1;stroke:none;stroke-width:0.0203505" />
    <path
       id="path3925"
       d="m 9.2437891,9.9778551 c -0.0027,-0.01731 -0.05013,-0.100405 -0.105443,-0.184662 -0.660732,-1.006462 -2.711644,-1.419834 -4.312313,-0.869169 -0.636895,0.219105 -1.123855,0.582837 -1.328818,0.992551 -0.03576,0.07148 -0.03629,0.06556 -0.04212,-0.466891 -0.01069,-0.977141 -0.0075,-1.07139 0.04196,-1.258405 0.07362,-0.278115 0.144259,-0.394099 0.387087,-0.63558 0.223721,-0.22248 0.450578,-0.377209 0.790165,-0.538935 0.313747,-0.149419 0.844571,-0.261268 1.407567,-0.296583 0.503138,-0.03156 0.791296,-0.01505 1.257522,0.07207 0.546021,0.102026 0.790822,0.198356 1.185403,0.466461 0.273487,0.185826 0.456246,0.367911 0.577483,0.575351 0.164477,0.281428 0.1581,0.228545 0.15189,1.259588 -0.003,0.50362 -0.0077,0.901513 -0.01039,0.884206 z"
       style="fill:#5fd3c2;fill-opacity:1;stroke:none;stroke-width:0.0203505" />
    <path
       id="path3927"
       d="m 5.9116111,12.040636 c -0.180488,-0.01567 -0.519864,-0.07328 -0.704993,-0.119672 -0.594991,-0.149095 -1.048081,-0.383011 -1.372547,-0.708602 -0.259882,-0.260783 -0.374695,-0.507818 -0.374695,-0.806205 0,-0.300431 0.107277,-0.5337399 0.366145,-0.7963069 0.395858,-0.401512 1.011714,-0.678594 1.782272,-0.801867 0.278188,-0.0445 0.917138,-0.06117 1.21959,-0.03181 1.177611,0.114315 2.112252,0.626841 2.373248,1.3014079 0.05819,0.150397 0.06476,0.449419 0.01347,0.613482 -0.207525,0.663909 -1.122945,1.196636 -2.291054,1.333277 -0.230846,0.027 -0.785267,0.03594 -1.011441,0.01629 z"
       style="fill:#5fd3c2;fill-opacity:1;stroke:none;stroke-width:0.0203505" />
  </g>
  <g
     style="display:inline"
     inkscape:label="Layer 2"
     id="layer7"
     inkscape:groupmode="layer">
    <path
       d="M 9.2964471,10.4062 A 2.9416383,1.6910731 0 0 1 6.3548091,12.097273 2.9416383,1.6910731 0 0 1 3.4131701,10.4062 2.9416383,1.6910731 0 0 1 6.3548091,8.7151271 2.9416383,1.6910731 0 0 1 9.2964471,10.4062 Z"
       style="fill:none;stroke:#000000;stroke-width:0.4;stroke-miterlimit:4;stroke-dasharray:none"
       id="path3907" />
    <path
       id="path3910"
       d="m 3.4131701,10.4062 -0.0024,-1.9496269 c 0,0 0.03847,-0.485209 0.266058,-0.746948 0.227588,-0.261738 0.370749,-0.369928 0.370749,-0.369928 0,0 0.479249,-0.339984 0.853926,-0.458019 0.374676,-0.118035 0.884684,-0.182335 0.884684,-0.182335 0,0 0.678619,-0.04917 0.986288,-0.03012 0.307668,0.01905 0.927098,0.157124 0.94018,0.157124 0.01308,0 0.440783,0.141222 0.603431,0.247978 0.162648,0.106756 0.569782,0.346997 0.747161,0.621708 0.17738,0.274711 0.198055,0.369549 0.198055,0.369549 0,0 0.02632,0.03167 0.03399,0.158446 0.0077,0.126774 -6.68e-4,0.28357 -6.68e-4,0.28357 l 0.0018,1.8986019"
       style="fill:none;stroke:#000000;stroke-width:0.4;stroke-linecap:butt;stroke-linejoin:miter;stroke-miterlimit:4;stroke-dasharray:none;stroke-opacity:1" />
    <path
       id="path3912"
       d="m 3.4250931,9.0513791 c 0,0 -0.639518,-0.303955 -1.01255,-0.688354 -0.373031,-0.3844 -0.575482,-0.653376 -0.575482,-0.653376 0,0 -0.195805,-0.246985 -0.23757,-0.896053 -0.04176,-0.649069 0.54165,-1.213039 0.54165,-1.213039 0,0 0.513109,-0.542175 1.155004,-0.833434 0.641896,-0.291259 0.928345,-0.363188 0.928345,-0.363188 0,0 0.897716,-0.236872 1.619591,-0.275092 0.721875,-0.03822 1.101699,-0.01194 1.101699,-0.01194 0,0 1.045814,0.12293 1.359638,0.217384 0.313824,0.09445 0.874686,0.290759 0.874686,0.290759 0,0 0.498626,0.160179 0.9272249,0.527754 0.428598,0.367575 0.53181,0.483251 0.53181,0.483251 0,0 0.244521,0.293199 0.336066,0.525801 0.09154,0.232601 0.25287,0.955684 0.09212,1.254868 -0.160749,0.299183 -0.156657,0.363589 -0.484884,0.726811 -0.328227,0.363222 -0.8454369,0.665661 -0.8454369,0.665661 l -0.434019,0.246416"
       style="fill:none;stroke:#000000;stroke-width:0.4;stroke-linecap:butt;stroke-linejoin:miter;stroke-miterlimit:4;stroke-dasharray:none;stroke-opacity:1" />
    <path
       id="path3914"
       d="M 1.5994911,6.8135961 1.5770711,3.666276 c 0,0 0.0014,-0.4689285 0.141491,-0.8041781 0.140133,-0.3352497 0.399483,-0.6099878 0.399483,-0.6099878 0,0 0.558429,-0.5515103 0.917079,-0.7591815 0.358649,-0.2076713 1.061805,-0.59265294 1.061805,-0.59265294 0,0 0.863872,-0.3306918 1.595337,-0.37803 0.731466,-0.047338 1.171877,-0.027152 1.171877,-0.027152 0,0 1.131049,0.076209 1.928446,0.4931481 0.797395,0.41693904 1.3003139,0.77259484 1.3003139,0.77259484 0,0 0.712143,0.5307603 0.860099,0.8883378 0.147955,0.3575774 0.172945,0.4722849 0.172945,0.4722849 0,0 0.04071,0.2309731 0.03342,0.4068973 -0.0073,0.1759242 -0.01378,0.4824645 -0.01378,0.4824645 l 0.0039,2.95359"
       style="fill:none;stroke:#000000;stroke-width:0.4;stroke-linecap:butt;stroke-linejoin:miter;stroke-miterlimit:4;stroke-dasharray:none;stroke-opacity:1" />
    <path
       id="path3916"
       d="m 3.4743521,1.2441917 c 0,0 0.697669,-0.25763284 1.060888,-0.33680514 0.36322,-0.079173 1.084095,-0.1516358 1.084095,-0.1516358 0,0 0.454216,-0.046764 0.946184,-0.030526 0.491968,0.016238 1.493207,0.1603229 1.493207,0.1603229 0,0 0.726494,0.20460394 0.943114,0.31072624 0.216618,0.1061226 0.836126,0.3926278 0.836126,0.3926278"
       style="fill:none;stroke:#000000;stroke-width:0.4;stroke-linecap:butt;stroke-linejoin:miter;stroke-miterlimit:4;stroke-dasharray:none;stroke-opacity:1" />
  </g>
</svg>
