<?xml version="1.0" encoding="UTF-8" standalone="no"?>
<!-- Created with Inkscape (http://www.inkscape.org/) -->

<svg
   width="48"
   height="48"
   viewBox="0 0 48 48"
   version="1.1"
   id="svg23520"
   xml:space="preserve"
   xmlns="http://www.w3.org/2000/svg"
   xmlns:svg="http://www.w3.org/2000/svg"><defs
     id="defs23517"><marker
       id="DistanceX"
       orient="auto"
       refX="0"
       refY="0"
       style="overflow:visible"><path
         d="M 3,-3 -3,3 M 0,-5 V 5"
         style="stroke:#000000;stroke-width:0.5"
         id="path24006" /></marker><pattern
       id="Hatch"
       patternUnits="userSpaceOnUse"
       width="8"
       height="8"
       x="0"
       y="0"><path
         d="M8 4 l-4,4"
         stroke="#000000"
         stroke-width="0.25"
         linecap="square"
         id="path24009" /><path
         d="M6 2 l-4,4"
         stroke="#000000"
         stroke-width="0.25"
         linecap="square"
         id="path24011" /><path
         d="M4 0 l-4,4"
         stroke="#000000"
         stroke-width="0.25"
         linecap="square"
         id="path24013" /></pattern><symbol
       id="*MODEL_SPACE" /><symbol
       id="*PAPER_SPACE" /><marker
       id="DistanceX-1"
       orient="auto"
       refX="0.0"
       refY="0.0"
       style="overflow:visible"><path
         d="M 3,-3 L -3,3 M 0,-5 L  0,5"
         style="stroke:#000000; stroke-width:0.5"
         id="path30866" /></marker><pattern
       id="Hatch-9"
       patternUnits="userSpaceOnUse"
       width="8"
       height="8"
       x="0"
       y="0"><path
         d="M8 4 l-4,4"
         stroke="#000000"
         stroke-width="0.25"
         linecap="square"
         id="path30869" /><path
         d="M6 2 l-4,4"
         stroke="#000000"
         stroke-width="0.25"
         linecap="square"
         id="path30871" /><path
         d="M4 0 l-4,4"
         stroke="#000000"
         stroke-width="0.25"
         linecap="square"
         id="path30873" /></pattern><symbol
       id="*MODEL_SPACE-5" /><symbol
       id="*PAPER_SPACE-0" /><marker
       id="DistanceX-5"
       orient="auto"
       refX="0.0"
       refY="0.0"
       style="overflow:visible"><path
         d="M 3,-3 L -3,3 M 0,-5 L  0,5"
         style="stroke:#000000; stroke-width:0.5"
         id="path31863" /></marker><pattern
       id="Hatch-96"
       patternUnits="userSpaceOnUse"
       width="8"
       height="8"
       x="0"
       y="0"><path
         d="M8 4 l-4,4"
         stroke="#000000"
         stroke-width="0.25"
         linecap="square"
         id="path31866" /><path
         d="M6 2 l-4,4"
         stroke="#000000"
         stroke-width="0.25"
         linecap="square"
         id="path31868" /><path
         d="M4 0 l-4,4"
         stroke="#000000"
         stroke-width="0.25"
         linecap="square"
         id="path31870" /></pattern><symbol
       id="*MODEL_SPACE-8" /><symbol
       id="*PAPER_SPACE-8" /><marker
       id="DistanceX-0"
       orient="auto"
       refX="0.0"
       refY="0.0"
       style="overflow:visible"><path
         d="M 3,-3 L -3,3 M 0,-5 L  0,5"
         style="stroke:#000000; stroke-width:0.5"
         id="path34371" /></marker><pattern
       id="Hatch-8"
       patternUnits="userSpaceOnUse"
       width="8"
       height="8"
       x="0"
       y="0"><path
         d="M8 4 l-4,4"
         stroke="#000000"
         stroke-width="0.25"
         linecap="square"
         id="path34374" /><path
         d="M6 2 l-4,4"
         stroke="#000000"
         stroke-width="0.25"
         linecap="square"
         id="path34376" /><path
         d="M4 0 l-4,4"
         stroke="#000000"
         stroke-width="0.25"
         linecap="square"
         id="path34378" /></pattern><symbol
       id="*MODEL_SPACE-0" /><symbol
       id="*PAPER_SPACE-4" /><marker
       id="DistanceX-58"
       orient="auto"
       refX="0.0"
       refY="0.0"
       style="overflow:visible"><path
         d="M 3,-3 L -3,3 M 0,-5 L  0,5"
         style="stroke:#000000; stroke-width:0.5"
         id="path36936" /></marker><pattern
       id="Hatch-2"
       patternUnits="userSpaceOnUse"
       width="8"
       height="8"
       x="0"
       y="0"><path
         d="M8 4 l-4,4"
         stroke="#000000"
         stroke-width="0.25"
         linecap="square"
         id="path36939" /><path
         d="M6 2 l-4,4"
         stroke="#000000"
         stroke-width="0.25"
         linecap="square"
         id="path36941" /><path
         d="M4 0 l-4,4"
         stroke="#000000"
         stroke-width="0.25"
         linecap="square"
         id="path36943" /></pattern><symbol
       id="*MODEL_SPACE-1" /><symbol
       id="*PAPER_SPACE-3" /><marker
       id="DistanceX-8"
       orient="auto"
       refX="0.0"
       refY="0.0"
       style="overflow:visible"><path
         d="M 3,-3 L -3,3 M 0,-5 L  0,5"
         style="stroke:#000000; stroke-width:0.5"
         id="path40457" /></marker><pattern
       id="Hatch-3"
       patternUnits="userSpaceOnUse"
       width="8"
       height="8"
       x="0"
       y="0"><path
         d="M8 4 l-4,4"
         stroke="#000000"
         stroke-width="0.25"
         linecap="square"
         id="path40460" /><path
         d="M6 2 l-4,4"
         stroke="#000000"
         stroke-width="0.25"
         linecap="square"
         id="path40462" /><path
         d="M4 0 l-4,4"
         stroke="#000000"
         stroke-width="0.25"
         linecap="square"
         id="path40464" /></pattern><symbol
       id="*MODEL_SPACE-4" /><symbol
       id="*PAPER_SPACE-04" /></defs><path
     id="path41180"
     style="fill:#5fd3c2;fill-opacity:1;stroke:none;stroke-width:1.25965;stroke-dasharray:none"
     d="M 24 2.6289062 C 15.453883 2.6289043 8.5253905 8.4899127 8.5253906 15.71875 L 8.5253906 22.496094 C 8.5253825 27.010154 11.029139 30.645501 14.65625 32.935547 L 14.65625 37.449219 C 14.656248 44.491095 24.720871 48.018311 30.607422 43.039062 C 32.359799 41.556783 33.34375 39.545649 33.34375 37.449219 L 33.34375 32.929688 C 33.89206 32.572366 34.428034 32.186198 34.941406 31.751953 C 37.843347 29.297295 39.474223 25.967362 39.474609 22.496094 L 39.474609 15.71875 C 39.474228 8.4900679 32.546117 2.6289081 24 2.6289062 z " /><path
     id="path41138"
     style="display:inline;fill:none;stroke:#000000;stroke-width:1.25965;stroke-dasharray:none"
     d="m 33.344282,32.92934 v 4.520295 M 14.655719,32.92934 v 4.520295 m 24.81919,-21.731683 v 6.778497 M 8.5250913,15.717952 v 6.778497 m 6.1306277,14.953537 a 7.9039728,9.3442817 89.999959 0 0 15.951709,5.588939 m 0,0 a 7.9039728,9.3442817 89.999959 0 0 2.736854,-5.588932 M 8.52587,22.496176 a 13.088979,15.47413 89.999959 0 0 26.416028,9.255301 m 0,0 a 13.088979,15.47413 89.999959 0 0 4.532232,-9.255285 m -6.182822,-9.63858 q -1.059509,1.171344 -1.901235,2.104301 m -1.507068,-3.019831 -0.373771,3.120212 m -3.001727,1.406478 C 26.121962,15.75655 25.706991,14.891286 25.144862,13.613985 m 2.075023,-3.078217 -0.712503,5.932841 m -0.744427,-8.0111643 -0.61828,5.1564863 m -0.01743,-0.253051 c 0.04711,-1.839421 0.103003,-4.1467976 0.182467,-7.2546902 m -0.181564,7.2534822 a 4.7423834,5.6065689 89.999959 0 0 -2.256215,0 M 22.69036,6.1061898 c 0.07947,3.1078926 0.135383,5.4152692 0.182471,7.2546902 m -0.01767,0.253105 c -0.562129,1.277301 -0.977101,2.142565 -1.362646,2.854787 m 0.744552,-8.0113273 0.618281,5.1564863 m -2.07521,-3.078163 0.712501,5.932841 m -3.375621,-4.526527 0.373772,3.120212 m -1.880847,-0.100381 q -0.841725,-0.932957 -1.901234,-2.104301 m 7.528352,5.550714 0.514715,3.423121 m 3.011195,-3.423121 -0.514714,3.423121 M 8.5258856,15.718263 a 13.088979,15.47413 89.999959 0 0 26.4160284,9.255301 m 4.532232,-9.255286 a 13.088979,15.47413 89.999959 0 0 -30.9482604,-1.5e-5 m 26.4160284,9.255301 a 13.088979,15.47413 89.999959 0 0 4.532232,-9.255286 m -9.591632,-0.795299 a 10.203922,26.344053 59.454884 0 0 -2.663518,1.057087 m 6.071852,-0.907416 a 12.209375,26.40567 82.966453 0 0 -3.407385,-0.150264 m 3.406949,0.150101 a 7.9361614,9.3823354 89.99996 0 0 -8e-6,-2.216603 m 4.51e-4,7.77e-4 a 26.405686,15.706788 7.76238 0 0 -3.407384,-0.915302 m -7.78e-4,0.0016 a 26.344062,14.477537 34.1128 0 0 -2.663525,-1.407624 m -7.79e-4,-0.0024 A 26.344058,8.7207789 68.5432 0 0 25.761483,8.4552488 m 7.79e-4,0.00155 A 26.405685,3.2779226 87.107143 0 0 25.310038,6.1074125 m 2.41e-4,-0.00155 a 7.9361614,9.3823354 89.99996 0 0 -2.620433,0 m 2.73e-4,7.787e-4 a 3.2779226,26.405684 2.892774 0 0 -0.452225,2.3493782 m 7.8e-4,-7.786e-4 a 8.7207758,26.344047 21.45674 0 0 -1.457039,2.0778902 m -7.79e-4,0.0024 a 14.477532,26.344054 55.88711 0 0 -2.663524,1.407606 m -7.79e-4,-0.0016 a 15.706793,26.405694 82.23749 0 0 -3.407385,0.915311 m 5.3e-4,-7.78e-4 a 7.9361614,9.3823354 89.99996 0 0 0,2.216565 m 3.406964,-0.150093 a 26.405692,12.209385 7.033412 0 0 -3.407634,0.15028 m 6.072117,0.907407 A 26.344063,10.203926 30.545028 0 0 18.11762,14.923141 m 4.121342,3.484771 a 26.344059,4.4471671 63.000091 0 0 -1.456914,-2.428247 m 1.455854,2.428228 a 26.40567,0.2194489 82.322037 0 0 0.452225,3.414962 m -2.96e-4,-1.17e-4 a 7.9361614,9.3823354 89.99996 0 0 2.620517,0 m -2.95e-4,6.3e-5 a 0.2194489,26.40569 7.677827 0 0 0.452224,-3.41497 m 1.455871,-2.428212 a 4.4471695,26.344071 26.999823 0 0 -1.456914,2.428228" /></svg>
