<?xml version="1.0" encoding="UTF-8" standalone="no"?>
<!-- Created with Inkscape (http://www.inkscape.org/) -->

<svg
   width="48"
   height="48"
   viewBox="0 0 48.000001 48.000001"
   id="svg15825"
   version="1.1"
   xmlns="http://www.w3.org/2000/svg"
   xmlns:svg="http://www.w3.org/2000/svg"
   xmlns:rdf="http://www.w3.org/1999/02/22-rdf-syntax-ns#"
   xmlns:cc="http://creativecommons.org/ns#"
   xmlns:dc="http://purl.org/dc/elements/1.1/">
  <defs
     id="defs15827" />
  <metadata
     id="metadata15830">
    <rdf:RDF>
      <cc:Work
         rdf:about="">
        <dc:format>image/svg+xml</dc:format>
        <dc:type
           rdf:resource="http://purl.org/dc/dcmitype/StillImage" />
      </cc:Work>
    </rdf:RDF>
  </metadata>
  <g
     id="layer1"
     transform="translate(0,-1004.3622)">
    <path
       style="opacity:1;fill:#5fd3c2;fill-opacity:0.94117647;fill-rule:evenodd;stroke:none;stroke-width:3.54330707;stroke-linecap:round;stroke-linejoin:round;stroke-miterlimit:4;stroke-dasharray:none;stroke-dashoffset:0;stroke-opacity:1"
       id="path15479"
       d="m 39.309719,1020.2416 a 15.154697,12.577369 0 0 1 -15.124214,12.5773 15.154697,12.577369 0 0 1 -15.1850581,-12.5267 15.154697,12.577369 0 0 1 15.0631241,-12.6278 15.154697,12.577369 0 0 1 15.245658,12.476" />
    <path
       style="opacity:1;fill:#5fd3c2;fill-opacity:0.94117647;fill-rule:evenodd;stroke:none;stroke-width:1;stroke-linecap:round;stroke-linejoin:round;stroke-miterlimit:4;stroke-dasharray:none;stroke-dashoffset:0;stroke-opacity:1"
       d="m 8.92433,1024.1648 c -0.35937,1.7651 -0.051335,1.5867 -0.070785,3.3836 0.13397,2.8399 2.5490486,5.3431 4.5866986,7.2391 3.26321,2.9495 6.672649,3.7734 11.056129,3.5957 4.64231,-0.1843 8.426106,-0.6795 11.109556,-4.5759 1.16508,-1.6585 2.874101,-2.4118 2.946481,-4.435 0.0917,-1.0952 0.22851,-2.1921 0.22868,-3.2914 -0.17734,-0.6296 -0.9505,-0.4095 -1.14047,0.085 -2.33347,3.716 -6.5217,6.0081 -10.81335,6.5565 -3.08582,0.3247 -6.3131,0.029 -9.21693,-1.2144 -2.79811,-1.1266 -5.26771,-3.0989 -6.9147,-5.6309 -0.43008,-0.6074 -0.61799,-1.3877 -1.1604,-1.9005 -0.26631,-0.055 -0.41986,0 -0.61091,0.188 z"
       id="path15481" />
    <path
       style="opacity:1;fill:#5fd3c2;fill-opacity:0.94117647;fill-rule:evenodd;stroke:none;stroke-width:1;stroke-linecap:round;stroke-linejoin:round;stroke-miterlimit:4;stroke-dasharray:none;stroke-dashoffset:0;stroke-opacity:1"
       d="m 14.172353,1036.2058 c -0.20733,1.0359 -0.0034,4.985 0.237267,6.0211 0.83833,3.0648 3.84439,5.0239 6.82549,5.6256 3.3651,0.6311 7.24198,-0.4601 9.30718,-3.3095 0.92787,-1.3057 1.445062,-6.2182 1.252312,-7.7949 -0.54389,-0.5564 -2.639351,0.9739 -3.253101,1.0857 -3.46114,1.2181 -5.625986,0.9295 -9.166626,-0.043 -1.48153,-0.3906 -3.293092,-1.1144 -4.682522,-1.7427 -0.21964,-0.088 -0.34688,0.043 -0.52,0.1576 z"
       id="path15483" />
    <g
       id="g3946"
       transform="translate(-40)">
      <path
         id="path10758"
         d="m 72.888456,1030.638 a 15.059055,12.487393 3.5595994 0 0 6.246319,-9.3814"
         style="fill:none;stroke:#000000;stroke-width:1;stroke-linecap:round;stroke-linejoin:round;stroke-miterlimit:4;stroke-dasharray:none" />
      <path
         id="path10760"
         d="m 49.074811,1019.3864 a 15.059055,12.487393 3.5595994 0 0 23.813645,11.2516"
         style="fill:none;stroke:#000000;stroke-width:1;stroke-linecap:round;stroke-linejoin:round;stroke-miterlimit:4;stroke-dasharray:none" />
      <path
         d="m 54.112153,1035.5362 0.01063,4.6359"
         id="92"
         style="fill:none;stroke:#000000;stroke-width:1;stroke-linecap:round;stroke-linejoin:round;stroke-miterlimit:4;stroke-dasharray:none" />
      <path
         d="m 71.794602,1036.7481 0.01063,4.5238"
         id="93"
         style="fill:none;stroke:#000000;stroke-width:1;stroke-linecap:round;stroke-linejoin:round;stroke-miterlimit:4;stroke-dasharray:none" />
      <path
         id="path9442"
         d="m 79.134775,1021.2566 c 0.09992,-1.7394 -0.17185,-3.5021 -1.017,-5.3728 -0.460594,-1.009 -1.098318,-2.0434 -2.033645,-3.1121 -0.941776,-1.0643 -2.181331,-2.1631 -4.015807,-3.1763 -0.801107,-0.4344 -1.834229,-0.9078 -3.014044,-1.2761 -1.178645,-0.3718 -2.503204,-0.6386 -3.861141,-0.742 -1.356556,-0.1067 -2.745993,-0.05 -4.028067,0.1424 -1.2808,0.1896 -2.453776,0.515 -3.351863,0.8637 -2.077972,0.7881 -3.50472,1.7546 -4.608248,2.7162 -1.096759,0.9683 -1.870476,1.9313 -2.460118,2.89 -1.072063,1.758 -1.553882,3.469 -1.670031,5.1968"
         style="fill:none;stroke:#000000;stroke-width:1;stroke-linecap:round;stroke-linejoin:round;stroke-miterlimit:4;stroke-dasharray:none" />
      <path
         d="m 49.074811,1019.3864 -0.346192,5.5591"
         id="95"
         style="fill:none;stroke:#000000;stroke-width:1;stroke-linecap:round;stroke-linejoin:round;stroke-miterlimit:4;stroke-dasharray:none" />
      <path
         d="m 79.134775,1021.2566 -0.346049,5.5587"
         id="96"
         style="fill:none;stroke:#000000;stroke-width:1;stroke-linecap:round;stroke-linejoin:round;stroke-miterlimit:4;stroke-dasharray:none" />
      <path
         id="path10555"
         d="m 68.132453,1046.7903 c 2.18374,-1.2608 3.535582,-3.2912 3.67409,-5.5184"
         style="fill:none;stroke:#000000;stroke-width:1;stroke-linecap:round;stroke-linejoin:round;stroke-miterlimit:4;stroke-dasharray:none" />
      <path
         id="path10557"
         d="m 54.124094,1040.1721 c -0.382393,6.1475 7.980626,10.0986 14.008359,6.6182"
         style="fill:none;stroke:#000000;stroke-width:1;stroke-linecap:round;stroke-linejoin:round;stroke-miterlimit:4;stroke-dasharray:none" />
      <path
         id="path10592"
         d="m 72.542407,1036.1967 a 15.059055,12.487393 3.5595994 0 0 6.246319,-9.3814"
         style="fill:none;stroke:#000000;stroke-width:1;stroke-linecap:round;stroke-linejoin:round;stroke-miterlimit:4;stroke-dasharray:none" />
      <path
         id="path10598"
         d="m 48.728619,1024.9455 a 15.059055,12.487393 3.5595994 0 0 23.813788,11.2512"
         style="fill:none;stroke:#000000;stroke-width:1;stroke-linecap:round;stroke-linejoin:round;stroke-miterlimit:4;stroke-dasharray:none" />
      <g
         style="stroke-width:1.27717817"
         transform="matrix(0.78422863,0,0,0.78172555,13.717869,222.09835)"
         id="g3911">
        <g
           style="stroke-width:1.27717817"
           id="g3890">
          <path
             id="path10571"
             d="m 67.581149,1013.1181 a 8.3056536,6.887303 3.5595994 0 0 -8.259626,0.5254"
             style="fill:none;stroke:#000000;stroke-width:1.27717817;stroke-linecap:round;stroke-linejoin:round;stroke-miterlimit:4;stroke-dasharray:none" />
        </g>
        <g
           style="stroke-width:1.27717817"
           id="g3887">
          <path
             id="path10561"
             d="m 69.010909,1025.0232 a 8.3056536,6.887303 3.5595994 0 0 3.41465,-6.2151"
             style="fill:none;stroke:#000000;stroke-width:1.27717817;stroke-linecap:round;stroke-linejoin:round;stroke-miterlimit:4;stroke-dasharray:none" />
          <path
             id="path10563"
             d="m 72.425559,1018.8081 -0.273189,0.6463 -0.262914,0.6026 -0.2537,0.5626 -0.246614,0.5262 -0.240237,0.493 -0.235984,0.4623 -0.23315,0.4353 -0.231732,0.4103 -0.231732,0.3882 -0.232795,0.3688 -0.235276,0.3507 -0.239882,0.3357 -0.245197,0.322 -0.252283,0.3111"
             style="fill:none;stroke:#000000;stroke-width:1.27717817;stroke-linecap:round;stroke-linejoin:round;stroke-miterlimit:4;stroke-dasharray:none" />
          <path
             id="path10565"
             d="m 60.75139,1025.5481 a 8.3056536,6.887303 3.5595994 0 0 8.259519,-0.5249"
             style="fill:none;stroke:#000000;stroke-width:1.27717817;stroke-linecap:round;stroke-linejoin:round;stroke-miterlimit:4;stroke-dasharray:none" />
          <path
             id="path10567"
             d="m 72.425559,1018.8081 a 8.3056536,6.887303 3.5595994 0 0 -4.84441,-5.69"
             style="fill:none;stroke:#000000;stroke-width:1.27717817;stroke-linecap:round;stroke-linejoin:round;stroke-miterlimit:4;stroke-dasharray:none" />
          <path
             id="path10569"
             d="m 55.906697,1019.8583 a 8.3056536,6.887303 3.5595994 0 0 4.844693,5.6898"
             style="fill:none;stroke:#000000;stroke-width:1.27717817;stroke-linecap:round;stroke-linejoin:round;stroke-miterlimit:4;stroke-dasharray:none" />
          <path
             id="path10573"
             d="m 59.321523,1013.6435 a 8.3056536,6.887303 3.5595994 0 0 -3.414826,6.2148"
             style="fill:none;stroke:#000000;stroke-width:1.27717817;stroke-linecap:round;stroke-linejoin:round;stroke-miterlimit:4;stroke-dasharray:none" />
          <path
             id="path10575"
             d="m 69.010909,1025.0232 -0.646653,0.208 -0.623091,0.1793 -0.603992,0.1515 -0.588295,0.1249 -0.576213,0.098 -0.567744,0.073 -0.562535,0.048 -0.561048,0.023 h -0.562819 l -0.568629,-0.026 -0.577382,-0.051 -0.589819,-0.076 -0.605799,-0.1011 -0.6255,-0.1274"
             style="fill:none;stroke:#000000;stroke-width:1.27717817;stroke-linecap:round;stroke-linejoin:round;stroke-miterlimit:4;stroke-dasharray:none" />
          <path
             id="path10577"
             d="m 67.581149,1013.1181 0.362622,0.606 0.351851,0.5636 0.342992,0.5245 0.33626,0.4891 0.331653,0.4567 0.329174,0.4264 0.328818,0.3997 0.330591,0.3746 0.33378,0.3523 0.339448,0.3319 0.347599,0.3141 0.357094,0.2975 0.369248,0.2831 0.38328,0.2705"
             style="fill:none;stroke:#000000;stroke-width:1.27717817;stroke-linecap:round;stroke-linejoin:round;stroke-miterlimit:4;stroke-dasharray:none" />
          <path
             id="path10579"
             d="m 60.75139,1025.5481 -0.383563,-0.2703 -0.369249,-0.2831 -0.357094,-0.2975 -0.347598,-0.3141 -0.339449,-0.3319 -0.33378,-0.3522 -0.33059,-0.3747 -0.328819,-0.3996 -0.328819,-0.4267 -0.332008,-0.4565 -0.33626,-0.489 -0.342992,-0.5246 -0.35185,-0.5635 -0.362587,-0.6061"
             style="fill:none;stroke:#000000;stroke-width:1.27717817;stroke-linecap:round;stroke-linejoin:round;stroke-miterlimit:4;stroke-dasharray:none" />
          <path
             id="path10581"
             d="m 59.321523,1013.6435 0.625784,0.1272 0.605834,0.1011 0.589819,0.076 0.577382,0.05 0.568134,0.026 h 0.56328 l 0.56087,-0.023 0.562748,-0.048 0.567744,-0.073 0.576035,-0.099 0.588473,-0.1246 0.603673,-0.1513 0.623409,-0.1795 0.646441,-0.2084"
             style="fill:none;stroke:#000000;stroke-width:1.27717817;stroke-linecap:round;stroke-linejoin:round;stroke-miterlimit:4;stroke-dasharray:none" />
          <path
             id="path10583"
             d="m 55.906697,1019.8583 0.252637,-0.3107 0.245197,-0.3221 0.239882,-0.3357 0.235276,-0.3509 0.232795,-0.3685 0.231732,-0.3882 0.231378,-0.4106 0.23315,-0.435 0.23563,-0.4626 0.24059,-0.4928 0.246614,-0.5261 0.253701,-0.5626 0.262914,-0.6026 0.273189,-0.6464"
             style="fill:none;stroke:#000000;stroke-width:1.27717817;stroke-linecap:round;stroke-linejoin:round;stroke-miterlimit:4;stroke-dasharray:none" />
          <path
             d="m 67.581149,1013.1181 -0.307204,4.9415"
             id="610"
             style="fill:none;stroke:#000000;stroke-width:1.27717817;stroke-linecap:round;stroke-linejoin:round;stroke-miterlimit:4;stroke-dasharray:none" />
          <path
             id="path10586"
             d="m 67.273909,1018.0596 0.267874,0.3923 0.261851,0.3755 0.256181,0.3602 0.25122,0.3456 0.247323,0.3326 0.244488,0.3205 0.241654,0.3093 0.240236,0.2994 0.239173,0.2903 0.239173,0.282 0.240237,0.275 0.242008,0.2687 0.244133,0.2633 0.246969,0.2587"
             style="fill:none;stroke:#000000;stroke-width:1.27717817;stroke-linecap:round;stroke-linejoin:round;stroke-miterlimit:4;stroke-dasharray:none" />
          <path
             id="path10588"
             d="m 57.294327,1022.0329 0.115511,-0.2119 0.115866,-0.2158 0.116575,-0.2204 0.116929,-0.2246 0.118347,-0.2295 0.119409,-0.2347 0.120827,-0.2403 0.12189,-0.2464 0.123661,-0.2527 0.125788,-0.2591 0.127559,-0.2664 0.130039,-0.2739 0.13252,-0.2823 0.135,-0.2898"
             style="fill:none;stroke:#000000;stroke-width:1.27717817;stroke-linecap:round;stroke-linejoin:round;stroke-miterlimit:4;stroke-dasharray:none" />
          <path
             id="path10590"
             d="m 59.014248,1018.585 0.630283,0.056 0.609236,0.042 0.592831,0.028 0.579756,0.014 0.570012,-6e-4 0.56413,-0.014 0.561189,-0.029 0.562429,-0.043 0.56661,-0.058 0.574441,-0.072 0.586063,-0.088 0.601016,-0.1035 0.61937,-0.1199 0.642295,-0.1376"
             style="fill:none;stroke:#000000;stroke-width:1.27717817;stroke-linecap:round;stroke-linejoin:round;stroke-miterlimit:4;stroke-dasharray:none" />
          <path
             d="m 59.321523,1013.6435 -0.307204,4.9415"
             id="618"
             style="fill:none;stroke:#000000;stroke-width:1.27717817;stroke-linecap:round;stroke-linejoin:round;stroke-miterlimit:4;stroke-dasharray:none" />
        </g>
      </g>
      <g
         id="g10754"
         transform="matrix(3.5364712,0.21999252,0.21999253,-3.5364711,-244.46436,1063.3496)"
         style="fill:none;stroke:#000000;stroke-width:0.28222224;stroke-linecap:round;stroke-linejoin:round;stroke-miterlimit:4;stroke-dasharray:none">
        <ellipse
           style="stroke-width:0.28222224;stroke-linecap:round;stroke-linejoin:round;stroke-miterlimit:4;stroke-dasharray:none"
           id="ellipse10756"
           ry="3.1096001"
           rx="3.75"
           cy="17.806299"
           cx="86.163101" />
      </g>
    </g>
  </g>
</svg>
