<?xml version="1.0" encoding="UTF-8"?>
<!-- Created with Inkscape (http://www.inkscape.org/) -->
<svg width="48" height="48" version="1.1" viewBox="0 0 48 48" xml:space="preserve" xmlns="http://www.w3.org/2000/svg"><g stroke="#000000"><path d="m42.04 20.6-9.532 5.504v14.28s-1.392 4.45-8.524 4.45-8.295-4.321-8.295-4.321v-14.2l-9.726-5.615v-6.979s4.553-5.112 8.387-7.325 9.646-3.213 9.646-3.213 3.721-0.3525 9.295 2.866c5.574 3.218 8.705 7.451 8.705 7.451z" fill="#5fd3c2" stroke-linecap="round" stroke-linejoin="round" stroke-width="1.002"/><path d="m5.961 13.71s5.284 0.3917 9.248 2.68c3.964 2.289 8.879 7.622 8.879 7.622s4.744-5.26 8.886-7.651c4.142-2.391 9.021-2.872 9.021-2.872" fill="none" stroke-linecap="round" stroke-linejoin="round" stroke-width="1.002"/><path d="m24.09 24.02v6.889" fill="none" stroke-linecap="round" stroke-linejoin="round" stroke-width="1.002"/><path d="m15.69 26.31 8.401 4.597 8.419-4.803" fill="none" stroke-linecap="round" stroke-linejoin="round" stroke-width="1.002"/><ellipse cx="24.26" cy="11.2" rx="11.95" ry="7.494" fill="none"/></g></svg>
