<?xml version="1.0" encoding="UTF-8" standalone="no"?>
<!-- Created with Inkscape (http://www.inkscape.org/) -->

<svg
   width="48"
   height="48"
   viewBox="0 0 48 48"
   version="1.1"
   id="svg18017"
   xml:space="preserve"
   xmlns="http://www.w3.org/2000/svg"
   xmlns:svg="http://www.w3.org/2000/svg"><defs
     id="defs18014"><marker
       id="DistanceX"
       orient="auto"
       refX="0"
       refY="0"
       style="overflow:visible"><path
         d="M 3,-3 -3,3 M 0,-5 V 5"
         style="stroke:#000000;stroke-width:0.5"
         id="path18503" /></marker><pattern
       id="Hatch"
       patternUnits="userSpaceOnUse"
       width="8"
       height="8"
       x="0"
       y="0"><path
         d="M8 4 l-4,4"
         stroke="#000000"
         stroke-width="0.25"
         linecap="square"
         id="path18506" /><path
         d="M6 2 l-4,4"
         stroke="#000000"
         stroke-width="0.25"
         linecap="square"
         id="path18508" /><path
         d="M4 0 l-4,4"
         stroke="#000000"
         stroke-width="0.25"
         linecap="square"
         id="path18510" /></pattern><symbol
       id="*MODEL_SPACE" /><symbol
       id="*PAPER_SPACE" /></defs><g
     id="layer1"><path
       id="path18609"
       style="display:inline;fill:#5fd3c2;fill-opacity:1;stroke:none;stroke-width:0.893165"
       d="m 4.2994278,19.219506 4.458e-4,0.458916 c 4.218e-4,9.202689 8.8202864,16.663093 19.7001454,16.663083 10.879821,-10e-6 19.699659,-7.460377 19.699659,-16.663208 m 8.95e-4,2.94e-4 V 19.219506 M 13.282004,33.66022 v 2.710948 c -2e-5,5.007172 4.798608,9.066147 10.718005,9.066147 5.919389,0 10.717991,-4.058969 10.717991,-9.066137 V 33.66022 M 43.699677,19.219192 C 43.699698,10.016355 34.879856,2.5559746 24.000026,2.5559672 13.120199,2.5559571 4.3003397,10.016308 4.3003222,19.219149 4.3002853,28.422013 13.120151,35.882417 24.000019,35.882411 34.87985,35.8824 43.699688,28.422023 43.699678,19.219192" /><path
       id="path18696"
       style="display:inline;fill:none;stroke:#000000;stroke-width:1.12539;stroke-dasharray:none"
       d="M 4.2994278,19.678591 V 19.219506 M 43.700572,19.678591 V 19.219506 M 13.282004,36.370979 V 33.66022 M 34.718,36.370979 V 33.66022 M 17.471303,24.262565 c -0.678522,-0.448978 -1.471822,-0.978966 -2.427162,-1.623741 m 2.65993,-3.517569 0.80385,4.256834 m 0.178645,-7.261445 1.161118,6.153916 m 0.613677,-4.771223 a 6.4307984,5.4395677 0 0 0 -1.327039,0.985316 m 1.327903,-0.983716 C 19.655428,15.475495 18.632574,12.8998 17.221514,9.3316353 m 3.436272,1.6367987 v 6.748764 m 3.342229,1.552637 c -0.921578,-0.334199 -1.934307,-0.806806 -3.341989,-1.55285 m 3.341989,-6.092967 v 7.645503 m 3.341986,-1.552536 c -1.407684,0.746044 -2.420411,1.218645 -3.341986,1.55285 m 3.342227,-8.301401 v 6.748764 M 30.778511,9.3316353 C 29.367453,12.8998 28.344599,15.475495 27.537801,17.500937 m 1.327924,0.983733 a 6.4307984,5.4395677 0 0 0 -1.327056,-0.985333 m 1.774792,-1.382693 -1.161119,6.153916 m 2.1436,-3.149305 -0.80385,4.256834 m 3.46378,-0.739265 c -0.95534,0.644775 -1.748641,1.174763 -2.427159,1.623741 m -6.52753,-3.650803 a 14.601628,34.207868 71.31693 0 0 -3.342024,1.010193 m -0.0018,-0.0018 A 11.911087,34.255513 48.097908 0 0 17.220177,24.4797 m -2.175922,-1.840869 q 0.901332,1.005972 2.079461,1.779025 m 0.580679,-5.295912 a 13.705003,34.255486 32.17274 0 0 -2.659262,3.517551 m 3.641601,-6.522892 a 8.0603959,34.207851 11.5078 0 0 -0.98286,3.005711 m 0.982849,-3.006943 a 34.207878,2.5110838 72.723483 0 0 -0.982859,-2.648058 m 3.95e-4,0.0027 a 34.255489,9.1782445 53.62872 0 0 -2.65911,-2.297072 m 2.176503,-1.8410473 q -1.238902,0.7933003 -2.17736,1.8397783 m 5.612943,-0.199805 A 34.255496,16.437843 45.53908 0 0 17.220063,9.3326043 m 6.781035,2.2910577 a 34.207874,20.150969 21.00718 0 0 -3.342025,-0.652528 m 6.682093,1.1e-5 a 20.150969,34.207874 68.99282 0 0 -3.342023,0.652537 m 6.781046,-2.2910547 a 16.437843,34.255496 44.46092 0 0 -3.437172,1.6392737 m 5.612997,0.199742 Q 32.017551,10.125165 30.778653,9.3318647 M 32.9552,11.172875 a 9.1782445,34.255489 36.37128 0 0 -2.659313,2.297261 m 5.7e-4,-0.0027 a 2.5110838,34.207878 17.276517 0 0 -0.982858,2.648058 m 0.982814,3.006933 a 34.207851,8.0603959 78.4922 0 0 -0.982869,-3.005708 m 3.64179,6.523175 a 34.255486,13.705003 57.82726 0 0 -2.659306,-3.517518 m 0.580524,5.295707 q 1.17813,-0.773053 2.079461,-1.779026 m -2.175872,1.840913 a 34.255513,11.911087 41.902092 0 0 -3.437179,-2.859551 m -0.0017,0.0018 A 34.207868,14.601628 18.68307 0 0 23.999117,20.612005 M 4.3003222,19.219149 A 19.699679,16.663209 0 0 0 24.000019,35.882411 M 43.699677,19.219192 A 19.699679,16.663209 0 0 0 4.3003222,19.219149 M 24.000019,35.882411 A 19.699679,16.663209 0 0 0 43.699677,19.219192 M 4.3003222,19.678254 A 19.699679,16.663209 0 0 0 24.000019,36.341505 m 0,0 A 19.699679,16.663209 0 0 0 43.699677,19.678297 m -30.417673,16.69305 a 10.717997,9.0659466 0 0 0 10.718005,9.065968 m 0,0 A 10.717997,9.0659466 0 0 0 34.718,36.371364" /></g></svg>
