<?xml version="1.0" encoding="UTF-8" standalone="no"?>
<svg
   xmlns:dc="http://purl.org/dc/elements/1.1/"
   xmlns:cc="http://creativecommons.org/ns#"
   xmlns:rdf="http://www.w3.org/1999/02/22-rdf-syntax-ns#"
   xmlns:svg="http://www.w3.org/2000/svg"
   xmlns="http://www.w3.org/2000/svg"
   xmlns:sodipodi="http://sodipodi.sourceforge.net/DTD/sodipodi-0.dtd"
   xmlns:inkscape="http://www.inkscape.org/namespaces/inkscape"
   sodipodi:docname="ASMEB18.21.1.12A.svg.svg"
   inkscape:version="1.0 (4035a4fb49, 2020-05-01)"
   version="1.1"
   id="svg15825"
   viewBox="0 0 48.000001 48.000001"
   height="48"
   width="48">
  <defs
     id="defs15827" />
  <sodipodi:namedview
     inkscape:document-rotation="0"
     inkscape:window-maximized="0"
     inkscape:window-y="87"
     inkscape:window-x="184"
     inkscape:window-height="787"
     inkscape:window-width="1260"
     units="px"
     showgrid="false"
     inkscape:current-layer="layer1"
     inkscape:document-units="px"
     inkscape:cy="24.575195"
     inkscape:cx="2.8060331"
     inkscape:zoom="12.625"
     inkscape:pageshadow="2"
     inkscape:pageopacity="0.0"
     borderopacity="1.0"
     bordercolor="#666666"
     pagecolor="#ffffff"
     id="base" />
  <metadata
     id="metadata15830">
    <rdf:RDF>
      <cc:Work
         rdf:about="">
        <dc:format>image/svg+xml</dc:format>
        <dc:type
           rdf:resource="http://purl.org/dc/dcmitype/StillImage" />
        <dc:title></dc:title>
      </cc:Work>
    </rdf:RDF>
  </metadata>
  <g
     transform="translate(0,-1004.3622)"
     id="layer1"
     inkscape:groupmode="layer"
     inkscape:label="Layer 1">
    <path
       sodipodi:nodetypes="ccccccccccccccccc"
       inkscape:connector-curvature="0"
       id="path7586"
       d="m 23.343359,1016.4353 c -4.180543,0.073 -8.575056,1.5355 -11.333246,4.8073 -1.880158,2.1897 -3.3319849,6.4381 -1.54301,10.5908 0.920371,2.5599 3.031142,4.521 5.311212,5.902 3.335587,1.9315 7.274628,2.8201 11.116656,2.4603 3.808476,-0.2546 7.671157,-1.85 10.144392,-4.8304 2.594713,-3.6867 2.50747,-7.7597 1.491377,-10.397 -1.388422,-3.7756 -4.951377,-6.3172 -8.660915,-7.5333 -2.097591,-0.7007 -4.31567,-1.0365 -6.526466,-0.9997 z m 3.190421,6.9464 c 1.851007,0.5472 2.513493,0.8851 5.048702,2.8316 0.99552,1.1156 0,0 1.498063,1.8028 -0.190665,2.2285 -2.103693,3.8761 -4.060115,4.674 -3.735126,1.4986 -8.362624,0.7526 -11.308642,-2.0326 -1.426226,-1.3334 -2.033712,-2.1769 -1.450524,-4.0894 1.822206,-2.0417 2.873615,-2.6217 5.014824,-3.1455 0.96746,-0.2807 4.264474,-0.041 5.257692,-0.041 z"
       style="fill:#5fd3c2;fill-opacity:1;fill-rule:evenodd;stroke:none;stroke-width:1.21813;stroke-linecap:round;stroke-linejoin:round;stroke-miterlimit:4;stroke-dasharray:none;stroke-dashoffset:0;stroke-opacity:1" />
    <path
       inkscape:connector-curvature="0"
       d="m 10.045851,1025.7287 -0.2248734,2.4107"
       id="26"
       style="fill:none;stroke:#000000;stroke-width:1.21813;stroke-linecap:round;stroke-linejoin:miter;stroke-miterlimit:4;stroke-dasharray:none" />
    <path
       inkscape:connector-curvature="0"
       d="m 39.05435,1028.4354 -0.224874,2.4104"
       id="27"
       style="fill:none;stroke:#000000;stroke-width:1.21813;stroke-linecap:round;stroke-linejoin:miter;stroke-miterlimit:4;stroke-dasharray:none" />
    <path
       inkscape:connector-curvature="0"
       id="path4624"
       d="m 30.066392,1032.1391 a 8.5784373,6.2904222 5.3305994 0 0 3.025005,-4.2601"
       style="fill:none;stroke:#000000;stroke-width:1.21813;stroke-linecap:round;stroke-linejoin:miter;stroke-miterlimit:4;stroke-dasharray:none" />
    <path
       inkscape:connector-curvature="0"
       id="path4626"
       d="m 33.091397,1027.879 a 8.5784373,6.2904222 5.3305994 0 0 -17.082593,-1.5938"
       style="fill:none;stroke:#000000;stroke-width:1.21813;stroke-linecap:round;stroke-linejoin:miter;stroke-miterlimit:4;stroke-dasharray:none" />
    <path
       inkscape:connector-curvature="0"
       id="path4628"
       d="m 16.008804,1026.2852 a 8.5784373,6.2904222 5.3305994 0 0 14.057588,5.8539"
       style="fill:none;stroke:#000000;stroke-width:1.21813;stroke-linecap:round;stroke-linejoin:miter;stroke-miterlimit:4;stroke-dasharray:none" />
    <path
       inkscape:connector-curvature="0"
       id="path4630"
       d="m 33.917561,1035.6695 a 14.567157,10.68187 5.3305994 0 0 5.136789,-7.2341"
       style="fill:none;stroke:#000000;stroke-width:1.21813;stroke-linecap:round;stroke-linejoin:miter;stroke-miterlimit:4;stroke-dasharray:none" />
    <path
       inkscape:connector-curvature="0"
       id="path4632"
       d="m 39.05435,1028.4354 a 14.567267,10.681949 5.3305994 0 0 -29.008499,-2.7067"
       style="fill:none;stroke:#000000;stroke-width:1.21813;stroke-linecap:round;stroke-linejoin:miter;stroke-miterlimit:4;stroke-dasharray:none" />
    <path
       inkscape:connector-curvature="0"
       id="path4634"
       d="m 10.045851,1025.7287 a 14.567157,10.68187 5.3305994 0 0 23.87171,9.9408"
       style="fill:none;stroke:#000000;stroke-width:1.21813;stroke-linecap:round;stroke-linejoin:miter;stroke-miterlimit:4;stroke-dasharray:none" />
    <path
       inkscape:connector-curvature="0"
       id="path4636"
       d="m 33.692428,1038.0804 a 14.567157,10.68187 5.3305994 0 0 5.136919,-7.2346"
       style="fill:none;stroke:#000000;stroke-width:1.21813;stroke-linecap:round;stroke-linejoin:miter;stroke-miterlimit:4;stroke-dasharray:none" />
    <path
       inkscape:connector-curvature="0"
       id="path4638"
       d="m 9.8210215,1028.1394 a 14.567157,10.68187 5.3305994 0 0 23.8714065,9.941"
       style="fill:none;stroke:#000000;stroke-width:1.21813;stroke-linecap:round;stroke-linejoin:miter;stroke-miterlimit:4;stroke-dasharray:none" />
    <path
       inkscape:connector-curvature="0"
       id="path4640"
       d="m 32.819564,1029.0695 a 8.5784373,6.2904222 5.3305994 0 0 -16.763497,-1.5642"
       style="fill:none;stroke:#000000;stroke-width:1.21813;stroke-linecap:round;stroke-linejoin:miter;stroke-miterlimit:4;stroke-dasharray:none" />
  </g>
</svg>
