<?xml version="1.0" encoding="UTF-8" standalone="no"?>
<svg
   xmlns:dc="http://purl.org/dc/elements/1.1/"
   xmlns:cc="http://creativecommons.org/ns#"
   xmlns:rdf="http://www.w3.org/1999/02/22-rdf-syntax-ns#"
   xmlns:svg="http://www.w3.org/2000/svg"
   xmlns="http://www.w3.org/2000/svg"
   xmlns:sodipodi="http://sodipodi.sourceforge.net/DTD/sodipodi-0.dtd"
   xmlns:inkscape="http://www.inkscape.org/namespaces/inkscape"
   sodipodi:docname="ASMEB18.21.1.12C.svg"
   inkscape:version="1.0 (4035a4fb49, 2020-05-01)"
   version="1.1"
   id="svg15825"
   viewBox="0 0 48.000001 48.000001"
   height="48"
   width="48">
  <defs
     id="defs15827" />
  <sodipodi:namedview
     inkscape:document-rotation="0"
     inkscape:window-maximized="0"
     inkscape:window-y="87"
     inkscape:window-x="184"
     inkscape:window-height="787"
     inkscape:window-width="1260"
     units="px"
     showgrid="false"
     inkscape:current-layer="layer1"
     inkscape:document-units="px"
     inkscape:cy="21.406878"
     inkscape:cx="2.8060331"
     inkscape:zoom="12.625"
     inkscape:pageshadow="2"
     inkscape:pageopacity="0.0"
     borderopacity="1.0"
     bordercolor="#666666"
     pagecolor="#ffffff"
     id="base" />
  <metadata
     id="metadata15830">
    <rdf:RDF>
      <cc:Work
         rdf:about="">
        <dc:format>image/svg+xml</dc:format>
        <dc:type
           rdf:resource="http://purl.org/dc/dcmitype/StillImage" />
        <dc:title></dc:title>
      </cc:Work>
    </rdf:RDF>
  </metadata>
  <g
     transform="translate(0,-1004.3622)"
     id="layer1"
     inkscape:groupmode="layer"
     inkscape:label="Layer 1">
    <path
       sodipodi:nodetypes="ccccccccccccccccccc"
       inkscape:connector-curvature="0"
       id="path7651"
       d="m 22.324072,1011.6715 c -3.112906,0.015 -6.217373,0.7153 -9.075959,1.9356 -3.4727244,1.5304 -6.651332,4.1586 -8.121597,7.7319 -1.2953687,3.2351 -1.9899507,7.8488 0.7879457,12.0041 2.3739189,3.99 6.5013293,6.6294 10.8222033,8.0948 3.180626,1.0674 6.557544,1.5821 9.91221,1.3682 4.225559,-0.17 8.457187,-1.4926 11.890234,-3.992 4.902001,-4.1802 5.259726,-7.4043 5.44771,-11.0847 0.238414,-3.71 -1.58947,-7.2886 -4.230644,-9.8016 -3.831908,-3.7632 -9.145181,-5.7047 -14.426998,-6.1841 -1.000203,-0.063 -2.003078,-0.08 -3.005105,-0.072 z m 1.412902,11.5387 c 1.951841,-0.032 3.887388,0.4656 5.499845,1.6083 1.278209,0.8984 1.638916,2.269 1.638916,2.269 0.03495,1.6582 -0.928954,2.5656 -2.256025,3.3665 -1.284968,0.76 -2.786085,0.9823 -4.238398,0.9485 -2.482611,0.022 -5.189655,-1.0817 -6.605353,-3.2344 -1.18089,-1.7787 -0.588476,-2.2129 1.089883,-3.4918 1.367322,-1.099 3.138396,-1.5042 4.871132,-1.4661 z"
       style="fill:#5fd3c2;fill-opacity:1;fill-rule:evenodd;stroke:none;stroke-width:1;stroke-linecap:round;stroke-linejoin:round;stroke-miterlimit:4;stroke-dasharray:none;stroke-dashoffset:0;stroke-opacity:1" />
    <path
       inkscape:connector-curvature="0"
       d="m 4.330729,1024.3681 -0.1849607,1.9789"
       id="9"
       style="fill:none;stroke:#000000;stroke-width:1;stroke-linecap:round;stroke-linejoin:miter;stroke-miterlimit:4;stroke-dasharray:none" />
    <path
       inkscape:connector-curvature="0"
       d="m 44.02034,1028.0712 -0.184961,1.9785"
       id="10"
       style="fill:none;stroke:#000000;stroke-width:1;stroke-linecap:round;stroke-linejoin:miter;stroke-miterlimit:4;stroke-dasharray:none" />
    <path
       inkscape:connector-curvature="0"
       id="path4251"
       d="m 28.704182,1030.3717 a 7.0423229,5.1640156 5.3305994 0 0 2.482654,-3.4985"
       style="fill:none;stroke:#000000;stroke-width:1;stroke-linecap:round;stroke-linejoin:miter;stroke-miterlimit:4;stroke-dasharray:none" />
    <path
       inkscape:connector-curvature="0"
       id="path4253"
       d="M 31.186836,1026.8732 A 7.0423229,5.1640156 5.3305994 0 0 17.16356,1025.5655"
       style="fill:none;stroke:#000000;stroke-width:1;stroke-linecap:round;stroke-linejoin:miter;stroke-miterlimit:4;stroke-dasharray:none" />
    <path
       inkscape:connector-curvature="0"
       id="path4255"
       d="m 17.16356,1025.5655 a 7.0423229,5.1640156 5.3305994 0 0 11.540622,4.8062"
       style="fill:none;stroke:#000000;stroke-width:1;stroke-linecap:round;stroke-linejoin:miter;stroke-miterlimit:4;stroke-dasharray:none" />
    <path
       inkscape:connector-curvature="0"
       id="path4257"
       d="m 36.991481,1037.9688 a 19.931102,14.615158 5.3305994 0 0 7.028859,-9.8976"
       style="fill:none;stroke:#000000;stroke-width:1;stroke-linecap:round;stroke-linejoin:miter;stroke-miterlimit:4;stroke-dasharray:none" />
    <path
       inkscape:connector-curvature="0"
       id="path4259"
       d="M 44.02034,1028.0712 A 19.931102,14.615158 5.3305994 0 0 4.330729,1024.3681"
       style="fill:none;stroke:#000000;stroke-width:1;stroke-linecap:round;stroke-linejoin:miter;stroke-miterlimit:4;stroke-dasharray:none" />
    <path
       inkscape:connector-curvature="0"
       id="path4261"
       d="m 4.330729,1024.3681 a 19.931102,14.615158 5.3305994 0 0 32.660752,13.6007"
       style="fill:none;stroke:#000000;stroke-width:1;stroke-linecap:round;stroke-linejoin:miter;stroke-miterlimit:4;stroke-dasharray:none" />
    <path
       inkscape:connector-curvature="0"
       id="path4263"
       d="m 36.806627,1039.9474 a 19.931102,14.615158 5.3305994 0 0 7.028858,-9.8977"
       style="fill:none;stroke:#000000;stroke-width:1;stroke-linecap:round;stroke-linejoin:miter;stroke-miterlimit:4;stroke-dasharray:none" />
    <path
       inkscape:connector-curvature="0"
       id="path4265"
       d="m 4.1457683,1026.347 a 19.931102,14.615158 5.3305994 0 0 32.6608587,13.6004"
       style="fill:none;stroke:#000000;stroke-width:1;stroke-linecap:round;stroke-linejoin:miter;stroke-miterlimit:4;stroke-dasharray:none" />
    <path
       inkscape:connector-curvature="0"
       id="path4267"
       d="m 30.964351,1027.8516 a 7.0423229,5.1640156 5.3305994 0 0 -13.761956,-1.2845"
       style="fill:none;stroke:#000000;stroke-width:1;stroke-linecap:round;stroke-linejoin:miter;stroke-miterlimit:4;stroke-dasharray:none" />
  </g>
</svg>
