<?xml version="1.0" encoding="UTF-8"?>
<svg width="48" height="48" version="1.1" viewBox="0 0 12.7 12.7" xmlns="http://www.w3.org/2000/svg">
 <g fill="#5fd3c2">
  <path d="m1.49 3.78c-0.13 1.52-0.151 4.97 0.213 5.15 0.23 0.5 2.92 2.16 4.56 2.79 1.64-0.58 4.44-2.44 4.68-2.9 0.26-0.5 0.3-3.59 0.16-5.11s-2.99-2.76-4.81-2.75c-1.84 0-4.67 1.3-4.8 2.82z"/>
 </g>
 <g fill="none" stroke="#000000" stroke-width=".4">
  <path d="m7.2 11.1a0.95 0.6 0 0 1-0.95 0.6 0.95 0.6 0 0 1-0.95-0.6 0.95 0.6 0 0 1 0.95-0.6 0.95 0.6 0 0 1 0.95 0.6"/>
  <path d="m5.44 11.4c-1.09-0.67-2.26-1.23-3.3-1.98-0.8-0.72-0.91-2.02-0.14-2.82 1.1-1.2 2.9-1.46 4.5-1.4 1.6 0.07 3.4 0.32 4.4 1.7 0.5 0.7 0.2 1.9-0.5 2.5-1.1 0.8-2.26 1.3-3.3 2"/>
  <path d="m1.49 7.85v-4.1c0.24-1.18 1.42-1.8 2.41-2.26 1.73-0.78 3.9-0.7 5.5 0.33 0.8 0.4 1.7 1.12 1.76 2.1v4"/>
  <path d="m3.1 1.9c2.14-0.9 4.77-0.96 6.82 0.22"/>
 </g>
</svg>
