<?xml version="1.0" encoding="UTF-8"?>
<!-- Created with Inkscape (http://www.inkscape.org/) -->
<svg width="48" height="48" version="1.1" viewBox="0 0 12.7 12.7" xml:space="preserve" xmlns="http://www.w3.org/2000/svg"><g><g stroke="#000000" stroke-linecap="round" stroke-linejoin="round" stroke-width=".2646"><path d="m8.654 10.74s-1.498 0.806-3.131 0.4939c-1.632-0.3121-2.503-1.112-2.389-2.073 0.04158-0.3512 0.1585-0.533 0.2318-0.686 0.1271-0.2653 0.2151-0.3428 0.2151-0.3428s-1.415-1.19-2.061-2.439c-0.6464-1.249-1.24-3.046-0.9522-3.455 0.288-0.409 1.018-0.7231 1.105-0.7539 0.08706-0.03083 0.6268-0.1569 1.329-0.06658 0.7025 0.09028 1.358 0.3386 1.467 0.604 0.1092 0.2654 1.148 4.212 1.148 4.212s0.4859-0.1453 1.203-0.04222c0.717 0.1031 1.055 0.3414 1.055 0.3414s0.1798-0.4865 0.2405-0.6476c0.0607-0.1611 0.05646-0.1527 0.1607-0.2662 0.1043-0.1135 0.1916-0.1396 0.2702-0.1853 0.07857-0.04563 0.5387-0.3399 0.6736-0.4125 0.1349-0.0726 0.2802-0.06654 0.3718-0.0639 0.09158 0.00265 0.1636 0.0114 0.2881 0.1027 0.1244 0.09133 0.8282 0.6205 1.286 1.105 0.458 0.4844 0.8459 1.016 0.9172 1.129 0.07128 0.1131 0.1471 0.229 0.1173 0.4842-0.02987 0.2552-0.2534 1.373-0.9244 1.952-0.4852 0.4186-0.7569 0.5611-1.033 0.6925-0.3983 0.1897-0.733 0.2822-1.066 0.3068-0.3329 0.02459-0.5238 0.0109-0.5238 0.0109z" fill="#5fd3c2"/><path d="m8.654 10.74c-0.4755-0.05114-0.9989-0.134-1.169-0.3851-0.1705-0.2511-0.412-1.031-0.442-1.212-0.02991-0.1808-0.002665-0.4884 0.03794-0.596 0.04061-0.1076 0.7949-2.014 0.7949-2.014" fill="none"/><path d="m5.618 6.238s-0.4205 0.1002-0.9641 0.4761c-0.5436 0.3759-0.5125 0.4817-0.5693 0.6046-0.05675 0.1229-0.5031 0.8175-0.5031 0.8175" fill="none"/><path d="m7.049 8.694s-0.5493 0.2121-1.656-0.06998c-1.106-0.282-1.303-0.9293-1.309-1.305" fill="none"/><path d="m7.19 8.183a1.43 0.8138 0 0 1-1.644 0.02945 1.43 0.8138 0 0 1-0.6047-0.8706 1.43 0.8138 0 0 1 1.235-0.6184 1.43 0.8138 0 0 1 1.44 0.4522" fill="none"/><path d="m8.163 5.775c0.5336 0.1427 1.062 0.6864 1.534 1.201 0.4725 0.5151 1.031 1.225 1.05 1.359 0.01943 0.134-0.03548 1.218-0.7046 1.704-1.172 0.8515-1.765 0.6547-1.765 0.6547" fill="none"/><path d="m12.17 7.48c-0.1315 0.2952-0.4412 0.4591-0.6137 0.5399-0.1725 0.08082-0.5522 0.2961-0.8164 0.2791" fill="none"/><path d="m0.5169 2.363c0.3175-0.1338 0.7178-0.08634 1.167-0.0363 0.4493 0.05004 1.251 0.2977 1.361 0.4874s1.221 4.202 1.221 4.202" fill="none"/><path d="m4.388 1.917c-0.01661 0.2249-0.4432 0.4535-0.5787 0.5285s-0.587 0.3587-0.8085 0.3092" fill="none"/><path d="m4.904 6.561c-0.5648 0.5738-0.6918 1.085 0.03904 1.503 0.7308 0.4183 1.782 0.4378 2.224 0.2166" fill="none"/></g></g></svg>
