<?xml version="1.0" encoding="UTF-8" standalone="no"?>
<!-- Created with Inkscape (http://www.inkscape.org/) -->

<svg
   width="48"
   height="48"
   viewBox="0 0 48 48"
   version="1.1"
   id="svg23520"
   xml:space="preserve"
   xmlns="http://www.w3.org/2000/svg"
   xmlns:svg="http://www.w3.org/2000/svg"><defs
     id="defs23517"><marker
       id="DistanceX"
       orient="auto"
       refX="0"
       refY="0"
       style="overflow:visible"><path
         d="M 3,-3 -3,3 M 0,-5 V 5"
         style="stroke:#000000;stroke-width:0.5"
         id="path24006" /></marker><pattern
       id="Hatch"
       patternUnits="userSpaceOnUse"
       width="8"
       height="8"
       x="0"
       y="0"><path
         d="M8 4 l-4,4"
         stroke="#000000"
         stroke-width="0.25"
         linecap="square"
         id="path24009" /><path
         d="M6 2 l-4,4"
         stroke="#000000"
         stroke-width="0.25"
         linecap="square"
         id="path24011" /><path
         d="M4 0 l-4,4"
         stroke="#000000"
         stroke-width="0.25"
         linecap="square"
         id="path24013" /></pattern><symbol
       id="*MODEL_SPACE" /><symbol
       id="*PAPER_SPACE" /><marker
       id="DistanceX-1"
       orient="auto"
       refX="0.0"
       refY="0.0"
       style="overflow:visible"><path
         d="M 3,-3 L -3,3 M 0,-5 L  0,5"
         style="stroke:#000000; stroke-width:0.5"
         id="path30866" /></marker><pattern
       id="Hatch-9"
       patternUnits="userSpaceOnUse"
       width="8"
       height="8"
       x="0"
       y="0"><path
         d="M8 4 l-4,4"
         stroke="#000000"
         stroke-width="0.25"
         linecap="square"
         id="path30869" /><path
         d="M6 2 l-4,4"
         stroke="#000000"
         stroke-width="0.25"
         linecap="square"
         id="path30871" /><path
         d="M4 0 l-4,4"
         stroke="#000000"
         stroke-width="0.25"
         linecap="square"
         id="path30873" /></pattern><symbol
       id="*MODEL_SPACE-5" /><symbol
       id="*PAPER_SPACE-0" /><marker
       id="DistanceX-5"
       orient="auto"
       refX="0.0"
       refY="0.0"
       style="overflow:visible"><path
         d="M 3,-3 L -3,3 M 0,-5 L  0,5"
         style="stroke:#000000; stroke-width:0.5"
         id="path31863" /></marker><pattern
       id="Hatch-96"
       patternUnits="userSpaceOnUse"
       width="8"
       height="8"
       x="0"
       y="0"><path
         d="M8 4 l-4,4"
         stroke="#000000"
         stroke-width="0.25"
         linecap="square"
         id="path31866" /><path
         d="M6 2 l-4,4"
         stroke="#000000"
         stroke-width="0.25"
         linecap="square"
         id="path31868" /><path
         d="M4 0 l-4,4"
         stroke="#000000"
         stroke-width="0.25"
         linecap="square"
         id="path31870" /></pattern><symbol
       id="*MODEL_SPACE-8" /><symbol
       id="*PAPER_SPACE-8" /><marker
       id="DistanceX-0"
       orient="auto"
       refX="0.0"
       refY="0.0"
       style="overflow:visible"><path
         d="M 3,-3 L -3,3 M 0,-5 L  0,5"
         style="stroke:#000000; stroke-width:0.5"
         id="path34371" /></marker><pattern
       id="Hatch-8"
       patternUnits="userSpaceOnUse"
       width="8"
       height="8"
       x="0"
       y="0"><path
         d="M8 4 l-4,4"
         stroke="#000000"
         stroke-width="0.25"
         linecap="square"
         id="path34374" /><path
         d="M6 2 l-4,4"
         stroke="#000000"
         stroke-width="0.25"
         linecap="square"
         id="path34376" /><path
         d="M4 0 l-4,4"
         stroke="#000000"
         stroke-width="0.25"
         linecap="square"
         id="path34378" /></pattern><symbol
       id="*MODEL_SPACE-0" /><symbol
       id="*PAPER_SPACE-4" /><marker
       id="DistanceX-58"
       orient="auto"
       refX="0.0"
       refY="0.0"
       style="overflow:visible"><path
         d="M 3,-3 L -3,3 M 0,-5 L  0,5"
         style="stroke:#000000; stroke-width:0.5"
         id="path36936" /></marker><pattern
       id="Hatch-2"
       patternUnits="userSpaceOnUse"
       width="8"
       height="8"
       x="0"
       y="0"><path
         d="M8 4 l-4,4"
         stroke="#000000"
         stroke-width="0.25"
         linecap="square"
         id="path36939" /><path
         d="M6 2 l-4,4"
         stroke="#000000"
         stroke-width="0.25"
         linecap="square"
         id="path36941" /><path
         d="M4 0 l-4,4"
         stroke="#000000"
         stroke-width="0.25"
         linecap="square"
         id="path36943" /></pattern><symbol
       id="*MODEL_SPACE-1" /><symbol
       id="*PAPER_SPACE-3" /><marker
       id="DistanceX-8"
       orient="auto"
       refX="0.0"
       refY="0.0"
       style="overflow:visible"><path
         d="M 3,-3 L -3,3 M 0,-5 L  0,5"
         style="stroke:#000000; stroke-width:0.5"
         id="path40457" /></marker><pattern
       id="Hatch-3"
       patternUnits="userSpaceOnUse"
       width="8"
       height="8"
       x="0"
       y="0"><path
         d="M8 4 l-4,4"
         stroke="#000000"
         stroke-width="0.25"
         linecap="square"
         id="path40460" /><path
         d="M6 2 l-4,4"
         stroke="#000000"
         stroke-width="0.25"
         linecap="square"
         id="path40462" /><path
         d="M4 0 l-4,4"
         stroke="#000000"
         stroke-width="0.25"
         linecap="square"
         id="path40464" /></pattern><symbol
       id="*MODEL_SPACE-4" /><symbol
       id="*PAPER_SPACE-04" /><marker
       id="DistanceX-3"
       orient="auto"
       refX="0.0"
       refY="0.0"
       style="overflow:visible"><path
         d="M 3,-3 L -3,3 M 0,-5 L  0,5"
         style="stroke:#000000; stroke-width:0.5"
         id="path44192" /></marker><pattern
       id="Hatch-31"
       patternUnits="userSpaceOnUse"
       width="8"
       height="8"
       x="0"
       y="0"><path
         d="M8 4 l-4,4"
         stroke="#000000"
         stroke-width="0.25"
         linecap="square"
         id="path44195" /><path
         d="M6 2 l-4,4"
         stroke="#000000"
         stroke-width="0.25"
         linecap="square"
         id="path44197" /><path
         d="M4 0 l-4,4"
         stroke="#000000"
         stroke-width="0.25"
         linecap="square"
         id="path44199" /></pattern><symbol
       id="*MODEL_SPACE-50" /><symbol
       id="*PAPER_SPACE-6" /></defs><path
     id="path44294"
     style="fill:#5fd3c2;fill-opacity:1;stroke:none;stroke-width:1.25978;stroke-dasharray:none"
     d="m 2.6298881,21.965776 c -2.17e-5,16.104195 23.0187139,24.169181 36.4811129,12.781765 4.007647,-3.38994 6.259116,-7.987671 6.259111,-12.781754 V 21.2935 C 45.369303,11.310587 35.801812,3.2183787 23.999997,3.2183773 12.198181,3.218376 2.6306935,11.310581 2.6298881,21.29329 m 0,4.04e-4 v 0.672089 m 12.1956099,16.32666 c 1.341011,6.262354 10.447203,8.671249 15.767435,4.171026 1.342518,-1.135594 2.243184,-2.590804 2.581569,-4.171057" /><path
     id="path44891"
     style="display:inline;fill:none;stroke:#000000;stroke-width:1.25978;stroke-dasharray:none"
     d="m 45.370112,21.293694 v 0.672089 M 2.6298881,21.293694 v 0.672089 m 12.1956099,16.32666 a 7.8866341,9.3237834 89.999959 0 0 15.767435,4.171026 m 0,0 a 7.8866341,9.3237834 89.999959 0 0 2.581569,-4.171057 M 2.6298881,21.965776 A 18.076165,21.370112 89.999959 0 0 39.111001,34.747541 m 0,0 a 18.076165,21.370112 89.999959 0 0 6.259111,-12.78175 M 33.314972,15.76072 q -1.065996,1.180524 -1.914677,2.117307 m -1.527089,-3.006866 -0.376059,3.121137 m -2.995141,1.421581 C 26.117307,18.70322 25.703245,17.839854 25.14235,16.565354 m 2.07047,-3.086545 -0.710938,5.935365 m -0.739687,-8.020008 -0.620031,5.170815 m -0.01741,-0.252177 c 0.04701,-1.853009 0.105716,-4.181755 0.185007,-7.3239404 M 25.125667,16.3116 a 4.7319801,5.59427 89.999959 0 0 -2.251267,0 M 22.690293,8.9888636 c 0.0793,3.1421854 0.138022,5.4709314 0.185006,7.3239404 m -0.01764,0.25255 c -0.560896,1.2745 -0.974957,2.137866 -1.359656,2.848525 m 0.73981,-8.019713 0.620032,5.170815 m -2.070657,-3.086172 0.710939,5.935365 m -3.371325,-4.543013 0.37606,3.121137 M 16.599717,17.878027 Q 15.751035,16.941244 14.685039,15.76072 m 7.552777,5.567938 0.516694,3.427268 m 3.007697,-3.427268 -0.516693,3.427268 M 2.629904,21.29329 A 18.076165,21.370112 89.999959 0 0 39.111017,34.075055 M 45.370112,21.293306 A 18.076165,21.370112 89.999959 0 0 2.6298881,21.29329 M 39.111001,34.075055 A 18.076165,21.370112 89.999959 0 0 45.370112,21.293306 M 29.872096,17.853288 a 10.814624,27.920743 59.454923 0 0 -2.659034,1.063882 m 6.101553,-0.940699 A 12.932801,27.970251 82.966482 0 0 29.87281,17.852752 m 3.442186,0.122747 a 7.9566821,9.4065965 89.99996 0 0 -8e-6,-2.215401 m -3.73e-4,5.52e-4 a 27.970256,16.637436 7.76242 0 0 -3.441797,-0.88844 m -7.69e-4,6.68e-4 a 27.920729,15.344004 34.11279 0 0 -2.659034,-1.39305 m 7.77e-4,-0.0016 a 27.920751,9.2427177 68.54319 0 0 -1.452335,-2.084561 m -7.77e-4,0.0016 A 27.970256,3.4721436 87.107143 0 0 25.308639,8.9900648 m 7.77e-4,-0.00159 a 7.9566821,9.4065965 89.99996 0 0 -2.619104,-8e-6 m 7.46e-4,0.00159 a 3.4721436,27.970254 2.892779 0 0 -0.452033,2.4052102 m -7.77e-4,-0.0016 a 9.2427146,27.92074 21.45676 0 0 -1.452327,2.084597 m 7.77e-4,0.0016 a 15.344013,27.920745 55.88716 0 0 -2.659034,1.393058 m -4.98e-4,-7.39e-4 a 16.637439,27.97026 82.23752 0 0 -3.442069,0.88851 m -3.11e-4,-5.36e-4 a 7.9566821,9.4065965 89.99996 0 0 -8e-6,2.215363 m 3.442226,-0.122755 a 27.970276,12.932812 7.033451 0 0 -3.441805,0.123718 m 6.101562,0.940738 a 27.920728,10.814618 30.545025 0 0 -2.659036,-1.063882 m 4.110414,3.476209 a 27.920743,4.7133287 63.000106 0 0 -1.452334,-2.413764 m 1.453158,2.41385 a 27.970264,0.23245124 82.322089 0 0 0.452071,3.417641 m -7.77e-4,-2.25e-4 a 7.9566821,9.4065965 89.99996 0 0 2.619104,0 m -7.77e-4,1.63e-4 a 0.23245124,27.97026 7.677852 0 0 0.452072,-3.417633 m 1.453175,-2.413834 a 4.7133263,27.920729 26.99984 0 0 -1.452327,2.413757" /></svg>
