<?xml version="1.0" encoding="UTF-8" standalone="no"?>
<svg
   xmlns:dc="http://purl.org/dc/elements/1.1/"
   xmlns:cc="http://creativecommons.org/ns#"
   xmlns:rdf="http://www.w3.org/1999/02/22-rdf-syntax-ns#"
   xmlns:svg="http://www.w3.org/2000/svg"
   xmlns="http://www.w3.org/2000/svg"
   xmlns:sodipodi="http://sodipodi.sourceforge.net/DTD/sodipodi-0.dtd"
   xmlns:inkscape="http://www.inkscape.org/namespaces/inkscape"
   inkscape:version="1.0 (4035a4fb49, 2020-05-01)"
   sodipodi:docname="ASMEB18.3.1.4.svg"
   width="48"
   height="48"
   viewBox="0 0 48.000001 48.000001"
   id="svg15825"
   version="1.1">
  <sodipodi:namedview
     inkscape:current-layer="svg15825"
     inkscape:window-maximized="1"
     inkscape:window-y="0"
     inkscape:window-x="0"
     inkscape:cy="24"
     inkscape:cx="24"
     inkscape:zoom="17.5"
     showgrid="false"
     id="namedview1023"
     inkscape:window-height="1027"
     inkscape:window-width="1920"
     inkscape:pageshadow="2"
     inkscape:pageopacity="0"
     guidetolerance="10"
     gridtolerance="10"
     objecttolerance="10"
     borderopacity="1"
     bordercolor="#666666"
     pagecolor="#ffffff" />
  <defs
     id="defs15827" />
  <metadata
     id="metadata15830">
    <rdf:RDF>
      <cc:Work
         rdf:about="">
        <dc:format>image/svg+xml</dc:format>
        <dc:type
           rdf:resource="http://purl.org/dc/dcmitype/StillImage" />
        <dc:title></dc:title>
      </cc:Work>
    </rdf:RDF>
  </metadata>
  <path
     d="M 37.347623,14.8447 A 13.221221,10.972714 0 0 1 24.152996,25.8174 13.221221,10.972714 0 0 1 10.905288,14.8889 13.221221,10.972714 0 0 1 24.046619,3.8722 13.221221,10.972714 0 0 1 37.347195,14.7564"
     id="path15479"
     style="fill:#5fd3c2;fill-opacity:0.94117647;fill-rule:evenodd;stroke:none;stroke-width:3.09124;stroke-linecap:round;stroke-linejoin:round;stroke-miterlimit:4;stroke-dasharray:none;stroke-dashoffset:0;stroke-opacity:1" />
  <path
     id="path15481"
     d="m 10.838882,18.2674 c -0.313521,1.5399 -0.04479,1.3842 -0.06175,2.9519 0.116878,2.4776 2.223834,4.6614 4.001515,6.3155 2.846881,2.5732 5.821335,3.292 9.645559,3.137 4.050032,-0.1608 7.351081,-0.5929 9.69217,-3.9921 1.016436,-1.4469 2.507415,-2.1041 2.570561,-3.8692 0.08,-0.9555 0.199356,-1.9124 0.199504,-2.8715 -0.154714,-0.5493 -0.829232,-0.3572 -0.994966,0.074 -2.035759,3.2419 -5.689644,5.2415 -9.433754,5.72 -2.692123,0.2832 -5.507658,0.025 -8.041009,-1.0595 -2.44112,-0.9829 -4.595642,-2.7035 -6.032505,-4.9125 -0.375209,-0.5299 -0.539145,-1.2106 -1.012353,-1.658 -0.232333,-0.048 -0.366293,0 -0.532968,0.164 z"
     style="fill:#5fd3c2;fill-opacity:0.94117647;fill-rule:evenodd;stroke:none;stroke-width:0.872417;stroke-linecap:round;stroke-linejoin:round;stroke-miterlimit:4;stroke-dasharray:none;stroke-dashoffset:0;stroke-opacity:1" />
  <path
     id="path15483"
     d="m 15.417348,28.7721 c -0.180878,0.9038 -0.003,4.3491 0.206996,5.253 0.731374,2.6737 3.353913,4.3829 5.954676,4.9078 2.935772,0.5506 6.318029,-0.4014 8.119745,-2.8872 0.80949,-1.1391 1.260698,-5.4249 1.092539,-6.8004 -0.474499,-0.4855 -2.302615,0.8496 -2.838062,0.9471 -3.019558,1.0627 -4.908207,0.811 -7.997123,-0.037 -1.292513,-0.3407 -2.872951,-0.9722 -4.085114,-1.5203 -0.191617,-0.077 -0.302624,0.038 -0.453657,0.1375 z"
     style="fill:#5fd3c2;fill-opacity:0.94117647;fill-rule:evenodd;stroke:none;stroke-width:0.872417;stroke-linecap:round;stroke-linejoin:round;stroke-miterlimit:4;stroke-dasharray:none;stroke-dashoffset:0;stroke-opacity:1" />
  <g
     transform="matrix(0.87241735,0,0,0.87241735,-31.843552,-875.23177)"
     id="g3946">
    <path
       style="fill:none;stroke:#000000;stroke-width:1;stroke-linecap:round;stroke-linejoin:round;stroke-miterlimit:4;stroke-dasharray:none"
       d="m 72.888456,1030.638 a 15.059055,12.487393 3.5595994 0 0 6.246319,-9.3814"
       id="path10758" />
    <path
       style="fill:none;stroke:#000000;stroke-width:1;stroke-linecap:round;stroke-linejoin:round;stroke-miterlimit:4;stroke-dasharray:none"
       d="m 49.074811,1019.3864 a 15.059055,12.487393 3.5595994 0 0 23.813645,11.2516"
       id="path10760" />
    <path
       style="fill:none;stroke:#000000;stroke-width:1;stroke-linecap:round;stroke-linejoin:round;stroke-miterlimit:4;stroke-dasharray:none"
       id="92"
       d="m 54.112153,1035.5362 0.01063,4.6359" />
    <path
       style="fill:none;stroke:#000000;stroke-width:1;stroke-linecap:round;stroke-linejoin:round;stroke-miterlimit:4;stroke-dasharray:none"
       id="93"
       d="m 71.794602,1036.7481 0.01063,4.5238" />
    <path
       style="fill:none;stroke:#000000;stroke-width:1;stroke-linecap:round;stroke-linejoin:round;stroke-miterlimit:4;stroke-dasharray:none"
       d="m 79.134775,1021.2566 c 0.09992,-1.7394 -0.17185,-3.5021 -1.017,-5.3728 -0.460594,-1.009 -1.098318,-2.0434 -2.033645,-3.1121 -0.941776,-1.0643 -2.181331,-2.1631 -4.015807,-3.1763 -0.801107,-0.4344 -1.834229,-0.9078 -3.014044,-1.2761 -1.178645,-0.3718 -2.503204,-0.6386 -3.861141,-0.742 -1.356556,-0.1067 -2.745993,-0.05 -4.028067,0.1424 -1.2808,0.1896 -2.453776,0.515 -3.351863,0.8637 -2.077972,0.7881 -3.50472,1.7546 -4.608248,2.7162 -1.096759,0.9683 -1.870476,1.9313 -2.460118,2.89 -1.072063,1.758 -1.553882,3.469 -1.670031,5.1968"
       id="path9442" />
    <path
       style="fill:none;stroke:#000000;stroke-width:1;stroke-linecap:round;stroke-linejoin:round;stroke-miterlimit:4;stroke-dasharray:none"
       id="95"
       d="m 49.074811,1019.3864 -0.346192,5.5591" />
    <path
       style="fill:none;stroke:#000000;stroke-width:1;stroke-linecap:round;stroke-linejoin:round;stroke-miterlimit:4;stroke-dasharray:none"
       id="96"
       d="m 79.134775,1021.2566 -0.346049,5.5587" />
    <path
       style="fill:none;stroke:#000000;stroke-width:1;stroke-linecap:round;stroke-linejoin:round;stroke-miterlimit:4;stroke-dasharray:none"
       d="m 68.132453,1046.7903 c 2.18374,-1.2608 3.535582,-3.2912 3.67409,-5.5184"
       id="path10555" />
    <path
       style="fill:none;stroke:#000000;stroke-width:1;stroke-linecap:round;stroke-linejoin:round;stroke-miterlimit:4;stroke-dasharray:none"
       d="m 54.124094,1040.1721 c -0.382393,6.1475 7.980626,10.0986 14.008359,6.6182"
       id="path10557" />
    <path
       style="fill:none;stroke:#000000;stroke-width:1;stroke-linecap:round;stroke-linejoin:round;stroke-miterlimit:4;stroke-dasharray:none"
       d="m 72.542407,1036.1967 a 15.059055,12.487393 3.5595994 0 0 6.246319,-9.3814"
       id="path10592" />
    <path
       style="fill:none;stroke:#000000;stroke-width:1;stroke-linecap:round;stroke-linejoin:round;stroke-miterlimit:4;stroke-dasharray:none"
       d="m 48.728619,1024.9455 a 15.059055,12.487393 3.5595994 0 0 23.813788,11.2512"
       id="path10598" />
    <g
       id="g3911"
       transform="matrix(0.78422863,0,0,0.78172555,13.717869,222.09835)"
       style="stroke-width:1.27718">
      <g
         id="g3890"
         style="stroke-width:1.27718">
        <path
           style="fill:none;stroke:#000000;stroke-width:1.27718;stroke-linecap:round;stroke-linejoin:round;stroke-miterlimit:4;stroke-dasharray:none"
           d="m 67.581149,1013.1181 a 8.3056536,6.887303 3.5595994 0 0 -8.259626,0.5254"
           id="path10571" />
      </g>
      <g
         id="g3887"
         style="stroke-width:1.27718">
        <path
           style="fill:none;stroke:#000000;stroke-width:1.27718;stroke-linecap:round;stroke-linejoin:round;stroke-miterlimit:4;stroke-dasharray:none"
           d="m 69.010909,1025.0232 a 8.3056536,6.887303 3.5595994 0 0 3.41465,-6.2151"
           id="path10561" />
        <path
           style="fill:none;stroke:#000000;stroke-width:1.27718;stroke-linecap:round;stroke-linejoin:round;stroke-miterlimit:4;stroke-dasharray:none"
           d="m 72.425559,1018.8081 -0.273189,0.6463 -0.262914,0.6026 -0.2537,0.5626 -0.246614,0.5262 -0.240237,0.493 -0.235984,0.4623 -0.23315,0.4353 -0.231732,0.4103 -0.231732,0.3882 -0.232795,0.3688 -0.235276,0.3507 -0.239882,0.3357 -0.245197,0.322 -0.252283,0.3111"
           id="path10563" />
        <path
           style="fill:none;stroke:#000000;stroke-width:1.27718;stroke-linecap:round;stroke-linejoin:round;stroke-miterlimit:4;stroke-dasharray:none"
           d="m 60.75139,1025.5481 a 8.3056536,6.887303 3.5595994 0 0 8.259519,-0.5249"
           id="path10565" />
        <path
           style="fill:none;stroke:#000000;stroke-width:1.27718;stroke-linecap:round;stroke-linejoin:round;stroke-miterlimit:4;stroke-dasharray:none"
           d="m 72.425559,1018.8081 a 8.3056536,6.887303 3.5595994 0 0 -4.84441,-5.69"
           id="path10567" />
        <path
           style="fill:none;stroke:#000000;stroke-width:1.27718;stroke-linecap:round;stroke-linejoin:round;stroke-miterlimit:4;stroke-dasharray:none"
           d="m 55.906697,1019.8583 a 8.3056536,6.887303 3.5595994 0 0 4.844693,5.6898"
           id="path10569" />
        <path
           style="fill:none;stroke:#000000;stroke-width:1.27718;stroke-linecap:round;stroke-linejoin:round;stroke-miterlimit:4;stroke-dasharray:none"
           d="m 59.321523,1013.6435 a 8.3056536,6.887303 3.5595994 0 0 -3.414826,6.2148"
           id="path10573" />
        <path
           style="fill:none;stroke:#000000;stroke-width:1.27718;stroke-linecap:round;stroke-linejoin:round;stroke-miterlimit:4;stroke-dasharray:none"
           d="m 69.010909,1025.0232 -0.646653,0.208 -0.623091,0.1793 -0.603992,0.1515 -0.588295,0.1249 -0.576213,0.098 -0.567744,0.073 -0.562535,0.048 -0.561048,0.023 h -0.562819 l -0.568629,-0.026 -0.577382,-0.051 -0.589819,-0.076 -0.605799,-0.1011 -0.6255,-0.1274"
           id="path10575" />
        <path
           style="fill:none;stroke:#000000;stroke-width:1.27718;stroke-linecap:round;stroke-linejoin:round;stroke-miterlimit:4;stroke-dasharray:none"
           d="m 67.581149,1013.1181 0.362622,0.606 0.351851,0.5636 0.342992,0.5245 0.33626,0.4891 0.331653,0.4567 0.329174,0.4264 0.328818,0.3997 0.330591,0.3746 0.33378,0.3523 0.339448,0.3319 0.347599,0.3141 0.357094,0.2975 0.369248,0.2831 0.38328,0.2705"
           id="path10577" />
        <path
           style="fill:none;stroke:#000000;stroke-width:1.27718;stroke-linecap:round;stroke-linejoin:round;stroke-miterlimit:4;stroke-dasharray:none"
           d="m 60.75139,1025.5481 -0.383563,-0.2703 -0.369249,-0.2831 -0.357094,-0.2975 -0.347598,-0.3141 -0.339449,-0.3319 -0.33378,-0.3522 -0.33059,-0.3747 -0.328819,-0.3996 -0.328819,-0.4267 -0.332008,-0.4565 -0.33626,-0.489 -0.342992,-0.5246 -0.35185,-0.5635 -0.362587,-0.6061"
           id="path10579" />
        <path
           style="fill:none;stroke:#000000;stroke-width:1.27718;stroke-linecap:round;stroke-linejoin:round;stroke-miterlimit:4;stroke-dasharray:none"
           d="m 59.321523,1013.6435 0.625784,0.1272 0.605834,0.1011 0.589819,0.076 0.577382,0.05 0.568134,0.026 h 0.56328 l 0.56087,-0.023 0.562748,-0.048 0.567744,-0.073 0.576035,-0.099 0.588473,-0.1246 0.603673,-0.1513 0.623409,-0.1795 0.646441,-0.2084"
           id="path10581" />
        <path
           style="fill:none;stroke:#000000;stroke-width:1.27718;stroke-linecap:round;stroke-linejoin:round;stroke-miterlimit:4;stroke-dasharray:none"
           d="m 55.906697,1019.8583 0.252637,-0.3107 0.245197,-0.3221 0.239882,-0.3357 0.235276,-0.3509 0.232795,-0.3685 0.231732,-0.3882 0.231378,-0.4106 0.23315,-0.435 0.23563,-0.4626 0.24059,-0.4928 0.246614,-0.5261 0.253701,-0.5626 0.262914,-0.6026 0.273189,-0.6464"
           id="path10583" />
        <path
           style="fill:none;stroke:#000000;stroke-width:1.27718;stroke-linecap:round;stroke-linejoin:round;stroke-miterlimit:4;stroke-dasharray:none"
           id="610"
           d="m 67.581149,1013.1181 -0.307204,4.9415" />
        <path
           style="fill:none;stroke:#000000;stroke-width:1.27718;stroke-linecap:round;stroke-linejoin:round;stroke-miterlimit:4;stroke-dasharray:none"
           d="m 67.273909,1018.0596 0.267874,0.3923 0.261851,0.3755 0.256181,0.3602 0.25122,0.3456 0.247323,0.3326 0.244488,0.3205 0.241654,0.3093 0.240236,0.2994 0.239173,0.2903 0.239173,0.282 0.240237,0.275 0.242008,0.2687 0.244133,0.2633 0.246969,0.2587"
           id="path10586" />
        <path
           style="fill:none;stroke:#000000;stroke-width:1.27718;stroke-linecap:round;stroke-linejoin:round;stroke-miterlimit:4;stroke-dasharray:none"
           d="m 57.294327,1022.0329 0.115511,-0.2119 0.115866,-0.2158 0.116575,-0.2204 0.116929,-0.2246 0.118347,-0.2295 0.119409,-0.2347 0.120827,-0.2403 0.12189,-0.2464 0.123661,-0.2527 0.125788,-0.2591 0.127559,-0.2664 0.130039,-0.2739 0.13252,-0.2823 0.135,-0.2898"
           id="path10588" />
        <path
           style="fill:none;stroke:#000000;stroke-width:1.27718;stroke-linecap:round;stroke-linejoin:round;stroke-miterlimit:4;stroke-dasharray:none"
           d="m 59.014248,1018.585 0.630283,0.056 0.609236,0.042 0.592831,0.028 0.579756,0.014 0.570012,-6e-4 0.56413,-0.014 0.561189,-0.029 0.562429,-0.043 0.56661,-0.058 0.574441,-0.072 0.586063,-0.088 0.601016,-0.1035 0.61937,-0.1199 0.642295,-0.1376"
           id="path10590" />
        <path
           style="fill:none;stroke:#000000;stroke-width:1.27718;stroke-linecap:round;stroke-linejoin:round;stroke-miterlimit:4;stroke-dasharray:none"
           id="618"
           d="m 59.321523,1013.6435 -0.307204,4.9415" />
      </g>
    </g>
    <g
       style="fill:none;stroke:#000000;stroke-width:0.282222;stroke-linecap:round;stroke-linejoin:round;stroke-miterlimit:4;stroke-dasharray:none"
       transform="matrix(3.5364712,0.21999252,0.21999253,-3.5364711,-244.46436,1063.3496)"
       id="g10754">
      <ellipse
         cx="86.163101"
         cy="17.806299"
         rx="3.75"
         ry="3.1096001"
         id="ellipse10756"
         style="stroke-width:0.282222;stroke-linecap:round;stroke-linejoin:round;stroke-miterlimit:4;stroke-dasharray:none" />
    </g>
  </g>
  <path
     id="path849"
     d="m 16.546812,36.0443 c -0.04796,2.0887 -0.03587,2.1966 -0.02355,4.487 0.04956,2.5987 2.426981,3.8974 6.192546,4.1273 3.817769,0.01 6.48988,-1.1814 6.540738,-3.5529 0.03656,-1.9938 0.159927,-4.6527 0.159927,-4.6527"
     style="fill:none;fill-opacity:0.941176;stroke:#000000;stroke-width:1px;stroke-linecap:butt;stroke-linejoin:miter;stroke-opacity:1" />
  <path
     id="path851"
     d="m 22.351306,44.115228 c -0.09723,-0.0085 -0.47217,-0.05672 -0.833207,-0.107245 -2.468534,-0.345453 -3.937292,-1.251181 -4.363715,-2.690941 -0.09305,-0.314181 -0.09917,-0.429029 -0.117405,-2.203577 l -0.01924,-1.872121 0.368685,0.300555 c 3.03994,2.478185 7.679965,2.734529 10.842705,0.599017 0.218761,-0.147709 0.442494,-0.301372 0.497184,-0.341473 0.09906,-0.07264 0.09944,-0.07219 0.09984,0.120306 0.0015,0.727249 -0.09865,3.297691 -0.1381,3.544168 -0.170551,1.06559 -1.185404,1.900054 -2.824818,2.322706 -1.029383,0.265383 -2.575738,0.410072 -3.51193,0.328605 z"
     style="opacity:0.99;fill:#5fd3c2;fill-opacity:0.94117647;stroke:#000000;stroke-width:0.0501099;stroke-miterlimit:4;stroke-dasharray:none;stroke-opacity:1" />
</svg>
