<?xml version="1.0" encoding="UTF-8" standalone="no"?>
<!-- Created with Inkscape (http://www.inkscape.org/) -->

<svg
   width="48"
   height="48"
   viewBox="0 0 48 48"
   version="1.1"
   id="svg23520"
   xml:space="preserve"
   xmlns="http://www.w3.org/2000/svg"
   xmlns:svg="http://www.w3.org/2000/svg"><defs
     id="defs23517"><marker
       id="DistanceX"
       orient="auto"
       refX="0"
       refY="0"
       style="overflow:visible"><path
         d="M 3,-3 -3,3 M 0,-5 V 5"
         style="stroke:#000000;stroke-width:0.5"
         id="path24006" /></marker><pattern
       id="Hatch"
       patternUnits="userSpaceOnUse"
       width="8"
       height="8"
       x="0"
       y="0"><path
         d="M8 4 l-4,4"
         stroke="#000000"
         stroke-width="0.25"
         linecap="square"
         id="path24009" /><path
         d="M6 2 l-4,4"
         stroke="#000000"
         stroke-width="0.25"
         linecap="square"
         id="path24011" /><path
         d="M4 0 l-4,4"
         stroke="#000000"
         stroke-width="0.25"
         linecap="square"
         id="path24013" /></pattern><symbol
       id="*MODEL_SPACE" /><symbol
       id="*PAPER_SPACE" /><marker
       id="DistanceX-1"
       orient="auto"
       refX="0.0"
       refY="0.0"
       style="overflow:visible"><path
         d="M 3,-3 L -3,3 M 0,-5 L  0,5"
         style="stroke:#000000; stroke-width:0.5"
         id="path30866" /></marker><pattern
       id="Hatch-9"
       patternUnits="userSpaceOnUse"
       width="8"
       height="8"
       x="0"
       y="0"><path
         d="M8 4 l-4,4"
         stroke="#000000"
         stroke-width="0.25"
         linecap="square"
         id="path30869" /><path
         d="M6 2 l-4,4"
         stroke="#000000"
         stroke-width="0.25"
         linecap="square"
         id="path30871" /><path
         d="M4 0 l-4,4"
         stroke="#000000"
         stroke-width="0.25"
         linecap="square"
         id="path30873" /></pattern><symbol
       id="*MODEL_SPACE-5" /><symbol
       id="*PAPER_SPACE-0" /><marker
       id="DistanceX-5"
       orient="auto"
       refX="0.0"
       refY="0.0"
       style="overflow:visible"><path
         d="M 3,-3 L -3,3 M 0,-5 L  0,5"
         style="stroke:#000000; stroke-width:0.5"
         id="path31863" /></marker><pattern
       id="Hatch-96"
       patternUnits="userSpaceOnUse"
       width="8"
       height="8"
       x="0"
       y="0"><path
         d="M8 4 l-4,4"
         stroke="#000000"
         stroke-width="0.25"
         linecap="square"
         id="path31866" /><path
         d="M6 2 l-4,4"
         stroke="#000000"
         stroke-width="0.25"
         linecap="square"
         id="path31868" /><path
         d="M4 0 l-4,4"
         stroke="#000000"
         stroke-width="0.25"
         linecap="square"
         id="path31870" /></pattern><symbol
       id="*MODEL_SPACE-8" /><symbol
       id="*PAPER_SPACE-8" /><marker
       id="DistanceX-0"
       orient="auto"
       refX="0.0"
       refY="0.0"
       style="overflow:visible"><path
         d="M 3,-3 L -3,3 M 0,-5 L  0,5"
         style="stroke:#000000; stroke-width:0.5"
         id="path34371" /></marker><pattern
       id="Hatch-8"
       patternUnits="userSpaceOnUse"
       width="8"
       height="8"
       x="0"
       y="0"><path
         d="M8 4 l-4,4"
         stroke="#000000"
         stroke-width="0.25"
         linecap="square"
         id="path34374" /><path
         d="M6 2 l-4,4"
         stroke="#000000"
         stroke-width="0.25"
         linecap="square"
         id="path34376" /><path
         d="M4 0 l-4,4"
         stroke="#000000"
         stroke-width="0.25"
         linecap="square"
         id="path34378" /></pattern><symbol
       id="*MODEL_SPACE-0" /><symbol
       id="*PAPER_SPACE-4" /><marker
       id="DistanceX-58"
       orient="auto"
       refX="0.0"
       refY="0.0"
       style="overflow:visible"><path
         d="M 3,-3 L -3,3 M 0,-5 L  0,5"
         style="stroke:#000000; stroke-width:0.5"
         id="path36936" /></marker><pattern
       id="Hatch-2"
       patternUnits="userSpaceOnUse"
       width="8"
       height="8"
       x="0"
       y="0"><path
         d="M8 4 l-4,4"
         stroke="#000000"
         stroke-width="0.25"
         linecap="square"
         id="path36939" /><path
         d="M6 2 l-4,4"
         stroke="#000000"
         stroke-width="0.25"
         linecap="square"
         id="path36941" /><path
         d="M4 0 l-4,4"
         stroke="#000000"
         stroke-width="0.25"
         linecap="square"
         id="path36943" /></pattern><symbol
       id="*MODEL_SPACE-1" /><symbol
       id="*PAPER_SPACE-3" /><marker
       id="DistanceX-8"
       orient="auto"
       refX="0.0"
       refY="0.0"
       style="overflow:visible"><path
         d="M 3,-3 L -3,3 M 0,-5 L  0,5"
         style="stroke:#000000; stroke-width:0.5"
         id="path40457" /></marker><pattern
       id="Hatch-3"
       patternUnits="userSpaceOnUse"
       width="8"
       height="8"
       x="0"
       y="0"><path
         d="M8 4 l-4,4"
         stroke="#000000"
         stroke-width="0.25"
         linecap="square"
         id="path40460" /><path
         d="M6 2 l-4,4"
         stroke="#000000"
         stroke-width="0.25"
         linecap="square"
         id="path40462" /><path
         d="M4 0 l-4,4"
         stroke="#000000"
         stroke-width="0.25"
         linecap="square"
         id="path40464" /></pattern><symbol
       id="*MODEL_SPACE-4" /><symbol
       id="*PAPER_SPACE-04" /><marker
       id="DistanceX-3"
       orient="auto"
       refX="0.0"
       refY="0.0"
       style="overflow:visible"><path
         d="M 3,-3 L -3,3 M 0,-5 L  0,5"
         style="stroke:#000000; stroke-width:0.5"
         id="path44192" /></marker><pattern
       id="Hatch-31"
       patternUnits="userSpaceOnUse"
       width="8"
       height="8"
       x="0"
       y="0"><path
         d="M8 4 l-4,4"
         stroke="#000000"
         stroke-width="0.25"
         linecap="square"
         id="path44195" /><path
         d="M6 2 l-4,4"
         stroke="#000000"
         stroke-width="0.25"
         linecap="square"
         id="path44197" /><path
         d="M4 0 l-4,4"
         stroke="#000000"
         stroke-width="0.25"
         linecap="square"
         id="path44199" /></pattern><symbol
       id="*MODEL_SPACE-50" /><symbol
       id="*PAPER_SPACE-6" /><marker
       id="DistanceX-6"
       orient="auto"
       refX="0.0"
       refY="0.0"
       style="overflow:visible"><path
         d="M 3,-3 L -3,3 M 0,-5 L  0,5"
         style="stroke:#000000; stroke-width:0.5"
         id="path47163" /></marker><pattern
       id="Hatch-82"
       patternUnits="userSpaceOnUse"
       width="8"
       height="8"
       x="0"
       y="0"><path
         d="M8 4 l-4,4"
         stroke="#000000"
         stroke-width="0.25"
         linecap="square"
         id="path47166" /><path
         d="M6 2 l-4,4"
         stroke="#000000"
         stroke-width="0.25"
         linecap="square"
         id="path47168" /><path
         d="M4 0 l-4,4"
         stroke="#000000"
         stroke-width="0.25"
         linecap="square"
         id="path47170" /></pattern><symbol
       id="*MODEL_SPACE-41" /><symbol
       id="*PAPER_SPACE-46" /></defs><path
     id="path47265"
     style="fill:#5fd3c2;fill-opacity:1;stroke:none;stroke-width:1.25987;stroke-dasharray:none"
     d="m 13.609685,34.014331 0,2.548983 c -1.4e-5,7.829509 11.191088,11.750492 17.736147,6.214228 1.94841,-1.648098 3.043013,-3.883392 3.043011,-6.214224 l 0,-2.548987 M 41.193118,11.952328 C 33.111037,-0.49736216 14.88758,-0.49739448 6.8054554,11.952267 m -4.33e-5,0.0017 c -4.6995173,7.239209 -2.3891818,16.299867 5.4202099,21.256978 7.809391,4.95711 18.739986,4.301301 25.643981,-1.538578 6.16741,-5.216815 7.521665,-13.251613 3.323524,-19.718443" /><path
     id="path47886"
     style="display:inline;fill:none;stroke:#000000;stroke-width:1.25987;stroke-dasharray:none"
     d="M 34.388843,34.014331 V 36.56324 M 13.609685,34.014331 V 36.56324 M 41.193118,11.952328 a 20.499179,20.499179 0 0 0 -34.3876626,-6.1e-5 m 6.8042296,24.611121 a 8.7881501,10.389578 89.999959 0 0 17.736147,6.214154 m 0,0 a 8.7881501,10.389578 89.999959 0 0 3.043011,-6.214145 M 33.541313,12.2796 q -1.089676,1.20094 -1.956842,2.153179 m -4.182005,1.164949 q -0.317418,-0.09163 -0.615192,-0.1898 m 3.651798,-4.198723 -0.392207,3.27618 m -3.259591,0.922543 C 26.3586,14.616034 25.897208,13.653976 25.272196,12.233789 M 27.491029,9.5503352 26.787135,15.408326 M 25.858133,7.3347576 25.271987,12.233443 m -0.0194,-0.281072 c 0.03931,-1.734325 0.08835,-3.8482305 0.1538,-6.5577029 m -0.153766,6.5561869 a 5.2728897,6.2337474 89.999959 0 0 -2.50665,0 M 22.592204,5.3946681 c 0.06545,2.7094724 0.114537,4.8233779 0.1538,6.5577029 m -0.01966,0.281418 c -0.62501,1.420187 -1.086403,2.382245 -1.515077,3.174139 m 0.92914,-8.0731704 0.586146,4.8986854 m -1.515286,3.174485 q -0.297774,0.09818 -0.615193,0.1898 m -0.08856,-6.0473928 0.703893,5.8579908 m -3.651936,-4.199121 0.392207,3.27618 m -1.537614,-0.05265 q -0.867158,-0.95224 -1.956834,-2.15318 m 7.68318,5.952094 0.497835,3.311679 m 3.219903,-3.311679 -0.497834,3.311679 M 6.8054121,11.953938 a 16.592027,19.615525 89.999959 0 0 31.0641909,19.7184 m 0,0 a 16.592027,19.615525 89.999959 0 0 3.323524,-19.718443 m -10.75274,2.400866 a 7.8659372,20.307944 59.454911 0 0 -2.95018,1.100283 m 6.051089,-0.800447 a 9.4567073,20.472519 82.711388 0 0 -3.100892,-0.300554 m 3.10071,0.302294 a 8.158171,9.644802 89.999959 0 0 9e-6,-2.377811 m 2.34e-4,-8.57e-4 a 20.472509,12.176844 8.04619 0 0 -3.100892,-1.068628 m -1.12e-4,6.99e-4 A 20.307952,11.160356 34.11275 0 0 27.490172,9.5505343 m 8.66e-4,5.801e-4 A 20.307971,6.722629 68.54315 0 0 25.859857,7.3351298 m -0.0026,-0.00173 A 20.472517,2.5888112 86.920845 0 0 25.403243,5.3950664 m 8.66e-4,0.00173 a 8.158171,9.644802 89.999959 0 0 -2.811057,1.72e-5 m 0.0017,-0.00173 A 2.5888112,20.472516 3.079072 0 0 22.14073,7.3334155 m -0.0026,0.00173 a 6.7226248,20.307958 21.45676 0 0 -1.631181,2.2159933 m 8.66e-4,-6.062e-4 a 11.160367,20.307971 55.88718 0 0 -2.950182,1.6592144 m -1.22e-4,-7e-4 a 12.176847,20.472513 81.95373 0 0 -3.100882,1.068637 m 2.95e-4,8.23e-4 a 8.158171,9.644802 89.999959 0 0 -9e-6,2.377768 m 3.100553,-0.302225 a 20.472516,9.4567056 7.28854 0 0 -3.1007,0.300545 m 6.05109,0.800438 a 20.307973,7.8659485 30.545042 0 0 -2.950191,-1.100282 m 4.580506,3.874673 A 20.307948,3.4282052 63.000056 0 0 20.50746,15.454557 m 1.633518,2.775629 a 20.472524,0.1313364 82.121436 0 0 0.45399,3.307332 m -8.66e-4,8.65e-4 a 8.158171,9.644802 89.999959 0 0 2.811057,-8e-6 m -8.66e-4,-8.65e-4 a 0.1313364,20.47252 7.878482 0 0 0.453982,-3.307324 m 1.633518,-2.775637 a 3.4282078,20.307963 26.99982 0 0 -1.631172,2.77491" /></svg>
