<?xml version="1.0" encoding="UTF-8" standalone="no"?>
<!-- Created with Inkscape (http://www.inkscape.org/) -->

<svg
   width="48"
   height="48"
   viewBox="0 0 48 48"
   version="1.1"
   id="svg23520"
   xml:space="preserve"
   xmlns="http://www.w3.org/2000/svg"
   xmlns:svg="http://www.w3.org/2000/svg"><defs
     id="defs23517"><marker
       id="DistanceX"
       orient="auto"
       refX="0"
       refY="0"
       style="overflow:visible"><path
         d="M 3,-3 -3,3 M 0,-5 V 5"
         style="stroke:#000000;stroke-width:0.5"
         id="path24006" /></marker><pattern
       id="Hatch"
       patternUnits="userSpaceOnUse"
       width="8"
       height="8"
       x="0"
       y="0"><path
         d="M8 4 l-4,4"
         stroke="#000000"
         stroke-width="0.25"
         linecap="square"
         id="path24009" /><path
         d="M6 2 l-4,4"
         stroke="#000000"
         stroke-width="0.25"
         linecap="square"
         id="path24011" /><path
         d="M4 0 l-4,4"
         stroke="#000000"
         stroke-width="0.25"
         linecap="square"
         id="path24013" /></pattern><symbol
       id="*MODEL_SPACE" /><symbol
       id="*PAPER_SPACE" /><marker
       id="DistanceX-1"
       orient="auto"
       refX="0.0"
       refY="0.0"
       style="overflow:visible"><path
         d="M 3,-3 L -3,3 M 0,-5 L  0,5"
         style="stroke:#000000; stroke-width:0.5"
         id="path30866" /></marker><pattern
       id="Hatch-9"
       patternUnits="userSpaceOnUse"
       width="8"
       height="8"
       x="0"
       y="0"><path
         d="M8 4 l-4,4"
         stroke="#000000"
         stroke-width="0.25"
         linecap="square"
         id="path30869" /><path
         d="M6 2 l-4,4"
         stroke="#000000"
         stroke-width="0.25"
         linecap="square"
         id="path30871" /><path
         d="M4 0 l-4,4"
         stroke="#000000"
         stroke-width="0.25"
         linecap="square"
         id="path30873" /></pattern><symbol
       id="*MODEL_SPACE-5" /><symbol
       id="*PAPER_SPACE-0" /><marker
       id="DistanceX-5"
       orient="auto"
       refX="0.0"
       refY="0.0"
       style="overflow:visible"><path
         d="M 3,-3 L -3,3 M 0,-5 L  0,5"
         style="stroke:#000000; stroke-width:0.5"
         id="path31863" /></marker><pattern
       id="Hatch-96"
       patternUnits="userSpaceOnUse"
       width="8"
       height="8"
       x="0"
       y="0"><path
         d="M8 4 l-4,4"
         stroke="#000000"
         stroke-width="0.25"
         linecap="square"
         id="path31866" /><path
         d="M6 2 l-4,4"
         stroke="#000000"
         stroke-width="0.25"
         linecap="square"
         id="path31868" /><path
         d="M4 0 l-4,4"
         stroke="#000000"
         stroke-width="0.25"
         linecap="square"
         id="path31870" /></pattern><symbol
       id="*MODEL_SPACE-8" /><symbol
       id="*PAPER_SPACE-8" /><marker
       id="DistanceX-0"
       orient="auto"
       refX="0.0"
       refY="0.0"
       style="overflow:visible"><path
         d="M 3,-3 L -3,3 M 0,-5 L  0,5"
         style="stroke:#000000; stroke-width:0.5"
         id="path34371" /></marker><pattern
       id="Hatch-8"
       patternUnits="userSpaceOnUse"
       width="8"
       height="8"
       x="0"
       y="0"><path
         d="M8 4 l-4,4"
         stroke="#000000"
         stroke-width="0.25"
         linecap="square"
         id="path34374" /><path
         d="M6 2 l-4,4"
         stroke="#000000"
         stroke-width="0.25"
         linecap="square"
         id="path34376" /><path
         d="M4 0 l-4,4"
         stroke="#000000"
         stroke-width="0.25"
         linecap="square"
         id="path34378" /></pattern><symbol
       id="*MODEL_SPACE-0" /><symbol
       id="*PAPER_SPACE-4" /></defs><path
     id="path34415"
     style="fill:#5fd3c2;fill-opacity:1;stroke:none;stroke-width:1.25962;stroke-dasharray:none"
     d="m 45.370192,21.294302 v 0.672093 M 2.6298078,21.294302 v 0.672093 M 14.825463,38.293116 c 1.341016,6.262377 10.447243,8.671281 15.767495,4.171041 1.342523,-1.135598 2.243192,-2.590814 2.581579,-4.171072 M 2.6298078,21.966387 C 2.6297866,38.070643 25.648609,46.135658 39.111058,34.748199 43.11872,31.358247 45.370196,26.7605 45.370192,21.966403 M 2.6298078,21.293899 c -2.23e-5,16.104256 23.0188012,24.169273 36.4812502,12.781813 4.007662,-3.389953 6.259139,-7.987701 6.259134,-12.781798 m 0,0 C 45.37019,11.310673 35.802427,3.2176813 23.999996,3.2176803 12.197565,3.2176792 2.6298056,11.310669 2.6298078,21.293899" /><path
     id="path34912"
     style="display:inline;fill:none;stroke:#000000;stroke-width:1.25962;stroke-dasharray:none"
     d="m 45.370192,21.294302 v 0.672093 M 2.6298078,21.294302 v 0.672093 M 14.825463,38.293116 a 7.8866639,9.3238187 89.999959 0 0 15.767495,4.171041 m 0,0 a 7.8866639,9.3238187 89.999959 0 0 2.581579,-4.171072 M 2.6298078,21.966387 A 18.076233,21.370192 89.999959 0 0 39.111058,34.748199 m 0,0 A 18.076233,21.370192 89.999959 0 0 45.370192,21.966403 M 13.466416,7.2036812 38.489214,28.371081 M 2.6298078,21.293899 A 18.076233,21.370192 89.999959 0 0 39.111058,34.075712 M 45.370192,21.293914 A 18.076234,21.370192 89.999959 0 0 2.6298078,21.293899 M 39.111058,34.075712 a 18.076233,21.370192 89.999959 0 0 6.259134,-12.781798 m -8.702852,8.882344 a 15.153026,17.9143 89.99996 0 0 1.822496,-1.804416 m 0.0016,-6.52e-4 A 27.831232,10.497161 49.773351 0 0 13.46748,7.2043961 m -0.0016,6.759e-4 A 15.153026,17.9143 89.99996 0 0 9.5101434,10.551103 M 34.532706,31.718954 A 27.831232,10.497161 49.773351 0 0 9.5087973,10.55216 M 34.534136,31.717842 a 15.153026,17.9143 89.99996 0 0 2.13322,-1.541584" /></svg>
