<?xml version="1.0" encoding="UTF-8"?>
<svg width="48" height="48" version="1.1" viewBox="0 0 48 48" xmlns="http://www.w3.org/2000/svg">
 <g fill="#5fd3c2">
  <path d="m30 1.6c-6.8-0-10.5 0-16.3 1-2.64 4-6.73 12.2-6.73 12.2l-0.38 6.17 6.86 8-0.65 7.78c-0.24 9.75 16.5 10.9 17.7 1.1l0.62-6.75h1.37l6.7-12.2 0.38-6.1c-3.26-4.44-6.32-8.1-9.55-11.2z"/>
 </g>
 <g fill="none" stroke="#000000" stroke-linejoin="round">
  <path d="m9.2 14.4c-1-9.42 9.87-15.6 20.4-11.4 9.76 4.45 10.4 15 2.02 20-8.8 5.08-21.2 0.62-22.4-8.66z"/>
  <path d="m13.4 29-0.69 7.88c0.272 9.76 16.3 10.8 17.7 1.1l0.621-6.74"/>
  <path d="m39.5 12.8c-2.49 3.94-4.69 8.06-6.73 12.2-5.44-0.264-10.9 0.095-16.3 1.03-2.88-3.98-6.02-7.78-9.55-11.2 2.04-4.19 4.23-8.31 6.73-12.2 5.37-0.93 10.8-1.3 16.3-1.03 3.66 3.55 6.92 7.63 9.55 11.2z"/>
  <path d="m39.5 12.8-0.38 6.1-6.73 12.2-16.3 1.1-9.55-11.2 0.38-6.1"/>
  <path d="m32.4 31 0.4-6"/>
  <path d="m16.1 32 0.4-6"/>
  <path d="m13.2 31.2c-0.23 9.57 16.2 11 17.7 1.16"/>
 </g>
</svg>
