<?xml version="1.0" encoding="UTF-8"?>
<svg width="48" height="48" version="1.1" viewBox="0 0 12.7 12.7" xmlns="http://www.w3.org/2000/svg">
 <g fill="#5fd3c2">
  <path d="m1.58 6.83c-0.1 0.95 1.1 1.82 1.84 2.22v1.35c0.06 1.29 1.84 1.7 2.94 1.69 1.17 0 2.94-0.546 2.94-1.69v-1.35c0.9-0.559 1.47-0.842 1.81-1.77l0.05-3.8c-0.06-1.78-2.86-3.06-4.61-3-2.2-0.224-4.95 1.57-4.96 3.02s-6.64e-4 2.19 0 3.33z"/>
 </g>
 <g fill="none" stroke="#000000" stroke-width=".4">
  <path d="m9.3 10.4a2.94 1.69 0 0 1-2.94 1.69 2.94 1.69 0 0 1-2.94-1.69 2.94 1.69 0 0 1 2.94-1.69 2.94 1.69 0 0 1 2.94 1.69z"/>
  <path d="m3.41 10.4v-2.1c0.24-1.2 1.77-1.69 3.17-1.65 1.12-0 2.71 0.657 2.71 1.71v2.03"/>
  <path d="m3.43 9.05c-0.6-0.3-1.85-1.17-1.84-2.22-0.02-1.58 2.55-2.78 4.85-2.73 1.57-0.08 4.77 0.764 4.69 2.9-0.136 1-1 1.65-1.83 2.05"/>
  <path d="m1.58 6.83 0.0015-3.33c0.206-1.59 2.43-3 4.57-3.03 2.03-0.105 4.97 1.15 5.01 3.02l-0.0318 3.51"/>
  <path d="m3.34 1.28c1.66-0.831 4.52-0.856 6.5 0.233"/>
 </g>
</svg>
