<?xml version="1.0" encoding="UTF-8" standalone="no"?>
<!-- Created with Inkscape (http://www.inkscape.org/) -->

<svg
   width="48"
   height="48"
   viewBox="0 0 48 48"
   version="1.1"
   id="svg23520"
   xml:space="preserve"
   xmlns="http://www.w3.org/2000/svg"
   xmlns:svg="http://www.w3.org/2000/svg"><defs
     id="defs23517"><marker
       id="DistanceX"
       orient="auto"
       refX="0"
       refY="0"
       style="overflow:visible"><path
         d="M 3,-3 -3,3 M 0,-5 V 5"
         style="stroke:#000000;stroke-width:0.5"
         id="path24006" /></marker><pattern
       id="Hatch"
       patternUnits="userSpaceOnUse"
       width="8"
       height="8"
       x="0"
       y="0"><path
         d="M8 4 l-4,4"
         stroke="#000000"
         stroke-width="0.25"
         linecap="square"
         id="path24009" /><path
         d="M6 2 l-4,4"
         stroke="#000000"
         stroke-width="0.25"
         linecap="square"
         id="path24011" /><path
         d="M4 0 l-4,4"
         stroke="#000000"
         stroke-width="0.25"
         linecap="square"
         id="path24013" /></pattern><symbol
       id="*MODEL_SPACE" /><symbol
       id="*PAPER_SPACE" /><marker
       id="DistanceX-1"
       orient="auto"
       refX="0.0"
       refY="0.0"
       style="overflow:visible"><path
         d="M 3,-3 L -3,3 M 0,-5 L  0,5"
         style="stroke:#000000; stroke-width:0.5"
         id="path30866" /></marker><pattern
       id="Hatch-9"
       patternUnits="userSpaceOnUse"
       width="8"
       height="8"
       x="0"
       y="0"><path
         d="M8 4 l-4,4"
         stroke="#000000"
         stroke-width="0.25"
         linecap="square"
         id="path30869" /><path
         d="M6 2 l-4,4"
         stroke="#000000"
         stroke-width="0.25"
         linecap="square"
         id="path30871" /><path
         d="M4 0 l-4,4"
         stroke="#000000"
         stroke-width="0.25"
         linecap="square"
         id="path30873" /></pattern><symbol
       id="*MODEL_SPACE-5" /><symbol
       id="*PAPER_SPACE-0" /><marker
       id="DistanceX-5"
       orient="auto"
       refX="0.0"
       refY="0.0"
       style="overflow:visible"><path
         d="M 3,-3 L -3,3 M 0,-5 L  0,5"
         style="stroke:#000000; stroke-width:0.5"
         id="path31863" /></marker><pattern
       id="Hatch-96"
       patternUnits="userSpaceOnUse"
       width="8"
       height="8"
       x="0"
       y="0"><path
         d="M8 4 l-4,4"
         stroke="#000000"
         stroke-width="0.25"
         linecap="square"
         id="path31866" /><path
         d="M6 2 l-4,4"
         stroke="#000000"
         stroke-width="0.25"
         linecap="square"
         id="path31868" /><path
         d="M4 0 l-4,4"
         stroke="#000000"
         stroke-width="0.25"
         linecap="square"
         id="path31870" /></pattern><symbol
       id="*MODEL_SPACE-8" /><symbol
       id="*PAPER_SPACE-8" /><marker
       id="DistanceX-0"
       orient="auto"
       refX="0.0"
       refY="0.0"
       style="overflow:visible"><path
         d="M 3,-3 L -3,3 M 0,-5 L  0,5"
         style="stroke:#000000; stroke-width:0.5"
         id="path34371" /></marker><pattern
       id="Hatch-8"
       patternUnits="userSpaceOnUse"
       width="8"
       height="8"
       x="0"
       y="0"><path
         d="M8 4 l-4,4"
         stroke="#000000"
         stroke-width="0.25"
         linecap="square"
         id="path34374" /><path
         d="M6 2 l-4,4"
         stroke="#000000"
         stroke-width="0.25"
         linecap="square"
         id="path34376" /><path
         d="M4 0 l-4,4"
         stroke="#000000"
         stroke-width="0.25"
         linecap="square"
         id="path34378" /></pattern><symbol
       id="*MODEL_SPACE-0" /><symbol
       id="*PAPER_SPACE-4" /><marker
       id="DistanceX-58"
       orient="auto"
       refX="0.0"
       refY="0.0"
       style="overflow:visible"><path
         d="M 3,-3 L -3,3 M 0,-5 L  0,5"
         style="stroke:#000000; stroke-width:0.5"
         id="path36936" /></marker><pattern
       id="Hatch-2"
       patternUnits="userSpaceOnUse"
       width="8"
       height="8"
       x="0"
       y="0"><path
         d="M8 4 l-4,4"
         stroke="#000000"
         stroke-width="0.25"
         linecap="square"
         id="path36939" /><path
         d="M6 2 l-4,4"
         stroke="#000000"
         stroke-width="0.25"
         linecap="square"
         id="path36941" /><path
         d="M4 0 l-4,4"
         stroke="#000000"
         stroke-width="0.25"
         linecap="square"
         id="path36943" /></pattern><symbol
       id="*MODEL_SPACE-1" /><symbol
       id="*PAPER_SPACE-3" /></defs><path
     id="path37044"
     style="fill:#5fd3c2;fill-opacity:1;stroke:none;stroke-width:1.01203;stroke-dasharray:none"
     d="m 14.361599,35.721486 v 1.602525 c -9e-6,7.263496 10.381959,10.900986 16.453803,5.765005 1.807539,-1.528939 2.823001,-3.602619 2.822999,-5.765001 V 35.718273 M 5.033232,18.967535 v 2.932484 m -0.00161,-3.62e-4 c -2.61e-5,14.294286 20.431692,21.452872 32.381085,11.345258 3.557238,-3.008953 5.555668,-7.089957 5.55486,-11.345069 l -6.06e-4,-2.932484 c 0.0066,-3.06018 -0.998559,-6.108035 -2.841237,-8.679288 C 37.979473,7.2675359 34.697871,4.9118139 30.930541,3.6398499 26.513575,2.1250309 21.45,2.1311029 17.033026,3.6519799 c -2.480177,0.846966 -4.756969,2.155355 -6.626963,3.821971 -0.959294,0.856067 -1.803216,1.794108 -2.531791,2.8141081 -1.842678,2.571252 -2.847505,5.619108 -2.841433,8.679115" /><path
     id="path37597"
     style="display:inline;fill:none;stroke:#000000;stroke-width:1.01203;stroke-dasharray:none"
     d="m 5.031626,18.967157 a 16.044627,18.968374 89.999959 0 0 32.381085,11.34525 m 0,0 a 16.044627,18.968374 89.999959 0 0 5.555663,-11.345234 m -1.110802,-1.165716 a 15.105044,17.857575 89.999959 1 0 0,8e-5 M 33.638401,35.718273 V 37.32387 M 14.361599,35.721486 V 37.32387 M 42.966768,18.967535 v 2.932484 M 5.033232,18.967535 v 2.932484 M 42.967161,18.96719 c 0.0064,-3.060008 -0.998755,-6.107863 -2.841433,-8.679116 C 37.979473,7.2675359 34.697871,4.9118139 30.930541,3.6398499 26.513575,2.1250309 21.45,2.1311029 17.033026,3.6519799 c -2.480177,0.846966 -4.756969,2.155355 -6.626963,3.821971 -0.959294,0.856067 -1.803216,1.794108 -2.531791,2.8141081 -1.842678,2.571252 -2.847505,5.619108 -2.841433,8.679115 m 9.32876,18.356979 a 8.1527575,9.6384014 89.999959 0 0 16.453803,5.764863 m 0,0 A 8.1527575,9.6384014 89.999959 0 0 33.638401,37.32416 M 5.031626,21.899657 a 16.044627,18.968374 89.999959 0 0 32.381085,11.345258 m 0,0 a 16.044627,18.968374 89.999959 0 0 5.555663,-11.345242 m -9.302648,-7.483022 q -1.111074,1.232495 -1.994466,2.206961 m -1.596657,-3.10579 -0.388749,3.233684 m -3.099421,1.481037 c -0.39768,-0.731603 -0.825714,-1.624111 -1.405536,-2.944645 m 2.143548,-3.199772 -0.738141,6.144481 M 25.824068,9.9235016 25.180704,15.288075 m -0.01799,-0.261249 c 0.04859,-1.92768 0.109284,-4.356252 0.194286,-7.6378621 m -0.193346,7.6366171 a 4.8916542,5.7830408 89.999959 0 0 -2.327232,0 M 22.643067,7.3889639 c 0.085,3.2816101 0.145717,5.7101821 0.194287,7.6378621 m -0.01823,0.261072 c -0.579823,1.320534 -1.007856,2.213042 -1.405536,2.944645 m 0.762365,-8.3090414 0.643363,5.3645734 m -2.143746,-3.199949 0.738141,6.144481 m -3.488298,-4.714785 0.388748,3.233684 m -1.985406,-0.127894 q -0.883391,-0.974466 -1.994466,-2.206961 m 7.841659,5.77978 0.534128,3.549341 m 3.114007,-3.549341 -0.534128,3.549341 m 4.783193,-7.142304 a 11.738956,30.30714 59.454892 0 0 -2.749876,1.107035 m 6.341812,-1.002161 a 14.032713,30.349072 82.966499 0 0 -3.591791,-0.10677 m 3.592056,0.109155 a 8.2555462,9.7599208 89.99996 0 0 0,-2.293136 m -2.73e-4,2.41e-4 a 30.349059,18.052409 7.76238 0 0 -3.591799,-0.89842 m 8.1e-5,-0.0016 A 30.307138,16.655469 34.11275 0 0 27.323224,12.08666 m -1.52e-4,6.75e-4 A 30.307148,10.032696 68.54319 0 0 25.822807,9.9233249 m 0.0016,8.032e-4 A 30.349064,3.7674415 87.10714 0 0 25.356454,7.3885699 m -8.03e-4,1.29e-4 a 8.2555462,9.7599208 89.99996 0 0 -2.711001,0 m -8.04e-4,-8.9e-5 a 3.7674415,30.349063 2.892774 0 0 -0.467952,2.5355664 m 0.0016,-8.032e-4 a 10.032692,30.307136 21.45676 0 0 -1.500257,2.1640139 m -1.85e-4,-6.99e-4 a 16.655465,30.30713 55.88717 0 0 -2.749876,1.431006 m -2.09e-4,0.0024 a 18.052414,30.349067 82.2375 0 0 -3.591783,0.898435 m -1.92e-4,-2.65e-4 a 8.2555462,9.7599208 89.99996 0 0 8e-6,2.293128 m 3.592103,-0.109155 a 30.349069,14.032712 7.033444 0 0 -3.591798,0.106778 m 6.341803,1.002169 a 30.307152,11.73896 30.545029 0 0 -2.750141,-1.107123 m 4.250599,3.594553 a 30.307146,5.1161799 63.00009 0 0 -1.500397,-2.488242 m 1.498587,2.48739 a 30.349061,0.2522209 82.322057 0 0 0.46792,3.540474 m 0.0016,0.0024 a 8.2555462,9.7599208 89.99996 0 0 2.710905,0 m 0.0016,-0.0024 a 0.2522209,30.349057 7.677887 0 0 0.467913,-3.540474 m 1.498603,-2.487382 a 5.1161775,30.307132 26.999859 0 0 -1.50041,2.48825" /></svg>
