<?xml version="1.0" encoding="UTF-8"?>
<!-- Created with Inkscape (http://www.inkscape.org/) -->
<svg width="48" height="48" version="1.1" viewBox="0 0 12.7 12.7" xml:space="preserve" xmlns="http://www.w3.org/2000/svg"><g><g transform="matrix(1.034 0 0 1.034 -.1439 -.000822)" stroke="#000000" stroke-linecap="round" stroke-linejoin="round" stroke-width=".256"><path d="m12.1 7.023v0.8361s0.1216 0.493-0.5403 1.236c-0.6619 0.7427-0.9482 0.8787-1.142 0.9595-0.1934 0.08083-0.332 0.1145-0.4594 6.62e-4 -0.1274-0.1138-0.9018-0.5058-0.9018-0.5058l-2.568 1.483s-1.32 0.05853-2.457-0.2427c-1.137-0.3012-1.873-0.7307-1.873-0.7307s-0.2023-0.06072-0.3807-0.4062c-0.1784-0.3455-0.1379-0.5048-0.1379-0.5048l0.006193-0.6479-1.176-0.6791v-0.5644s-0.09771-0.7552 0.5185-1.521c0.6162-0.7654 1.21-0.991 1.21-0.991s0.01177-0.8765 0.2418-1.624c0.2301-0.7476 0.8639-1.331 0.8639-1.331l0.5232-0.3159v0.7351s0.622-0.9393 2.54-0.9393c1.918 0 2.603 1.144 2.603 1.492v1.386l0.377 0.1324v-2.485l0.4985 0.3102s0.7386 0.5977 0.9473 1.597 0.1466 1.269 0.1466 1.317c0 0.04827-0.01535 0.2065-0.04993 0.2509-0.06729 0.08641-0.122 0.1123-0.122 0.1123l-0.7742 0.4133z" fill="#ffaf00"/><path d="m1.643 8.5s0.1092-0.9374 0.353-1.738c0.2438-0.801 0.749-1.818 0.749-1.818l0.5002 0.2955s-0.6502 1.163-0.9028 2.365c-0.2526 1.202-0.2153 1.85-0.2153 1.85s0.8463 0.5492 1.913 0.7633c1.066 0.2142 0.9374 0.1916 1.645 0.2447 0.7078 0.05308 0.7935 0.02958 0.7935 0.02958l2.256-1.314" fill="none"/><path d="m9.053 9.549-0.1992-0.09847s-0.04222-0.01754-0.07461-0.1162c-0.0324-0.0987-0.04608-0.1586-0.04608-0.1586v-3.612s0.5969 1.084 0.8986 2.331c0.3017 1.247 0.323 2.161 0.323 2.161" fill="none"/><path d="m8.733 5.564 0.4949-0.2994s0.4817 0.8272 0.8667 2.29c0.385 1.463 0.3596 1.913 0.3596 1.913s0.4144-0.2416 0.7781-0.6198c0.3637-0.3782 0.8637-1.223 0.8637-1.223" fill="none"/><path d="m9.343 4.28v1.204" fill="none"/><path d="m9.99 5.795-0.6462-0.3731" fill="none"/><path d="m9.842 2.105v3.605" fill="none"/><path d="m6.478 10.49 0.00751 0.5416" fill="none"/><path d="m1.722 7.961-1.256-0.7046" fill="none"/><path d="m3.245 5.239v3.625l-1.118 0.589" fill="none"/><path d="m3.301 1.79v3.601" fill="none"/><path d="m2.195 4.744 0.5043 0.2912" fill="none"/><path d="m8.966 4.147v1.276" fill="none"/><path d="m3.301 5.391 0.3005-0.1735" fill="none"/><ellipse cx="6.312" cy="2.752" rx="2.613" ry="1.502" fill="none"/><ellipse cx="6.311" cy="2.856" rx="1.989" ry="1.014" fill="none"/><path d="m3.699 2.752v4.668c0 0.4172 0.8712 1.157 2.348 1.157 1.477 0 2.104-0.4186 2.687-0.7547" fill="none"/></g></g></svg>
