<?xml version="1.0" encoding="UTF-8"?>
<svg version="1.1" viewBox="0 0 48 48" xmlns="http://www.w3.org/2000/svg">
 <title>DIN1151-B</title>
 <path d="m34.139 1.7578c-1.2498 0.39917-0.23986 1.7679-0.12478 2.6202 0.3378 1.1527 0.6756 2.3053 1.0134 3.458-9.8528 10.227-19.706 20.454-29.559 30.682-1.0971 2.2552-2.047 4.5924-3.0879 6.8789 0.78707 0.17624 0.77884 1.2685 1.6342 0.44145 1.9791-0.98724 4.0067-1.9112 5.9557-2.9375 9.8178-10.276 19.739-20.454 29.582-30.705 1.7802 0.4428 3.5583 0.91582 5.3396 1.3407 1.9979-1.1894-1.3851-3.2231-2.1785-4.4444-2.603-2.5487-5.1334-5.2495-8.1724-7.2833z" color="#000000" fill="#ffaf00" style="-inkscape-stroke:none"/>
 <path d="m2.9577 45.652 2.9614-6.6929m-2.9614 6.6929 6.5777-3.2095m29.827-30.958-29.823 30.955m26.205-34.44-29.822 30.955m29.813-30.946-1.6066-5.4754m5.2244 8.9602 5.5315 1.4021m-38.963 26.059a2.5115 0.19178 43.933 0 0-0.00296 0.0044m3.6158 3.4837a2.5115 0.19178 43.933 0 0 0.00441-0.0029m-1.51e-5 -2.22e-4a2.5115 0.19178 43.933 0 0 0.00371-0.0074m29.823-30.955a2.5115 0.19178 43.933 0 0-3.6213-3.4776m3.6173 3.485a2.5115 0.19178 43.933 0 0 0.0037-0.0074m5.6317 1.3879a7.5343 0.57534 43.933 1 0-10.869-10.332m10.756 10.362a7.5343 0.57534 43.933 0 0 0.1129-0.03086" fill="none" stroke="#000000" stroke-width="1.26"/>
</svg>
