<?xml version="1.0" encoding="UTF-8"?>
<svg version="1.1" viewBox="0 0 48 48" xmlns="http://www.w3.org/2000/svg">
 <title>DIN1151-A</title>
 <path d="m36.973 2.9951c-1.3023-0.38342-2.1612 0.90697-2.9338 1.7275-1.1159 1.6453 2.1627 3.2201 0.30153 4.2477-9.3419 8.8237-18.684 17.647-28.026 26.471-1.5309 2.8635-2.8615 5.8581-4.3162 8.7716 0.78912 0.1909 0.70953 1.3136 1.6082 0.54281 2.6484-1.1035 5.2969-2.207 7.9453-3.3105-0.69274-1.2379 0.28516 0.54354 0.89119-0.76011 9.3996-8.8795 18.799-17.759 28.199-26.638 1.1498 1.2722 3.3653 2.0519 4.4936 0.39383 1.6676-1.136 0.44292-3.3084-0.46896-4.5658-1.9745-2.6674-4.3003-5.2755-7.3195-6.759l-0.37474-0.12066z" color="#000000" fill="#ffaf00" stroke-width="1.9814"/>
 <path d="m2.5729 44.493 4.1303-8.5163m-4.1303 8.5163 8.7363-3.6388m29.253-27.608-29.178 27.561m24.55-32.462-29.18 27.561m38.418-22.376-1.1832 1.1158m-8.0763-10.918-1.1812 1.1178m-23.422 36.01a3.3708 0.88294 46.633 0 0 0.07472-0.04796m-4.6293-4.901a3.3708 0.88294 46.633 0 0-0.052125 0.07194m28.028-31.133a6.7417 1.7659 46.633 0 0 9.2585 9.802m1.1825-1.1169a6.7417 1.7659 46.633 0 0 0.12427-0.19026m3.9e-5 -9.9e-5a6.7417 1.7659 46.633 0 0-9.3828-9.6117" fill="none" stroke="#000000" stroke-width="1.2764"/>
</svg>
