<?xml version="1.0" encoding="UTF-8"?>
<svg version="1.1" viewBox="0 0 48 48" xmlns="http://www.w3.org/2000/svg">
 <title>DIN1143</title>
 <path d="m30.774 1.8546c-0.60246 0.25924-1.5204 0.92167-1.3239 1.6741 1.0087 2.1037 2.0174 4.2073 3.0261 6.311-8.7995 8.9814-17.603 17.961-26.4 26.943-0.17263 0.5992 0.68818 0.06797-0.17047 0.28589-1.255 2.7637-2.51 5.5275-3.765 8.2912 0.74351 0.43963 0.92242 1.0452 1.8125 0.30221 2.4894-1.221 5.0346-2.3494 7.4898-3.627 8.7993-8.9804 17.599-17.961 26.398-26.941 2.2164 0.96862 4.3894 2.0767 6.6327 2.9587 0.61256-0.26301 1.639-1.0085 1.2592-1.7856-4.2847-4.6886-8.9228-9.0541-13.541-13.414-0.4568-0.32405-0.82441-0.92103-1.4178-0.99885z" color="#000000" fill="#ffaf00" style="-inkscape-stroke:none"/>
 <path transform="matrix(1.1937 0 0 1.1937 -645.98 -842.17)" d="m543.42 743.75 3.197-7.042m-3.197 7.042 6.976-3.338m22.364-22.824-22.364 22.823m18.585-26.526-22.364 22.823m22.366-22.818-2.69-5.609m6.463 9.305 5.662 2.576m-12.128-11.901 0.65-0.663m11.498 12.567 0.65-0.663m-28.692 20.909a2.6457 0.059586 44.418 0 0 2.4e-4 -3.4e-4m-6.4e-4 6.3e-4a2.6457 0.059586 44.418 0 0 4e-4 -2.9e-4m-3.7793-3.7034a2.6457 0.059586 44.418 0 0-2.8e-4 4.1e-4m22.367-22.819a2.6457 0.059586 44.418 0 0 3.7721 3.6962m5.6625 2.5756a8.5039 0.19153 44.418 0 0 0.0199 3e-3m-12.148-11.904a8.5039 0.19153 44.418 0 0 3e-3 0.0199m12.795 11.221a8.5039 0.19153 44.418 0 0 7.9e-4 -1e-3m0-9e-5a8.5039 0.19153 44.418 0 0-12.149-11.903" fill="none" stroke="#000000" stroke-width="1.0556"/>
</svg>
