<?xml version="1.0" encoding="UTF-8" standalone="no"?>
<svg
   width="48"
   height="48"
   version="1.1"
   viewBox="0 0 12.7 12.7"
   id="svg5"
   xmlns="http://www.w3.org/2000/svg"
   xmlns:svg="http://www.w3.org/2000/svg"
   xmlns:rdf="http://www.w3.org/1999/02/22-rdf-syntax-ns#"
   xmlns:cc="http://creativecommons.org/ns#"
   xmlns:dc="http://purl.org/dc/elements/1.1/">
  <defs
     id="defs5" />
  <metadata
     id="metadata1">
    <rdf:RDF>
      <cc:Work
         rdf:about="">
        <dc:format>image/svg+xml</dc:format>
        <dc:type
           rdf:resource="http://purl.org/dc/dcmitype/StillImage" />
      </cc:Work>
    </rdf:RDF>
  </metadata>
  <path
     d="M 6.2978934,0.63298169 C 5.1381982,0.67829952 4.0957134,0.92640456 3.3337664,1.3011605 2.9527928,1.4885384 2.6407962,1.7073488 2.4206364,1.9574594 2.2004898,2.2075595 2.0712541,2.4963892 2.0831868,2.7997869 l 0.0093,0.2309945 c 0.013346,0.3414977 0.1757839,0.6401858 0.428916,0.8764323 0.2531322,0.2362517 0.5952596,0.4184914 0.9947804,0.5591439 0.4364038,0.1536383 0.9477375,0.248203 1.4862175,0.3059113 l 0.1607132,4.1155937 c 0.00217,0.055314 0.015814,0.1098946 0.03824,0.1601972 L 6.595073,12.175435 c 0.1360196,-0.08638 0.1677696,-0.04234 0.3069696,-0.01188 L 8.0482196,8.936961 C 8.0748206,8.886116 8.0651846,8.8279553 8.0735536,8.7741946 L 7.912827,4.6710313 C 8.3986814,4.581028 8.8558814,4.4544117 9.2538411,4.2901636 9.6533355,4.1252938 9.9947538,3.9226839 10.24706,3.6731553 c 0.252317,-0.2495338 0.415026,-0.5531379 0.430477,-0.8950325 0.003,-0.1045712 -0.0046,-0.209206 -0.0088,-0.3136635 C 10.656976,2.1610351 10.505701,1.8832226 10.266719,1.6510772 10.027729,1.4189186 9.6999815,1.2247276 9.3055407,1.0676445 8.5166591,0.75347823 7.4576643,0.58771677 6.298022,0.63303989 Z m 0.01292,0.33072917 z"
     color="#000000"
     fill="#ffaf00"
     style="stroke-width:0.264583;-inkscape-stroke:none"
     id="path1" />
  <path
     d="M 6.7652659,12.114187 5.3711499,8.9870758 m 1.394116,3.1271112 1.145884,-3.2265942 m -0.14918,-4.3275251 0.165163,4.2264541 M 5.1820809,4.6608739 5.3472449,8.8873278 M 10.52223,2.476474 l 0.009,0.2311452 m -8.2639959,0.091392 0.00902,0.2311453 m 5.6345668,5.8573463 a 0.57332562,1.2908227 87.762 0 0 0.01588,-0.07945 m -2.555822,0.1787 a 0.57332562,1.2908227 87.762 0 0 2.53992,-0.09925 m -2.563706,-1.27e-4 a 0.57332562,1.2908227 87.762 0 0 0.02378,0.09938 m 2.555822,-0.1787 a 0.57332562,1.2908227 87.762 0 0 6.7e-5,-0.02149 M 2.276334,3.0302945 a 1.8346473,4.1306749 87.762 0 0 8.254735,-0.2538201 1.8346473,4.1306749 87.762 0 0 2.65e-4,-0.068755 M 2.2673381,2.7991704 A 1.8346473,4.1306749 87.762 0 0 10.522074,2.5453503 m 2.91e-4,-0.068755 a 1.8346473,4.1306749 87.762 1 0 -8.2550004,0.32258 M 10.5221,2.5453556 a 1.8346473,4.1306749 87.762 0 0 2.91e-4,-0.068755"
     fill="none"
     stroke="#000000"
     stroke-width="0.330729"
     id="path2" />
</svg>
