<?xml version="1.0" encoding="UTF-8"?>
<svg version="1.1" viewBox="0 0 48 48" xmlns="http://www.w3.org/2000/svg">
 <desc>1144.dxf - scale = 1.000000, origin = (0.000000, 0.000000), method = manual</desc>
 <g transform="matrix(.31198 0 0 .31198 -151.11 -202.39)">
  <path d="m579.76 657.79c-2.976 1.3319-6.3046 4.925-2.6582 7.8809 5.3714 7.4891 11.7 14.217 17.799 21.105-32.32 29.752-64.641 59.504-96.961 89.256-2.6204 5.0606-5.2409 10.121-7.8613 15.182 0.67169 3.1626 3.7206 1.7354 5.6629 0.68608 4.2836-1.9246 8.8094-3.4966 12.955-5.6204 32.101-29.506 64.201-59.011 96.302-88.517 7.2851 7.2826 13.806 15.664 22.414 21.418 4.4163 0.84738-2.9632-5.1022 1.297-0.97798 1.7992 1.0427 5.734-3.8751 2.8578-5.808-6.2408-8.8822-13.653-16.864-20.866-24.954-2.1896-5.3094-8.2887-7.4548-11.483-12.313-6.059-5.8832-11.527-12.688-18.685-17.246l-0.77344-0.0918z" color="#000000" fill="#ffaf00" style="-inkscape-stroke:none"/>
  <path d="m491.5 791.95 7.861-15.181m-7.861 15.181 15.788-6.557m97.69-89.791-97.684 89.787m89.756-98.414-97.685 89.788m109.81-86.392a5.8583 5.8583 0 0 0-7.3266-6.9746m29.119 31.693-2.778 2.553m-48.376-58.206-2.778 2.554m-69.751 123.4a5.8583 0.34136 47.412 0 0 6e-3 -4e-3m69.745-123.4a37.795 2.2023 47.412 0 0 51.154 55.653m-48.376-58.206a37.795 2.2023 47.412 0 0 51.154 55.653m-26.238-31.787a37.795 2.2023 47.412 0 0-24.916-23.866m51.198 55.572a37.795 2.2023 47.412 0 0-21.73-26.754" fill="none" stroke="#000000" stroke-width="3.2054"/>
 </g>
</svg>
