<?xml version="1.0" encoding="UTF-8"?>
<svg version="1.1" viewBox="0 0 48 48" xmlns="http://www.w3.org/2000/svg">
 <path d="m23.688 2.2012c-4.3831 0.17128-8.3232 1.109-11.203 2.5254-1.4399 0.7082-2.6191 1.5352-3.4512 2.4805-0.83205 0.94526-1.3205 2.0369-1.2754 3.1836l0.035156 0.87305c0.050443 1.2907 0.66438 2.4196 1.6211 3.3125 0.95672 0.89292 2.2498 1.5817 3.7598 2.1133 1.6494 0.58068 3.582 0.93809 5.6172 1.1562l0.60742 15.555c0.0082 0.20906 0.05977 0.41535 0.14453 0.60547l5.2676 11.82c0.51409-0.32648 0.63409-0.16002 1.1602-0.04492l4.332-12.195c0.10054-0.19217 0.06412-0.41199 0.09575-0.61518l-0.60747-15.508c1.8363-0.34017 3.5643-0.81872 5.0684-1.4395 1.5099-0.62313 2.8003-1.3889 3.7539-2.332 0.95364-0.94312 1.5686-2.0906 1.627-3.3828 0.01127-0.39523-0.01728-0.7907-0.0332-1.1855-0.044512-1.1468-0.61626-2.1968-1.5195-3.0742-0.90327-0.87745-2.142-1.6114-3.6328-2.2051-2.9816-1.1874-6.9841-1.8139-11.367-1.6426zm0.04883 1.25h-2e-6z" color="#000000" fill="#ffaf00" style="-inkscape-stroke:none"/>
 <path d="m25.382 45.463-5.2691-11.819m5.2691 11.819 4.3309-12.195m-0.56383-16.356 0.62424 15.974m-10.375-15.593 0.62424 15.974m19.559-24.23 0.034082 0.87362m-31.234 0.34542 0.034077 0.87362m21.296 22.138a2.1669 4.8787 87.762 0 0 0.06003-0.30027m-9.6598 0.6754a2.1669 4.8787 87.762 0 0 9.5997-0.37513m-9.6896-4.8e-4a2.1669 4.8787 87.762 0 0 0.08987 0.37561m9.6598-0.6754a2.1669 4.8787 87.762 0 0 2.52e-4 -0.08121m-21.356-21.756a6.9341 15.612 87.762 0 0 31.199-0.95932 6.9341 15.612 87.762 0 0 1e-3 -0.25986m-31.234 0.34564a6.9341 15.612 87.762 0 0 31.199-0.95932m0.0011-0.25986a6.9341 15.612 87.762 1 0-31.2 1.2192m31.199-0.95932a6.9341 15.612 87.762 0 0 0.0011-0.25986" fill="none" stroke="#000000" stroke-width="1.25"/>
</svg>
