<?xml version="1.0" encoding="UTF-8"?>
<svg version="1.1" viewBox="0 0 48 48" xmlns="http://www.w3.org/2000/svg">
 <title>DIN1152</title>
 <path d="m40.134 1.8194c-1.3668 0.044427 1.1439 1.6157-0.59254 0.19588-1.7125 1.8327-3.4639 3.6326-5.1524 5.4855 0.3119 0.9048-0.53397 1.376-1.0932 2.0255-9.1644 9.7171-18.364 19.44-27.506 29.153-0.96651 2.2336-1.933 4.4673-2.8995 6.7009 0.7828 0.16517 0.78821 1.2545 1.626 0.42654 1.9343-0.99472 3.9413-1.931 5.8306-2.9619 9.5401-10.108 19.08-20.216 28.62-30.324 0.9665 0.48374 1.4365-0.83092 2.0855-1.3105 1.3223-1.4416 2.7345-2.8138 4.0027-4.2971-0.1767-1.7157-2.2683-2.6732-3.3259-3.9429-0.50805-0.40062-0.96312-0.94887-1.5952-1.1512z" color="#000000" fill="#ffaf00" stroke-width="1.302"/>
 <path transform="matrix(1.3021 0 0 1.3021 -706.83 -920.84)" d="m545.51 742.25 2.181-5.062m-2.181 5.062 4.929-2.469m22.077-23.388-22.075 23.387m19.327-25.981-22.075 23.386m29.309-24.856-3.883 4.114m0.448-7.357-3.884 4.114m-21.99 23.985a1.8898 0.1206 43.348 0 0-2e-3 2e-3m2.7482 2.5941a1.8898 0.1206 43.348 0 0 2e-3 -2e-3m3e-4 3.1e-4a1.8898 0.1206 43.348 0 0 2e-3 -6e-3m22.679-23.337a2.3622 0.15074 43.348 0 0-3.4386-3.236 2.3622 0.15074 43.348 0 0 0.17549 0.26862m2.9818 2.8146a2.3622 0.15074 43.348 0 0 0.27829 0.15972 2.3622 0.15074 43.348 0 0 3e-3 -7e-3m3.8836-4.1143a2.3622 0.15074 43.348 0 0-3.4386-3.236m3.4356 3.243a2.3622 0.15074 43.348 0 0 3e-3 -7e-3" fill="none" stroke="#000000" stroke-width=".96768"/>
</svg>
