<?xml version="1.0" encoding="UTF-8"?>
<svg width="48" height="48" version="1.1" viewBox="0 0 12.7 12.7" xmlns="http://www.w3.org/2000/svg" xmlns:cc="http://creativecommons.org/ns#" xmlns:dc="http://purl.org/dc/elements/1.1/" xmlns:rdf="http://www.w3.org/1999/02/22-rdf-syntax-ns#">
 <defs>
  <clipPath id="clipPath758">
   <path d="m0 0h14033v9917h-14033z" clip-rule="evenodd"/>
  </clipPath>
  <clipPath id="clipPath786">
   <path d="m0 0h14033v9917h-14033z" clip-rule="evenodd"/>
  </clipPath>
  <clipPath id="clipPath792">
   <path d="m5432.6 4080.1 9.3238 28.392 9.1535 27.36 8.9972 26.369 8.8547 25.42 8.7261 24.51 8.6107 23.637 8.5086 22.801 8.4196 22 8.3437 21.232 8.2804 20.498 8.2301 19.795 8.1923 19.122 8.1672 18.479 8.1546 17.864c2.7182 5.7591 5.4364 11.518 8.1546 17.277 2.7224 5.5722 5.4448 11.144 8.1672 16.717 2.7308 5.3939 5.4616 10.788 8.1923 16.182 2.7434 5.2239 5.4867 10.448 8.2301 15.672 2.7601 5.0621 5.5203 10.124 8.2805 15.186 2.7812 4.908 5.5624 9.8159 8.3436 14.724 2.8065 4.7614 5.6131 9.5227 8.4196 14.284 2.8362 4.6221 5.6724 9.2443 8.5087 13.866 2.8702 4.49 5.7404 8.9801 8.6107 13.47 2.9086 4.3648 5.8173 8.7296 8.726 13.094 5.8766 8.5554 11.827 16.936 17.852 25.142 6.0704 8.1133 12.23 16.072 18.477 23.874l34.797 13.685 34.161 12.921 33.578 12.178 33.046 11.453 32.566 10.746 32.136 10.055 31.755 9.3795 31.423 8.7188 31.139 8.0714 30.903 7.4365 30.715 6.8129 30.574 6.2 30.48 5.5965 30.434 5.0016 30.434 4.4145 30.48 3.8342 30.574 3.2597 30.715 2.6903 30.903 2.125 31.139 1.563 31.423 1.0034 31.755 0.4453 32.136-0.112 32.566-0.6696 33.047-1.2281 33.578-1.7887 34.161-2.3518 34.797-2.9187 25.473-6.4051 25.008-6.8016 24.581-7.2086 24.192-7.6266 23.84-8.0565 23.525-8.4986 23.246-8.954 23.003-9.4231 22.795-9.9066 22.623-10.406 22.485-10.92 22.382-11.452 22.313-12.001 22.279-12.569 22.279-13.156 22.313-13.764 22.382-14.392 22.485-15.043 22.623-15.717 22.795-16.415 23.003-17.138 23.246-17.888 23.525-18.666 23.84-19.472 24.192-20.308 24.581-21.175 25.008-22.075 25.473-23.009v-554.85l-9.3238-28.392-9.1534-27.36-8.9972-26.369-8.8548-25.42-8.726-24.51-8.6107-23.637-8.5087-22.801-8.4196-22-8.3436-21.232-8.2805-20.498-8.2301-19.795-8.1923-19.122-8.1672-18.479-8.1546-17.864c-2.5974-5.5967-5.3764-11.165-8.3354-16.701 8.0366 45.111 12.078 90.843 12.078 136.66 0 248.45-348.86 449.87-779.19 449.87-430.34 0-779.19-201.41-779.19-449.87 0-45.821 4.0418-91.553 12.078-136.66-44.565 83.384-47.454 172.34-8.3355 256.63 74.233 159.95 290.63 284.89 567.67 327.74 277.04 42.858 572.64-2.8709 775.45-119.96 202.81-117.09 282.01-287.76 207.78-447.71-2.8679-6.179-5.7371-12.252-8.6074-18.219-40.664-225.67-178.66-421.97-377.25-536.62-209.88-121.17-464.19-137.79-688.06-44.965-223.86 92.828-391.79 284.53-454.34 518.67-45.528 35.785-92.66 75.961-142.62 121.57v554.85" clip-rule="evenodd"/>
  </clipPath>
  <clipPath id="clipPath812">
   <path d="m0 0h14033v9917h-14033z" clip-rule="evenodd"/>
  </clipPath>
  <clipPath id="clipPath832">
   <path d="m0 0h14033v9917h-14033z" clip-rule="evenodd"/>
  </clipPath>
  <clipPath id="clipPath838">
   <path d="m7107.2 3604.8c0-45.821-4.0418-91.553-12.078-136.66-0.09-0.5062-0.1809-1.0122-0.272-1.5182-40.664-225.67-178.66-421.97-377.25-536.62-103.33-59.656-243.47-45.774-389.6 38.592 146.13-84.366 286.27-98.249 389.6-38.592-209.88-121.17-464.19-137.79-688.06-44.965-223.86 92.828-391.79 284.53-454.34 518.67-5.6805 21.265-10.457 42.761-14.318 64.43-8.0367 45.111-12.078 90.843-12.078 136.66 0 248.45 348.86 449.87 779.19 449.87 430.34 0 779.19-201.41 779.19-449.87z" clip-rule="evenodd"/>
  </clipPath>
  <clipPath id="clipPath858">
   <path d="m0 0h14033v9917h-14033z" clip-rule="evenodd"/>
  </clipPath>
  <clipPath id="clipPath904">
   <path d="m0 0h14033v9917h-14033z" clip-rule="evenodd"/>
  </clipPath>
  <clipPath id="clipPath950">
   <path d="m0 0h14033v9917h-14033z" clip-rule="evenodd"/>
  </clipPath>
  <clipPath id="clipPath996">
   <path d="m0 0h14033v9917h-14033z" clip-rule="evenodd"/>
  </clipPath>
  <clipPath id="clipPath1042">
   <path d="m0 0h14033v9917h-14033z" clip-rule="evenodd"/>
  </clipPath>
  <clipPath id="clipPath1088">
   <path d="m0 0h14033v9917h-14033z" clip-rule="evenodd"/>
  </clipPath>
  <clipPath id="clipPath1134">
   <path d="m0 0h14033v9917h-14033z" clip-rule="evenodd"/>
  </clipPath>
 </defs>
 <metadata>
  <rdf:RDF>
   <cc:Work rdf:about="">
    <dc:format>image/svg+xml</dc:format>
    <dc:type rdf:resource="http://purl.org/dc/dcmitype/StillImage"/>
    <dc:title/>
   </cc:Work>
  </rdf:RDF>
 </metadata>
 <g transform="matrix(.94074 0 0 .94074 .37631 .37631)" fill="#fa0">
  <g transform="matrix(.0060278 0 0 .0060278 -31.794 -16.466)" fill="#fa0">
   <g clip-path="url(#clipPath758)">
    <g fill="#fa0">
     <path d="m5432.6 4080.1 9.3238 28.392 9.1535 27.36 8.9972 26.369 8.8547 25.42 8.7261 24.51 8.6107 23.637 8.5086 22.801 8.4196 22 8.3437 21.232 8.2804 20.498 8.2301 19.795 8.1923 19.122 8.1672 18.479 8.1546 17.864c2.7182 5.7591 5.4364 11.518 8.1546 17.277 2.7224 5.5722 5.4448 11.144 8.1672 16.717 2.7308 5.3939 5.4616 10.788 8.1923 16.182 2.7434 5.2239 5.4867 10.448 8.2301 15.672 2.7601 5.0621 5.5203 10.124 8.2805 15.186 2.7812 4.908 5.5624 9.8159 8.3436 14.724 2.8065 4.7614 5.6131 9.5227 8.4196 14.284 2.8362 4.6221 5.6724 9.2443 8.5087 13.866 2.8702 4.49 5.7404 8.9801 8.6107 13.47 2.9086 4.3648 5.8173 8.7296 8.726 13.094 5.8766 8.5554 11.827 16.936 17.852 25.142 6.0704 8.1133 12.23 16.072 18.477 23.874l34.797 13.685 34.161 12.921 33.578 12.178 33.046 11.453 32.566 10.746 32.136 10.055 31.755 9.3795 31.423 8.7188 31.139 8.0714 30.903 7.4365 30.715 6.8129 30.574 6.2 30.48 5.5965 30.434 5.0016 30.434 4.4145 30.48 3.8342 30.574 3.2597 30.715 2.6903 30.903 2.125 31.139 1.563 31.423 1.0034 31.755 0.4453 32.136-0.112 32.566-0.6696 33.047-1.2281 33.578-1.7887 34.161-2.3518 34.797-2.9187 25.473-6.4051 25.008-6.8016 24.581-7.2086 24.192-7.6266 23.84-8.0565 23.525-8.4986 23.246-8.954 23.003-9.4231 22.795-9.9066 22.623-10.406 22.485-10.92 22.382-11.452 22.313-12.001 22.279-12.569 22.279-13.156 22.313-13.764 22.382-14.392 22.485-15.043 22.623-15.717 22.795-16.415 23.003-17.138 23.246-17.888 23.525-18.666 23.84-19.472 24.192-20.308 24.581-21.175 25.008-22.075 25.473-23.009v-554.85l-9.3238-28.392-9.1534-27.36-8.9972-26.369-8.8548-25.42-8.726-24.51-8.6107-23.637-8.5087-22.801-8.4196-22-8.3436-21.232-8.2805-20.498-8.2301-19.795-8.1923-19.122-8.1672-18.479-8.1546-17.864c-2.5974-5.5967-5.3764-11.165-8.3354-16.701 8.0366 45.111 12.078 90.843 12.078 136.66 0 248.45-348.86 449.87-779.19 449.87-430.34 0-779.19-201.41-779.19-449.87 0-45.821 4.0418-91.553 12.078-136.66-44.565 83.384-47.454 172.34-8.3355 256.63 74.233 159.95 290.63 284.89 567.67 327.74 277.04 42.858 572.64-2.8709 775.45-119.96 202.81-117.09 282.01-287.76 207.78-447.71-2.8679-6.179-5.7371-12.252-8.6074-18.219-40.664-225.67-178.66-421.97-377.25-536.62-209.88-121.17-464.19-137.79-688.06-44.965-223.86 92.828-391.79 284.53-454.34 518.67-45.528 35.785-92.66 75.961-142.62 121.57v554.85" fill="#fa0" fill-rule="evenodd"/>
    </g>
   </g>
   <g clip-path="url(#clipPath786)">
    <g clip-path="url(#clipPath792)" fill="#fa0">
     <g transform="matrix(4.7224,0,0,4.7224,6328,3789.7)" fill="#fa0">
      <path d="m0 0z" fill="#fa0" stroke="#000" stroke-linecap="square" stroke-linejoin="bevel" stroke-miterlimit="10"/>
     </g>
    </g>
   </g>
   <g clip-path="url(#clipPath812)">
    <g fill="#fa0">
     <path d="m7107.2 3604.8c0-45.821-4.0418-91.553-12.078-136.66-0.09-0.5062-0.1809-1.0122-0.272-1.5182-40.664-225.67-178.66-421.97-377.25-536.62-103.33-59.656-243.47-45.774-389.6 38.592 146.13-84.366 286.27-98.249 389.6-38.592-209.88-121.17-464.19-137.79-688.06-44.965-223.86 92.828-391.79 284.53-454.34 518.67-5.6805 21.265-10.457 42.761-14.318 64.43-8.0367 45.111-12.078 90.843-12.078 136.66 0 248.45 348.86 449.87 779.19 449.87 430.34 0 779.19-201.41 779.19-449.87" fill="#fa0" fill-rule="evenodd"/>
    </g>
   </g>
   <g clip-path="url(#clipPath832)">
    <g clip-path="url(#clipPath838)" fill="#fa0">
     <g transform="matrix(4.7224,0,0,4.7224,6328,3789.7)" fill="#fa0">
      <path d="m0 0z" fill="#fa0" stroke="#000" stroke-linecap="square" stroke-linejoin="bevel" stroke-miterlimit="10"/>
     </g>
    </g>
   </g>
   <g clip-path="url(#clipPath858)">
    <g fill="#fa0">
     <path d="m5672.5 4597.1 34.797 13.685 34.161 12.921 33.578 12.178 33.046 11.453 32.566 10.746 32.136 10.055 31.755 9.3795 31.423 8.7188 31.139 8.0714 30.903 7.4365 30.715 6.8129 30.574 6.2 30.48 5.5965 30.434 5.0016 30.434 4.4145 30.48 3.8342 30.574 3.2597 30.715 2.6903 30.903 2.125 31.139 1.563 31.423 1.0034 31.755 0.4453 32.136-0.112 32.566-0.6696 33.047-1.2281 33.578-1.7887 34.161-2.3518 34.797-2.9187v-554.85l-34.797-13.685-34.161-12.921-33.578-12.178-33.047-11.453-32.566-10.746-32.136-10.055-31.755-9.3795-31.423-8.7188-31.139-8.0714-30.903-7.4364-30.715-6.813-30.574-6.1999-30.48-5.5965-30.434-5.0017-30.434-4.4145-30.48-3.8341-30.574-3.2598-30.715-2.6902-30.903-2.1251-31.139-1.563-31.423-1.0034-31.755-0.4453-32.136 0.112-32.566 0.6696-33.046 1.2282-33.578 1.7886-34.161 2.3518-34.797 2.9187v554.85" fill="#fa0" fill-rule="evenodd"/>
    </g>
   </g>
   <g clip-path="url(#clipPath904)">
    <g fill="#fa0">
     <path d="m6567.9 4735.6 25.473-6.4051 25.008-6.8016 24.581-7.2086 24.192-7.6266 23.84-8.0565 23.525-8.4986 23.246-8.954 23.003-9.4231 22.795-9.9066 22.623-10.406 22.485-10.92 22.382-11.452 22.313-12.001 22.279-12.569 22.279-13.156 22.313-13.764 22.382-14.392 22.485-15.043 22.623-15.717 22.795-16.415 23.003-17.138 23.246-17.888 23.525-18.666 23.84-19.472 24.192-20.308 24.581-21.175 25.008-22.075 25.473-23.009v-554.85l-25.473 6.4051-25.008 6.8016-24.581 7.2086-24.192 7.6266-23.84 8.0565-23.525 8.4987-23.246 8.9539-23.003 9.4231-22.795 9.9066-22.623 10.406-22.485 10.92-22.382 11.452-22.313 12.001-22.279 12.569-22.279 13.156-22.313 13.764-22.382 14.392-22.485 15.043-22.623 15.717-22.795 16.415-23.003 17.138-23.246 17.888-23.525 18.666-23.84 19.472-24.192 20.308-24.581 21.175-25.008 22.075-25.473 23.009v554.85" fill="#fa0" fill-rule="evenodd"/>
    </g>
   </g>
   <g clip-path="url(#clipPath950)">
    <g fill="#fa0">
     <path d="m5432.6 4080.1 9.3238 28.392 9.1535 27.36 8.9972 26.369 8.8547 25.42 8.7261 24.51 8.6107 23.637 8.5086 22.801 8.4196 22 8.3437 21.232 8.2804 20.498 8.2301 19.795 8.1923 19.122 8.1672 18.479 8.1546 17.864c2.7182 5.7591 5.4364 11.518 8.1546 17.277 2.7224 5.5722 5.4448 11.144 8.1672 16.717 2.7308 5.3939 5.4616 10.788 8.1923 16.182 2.7434 5.2239 5.4867 10.448 8.2301 15.672 2.7601 5.0621 5.5203 10.124 8.2805 15.186 2.7812 4.908 5.5624 9.8159 8.3436 14.724 2.8065 4.7614 5.6131 9.5227 8.4196 14.284 2.8362 4.6221 5.6724 9.2443 8.5087 13.866 2.8702 4.49 5.7404 8.9801 8.6107 13.47 2.9086 4.3648 5.8173 8.7296 8.726 13.094 5.8766 8.5554 11.827 16.936 17.852 25.142 6.0704 8.1133 12.23 16.072 18.477 23.874v-554.85l-9.3238-28.392-9.1534-27.36-8.9972-26.369-8.8548-25.42-8.726-24.51-8.6107-23.637-8.5087-22.801-8.4196-22-8.3436-21.232-8.2805-20.498-8.2301-19.795-8.1923-19.122-8.1672-18.479-8.1546-17.864c-2.7182-5.7591-5.4364-11.518-8.1546-17.277-2.7224-5.5723-5.4448-11.144-8.1672-16.717-2.7308-5.394-5.4615-10.788-8.1923-16.182-2.7434-5.224-5.4867-10.448-8.2301-15.672-2.7601-5.0621-5.5203-10.124-8.2804-15.186-2.7812-4.9079-5.5625-9.8158-8.3437-14.724-2.8065-4.7614-5.6131-9.5227-8.4196-14.284-2.8362-4.6222-5.6724-9.2443-8.5086-13.866-2.8703-4.4901-5.7405-8.9801-8.6107-13.47-2.9087-4.3648-5.8174-8.7296-8.7261-13.094-5.8765-8.5554-11.827-16.936-17.852-25.142-6.0705-8.1133-12.23-16.072-18.477-23.875v554.85" fill="#fa0" fill-rule="evenodd"/>
    </g>
   </g>
   <g clip-path="url(#clipPath996)">
    <g fill="#fa0">
     <path d="m6895.7 3932.5-22.279 13.156-22.313 13.764-22.382 14.392-22.485 15.043-22.623 15.717-22.795 16.415-23.003 17.138-23.246 17.888-23.525 18.666-23.84 19.472-24.192 20.308-24.581 21.175-25.008 22.075-25.473 23.009-34.797-13.685-34.161-12.921-33.578-12.178-33.047-11.453-32.566-10.746-32.136-10.055-31.755-9.3795-31.423-8.7188-31.139-8.0714-30.903-7.4364-30.715-6.813-30.574-6.1999-30.48-5.5965-30.434-5.0017c277.04 42.858 572.64-2.8709 775.45-119.96" fill="#fa0" fill-rule="evenodd"/>
    </g>
   </g>
   <g clip-path="url(#clipPath1042)">
    <g fill="#fa0">
     <path d="m6120.2 4052.5-30.434-4.4145-30.48-3.8341-30.574-3.2598-30.715-2.6902-30.903-2.1251-31.139-1.563-31.423-1.0034-31.755-0.4453-32.136 0.112-32.566 0.6696-33.046 1.2282-33.578 1.7886-34.161 2.3518-34.797 2.9187-9.3238-28.392-9.1534-27.36-8.9972-26.369-8.8548-25.42-8.726-24.51-8.6107-23.637-8.5087-22.801-8.4196-22-8.3436-21.232-8.2805-20.498-8.2301-19.795-8.1923-19.122-8.1672-18.479-8.1546-17.864c74.233 159.95 290.63 284.89 567.67 327.74" fill="#fa0" fill-rule="evenodd"/>
    </g>
   </g>
   <g clip-path="url(#clipPath1088)">
    <g fill="#fa0">
     <path d="m7103.4 3484.8 8.1546 17.864 8.1672 18.479 8.1923 19.122 8.2301 19.795 8.2805 20.498 8.3436 21.232 8.4196 22 8.5087 22.801 8.6107 23.637 8.726 24.51 8.8548 25.42 8.9972 26.369 9.1534 27.36 9.3238 28.392-25.473 6.4051-25.008 6.8016-24.581 7.2086-24.192 7.6266-23.84 8.0565-23.525 8.4987-23.246 8.9539-23.003 9.4231-22.795 9.9066-22.623 10.406-22.485 10.92-22.382 11.452-22.313 12.001-22.279 12.569c202.81-117.09 282.01-287.76 207.78-447.71-2.5974-5.5967-5.3764-11.165-8.3354-16.701-0.09-0.5062-0.1809-1.0122-0.272-1.5182 2.8703 5.9672 5.7395 12.04 8.6074 18.219z" fill="#fa0" fill-rule="evenodd"/>
    </g>
   </g>
   <g clip-path="url(#clipPath1134)">
    <g fill="#fa0">
     <path d="m5575.2 3403.7c-5.6805 21.265-10.457 42.761-14.318 64.43-44.565 83.384-47.454 172.34-8.3355 256.63-2.7182-5.7591-5.4364-11.518-8.1546-17.277-2.7224-5.5723-5.4448-11.144-8.1672-16.717-2.7308-5.394-5.4615-10.788-8.1923-16.182-2.7434-5.224-5.4867-10.448-8.2301-15.672-2.7601-5.0621-5.5203-10.124-8.2804-15.186-2.7812-4.9079-5.5625-9.8158-8.3437-14.724-2.8065-4.7614-5.6131-9.5227-8.4196-14.284-2.8362-4.6222-5.6724-9.2443-8.5086-13.866-2.8703-4.4901-5.7405-8.9801-8.6107-13.47-2.9087-4.3648-5.8174-8.7296-8.7261-13.094-5.8765-8.5554-11.827-16.936-17.852-25.142-6.0705-8.1133-12.23-16.072-18.477-23.875 49.956-45.606 97.088-85.782 142.62-121.57" fill="#fa0" fill-rule="evenodd"/>
    </g>
   </g>
  </g>
 </g>
 <g transform="matrix(.94074 0 0 .94074 -11.263 1.3414)" stroke-width=".28125">
  <g transform="matrix(.028466 0 0 .028466 18.722 5.3517)" fill="none" stroke="#000" stroke-linecap="round" stroke-linejoin="bevel" stroke-width="9.8802">
   <path d="m-189.61 61.494 1.9744 6.0122 1.9383 5.7936 1.9052 5.5839 1.8751 5.3829 1.8478 5.1901 1.8234 5.0053 1.8018 4.8282 1.7829 4.6586 1.7668 4.4961 1.7534 4.3405 1.7428 4.1917 1.7348 4.0492 1.7295 3.9131 1.7268 3.7829"/>
   <path d="m-164.21 128.72c0.5756 1.2195 1.1512 2.439 1.7268 3.6586l1.7295 3.5399 1.7348 3.4266c0.58093 1.1062 1.1618 2.2124 1.7428 3.3187 0.58448 1.0719 1.169 2.1439 1.7534 3.2158 0.58894 1.0393 1.1779 2.0786 1.7668 3.1179 0.59431 1.0083 1.1886 2.0165 1.7829 3.0248 0.60059 0.97878 1.2012 1.9576 1.8018 2.9363 0.60779 0.9508 1.2156 1.9016 1.8234 2.8524 0.61593 0.92428 1.2319 1.8486 1.8478 2.7728 1.2444 1.8117 2.5045 3.5864 3.7803 5.324 1.2855 1.718 2.5897 3.4033 3.9127 5.0556"/>
   <path d="m-138.8 170.97 7.3685 2.8979 7.2339 2.7362 7.1104 2.5787 6.9979 2.4252 6.8961 2.2754 6.8049 2.1292 6.7243 1.9862 6.654 1.8463 6.5939 1.7092 6.544 1.5747 6.5041 1.4427 6.4743 1.3129 6.4544 1.1851 6.4445 1.0591"/>
   <path d="m-43.999 198.12 6.4445 0.9348 6.4544 0.81192 6.4743 0.69027 6.5041 0.56969 6.544 0.44998 6.5939 0.33098 6.654 0.21248 6.7243 0.0943 6.8049-0.0237 6.8961-0.14179 6.9979-0.26007 7.1104-0.37875 7.2339-0.49802 7.3685-0.61806"/>
   <path d="m50.806 200.3 5.3941-1.3563 5.2956-1.4403 5.2052-1.5265 5.1228-1.615 5.0483-1.706 4.9816-1.7996 4.9225-1.8961 4.871-1.9954 4.8271-2.0978 4.7905-2.2034 4.7614-2.3125 4.7395-2.425 4.725-2.5414 4.7177-2.6616"/>
   <path d="m120.21 172.72 4.7177-2.7859 4.725-2.9146 4.7395-3.0477 4.7614-3.1855 4.7905-3.3282 4.8271-3.476 4.871-3.6292 4.9225-3.788 4.9816-3.9526 5.0483-4.1232 5.1228-4.3003 5.2052-4.4839 5.2956-4.6745 5.3941-4.8723"/>
   <path d="m-189.61 61.494v-117.49"/>
   <path d="m-189.61-56c10.578-9.6574 20.559-18.165 30.2-25.743"/>
   <path d="m-138.8 170.97v-117.49"/>
   <path d="m-138.8 53.471-1.9744-6.0122-1.9383-5.7936-1.9052-5.5839-1.8751-5.3829-1.8478-5.1901-1.8234-5.0053-1.8018-4.8282-1.7829-4.6586-1.7668-4.4961-1.7534-4.3405-1.7428-4.1917-1.7348-4.0492-1.7295-3.9131-1.7268-3.7829"/>
   <path d="m-164.21-13.757c-0.5756-1.2195-1.1512-2.4391-1.7268-3.6586l-1.7295-3.5399c-0.57826-1.1422-1.1565-2.2844-1.7348-3.4266-0.58093-1.1062-1.1618-2.2124-1.7428-3.3187-0.58448-1.0719-1.169-2.1439-1.7534-3.2158-0.58894-1.0393-1.1779-2.0786-1.7668-3.1179-0.5943-1.0083-1.1886-2.0165-1.7829-3.0248-0.60059-0.97877-1.2012-1.9575-1.8018-2.9363-0.60779-0.9508-1.2156-1.9016-1.8234-2.8524-0.61593-0.92428-1.2319-1.8486-1.8478-2.7728-1.2444-1.8117-2.5045-3.5864-3.7803-5.324-1.2855-1.7181-2.5897-3.4033-3.9127-5.0556"/>
   <path d="m50.806 200.3v-117.49"/>
   <path d="m50.806 82.804-7.3685-2.8979-7.2339-2.7362-7.1104-2.5787-6.9979-2.4252-6.8961-2.2754-6.8049-2.1292-6.7243-1.9862-6.654-1.8463-6.5939-1.7092-6.544-1.5747-6.5041-1.4427-6.4743-1.3129-6.4544-1.1851-6.4445-1.0591"/>
   <path d="m-43.999 55.645-6.4445-0.9348-6.4544-0.81191-6.4743-0.69027-6.5041-0.56969-6.544-0.44999-6.5939-0.33098-6.654-0.21248-6.7243-0.0943-6.8049 0.02372-6.8961 0.14179-6.9979 0.26007-7.1104 0.37875-7.2339 0.49802-7.3685 0.61805"/>
   <path d="m189.61 120.16v-117.49"/>
   <path d="m189.61 2.6654-5.3941 1.3563-5.2956 1.4403-5.2052 1.5265-5.1228 1.615-5.0483 1.706-4.9816 1.7997-4.9225 1.8961-4.871 1.9954-4.8271 2.0978-4.7905 2.2034-4.7614 2.3125-4.7395 2.4251-4.725 2.5414-4.7177 2.6616"/>
   <path d="m120.21 30.242-4.7177 2.7859-4.725 2.9146-4.7395 3.0477-4.7614 3.1855-4.7905 3.3282-4.8271 3.476-4.871 3.6292-4.9225 3.788-4.9816 3.9526-5.0483 4.1232-5.1228 4.3003-5.2052 4.4839-5.2956 4.6745-5.3941 4.8723"/>
   <path d="m162.38-68.421c0.60782 1.2636 1.2154 2.5496 1.8227 3.8581"/>
   <path d="m164.21-64.563 1.7268 3.7829 1.7295 3.9131 1.7348 4.0492 1.7428 4.1917 1.7534 4.3405 1.7668 4.4961 1.7829 4.6586 1.8018 4.8282 1.8234 5.0053 1.8478 5.1901 1.8751 5.3829 1.9052 5.5839 1.9383 5.7936 1.9744 6.0122"/>
   <path d="m-162.44-68.099c-9.437 17.657-10.049 36.494-1.7651 54.343"/>
   <path d="m-164.21-13.757c15.719 33.871 61.542 60.327 120.21 69.402"/>
   <path d="m-43.999 55.645c58.666 9.0756 121.26-0.60795 164.21-25.403"/>
   <path d="m120.21 30.242c42.946-24.795 59.719-60.935 43.999-94.805"/>
   <path d="m164.21-64.563c-0.55003-1.1851-1.1385-2.3642-1.7651-3.5366"/>
   <path d="m-165-39.16c0 52.612 73.873 95.263 165 95.263s165-42.651 165-95.263"/>
   <path d="m165-39.16c0-58.949-31.449-113.42-82.5-142.89"/>
   <path d="m82.5-182.05c-51.051-29.474-113.95-29.474-165 0-51.051 29.474-82.5 83.945-82.5 142.89"/>
  </g>
 </g>
</svg>
