<?xml version="1.0" encoding="UTF-8"?>
<!-- Created with Inkscape (http://www.inkscape.org/) -->
<svg width="48" height="48" version="1.1" viewBox="0 0 12.7 12.7" xml:space="preserve" xmlns="http://www.w3.org/2000/svg"><g><g transform="matrix(.4517 0 0 .4507 12.19 3.624)" stroke="#000000" stroke-linecap="round" stroke-linejoin="round" stroke-width=".5864"><path d="m-7.827 15.8s-3.317 1.788-6.93 1.096c-3.614-0.6925-5.541-2.468-5.29-4.599 0.09205-0.7791 0.351-1.183 0.5131-1.522 0.2813-0.5887 0.4762-0.7607 0.4762-0.7607s-3.132-2.64-4.563-5.411-2.746-6.759-2.108-7.666c0.6376-0.9076 2.253-1.604 2.446-1.673 0.1927-0.0684 1.388-0.348 2.943-0.1477 1.555 0.2003 3.007 0.7513 3.249 1.34 0.2418 0.5889 2.542 9.346 2.542 9.346s1.076-0.3224 2.663-0.09368c1.587 0.2287 2.336 0.7575 2.336 0.7575s0.3981-1.079 0.5325-1.437c0.1344-0.3573 0.125-0.3387 0.3558-0.5907s0.4242-0.3098 0.5981-0.4111c0.1739-0.1012 1.193-0.7542 1.491-0.9153 0.2988-0.1611 0.6203-0.1476 0.823-0.1418 0.2028 0.00588 0.3622 0.0253 0.6377 0.2279 0.2755 0.2026 1.833 1.377 2.847 2.452 1.014 1.075 1.873 2.253 2.031 2.504 0.1578 0.2509 0.3257 0.508 0.2596 1.074-0.06612 0.5663-0.561 3.046-2.046 4.33-1.074 0.9288-1.676 1.245-2.287 1.536-0.8818 0.4208-1.623 0.6261-2.36 0.6807-0.7369 0.05457-1.16 0.02419-1.16 0.02419z" fill="#ffaf00"/><path d="m-7.827 15.8c-1.053-0.1135-2.211-0.2973-2.589-0.8544-0.3774-0.5571-0.9122-2.288-0.9784-2.689-0.06622-0.4012-0.0059-1.084 0.084-1.322 0.0899-0.2388 1.76-4.468 1.76-4.468" fill="none"/><path d="m-14.55 5.8s-0.931 0.2223-2.134 1.056c-1.203 0.8341-1.135 1.069-1.26 1.341-0.1256 0.2727-1.114 1.814-1.114 1.814" fill="none"/><path d="m-11.38 11.25s-1.216 0.4705-3.665-0.1553-2.885-2.062-2.898-2.896" fill="none"/><path d="m-11.07 10.12a3.165 1.806 0 0 1-3.639 0.06534 3.165 1.806 0 0 1-1.339-1.932 3.165 1.806 0 0 1 2.733-1.372 3.165 1.806 0 0 1 3.188 1.003" fill="none"/><path d="m-8.914 4.774c1.181 0.3166 2.351 1.523 3.397 2.666 1.046 1.143 2.282 2.719 2.325 3.016 0.04302 0.2972-0.07856 2.703-1.56 3.781-2.595 1.889-3.907 1.453-3.907 1.453" fill="none"/><path d="m-0.03608 8.555c-0.2911 0.655-0.9767 1.019-1.359 1.198-0.3819 0.1793-1.223 0.6569-1.807 0.6192" fill="none"/><path d="m-25.84-2.797c0.703-0.2968 1.589-0.1916 2.584-0.08054 0.9946 0.111 2.77 0.6606 3.014 1.081 0.244 0.4208 2.704 9.322 2.704 9.322" fill="none"/><path d="m-17.27-3.787c-0.03678 0.499-0.9811 1.006-1.281 1.173s-1.3 0.7958-1.79 0.686" fill="none"/><path d="m-16.13 6.516c-1.25 1.273-1.531 2.407 0.08644 3.335 1.618 0.928 3.945 0.9714 4.924 0.4806" fill="none"/></g></g></svg>
