<?xml version="1.0" encoding="UTF-8"?>
<!-- Created with Inkscape (http://www.inkscape.org/) -->
<svg width="48" height="48" version="1.1" viewBox="0 0 48 48" xml:space="preserve" xmlns="http://www.w3.org/2000/svg" xmlns:cc="http://creativecommons.org/ns#" xmlns:dc="http://purl.org/dc/elements/1.1/" xmlns:rdf="http://www.w3.org/1999/02/22-rdf-syntax-ns#"><metadata><rdf:RDF><cc:Work rdf:about=""><dc:format>image/svg+xml</dc:format><dc:type rdf:resource="http://purl.org/dc/dcmitype/StillImage"/></cc:Work></rdf:RDF></metadata><g transform="translate(0 -1004)"><g><path d="m23.24 1006c-7.779 0.075-14.75 4.927-17.5 12.26-2.835 7.571-0.5378 16.11 5.714 21.23 0.8985 0.7364 1.483 1.788 1.635 2.939l0.3327 2.51c0.2318 1.75 1.449 3.21 3.128 3.753 1.674 0.5417 3.404 0.8993 5.156 1.066v-10.07c-7.294-1.192-12.45-7.783-11.85-15.15 0.598-7.367 6.751-13.04 14.14-13.04 7.391 0 13.54 5.674 14.14 13.04 0.598 7.367-4.56 13.96-11.85 15.15v10.07c1.752-0.1666 3.482-0.5242 5.156-1.066 1.679-0.5433 2.897-2.003 3.128-3.753l0.3327-2.51c0.1526-1.152 0.7367-2.203 1.635-2.939 6.252-5.125 8.55-13.66 5.714-21.23-2.835-7.57-10.17-12.5-18.25-12.26-0.2525-0.01-0.5043-0.01-0.7553-0.01zm-5.095 34.85c1.264 0 2.29 1.026 2.29 2.29s-1.026 2.288-2.29 2.288c-1.264 0-2.288-1.024-2.288-2.288s1.024-2.29 2.288-2.29zm11.7 0c1.264 0 2.288 1.026 2.288 2.29s-1.024 2.288-2.288 2.288c-1.264 0-2.29-1.024-2.29-2.288s1.026-2.29 2.29-2.29z" fill="#ffaa00"/><g transform="matrix(.3051 0 0 .3051 33.61 1023)" fill="none" fill-rule="evenodd" font-family="'Sans Serif'" font-size="31.75px" font-weight="400" stroke="#000000" stroke-linecap="round" stroke-linejoin="bevel" stroke-width="3.097"><path d="m-66.15 74.65-1.09-8.228" fill-rule="evenodd" stroke-width="3.836"/></g><g transform="matrix(.3051 0 0 .3051 33.61 1023)" fill="none" fill-rule="evenodd" font-family="'Sans Serif'" font-size="31.75px" font-weight="400" stroke="#000000" stroke-linecap="round" stroke-linejoin="bevel" stroke-width="3.097"><path d="m-67.24 66.42c-0.5001-3.774-2.417-7.217-5.361-9.63" fill-rule="evenodd" stroke-width="3.836"/></g><g transform="matrix(.3051 0 0 .3051 33.61 1023)" fill="none" fill-rule="evenodd" font-family="'Sans Serif'" font-size="31.75px" font-weight="400" stroke="#000000" stroke-linecap="round" stroke-linejoin="bevel" stroke-width="3.097"><path d="m3.147 74.65 1.09-8.228" fill-rule="evenodd" stroke-width="3.836"/></g><g transform="matrix(.3051 0 0 .3051 33.61 1023)" fill="none" fill-rule="evenodd" font-family="'Sans Serif'" font-size="31.75px" font-weight="400" stroke="#000000" stroke-linecap="round" stroke-linejoin="bevel" stroke-width="3.097"><path d="m4.237 66.42c0.5001-3.774 2.417-7.217 5.361-9.63" fill-rule="evenodd" stroke-width="3.836"/></g><g transform="matrix(.3051 0 0 .3051 33.61 1023)" fill="none" fill-rule="evenodd" font-family="'Sans Serif'" font-size="31.75px" font-weight="400" stroke="#000000" stroke-linecap="round" stroke-linejoin="bevel" stroke-width="3.097"><path d="m-7.105 86.95c5.503-1.781 9.493-6.567 10.25-12.3" fill-rule="evenodd" stroke-width="3.836"/></g><g transform="matrix(.3051 0 0 .3051 33.61 1023)" fill="none" fill-rule="evenodd" font-family="'Sans Serif'" font-size="31.75px" font-weight="400" stroke="#000000" stroke-linecap="round" stroke-linejoin="bevel" stroke-width="3.097"><path d="m9.599 56.79c20.49-16.8 28.02-44.77 18.73-69.58-9.292-24.81-33.34-40.96-59.83-40.16" fill-rule="evenodd" stroke-width="3.836"/></g><g transform="matrix(.3051 0 0 .3051 33.61 1023)" fill="none" fill-rule="evenodd" font-family="'Sans Serif'" font-size="31.75px" font-weight="400" stroke="#000000" stroke-linecap="round" stroke-linejoin="bevel" stroke-width="3.097"><path d="m-24 90.45c5.742-0.5459 11.41-1.717 16.89-3.492" fill-rule="evenodd" stroke-width="3.836"/></g><g transform="matrix(.3051 0 0 .3051 33.61 1023)" fill="none" fill-rule="evenodd" font-family="'Sans Serif'" font-size="31.75px" font-weight="400" stroke="#000000" stroke-linecap="round" stroke-linejoin="bevel" stroke-width="3.097"><path d="m-24 57.45v33" fill-rule="evenodd" stroke-width="3.836"/></g><g transform="matrix(.3051 0 0 .3051 33.61 1023)" fill="none" fill-rule="evenodd" font-family="'Sans Serif'" font-size="31.75px" font-weight="400" stroke="#000000" stroke-linecap="round" stroke-linejoin="bevel" stroke-width="3.097"><path d="m-72.6 56.79c-20.49-16.8-28.02-44.77-18.73-69.58 9.292-24.81 33.34-40.96 59.83-40.16" fill-rule="evenodd" stroke-width="3.836"/></g><g transform="matrix(.3051 0 0 .3051 33.61 1023)" fill="none" fill-rule="evenodd" font-family="'Sans Serif'" font-size="31.75px" font-weight="400" stroke="#000000" stroke-linecap="round" stroke-linejoin="bevel" stroke-width="3.097"><path d="m-55.89 86.95c-5.504-1.781-9.493-6.567-10.25-12.3" fill-rule="evenodd" stroke-width="3.836"/></g><g transform="matrix(.3051 0 0 .3051 33.61 1023)" fill="none" fill-rule="evenodd" font-family="'Sans Serif'" font-size="31.75px" font-weight="400" stroke="#000000" stroke-linecap="round" stroke-linejoin="bevel" stroke-width="3.097"><path d="m-39 90.45c-5.742-0.5459-11.41-1.717-16.89-3.492" fill-rule="evenodd" stroke-width="3.836"/></g><g transform="matrix(.3051 0 0 .3051 33.61 1023)" fill="none" fill-rule="evenodd" font-family="'Sans Serif'" font-size="31.75px" font-weight="400" stroke="#000000" stroke-linecap="round" stroke-linejoin="bevel" stroke-width="3.097"><path d="m-39 57.45v33" fill-rule="evenodd" stroke-width="3.836"/></g><g transform="matrix(.3051 0 0 .3051 33.61 1023)" fill="none" fill-rule="evenodd" font-family="'Sans Serif'" font-size="31.75px" font-weight="400" stroke="#000000" stroke-linecap="round" stroke-linejoin="bevel" stroke-width="3.097"><path d="m-4.83 68.75c0 4.142-3.358 7.5-7.5 7.5-4.142 0-7.5-3.358-7.5-7.5 0-4.142 3.358-7.5 7.5-7.5 4.142 0 7.5 3.358 7.5 7.5" fill-rule="evenodd" stroke-width="3.836"/></g><g transform="matrix(.3051 0 0 .3051 33.61 1023)" fill="none" fill-rule="evenodd" font-family="'Sans Serif'" font-size="31.75px" font-weight="400" stroke="#000000" stroke-linecap="round" stroke-linejoin="bevel" stroke-width="3.097"><path d="m-43.17 68.75c0 4.142-3.358 7.5-7.5 7.5s-7.5-3.358-7.5-7.5c0-4.142 3.358-7.5 7.5-7.5s7.5 3.358 7.5 7.5" fill-rule="evenodd" stroke-width="3.836"/></g><g transform="matrix(.3051 0 0 .3051 33.61 1023)" fill="none" fill-rule="evenodd" font-family="'Sans Serif'" font-size="31.75px" font-weight="400" stroke="#000000" stroke-linecap="round" stroke-linejoin="bevel" stroke-width="3.097"><path d="m-31.5-34.95c-24.22 0-44.39 18.59-46.35 42.74-1.96 24.14 14.94 45.75 38.85 49.65" fill-rule="evenodd" stroke-width="3.836"/></g><g transform="matrix(.3051 0 0 .3051 33.61 1023)" fill="none" fill-rule="evenodd" font-family="'Sans Serif'" font-size="31.75px" font-weight="400" stroke="#000000" stroke-linecap="round" stroke-linejoin="bevel" stroke-width="3.097"><path d="m-31.5-34.95c24.22 0 44.39 18.59 46.35 42.74 1.96 24.14-14.94 45.75-38.85 49.65" fill-rule="evenodd" stroke-width="3.836"/></g></g></g></svg>
