<?xml version="1.0" encoding="UTF-8"?>
<svg version="1.1" viewBox="0 0 48 48" xmlns="http://www.w3.org/2000/svg">
 <title>DIN465</title>
 <path d="m3.1816 2.3691-0.44531 0.18555-1.0938 1.0957-0.18555 0.44531v6.9395l0.18555 0.44531 1.0938 1.0957 0.44531 0.18359h8.0352c-1.65e-4 -0.93065-4.22e-4 -0.93062 0.0039 0 0.3101-0.0013 0.63866 0.13966 0.85352 0.36328h2e-3l2e-3 2e-3c0.2086 0.21362 0.33715 0.5298 0.33594 0.82812 0.93063 0.0042 0.93065 0.0039 0 0.0039v16.434c0.62891 0.63086 0.25424 0.05088 0.62891 0.63086h5.3711c-0.0066-1.401 0.0047 0 0.0098 0 0.16219-0.0022 0.37296 0.14548 0.42578 0.29883l2e-3 0.0059 2e-3 0.0039c0.0069 0.01919 0.01115 0.03784 0.01563 0.05859 0.0071 0.03288 0.01171 0.06395 0.01172 0.09766v4.2734l-0.95117 2.6348-0.03906 0.21484v5.2949l0.18555 0.44531 1.0957 1.0957 0.44509 0.18547h8.7656l0.44531-0.18555 1.0957-1.0957 0.18359-0.44531v-5.2949c-0.03711-0.21484-0.0245-0.14185-0.03711-0.21484l-0.95117-2.6348v-4.2734c1e-5 -0.0337 0.0046-0.06478 0.01172-0.09766 0.0045-0.02067 0.0087-0.03926 0.01563-0.05859l2e-3 -0.0059 2e-3 -0.0039c0.05282-0.15335 0.2636-0.30107 0.42578-0.29883 0.01308-1.401 0.0084 0 0.0098 0h5.3711c0.62891-0.63086 0.05146-0.25551 0.62891-0.63086v-16.434c-0.93065 1.65e-4 -0.93062 4.22e-4 0-0.0039-0.0012-0.29832 0.12734-0.6145 0.33594-0.82812l2e-3 -2e-3h2e-3c0.21485-0.22361 0.54342-0.36461 0.85352-0.36328 0.0042-0.93063 0.0039-0.93065 0.0039 0h8.0332l0.44531-0.18359 1.0957-1.0957 0.18555-0.44531v-6.9394l-0.18577-0.44531-1.0957-1.0957-0.44531-0.18555h-19.355c-0.63086 0.63086 0 0-0.63086 0.63086v5.7617h-1.6621v-4.666h2e-3v-1.0957l-0.63086-0.63086z" color="#000000" fill="#ffaf00" style="-inkscape-stroke:none"/>
 <path transform="translate(3.4192 -.43489)" d="m6 11.166v-6.3317m30.046 6.3317v-6.3317m-25.207 6.3317v-6.3317m15.169 6.3317v-6.3317m-10.113 6.3317v-6.3317m24.105 6.3317v-6.3317m-8.9356 6.3317v-6.3317m-29.903 6.3317v-6.3317" fill="#ffaf00" stroke="#000000" stroke-width="1.037"/>
 <path d="m22.539 9.3912h2.9216m-2.9215-6.3913-19.357 1.353e-4m22.278-1.353e-4 19.356 1.353e-4m-41.635 9.1301 8.0349 1.74e-4m25.565 0 8.0346-1.74e-4m-15.232 18.261 5.371 1.74e-4m-21.913 0 5.3708-1.74e-4m1.2029 14.609h8.7654m-8.7654 0-1.0958-1.0958m9.8611 1.0958 1.0953-1.0958m0-5.2954v5.2954m-10.956-5.2954v5.2954m0.98853-8.0348-0.98853 2.7395m9.9684-2.7395 0.98805 2.7395m-0.98805-7.1222v4.3827m-8.9799-4.3827v4.3827m8.9797-4.3825c2.4e-5 -0.07774 0.0082-0.1546 0.02454-0.2306 0.01029-0.04774 0.02368-0.09458 0.04025-0.14054 0.1469-0.42648 0.57985-0.73076 1.0309-0.72451m-10.075 1.0956c-2.5e-5 -0.07774-0.0082-0.1546-0.02454-0.2306-0.01029-0.04774-0.02367-0.09458-0.04025-0.14054-0.1469-0.42648-0.57985-0.73076-1.0309-0.72451m16.542-16.435v16.435m-21.913-16.435v16.435m21.913-16.435c-0.0019-0.46911 0.18698-0.93517 0.51473-1.2708 0.33836-0.35216 0.82299-0.55738 1.3114-0.55529m-23.739 1.8261c0.0019-0.46911-0.18698-0.93517-0.51473-1.2708-0.33836-0.35216-0.823-0.55738-1.3114-0.55529m33.6-9.1303 1.0958 1.0953m-42.73 8.0348-1.0953-1.0953m42.73 1.0953 1.0958-1.0953m0-6.9395v6.9395m-43.826-6.9395v6.9395m1.0953-8.0348-1.0953 1.0953m23.374-1.0954q0 0.53378 0 1.0957m-2.22e-4 -2.125e-4v5.2958m-2.9216-5.2958v5.2958m1.06e-4 -6.3913q0 0.53378 0 1.0957" fill="none" stroke="#000000" stroke-width="1.26"/>
</svg>
