<?xml version="1.0" encoding="UTF-8"?>
<svg version="1.1" viewBox="0 0 48 48" xmlns="http://www.w3.org/2000/svg">
 <title>DIN464</title>
 <path d="m3.6426 3.166c-0.21094 0.087891-0.14122 0.05884-0.21094 0.087891l-1.0703 1.0703c-0.087891 0.21094-0.058621 0.14069-0.087891 0.21094v6.7871c0.087891 0.20898 0.059232 0.14084 0.087891 0.20898l1.0703 1.0723c0.21094 0.08594 0.14228 0.05796 0.21094 0.08594h7.8574v-0.29688l2e-3 0.29688c0.39334-0.0017 0.79388 0.16948 1.0664 0.45312v2e-3c0.26422 0.27058 0.42149 0.65519 0.41992 1.0332v16.072l0.29688 0.29688h5.252c-0.0039-0.71223 0.0028 0 0.0059 0 0.30459-0.0042 0.62149 0.2198 0.7207 0.50781l2e-3 2e-3v2e-3c0.03058 0.08526 0.04654 0.17115 0.04687 0.26172 2e-6 6.56e-4 -1e-6 0.0013 0 2e-3v4.2324l-0.94922 2.6309c-0.01758 0.09961-0.01159 0.06569-0.01758 0.09961v5.1797c0.08594 0.20898 0.057 0.13861 0.08594 0.20898l1.0723 1.0723c0.21094 0.08789 0.14004 0.05835 0.21094 0.08789h8.5703c0.21094-0.08789 0.14122-0.05884 0.21094-0.08789l1.0723-1.0723c0.08594-0.20898 0.05759-0.14004 0.08594-0.20898v-5.1797c-0.01758-0.09961-0.01185-0.06713-0.01758-0.09961l-0.94922-2.6309v-4.2344c8.64e-4 -0.4301 0.34506-0.77344 0.77539-0.77344h5.252c0.29688-0.29697 0.19794-0.198 0.29688-0.29697v-16.072c-1e-6 -0.82536 0.66292-1.4883 1.4883-1.4883h7.8574c0.20898-0.08594 0.13861-0.057 0.20898-0.08594l1.0723-1.0723c0.08789-0.20898 0.05796-0.13782 0.08789-0.20898v-6.7871c-0.088019-0.21094-0.058713-0.14071-0.088019-0.21094l-1.0723-1.0703c-0.20898-0.087891-0.13782-0.057961-0.20898-0.087891z" color="#000000" fill="#ffaf00" style="-inkscape-stroke:none"/>
 <path d="m34.714 30.25-5.2523-1.7e-4m14.895-17.857-7.857 1.69e-4m-32.857-8.9285h40.714m-40.714 8.9283 7.8573 1.69e-4m7.038 17.857-5.2521 1.7e-4m6.4285 14.286h8.5716m-8.5716 0-1.0716-1.0716m0-5.1783v5.1783m0.96668-7.8572-0.96668 2.6789m0.96668-6.9647v4.2858m-5e-6 -4.2856c-1.66e-4 -0.12464-0.02126-0.24561-0.06334-0.36293-0.14366-0.41705-0.56703-0.71461-1.0081-0.7085m-5.2521-16.071v16.072m-1.51e-4 -16.072c0.0019-0.45874-0.18285-0.91449-0.50335-1.2427-0.33088-0.34438-0.8048-0.54506-1.2824-0.54302m-7.8573-1.69e-4 -1.0711-1.0711m0-6.7861v6.7861m1.0711-7.8572-1.0711 1.0711m26.785 38.929-1.0711 1.0716m1.0711-6.2499v5.1783m-0.96621-7.8572 0.96621 2.6789m-0.96621-6.9647v4.2858m1.0713-5.3571a1.0714 1.0714 0 0 0-1.0714 1.0714m6.3237-17.143v16.072m1.7857-17.857a1.7857 1.7857 0 0 0-1.7857 1.7857m10.714-2.857-1.0716 1.0711m1.0716-7.8572v6.7861m-1.0716-7.8572 1.0716 1.0711" fill="none" stroke="#000000" stroke-width=".59532"/>
 <path transform="translate(4)" d="m6 11.166v-6.3317m30.046 6.3317v-6.3317m-25.207 6.3317v-6.3317m10.113 6.3317v-6.3317m5.0564 6.3317v-6.3317m-10.113 6.3317v-6.3317m24.105 6.3317v-6.3317m-8.9356 6.3317v-6.3317m-29.903 6.3317v-6.3317" fill="#ffaf00" stroke="#000000" stroke-width="1.037"/>
</svg>
