<?xml version="1.0" encoding="UTF-8"?>
<!-- Created with Inkscape (http://www.inkscape.org/) -->
<svg width="48" height="48" version="1.1" viewBox="0 0 48 48" xml:space="preserve" xmlns="http://www.w3.org/2000/svg" xmlns:cc="http://creativecommons.org/ns#" xmlns:dc="http://purl.org/dc/elements/1.1/" xmlns:rdf="http://www.w3.org/1999/02/22-rdf-syntax-ns#"><metadata><rdf:RDF><cc:Work rdf:about=""><dc:format>image/svg+xml</dc:format><dc:type rdf:resource="http://purl.org/dc/dcmitype/StillImage"/></cc:Work></rdf:RDF></metadata><g transform="translate(0 -1004)"><g transform="matrix(1.029 0 0 1.029 -.8366 -29.3)" stroke-width=".972"><path d="m24.14 1008c-10.58 0-19.41 8.089-20.33 18.63-0.9222 10.54 6.365 20.04 16.79 21.88l1.051-5.955c0.977-2.182 0.5149-4.74-1.162-6.443-1.677-1.704-4.227-2.204-6.424-1.262-1.343 0.5761-2.88 0.4715-4.131-0.2832-1.251-0.7547-2.061-2.067-2.178-3.524-0.3655-4.573 1.197-9.09 4.309-12.46 3.112-3.371 7.492-5.289 12.08-5.289s8.966 1.918 12.08 5.289c3.112 3.371 4.676 7.888 4.311 12.46-0.1164 1.456-0.9287 2.769-2.18 3.524-1.251 0.7547-2.788 0.8593-4.131 0.2832-2.197-0.9425-4.746-0.4418-6.424 1.262-1.677 1.704-2.137 4.262-1.16 6.443l1.049 5.955c10.42-1.838 17.71-11.33 16.79-21.88-0.9226-10.54-9.75-18.63-20.33-18.63zm-7.789 30.21c1.253 0 2.27 1.015 2.27 2.268 0 1.252-1.017 2.268-2.27 2.268-1.252 0-2.268-1.015-2.268-2.268 0-1.252 1.015-2.268 2.268-2.268zm15.58 0c1.252 0 2.268 1.015 2.268 2.268 0 1.252-1.015 2.268-2.268 2.268-1.253 0-2.268-1.015-2.268-2.268 0-1.252 1.015-2.268 2.268-2.268z" fill="#ffaa00"/><path d="m18.62 1040c0 1.252-1.015 2.268-2.268 2.268-1.252 0-2.268-1.015-2.268-2.268 0-1.252 1.016-2.268 2.268-2.268 1.253 0 2.268 1.015 2.268 2.268" fill="none" fill-rule="evenodd" stroke="#000000" stroke-linecap="round" stroke-linejoin="bevel" stroke-width=".9185"/><g transform="matrix(.378 0 0 .378 113.2 1024)" fill="none" fill-rule="evenodd" font-family="'Sans Serif'" font-size="31.75px" font-weight="400" stroke="#000000" stroke-linecap="round" stroke-linejoin="bevel" stroke-width="2.43"><path d="m-228.9 48.98c-2.585-5.773-1.365-12.54 3.072-17.05 4.438-4.507 11.18-5.832 17-3.339" fill-rule="evenodd" stroke-width="2.362"/></g><g transform="matrix(.378 0 0 .378 113.2 1024)" fill="none" fill-rule="evenodd" font-family="'Sans Serif'" font-size="31.75px" font-weight="400" stroke="#000000" stroke-linecap="round" stroke-linejoin="bevel" stroke-width="2.43"><path d="m-208.8 28.59c3.553 1.524 7.622 1.244 10.93-0.7531 3.31-1.997 5.455-5.466 5.763-9.319" fill-rule="evenodd" stroke-width="2.362"/></g><g transform="matrix(.378 0 0 .378 113.2 1024)" fill="none" fill-rule="evenodd" font-family="'Sans Serif'" font-size="31.75px" font-weight="400" stroke="#000000" stroke-linecap="round" stroke-linejoin="bevel" stroke-width="2.43"><path d="m-226.1 64.73-2.778-15.76" fill-rule="evenodd" stroke-width="2.362"/></g><g transform="matrix(.378 0 0 .378 113.2 1024)" fill="none" fill-rule="evenodd" font-family="'Sans Serif'" font-size="31.75px" font-weight="400" stroke="#000000" stroke-linecap="round" stroke-linejoin="bevel" stroke-width="2.43"><path d="m-242.1 48.98c2.585-5.773 1.365-12.54-3.072-17.05-4.438-4.507-11.18-5.832-17-3.339" fill-rule="evenodd" stroke-width="2.362"/></g><g transform="matrix(.378 0 0 .378 113.2 1024)" fill="none" fill-rule="evenodd" font-family="'Sans Serif'" font-size="31.75px" font-weight="400" stroke="#000000" stroke-linecap="round" stroke-linejoin="bevel" stroke-width="2.43"><path d="m-262.2 28.59c-3.553 1.524-7.622 1.244-10.93-0.7531-3.31-1.997-5.455-5.466-5.763-9.319" fill-rule="evenodd" stroke-width="2.362"/></g><g transform="matrix(.378 0 0 .378 113.2 1024)" fill="none" fill-rule="evenodd" font-family="'Sans Serif'" font-size="31.75px" font-weight="400" stroke="#000000" stroke-linecap="round" stroke-linejoin="bevel" stroke-width="2.43"><path d="m-244.9 64.73 2.778-15.76" fill-rule="evenodd" stroke-width="2.362"/></g><g transform="matrix(.378 0 0 .378 113.2 1024)" fill="none" fill-rule="evenodd" font-family="'Sans Serif'" font-size="31.75px" font-weight="400" stroke="#000000" stroke-linecap="round" stroke-linejoin="bevel" stroke-width="2.43"><path d="m-208.9 43.48c0 3.314-2.687 6-6 6-3.314 0-6-2.686-6-6 0-3.314 2.686-6 6-6 3.313 0 6 2.686 6 6" fill-rule="evenodd" stroke-width="2.362"/></g><g transform="matrix(.378 0 0 .378 113.2 1024)" fill="none" fill-rule="evenodd" font-family="'Sans Serif'" font-size="31.75px" font-weight="400" stroke="#000000" stroke-linecap="round" stroke-linejoin="bevel" stroke-width="2.43"><path d="m-235.5-42.45c28 0 51.35 21.4 53.8 49.29 2.44 27.89-16.84 53.02-44.42 57.89" fill-rule="evenodd" stroke-width="2.362"/></g><g transform="matrix(.378 0 0 .378 113.2 1024)" fill="none" fill-rule="evenodd" font-family="'Sans Serif'" font-size="31.75px" font-weight="400" stroke="#000000" stroke-linecap="round" stroke-linejoin="bevel" stroke-width="2.43"><path d="m-235.5-42.45c-28 0-51.35 21.4-53.8 49.29-2.44 27.89 16.84 53.02 44.42 57.89" fill-rule="evenodd" stroke-width="2.362"/></g><g transform="matrix(.378 0 0 .378 113.2 1024)" fill="none" fill-rule="evenodd" font-family="'Sans Serif'" font-size="31.75px" font-weight="400" stroke="#000000" stroke-linecap="round" stroke-linejoin="bevel" stroke-width="2.43"><path d="m-278.9 18.52c-0.967-12.1 3.167-24.05 11.4-32.97 8.235-8.919 19.82-13.99 31.96-13.99" fill-rule="evenodd" stroke-width="2.362"/></g><g transform="matrix(.378 0 0 .378 113.2 1024)" fill="none" fill-rule="evenodd" font-family="'Sans Serif'" font-size="31.75px" font-weight="400" stroke="#000000" stroke-linecap="round" stroke-linejoin="bevel" stroke-width="2.43"><path d="m-192.1 18.52c0.967-12.1-3.167-24.05-11.4-32.97-8.235-8.919-19.82-13.99-31.96-13.99" fill-rule="evenodd" stroke-width="2.362"/></g></g></g></svg>
