<?xml version="1.0" encoding="UTF-8"?>
<svg width="48" height="48" version="1.1" viewBox="0 0 48 48" xmlns="http://www.w3.org/2000/svg">
 <g transform="translate(-50.44 .6769)" stroke="#000000" stroke-width="1.002">
  <path d="m79.37 3.785c-1.309-0.755-2.611-1.181-4.349-1.424-0.3878-0.01404-0.7767-0.01404-1.165 0-1.738 0.2427-3.04 0.6691-4.349 1.424m9.862 0c0.6535 0.3814 1.308 0.848 2.013 1.435 0.2026 0.1705 0.4091 0.3495 0.6195 0.5369 0.1073 0.09784 0.2147 0.1957 0.322 0.2935l0.3315 0.3115c0.114 0.1102 0.2281 0.2204 0.3421 0.3306 0.1179 0.1169 0.2359 0.2337 0.3538 0.3506 0.1222 0.1239 0.2445 0.2479 0.3667 0.3718 0.01208 0.1126 0.01836 0.2255 0.01836 0.3383v6.354c0.8171 0.5917 1.474 1.259 1.97 2.001 0.6081 0.913 0.9161 1.908 0.9251 3.021l0.01046 2.803c0.0086 2.32-1.953 4.494-5.23 5.819v12.14c0 1.075-0.7347 2.105-2.042 2.865l-0.9862 0.573c-2.179 1.266-5.711 1.266-7.89 0l-0.9862-0.573c-1.308-0.7599-2.042-1.791-2.042-2.865v-12.14c-3.277-1.326-5.23-3.499-5.23-5.819v-2.865c-0.0023-1.026 0.3274-2.046 0.9356-2.959 0.1983-0.2985 0.4246-0.5858 0.6789-0.8618 0.376-0.4078 0.8064-0.7874 1.291-1.139v-6.354c0-0.1129 6e-3 -0.2257 0.01813-0.3383 0.1222-0.1239 0.2445-0.2479 0.3667-0.3718l0.3539-0.3506 0.3421-0.3306 0.3315-0.3115c0.1073-0.09784 0.2147-0.1957 0.322-0.2935 0.1045-0.09218 0.209-0.1843 0.3135-0.2765 0.102-0.08679 0.204-0.1736 0.306-0.2604 0.7049-0.5868 1.36-1.053 2.013-1.435" fill="#ffaa00"/>
  <path d="m73.86 22.83h1.165" fill="none" stroke-linecap="round" stroke-linejoin="round"/>
  <path d="m73.86 12.47h1.165" fill="none" stroke-linecap="round" stroke-linejoin="round"/>
  <path d="m75.02 22.83 8.697-5.054v-10.36s-3.106 0.3954-4.887 1.757c-1.781 1.362-3.81 3.296-3.81 3.296z" fill="#ffaa00" stroke-linecap="round" stroke-linejoin="round"/>
  <path d="m65.16 17.77 8.697 5.054v-10.36s-1.827-1.87-3.953-3.389c-2.127-1.519-4.744-1.665-4.744-1.665z" fill="#ffaa00" stroke-linecap="round" stroke-linejoin="round"/>
  <path d="m65.14 14.11 4.96e-4 0.5541s-1.404 1.163-1.659 2.659 0.1634 2.546 1.03 3.617c0.8662 1.071 3.172 2.724 6.838 3.324s6.646 0.08366 8.984-0.7339c2.338-0.8175 4.54-2.569 4.954-4.23s-0.074-2.936-0.6177-3.622c-0.5436-0.6853-0.9205-1.026-0.9205-1.026l-0.0134-0.5341s1.428 0.992 2.191 2.321c0.7629 1.329 1.054 3.209 0.1665 4.724-0.8874 1.515-2.684 3.273-6.016 4.187s-5.771 1.004-8.794 0.5758c-3.023-0.4277-4.795-1.412-6.253-2.347-1.458-0.935-2.59-2.436-2.779-4.131-0.1887-1.695 0.5834-2.84 1.208-3.754 0.6243-0.914 1.681-1.584 1.681-1.584z" fill="#ffaa00" stroke-linecap="round" stroke-linejoin="round"/>
  <path d="m81.41 27.75s-2.916 1.271-6.798 1.271c-4.514 0-7.096-1.256-7.096-1.256" fill="#ffaa00" stroke-linecap="round" stroke-linejoin="round"/>
 </g>
</svg>
