<?xml version="1.0" encoding="UTF-8"?>
<svg width="48" height="48" version="1.1" viewBox="0 0 180 175" xmlns="http://www.w3.org/2000/svg">
 <g transform="translate(.956 1.2)" fill="#ffaf00">
  <path d="m3.23 91.7 0.01 34.1 13.4 16.8 82 26.6 13.6-8.65 62.7-60.6-0.01-34.1-20.9-6.79v-31.1l-67-21.8-63 61.2v3.87l-20.9 20.4"/>
 </g>
 <g transform="translate(.956 1.2)" fill="none" stroke="#000000" stroke-linecap="round" stroke-linejoin="round" stroke-width="2.4">
  <path d="m16.8 142 82.1 26.1 13.3-8.05 63-61.2-0.2-33.6-62.9 60.8-20.9-6.8 63-61.2v-31.1l-63 61.2-67-21.8 63-61.2 66.9 21.8"/>
  <path d="m112 160-0.1-34"/>
  <path d="m91.2 119v-30"/>
  <path d="m24.3 67.3v31.1l-20.9-6.82v34.1l13.4 16.3"/>
  <path d="m175 65.2-20.8-7.2"/>
  <path d="m96.8 63.4c7.45-0.82 15.8-3.51 19.5-10.4 2.47-5.49-1.33-11.5-6.32-14.1-8.43-4.87-18.9-5.34-28.3-3.94-7.06 1.23-15.3 5.09-16.5 12.8-0.95 6.08 3.85 10.5 8.93 12.6 6.8 2.9 15.3 3.63 22.7 2.98"/>
  <path d="m3.43 91.5 20.9-20.4"/>
  <path d="m113 50.4c-2.73-11-16-14.3-26-14.4-7.81-0.03-17.8 2.23-21.3 9.94"/>
  <path d="m101 38.3c-8.35-2.45-18.5-2.47-26.3-0.218"/>
  <path d="m112 53.2c-2.95-5.45-8.8-8.72-14.7-10.2-6.21-1.5-12.8-1.71-19-0.385-4.58 1.06-9.23 3.28-11.9 7.21-0.431 0.7-0.767 1.46-0.957 2.25"/>
  <path d="m98.4 63.2c5.88-1.7 12.1-5.03 14.3-11 1.39-4.31-0.82-8.95-4.31-11.6-4.44-3.74-10.3-5.4-16-6.21"/>
  <path d="m111 53.2c-6.81-7.68-18.1-10.2-28.6-9.16-6.06 0.782-13.3 3-16.2 8.88"/>
  <path d="m101 46c-8.35-2.45-18.5-2.47-26.3-0.218"/>
  <path d="m110 57.1c-6.58-6.11-16.1-7.95-24.9-7.51-5.96 0.323-12.2 1.96-16.6 6.06"/>
  <path d="m108 58.1c-4.57-3.94-12.4-6.44-20.2-6.61-7.77-0.241-15.3 1.84-19.2 5.19"/>
  <path d="m101 53.8c-9.96-2.63-21.2-3.03-30.6 1.85"/>
  <path d="m104 61c-4.3-2.19-9.77-3.49-15.3-3.69-5.47-0.212-10.9 0.687-15 2.43"/>
  <path d="m102 61.9c-3.85-1.58-8.4-2.53-13-2.72-4.54-0.196-9.05 0.362-12.9 1.54"/>
  <path d="m101 61.6c-7.75-2.26-16.9-2.47-24.5-0.673"/>
 </g>
</svg>
