<?xml version="1.0" encoding="UTF-8" standalone="no"?>
<svg
   xmlns:dc="http://purl.org/dc/elements/1.1/"
   xmlns:cc="http://creativecommons.org/ns#"
   xmlns:rdf="http://www.w3.org/1999/02/22-rdf-syntax-ns#"
   xmlns:svg="http://www.w3.org/2000/svg"
   xmlns="http://www.w3.org/2000/svg"
   version="1.1"
   id="svg15825"
   viewBox="0 0 48.000001 48.000001"
   height="48"
   width="48">
  <defs
     id="defs15827" />
  <metadata
     id="metadata15830">
    <rdf:RDF>
      <cc:Work
         rdf:about="">
        <dc:format>image/svg+xml</dc:format>
        <dc:type
           rdf:resource="http://purl.org/dc/dcmitype/StillImage" />
        <dc:title></dc:title>
      </cc:Work>
    </rdf:RDF>
  </metadata>
  <g
     transform="translate(0,-1004.3622)"
     id="layer1">
    <g
       transform="matrix(0.04808848,0,0,0.04808848,24.499951,1029.7653)"
       font-size="29.1042"
       font-weight="400"
       font-style="normal"
       id="g5205"
       style="font-style:normal;font-weight:400;font-size:29.10420036px;font-family:'MS Shell Dlg 2';fill:#ffffff;fill-opacity:1;fill-rule:evenodd;stroke:none;stroke-width:18.59073109;stroke-linecap:square;stroke-linejoin:bevel;stroke-miterlimit:4;stroke-dasharray:none" />
    <g
       id="g7146">
      <g
         style="font-style:normal;font-weight:400;font-size:29.10420036px;font-family:'MS Shell Dlg 2';fill:#ffaa00;fill-opacity:1;fill-rule:evenodd;stroke:none;stroke-width:19.90160061;stroke-linecap:square;stroke-linejoin:bevel;stroke-miterlimit:4;stroke-dasharray:none"
         id="g4711"
         font-style="normal"
         font-weight="400"
         font-size="29.1042"
         transform="matrix(0.04492101,0,0,0.04492101,24.140633,1029.1601)">
        <path
           style="vector-effect:non-scaling-stroke;fill-rule:evenodd;fill:#ffaa00;fill-opacity:1;stroke-width:19.90160061;stroke-miterlimit:4;stroke-dasharray:none"
           id="path4709"
           d="M -452.548,87.141 0,348.42 452.548,87.141 V -87.141 l -38.602,-39.637 -35.622,-34.806 -33.209,-30.528 -31.323,-26.734 -29.933,-23.363 -29.019,-20.366 -28.566,-17.689 -28.565,-15.295 -29.02,-13.144 -29.933,-11.2 -31.322,-9.434 -33.2093,-7.819 -35.6228,-6.328 L 0,-348.42 l -38.6019,4.936 -35.6228,6.328 -33.2093,7.819 -31.322,9.434 -29.933,11.2 -29.02,13.144 -28.565,15.295 -28.566,17.689 -29.019,20.366 -29.933,23.363 -31.323,26.734 -33.209,30.528 -35.622,34.806 -38.602,39.637 V 87.141" />
      </g>
      <g
         style="font-style:normal;font-weight:400;font-size:29.10420036px;font-family:'MS Shell Dlg 2';fill:none;fill-rule:evenodd;stroke:#000000;stroke-width:19.90160061;stroke-linecap:round;stroke-linejoin:bevel;stroke-opacity:1;stroke-miterlimit:4;stroke-dasharray:none"
         id="g4839"
         font-style="normal"
         font-weight="400"
         font-size="29.1042"
         transform="matrix(0.04492101,0,0,0.04492101,24.140633,1029.1601)">
        <path
           style="vector-effect:none;fill-rule:evenodd;stroke-width:19.90160061;stroke-miterlimit:4;stroke-dasharray:none"
           id="path4837"
           d="M 129.12,-85.9563 C 154.243,-103.382 168,-125.338 168,-148.01" />
      </g>
      <g
         style="font-style:normal;font-weight:400;font-size:29.10420036px;font-family:'MS Shell Dlg 2';fill:none;fill-rule:evenodd;stroke:#000000;stroke-width:19.90160061;stroke-linecap:round;stroke-linejoin:bevel;stroke-opacity:1;stroke-miterlimit:4;stroke-dasharray:none"
         id="g4847"
         font-style="normal"
         font-weight="400"
         font-size="29.1042"
         transform="matrix(0.04492101,0,0,0.04492101,24.140633,1029.1601)">
        <path
           style="vector-effect:none;fill-rule:evenodd;stroke-width:19.90160061;stroke-miterlimit:4;stroke-dasharray:none"
           id="path4845"
           d="m 168,-148.01 c 0,-53.569 -75.2162,-96.995 -168,-96.995 -92.7838,0 -168,43.426 -168,96.995" />
      </g>
      <g
         style="font-style:normal;font-weight:400;font-size:29.10420036px;font-family:'MS Shell Dlg 2';fill:none;fill-rule:evenodd;stroke:#000000;stroke-width:19.90160061;stroke-linecap:round;stroke-linejoin:bevel;stroke-opacity:1;stroke-miterlimit:4;stroke-dasharray:none"
         id="g4855"
         font-style="normal"
         font-weight="400"
         font-size="29.1042"
         transform="matrix(0.04492101,0,0,0.04492101,24.140633,1029.1601)">
        <path
           style="vector-effect:none;fill-rule:evenodd;stroke-width:19.90160061;stroke-miterlimit:4;stroke-dasharray:none"
           id="path4853"
           d="m -168,-148.01 c 0,22.672 13.757,44.628 38.88,62.0537" />
      </g>
      <g
         style="font-style:normal;font-weight:400;font-size:29.10420036px;font-family:'MS Shell Dlg 2';fill:none;fill-rule:evenodd;stroke:#000000;stroke-width:19.90160061;stroke-linecap:round;stroke-linejoin:bevel;stroke-opacity:1;stroke-miterlimit:4;stroke-dasharray:none"
         id="g4863"
         font-style="normal"
         font-weight="400"
         font-size="29.1042"
         transform="matrix(0.04492101,0,0,0.04492101,24.140633,1029.1601)">
        <path
           style="vector-effect:none;fill-rule:evenodd;stroke-width:19.90160061;stroke-miterlimit:4;stroke-dasharray:none"
           id="path4861"
           d="M -452.548,87.141 0,348.42" />
      </g>
      <g
         style="font-style:normal;font-weight:400;font-size:29.10420036px;font-family:'MS Shell Dlg 2';fill:none;fill-rule:evenodd;stroke:#000000;stroke-width:19.90160061;stroke-linecap:round;stroke-linejoin:bevel;stroke-opacity:1;stroke-miterlimit:4;stroke-dasharray:none"
         id="g4871"
         font-style="normal"
         font-weight="400"
         font-size="29.1042"
         transform="matrix(0.04492101,0,0,0.04492101,24.140633,1029.1601)">
        <path
           style="vector-effect:none;fill-rule:evenodd;stroke-width:19.90160061;stroke-miterlimit:4;stroke-dasharray:none"
           id="path4869"
           d="M 0,348.42 452.548,87.141" />
      </g>
      <g
         style="font-style:normal;font-weight:400;font-size:29.10420036px;font-family:'MS Shell Dlg 2';fill:none;fill-rule:evenodd;stroke:#000000;stroke-width:19.90160061;stroke-linecap:round;stroke-linejoin:bevel;stroke-opacity:1;stroke-miterlimit:4;stroke-dasharray:none"
         id="g4879"
         font-style="normal"
         font-weight="400"
         font-size="29.1042"
         transform="matrix(0.04492101,0,0,0.04492101,24.140633,1029.1601)">
        <path
           style="vector-effect:none;fill-rule:evenodd;stroke-width:19.90160061;stroke-miterlimit:4;stroke-dasharray:none"
           id="path4877"
           d="m 141.421,-92.4883 c 78.105,-45.0937 78.105,-118.2057 0,-163.2997 -78.1045,-45.093 -204.7375,-45.093 -282.842,0 -78.105,45.094 -78.105,118.206 0,163.2997" />
      </g>
      <g
         style="font-style:normal;font-weight:400;font-size:29.10420036px;font-family:'MS Shell Dlg 2';fill:none;fill-rule:evenodd;stroke:#000000;stroke-width:19.90160061;stroke-linecap:round;stroke-linejoin:bevel;stroke-opacity:1;stroke-miterlimit:4;stroke-dasharray:none"
         id="g4887"
         font-style="normal"
         font-weight="400"
         font-size="29.1042"
         transform="matrix(0.04492101,0,0,0.04492101,24.140633,1029.1601)">
        <path
           style="vector-effect:none;fill-rule:evenodd;stroke-width:19.90160061;stroke-miterlimit:4;stroke-dasharray:none"
           id="path4885"
           d="m -141.421,-92.4883 c 78.1045,45.0939 204.7375,45.0939 282.842,0" />
      </g>
      <g
         style="font-style:normal;font-weight:400;font-size:29.10420036px;font-family:'MS Shell Dlg 2';fill:none;fill-rule:evenodd;stroke:#000000;stroke-width:19.90160061;stroke-linecap:round;stroke-linejoin:bevel;stroke-opacity:1;stroke-miterlimit:4;stroke-dasharray:none"
         id="g4895"
         font-style="normal"
         font-weight="400"
         font-size="29.1042"
         transform="matrix(0.04492101,0,0,0.04492101,24.140633,1029.1601)">
        <path
           style="vector-effect:none;fill-rule:evenodd;stroke-width:19.90160061;stroke-miterlimit:4;stroke-dasharray:none"
           id="path4893"
           d="M -452.548,87.141 V -87.141" />
      </g>
      <g
         style="font-style:normal;font-weight:400;font-size:29.10420036px;font-family:'MS Shell Dlg 2';fill:none;fill-rule:evenodd;stroke:#000000;stroke-width:19.90160061;stroke-linecap:round;stroke-linejoin:bevel;stroke-opacity:1;stroke-miterlimit:4;stroke-dasharray:none"
         id="g4903"
         font-style="normal"
         font-weight="400"
         font-size="29.1042"
         transform="matrix(0.04492101,0,0,0.04492101,24.140633,1029.1601)">
        <path
           style="vector-effect:none;fill-rule:evenodd;stroke-width:19.90160061;stroke-miterlimit:4;stroke-dasharray:none"
           id="path4901"
           d="m -452.548,-87.141 38.602,-39.637 35.622,-34.806 33.209,-30.528 31.323,-26.734 29.933,-23.363 29.019,-20.366 28.566,-17.689 28.565,-15.295 29.02,-13.144 29.933,-11.2 31.322,-9.434 33.2093,-7.819 35.6228,-6.328 L 0,-348.42" />
      </g>
      <g
         style="font-style:normal;font-weight:400;font-size:29.10420036px;font-family:'MS Shell Dlg 2';fill:none;fill-rule:evenodd;stroke:#000000;stroke-width:19.90160061;stroke-linecap:round;stroke-linejoin:bevel;stroke-opacity:1;stroke-miterlimit:4;stroke-dasharray:none"
         id="g4911"
         font-style="normal"
         font-weight="400"
         font-size="29.1042"
         transform="matrix(0.04492101,0,0,0.04492101,24.140633,1029.1601)">
        <path
           style="vector-effect:none;fill-rule:evenodd;stroke-width:19.90160061;stroke-miterlimit:4;stroke-dasharray:none"
           id="path4909"
           d="M 0,348.42 V 174.138" />
      </g>
      <g
         style="font-style:normal;font-weight:400;font-size:29.10420036px;font-family:'MS Shell Dlg 2';fill:none;fill-rule:evenodd;stroke:#000000;stroke-width:19.90160061;stroke-linecap:round;stroke-linejoin:bevel;stroke-opacity:1;stroke-miterlimit:4;stroke-dasharray:none"
         id="g4919"
         font-style="normal"
         font-weight="400"
         font-size="29.1042"
         transform="matrix(0.04492101,0,0,0.04492101,24.140633,1029.1601)">
        <path
           style="vector-effect:none;fill-rule:evenodd;stroke-width:19.90160061;stroke-miterlimit:4;stroke-dasharray:none"
           id="path4917"
           d="m 0,174.138 -38.6019,-39.637 -35.6228,-34.8066 -33.2093,-30.5275 -31.322,-26.7336 -29.933,-23.3639 -29.02,-20.36513 -28.565,-17.68967 -28.566,-15.2951 -29.019,-13.1432 -29.933,-11.2 -31.323,-9.4346 -33.209,-7.8189 -35.622,-6.3274 -38.602,-4.9364" />
      </g>
      <g
         style="font-style:normal;font-weight:400;font-size:29.10420036px;font-family:'MS Shell Dlg 2';fill:none;fill-rule:evenodd;stroke:#000000;stroke-width:19.90160061;stroke-linecap:round;stroke-linejoin:bevel;stroke-opacity:1;stroke-miterlimit:4;stroke-dasharray:none"
         id="g4927"
         font-style="normal"
         font-weight="400"
         font-size="29.1042"
         transform="matrix(0.04492101,0,0,0.04492101,24.140633,1029.1601)">
        <path
           style="vector-effect:none;fill-rule:evenodd;stroke-width:19.90160061;stroke-miterlimit:4;stroke-dasharray:none"
           id="path4925"
           d="M 452.548,87.141 V -87.141" />
      </g>
      <g
         style="font-style:normal;font-weight:400;font-size:29.10420036px;font-family:'MS Shell Dlg 2';fill:none;fill-rule:evenodd;stroke:#000000;stroke-width:19.90160061;stroke-linecap:round;stroke-linejoin:bevel;stroke-opacity:1;stroke-miterlimit:4;stroke-dasharray:none"
         id="g4935"
         font-style="normal"
         font-weight="400"
         font-size="29.1042"
         transform="matrix(0.04492101,0,0,0.04492101,24.140633,1029.1601)">
        <path
           style="vector-effect:none;fill-rule:evenodd;stroke-width:19.90160061;stroke-miterlimit:4;stroke-dasharray:none"
           id="path4933"
           d="m 452.548,-87.141 -19.71,2.2997 -18.892,2.6367 -18.147,2.984 -17.475,3.3434 -16.873,3.7158 -16.336,4.1031 -15.866,4.5066 -15.457,4.928 -15.11,5.3689 -14.823,5.8311 -14.595,6.3164 -14.424,6.8268 -14.311,7.3642 -14.255,7.9309" />
      </g>
      <g
         style="font-style:normal;font-weight:400;font-size:29.10420036px;font-family:'MS Shell Dlg 2';fill:none;fill-rule:evenodd;stroke:#000000;stroke-width:19.90160061;stroke-linecap:round;stroke-linejoin:bevel;stroke-opacity:1;stroke-miterlimit:4;stroke-dasharray:none"
         id="g4943"
         font-style="normal"
         font-weight="400"
         font-size="29.1042"
         transform="matrix(0.04492101,0,0,0.04492101,24.140633,1029.1601)">
        <path
           style="vector-effect:none;fill-rule:evenodd;stroke-width:19.90160061;stroke-miterlimit:4;stroke-dasharray:none"
           id="path4941"
           d="m 226.274,-18.9854 -14.254,8.5289 -14.311,9.16077 -14.425,9.829 L 168.689,19.0694 153.866,30.3545 138.756,42.4333 123.299,55.3537 107.434,69.1669 91.0971,83.9276 74.2247,99.6944 56.7493,116.53 38.6019,134.501 19.7104,153.678 0,174.138" />
      </g>
      <g
         style="font-style:normal;font-weight:400;font-size:29.10420036px;font-family:'MS Shell Dlg 2';fill:none;fill-rule:evenodd;stroke:#000000;stroke-width:19.90160061;stroke-linecap:round;stroke-linejoin:bevel;stroke-opacity:1;stroke-miterlimit:4;stroke-dasharray:none"
         id="g4951"
         font-style="normal"
         font-weight="400"
         font-size="29.1042"
         transform="matrix(0.04492101,0,0,0.04492101,24.140633,1029.1601)">
        <path
           style="vector-effect:none;fill-rule:evenodd;stroke-width:19.90160061;stroke-miterlimit:4;stroke-dasharray:none"
           id="path4949"
           d="m 0,-348.42 38.6019,4.936 35.6228,6.328 33.2093,7.819 31.322,9.434 29.933,11.2 29.02,13.144 28.565,15.295 28.566,17.689 29.019,20.366 29.933,23.363 31.323,26.734 33.209,30.528 35.622,34.806 38.602,39.637" />
      </g>
      <g
         style="font-style:normal;font-weight:400;font-size:29.10420036px;font-family:'MS Shell Dlg 2';fill:none;fill-rule:evenodd;stroke:#000000;stroke-width:19.90160061;stroke-linecap:round;stroke-linejoin:bevel;stroke-opacity:1;stroke-miterlimit:4;stroke-dasharray:none"
         id="g4959"
         font-style="normal"
         font-weight="400"
         font-size="29.1042"
         transform="matrix(0.04492101,0,0,0.04492101,24.140633,1029.1601)">
        <path
           style="vector-effect:none;fill-rule:evenodd;stroke-width:19.90160061;stroke-miterlimit:4;stroke-dasharray:none"
           id="path4957"
           d="m 268,-174.138 c 0,-85.455 -119.988,-154.73 -268,-154.73 -148.012,0 -268,69.275 -268,154.73 m 0,0 c 0,85.455 119.988,154.73 268,154.73 148.012,0 268,-69.275 268,-154.73" />
      </g>
    </g>
  </g>
</svg>
