<?xml version="1.0" encoding="UTF-8"?>
<!-- Created with Inkscape (http://www.inkscape.org/) -->
<svg width="48" height="48" version="1.1" viewBox="0 0 12.7 12.7" xmlns="http://www.w3.org/2000/svg" xmlns:xlink="http://www.w3.org/1999/xlink">
 <defs>
  <clipPath id="r">
   <path id="a" d="m0 0h14033v9917h-14033z" clip-rule="evenodd"/>
  </clipPath>
  <clipPath id="p">
   <path id="h" d="m0 0h14033v9917h-14033z" clip-rule="evenodd"/>
  </clipPath>
  <clipPath id="o">
   <path id="g" d="m0 0h14033v9917h-14033z" clip-rule="evenodd"/>
  </clipPath>
  <clipPath id="n">
   <path id="f" d="m0 0h14033v9917h-14033z" clip-rule="evenodd"/>
  </clipPath>
  <clipPath id="m">
   <path id="e" d="m0 0h14033v9917h-14033z" clip-rule="evenodd"/>
  </clipPath>
  <clipPath id="l">
   <path id="d" d="m0 0h14033v9917h-14033z" clip-rule="evenodd"/>
  </clipPath>
  <clipPath id="k">
   <path id="c" d="m0 0h14033v9917h-14033z" clip-rule="evenodd"/>
  </clipPath>
  <clipPath id="j">
   <path id="b" d="m0 0h14033v9917h-14033z" clip-rule="evenodd"/>
  </clipPath>
 </defs>
 <path transform="matrix(.04239 0 0 .04239 6.353 6.351)" d="m0 0z" clip-path="url(#i)" fill="#ffb300" stroke="#000000" stroke-linecap="square" stroke-linejoin="bevel" stroke-miterlimit="10"/>
 <path transform="matrix(.04239 0 0 .04239 6.353 6.351)" d="m0 0z" clip-path="url(#q)" fill="#ffb300" stroke="#000000" stroke-linecap="square" stroke-linejoin="bevel" stroke-miterlimit="10"/>
 <g fill="#ffaa00">
  <path transform="matrix(.008976 0 0 .008976 -46.52 -33.06)" d="m6315 4298-0.01-2.506c94.66-30.63 162-70.69 193.5-115.1 28.16-39.72 26.49-81.37-4.843-120.7-81.42-102.4-190.2-182.6-311.3-230.9-32.52-13.04-65.73-23.84-99.6-32.41-66.07-16.74-134-24.93-201.9-24.84-70.41 0.1018-140.9 9.114-209.3 27.34-34.18 9.102-67.64 20.48-100.4 34.14-118.1 49.15-224 128.7-303.4 229.6-1.592 2.015-3.107 4.037-4.546 6.067-31.43 44.32-25.63 90.94 16.65 133.9 34.93 35.51 93.58 67.32 170.8 92.63 2.278 0.7468 4.57 1.488 6.878 2.222l0.037 15.96c3.215 3.887 6.43 7.774 9.646 11.66 3.147 3.74 6.293 7.48 9.44 11.22 3.081 3.596 6.162 7.193 9.244 10.79 3.019 3.456 6.038 6.913 9.056 10.37 2.959 3.32 5.918 6.64 8.878 9.96 2.902 3.186 5.805 6.373 8.707 9.559 2.849 3.056 5.697 6.112 8.546 9.168 2.798 2.929 5.595 5.857 8.392 8.786 2.749 2.804 5.498 5.608 8.247 8.412l8.11 8.047 7.98 7.689c5.26 4.957 10.46 9.735 15.6 14.33 2.546 2.22 5.092 4.44 7.637 6.659l4.622 3.956 1.007 429.9c0.034 14.38 8.01 28.6 23.46 41.83-15.45-13.22-23.43-27.44-23.46-41.83l-1.007-429.9 23.41 20.04c16.81 14.39 42.08 27.27 74.08 37.76l1.058 451.7c-32-10.49-57.27-23.37-74.08-37.76l43.63 37.34-43.63-37.34c16.81 14.39 42.09 27.27 74.08 37.76l31.97 31.4c-26.96-8.839-48.25-19.69-62.42-31.82 14.16 12.12 35.46 22.98 62.42 31.82 60.68 19.89 144.5 27.84 224.8 21.29 80.28-6.547 146.9-26.76 178.7-54.19l43.46-37.55c-37.68 32.56-116.8 56.55-212.1 64.32-95.29 7.771-194.8-1.655-266.8-25.27l-1.058-451.7c122.2 40.08 311.9 36.62 423.7-7.721 23.26-9.231 41.96-19.83 55.28-31.34l17.18-14.84 8.186-7.262 8.3-7.74 8.427-8.229 8.566-8.73 8.717-9.243 8.881-9.77 9.057-10.31 9.246-10.87 9.449-11.44 9.665-12.02 9.895-12.63 10.14-13.25 10.4-13.89 10.67-14.56" clip-path="url(#r)" fill-rule="evenodd"/>
  <path transform="matrix(.008976 0 0 .008976 -46.52 -33.06)" d="m6509 4181c28.16-39.72 26.49-81.37-4.843-120.7-81.42-102.4-190.2-182.6-311.3-230.9-32.52-13.04-65.73-23.84-99.6-32.41-66.07-16.74-134-24.93-201.9-24.84-70.41 0.1018-140.9 9.114-209.3 27.34-34.18 9.102-67.64 20.48-100.4 34.14-118.1 49.15-224 128.7-303.4 229.6-1.592 2.015-3.107 4.037-4.546 6.067-31.43 44.32-25.63 90.94 16.65 133.9 34.93 35.51 93.58 67.32 170.8 92.63 98.07-230.4 259.7-404.1 429.5-461.5-169.8 57.41-331.4 231.1-429.5 461.5 2.278 0.7468 4.57 1.488 6.878 2.222 75.87 24.16 166.7 41.4 265 50.28 57.93 5.24 117.7 7.508 177.4 6.737 66.07-0.8524 131.4-5.407 193.7-13.5 77.81-10.11 149.5-25.56 211.2-45.5 94.66-30.63 162-70.69 193.5-115.1z" clip-path="url(#p)" fill-rule="evenodd"/>
  <path transform="matrix(.008976 0 0 .008976 -46.52 -33.06)" d="m5910 4459-0.2437-104.1c-59.78 0.7711-119.5-1.497-177.4-6.737-98.28-8.89-189.1-26.13-265-50.28l0.037 15.96c3.215 3.887 6.43 7.774 9.646 11.66 3.147 3.74 6.293 7.48 9.44 11.22 3.081 3.596 6.162 7.193 9.244 10.79 3.019 3.456 6.038 6.913 9.056 10.37 2.959 3.32 5.918 6.64 8.878 9.96 2.902 3.186 5.805 6.373 8.707 9.559 2.849 3.056 5.697 6.112 8.546 9.168 2.798 2.929 5.595 5.857 8.392 8.786 2.749 2.804 5.498 5.608 8.247 8.412l8.11 8.047 7.98 7.689c5.26 4.957 10.46 9.735 15.6 14.33 2.546 2.22 5.092 4.44 7.637 6.659 36.26 30.97 69.2 50.89 102.1 61.75l13.94 4.017 13.99 2.924 14.1 1.843 14.27 0.7692 14.49-0.3017 14.77-1.374 15.1-2.451 15.5-3.538 15.96-4.64 16.48-5.759 17.06-6.902 17.72-8.072 18.44-9.274 19.24-10.51" clip-path="url(#o)" fill-rule="evenodd"/>
  <path transform="matrix(.008976 0 0 .008976 -46.52 -33.06)" d="m6315 4298-0.01-2.506c-61.64 19.94-133.3 35.4-211.2 45.5-62.3 8.094-127.7 12.65-193.7 13.5l0.2437 104.1 17.66 9.84 16.93 8.629 16.26 7.453 15.66 6.306 15.11 5.184 14.63 4.082 14.21 2.997 13.84 1.924 13.53 0.8582 13.27-0.2041 13.06-1.267 12.9-2.335 12.8-3.413 12.75-4.504c23.68-9.433 47.34-24.52 72.46-46.18l8.186-7.262 8.3-7.74 8.427-8.229 8.566-8.73 8.717-9.243 8.881-9.77 9.057-10.31 9.246-10.87 9.449-11.44 9.665-12.02 9.895-12.63 10.14-13.25 10.4-13.89 10.67-14.56" clip-path="url(#n)" fill-rule="evenodd"/>
  <path transform="matrix(.008976 0 0 .008976 -46.52 -33.06)" d="m6113 4495-12.75 4.504-12.8 3.413-12.9 2.335-13.06 1.267-13.27 0.2041-13.53-0.8582-13.84-1.924-14.21-2.997-14.63-4.082-15.11-5.184-15.66-6.306-16.26-7.453-16.93-8.629-17.66-9.84-19.24 10.51-18.44 9.274-17.72 8.072-17.06 6.902-16.48 5.759-15.96 4.64-15.5 3.538-15.1 2.451-14.77 1.374-14.49 0.3017-14.27-0.7692-14.1-1.843-13.99-2.924-13.94-4.017c122.2 40.08 311.9 36.62 423.7-7.721" clip-path="url(#m)" fill-rule="evenodd"/>
  <path transform="matrix(.008976 0 0 .008976 -46.52 -33.06)" d="m6192 4443 1.007 430c0.034 14.38-7.876 28.64-23.27 41.93-37.68 32.56-116.8 56.55-212.1 64.32-95.29 7.771-194.8-1.655-266.8-25.27l31.97 31.4c60.68 19.89 144.5 27.84 224.8 21.29 80.28-6.547 146.9-26.76 178.7-54.19l43.46-37.55c15.39-13.3 23.3-27.55 23.27-41.93z" clip-path="url(#l)" fill-rule="evenodd"/>
  <path transform="matrix(.008976 0 0 .008976 -46.52 -33.06)" d="m5615 4464c16.81 14.39 42.08 27.27 74.08 37.76-32.92-10.86-65.85-30.78-102.1-61.75l28.03 23.99" clip-path="url(#k)" fill-rule="evenodd"/>
  <path transform="matrix(.008976 0 0 .008976 -46.52 -33.06)" d="m6168 4463 17.18-14.84c-25.11 21.66-48.78 36.75-72.46 46.18 23.26-9.231 41.96-19.83 55.28-31.34" clip-path="url(#j)" fill-rule="evenodd"/>
  <path d="m4.84 11.69-0.3475-0.1568-0.437-0.3249-0.2426-0.2168-0.115-0.1723-0.01794-0.1728-0.01142-3.811 5.383-0.01356-0.00222 3.919-0.1976 0.3168-0.4386 0.3814-0.6159 0.2721-1.011 0.1586-1.202-0.02585z"/>
 </g>
 <g transform="translate(-12.56 -.09401)" fill="none" stroke="#000000" stroke-linecap="round" stroke-linejoin="bevel" stroke-width="7.877">
  <path transform="matrix(.04239 0 0 .04239 18.92 6.445)" d="m-42.47 119.3c-6.776-2.222-12.13-4.95-15.69-7.996"/>
  <path transform="matrix(.04239 0 0 .04239 18.87 6.499)" d="m63.87 102.2c0.0071 3.045-1.668 6.064-4.927 8.88"/>
  <path transform="matrix(.04239 0 0 .04239 18.92 6.445)" d="m-35.7 126c-5.709-1.872-10.22-4.17-13.22-6.737"/>
  <path transform="matrix(.04239 0 0 .04239 18.92 6.445)" d="m62.36 12.25c-5.318 4.587-10.33 7.782-15.34 9.779"/>
  <path transform="matrix(.04239 0 0 .04239 18.92 6.445)" d="m-89.63-19.62 0.0079 3.38"/>
  <path transform="matrix(.04239 0 0 .04239 18.92 6.445)" d="m-129.8-69.35c-0.337 0.4267-0.658 0.8549-0.9627 1.285"/>
  <path transform="matrix(.04239 0 0 .04239 18.92 6.445)" d="m-58.16 111.3c-3.272-2.8-4.961-5.811-4.968-8.857"/>
  <path transform="matrix(.04239 0 0 .04239 18.92 6.445)" d="m58.94 111c-7.98 6.895-24.73 11.98-44.91 13.62-20.18 1.646-41.26-0.3505-56.51-5.351"/>
  <path transform="matrix(.04239 0 0 .04239 18.92 6.445)" d="m-42.7 23.66c25.88 8.487 66.05 7.755 89.71-1.635"/>
  <path transform="matrix(.04239 0 0 .04239 18.92 6.445)" d="m49.74 119c-6.723 5.809-20.84 10.09-37.84 11.48-17 1.386-34.76-0.2953-47.61-4.508"/>
  <path transform="matrix(.04239 0 0 .04239 18.92 6.445)" d="m-42.7 23.66c-6.97-2.301-13.94-6.519-21.62-13.08"/>
  <path transform="matrix(.04239 0 0 .04239 18.92 6.445)" d="m-64.32 10.58c-0.5391-0.47-1.078-0.9401-1.617-1.41-1.089-0.974-2.19-1.986-3.304-3.035-0.5633-0.5427-1.127-1.085-1.69-1.628-0.5724-0.568-1.145-1.136-1.717-1.704-0.5821-0.5938-1.164-1.188-1.746-1.781-0.5924-0.6202-1.185-1.24-1.777-1.861-0.6032-0.6471-1.206-1.294-1.81-1.941-0.6146-0.6747-1.229-1.349-1.844-2.024-0.6266-0.703-1.253-1.406-1.88-2.109-0.6392-0.7319-1.278-1.464-1.918-2.196-0.6525-0.7616-1.305-1.523-1.957-2.285-0.6663-0.7919-1.333-1.584-1.999-2.376-0.6808-0.8231-1.362-1.646-2.043-2.469"/>
  <path transform="matrix(.04239 0 0 .04239 18.92 6.445)" d="m4.114 14.5-4.074 2.226-3.905 1.964-3.752 1.709-3.613 1.462-3.489 1.22-3.379 0.9825-3.282 0.7493-3.198 0.5191-3.127 0.2909-3.068 0.06388-3.021-0.1629-2.986-0.3903-2.963-0.6193-2.952-0.8507"/>
  <path transform="matrix(.04239 0 0 .04239 18.92 6.445)" d="m47.02 22.03-2.699 0.9537-2.711 0.7227-2.733 0.4945-2.765 0.2683-2.809 0.04322-2.864-0.1817-2.93-0.4074-3.008-0.6347-3.098-0.8645-3.2-1.098-3.315-1.335-3.443-1.578-3.585-1.827-3.74-2.084"/>
  <path transform="matrix(.04239 0 0 .04239 18.92 6.445)" d="m89.8-19.51-2.26 3.082-2.202 2.942-2.147 2.806-2.095 2.674-2.047 2.546-2.001 2.422-1.958 2.301-1.918 2.183-1.881 2.069-1.846 1.957-1.814 1.849-1.785 1.743-1.758 1.639-1.733 1.538"/>
  <path transform="matrix(.04239 0 0 .04239 18.92 6.445)" d="m4.114 14.5-0.05161-22.04"/>
  <path transform="matrix(.04239 0 0 .04239 18.92 6.445)" d="m-91.09-20.09c16.35 5.36 36.12 9.178 57.57 11.12"/>
  <path transform="matrix(.04239 0 0 .04239 18.92 6.445)" d="m-127.2-39.7c7.397 7.519 19.82 14.26 36.16 19.62"/>
  <path transform="matrix(.04239 0 0 .04239 18.92 6.445)" d="m-130.8-68.06c-6.655 9.386-5.428 19.26 3.525 28.36"/>
  <path transform="matrix(.04239 0 0 .04239 18.92 6.445)" d="m130.8-44.4c5.964-8.411 5.61-17.23-1.026-25.55"/>
  <path transform="matrix(.04239 0 0 .04239 18.92 6.445)" d="m45.09-10.4c42.39-5.507 74.52-18.26 85.69-34"/>
  <path transform="matrix(.04239 0 0 .04239 18.92 6.445)" d="m-33.51-8.967c25.97 2.349 53.33 1.85 78.6-1.432"/>
  <path transform="matrix(.04239 0 0 .04239 18.92 6.445)" d="m-63.34 11.42 0.2132 91.04"/>
  <path transform="matrix(.04239 0 0 .04239 18.92 6.445)" d="m63.66 11.1 0.2132 91.06"/>
  <path transform="matrix(.04239 0 0 .04239 18.92 6.445)" d="m-48.92 119.2-9.239-7.908"/>
  <path transform="matrix(.04239 0 0 .04239 18.92 6.445)" d="m49.74 119 9.202-7.951"/>
  <path transform="matrix(.04239 0 0 .04239 18.92 6.445)" d="m58.72 15.39 3.638-3.143"/>
  <path transform="matrix(.04239 0 0 .04239 18.92 6.445)" d="m129.7-69.95c-17.24-21.68-40.27-38.66-65.92-48.9-6.887-2.76-13.92-5.048-21.09-6.864-13.99-3.545-28.38-5.278-42.75-5.259-14.91 0.0215-29.84 1.93-44.31 5.789-7.239 1.927-14.32 4.337-21.25 7.23-25.02 10.41-47.42 27.26-64.24 48.61"/>
  <path transform="matrix(.04239 0 0 .04239 18.92 6.445)" d="m-42.47 119.3 6.769 6.649"/>
 </g>
</svg>
