<svg width="48" height="48" version="1.1" viewBox="0 0 48 48" xmlns="http://www.w3.org/2000/svg">
 <desc>DIN6331.dxf - scale = 1.000000, origin = (0.000000, 0.000000), method = manual</desc>
 <path d="m10.61 9.195 0.001464-0.00288 7.31e-4 -0.00144 7.32e-4 -0.00144 7.31e-4 -0.00144 0.001464-0.00288 7.31e-4 -0.00144 0.001464-0.00288 7.31e-4 -0.00144 0.001464-0.00288 7.31e-4 -0.00144 0.001464-0.00288 7.31e-4 -0.00144 7.32e-4 -0.00144 7.31e-4 -0.00144 0.001464-0.00288 7.31e-4 -0.00144 0.001464-0.00288 7.31e-4 -0.00144 0.001464-0.00288 7.31e-4 -0.00144 0.001464-0.00288 7.31e-4 -0.00144 0.001464-0.00288 7.31e-4 -0.00144 7.32e-4 -0.00144 7.31e-4 -0.00144 0.002196-0.00432 7.31e-4 -0.00144 7.32e-4 -0.00144 7.31e-4 -0.00144 0.001464-0.00288 7.31e-4 -0.00144 7.32e-4 -0.00144 7.31e-4 -0.00144 0.002196-0.00432 7.31e-4 -0.00144 7.32e-4 -0.00144 7.31e-4 -0.00144 0.002196-0.00432 7.31e-4 -0.00144 7.32e-4 -0.00144 7.31e-4 -0.00144 0.002196-0.00432 7.31e-4 -0.00144 7.32e-4 -0.00144 7.31e-4 -0.00144 0.002196-0.00432 7.31e-4 -0.00144 7.32e-4 -0.00144 7.31e-4 -0.00144 0.002196-0.00432 7.31e-4 -0.00144 7.32e-4 -0.00144 7.31e-4 -0.00144 0.001464-0.00288 7.31e-4 -0.00144 0.001464-0.00288 7.31e-4 -0.00144 0.001464-0.00288 7.31e-4 -0.00144 0.001464-0.00288 7.31e-4 -0.00144 0.001464-0.00288 7.31e-4 -0.00144 7.32e-4 -0.00144 7.31e-4 -0.00144 0.002196-0.00432 7.31e-4 -0.00144 7.32e-4 -0.00144 7.31e-4 -0.00144 0.001464-0.00288 7.31e-4 -0.00144 0.001464-0.00288 7.31e-4 -0.00144 0.001464-0.00288 7.31e-4 -0.00144 0.001464-0.00288 7.31e-4 -0.00144 0.001464-0.00288 7.31e-4 -0.00144 7.32e-4 -0.00144 7.31e-4 -0.00144 0.001464-0.00288 7.31e-4 -0.00144 0.001464-0.00288 7.31e-4 -0.00144 0.001464-0.00288 7.31e-4 -0.00144 7.32e-4 -0.00144 7.31e-4 -0.00144 0.001464-0.00288 7.31e-4 -0.00144 0.001464-0.00288 7.31e-4 -0.00144 0.001464-0.00288 7.31e-4 -0.00144 0.001464-0.00288 7.31e-4 -0.00144 7.32e-4 -0.00144 7.31e-4 -0.00144 0.001464-0.00288 7.31e-4 -0.00144 0.001464-0.00288 7.31e-4 -0.00144 0.001464-0.00288 7.31e-4 -0.00144 0.001464-0.00288 7.31e-4 -0.00144 7.32e-4 -0.00144 7.31e-4 -0.00144 0.001464-0.00288 7.31e-4 -0.00144 0.001464-0.00288 7.31e-4 -0.00144 0.001464-0.00288 7.31e-4 -0.00144 0.001464-0.00288 7.31e-4 -0.00144 7.32e-4 -0.00144 7.31e-4 -0.00144 0.001464-0.00288 7.31e-4 -0.00144 0.001464-0.00288 7.31e-4 -0.00144 0.001464-0.00288 7.31e-4 -0.00144 0.001464-0.00288 7.31e-4 -0.00144 7.32e-4 -0.00144 7.31e-4 -0.00144 0.001464-0.00288 7.31e-4 -0.00144 0.001464-0.00288 7.31e-4 -0.00144 0.001464-0.00288 7.31e-4 -0.00144 0.001464-0.00288 7.31e-4 -0.00144 7.32e-4 -0.00144 7.31e-4 -0.00144 0.001464-0.00288 7.31e-4 -0.00144 0.001464-0.00288 7.31e-4 -0.00144 0.001464-0.00288 7.31e-4 -0.00144 0.001464-0.00288 7.31e-4 -0.00144 7.32e-4 -0.00144 7.31e-4 -0.00144 0.001464-0.00288 7.31e-4 -0.00144 0.001464-0.00288 7.31e-4 -0.00144 0.001464-0.00288 7.31e-4 -0.00144 0.001464-0.00288 7.31e-4 -0.00144 7.32e-4 -0.00144 7.31e-4 -0.00144 0.001464-0.00288 7.31e-4 -0.00144 0.001464-0.00288 7.31e-4 -0.00144 0.001464-0.00288 7.31e-4 -0.00144 0.001464-0.00288 7.31e-4 -0.00144 7.32e-4 -0.00144 7.31e-4 -0.00144 0.001464-0.00288 7.31e-4 -0.00144 0.001464-0.00288 7.31e-4 -0.00144 0.001464-0.00288 7.31e-4 -0.00144 0.001464-0.00288 7.31e-4 -0.00144 7.32e-4 -0.00144 7.31e-4 -0.00144 0.001464-0.00288 7.31e-4 -0.00144 0.001464-0.00288 7.31e-4 -0.00144 0.001464-0.00288 7.31e-4 -0.00144 0.001464-0.00288 7.31e-4 -0.00144 7.32e-4 -0.00144 7.31e-4 -0.00144 0.001464-0.00288 7.31e-4 -0.00144 0.001464-0.00288 7.31e-4 -0.00144 0.001464-0.00288 7.31e-4 -0.00144 0.001464-0.00288 7.31e-4 -0.00144 7.32e-4 -0.00144 7.31e-4 -0.00144 0.001464-0.00288 7.31e-4 -0.00144 0.001464-0.00288 7.31e-4 -0.00144 0.001464-0.00288 7.31e-4 -0.00144 0.001464-0.00288 7.31e-4 -0.00144 7.32e-4 -0.00144 7.31e-4 -0.00144 0.001464-0.00288 7.31e-4 -0.00144 0.001464-0.00288 7.31e-4 -0.00144 0.001464-0.00288 7.31e-4 -0.00144 0.001464-0.00288 7.31e-4 -0.00144 7.32e-4 -0.00144 7.31e-4 -0.00144 0.001464-0.00288 7.31e-4 -0.00144 0.001464-0.00288 7.31e-4 -0.00144 0.001464-0.00288 7.31e-4 -0.00144 0.001464-0.00288 7.31e-4 -0.00144 7.32e-4 -0.00144 7.31e-4 -0.00144 0.001464-0.00288 7.31e-4 -0.00144 0.001464-0.00288 7.31e-4 -0.00144 0.001464-0.00288 7.31e-4 -0.00144 0.001464-0.00288 7.31e-4 -0.00144 0.001464-0.00288 7.31e-4 -0.00144 0.001464-0.00288 7.31e-4 -0.00144 0.001464-0.00288 7.31e-4 -0.00144 0.001464-0.00288 7.31e-4 -0.00144 7.32e-4 -0.00144 7.31e-4 -0.00144 0.002196-0.00432 7.31e-4 -0.00144 7.32e-4 -0.00144 7.31e-4 -0.00144 0.001464-0.00288 7.31e-4 -0.00144 0.001464-0.00288 7.31e-4 -0.00144 0.001464-0.00288 7.31e-4 -0.00144 0.001464-0.00288 7.31e-4 -0.00144 0.001464-0.00288 7.31e-4 -0.00144 7.32e-4 -0.00144 7.31e-4 -0.00144 0.002196-0.00432 7.31e-4 -0.00144 7.32e-4 -0.00144 7.31e-4 -0.00144 0.002196-0.00432 7.31e-4 -0.00144 7.32e-4 -0.00144 7.31e-4 -0.00144 0.002196-0.00432 7.31e-4 -0.00144 7.32e-4 -0.00144 7.31e-4 -0.00144 0.001464-0.00288 7.31e-4 -0.00144 0.001464-0.00288 7.31e-4 -0.00144 0.001464-0.00288 7.31e-4 -0.00144 0.001464-0.00288 7.31e-4 -0.00144 7.32e-4 -0.00144 7.31e-4 -0.00144 0.001464-0.00288 7.31e-4 -0.00144 0.001464-0.00288 7.31e-4 -0.00144 0.001464-0.00288 7.31e-4 -0.00144 0.001464-0.00288 7.31e-4 -0.00144 7.32e-4 -0.00144 7.31e-4 -0.00144 0.001464-0.00288 7.31e-4 -0.00144 0.001464-0.00288 7.31e-4 -0.00144 0.001464-0.00288 7.31e-4 -0.00144 0.001464-0.00288 7.31e-4 -0.00144 7.32e-4 -0.00144 7.31e-4 -0.00144 0.001464-0.00288 7.31e-4 -0.00144 0.001464-0.00288 7.31e-4 -0.00144 0.001464-0.00288 7.31e-4 -0.00144 0.001464-0.00288 7.31e-4 -0.00144 7.32e-4 -0.00144 7.31e-4 -0.00144 0.001464-0.00288 7.31e-4 -0.00144 0.001464-0.00288 7.31e-4 -0.00144 7.32e-4 -0.00144 7.31e-4 -0.00144 7.32e-4 -0.00144 7.31e-4 -0.00144 7.32e-4 -0.00144 7.31e-4 -0.00144 0.001464-0.00288 7.31e-4 -0.00144 0.001464-0.00288 7.31e-4 -0.00144 0.002196-0.00432 7.31e-4 -0.00144 0.002196-0.00432 7.31e-4 -0.00144 7.32e-4 -0.00144 7.31e-4 -0.00144 0.001464-0.00288 7.31e-4 -0.00144 0.001464-0.00288 7.31e-4 -0.00144 0.001464-0.00288 7.31e-4 -0.00144 0.001464-0.00288 7.31e-4 -0.00144 7.32e-4 -0.00144 7.31e-4 -0.00144 0.001464-0.00288 7.31e-4 -0.00144 0.001464-0.00288 7.31e-4 -0.00144 0.001464-0.00288 7.31e-4 -0.00144 0.001464-0.00288 7.31e-4 -0.00144 7.32e-4 -0.00144 7.31e-4 -0.00144 0.001464-0.00288 7.31e-4 -0.00144 0.001464-0.00288 7.31e-4 -0.00144 0.002196-0.00432 0.001462-0.00288 7.32e-4 -0.00144 7.31e-4 -0.00144 0.002196-0.00432 7.31e-4 -0.00144 0.001464-0.00288 7.31e-4 -0.00144 0.001464-0.00288 7.31e-4 -0.00144 0.001464-0.00288 7.31e-4 -0.00144 7.32e-4 -0.00144 7.31e-4 -0.00144 0.001464-0.00288 7.31e-4 -0.00144 0.001464-0.00288 7.31e-4 -0.00144 0.001464-0.00288 7.31e-4 -0.00144 0.001464-0.00288 7.31e-4 -0.00144 7.32e-4 -0.00144 7.31e-4 -0.00144 0.001464-0.00288 7.31e-4 -0.00144 0.001464-0.00288 7.31e-4 -0.00144 0.001464-0.00288 7.31e-4 -0.00144 7.32e-4 -0.00144 7.31e-4 -0.00144 0.002196-0.00432 7.31e-4 -0.00144 0.002196-0.00432 7.31e-4 -0.00144 0.001464-0.00288 7.31e-4 -0.00144 0.001464-0.00288 0.001462-0.00288 7.32e-4 -0.00144 7.31e-4 -0.00144 0.001464-0.00288 7.31e-4 -0.00144 0.001464-0.00288 7.31e-4 -0.00144 0.001464-0.00288 7.31e-4 -0.00144 7.32e-4 -0.00144 7.31e-4 -0.00144 0.001464-0.00288 7.31e-4 -0.00144 0.001464-0.00288 7.31e-4 -0.00144 0.001464-0.00288 7.31e-4 -0.00144 0.001464-0.00288 7.31e-4 -0.00144 7.32e-4 -0.00144 7.31e-4 -0.00144 0.001464-0.00288 7.31e-4 -0.00144 0.001464-0.00288 7.31e-4 -0.00144 0.001464-0.00288 7.31e-4 -0.00144 0.002196-0.00432 7.31e-4 -0.00144 0.002196-0.00432 7.31e-4 -0.00144 0.001464-0.00288 7.31e-4 -0.00144 0.001464-0.00288 7.31e-4 -0.00144 0.001464-0.00288 7.31e-4 -0.00144 7.32e-4 -0.00144 7.31e-4 -0.00144 0.001464-0.00288 0.001462-0.00288 7.32e-4 -0.00144 7.31e-4 -0.00144 0.001464-0.00288 7.31e-4 -0.00144 0.001464-0.00288 7.31e-4 -0.00144 7.32e-4 -0.00144 7.31e-4 -0.00144 0.001464-0.00288 7.31e-4 -0.00144 0.001464-0.00288 7.31e-4 -0.00144 0.001464-0.00288 7.31e-4 -0.00144 0.001464-0.00288 7.31e-4 -0.00144 7.32e-4 -0.00144 7.31e-4 -0.00144 0.002196-0.00432 7.31e-4 -0.00144 0.002196-0.00432 7.31e-4 -0.00144 0.002196-0.00432 7.31e-4 -0.00144 7.32e-4 -0.00144 7.31e-4 -0.00144 0.001464-0.00288 7.31e-4 -0.00144 0.001464-0.00288 7.31e-4 -0.00144 0.001464-0.00288 7.31e-4 -0.00144 0.001464-0.00288 7.31e-4 -0.00144 7.32e-4 -0.00144 7.31e-4 -0.00144 0.001464-0.00288 7.31e-4 -0.00144 0.001464-0.00288 0.001462-0.00288 7.32e-4 -0.00144 7.31e-4 -0.00144 0.001464-0.00288 7.31e-4 -0.00144 7.32e-4 -0.00144 7.31e-4 -0.00144 0.001464-0.00288 7.31e-4 -0.00144 0.001464-0.00288 7.31e-4 -0.00144 0.001464-0.00288 7.31e-4 -0.00144 0.002196-0.00432 7.31e-4 -0.00144 0.002196-0.00432 7.31e-4 -0.00144 0.001464-0.00288 7.31e-4 -0.00144 0.001464-0.00288 7.31e-4 -0.00144 0.001464-0.00288 7.31e-4 -0.00144 7.32e-4 -0.00144 7.31e-4 -0.00144 7.32e-4 -0.00144 0.001462-0.00288 0.001464-0.00288 7.31e-4 -0.00144 0.001464-0.00288 7.31e-4 -0.00144 0.001464-0.00288 7.31e-4 -0.00144 7.32e-4 -0.00144 7.31e-4 -0.00144 0.001464-0.00288 7.31e-4 -0.00144 0.001464-0.00288 7.31e-4 -0.00144 0.001464-0.00288 7.31e-4 -0.00144 0.001464-0.00288 7.31e-4 -0.00144 7.32e-4 -0.00144 7.31e-4 -0.00144 0.002196-0.00432 7.31e-4 -0.00144 0.002196-0.00432 7.31e-4 -0.00144 0.001464-0.00288 7.31e-4 -0.00144 0.001464-0.00288 7.31e-4 -0.00144 0.001464-0.00288 7.31e-4 -0.00144 0.001464-0.00288 7.31e-4 -0.00144 0.001464-0.00288 7.31e-4 -0.00144 7.32e-4 -0.00144 7.31e-4 -0.00144 0.001464-0.00288 7.31e-4 -0.00144 0.001464-0.00288 7.31e-4 -0.00144 7.32e-4 -0.00144 0.001462-0.00288 0.001464-0.00288 7.31e-4 -0.00144 7.32e-4 -0.00144 7.31e-4 -0.00144 0.001464-0.00288 7.31e-4 -0.00144 0.001464-0.00288 7.31e-4 -0.00144 0.001464-0.00288 7.31e-4 -0.00144 0.001464-0.00288 7.31e-4 -0.00144 0.002196-0.00432 7.31e-4 -0.00144 0.002196-0.00432 7.31e-4 -0.00144 0.001464-0.00288 7.31e-4 -0.00144 0.001464-0.00288 7.31e-4 -0.00144 7.32e-4 -0.00144 7.31e-4 -0.00144 0.001464-0.00288 7.31e-4 -0.00144 0.001464-0.00288 7.31e-4 -0.00144 0.001464-0.00288 7.31e-4 -0.00144 0.001464-0.00288 7.31e-4 -0.00144 7.32e-4 -0.00144 7.31e-4 -0.00144 0.001464-0.00288 7.31e-4 -0.00144 0.001464-0.00288 7.31e-4 -0.00144 0.001464-0.00288 7.31e-4 -0.00144 7.32e-4 -0.00144 0.001462-0.00288 7.32e-4 -0.00144 7.31e-4 -0.00144 0.001464-0.00288 7.31e-4 -0.00144 0.002196-0.00432 7.31e-4 -0.00144 7.32e-4 -0.00144 7.57e-4 -0.00144 7.31e-4 -0.00144 7.56e-4 -0.00144 7.57e-4 -0.00144 7.32e-4 -0.00144 7.54e-4 -0.00144 7.56e-4 -0.00144 7.32e-4 -0.00144 7.57e-4 -0.00144 0.004536-0.00864 7.55e-4 -0.00144 7.57e-4 -0.00144 0.001512-0.00288 7.57e-4 -0.00144 7.55e-4 -0.00144 0.002268-0.00432 7.55e-4 -0.00144 7.57e-4 -0.00144 0.001512-0.00288 7.57e-4 -0.00144 7.55e-4 -0.00144 7.56e-4 -0.00144 7.57e-4 -0.00144 7.55e-4 -0.00144 0.002268-0.00432 7.57e-4 -0.00144 7.56e-4 -0.00144 7.55e-4 -0.00144 7.57e-4 -0.00144 0.002268-0.00432 7.55e-4 -0.00144 7.57e-4 -0.00144 0.00378-0.0072 7.57e-4 -0.00144 7.56e-4 -0.00144 7.54e-4 -0.00144 7.57e-4 -0.00144 0.00378-0.0072 7.57e-4 -0.00144 7.56e-4 -0.00144 7.55e-4 -0.00144 0.001512-0.00288 7.57e-4 -0.00144 7.56e-4 -0.00144 7.55e-4 -0.00144 7.57e-4 -0.00144 0.002268-0.00432 7.55e-4 -0.00144 7.56e-4 -0.00144 7.57e-4 -0.00144 7.56e-4 -0.00144 7.55e-4 -0.00144 7.57e-4 -0.00144 0.00756-0.0144 7.57e-4 -0.00144 7.56e-4 -0.00144 7.55e-4 -0.00144 0.001512-0.00288 7.57e-4 -0.00144 7.55e-4 -0.00144 7.56e-4 -0.00144 7.57e-4 -0.00144 0.003024-0.00576 7.55e-4 -0.00144 7.57e-4 -0.00144 7.55e-4 -0.00144 7.56e-4 -0.00144 7.57e-4 -0.00144 0.1438-0.2544 0.001512-0.00242 7.57e-4 -0.00121 7.56e-4 -0.00121 7.55e-4 -0.00121 0.001512-0.00242 7.57e-4 -0.00121 7.55e-4 -0.00121 7.56e-4 -0.00121 7.57e-4 -0.00121 0.002268-0.00363 7.55e-4 -0.00121 7.56e-4 -0.00121 7.57e-4 -0.00121 7.55e-4 -0.00121 7.56e-4 -0.00121 7.57e-4 -0.00121 0.00756-0.0121 7.57e-4 -0.00121 7.55e-4 -0.00121 7.56e-4 -0.00121 7.57e-4 -0.00121 7.55e-4 -0.00121 7.57e-4 -0.00121 7.55e-4 -0.00121 7.56e-4 -0.00121 7.57e-4 -0.00121 7.56e-4 -0.00121 7.55e-4 -0.00121 7.57e-4 -0.00121 7.56e-4 -0.00121 7.55e-4 -0.00121 7.57e-4 -0.00121 7.55e-4 -0.00121 7.56e-4 -0.00121 7.57e-4 -0.00121 0.004536-0.00726 7.55e-4 -0.00121 7.57e-4 -0.00121 0.001512-0.00242 7.57e-4 -0.00121 7.55e-4 -0.00121 7.56e-4 -0.00121 7.57e-4 -0.00121 7.56e-4 -0.00121 7.55e-4 -0.00121 0.002268-0.00363 7.57e-4 -0.00121 7.55e-4 -0.00121 7.56e-4 -0.00121 7.57e-4 -0.00121 0.001512-0.00242 7.55e-4 -0.00121 7.56e-4 -0.00121 7.57e-4 -0.00121 7.56e-4 -0.00121 7.55e-4 -0.00121 7.57e-4 -0.00121 0.001512-0.00242 7.57e-4 -0.00121 7.54e-4 -0.00121 7.57e-4 -0.00121 0.00378-0.00605 7.57e-4 -0.00121 7.56e-4 -0.00121 7.55e-4 -0.00121 0.004536-0.00726 7.57e-4 -0.00121 7.56e-4 -0.00121 7.55e-4 -0.00121 7.57e-4 -0.00121 7.55e-4 -0.00121 7.57e-4 -0.00121 7.56e-4 -0.00121 7.55e-4 -0.00121 7.57e-4 -0.00121 0.00756-0.0121 7.57e-4 -0.00121 7.55e-4 -0.00121 7.56e-4 -0.00121 7.57e-4 -0.00121 7.55e-4 -0.00121 0.003024-0.00484 7.57e-4 -0.00121 7.56e-4 -0.00121 7.55e-4 -0.00121 7.57e-4 -0.00121 0.001512-0.00242 7.55e-4 -0.00121 7.56e-4 -0.00121 7.57e-4 -0.00121 0.00378-0.00605 7.57e-4 -0.00121 0.00151-0.00242 7.57e-4 -0.00121 0.00378-0.00605 7.57e-4 -0.00121 7.55e-4 -0.00121 0.002268-0.00363 7.57e-4 -0.00121 7.55e-4 -0.00121 7.56e-4 -0.00121 7.57e-4 -0.00121 0.001512-0.00242 7.55e-4 -0.00121 7.56e-4 -0.00121 7.57e-4 -0.00121 7.56e-4 -0.00121 7.55e-4 -0.00121 7.57e-4 -0.00121 0.001512-0.00242 7.57e-4 -0.00121 0.00151-0.00242 7.57e-4 -0.00121 0.00378-0.00605 7.57e-4 -0.00121 7.55e-4 -0.00121 0.002268-0.00363 7.57e-4 -0.00121 7.55e-4 -0.00121 7.56e-4 -0.00121 7.57e-4 -0.00121 7.56e-4 -0.00121 7.55e-4 -0.00121 7.57e-4 -0.00121 7.55e-4 -0.00121 7.57e-4 -0.00121 7.56e-4 -0.00121 7.55e-4 -0.00121 7.57e-4 -0.00121 0.005292-0.00847 7.55e-4 -0.00121 7.57e-4 -0.00121 0.001512-0.00242 7.57e-4 -0.00121 7.55e-4 -0.00121 7.56e-4 -0.00121 7.57e-4 -0.00121 7.55e-4 -0.00121 0.002268-0.00363 7.57e-4 -0.00121 7.56e-4 -0.00121 7.55e-4 -0.00121 7.57e-4 -0.00121 0.002268-0.00363 7.55e-4 -0.00121 7.56e-4 -0.00121 7.57e-4 -0.00121 7.56e-4 -0.00121 7.55e-4 -0.00121 7.57e-4 -0.00121 0.002268-0.00363 7.55e-4 -0.00121 7.57e-4 -0.00121 0.00378-0.00605 7.57e-4 -0.00121 7.56e-4 -0.00121 7.55e-4 -0.00121 0.001512-0.00242 7.57e-4 -0.00121 7.55e-4 -0.00121 7.56e-4 -0.00121 7.57e-4 -0.00121 0.002268-0.00363 7.55e-4 -0.00121 7.56e-4 -0.00121 7.57e-4 -0.00121 7.56e-4 -0.00121 7.55e-4 -0.00121 7.57e-4 -0.00121 0.002268-0.00363 7.55e-4 -0.00121 7.57e-4 -0.00121 0.00378-0.00605 7.57e-4 -0.00121 7.55e-4 -0.00121 0.005292-0.00847 7.57e-4 -0.00121 7.56e-4 -0.00121 7.55e-4 -0.00121 7.57e-4 -0.00121 7.55e-4 -0.00121 7.57e-4 -0.00121 7.55e-4 -0.00121 7.56e-4 -0.00121 7.57e-4 -0.00121 0.00756-0.0121 7.57e-4 -0.00121 7.55e-4 -0.00121 7.56e-4 -0.00121 7.57e-4 -0.00121 7.55e-4 -0.00121 0.003024-0.00484 7.57e-4 -0.00121 7.55e-4 -0.00121 7.56e-4 -0.00121 7.57e-4 -0.00121 0.001512-0.00242 7.55e-4 -0.00121 7.56e-4 -0.00121 7.57e-4 -0.00121 7.56e-4 -0.00121 7.55e-4 -0.00121 7.57e-4 -0.00121 0.001512-0.00242 7.57e-4 -0.00121 7.54e-4 -0.00121 7.57e-4 -0.00121 0.00378-0.00605 7.57e-4 -0.00121 7.56e-4 -0.00121 7.55e-4 -0.00121 0.002268-0.00363 7.57e-4 -0.00121 7.55e-4 -0.00121 7.56e-4 -0.00121 7.57e-4 -0.00121 7.56e-4 -0.00121 7.55e-4 -0.00121 0.001512-0.00242 7.57e-4 -0.00121 7.56e-4 -0.00121 7.55e-4 -0.00121 7.57e-4 -0.00121 0.003024-0.00484 7.55e-4 -0.00121 7.57e-4 -0.00121 7.56e-4 -0.00121 7.55e-4 -0.00121 7.57e-4 -0.00121 0.001512-0.00242 7.57e-4 -0.00121 7.55e-4 -0.00121 0.004536-0.00726 7.57e-4 -0.00121 7.56e-4 -0.00121 7.55e-4 -0.00121 7.57e-4 -0.00121 0.002268-0.00363 7.55e-4 -0.00121 7.57e-4 -0.00121 0.005292-0.00847 7.55e-4 -0.00121 7.57e-4 -0.00121 0.00378-0.00605 7.57e-4 -0.00121 0.093-0.15 0.208-0.3146 0.304-0.4161 0.0017-0.00219 0.0048-0.00657 0.0017-0.00219 0.0032-0.00438 0.0017-0.00219 0.0032-0.00438 0.0017-0.00219 0.0048-0.00657 0.0017-0.00219 0.0032-0.00438 0.0017-0.00219 0.0032-0.00438 0.0017-0.00219 0.0048-0.00657 0.0017-0.00219 0.0032-0.00438 0.0017-0.00219 0.0048-0.00657 0.0017-0.00219 0.0032-0.00438 0.0017-0.00219 0.0032-0.00438 0.0017-0.00219 0.0048-0.00657 0.0017-0.00219 0.0032-0.00438 0.0017-0.00219 0.0048-0.00657 0.0017-0.00219 0.0032-0.00438 0.0017-0.00219 0.0032-0.00438 0.0017-0.00219 0.0048-0.00657 0.0017-0.00219 0.0032-0.00438 0.0017-0.00219 0.0032-0.00438 0.0017-0.00219 0.0048-0.00657 0.0017-0.00219 0.0032-0.00438 0.0017-0.00219 0.0048-0.00657 0.0017-0.00219 0.0032-0.00438 0.0017-0.00219 0.0032-0.00438 0.0017-0.00219 0.0048-0.00657 0.0017-0.00219 0.0032-0.00438 0.0017-0.00219 0.0032-0.00438 0.0017-0.00219 0.0048-0.00657 0.0017-0.00219 0.0032-0.00438 0.0017-0.00219 0.0048-0.00657 0.0017-0.00219 0.0032-0.00438 0.0017-0.00219 0.0032-0.00438 0.0017-0.00219 0.0048-0.00657 0.0017-0.00219 0.0032-0.00438 0.0017-0.00219 0.0032-0.00438 0.0017-0.00219 0.0048-0.00657 0.0017-0.00219 0.0032-0.00438 0.0017-0.00219 0.0048-0.00657 0.0017-0.00219 0.0032-0.00438 0.0017-0.00219 0.0032-0.00438 0.0017-0.00219 0.0048-0.00657 0.0017-0.00219 0.0032-0.00438 0.0017-0.00219 0.0032-0.00438 0.0017-0.00219 0.0048-0.00657 0.0017-0.00219 0.0032-0.00438 0.0017-0.00219 0.0048-0.00657 0.0017-0.00219 0.0032-0.00438 0.0017-0.00219 0.0032-0.00438 0.0017-0.00219 0.0048-0.00657 0.0017-0.00219 0.0032-0.00438 0.0017-0.00219 0.0048-0.00657 0.0017-0.00219 0.0032-0.00438 0.0017-0.00219 0.0032-0.00438 0.0017-0.00219 0.0048-0.00657 0.0017-0.00219 0.0032-0.00438 0.0017-0.00219 0.0032-0.00438 0.0017-0.00219 0.0048-0.00657 0.0049-0.02051 0.6023-0.2525 0.5881-0.2221 0.5779-0.2083 0.5696-0.1963 0.5604-0.1844 0.554-0.1733 0.5466-0.1604 0.5411-0.1502 0.5365-0.1383 0.5319-0.1272 0.5291-0.1171 0.5272-0.1069 0.5245-0.09678 0.5245-0.08572 0.5236-0.07558 0.5254-0.06636 0.5263-0.05622 0.5291-0.04701 0.5319-0.03687 0.5365-0.02765 0.5411-0.01751 0.5475-0.00829 0.5531 9.817e-4 0.5614 0.01107 0.5687 0.02026 0.5779 0.03042 0.589 0.03871 0.5991 0.04974 0.4388 0.1115 0.4305 0.118 0.4231 0.1254 0.4166 0.1318 0.4111 0.1392 0.4047 0.1475 0.401 0.1549 0.3964 0.1622 0.3917 0.1714 0.3899 0.1797 0.3871 0.188 0.3853 0.1973 0.3844 0.2074 0.3844 0.2157 0.3835 0.2268 0.3844 0.2369 0.3853 0.248 0.3871 0.259 0.3899 0.2701 0.3927 0.2821 0.3964 0.295 0.4 0.3079 0.4047 0.3208 0.4111 0.3346 0.4166 0.3484 0.4231 0.3641 0.4305 0.3788 0.4388 0.3955 1.5e-4 15.24c1.074 1.315 1.631 2.75 1.631 4.202v4.516c0.0031 5.439-7.632 9.849-17.05 9.849s-17.06-4.41-17.05-9.849v-4.516c1.24e-5 -1.452 0.5571-2.887 1.631-4.202l1.451e-4 -10.47 0.1604-0.4879 0.1576-0.4701 0.1549-0.4535 0.1521-0.4369 0.1512-0.4212 0.1475-0.4065 0.1466-0.3917 0.1456-0.3788 0.1438-0.365 0.142-0.353 0.142-0.3401 0.141-0.3291 0.141-0.3189 0.1401-0.3069" style="fill:#ffaf00;stroke-linecap:round;stroke-width:.8;stroke:#000"/>
 <path d="m37.8 11.26a13.83 7.983 0 0 0-27.65 0 13.83 7.983 0 0 0 27.65 0zm-4.24 0a9.586 5.535 0 0 0-19.17 0 9.586 5.535 0 0 0 19.17 0zm-1.616 0.7623a7.97 4.602 0 0 0-15.94 0 7.97 4.602 0 0 0 15.94 0zm-4.392 6.948-0.5236 0.08663-0.5254 0.09587-0.5263 0.1069-0.5291 0.1171-0.5319 0.1272-0.5365 0.1392-0.5411 0.1493-0.5475 0.1613-0.5531 0.1724-0.5614 0.1844-0.5687 0.1963-0.5779 0.2083-0.589 0.2222-0.5991 0.2341m15.42-2.386-0.5991-0.04887-0.5881-0.03963-0.5779-0.02949-0.5696-0.02121-0.5604-0.01025-0.554-0.0024-0.5466 0.0083-0.5411 0.01854-0.5365 0.02672-0.5319 0.03688-0.5291 0.04703-0.5272 0.05621-0.5245 0.06636-0.5245 0.07561m-13.36-2.065-0.3835-0.2166-0.3844-0.2065-0.3853-0.1982-0.3871-0.188-0.3899-0.1797-0.3927-0.1705-0.3964-0.1632-0.4-0.1548-0.4047-0.1466-0.4111-0.1401-0.4166-0.1318-0.4231-0.1254-0.4305-0.118-0.4388-0.1116m11.29 6.518-0.4388-0.3945-0.4305-0.3797-0.4231-0.3632-0.4166-0.3493-0.4111-0.3346-0.4047-0.3208-0.401-0.3079-0.3964-0.294-0.3917-0.283-0.3899-0.2701-0.3871-0.259-0.3853-0.2471-0.3844-0.2369-0.3844-0.2268m5.645 21.32v-17.05m-11.29 10.54v-6.59m26.71 10.72v-17.05m2.067-5.459-0.1401 0.3069-0.141 0.3189-0.141 0.3291-0.142 0.3401-0.1429 0.353-0.1438 0.365-0.1447 0.3788-0.1466 0.3917-0.1484 0.4065-0.1502 0.4212-0.1521 0.4369-0.1549 0.4535-0.1576 0.4701-0.1613 0.4876m4.132-8.903-0.002496 0.002945-8.32e-4 9.816e-4 -8.31e-4 9.817e-4 -0.001664 0.001963-8.31e-4 9.816e-4 -0.001664 0.001963-8.31e-4 9.817e-4 -0.001664 0.001963-8.31e-4 9.817e-4 -8.32e-4 9.817e-4 -8.32e-4 9.816e-4 -8.31e-4 9.817e-4 -0.001664 0.001963-0.002496 0.002945-8.31e-4 9.817e-4 -0.001664 0.001963-8.31e-4 9.817e-4 -8.32e-4 9.817e-4 -8.32e-4 9.816e-4 -8.31e-4 9.817e-4 -0.001664 0.001963-8.31e-4 9.816e-4 -0.001664 0.001963-8.31e-4 9.817e-4 -8.32e-4 9.816e-4 -8.33e-4 9.817e-4 -8.31e-4 9.817e-4 -8.32e-4 9.817e-4 -8.32e-4 9.816e-4 -8.31e-4 9.817e-4 -0.001664 0.001963-8.31e-4 9.816e-4 -0.001664 0.001963-8.31e-4 9.816e-4 -0.001664 0.001963-8.31e-4 9.817e-4 -0.001664 0.001963-8.31e-4 9.817e-4 -8.32e-4 9.817e-4 -8.33e-4 9.816e-4 -8.31e-4 9.817e-4 -0.001664 0.001963-8.31e-4 9.816e-4 -0.001664 0.001963-8.31e-4 9.817e-4 -0.001664 0.001963-8.31e-4 9.817e-4 -8.32e-4 9.817e-4 -8.32e-4 9.816e-4 -8.31e-4 9.817e-4 -0.001664 0.001963-8.31e-4 9.816e-4 -8.32e-4 9.817e-4 -8.33e-4 9.817e-4 -8.31e-4 9.817e-4 -0.001664 0.001963-8.31e-4 9.817e-4 -8.32e-4 9.817e-4 -8.32e-4 9.816e-4 -8.31e-4 9.817e-4 -0.001664 0.001963-8.31e-4 9.816e-4 -0.001664 0.001963-8.31e-4 9.817e-4 -0.001664 0.001963-8.31e-4 9.817e-4 -8.33e-4 9.817e-4 -8.32e-4 9.816e-4 -8.31e-4 9.817e-4 -0.001664 0.001963-8.31e-4 9.816e-4 -0.001664 0.001963-8.31e-4 9.817e-4 -0.001664 0.001963-8.31e-4 9.817e-4 -8.32e-4 9.817e-4 -8.32e-4 9.816e-4 -8.31e-4 9.817e-4 -8.32e-4 9.817e-4 -8.32e-4 9.816e-4 -8.31e-4 9.817e-4 -8.33e-4 9.817e-4 -8.32e-4 9.817e-4 -8.31e-4 9.816e-4 -0.001664 0.001963-8.31e-4 9.817e-4 -0.001664 0.001963-8.31e-4 9.817e-4 -8.32e-4 9.817e-4 -8.32e-4 9.816e-4 -8.31e-4 9.819e-4 -8.32e-4 9.82e-4 -8.32e-4 9.81e-4 -8.31e-4 9.82e-4 -8.32e-4 9.82e-4 -8.32e-4 9.81e-4 -8.31e-4 9.82e-4 -0.001665 0.001963-8.31e-4 9.82e-4 -8.32e-4 9.82e-4 -8.32e-4 9.81e-4 -8.31e-4 9.82e-4 -8.32e-4 9.82e-4 -8.32e-4 9.81e-4 -8.31e-4 9.82e-4 -8.32e-4 9.82e-4 -8.32e-4 9.81e-4 -8.31e-4 9.82e-4 -8.32e-4 9.82e-4 -8.32e-4 9.81e-4 -8.31e-4 9.82e-4 -8.32e-4 9.82e-4 -8.32e-4 9.81e-4 -0.001664 0.001964-8.32e-4 9.81e-4 -8.31e-4 9.82e-4 -8.32e-4 9.82e-4 -8.32e-4 9.81e-4 -8.31e-4 9.82e-4 -8.32e-4 9.82e-4 -8.32e-4 9.81e-4 -8.31e-4 9.82e-4 -8.32e-4 9.82e-4 -8.32e-4 9.81e-4 -8.31e-4 9.82e-4 -0.002495 0.002945-0.001664 0.001964-8.32e-4 9.81e-4 -0.002495 0.002945-0.002495 0.002945-0.002495 0.002945-0.002495 0.002945-0.002495 0.002945-0.001664 0.001964-8.32e-4 9.81e-4 -0.002495 0.002945-0.002495 0.002945-0.002495 0.002945-0.002495 0.002945-8.32e-4 9.82e-4 -0.432 0.594-0.0016 0.0024-0.0016 0.0022-0.0016 0.0024-0.0016 0.0022-0.176 0.264-0.1245 0.1992-0.0015 0.0025-0.0015 0.0024-0.1605 0.2675-0.1456 0.247-0.1438 0.2544-0.142 0.2618-7.32e-4 0.0014-7.31e-4 0.0014-0.002196 0.0042-7.31e-4 0.0014-0.001464 0.0028-7.31e-4 0.0014-0.001464 0.0028-7.31e-4 0.0014-0.001464 0.0028-7.31e-4 0.0014-0.001464 0.0028-7.31e-4 0.0014-0.001464 0.0028-7.31e-4 0.0014-7.32e-4 0.0014-7.31e-4 0.0014-0.001464 0.0028-7.31e-4 0.0014-0.001464 0.0028-7.31e-4 0.0014-0.001464 0.0028-7.31e-4 0.0014-0.001464 0.0028-7.31e-4 0.0014-7.32e-4 0.0014-7.31e-4 0.0014-0.001464 0.0028-7.31e-4 0.0014-7.32e-4 0.0014-0.001462 0.0028-0.001464 0.0028-7.31e-4 0.0014-0.002196 0.0042-7.31e-4 0.0014-0.001464 0.0028-7.31e-4 0.0014-0.002196 0.0042-7.31e-4 0.0014-0.001464 0.0028-7.31e-4 0.0014-0.001464 0.0028-7.31e-4 0.0014-7.32e-4 0.0014-7.31e-4 0.0014-0.001464 0.0028-7.31e-4 0.0014-0.001464 0.0028-7.31e-4 0.0014-0.001464 0.0028-7.31e-4 0.0014-0.001464 0.0028-7.31e-4 0.0014-7.32e-4 0.0014-7.31e-4 0.0014-0.001464 0.0028-7.31e-4 0.0014-0.001464 0.0028-7.31e-4 0.0014-0.001464 0.0028-7.31e-4 0.0014-0.001464 0.0028-7.31e-4 0.0014-7.32e-4 0.0014-7.31e-4 0.0014-0.002196 0.0042-7.31e-4 0.0014-7.32e-4 0.0014-7.31e-4 0.0014-7.32e-4 0.0014-7.31e-4 0.0014-0.001464 0.0028-7.31e-4 0.0014-0.001464 0.0028-7.31e-4 0.0014-0.001464 0.0028-7.31e-4 0.0014-0.001464 0.0028-7.31e-4 0.0014-0.001464 0.0028-7.31e-4 0.0014-0.001464 0.0028-7.31e-4 0.0014-7.32e-4 0.0014-7.31e-4 0.0014-0.001464 0.0028-7.31e-4 0.0014-0.001464 0.0028-7.31e-4 0.0014-0.001464 0.0028-7.31e-4 0.0014-0.001464 0.0028-7.31e-4 0.0014-7.32e-4 0.0014-7.31e-4 0.0014-0.001464 0.0028-7.31e-4 0.0014-0.001464 0.0028-7.31e-4 0.0014-0.001464 0.0028-7.31e-4 0.0014-0.002196 0.0042-7.31e-4 0.0014-0.002196 0.0042-7.31e-4 0.0014-0.001464 0.0028-7.31e-4 0.0014-7.32e-4 0.0014-0.001462 0.0028-0.001464 0.0028-7.31e-4 0.0014-7.32e-4 0.0014-7.31e-4 0.0014-0.001464 0.0028-7.31e-4 0.0014-0.001464 0.0028-7.31e-4 0.0014-0.001464 0.0028-7.31e-4 0.0014-0.001464 0.0028-7.31e-4 0.0014-7.32e-4 0.0014-7.31e-4 0.0014-0.001464 0.0028-7.31e-4 0.0014-0.001464 0.0028-7.31e-4 0.0014-0.001464 0.0028-7.31e-4 0.0014-7.32e-4 0.0014-7.31e-4 0.0014-0.001464 0.0028-7.31e-4 0.0014-0.002196 0.0042-7.31e-4 0.0014-0.002196 0.0042-7.31e-4 0.0014-0.001464 0.0028-7.31e-4 0.0014-0.001464 0.0028-7.31e-4 0.0014-0.001464 0.0028-7.31e-4 0.0014-0.001464 0.0028-7.31e-4 0.0014-0.001464 0.0028-7.31e-4 0.0014-7.32e-4 0.0014-0.001462 0.0028-7.32e-4 0.0014-7.31e-4 0.0014-0.001464 0.0028-7.31e-4 0.0014-0.001464 0.0028-7.31e-4 0.0014-0.001464 0.0028-7.31e-4 0.0014-7.32e-4 0.0014-7.31e-4 0.0014-0.001464 0.0028-7.31e-4 0.0014-0.001464 0.0028-7.31e-4 0.0014-0.001464 0.0028-7.31e-4 0.0014-0.001464 0.0028-7.31e-4 0.0014-0.002196 0.0042-7.31e-4 0.0014-0.002196 0.0042-7.31e-4 0.0014-0.001464 0.0028-7.31e-4 0.0014-0.001464 0.0028-7.31e-4 0.0014-7.32e-4 0.0014-7.31e-4 0.0014-0.001464 0.0028-7.31e-4 0.0014-0.001464 0.0028-7.31e-4 0.0014-0.001464 0.0028-7.31e-4 0.0014-0.001464 0.0028-7.31e-4 0.0014-7.32e-4 0.0014-7.31e-4 0.0014-7.32e-4 0.0014-7.31e-4 0.0014-7.32e-4 0.0014-7.31e-4 0.0014-7.32e-4 0.0014-7.31e-4 0.0014-0.001464 0.0028-7.31e-4 0.0014-0.001464 0.0028-7.31e-4 0.0014-7.32e-4 0.0014-7.31e-4 0.0014-0.001464 0.0028-7.31e-4 0.0014-0.002196 0.0042-7.31e-4 0.0014-0.002196 0.0042-7.31e-4 0.0014-0.001464 0.0028-7.31e-4 0.0014-0.001464 0.0028-7.31e-4 0.0014-0.001464 0.0028-7.31e-4 0.0014-0.001464 0.0028-7.31e-4 0.0014-0.001464 0.0028-7.31e-4 0.0014-7.32e-4 0.0014-7.31e-4 0.0014-0.001464 0.0028-7.31e-4 0.0014-0.001464 0.0028-7.31e-4 0.0014-0.001464 0.0028-7.31e-4 0.0014-0.001464 0.0028-7.31e-4 0.0014-7.32e-4 0.0014-7.31e-4 0.0014-0.001464 0.0028-7.31e-4 0.0014-7.32e-4 0.0014-7.31e-4 0.0014-7.32e-4 0.0014-7.31e-4 0.0014-7.32e-4 0.0014-7.31e-4 0.0014-0.001464 0.0028-7.31e-4 0.0014-0.002196 0.0042-7.31e-4 0.0014-0.002196 0.0042-7.31e-4 0.0014-0.001464 0.0028-7.31e-4 0.0014-0.001464 0.0028-7.31e-4 0.0014-7.32e-4 0.0014-7.31e-4 0.0014-0.001464 0.0028-7.31e-4 0.0014-0.001464 0.0028-7.31e-4 0.0014-0.001464 0.0028-7.31e-4 0.0014-0.001464 0.0028-7.31e-4 0.0014-7.32e-4 0.0014-7.31e-4 0.0014-0.001464 0.0028-7.31e-4 0.0014-0.001464 0.0028-7.31e-4 0.0014-0.001464 0.0028-7.31e-4 0.0014-0.001464 0.0028-7.31e-4 0.0014-7.32e-4 0.0014-7.31e-4 0.0014-0.001464 0.0028-7.31e-4 0.0014-0.002196 0.0042-0.001462 0.0028-0.001464 0.0028-7.31e-4 0.0014-0.001464 0.0028-7.31e-4 0.0014-0.001464 0.0028-7.31e-4 0.0014-0.001464 0.0028-7.31e-4 0.0014-0.001464 0.0028-7.31e-4 0.0014-7.32e-4 0.0014-7.31e-4 0.0014-0.001464 0.0028-7.31e-4 0.0014-0.001464 0.0028-7.31e-4 0.0014-0.001464 0.0028-7.31e-4 0.0014-0.001464 0.0028-7.31e-4 0.0014-7.32e-4 0.0014-7.31e-4 0.0014-0.001464 0.0028-7.31e-4 0.0014-0.001464 0.0028-7.31e-4 0.0014-0.001464 0.0028-7.31e-4 0.0014-0.001464 0.0028-7.31e-4 0.0014-0.001464 0.0028-7.31e-4 0.0014-0.002196 0.0042-7.31e-4 0.0014-0.002196 0.0042-7.31e-4 0.0014-7.32e-4 0.0014-7.31e-4 0.0014-7.32e-4 0.0014-0.001462 0.0028-0.001464 0.0028-7.31e-4 0.0014-0.001464 0.0028-7.31e-4 0.0014-0.001464 0.0028-7.31e-4 0.0014-0.001464 0.0028-7.31e-4 0.0014-7.32e-4 0.0014-7.31e-4 0.0014-0.001464 0.0028-7.31e-4 0.0014-0.001464 0.0028-7.31e-4 0.0014-0.001464 0.0028-7.31e-4 0.0014-0.001464 0.0028-7.31e-4 0.0014-7.32e-4 0.0014-7.31e-4 0.0014-0.001464 0.0028-7.31e-4 0.0014-0.001464 0.0028-7.31e-4 0.0014-0.002196 0.0042-7.31e-4 0.0014-0.002196 0.0042-7.31e-4 0.0014-0.001464 0.0028-7.31e-4 0.0014-0.001464 0.0028-7.31e-4 0.0014-0.001464 0.0028-7.31e-4 0.0014-0.001464 0.0028-7.31e-4 0.0014-7.32e-4 0.0014-0.001462 0.0028-7.32e-4 0.0014-7.31e-4 0.0014-0.001464 0.0028-7.31e-4 0.0014-0.001464 0.0028-7.31e-4 0.0014-0.001464 0.0028-7.31e-4 0.0014-7.32e-4 0.0014-7.31e-4 0.0014-0.001464 0.0028-7.31e-4 0.0014-0.001464 0.0028-7.31e-4 0.0014-0.001464 0.0028-7.31e-4 0.0014-0.001464 0.0028-7.31e-4 0.0014-0.001464 0.0028-7.31e-4 0.0014-0.002196 0.0042-7.31e-4 0.0014-0.002196 0.0042-7.31e-4 0.0014-0.001464 0.0028-7.31e-4 0.0014-7.32e-4 0.0014-7.31e-4 0.0014-0.001464 0.0028-7.31e-4 0.0014-0.001464 0.0028-7.31e-4 0.0014-0.001464 0.0028-7.31e-4 0.0014-0.001464 0.0028-7.31e-4 0.0014-7.32e-4 0.0014-7.31e-4 0.0014-0.001464 0.0028-0.001462 0.0028-7.32e-4 0.0014-7.31e-4 0.0014-0.001464 0.0028-7.31e-4 0.0014-0.001464 0.0028-7.31e-4 0.0014-7.32e-4 0.0014-7.31e-4 0.0014-0.001464 0.0028-7.31e-4 0.0014-0.001464 0.0028-7.31e-4 0.0014-0.002196 0.0042-7.31e-4 0.0014-0.002196 0.0042-7.31e-4 0.0014-0.001464 0.0028-7.31e-4 0.0014-0.001464 0.0028-7.31e-4 0.0014-0.001464 0.0028-7.31e-4 0.0014-0.001464 0.0028-7.31e-4 0.0014-7.32e-4 0.0014-7.31e-4 0.0014-0.001464 0.0028-7.31e-4 0.0014-0.001464 0.0028-7.31e-4 0.0014-0.001464 0.0028-7.31e-4 0.0014-7.32e-4 0.0014-7.31e-4 0.0014-0.001464 0.0028-7.31e-4 0.0014-0.001464 0.0028-7.31e-4 0.0014-0.001464 0.0028-0.001462 0.0028-7.32e-4 0.0014-7.31e-4 0.0014-0.001464 0.0028-7.31e-4 0.0014-0.001464 0.0028-7.31e-4 0.0014-0.002196 0.0042-7.31e-4 0.0014-0.002196 0.0042-7.31e-4 0.0014-7.32e-4 0.0014-7.31e-4 0.0014-0.001464 0.0028-7.31e-4 0.0014-0.001464 0.0028-7.31e-4 0.0014-0.001464 0.0028-7.31e-4 0.0014-0.001464 0.0028-7.31e-4 0.0014-7.32e-4 0.0014-7.31e-4 0.0014-0.001464 0.0028-7.31e-4 0.0014-0.001464 0.0028-7.31e-4 0.0014-0.001464 0.0028-7.31e-4 0.0014-0.001464 0.0028-7.31e-4 0.0014-7.32e-4 0.0014-7.31e-4 0.0014-0.001464 0.0028-7.31e-4 0.0014-0.001464 0.0028-7.31e-4 0.0014-0.002196 0.0042-7.31e-4 0.0014-7.32e-4 0.0014-0.001462 0.0028-0.002196 0.0042-7.31e-4 0.0014-0.001464 0.0028-7.31e-4 0.0014-0.001464 0.0028-7.31e-4 0.0014-0.001464 0.0028-7.31e-4 0.0014-7.32e-4 0.0014-7.31e-4 0.0014-0.001464 0.0028-7.31e-4 0.0014-0.001464 0.0028-7.31e-4 0.0014-0.001464 0.0028-7.31e-4 0.0014-0.001464 0.0028-7.31e-4 0.0014-7.32e-4 0.0014-7.31e-4 0.0014-0.001464 0.0028-7.31e-4 0.0014-0.001464 0.0028-7.31e-4 0.0014-0.001464 0.0028-7.31e-4 0.0014-0.001464 0.0028-7.31e-4 0.0014-0.001464 0.0028-7.31e-4 0.0014-0.002196 0.0042-7.31e-4 0.0014-0.001464 0.0028-7.31e-4 0.0014-0.002196 0.0042-0.002193 0.0042-0.001464 0.0028-7.31e-4 0.0014-0.001464 0.0028-7.31e-4 0.0014-0.001464 0.0028-7.31e-4 0.0014-0.001464 0.0028-7.31e-4 0.0014-7.32e-4 0.0014-7.31e-4 0.0014-0.001464 0.0028-7.31e-4 0.0014-0.001464 0.0028-7.31e-4 0.0014-0.001464 0.0028-7.31e-4 0.0014-0.001464 0.0028-7.31e-4 0.0014m2.055 13.69v-1.817m-19.55 13.11 15.42-2.385m-26.71-4.131 11.29 6.517m15.42-2.385 4.132-8.904m-32.47 2.386a17.05 9.845 0 1 0 34.11 2.6e-5" style="fill:none;stroke-linecap:round;stroke-width:.8;stroke:#000"/>
</svg>
