<?xml version="1.0" encoding="UTF-8" standalone="no"?>
<!-- Created with Inkscape (http://www.inkscape.org/) -->

<svg
   width="48"
   height="48"
   viewBox="0 0 48.000001 48.000001"
   id="svg15825"
   version="1.1"
   inkscape:version="1.2.2 (b0a8486541, 2022-12-01)"
   sodipodi:docname="DIN6340.svg"
   xmlns:inkscape="http://www.inkscape.org/namespaces/inkscape"
   xmlns:sodipodi="http://sodipodi.sourceforge.net/DTD/sodipodi-0.dtd"
   xmlns="http://www.w3.org/2000/svg"
   xmlns:svg="http://www.w3.org/2000/svg"
   xmlns:rdf="http://www.w3.org/1999/02/22-rdf-syntax-ns#"
   xmlns:cc="http://creativecommons.org/ns#"
   xmlns:dc="http://purl.org/dc/elements/1.1/">
  <defs
     id="defs15827" />
  <sodipodi:namedview
     id="base"
     pagecolor="#ffffff"
     bordercolor="#666666"
     borderopacity="1.0"
     inkscape:pageopacity="0.0"
     inkscape:pageshadow="2"
     inkscape:zoom="11.313709"
     inkscape:cx="23.5113"
     inkscape:cy="21.876116"
     inkscape:document-units="px"
     inkscape:current-layer="layer1"
     showgrid="false"
     units="px"
     inkscape:window-width="1912"
     inkscape:window-height="1136"
     inkscape:window-x="0"
     inkscape:window-y="0"
     inkscape:window-maximized="1"
     inkscape:showpageshadow="0"
     inkscape:pagecheckerboard="0"
     inkscape:deskcolor="#d1d1d1" />
  <metadata
     id="metadata15830">
    <rdf:RDF>
      <cc:Work
         rdf:about="">
        <dc:format>image/svg+xml</dc:format>
        <dc:type
           rdf:resource="http://purl.org/dc/dcmitype/StillImage" />
      </cc:Work>
    </rdf:RDF>
  </metadata>
  <g
     inkscape:label="Layer 1"
     inkscape:groupmode="layer"
     id="layer1"
     transform="translate(0,-1004.3622)">
    <path
       sodipodi:nodetypes="cccsssccccccscccccss"
       inkscape:connector-curvature="0"
       id="path7651"
       d="m 22.324072,1011.6715 c -3.112906,0.015 -6.217373,0.7153 -9.075959,1.9356 -3.472724,1.5304 -6.651332,4.1586 -8.121597,7.7319 -1.295369,3.2351 -1.795484,11.8179 0.876334,16.0422 2.481776,3.9238 6.499354,6.6352 10.822203,8.0948 3.17866,1.0732 6.555034,1.5382 9.91221,1.3682 4.223564,-0.2139 8.457187,-1.4926 11.890234,-3.992 5.392843,-4.8834 5.171333,-11.4424 5.359323,-15.1228 0.23841,-3.71 -1.58947,-7.2886 -4.230645,-9.8016 -3.831908,-3.7632 -9.145181,-5.7047 -14.426998,-6.1841 -1.000203,-0.063 -2.003078,-0.08 -3.005105,-0.072 z m 1.412902,15.6978 c 1.952101,0 3.885433,0.4684 5.499845,1.6083 0.661569,0.3848 -0.433321,1.3732 -0.617109,1.4764 -1.284968,0.76 -2.786085,0.9823 -4.238398,0.9485 -1.972219,0.018 -4.086075,-0.6755 -5.581637,-2.0404 -0.169028,-0.2298 -0.02288,-0.3992 0.06617,-0.5267 1.382725,-1.0796 3.137979,-1.4689 4.871132,-1.4661 z"
       style="fill:#ffaa00;fill-opacity:1;fill-rule:evenodd;stroke:none;stroke-width:1;stroke-linecap:round;stroke-linejoin:round;stroke-miterlimit:4;stroke-dasharray:none;stroke-dashoffset:0;stroke-opacity:1" />
    <path
       inkscape:connector-curvature="0"
       d="m 4.330729,1024.3681 -0.1849607,6.0036"
       id="9"
       style="fill:none;stroke:#000000;stroke-width:1;stroke-linecap:round;stroke-linejoin:miter;stroke-miterlimit:4;stroke-dasharray:none"
       sodipodi:nodetypes="cc" />
    <path
       inkscape:connector-curvature="0"
       d="m 44.02034,1028.0712 -0.184855,6.0032"
       id="10"
       style="fill:none;stroke:#000000;stroke-width:1;stroke-linecap:round;stroke-linejoin:miter;stroke-miterlimit:4;stroke-dasharray:none"
       sodipodi:nodetypes="cc" />
    <path
       inkscape:connector-curvature="0"
       id="path4251"
       d="m 28.704182,1030.3717 a 7.0423229,5.1640156 5.3305994 0 0 2.482654,-3.4985"
       style="fill:none;stroke:#000000;stroke-width:1;stroke-linecap:round;stroke-linejoin:miter;stroke-miterlimit:4;stroke-dasharray:none" />
    <path
       inkscape:connector-curvature="0"
       id="path4253"
       d="M 31.186836,1026.8732 A 7.0423229,5.1640156 5.3305994 0 0 17.16356,1025.5655"
       style="fill:none;stroke:#000000;stroke-width:1;stroke-linecap:round;stroke-linejoin:miter;stroke-miterlimit:4;stroke-dasharray:none" />
    <path
       inkscape:connector-curvature="0"
       id="path4255"
       d="m 17.16356,1025.5655 a 7.0423229,5.1640156 5.3305994 0 0 11.540622,4.8062"
       style="fill:none;stroke:#000000;stroke-width:1;stroke-linecap:round;stroke-linejoin:miter;stroke-miterlimit:4;stroke-dasharray:none" />
    <path
       inkscape:connector-curvature="0"
       id="path4257"
       d="m 36.991481,1037.9688 a 19.931102,14.615158 5.3305994 0 0 7.028859,-9.8976"
       style="fill:none;stroke:#000000;stroke-width:1;stroke-linecap:round;stroke-linejoin:miter;stroke-miterlimit:4;stroke-dasharray:none" />
    <path
       inkscape:connector-curvature="0"
       id="path4259"
       d="M 44.02034,1028.0712 A 19.931102,14.615158 5.3305994 0 0 4.330729,1024.3681"
       style="fill:none;stroke:#000000;stroke-width:1;stroke-linecap:round;stroke-linejoin:miter;stroke-miterlimit:4;stroke-dasharray:none" />
    <path
       inkscape:connector-curvature="0"
       id="path4261"
       d="m 4.330729,1024.3681 a 19.931102,14.615158 5.3305994 0 0 32.660752,13.6007"
       style="fill:none;stroke:#000000;stroke-width:1;stroke-linecap:round;stroke-linejoin:miter;stroke-miterlimit:4;stroke-dasharray:none" />
    <path
       inkscape:connector-curvature="0"
       id="path4263"
       d="m 36.806627,1043.9721 a 19.931102,14.615158 5.3305994 0 0 7.028858,-9.8977"
       style="fill:none;stroke:#000000;stroke-width:1;stroke-linecap:round;stroke-linejoin:miter;stroke-miterlimit:4;stroke-dasharray:none" />
    <path
       inkscape:connector-curvature="0"
       id="path4265"
       d="m 4.1457683,1030.3717 a 19.931102,14.615158 5.3305994 0 0 32.6608587,13.6004"
       style="fill:none;stroke:#000000;stroke-width:1;stroke-linecap:round;stroke-linejoin:miter;stroke-miterlimit:4;stroke-dasharray:none" />
    <path
       inkscape:connector-curvature="0"
       id="path4267"
       d="m 29.481111,1029.4921 c -2.685163,-2.5627 -8.174652,-2.9018 -10.933904,-0.5005"
       style="fill:none;stroke:#000000;stroke-width:1;stroke-linecap:round;stroke-linejoin:miter;stroke-miterlimit:4;stroke-dasharray:none"
       sodipodi:nodetypes="cc" />
  </g>
</svg>
