<?xml version="1.0" encoding="UTF-8"?>
<svg width="48" height="48" version="1.2" viewBox="0 0 127 127" xmlns="http://www.w3.org/2000/svg">
 <title>FreeCAD SVG Export</title>
 <desc>Drawing page: Page exported from FreeCAD document: Unnamed</desc>
 <g>
  <g stroke="#000000" stroke-width="2.646">
   <path d="m101.1 24.27-24.61 88.58s-0.8584 1.213-4.929 4.716c-4.071 3.503-8.017 5.456-8.017 5.456s-6.891-0.0357-14.49-1.677c-7.598-1.641-10.77-3.384-10.77-3.384s-4.589-3.76-7.9-8.316c-3.312-4.556-4.411-6.915-4.411-6.915l24.61-88.58s2.744-2.897 6.682-6.165 6.264-4.006 6.264-4.006 7.474 0.09546 15.29 1.874c7.811 1.779 9.972 3.187 9.972 3.187s3.201 2.373 6.422 6.367c3.22 3.994 5.889 8.865 5.889 8.865z" fill="#ffaf00" stroke-linecap="round" stroke-linejoin="round"/>
   <path d="m38.25 118 24.61-88.58" fill="none" stroke-linecap="round" stroke-linejoin="round"/>
   <path d="m63.51 123 24.61-88.58" fill="none" stroke-linecap="round" stroke-linejoin="round"/>
   <path d="m50.55 14.15s3.871 3.113 6.586 6.614 5.725 8.618 5.725 8.618 7.819 0.2574 13.09 1.363c5.27 1.105 12.17 3.698 12.17 3.698s3.68-3.834 6.681-6.17 6.265-4.001 6.265-4.001" fill="none" stroke-linecap="round" stroke-linejoin="round"/>
   <ellipse transform="matrix(.963 .2693 -.2659 .964 0 0)" cx="78.3" cy="-3.137" rx="14.8" ry="8.365" fill="none"/>
   <ellipse transform="matrix(.9613 .2755 -.272 .9623 0 0)" cx="78.15" cy="-2.776" rx="10.96" ry="6.015" fill="none"/>
  </g>
 </g>
</svg>
