<?xml version="1.0" encoding="UTF-8"?>
<svg version="1.1" viewBox="0 0 48 48" xmlns="http://www.w3.org/2000/svg">
 <title>DIN653</title>
 <g fill="#ffaf00">
  <path d="m3.1738 4.3555c-0.44531 0.18359-0.29589 0.12199-0.44531 0.18359l-0.90625 0.90625c-0.18359 0.44531-0.1228 0.29786-0.18359 0.44531v7.2441c0.18359 0.44531 0.12199 0.29589 0.18359 0.44531l0.90625 0.9043c0.44531 0.18555 0.29563 0.12318 0.44531 0.18555h13.582c-0.0026-1.264 0.0019 0 0.0039 0 0.34566-0.0021 0.71756 0.17869 0.92773 0.45312v2e-3l2e-3 2e-3c0.05562 0.07176 0.1006 0.14603 0.13867 0.22852 0.07387 0.16132 0.1088 0.31776 0.10938 0.49414 2e-6 6.65e-4 -1e-6 0.0013 0 2e-3v5.4316h0.62891l0.0078 0.63086c0.10583-0.0011 0.25295 0.08919 0.30078 0.18359l2e-3 2e-3c0.02903 0.05636 0.04059 0.10157 0.04102 0.16406 5e-6 7.01e-4 -2e-6 0.0012 0 2e-3v4.3418l-0.94336 2.6113c-0.03719 0.21484-0.02499 0.14437-0.03719 0.21484v12.496c0.18359 0.44531 0.12199 0.29589 0.18359 0.44531l1.0879 1.0859c0.44531 0.18359 0.29786 0.1228 0.44531 0.18359h8.6914c0.44531-0.18359 0.29589-0.12199 0.44531-0.18359l1.0879-1.0859c0.1211-0.37523 0.1228-0.29786 0.1836-0.44531v-12.496c-0.03711-0.21484-0.0245-0.14185-0.03711-0.21484l-0.94336-2.6113v-4.3438c0-0.20089 0.15067-0.34961 0.35156-0.34961v-0.63086h0.62891v-5.4336c1e-3 -0.65877 0.52259-1.1797 1.1816-1.1797h13.582c0.44531-0.18555 0.29812-0.12422 0.44531-0.18555l0.90625-0.9043c0.18359-0.44531 0.1228-0.29786 0.18359-0.44531v-7.2441c-0.18359-0.44531-0.12199-0.29589-0.18359-0.44531l-0.90625-0.90625c-0.44531-0.18359-0.29786-0.1228-0.44531-0.18359z" color="#000000" style="-inkscape-stroke:none"/>
  <path transform="translate(3.4259 1.5693)" d="m6 11.166v-6.3317m30.046 6.3317v-6.3317m-25.207 6.3317v-6.3317m10.113 6.3317v-6.3317m5.0564 6.3317v-6.3317m-10.113 6.3317v-6.3317m24.105 6.3317v-6.3317m-8.9356 6.3317v-6.3317m-29.903 6.3317v-6.3317" stroke="#000000" stroke-width="1.037"/>
  <path d="m3.1733 14.04 13.583-5.3e-5m28.07-9.0551h-41.653m28.071 9.0551 13.582 5.3e-5m-25.173 28.976h8.6929m-8.6929 0-1.0867-1.0863m0-12.496v12.496m0.98036-15.212-0.98036 2.7164m0.98036-7.1692v4.4528m-5e-6 -4.453c-4.79e-4 -0.15947-0.03733-0.31009-0.11036-0.45186-0.16203-0.31983-0.51135-0.53202-0.86987-0.52837m-1.25e-4 -5.4332v5.4332m1.25e-4 -5.433c-4.79e-4 -0.26475-0.05613-0.51748-0.16636-0.75819-0.05786-0.12538-0.12908-0.24264-0.21367-0.35178-0.33524-0.43774-0.87962-0.70443-1.431-0.70102m-13.583 5.3e-5 -0.90513-0.90561m0-7.2439v7.2439m0.90513-8.1495-0.90513 0.90561m27.165 36.039-1.0863 1.0863m1.0863-13.582v12.496m-0.97988-15.212 0.97988 2.7164m-0.97988-7.1692v4.4528m0.98009-5.4332a0.98023 0.98023 0 0 0-0.98024 0.98023m0.98003-6.4134v5.4332m1.8112-7.244a1.811 1.811 0 0 0-1.811 1.811m16.299-2.7166-0.90561 0.90561m0.90561-8.1495v7.2439m-0.90561-8.1495 0.90561 0.90561" stroke="#000000" stroke-width="1.26"/>
 </g>
</svg>
