<?xml version="1.0" encoding="UTF-8"?>
<svg width="48" height="48" version="1.1" viewBox="0 0 48 48" xmlns="http://www.w3.org/2000/svg">
 <desc>DIN6319G-SRC.dxf - scale = 1.000000, origin = (0.000000, 0.000000), method = manual</desc>
 <path d="m14.902 23.846c3.2159 4.9617 15.372 4.9617 18.588 2e-6m-9.2939 14.355c-11.811-8e-6 -21.386-5.5281-21.386-12.347v-5.5879c1.173e-4 -6.8193 9.5752-12.347 21.387-12.347s21.386 5.5281 21.387 12.347v5.5879c-3.2e-4 6.8193-9.5754 12.347-21.387 12.347zm9.2942-14.355c-3.2155-4.9622-15.373-4.9622-18.588-9.7e-5" fill="#ffaf00" stroke="#000" stroke-linecap="round" stroke-width=".8"/>
 <path d="m33.49 23.846a9.9233 5.7292 0 1 0-18.588-2e-6m22.553-3.5802a13.26 7.6554 0 1 0 0 4.1e-5m-34.646-7.3e-5a21.386 12.347 0 1 0 42.773 3.2e-5" fill="none" stroke="#000" stroke-linecap="round" stroke-width=".8"/>
</svg>
