<?xml version="1.0" encoding="UTF-8"?>
<!-- Created with Inkscape (http://www.inkscape.org/) -->
<svg width="48" height="48" version="1.1" viewBox="0 0 48 48" xml:space="preserve" xmlns="http://www.w3.org/2000/svg" xmlns:cc="http://creativecommons.org/ns#" xmlns:dc="http://purl.org/dc/elements/1.1/" xmlns:rdf="http://www.w3.org/1999/02/22-rdf-syntax-ns#"><metadata><rdf:RDF><cc:Work rdf:about=""><dc:format>image/svg+xml</dc:format><dc:type rdf:resource="http://purl.org/dc/dcmitype/StillImage"/></cc:Work></rdf:RDF></metadata><g transform="translate(0 -1004)"><g fill-rule="evenodd" font-family="'Sans Serif'" font-size="31.75px" font-weight="400" stroke-linejoin="bevel"><g transform="matrix(.2126 0 0 .2122 -15.86 1029)" fill="#ffaa00" stroke-linecap="square" stroke-width="1.78"><path d="m267.8-0.3733c0.445 2.992-0.436 6.029-2.411 8.32-1.976 2.291-4.851 3.608-7.876 3.608h-20.03c0 7.524-1.698 14.95-4.967 21.73l14.98 41.16c1.266 3.48 4.288 6.024 7.933 6.679 3.646 0.6549 7.364-0.6781 9.763-3.5 25.75-30.29 31.56-72.79 14.87-108.9-16.69-36.09-52.82-59.19-92.58-59.19s-75.9 23.1-92.58 59.19c-16.69 36.09-10.88 78.58 14.87 108.9 2.399 2.822 6.117 4.155 9.763 3.5 3.645-0.6549 6.667-3.199 7.933-6.679l14.98-41.16c-3.269-6.776-4.967-14.2-4.967-21.73h-20.03c-3.025 0-5.9-1.317-7.876-3.608-1.975-2.291-2.856-5.328-2.411-8.32 3.388-22.82 16.32-43.11 35.56-55.83 2.524-1.667 5.649-2.153 8.56-1.33 2.911 0.8224 5.32 2.872 6.598 5.613l8.466 18.16c6.617-3.086 13.83-4.685 21.13-4.685s14.51 1.599 21.13 4.685l8.466-18.16c1.278-2.742 3.687-4.791 6.598-5.613 2.911-0.8225 6.036-0.3367 8.56 1.33 19.24 12.71 32.18 33.01 35.56 55.83" fill="#ffaa00" fill-rule="evenodd" stroke-width="2.918" vector-effect="non-scaling-stroke"/></g><g transform="matrix(.2126 0 0 .2122 -15.86 1029)" fill="none" stroke="#000000" stroke-linecap="round" stroke-width="4.708"><path d="m265.2 77.62c-2.399 2.822-6.117 4.155-9.763 3.5-3.645-0.6549-6.667-3.199-7.933-6.679" fill-rule="evenodd" stroke-width="4.708"/></g><g transform="matrix(.2126 0 0 .2122 -15.86 1029)" fill="none" stroke="#000000" stroke-linecap="round" stroke-width="4.708"><path d="m232.5 33.28 14.98 41.16" fill-rule="evenodd" stroke-width="4.708"/></g><g transform="matrix(.2126 0 0 .2122 -15.86 1029)" fill="none" stroke="#000000" stroke-linecap="round" stroke-width="4.708"><path d="m232.5 33.28c3.269-6.776 4.967-14.2 4.967-21.73" fill-rule="evenodd" stroke-width="4.708"/></g><g transform="matrix(.2126 0 0 .2122 -15.86 1029)" fill="none" stroke="#000000" stroke-linecap="round" stroke-width="4.708"><path d="m237.5 11.55h20.03" fill-rule="evenodd" stroke-width="4.708"/></g><g transform="matrix(.2126 0 0 .2122 -15.86 1029)" fill="none" stroke="#000000" stroke-linecap="round" stroke-width="4.708"><path d="m267.8-0.3733c0.445 2.992-0.436 6.029-2.411 8.32-1.976 2.291-4.851 3.608-7.876 3.608" fill-rule="evenodd" stroke-width="4.708"/></g><g transform="matrix(.2126 0 0 .2122 -15.86 1029)" fill="none" stroke="#000000" stroke-linecap="round" stroke-width="4.708"><path d="m267.8-0.3733c-3.388-22.82-16.32-43.11-35.56-55.83" fill-rule="evenodd" stroke-width="4.708"/></g><g transform="matrix(.2126 0 0 .2122 -15.86 1029)" fill="none" stroke="#000000" stroke-linecap="round" stroke-width="4.708"><path d="m232.3-56.2c-2.524-1.667-5.649-2.153-8.56-1.33-2.911 0.8224-5.32 2.872-6.598 5.613" fill-rule="evenodd" stroke-width="4.708"/></g><g transform="matrix(.2126 0 0 .2122 -15.86 1029)" fill="none" stroke="#000000" stroke-linecap="round" stroke-width="4.708"><path d="m208.6-33.76 8.466-18.16" fill-rule="evenodd" stroke-width="4.708"/></g><g transform="matrix(.2126 0 0 .2122 -15.86 1029)" fill="none" stroke="#000000" stroke-linecap="round" stroke-width="4.708"><path d="m265.2 77.62c25.75-30.29 31.56-72.79 14.87-108.9-16.69-36.09-52.82-59.19-92.58-59.19" fill-rule="evenodd" stroke-width="4.708"/></g><g transform="matrix(.2126 0 0 .2122 -15.86 1029)" fill="none" stroke="#000000" stroke-linecap="round" stroke-width="4.708"><path d="m109.8 77.62c-25.75-30.29-31.56-72.79-14.87-108.9 16.69-36.09 52.82-59.19 92.58-59.19" fill-rule="evenodd" stroke-width="4.708"/></g><g transform="matrix(.2126 0 0 .2122 -15.86 1029)" fill="none" stroke="#000000" stroke-linecap="round" stroke-width="4.708"><path d="m109.8 77.62c2.399 2.822 6.117 4.155 9.763 3.5 3.645-0.6549 6.667-3.199 7.933-6.679" fill-rule="evenodd" stroke-width="4.708"/></g><g transform="matrix(.2126 0 0 .2122 -15.86 1029)" fill="none" stroke="#000000" stroke-linecap="round" stroke-width="4.708"><path d="m142.5 33.28-14.98 41.16" fill-rule="evenodd" stroke-width="4.708"/></g><g transform="matrix(.2126 0 0 .2122 -15.86 1029)" fill="none" stroke="#000000" stroke-linecap="round" stroke-width="4.708"><path d="m142.5 33.28c-3.269-6.776-4.967-14.2-4.967-21.73" fill-rule="evenodd" stroke-width="4.708"/></g><g transform="matrix(.2126 0 0 .2122 -15.86 1029)" fill="none" stroke="#000000" stroke-linecap="round" stroke-width="4.708"><path d="m137.5 11.55h-20.03" fill-rule="evenodd" stroke-width="4.708"/></g><g transform="matrix(.2126 0 0 .2122 -15.86 1029)" fill="none" stroke="#000000" stroke-linecap="round" stroke-width="4.708"><path d="m107.2-0.3733c-0.445 2.992 0.436 6.029 2.411 8.32 1.976 2.291 4.851 3.608 7.876 3.608" fill-rule="evenodd" stroke-width="4.708"/></g><g transform="matrix(.2126 0 0 .2122 -15.86 1029)" fill="none" stroke="#000000" stroke-linecap="round" stroke-width="4.708"><path d="m107.2-0.3733c3.388-22.82 16.32-43.11 35.56-55.83" fill-rule="evenodd" stroke-width="4.708"/></g><g transform="matrix(.2126 0 0 .2122 -15.86 1029)" fill="none" stroke="#000000" stroke-linecap="round" stroke-width="4.708"><path d="m142.7-56.2c2.524-1.667 5.649-2.153 8.56-1.33 2.911 0.8224 5.32 2.872 6.598 5.613" fill-rule="evenodd" stroke-width="4.708"/></g><g transform="matrix(.2126 0 0 .2122 -15.86 1029)" fill="none" stroke="#000000" stroke-linecap="round" stroke-width="4.708"><path d="m166.4-33.76-8.466-18.16" fill-rule="evenodd" stroke-width="4.708"/></g><g transform="matrix(.2126 0 0 .2122 -15.86 1029)" fill="none" stroke="#000000" stroke-linecap="round" stroke-width="4.708"><path d="m166.4-33.76c6.617-3.086 13.83-4.685 21.13-4.685" fill-rule="evenodd" stroke-width="4.708"/></g><g transform="matrix(.2126 0 0 .2122 -15.86 1029)" fill="none" stroke="#000000" stroke-linecap="round" stroke-width="4.708"><path d="m208.6-33.76c-6.617-3.086-13.83-4.685-21.13-4.685" fill-rule="evenodd" stroke-width="4.708"/></g></g></g></svg>
