<?xml version="1.0" encoding="UTF-8"?>
<svg width="48" height="48" version="1.1" viewBox="0 0 48 48" xmlns="http://www.w3.org/2000/svg">
 <desc>DIN6319C-SRC.dxf - scale = 1.000000, origin = (0.000000, 0.000000), method = manual</desc>
 <path d="m24.141 10.879c-11.787 8e-6 -21.343 5.5152-21.344 12.32v1.502c-0.0015007 6.806 9.5555 12.322 21.344 12.322 11.788-1e-5 21.343-5.5162 21.342-12.322v-1.502c-0.0011-6.8051-9.5551-12.32-21.342-12.32zm0 6.291c3.1483-1e-6 6.2944 0.65588 8.7812 1.9648h0.021484c0.049919 0.02882 0.09746 0.058607 0.14648 0.08789 0.019365 0.01055 0.039313 0.020619 0.058594 0.03125h-0.007813c1.0376 0.6272 1.8737 1.3551 2.4609 2.1543-4.2927 5.8402-18.629 5.8402-22.922 0 0.58714-0.79906 1.4217-1.5272 2.459-2.1543h-0.007813c0.020484-0.011294 0.041922-0.022 0.0625-0.033203 0.04796-0.028625 0.093764-0.057755 0.14258-0.085937h0.023437c2.4867-1.3087 5.6333-1.9648 8.7812-1.9648z" fill="#ffaf00" stroke="#000" stroke-linecap="round" stroke-width=".8"/>
 <path d="m32.944 19.134a12.45 7.1881 0 0 0-17.607 2.5e-5m-12.54 4.0654a21.343 12.322 0 1 0 42.686-3.1e-5m-9.8822-1.7903a12.45 7.1881 0 1 0-22.922-9e-6" fill="none" stroke="#000" stroke-linecap="round" stroke-width=".8"/>
</svg>
