<?xml version="1.0" encoding="UTF-8"?>
<svg width="48" height="48" version="1.1" viewBox="0 0 48 48" xmlns="http://www.w3.org/2000/svg">
 <desc>DIN6319D-SRC.dxf - scale = 1.000000, origin = (0.000000, 0.000000), method = manual</desc>
 <path d="m10.867 25.325c4.2112 7.2011 21.852 7.2011 26.063 1.2e-5m-13.032 14.867c-11.79-9e-6 -21.347-5.5192-21.343-12.326v-7.2614c0.003161-6.804 9.5578-12.319 21.343-12.319 11.785 8.8e-6 21.34 5.5147 21.343 12.319v7.2614c0.0036 6.807-9.5531 12.326-21.343 12.326zm13.032-14.867c-4.2115-7.2008-21.852-7.2007-26.063 4.7e-5" fill="#ffaf00" stroke="#000" stroke-linecap="round" stroke-width=".8"/>
 <path d="m36.93 25.325a13.754 7.9411 0 1 0-26.063-1.2e-5m31.411-4.7209a18.379 10.611 0 1 0 0 5.6e-5m-39.722-8.8e-5a21.343 12.322 0 1 0 42.686 3.2e-5" fill="none" stroke="#000" stroke-linecap="round" stroke-width=".8"/>
</svg>
