<?xml version="1.0" encoding="UTF-8"?>
<!-- Created with Inkscape (http://www.inkscape.org/) -->
<svg width="48" height="48" version="1.1" viewBox="0 0 12.7 12.7" xml:space="preserve" xmlns="http://www.w3.org/2000/svg"><g><g transform="matrix(1.091 0 0 1.091 -.4106 -.4034)" stroke="#000000" stroke-linecap="round" stroke-width=".2425"><path d="m4.874 0.97s-1.089 0.6752-2.28 1.682c-1.191 1.007-1.797 1.915-1.797 1.915l1.457 5.747 5.293 1.093 4.047-3.471-0.2532-1.338-1.144-4.345s-1.373-0.6353-2.577-0.8919c-1.203-0.2567-2.747-0.3912-2.747-0.3912zm2.382 3.104c0.04195-3.97e-5 0.08798 0.00578 0.138 0.01912 0.3999 0.1067 0.2067 0.3597 0.2067 0.3597l-0.1617 0.2858s0.413 0.03931 0.7803 0.3819c0.3673 0.3426 0.5385 0.6589 0.5385 0.6589l0.3793 0.00775s0.4441-0.08884 0.4759 0.2698c0.03187 0.3586-0.3411 0.3705-0.3411 0.3705l-0.3586-0.01964s0.04337 0.4102-0.1437 0.8635c-0.187 0.4533-0.4418 0.6981-0.4418 0.6981l0.4444 0.5653-0.4635 0.4367-0.5473-0.5111s-0.2806 0.2572-0.8945 0.3633-0.9601 0.07803-0.9601 0.07803l-0.1819 0.7333-0.7519-0.1969 0.1716-0.6764s-0.4335-0.1556-0.8175-0.5111-0.4398-0.6201-0.4398-0.6201l-0.3302 0.1974s-0.3203 0.1192-0.4863-0.1809c-0.1659-0.3 0.2801-0.4739 0.2801-0.4739l0.3829-0.1504s-0.08611-0.4055 0.08733-0.802c0.1734-0.3965 0.5354-0.7565 0.5354-0.7565l-0.3002-0.124s-0.2846-0.2452 0.0062-0.4987 0.6015-0.02377 0.6015-0.02377l0.2222 0.1669s0.2331-0.1478 0.8418-0.2915c0.6087-0.1436 0.9798-0.09147 0.9798-0.09147l0.1519-0.2403s0.1027-0.287 0.3964-0.2873z" fill="#ffaf00" stroke-linejoin="round"/><path d="m1.185 5.952 4.04-3.394 5.28 1.071" fill="none" stroke-linejoin="round"/><path d="m5.225 2.558-0.3513-1.588" fill="none" stroke-linejoin="round"/><path d="m1.927 9.024s1.433 0.0578 2.625 0.3283 2.635 0.7264 2.635 0.7264 0.8683-0.9091 1.813-1.668c0.9443-0.7586 2.341-1.812 2.341-1.812" fill="none" stroke-linejoin="round"/><path d="m7.187 10.08 0.3607 1.329" fill="none" stroke-linejoin="round"/><path d="m4.128 9.216a3.515 3.103 0 0 1-0.7191-4.071 3.515 3.103 0 0 1 4.493-1.113 3.515 3.103 0 0 1 1.784 3.807" fill="none"/><path d="m7.501 9.76a3.515 3.103 0 0 1-0.8045 0.1525" fill="none"/><path d="m11.1 6.687-1.092-4.362s-0.8929-0.5331-2.328-0.8338-2.789-0.4335-2.789-0.4335-1.189 0.7676-2.159 1.618c-0.97 0.8507-1.764 1.762-1.764 1.762" fill="none" stroke-linejoin="round"/><path d="m0.9688 4.438 1.187 4.538s1.214-0.00253 2.391 0.2747c1.178 0.2772 2.601 0.7171 2.601 0.7171s0.7387-0.7596 1.874-1.69c1.135-0.9303 2.08-1.591 2.08-1.591" fill="none" stroke-linejoin="round"/></g></g></svg>
