<?xml version="1.0" encoding="UTF-8" standalone="no"?>
<!-- Created with Inkscape (http://www.inkscape.org/) -->

<svg
   xmlns:dc="http://purl.org/dc/elements/1.1/"
   xmlns:cc="http://creativecommons.org/ns#"
   xmlns:rdf="http://www.w3.org/1999/02/22-rdf-syntax-ns#"
   xmlns:svg="http://www.w3.org/2000/svg"
   xmlns="http://www.w3.org/2000/svg"
   xmlns:sodipodi="http://sodipodi.sourceforge.net/DTD/sodipodi-0.dtd"
   xmlns:inkscape="http://www.inkscape.org/namespaces/inkscape"
   width="48"
   height="48"
   viewBox="0 0 48.000001 48.000001"
   id="svg15825"
   version="1.1"
   inkscape:version="0.91 r13725"
   sodipodi:docname="DIN967.svg">
  <defs
     id="defs15827" />
  <sodipodi:namedview
     id="base"
     pagecolor="#ffffff"
     bordercolor="#666666"
     borderopacity="1.0"
     inkscape:pageopacity="0.0"
     inkscape:pageshadow="2"
     inkscape:zoom="12.625"
     inkscape:cx="8.6674191"
     inkscape:cy="23.841584"
     inkscape:document-units="px"
     inkscape:current-layer="layer1"
     showgrid="false"
     units="px"
     inkscape:window-width="1260"
     inkscape:window-height="787"
     inkscape:window-x="124"
     inkscape:window-y="83"
     inkscape:window-maximized="0" />
  <metadata
     id="metadata15830">
    <rdf:RDF>
      <cc:Work
         rdf:about="">
        <dc:format>image/svg+xml</dc:format>
        <dc:type
           rdf:resource="http://purl.org/dc/dcmitype/StillImage" />
        <dc:title />
      </cc:Work>
    </rdf:RDF>
  </metadata>
  <g
     inkscape:label="Layer 1"
     inkscape:groupmode="layer"
     id="layer1"
     transform="translate(0,-1004.3622)">
    <g
       id="g7031"
       transform="matrix(1.2921222,0,0,1.2921222,-7.6579016,-299.43785)"
       style="stroke-width:0.77392061;stroke-miterlimit:4;stroke-dasharray:none">
      <path
         transform="translate(0,1004.3622)"
         inkscape:connector-curvature="0"
         id="path7029"
         d="m 17.453713,30.553434 c -0.627577,0.178316 -0.459576,0.96948 -0.598968,1.462793 -0.188189,1.68051 -0.05981,0.953438 0.0038,2.650661 0.27964,1.82859 1.859773,3.143475 3.480043,3.832147 1.719374,0.777165 3.682169,0.866714 5.509746,0.471534 1.691394,-0.469694 3.427148,-1.567893 3.963181,-3.326268 0.326963,-1.951532 0.126667,-1.508169 0.301081,-3.478707 -0.112312,-0.645571 -0.839935,-0.451886 -1.295328,-0.384282 -2.186512,0.346442 -4.394795,0.310682 -6.585242,-0.0011 -1.585649,-0.215968 -3.051753,-0.830463 -4.605816,-1.225402 -0.05727,-0.01022 -0.114914,-0.0045 -0.172494,-0.0014 z"
         style="opacity:1;fill:#ffaa00;fill-opacity:1;fill-rule:evenodd;stroke:none;stroke-width:0.77392061;stroke-linecap:round;stroke-linejoin:round;stroke-miterlimit:4;stroke-dasharray:none;stroke-dashoffset:0;stroke-opacity:1"
         sodipodi:nodetypes="cccccccccccc" />
      <path
         sodipodi:nodetypes="cccccccccc"
         inkscape:connector-curvature="0"
         id="path7027"
         d="m 23.696132,1011.7573 c -4.130027,0.056 -8.423375,1.5161 -11.400206,4.8288 -2.155773,2.3875 -3.2202579,6.0305 -2.4288469,9.347 0.8604329,3.7391 3.5797409,6.565 6.5532099,8.3152 2.610393,1.5196 5.532553,2.3812 8.471539,2.5163 2.23037,0.066 4.482037,-0.1719 6.605046,-0.9724 3.23754,-1.1656 6.37689,-3.4835 7.780917,-7.0633 0.926851,-2.2429 0.971206,-4.8816 0.148671,-7.1709 -1.320178,-3.866 -4.466339,-6.5714 -7.804587,-8.1068 -2.502525,-1.1573 -5.218771,-1.725 -7.925743,-1.6939 z"
         style="opacity:1;fill:#ffaa00;fill-opacity:1;fill-rule:evenodd;stroke:none;stroke-width:0.77392061;stroke-linecap:round;stroke-linejoin:round;stroke-miterlimit:4;stroke-dasharray:none;stroke-dashoffset:0;stroke-opacity:1" />
      <path
         inkscape:connector-curvature="0"
         d="m 9.6015686,1021.5212 -0.201615,2.1588"
         id="21"
         style="fill:none;stroke:#000000;stroke-width:0.77392061;stroke-linecap:round;stroke-linejoin:miter;stroke-miterlimit:4;stroke-dasharray:none" />
      <path
         inkscape:connector-curvature="0"
         d="m 40.030356,1024.3605 -0.20126,2.1588"
         id="22"
         style="fill:none;stroke:#000000;stroke-width:0.77392061;stroke-linecap:round;stroke-linejoin:miter;stroke-miterlimit:4;stroke-dasharray:none" />
      <path
         inkscape:connector-curvature="0"
         id="path4167"
         d="m 31.2516,1014.5705 a 17.53937,17.53937 0 0 0 -11.211768,-1.0462"
         style="fill:none;stroke:#000000;stroke-width:0.77392061;stroke-linecap:round;stroke-linejoin:miter;stroke-miterlimit:4;stroke-dasharray:none" />
      <path
         inkscape:connector-curvature="0"
         id="path4541"
         d="M 33.444836,1030.8514 A 13.418947,9.8399053 5.3305994 0 0 31.2516,1014.5705"
         style="fill:none;stroke:#000000;stroke-width:0.77392061;stroke-linecap:round;stroke-linejoin:miter;stroke-miterlimit:4;stroke-dasharray:none" />
      <path
         inkscape:connector-curvature="0"
         id="path4543"
         d="m 20.039832,1013.5243 a 13.418947,9.8399053 5.3305994 1 0 13.405004,17.3271"
         style="fill:none;stroke:#000000;stroke-width:0.77392061;stroke-linecap:round;stroke-linejoin:miter;stroke-miterlimit:4;stroke-dasharray:none" />
      <path
         inkscape:connector-curvature="0"
         id="path4545"
         d="m 34.641943,1031.9489 a 15.280512,11.204947 5.3305994 0 0 5.388413,-7.5884"
         style="fill:none;stroke:#000000;stroke-width:0.77392061;stroke-linecap:round;stroke-linejoin:miter;stroke-miterlimit:4;stroke-dasharray:none" />
      <path
         inkscape:connector-curvature="0"
         id="path4547"
         d="M 40.030356,1024.3605 A 15.280512,11.204947 5.3305994 0 0 9.6015686,1021.5212"
         style="fill:none;stroke:#000000;stroke-width:0.77392061;stroke-linecap:round;stroke-linejoin:miter;stroke-miterlimit:4;stroke-dasharray:none" />
      <path
         inkscape:connector-curvature="0"
         id="path4549"
         d="m 9.6015686,1021.5212 a 15.280512,11.204947 5.3305994 0 0 25.0403744,10.4277"
         style="fill:none;stroke:#000000;stroke-width:0.77392061;stroke-linecap:round;stroke-linejoin:miter;stroke-miterlimit:4;stroke-dasharray:none" />
      <path
         inkscape:connector-curvature="0"
         id="path4551"
         d="m 34.44047,1034.1077 a 15.280512,11.204947 5.3305994 0 0 5.388485,-7.5884"
         style="fill:none;stroke:#000000;stroke-width:0.77392061;stroke-linecap:round;stroke-linejoin:miter;stroke-miterlimit:4;stroke-dasharray:none" />
      <path
         inkscape:connector-curvature="0"
         id="path4553"
         d="M 9.4000606,1023.68 A 15.280512,11.204947 5.3305994 0 0 34.44047,1034.1077"
         style="fill:none;stroke:#000000;stroke-width:0.77392061;stroke-linecap:round;stroke-linejoin:miter;stroke-miterlimit:4;stroke-dasharray:none" />
      <path
         sodipodi:nodetypes="cccccccc"
         inkscape:connector-curvature="0"
         d="m 16.707425,1038.046 c -0.399419,4.2819 6.410941,7.1179 10.88706,4.5337 m 0,0 c 1.374636,-0.7936 2.220138,-1.9844 2.342799,-3.2994 m 0.354718,-3.5167 -0.354718,3.5167 m -12.875105,-4.751 -0.354754,3.5167"
         style="fill:none;stroke:#000000;stroke-width:0.77392061;stroke-linecap:round;stroke-linejoin:miter;stroke-miterlimit:4;stroke-dasharray:none"
         id="path4557" />
      <path
         inkscape:connector-curvature="0"
         id="path4559"
         d="m 26.375762,1021.2032 a 3.998684,17.515718 28.614001 0 1 0.568807,-0.7448"
         style="fill:none;stroke:#000000;stroke-width:0.77392061;stroke-linecap:round;stroke-linejoin:miter;stroke-miterlimit:4;stroke-dasharray:none" />
      <path
         inkscape:connector-curvature="0"
         id="path4561"
         d="m 25.78736,1023.9367 a 0.07666831,17.536181 12.012 0 1 0.588402,-2.7335"
         style="fill:none;stroke:#000000;stroke-width:0.77392061;stroke-linecap:round;stroke-linejoin:miter;stroke-miterlimit:4;stroke-dasharray:none" />
      <path
         inkscape:connector-curvature="0"
         id="path4563"
         d="m 25.78736,1023.9367 a 6.0981201,4.4716623 5.3309994 0 1 -2.309634,-0.2443"
         style="fill:none;stroke:#000000;stroke-width:0.77392061;stroke-linecap:round;stroke-linejoin:miter;stroke-miterlimit:4;stroke-dasharray:none" />
      <path
         inkscape:connector-curvature="0"
         id="path4565"
         d="m 23.509084,1020.8996 a 0.32524902,17.536181 0.07239989 0 0 -0.03189,2.7927"
         style="fill:none;stroke:#000000;stroke-width:0.77392061;stroke-linecap:round;stroke-linejoin:miter;stroke-miterlimit:4;stroke-dasharray:none" />
      <path
         inkscape:connector-curvature="0"
         id="path4567"
         d="m 23.122935,1020.0538 a 17.515718,3.6347687 73.5846 0 1 0.386149,0.8458"
         style="fill:none;stroke:#000000;stroke-width:0.77392061;stroke-linecap:round;stroke-linejoin:miter;stroke-miterlimit:4;stroke-dasharray:none" />
      <path
         inkscape:connector-curvature="0"
         id="path4569"
         d="m 22.15912,1019.662 a 17.515718,9.4399546 36.614799 0 1 0.963815,0.3918"
         style="fill:none;stroke:#000000;stroke-width:0.77392061;stroke-linecap:round;stroke-linejoin:miter;stroke-miterlimit:4;stroke-dasharray:none" />
      <path
         inkscape:connector-curvature="0"
         id="path4571"
         d="m 19.089801,1019.6696 a 17.536181,10.866144 11.789199 0 1 3.069319,-0.01"
         style="fill:none;stroke:#000000;stroke-width:0.77392061;stroke-linecap:round;stroke-linejoin:miter;stroke-miterlimit:4;stroke-dasharray:none" />
      <path
         inkscape:connector-curvature="0"
         id="path4573"
         d="m 19.089801,1019.6696 a 6.0981201,4.4716623 5.3309994 0 1 0.197362,-1.6921"
         style="fill:none;stroke:#000000;stroke-width:0.77392061;stroke-linecap:round;stroke-linejoin:miter;stroke-miterlimit:4;stroke-dasharray:none" />
      <path
         inkscape:connector-curvature="0"
         id="path4575"
         d="m 22.404175,1017.5622 a 17.536181,12.84703 0.73099982 0 0 -3.117047,0.4153"
         style="fill:none;stroke:#000000;stroke-width:0.77392061;stroke-linecap:round;stroke-linejoin:miter;stroke-miterlimit:4;stroke-dasharray:none" />
      <path
         inkscape:connector-curvature="0"
         id="path4577"
         d="m 23.449628,1017.2544 a 12.031636,17.515718 61.286402 0 0 -1.045453,0.3078"
         style="fill:none;stroke:#000000;stroke-width:0.77392061;stroke-linecap:round;stroke-linejoin:miter;stroke-miterlimit:4;stroke-dasharray:none" />
      <path
         inkscape:connector-curvature="0"
         id="path4579"
         d="m 24.006494,1016.6371 a 6.4199409,17.515718 21.343901 0 0 -0.556866,0.6173"
         style="fill:none;stroke:#000000;stroke-width:0.77392061;stroke-linecap:round;stroke-linejoin:miter;stroke-miterlimit:4;stroke-dasharray:none" />
      <path
         inkscape:connector-curvature="0"
         id="path4581"
         d="m 24.495222,1014.9707 a 2.0286912,17.536181 6.0882001 0 0 -0.488728,1.6664"
         style="fill:none;stroke:#000000;stroke-width:0.77392061;stroke-linecap:round;stroke-linejoin:miter;stroke-miterlimit:4;stroke-dasharray:none" />
      <path
         inkscape:connector-curvature="0"
         id="path4583"
         d="m 24.495222,1014.9707 a 6.0981201,4.4716623 5.3309994 0 1 2.309776,0.2446"
         style="fill:none;stroke:#000000;stroke-width:0.77392061;stroke-linecap:round;stroke-linejoin:miter;stroke-miterlimit:4;stroke-dasharray:none" />
      <path
         inkscape:connector-curvature="0"
         id="path4585"
         d="m 26.873065,1016.9404 a 1.6267713,17.536181 5.9970001 0 0 -0.06803,-1.7251"
         style="fill:none;stroke:#000000;stroke-width:0.77392061;stroke-linecap:round;stroke-linejoin:miter;stroke-miterlimit:4;stroke-dasharray:none" />
      <path
         inkscape:connector-curvature="0"
         id="path4587"
         d="m 27.271084,1017.6588 a 17.515718,6.0560256 80.874 0 0 -0.398019,-0.7184"
         style="fill:none;stroke:#000000;stroke-width:0.77392061;stroke-linecap:round;stroke-linejoin:miter;stroke-miterlimit:4;stroke-dasharray:none" />
      <path
         inkscape:connector-curvature="0"
         id="path4589"
         d="m 28.223029,1018.178 a 17.515718,11.861211 41.804998 0 0 -0.951945,-0.5192"
         style="fill:none;stroke:#000000;stroke-width:0.77392061;stroke-linecap:round;stroke-linejoin:miter;stroke-miterlimit:4;stroke-dasharray:none" />
      <path
         inkscape:connector-curvature="0"
         id="path4591"
         d="m 31.192923,1019.238 a 17.536181,12.81817 12.763999 0 0 -2.969894,-1.06"
         style="fill:none;stroke:#000000;stroke-width:0.77392061;stroke-linecap:round;stroke-linejoin:miter;stroke-miterlimit:4;stroke-dasharray:none" />
      <path
         inkscape:connector-curvature="0"
         id="path4593"
         d="m 31.192923,1019.238 a 6.0981201,4.4716623 5.3309994 0 1 -0.197362,1.6919"
         style="fill:none;stroke:#000000;stroke-width:0.77392061;stroke-linecap:round;stroke-linejoin:miter;stroke-miterlimit:4;stroke-dasharray:none" />
      <path
         inkscape:connector-curvature="0"
         id="path4595"
         d="m 27.978116,1020.2781 a 17.536181,10.895005 1.3364998 0 1 3.017339,0.6518"
         style="fill:none;stroke:#000000;stroke-width:0.77392061;stroke-linecap:round;stroke-linejoin:miter;stroke-miterlimit:4;stroke-dasharray:none" />
      <path
         inkscape:connector-curvature="0"
         id="path4597"
         d="m 26.944569,1020.4584 a 9.6103787,17.515718 66.210101 0 1 1.033547,-0.1803"
         style="fill:none;stroke:#000000;stroke-width:0.77392061;stroke-linecap:round;stroke-linejoin:miter;stroke-miterlimit:4;stroke-dasharray:none" />
      <path
         inkscape:connector-curvature="0"
         d="m 23.509084,1020.8996 0.06095,2.8155"
         id="211"
         style="fill:none;stroke:#000000;stroke-width:0.77392061;stroke-linecap:round;stroke-linejoin:miter;stroke-miterlimit:4;stroke-dasharray:none" />
      <path
         inkscape:connector-curvature="0"
         id="path4600"
         d="m 24.017868,1021.9073 -0.03791,0.068 -0.0372,0.066 -0.03614,0.065 -0.03543,0.063 -0.03543,0.061 -0.03543,0.059 -0.03543,0.057 -0.03189,0.056 -0.03189,0.055 -0.03189,0.053 -0.03189,0.052 -0.03189,0.05 -0.03189,0.049 -0.02835,0.048"
         style="fill:none;stroke:#000000;stroke-width:0.77392061;stroke-linecap:round;stroke-linejoin:miter;stroke-miterlimit:4;stroke-dasharray:none" />
      <path
         inkscape:connector-curvature="0"
         id="path4602"
         d="m 24.090647,1021.3921 -0.0071,0.04 -0.0071,0.039 -0.0071,0.039 -0.0071,0.038 -0.0035,0.038 -0.0035,0.037 -0.0071,0.037 -0.0035,0.036 -0.0035,0.036 -0.0035,0.036 -0.0035,0.035 -0.0035,0.035 -0.0035,0.034 -0.0035,0.034"
         style="fill:none;stroke:#000000;stroke-width:0.77392061;stroke-linecap:round;stroke-linejoin:miter;stroke-miterlimit:4;stroke-dasharray:none" />
      <path
         inkscape:connector-curvature="0"
         id="path4604"
         d="m 25.910986,1021.5848 a 3.042815,2.231247 5.3305994 0 0 -1.820339,-0.1927"
         style="fill:none;stroke:#000000;stroke-width:0.77392061;stroke-linecap:round;stroke-linejoin:miter;stroke-miterlimit:4;stroke-dasharray:none" />
      <path
         inkscape:connector-curvature="0"
         id="path4606"
         d="m 25.870982,1022.1035 0.0026,-0.034 0.0026,-0.035 0.0027,-0.035 0.0028,-0.035 0.0027,-0.036 0.0028,-0.036 0.0029,-0.037 0.0028,-0.037 0.003,-0.038 0.0029,-0.038 0.003,-0.038 0.003,-0.039 0.0031,-0.04 0.0031,-0.04"
         style="fill:none;stroke:#000000;stroke-width:0.77392061;stroke-linecap:round;stroke-linejoin:miter;stroke-miterlimit:4;stroke-dasharray:none" />
      <path
         inkscape:connector-curvature="0"
         id="path4608"
         d="m 26.054419,1022.6947 -0.01063,-0.038 -0.01417,-0.038 -0.01417,-0.039 -0.01417,-0.04 -0.01417,-0.04 -0.01417,-0.041 -0.01417,-0.042 -0.01417,-0.042 -0.01417,-0.043 -0.01417,-0.044 -0.01417,-0.045 -0.01417,-0.046 -0.01417,-0.046 -0.01417,-0.047"
         style="fill:none;stroke:#000000;stroke-width:0.77392061;stroke-linecap:round;stroke-linejoin:miter;stroke-miterlimit:4;stroke-dasharray:none" />
      <path
         inkscape:connector-curvature="0"
         id="path4610"
         d="m 20.222454,1019.6236 -0.06059,-0.1067 -0.06165,-0.1086 -0.06272,-0.1099 -0.06342,-0.1116 -0.06449,-0.1132 -0.0652,-0.1148 -0.06626,-0.1167 -0.06697,-0.1181 -0.06839,-0.1201 -0.06909,-0.1216 -0.07016,-0.1234 -0.07122,-0.1252 -0.07228,-0.1272 -0.07335,-0.1289"
         style="fill:none;stroke:#000000;stroke-width:0.77392061;stroke-linecap:round;stroke-linejoin:miter;stroke-miterlimit:4;stroke-dasharray:none" />
      <path
         inkscape:connector-curvature="0"
         d="m 22.404175,1017.5622 0.0035,2.1971"
         id="218"
         style="fill:none;stroke:#000000;stroke-width:0.77392061;stroke-linecap:round;stroke-linejoin:miter;stroke-miterlimit:4;stroke-dasharray:none" />
      <path
         inkscape:connector-curvature="0"
         d="m 23.449628,1017.2544 0.0071,3.5291"
         id="219"
         style="fill:none;stroke:#000000;stroke-width:0.77392061;stroke-linecap:round;stroke-linejoin:miter;stroke-miterlimit:4;stroke-dasharray:none" />
      <path
         inkscape:connector-curvature="0"
         d="m 24.006494,1016.6371 0.01063,5.2702"
         id="220"
         style="fill:none;stroke:#000000;stroke-width:0.77392061;stroke-linecap:round;stroke-linejoin:miter;stroke-miterlimit:4;stroke-dasharray:none" />
      <path
         inkscape:connector-curvature="0"
         id="path4615"
         d="m 24.495222,1014.9707 -0.03933,0.6284 -0.03721,0.597 -0.03543,0.5667 -0.03543,0.5381 -0.03189,0.511 -0.03189,0.4851 -0.02835,0.4607 -0.02835,0.4373 -0.0248,0.4155 -0.0248,0.3943 -0.0248,0.3742 -0.02126,0.3555 -0.02126,0.3374 -0.02126,0.3202"
         style="fill:none;stroke:#000000;stroke-width:0.77392061;stroke-linecap:round;stroke-linejoin:miter;stroke-miterlimit:4;stroke-dasharray:none" />
      <path
         inkscape:connector-curvature="0"
         id="path4617"
         d="m 25.910986,1021.5848 0.04429,-0.3178 0.04677,-0.3346 0.04925,-0.3525 0.05209,-0.3716 0.05492,-0.391 0.05776,-0.412 0.06095,-0.4338 0.06413,-0.457 0.06768,-0.4813 0.07122,-0.5069 0.07512,-0.5336 0.07902,-0.5621 0.08327,-0.5921 0.08787,-0.6232"
         style="fill:none;stroke:#000000;stroke-width:0.77392061;stroke-linecap:round;stroke-linejoin:miter;stroke-miterlimit:4;stroke-dasharray:none" />
      <path
         inkscape:connector-curvature="0"
         d="m 26.873065,1016.9404 -1.002083,5.1631"
         id="223"
         style="fill:none;stroke:#000000;stroke-width:0.77392061;stroke-linecap:round;stroke-linejoin:miter;stroke-miterlimit:4;stroke-dasharray:none" />
      <path
         inkscape:connector-curvature="0"
         d="m 27.271084,1017.6588 -0.616145,3.1749"
         id="224"
         style="fill:none;stroke:#000000;stroke-width:0.77392061;stroke-linecap:round;stroke-linejoin:miter;stroke-miterlimit:4;stroke-dasharray:none" />
      <path
         inkscape:connector-curvature="0"
         d="m 28.223029,1018.178 -0.412689,2.1264"
         id="225"
         style="fill:none;stroke:#000000;stroke-width:0.77392061;stroke-linecap:round;stroke-linejoin:miter;stroke-miterlimit:4;stroke-dasharray:none" />
      <path
         inkscape:connector-curvature="0"
         id="path4622"
         d="m 31.192923,1019.238 -0.09638,0.1118 -0.09496,0.11 -0.0939,0.1085 -0.09248,0.107 -0.09106,0.1056 -0.09,0.1037 -0.08823,0.1025 -0.08717,0.101 -0.0861,0.099 -0.08469,0.098 -0.08362,0.097 -0.08256,0.095 -0.08114,0.094 -0.08008,0.093"
         style="fill:none;stroke:#000000;stroke-width:0.77392061;stroke-linecap:round;stroke-linejoin:miter;stroke-miterlimit:4;stroke-dasharray:none" />
    </g>
  </g>
</svg>
