<?xml version="1.0" encoding="UTF-8"?>
<svg width="48" height="48" version="1.1" viewBox="0 0 48 48" xml:space="preserve" xmlns="http://www.w3.org/2000/svg" xmlns:cc="http://creativecommons.org/ns#" xmlns:dc="http://purl.org/dc/elements/1.1/" xmlns:rdf="http://www.w3.org/1999/02/22-rdf-syntax-ns#"><metadata><rdf:RDF><cc:Work rdf:about=""><dc:format>image/svg+xml</dc:format><dc:type rdf:resource="http://purl.org/dc/dcmitype/StillImage"/></cc:Work></rdf:RDF></metadata><g transform="matrix(.3725 0 0 .372 59.34 21.77)" stroke="#000000" stroke-linecap="round" stroke-linejoin="round" stroke-width="2.686"><path d="m-39.38-5.881v25.65s-2.039 7.534-5.215 13.63c-3.176 6.1-7.128 13.03-7.128 13.03l-7.117 3.799s-11.46 4.446-23.22 6.113-22.5 0.8081-22.5 0.8081l-9.461-1.328s-13.71-4.723-21.31-9.896c-7.605-5.173-12.53-9.652-12.53-9.652l-2.506-5.018v-25.76l4.699-12.18v-7.404c0-3.232 1.962-10.86 8.425-16.82 6.463-5.963 19.61-14.51 43.37-14.51s40.56 10.96 45.69 19.52c4.303 7.187 4.28 13 4.28 13l2.045 1.537z" fill="#ffaf00"/><path d="m-150.4 5.507 2.609 5.45s8.303 2.034 15.53 6.141c7.225 4.108 18.1 13.12 18.1 13.12l9.492 1.465s13.05-4.517 22.28-6.014 23.49-1.013 23.49-1.013l6.673-3.668s2.884-8.278 5.99-14.83c3.106-6.547 6.828-12.04 6.828-12.04" fill="none"/><path d="m-52.2 20.99v25.7" fill="none"/><path d="m-58.87 24.65v25.59" fill="none"/><path d="m-104.6 31.68v25.47" fill="none"/><path d="m-114.1 30.22v25.58" fill="none"/><path d="m-147.8 10.96v25.42" fill="none"/><path d="m-43.9-12.88v11.55c0 4.325-5.606 12.78-10.54 16.31s-13.12 8.098-28.35 10.83-34.64 0.1139-48.64-8.202c-14-8.316-14.24-16.87-14.24-24.28" fill="none"/><ellipse cx="-94.56" cy="-14.37" rx="25.38" ry="14.78" fill="none"/><ellipse cx="-94.56" cy="-19.11" rx="33.83" ry="19.79" fill="none"/><path d="m-127.9-16.17a33.33 16.91 0 0 1 16.66-14.82 33.33 16.91 0 0 1 33.64 0.08834 33.33 16.91 0 0 1 16.35 14.91" fill="none"/></g></svg>
