<?xml version="1.0" encoding="UTF-8"?>
<!-- Created with Inkscape (http://www.inkscape.org/) -->
<svg width="48" height="48" version="1.1" viewBox="0 0 12.7 12.7" xml:space="preserve" xmlns="http://www.w3.org/2000/svg"><g><g transform="translate(-.009544 -.1659)" stroke="#000000" stroke-linecap="round" stroke-linejoin="round" stroke-width=".2646"><path d="m12.14 5.165v2.754l-0.8456 0.4882-0.5901-0.1581-2.906 1.678-0.5488 0.8011-0.8722 0.5035-0.8725-0.4812-0.5968-0.8171-2.885-1.666-0.57 0.1511-0.8733-0.5042v-2.759s1.34-1.089 2.545-1.871c1.205-0.7825 3.24-1.485 3.24-1.485s1.713 0.4752 3.039 1.321c1.325 0.8459 2.737 2.044 2.737 2.044z" fill="#ffaf00"/><path d="m6.377 11.23v-2.741" fill="none"/><path d="m0.5794 5.156s1.351 0.4079 2.873 1.286 2.924 2.049 2.924 2.049 1.684-1.35 2.87-2.04c1.187-0.6905 2.893-1.286 2.893-1.286" fill="none"/><ellipse cx="6.36" cy="4.059" rx="3.73" ry="2.135" fill="#ffaf00"/><path d="m10.09 4.815a3.73 2.135 0 0 1-1.865 1.849 3.73 2.135 0 0 1-3.73-1e-7 3.73 2.135 0 0 1-1.865-1.849" fill="none"/><path d="m10.09 4.815v-0.7563" fill="none"/><path d="m2.629 4.815v-0.7563" fill="none"/><ellipse cx="6.36" cy="4.099" rx="2.49" ry="1.427" fill="none"/><ellipse cx="6.36" cy="4.44" rx="1.927" ry="1.066" fill="none"/></g></g></svg>
