<?xml version="1.0" encoding="UTF-8"?>
<!-- Created with Inkscape (http://www.inkscape.org/) -->
<svg width="48" height="48" version="1.1" viewBox="0 0 12.7 12.7" xml:space="preserve" xmlns="http://www.w3.org/2000/svg"><g stroke="#000000" stroke-linecap="round" stroke-linejoin="round" stroke-width=".2646"><path d="m12.2 3.836v3.082l-1.149 2.474-0.07693 0.5059-0.3138 0.6742-1.221 0.1932-0.2827-0.2768-4.352 0.6743-3.191-1.842-0.2078 0.2078-0.8768-0.5062v-3.371s0.2865-0.9633 0.6826-1.863c0.3961-0.8994 0.8934-1.535 0.8934-1.535s1.31-0.5622 3.076-0.832c1.766-0.2699 2.742-0.07287 2.742-0.07287s0.9475 0.2182 2.054 0.8195c1.106 0.6012 2.223 1.668 2.223 1.668z" fill="#ffaf00"/><path d="m10.67 10.57v-3.354" fill="none"/><path d="m4.81 11.16v-3.05" fill="none"/><path d="m0.5341 5.651s0.8186 0.09764 2.081 0.8055c1.262 0.7079 2.194 1.656 2.194 1.656s1.67-0.6735 3.036-0.8606c1.366-0.187 2.82-0.03363 2.82-0.03363s0.3258-1.197 0.7128-2.007c0.3869-0.8109 0.8266-1.375 0.8266-1.375" fill="none"/><ellipse cx="6.382" cy="4.325" rx="5.189" ry="2.954" fill="none"/><ellipse cx="6.381" cy="4.363" rx="3.788" ry="2.146" fill="none"/><ellipse cx="6.358" cy="4.447" rx="3.158" ry="1.829" fill="none"/><ellipse cx="6.379" cy="4.797" rx="2.492" ry="1.409" fill="none"/></g></svg>
