<?xml version="1.0" encoding="UTF-8"?>
<!-- Created with Inkscape (http://www.inkscape.org/) -->
<svg width="48" height="48" version="1.1" viewBox="0 0 12.7 12.7" xml:space="preserve" xmlns="http://www.w3.org/2000/svg"><g stroke="#000000" stroke-linecap="round" stroke-linejoin="round" stroke-width=".2646"><path d="m11.48 2.963v5.017s-0.08912 0.5103-0.4841 1.365c-0.395 0.8546-0.8764 1.586-0.8764 1.586s-0.8788 0.4733-2.598 0.7745c-1.72 0.3013-2.621 0.06661-2.621 0.06661s-1.209-0.2722-2.433-1.122c-1.224-0.8495-1.359-1.083-1.359-1.083v-4.984l0.46-1.276 0.5217 0.0588v-1.158l0.4312-0.6687 1.61-0.5489 0.5417 1.085 0.1482 0.4628v0.2985s0.4662 0.03855 0.818-0.2284c0.3518-0.267 0.403-0.6456 0.403-0.6456v-1.207l1.701 0.007731 1.135 0.394v1.182s-7.673e-4 0.09174 0.02858 0.1955c0.02935 0.1037 0.05634 0.139 0.05634 0.139l1.257-0.7256z" fill="#ffaf00"/><path d="m1.103 4.583 1.209 0.3862v1.148s0.05209 0.8233 0.6068 1.144c0.5547 0.3203 0.7678-0.00532 0.7678-0.1664v-1.328l1.227 1.013-0.01907 4.992" fill="none"/><path d="m4.915 6.78s0.2383-0.1018 0.7096-0.2804c0.4713-0.1787 0.9113-0.3132 0.9113-0.3132v1.179s-0.02165 0.6686 0.9427 0.6686c0.9643 0 0.9874-0.9673 0.9874-0.9673v-1.161l1.585 0.05293v5.005" fill="none"/><path d="m10.05 5.958 0.4593-1.242v1.371s0.1003 0.4859 0.272-0.02806c0.1717-0.514 0.2496-0.8514 0.2496-1.277v-1.175l0.4436-0.6427" fill="none"/><path d="m3.687 5.767 1.414-0.8495 0.3928-0.1381 0.3677 0.03822 0.1495 0.2056 0.524 1.163" fill="none"/><path d="m8.466 5.905-0.5334-1.155-0.1586-0.2438 0.2457-0.1375 0.5408-0.009181 1.95 0.3566" fill="none"/><path d="m11.03 3.606-1.919-0.3273-0.5303 0.01457-0.1415-0.1965 0.5179-0.4228" fill="none"/><path d="m6.038 0.756 0.548 1.063 0.1464 0.424 0.3444 0.03422 0.3911-0.3285 1.406-0.7909" fill="none"/><path d="m2.085 2.209 1.943 0.2777 0.5473 0.2362 0.2416-0.1841" fill="none"/><path d="m2.085 3.367 1.42 0.2149 0.5528 0.1733 0.1069 0.2298-0.4404 0.1061-1.412 0.879" fill="none"/><path d="m7.774 4.505v1.269s-0.1235 0.6034-0.5372 0.8111c-0.4137 0.2077-0.7009 0.1033-0.7009 0.1033" fill="none"/><path d="m4.165 3.984v1.134s-0.00343 0.123 0.01547 0.1775c0.01891 0.05456 0.07284 0.1308 0.07284 0.1308" fill="none"/><path d="m4.575 2.723v1.047s-0.03237 0.3315-0.1403 0.5767c-0.108 0.2452-0.2697 0.459-0.2697 0.459" fill="none"/><path d="m6.732 2.243v1.131s0.01295 0.5931-0.8388 0.7442c-0.8517 0.1511-1.086-0.1674-1.086-0.3697 0-0.2023 0.0088-0.9116 0.0088-0.9116" fill="none"/><path d="m7.077 2.277v1.11s-0.04145 0.3386 0.2629 0.6479c0.3044 0.3092 0.5173 0.4236 0.5173 0.4236" fill="none"/><path d="m8.582 3.293v1.069" fill="none"/><path d="m8.44 3.097v1.264" fill="none"/></g></svg>
