<?xml version="1.0" encoding="UTF-8" standalone="no"?>
<svg
   xmlns:dc="http://purl.org/dc/elements/1.1/"
   xmlns:cc="http://creativecommons.org/ns#"
   xmlns:rdf="http://www.w3.org/1999/02/22-rdf-syntax-ns#"
   xmlns:svg="http://www.w3.org/2000/svg"
   xmlns="http://www.w3.org/2000/svg"
   width="48"
   height="48"
   viewBox="0 0 48.000001 48.000001"
   id="svg15825"
   version="1.1">
  <defs
     id="defs15827" />
  <metadata
     id="metadata15830">
    <rdf:RDF>
      <cc:Work
         rdf:about="">
        <dc:format>image/svg+xml</dc:format>
        <dc:type
           rdf:resource="http://purl.org/dc/dcmitype/StillImage" />
        <dc:title></dc:title>
      </cc:Work>
    </rdf:RDF>
  </metadata>
  <g
     transform="matrix(0.04808848,0,0,0.04808848,-45.059371,14.6235)"
     font-size="29.1042"
     font-weight="400"
     font-style="normal"
     id="g5205"
     style="font-style:normal;font-weight:400;font-size:29.10420036px;font-family:'MS Shell Dlg 2';fill:#ffffff;fill-opacity:1;fill-rule:evenodd;stroke:none;stroke-width:18.59073067;stroke-linecap:square;stroke-linejoin:bevel;stroke-miterlimit:4;stroke-dasharray:none" />
  <g
     id="g6983">
    <path
       id="path5750"
       d="m 3.3046808,33.110971 c 0.2115041,0.679991 0.5217487,1.348532 0.9275175,1.998547 l 0.9658558,0.814239 0.9428914,0.759691 0.9238509,0.708358 0.9087985,0.659986 0.8975415,0.614442 0.8900154,0.571409 0.8862842,0.530883 0.886285,0.492544 0.890079,0.456265 0.897478,0.421979 0.908798,0.389366 0.923915,0.358424 0.942892,0.329093 0.965856,0.300981 c 1.125764,0.234276 2.283723,0.413424 3.461571,0.535515 l 1.319373,0.05249 1.287994,0.01608 1.262052,-0.02026 1.241428,-0.05674 1.226036,-0.0934 1.215814,-0.130518 1.210706,-0.168148 1.210681,-0.206487 1.215827,-0.245661 1.226055,-0.28593 1.241428,-0.327355 1.262078,-0.370196 1.287936,-0.414582 1.319392,-0.460703 c 0.456972,-0.222761 0.897477,-0.456522 1.320356,-0.700704 0.422944,-0.244182 0.827877,-0.498527 1.213705,-0.762328 l 0.353536,-0.505153 0.345109,-0.528245 0.338162,-0.553719 0.33263,-0.581443 0.328513,-0.611612 0.325812,-0.644354 0.324396,-0.679798 0.324396,-0.718201 0.325812,-0.759562 0.328513,-0.804076 0.33263,-0.852063 0.338162,-0.903588 0.34511,-0.95894 0.353536,-1.01834 v -9.69422 C 45.069983,18.384909 44.759675,17.716362 44.35397,17.066386 44.08959,16.839502 43.827976,16.618735 43.569192,16.404079 43.534778,14.881995 43.083595,13.379403 42.295022,12.03145 41.77263,11.13526 41.10544,10.302559 40.320404,9.5435112 39.400156,8.6535602 38.317548,7.8633789 37.10706,7.1795929 35.364082,6.1950825 33.351448,5.4302457 31.18739,4.9132571 29.024433,4.3958183 26.710039,4.1261634 24.392768,4.1194092 21.730566,4.1101463 19.068052,4.4476008 16.626608,5.1100949 14.721463,5.6263115 12.950631,6.3380793 11.396385,7.2266152 9.196562,8.4836751 7.4196832,10.101154 6.2966145,12.022123 5.4688668,13.432729 5.0119588,15.014443 5.0145318,16.609086 v 2.250447 l -0.1177166,0.283099 -0.118167,0.288953 -0.1186816,0.294967 -0.1191962,0.301149 -0.1197751,0.307485 -0.1204827,0.313994 -0.1211903,0.320672 -0.1220266,0.327523 -0.1228627,0.33456 -0.1237634,0.34177 -0.1248568,0.349175 -0.1258861,0.356765 -0.127044,0.364548 -0.1282019,0.372536 v 9.694242"
       style="font-style:normal;font-weight:400;font-size:medium;font-family:'MS Shell Dlg 2';vector-effect:non-scaling-stroke;fill:#ffaa00;fill-opacity:1;fill-rule:evenodd;stroke:none;stroke-width:0.9;stroke-linecap:square;stroke-linejoin:bevel;stroke-miterlimit:4;stroke-dasharray:none" />
    <path
       id="path5766"
       d="m 5.0145318,20.285642 c 0,4.501853 4.6970889,8.560422 11.9009642,10.283228 7.203894,1.72278 15.495955,0.770497 21.009535,-2.412806 3.615446,-2.087368 5.646541,-4.918441 5.646541,-7.870422 v -3.676556 l -0.0024,-0.205007 C 43.534778,14.881995 43.083595,13.379403 42.295022,12.03145 41.77263,11.13526 41.10544,10.302559 40.320404,9.5435112 39.400156,8.6535602 38.317548,7.8633789 37.10706,7.1795929 35.364082,6.1950825 33.351448,5.4302457 31.18739,4.9132571 29.024433,4.3958183 26.710039,4.1261634 24.392768,4.1194092 21.730566,4.1101463 19.068052,4.4476008 16.626608,5.1100949 14.721463,5.6263115 12.950631,6.3380793 11.396385,7.2266152 9.196562,8.4836751 7.4196832,10.101154 6.2966145,12.022123 5.4688668,13.432729 5.0119588,15.014443 5.0145318,16.609086 v 2.250447 1.426109"
       style="font-style:normal;font-weight:400;font-size:medium;font-family:'MS Shell Dlg 2';vector-effect:non-scaling-stroke;fill:#ffaa00;fill-opacity:1;fill-rule:evenodd;stroke:none;stroke-width:0.9;stroke-linecap:square;stroke-linejoin:bevel;stroke-miterlimit:4;stroke-dasharray:none" />
    <path
       id="path5782"
       d="m 37.05367,14.928374 c 0.06967,-0.313525 0.104594,-0.629301 0.104594,-0.9454 0,-4.1022012 -5.759948,-7.4277299 -12.865193,-7.4277299 -7.105283,0 -12.865231,3.3255287 -12.865231,7.4277299 0,0.316099 0.03499,0.631875 0.104659,0.9454 0.723089,3.253503 5.056993,5.847928 10.662321,6.382908 1.389406,0.132602 2.807099,0.132602 4.196503,0 2.651231,-0.253039 5.098657,-0.97903 6.998849,-2.076078 2.012763,-1.162083 3.301149,-2.676743 3.663498,-4.30683"
       style="font-style:normal;font-weight:400;font-size:medium;font-family:'MS Shell Dlg 2';vector-effect:non-scaling-stroke;fill:#ffaa00;fill-opacity:1;fill-rule:evenodd;stroke:none;stroke-width:0.9;stroke-linecap:square;stroke-linejoin:bevel;stroke-miterlimit:4;stroke-dasharray:none" />
    <path
       id="path5798"
       d="m 20.52431,43.052693 1.319373,0.05249 1.287994,0.01608 1.262052,-0.02026 1.241428,-0.05674 1.226036,-0.0934 1.215814,-0.130518 1.210706,-0.168148 1.210681,-0.206487 1.215827,-0.245661 1.226055,-0.28593 1.241428,-0.327355 1.262078,-0.370196 1.287936,-0.414582 1.319392,-0.460703 V 30.64709 l -1.319392,-0.05004 -1.287936,-0.01409 -1.262078,0.02194 -1.241428,0.05802 -1.226055,0.09437 -1.215827,0.131032 -1.210681,0.168277 -1.210706,0.206294 -1.215814,0.245146 -1.226036,0.285029 -1.241428,0.326069 -1.262052,0.368524 -1.287994,0.412523 -1.319373,0.458323 v 9.694195"
       style="font-style:normal;font-weight:400;font-size:medium;font-family:'MS Shell Dlg 2';vector-effect:non-scaling-stroke;fill:#ffaa00;fill-opacity:1;fill-rule:evenodd;stroke:none;stroke-width:0.9;stroke-linecap:square;stroke-linejoin:bevel;stroke-miterlimit:4;stroke-dasharray:none" />
    <path
       id="path5814"
       d="m 31.11586,19.812942 c 1.809556,-1.044726 2.826101,-2.461682 2.826101,-3.939168 0,-3.076651 -4.319945,-5.570765 -9.64889,-5.570765 -5.328944,0 -9.648928,2.494114 -9.648928,5.570765 0,2.609915 3.138385,4.869959 7.550677,5.437508 1.389406,0.132602 2.807099,0.132602 4.196503,0 1.789416,-0.230171 3.428225,-0.7499 4.724537,-1.49834"
       style="font-style:normal;font-weight:400;font-size:medium;font-family:'MS Shell Dlg 2';vector-effect:non-scaling-stroke;fill:#ffaa00;fill-opacity:1;fill-rule:evenodd;stroke:none;stroke-width:0.9;stroke-linecap:square;stroke-linejoin:bevel;stroke-miterlimit:4;stroke-dasharray:none" />
    <path
       id="path5830"
       d="m 4.2321983,35.109518 0.9658558,0.814239 0.9428914,0.759691 0.9238509,0.708358 0.9087985,0.659986 0.8975415,0.614442 0.8900154,0.571409 0.8862842,0.530883 0.886285,0.492544 0.890079,0.456265 0.897478,0.421979 0.908798,0.389366 0.923915,0.358424 0.942892,0.329093 0.965856,0.300981 V 32.822984 L 16.096883,32.011189 15.153991,31.253492 14.230076,30.546806 13.321278,29.888107 12.4238,29.274552 11.533721,28.703646 10.647436,28.172956 9.7611518,27.680237 8.8711364,27.223419 7.9735949,26.800572 7.0647964,26.40992 6.1409455,26.04981 5.1980541,25.718736 4.2321983,25.415285 v 9.694233"
       style="font-style:normal;font-weight:400;font-size:medium;font-family:'MS Shell Dlg 2';vector-effect:non-scaling-stroke;fill:#ffaa00;fill-opacity:1;fill-rule:evenodd;stroke:none;stroke-width:0.9;stroke-linecap:square;stroke-linejoin:bevel;stroke-miterlimit:4;stroke-dasharray:none" />
    <path
       id="path5846"
       d="m 26.391323,21.311282 c 2.651231,-0.253039 5.098657,-0.97903 6.998849,-2.076078 2.012763,-1.162083 3.301149,-2.676743 3.663498,-4.30683 -0.823824,-3.706339 -6.288387,-6.4823297 -12.760599,-6.4823297 -6.472198,0 -11.936813,2.7759907 -12.760572,6.4823297 0.723089,3.253503 5.056993,5.847928 10.662321,6.382908 -4.412292,-0.567549 -7.550677,-2.827593 -7.550677,-5.437508 0,-3.076651 4.319984,-5.570765 9.648928,-5.570765 5.328945,0 9.64889,2.494114 9.64889,5.570765 0,1.477486 -1.016545,2.894442 -2.826101,3.939168 -1.296312,0.74844 -2.935121,1.268169 -4.724537,1.49834"
       style="font-style:normal;font-weight:400;font-size:medium;font-family:'MS Shell Dlg 2';vector-effect:non-scaling-stroke;fill:#ffaa00;fill-opacity:1;fill-rule:evenodd;stroke:none;stroke-width:0.9;stroke-linecap:square;stroke-linejoin:bevel;stroke-miterlimit:4;stroke-dasharray:none" />
    <path
       id="path5862"
       d="m 45.281488,19.064939 c -0.211505,-0.68003 -0.521813,-1.348577 -0.927518,-1.998553 -0.26438,-0.226884 -0.525994,-0.447651 -0.784778,-0.662307 l 0.0024,0.205007 v 3.676556 c 0,2.951981 -2.031095,5.783054 -5.646541,7.870422 C 32.411451,31.339367 24.11939,32.29165 16.915496,30.56887 9.7116207,28.846064 5.0145318,24.787495 5.0145318,20.285642 v -1.426109 l -0.1177166,0.283099 -0.118167,0.288953 -0.1186816,0.294967 -0.1191962,0.301149 -0.1197751,0.307485 -0.1204827,0.313994 -0.1211903,0.320672 -0.1220266,0.327523 -0.1228627,0.33456 -0.1237634,0.34177 -0.1248568,0.349175 -0.1258861,0.356765 -0.127044,0.364548 -0.1282019,0.372536 c 0.2115041,0.680032 0.5217487,1.348579 0.9275175,1.998556 l 0.9658558,0.303451 0.9428914,0.331074 0.9238509,0.36011 0.9087985,0.390652 0.8975415,0.422847 0.8900154,0.456818 0.8862842,0.492719 0.886285,0.53069 0.890079,0.570906 0.897478,0.613555 0.908798,0.658699 0.923915,0.706686 0.942892,0.757697 0.965856,0.811795 c 1.125764,0.234275 2.283723,0.413423 3.461571,0.535514 l 1.319373,-0.458323 1.287994,-0.412523 1.262052,-0.368524 1.241428,-0.326069 1.226036,-0.285029 1.215814,-0.245146 1.210706,-0.206294 1.210681,-0.168277 1.215827,-0.131032 1.226055,-0.09437 1.241428,-0.05802 1.262078,-0.02194 1.287936,0.01409 1.319392,0.05004 c 0.456972,-0.222761 0.897477,-0.456586 1.320356,-0.700703 0.422944,-0.244195 0.827877,-0.498521 1.213705,-0.762341 l 0.353536,-1.015921 0.345109,-0.956915 0.338162,-0.901947 0.33263,-0.850777 0.328513,-0.803194 0.325812,-0.75899 0.324396,-0.71799 0.324396,-0.680015 0.325812,-0.644907 0.328513,-0.612513 0.33263,-0.582704 0.338162,-0.555346 0.34511,-0.53033 0.353536,-0.507558"
       style="font-style:normal;font-weight:400;font-size:medium;font-family:'MS Shell Dlg 2';vector-effect:non-scaling-stroke;fill:#ffaa00;fill-opacity:1;fill-rule:evenodd;stroke:none;stroke-width:0.9;stroke-linecap:square;stroke-linejoin:bevel;stroke-miterlimit:4;stroke-dasharray:none" />
    <path
       id="path5878"
       d="m 40.585171,38.878253 0.353536,-0.505153 0.345109,-0.528245 0.338162,-0.553719 0.33263,-0.581443 0.328513,-0.611612 0.325812,-0.644354 0.324396,-0.679798 0.324396,-0.718201 0.325812,-0.759562 0.328513,-0.804076 0.33263,-0.852063 0.338162,-0.903588 0.34511,-0.95894 0.353536,-1.01834 v -9.69422 l -0.353536,0.507558 -0.34511,0.53033 -0.338162,0.555346 -0.33263,0.582704 -0.328513,0.612513 -0.325812,0.644907 -0.324396,0.680015 -0.324396,0.71799 -0.325812,0.75899 -0.328513,0.803194 -0.33263,0.850777 -0.338162,0.901947 -0.345109,0.956915 -0.353536,1.015921 v 9.694207"
       style="font-style:normal;font-weight:400;font-size:medium;font-family:'MS Shell Dlg 2';vector-effect:non-scaling-stroke;fill:#ffaa00;fill-opacity:1;fill-rule:evenodd;stroke:none;stroke-width:0.9;stroke-linecap:square;stroke-linejoin:bevel;stroke-miterlimit:4;stroke-dasharray:none" />
    <path
       id="path5894"
       d="m 37.05367,14.928374 c 0.06967,-0.313525 0.104594,-0.629301 0.104594,-0.9454 0,-4.1022012 -5.759948,-7.4277299 -12.865193,-7.4277299 -7.105283,0 -12.865231,3.3255287 -12.865231,7.4277299 0,0.316099 0.03499,0.631875 0.104659,0.9454 0.823759,-3.706339 6.288374,-6.4823297 12.760572,-6.4823297 6.472212,0 11.936775,2.7759907 12.760599,6.4823297"
       style="font-style:normal;font-weight:400;font-size:medium;font-family:'MS Shell Dlg 2';vector-effect:non-scaling-stroke;fill:#ffaa00;fill-opacity:1;fill-rule:evenodd;stroke:none;stroke-width:0.9;stroke-linecap:square;stroke-linejoin:bevel;stroke-miterlimit:4;stroke-dasharray:none" />
    <path
       id="path5910"
       d="m 17.062739,42.517178 c 1.125764,0.234276 2.283723,0.413424 3.461571,0.535515 v -9.694195 c -1.177848,-0.122091 -2.335807,-0.301239 -3.461571,-0.535514 v 9.694194"
       style="font-style:normal;font-weight:400;font-size:medium;font-family:'MS Shell Dlg 2';vector-effect:non-scaling-stroke;fill:#ffaa00;fill-opacity:1;fill-rule:evenodd;stroke:none;stroke-width:0.9;stroke-linecap:square;stroke-linejoin:bevel;stroke-miterlimit:4;stroke-dasharray:none" />
    <path
       id="path5926"
       d="m 38.05111,40.341285 c 0.456972,-0.222761 0.897477,-0.456522 1.320356,-0.700704 0.422944,-0.244182 0.827877,-0.498527 1.213705,-0.762328 v -9.694207 c -0.385828,0.26382 -0.790761,0.518146 -1.213705,0.762341 -0.422879,0.244117 -0.863384,0.477942 -1.320356,0.700703 v 9.694195"
       style="font-style:normal;font-weight:400;font-size:medium;font-family:'MS Shell Dlg 2';vector-effect:non-scaling-stroke;fill:#ffaa00;fill-opacity:1;fill-rule:evenodd;stroke:none;stroke-width:0.9;stroke-linecap:square;stroke-linejoin:bevel;stroke-miterlimit:4;stroke-dasharray:none" />
    <path
       id="path5942"
       d="m 3.3046808,33.110971 c 0.2115041,0.679991 0.5217487,1.348532 0.9275175,1.998547 V 25.415285 C 3.8264295,24.765308 3.5161849,24.096761 3.3046808,23.416729 v 9.694242"
       style="font-style:normal;font-weight:400;font-size:medium;font-family:'MS Shell Dlg 2';vector-effect:non-scaling-stroke;fill:#ffaa00;fill-opacity:1;fill-rule:evenodd;stroke:none;stroke-width:0.9;stroke-linecap:square;stroke-linejoin:bevel;stroke-miterlimit:4;stroke-dasharray:none" />
    <path
       id="path5958"
       d="m 31.11586,19.812942 c 1.809556,-1.044726 2.826101,-2.461682 2.826101,-3.939168"
       style="font-style:normal;font-weight:400;font-size:medium;font-family:'MS Shell Dlg 2';vector-effect:none;fill:#ffaa00;fill-opacity:1;fill-rule:evenodd;stroke:#000000;stroke-width:0.9;stroke-linecap:round;stroke-linejoin:bevel;stroke-opacity:1;stroke-miterlimit:4;stroke-dasharray:none" />
    <path
       id="path5966"
       d="m 33.941961,15.873774 c 0,-3.076651 -4.319945,-5.570765 -9.64889,-5.570765 -5.328944,0 -9.648928,2.494114 -9.648928,5.570765"
       style="font-style:normal;font-weight:400;font-size:medium;font-family:'MS Shell Dlg 2';vector-effect:none;fill:#ffaa00;fill-opacity:1;fill-rule:evenodd;stroke:#000000;stroke-width:0.9;stroke-linecap:round;stroke-linejoin:bevel;stroke-opacity:1;stroke-miterlimit:4;stroke-dasharray:none" />
    <path
       id="path5974"
       d="m 14.644143,15.873774 c 0,2.609915 3.138385,4.869959 7.550677,5.437508"
       style="font-style:normal;font-weight:400;font-size:medium;font-family:'MS Shell Dlg 2';vector-effect:none;fill:#ffaa00;fill-opacity:1;fill-rule:evenodd;stroke:#000000;stroke-width:0.9;stroke-linecap:round;stroke-linejoin:bevel;stroke-opacity:1;stroke-miterlimit:4;stroke-dasharray:none" />
    <path
       id="path5982"
       d="m 26.391323,21.311282 c 1.789416,-0.230171 3.428225,-0.7499 4.724537,-1.49834"
       style="font-style:normal;font-weight:400;font-size:medium;font-family:'MS Shell Dlg 2';vector-effect:none;fill:#ffaa00;fill-opacity:1;fill-rule:evenodd;stroke:#000000;stroke-width:0.9;stroke-linecap:round;stroke-linejoin:bevel;stroke-opacity:1;stroke-miterlimit:4;stroke-dasharray:none" />
    <path
       id="path5990"
       d="M 37.05367,14.928374 C 36.229846,11.222035 30.765283,8.4460443 24.293071,8.4460443 c -6.472198,0 -11.936813,2.7759907 -12.760572,6.4823297"
       style="font-style:normal;font-weight:400;font-size:medium;font-family:'MS Shell Dlg 2';vector-effect:none;fill:none;fill-opacity:1;fill-rule:evenodd;stroke:#000000;stroke-width:0.9;stroke-linecap:round;stroke-linejoin:bevel;stroke-opacity:1;stroke-miterlimit:4;stroke-dasharray:none" />
    <path
       id="path5998"
       d="m 39.371466,39.640581 c 0.422944,-0.244182 0.827877,-0.498527 1.213705,-0.762328"
       style="font-style:normal;font-weight:400;font-size:medium;font-family:'MS Shell Dlg 2';vector-effect:none;fill:#ffaa00;fill-opacity:1;fill-rule:evenodd;stroke:#000000;stroke-width:0.9;stroke-linecap:round;stroke-linejoin:bevel;stroke-opacity:1;stroke-miterlimit:4;stroke-dasharray:none" />
    <path
       id="path6006"
       d="m 40.585171,38.878253 0.353536,-0.505153 0.345109,-0.528245 0.338162,-0.553719 0.33263,-0.581443 0.328513,-0.611612 0.325812,-0.644354 0.324396,-0.679798 0.324396,-0.718201 0.325812,-0.759562 0.328513,-0.804076 0.33263,-0.852063 0.338162,-0.903588 0.34511,-0.95894 0.353536,-1.01834"
       style="font-style:normal;font-weight:400;font-size:medium;font-family:'MS Shell Dlg 2';vector-effect:none;fill:#ffaa00;fill-opacity:1;fill-rule:evenodd;stroke:#000000;stroke-width:0.9;stroke-linecap:round;stroke-linejoin:bevel;stroke-opacity:1;stroke-miterlimit:4;stroke-dasharray:none" />
    <path
       id="path6014"
       d="m 3.3046808,33.110971 c 0.2115041,0.679991 0.5217487,1.348532 0.9275175,1.998547"
       style="font-style:normal;font-weight:400;font-size:medium;font-family:'MS Shell Dlg 2';vector-effect:none;fill:#ffaa00;fill-opacity:1;fill-rule:evenodd;stroke:#000000;stroke-width:0.9;stroke-linecap:round;stroke-linejoin:bevel;stroke-opacity:1;stroke-miterlimit:4;stroke-dasharray:none" />
    <path
       id="path6022"
       d="m 4.2321983,35.109518 0.9658558,0.814239 0.9428914,0.759691 0.9238509,0.708358 0.9087985,0.659986 0.8975415,0.614442 0.8900154,0.571409 0.8862842,0.530883 0.886285,0.492544 0.890079,0.456265 0.897478,0.421979 0.908798,0.389366 0.923915,0.358424 0.942892,0.329093 0.965856,0.300981"
       style="font-style:normal;font-weight:400;font-size:medium;font-family:'MS Shell Dlg 2';vector-effect:none;fill:#ffaa00;fill-opacity:1;fill-rule:evenodd;stroke:#000000;stroke-width:0.9;stroke-linecap:round;stroke-linejoin:bevel;stroke-opacity:1;stroke-miterlimit:4;stroke-dasharray:none" />
    <path
       id="path6030"
       d="m 17.062739,42.517178 c 1.125764,0.234276 2.283723,0.413424 3.461571,0.535515"
       style="font-style:normal;font-weight:400;font-size:medium;font-family:'MS Shell Dlg 2';vector-effect:none;fill:#ffaa00;fill-opacity:1;fill-rule:evenodd;stroke:#000000;stroke-width:0.9;stroke-linecap:round;stroke-linejoin:bevel;stroke-opacity:1;stroke-miterlimit:4;stroke-dasharray:none" />
    <path
       id="path6038"
       d="m 20.52431,43.052693 1.319373,0.05249 1.287994,0.01608 1.262052,-0.02026 1.241428,-0.05674 1.226036,-0.0934 1.215814,-0.130518 1.210706,-0.168148 1.210681,-0.206487 1.215827,-0.245661 1.226055,-0.28593 1.241428,-0.327355 1.262078,-0.370196 1.287936,-0.414582 1.319392,-0.460703"
       style="font-style:normal;font-weight:400;font-size:medium;font-family:'MS Shell Dlg 2';vector-effect:none;fill:#ffaa00;fill-opacity:1;fill-rule:evenodd;stroke:#000000;stroke-width:0.9;stroke-linecap:round;stroke-linejoin:bevel;stroke-opacity:1;stroke-miterlimit:4;stroke-dasharray:none" />
    <path
       id="path6046"
       d="m 38.05111,40.341285 c 0.456972,-0.222761 0.897477,-0.456522 1.320356,-0.700704"
       style="font-style:normal;font-weight:400;font-size:medium;font-family:'MS Shell Dlg 2';vector-effect:none;fill:#ffaa00;fill-opacity:1;fill-rule:evenodd;stroke:#000000;stroke-width:0.9;stroke-linecap:round;stroke-linejoin:bevel;stroke-opacity:1;stroke-miterlimit:4;stroke-dasharray:none" />
    <path
       id="path6054"
       d="m 33.390172,19.235204 c 2.412678,-1.392975 3.768092,-3.282244 3.768092,-5.25223"
       style="font-style:normal;font-weight:400;font-size:medium;font-family:'MS Shell Dlg 2';vector-effect:none;fill:#ffaa00;fill-opacity:1;fill-rule:evenodd;stroke:#000000;stroke-width:0.9;stroke-linecap:round;stroke-linejoin:bevel;stroke-opacity:1;stroke-miterlimit:4;stroke-dasharray:none" />
    <path
       id="path6062"
       d="m 37.158264,13.982974 c 0,-4.1022012 -5.759948,-7.4277299 -12.865193,-7.4277299 -7.105283,0 -12.865231,3.3255287 -12.865231,7.4277299"
       style="font-style:normal;font-weight:400;font-size:medium;font-family:'MS Shell Dlg 2';vector-effect:none;fill:none;fill-opacity:1;fill-rule:evenodd;stroke:#000000;stroke-width:0.9;stroke-linecap:round;stroke-linejoin:bevel;stroke-opacity:1;stroke-miterlimit:4;stroke-dasharray:none" />
    <path
       id="path6070"
       d="m 11.42784,13.982974 c 0,3.004265 3.134545,5.712688 7.941927,6.862356 4.8074,1.149674 10.340954,0.51419 14.020405,-1.610126"
       style="font-style:normal;font-weight:400;font-size:medium;font-family:'MS Shell Dlg 2';vector-effect:none;fill:none;fill-opacity:1;fill-rule:evenodd;stroke:#000000;stroke-width:0.9;stroke-linecap:round;stroke-linejoin:bevel;stroke-opacity:1;stroke-miterlimit:4;stroke-dasharray:none" />
    <path
       id="path6078"
       d="m 39.371466,29.946387 c 0.422944,-0.244195 0.827877,-0.498521 1.213705,-0.762341"
       style="font-style:normal;font-weight:400;font-size:medium;font-family:'MS Shell Dlg 2';vector-effect:none;fill:#ffaa00;fill-opacity:1;fill-rule:evenodd;stroke:#000000;stroke-width:0.9;stroke-linecap:round;stroke-linejoin:bevel;stroke-opacity:1;stroke-miterlimit:4;stroke-dasharray:none" />
    <path
       id="path6086"
       d="M 40.585171,38.878253 V 29.184046"
       style="font-style:normal;font-weight:400;font-size:medium;font-family:'MS Shell Dlg 2';vector-effect:none;fill:#ffaa00;fill-opacity:1;fill-rule:evenodd;stroke:#000000;stroke-width:0.9;stroke-linecap:round;stroke-linejoin:bevel;stroke-opacity:1;stroke-miterlimit:4;stroke-dasharray:none" />
    <path
       id="path6094"
       d="m 45.281488,28.759159 v -9.69422"
       style="font-style:normal;font-weight:400;font-size:medium;font-family:'MS Shell Dlg 2';vector-effect:none;fill:#ffaa00;fill-opacity:1;fill-rule:evenodd;stroke:#000000;stroke-width:0.9;stroke-linecap:round;stroke-linejoin:bevel;stroke-opacity:1;stroke-miterlimit:4;stroke-dasharray:none" />
    <path
       id="path6102"
       d="m 45.281488,19.064939 -0.353536,0.507558 -0.34511,0.53033 -0.338162,0.555346 -0.33263,0.582704 -0.328513,0.612513 -0.325812,0.644907 -0.324396,0.680015 -0.324396,0.71799 -0.325812,0.75899 -0.328513,0.803194 -0.33263,0.850777 -0.338162,0.901947 -0.345109,0.956915 -0.353536,1.015921"
       style="font-style:normal;font-weight:400;font-size:medium;font-family:'MS Shell Dlg 2';vector-effect:none;fill:#ffaa00;fill-opacity:1;fill-rule:evenodd;stroke:#000000;stroke-width:0.9;stroke-linecap:round;stroke-linejoin:bevel;stroke-opacity:1;stroke-miterlimit:4;stroke-dasharray:none" />
    <path
       id="path6110"
       d="M 45.281488,19.064939 C 45.069983,18.384909 44.759675,17.716362 44.35397,17.066386"
       style="font-style:normal;font-weight:400;font-size:medium;font-family:'MS Shell Dlg 2';vector-effect:none;fill:#ffaa00;fill-opacity:1;fill-rule:evenodd;stroke:#000000;stroke-width:0.9;stroke-linecap:round;stroke-linejoin:bevel;stroke-opacity:1;stroke-miterlimit:4;stroke-dasharray:none" />
    <path
       id="path6118"
       d="m 43.569192,16.404079 c 0.258784,0.214656 0.520398,0.435423 0.784778,0.662307"
       style="font-style:normal;font-weight:400;font-size:medium;font-family:'MS Shell Dlg 2';vector-effect:none;fill:#ffaa00;fill-opacity:1;fill-rule:evenodd;stroke:#000000;stroke-width:0.9;stroke-linecap:round;stroke-linejoin:bevel;stroke-opacity:1;stroke-miterlimit:4;stroke-dasharray:none" />
    <path
       id="path6126"
       d="M 3.3046808,33.110971 V 23.416729"
       style="font-style:normal;font-weight:400;font-size:medium;font-family:'MS Shell Dlg 2';vector-effect:none;fill:#ffaa00;fill-opacity:1;fill-rule:evenodd;stroke:#000000;stroke-width:0.9;stroke-linecap:round;stroke-linejoin:bevel;stroke-opacity:1;stroke-miterlimit:4;stroke-dasharray:none" />
    <path
       id="path6134"
       d="m 3.3046808,23.416729 0.1282019,-0.372536 0.127044,-0.364548 0.1258861,-0.356765 0.1248568,-0.349175 0.1237634,-0.34177 0.1228627,-0.33456 0.1220266,-0.327523 0.1211903,-0.320672 0.1204827,-0.313994 0.1197751,-0.307485 0.1191962,-0.301149 0.1186816,-0.294967 0.118167,-0.288953 0.1177166,-0.283099"
       style="font-style:normal;font-weight:400;font-size:medium;font-family:'MS Shell Dlg 2';vector-effect:none;fill:#ffaa00;fill-opacity:1;fill-rule:evenodd;stroke:#000000;stroke-width:0.9;stroke-linecap:round;stroke-linejoin:bevel;stroke-opacity:1;stroke-miterlimit:4;stroke-dasharray:none" />
    <path
       id="path6142"
       d="m 3.3046808,23.416729 c 0.2115041,0.680032 0.5217487,1.348579 0.9275175,1.998556"
       style="font-style:normal;font-weight:400;font-size:medium;font-family:'MS Shell Dlg 2';vector-effect:none;fill:#ffaa00;fill-opacity:1;fill-rule:evenodd;stroke:#000000;stroke-width:0.9;stroke-linecap:round;stroke-linejoin:bevel;stroke-opacity:1;stroke-miterlimit:4;stroke-dasharray:none" />
    <path
       id="path6150"
       d="M 4.2321983,35.109518 V 25.415285"
       style="font-style:normal;font-weight:400;font-size:medium;font-family:'MS Shell Dlg 2';vector-effect:none;fill:#ffaa00;fill-opacity:1;fill-rule:evenodd;stroke:#000000;stroke-width:0.9;stroke-linecap:round;stroke-linejoin:bevel;stroke-opacity:1;stroke-miterlimit:4;stroke-dasharray:none" />
    <path
       id="path6158"
       d="M 17.062739,42.517178 V 32.822984"
       style="font-style:normal;font-weight:400;font-size:medium;font-family:'MS Shell Dlg 2';vector-effect:none;fill:#ffaa00;fill-opacity:1;fill-rule:evenodd;stroke:#000000;stroke-width:0.9;stroke-linecap:round;stroke-linejoin:bevel;stroke-opacity:1;stroke-miterlimit:4;stroke-dasharray:none" />
    <path
       id="path6166"
       d="M 17.062739,32.822984 16.096883,32.011189 15.153991,31.253492 14.230076,30.546806 13.321278,29.888107 12.4238,29.274552 11.533721,28.703646 10.647436,28.172956 9.7611518,27.680237 8.8711364,27.223419 7.9735949,26.800572 7.0647964,26.40992 6.1409455,26.04981 5.1980541,25.718736 4.2321983,25.415285"
       style="font-style:normal;font-weight:400;font-size:medium;font-family:'MS Shell Dlg 2';vector-effect:none;fill:#ffaa00;fill-opacity:1;fill-rule:evenodd;stroke:#000000;stroke-width:0.9;stroke-linecap:round;stroke-linejoin:bevel;stroke-opacity:1;stroke-miterlimit:4;stroke-dasharray:none" />
    <path
       id="path6174"
       d="m 17.062739,32.822984 c 1.125764,0.234275 2.283723,0.413423 3.461571,0.535514"
       style="font-style:normal;font-weight:400;font-size:medium;font-family:'MS Shell Dlg 2';vector-effect:none;fill:#ffaa00;fill-opacity:1;fill-rule:evenodd;stroke:#000000;stroke-width:0.9;stroke-linecap:round;stroke-linejoin:bevel;stroke-opacity:1;stroke-miterlimit:4;stroke-dasharray:none" />
    <path
       id="path6182"
       d="M 20.52431,43.052693 V 33.358498"
       style="font-style:normal;font-weight:400;font-size:medium;font-family:'MS Shell Dlg 2';vector-effect:none;fill:#ffaa00;fill-opacity:1;fill-rule:evenodd;stroke:#000000;stroke-width:0.9;stroke-linecap:round;stroke-linejoin:bevel;stroke-opacity:1;stroke-miterlimit:4;stroke-dasharray:none" />
    <path
       id="path6190"
       d="M 38.05111,40.341285 V 30.64709"
       style="font-style:normal;font-weight:400;font-size:medium;font-family:'MS Shell Dlg 2';vector-effect:none;fill:#ffaa00;fill-opacity:1;fill-rule:evenodd;stroke:#000000;stroke-width:0.9;stroke-linecap:round;stroke-linejoin:bevel;stroke-opacity:1;stroke-miterlimit:4;stroke-dasharray:none" />
    <path
       id="path6198"
       d="m 38.05111,30.64709 -1.319392,-0.05004 -1.287936,-0.01409 -1.262078,0.02194 -1.241428,0.05802 -1.226055,0.09437 -1.215827,0.131032 -1.210681,0.168277 -1.210706,0.206294 -1.215814,0.245146 -1.226036,0.285029 -1.241428,0.326069 -1.262052,0.368524 -1.287994,0.412523 -1.319373,0.458323"
       style="font-style:normal;font-weight:400;font-size:medium;font-family:'MS Shell Dlg 2';vector-effect:none;fill:#ffaa00;fill-opacity:1;fill-rule:evenodd;stroke:#000000;stroke-width:0.9;stroke-linecap:round;stroke-linejoin:bevel;stroke-opacity:1;stroke-miterlimit:4;stroke-dasharray:none" />
    <path
       id="path6206"
       d="m 38.05111,30.64709 c 0.456972,-0.222761 0.897477,-0.456586 1.320356,-0.700703"
       style="font-style:normal;font-weight:400;font-size:medium;font-family:'MS Shell Dlg 2';vector-effect:none;fill:#ffaa00;fill-opacity:1;fill-rule:evenodd;stroke:#000000;stroke-width:0.9;stroke-linecap:round;stroke-linejoin:bevel;stroke-opacity:1;stroke-miterlimit:4;stroke-dasharray:none" />
    <path
       id="path6214"
       d="m 37.925031,28.156064 c 3.615446,-2.087368 5.646541,-4.918441 5.646541,-7.870422"
       style="font-style:normal;font-weight:400;font-size:medium;font-family:'MS Shell Dlg 2';vector-effect:none;fill:#ffaa00;fill-opacity:1;fill-rule:evenodd;stroke:#000000;stroke-width:0.9;stroke-linecap:round;stroke-linejoin:bevel;stroke-opacity:1;stroke-miterlimit:4;stroke-dasharray:none" />
    <path
       id="path6222"
       d="m 5.0145318,20.285642 c 0,4.501853 4.6970889,8.560422 11.9009642,10.283228 7.203894,1.72278 15.495955,0.770497 21.009535,-2.412806"
       style="font-style:normal;font-weight:400;font-size:medium;font-family:'MS Shell Dlg 2';vector-effect:none;fill:#ffaa00;fill-opacity:1;fill-rule:evenodd;stroke:#000000;stroke-width:0.9;stroke-linecap:round;stroke-linejoin:bevel;stroke-opacity:1;stroke-miterlimit:4;stroke-dasharray:none" />
    <path
       id="path6230"
       d="m 43.571572,16.609086 c 0.0026,-1.591041 -0.452276,-3.16941 -1.27655,-4.577636 C 41.77263,11.13526 41.10544,10.302559 40.320404,9.5435112 39.400156,8.6535602 38.317548,7.8633789 37.10706,7.1795929 35.364082,6.1950825 33.351448,5.4302457 31.18739,4.9132571 29.024433,4.3958183 26.710039,4.1261634 24.392768,4.1194092 21.730566,4.1101463 19.068052,4.4476008 16.626608,5.1100949 14.721463,5.6263115 12.950631,6.3380793 11.396385,7.2266152 9.196562,8.4836751 7.4196832,10.101154 6.2966145,12.022123 5.4688668,13.432729 5.0119588,15.014443 5.0145318,16.609086"
       style="font-style:normal;font-weight:400;font-size:medium;font-family:'MS Shell Dlg 2';vector-effect:none;fill:none;fill-opacity:1;fill-rule:evenodd;stroke:#000000;stroke-width:0.9;stroke-linecap:round;stroke-linejoin:bevel;stroke-opacity:1;stroke-miterlimit:4;stroke-dasharray:none" />
    <path
       id="path6238"
       d="M 5.0145318,20.285642 V 16.609086"
       style="font-style:normal;font-weight:400;font-size:medium;font-family:'MS Shell Dlg 2';vector-effect:none;fill:#ffaa00;fill-opacity:1;fill-rule:evenodd;stroke:#000000;stroke-width:0.9;stroke-linecap:round;stroke-linejoin:bevel;stroke-opacity:1;stroke-miterlimit:4;stroke-dasharray:none" />
    <path
       id="path6246"
       d="M 43.571572,20.285642 V 16.609086"
       style="font-style:normal;font-weight:400;font-size:medium;font-family:'MS Shell Dlg 2';vector-effect:none;fill:#ffaa00;fill-opacity:1;fill-rule:evenodd;stroke:#000000;stroke-width:0.9;stroke-linecap:round;stroke-linejoin:bevel;stroke-opacity:1;stroke-miterlimit:4;stroke-dasharray:none" />
  </g>
</svg>
