<?xml version="1.0" encoding="UTF-8"?>
<!-- Created with Inkscape (http://www.inkscape.org/) -->
<svg width="48" height="48" version="1.1" viewBox="0 0 48 48" xml:space="preserve" xmlns="http://www.w3.org/2000/svg"><g transform="translate(0 -1004)"><g transform="matrix(.3776 0 0 .3776 51.76 644.3)" stroke="#000000" stroke-linecap="round" stroke-linejoin="round" stroke-width="2.648"><path d="m-25.5 984.6v49.89s-1.698 6.629-4.755 12.98c-3.057 6.353-8.224 14.62-8.224 14.62s-11.67 4.935-25.05 6.964c-13.38 2.03-22.66 0.6632-22.66 0.6632s-14.36-4.527-23.7-11.07c-9.344-6.546-11.62-9.319-11.62-9.319v-49.87s2.513-7.238 5.537-15.07c3.025-7.837 7.317-12.6 7.317-12.6s11.57-4.268 22.98-6.267c11.41-1.999 25.18-1.313 25.18-1.313s8.21 2.091 17.55 7.422 17.45 12.98 17.45 12.98z" fill="#ffaf00"/><path d="m-121.5 999.4s6.926 1.604 15.69 6.425c8.764 4.821 19.63 13.97 19.63 13.97s10.06-4.349 22.39-6.446 25.33-1.032 25.33-1.032 2.001-7.256 5.888-15.48c3.887-8.223 7.091-12.29 7.091-12.29" fill="none"/><path d="m-38.48 1012v49.72" fill="#ffaf00"/><path d="m-86.2 1020v49.87" fill="#ffaf00"/></g></g></svg>
