<?xml version="1.0" encoding="UTF-8" standalone="no"?>
<!-- Created with Inkscape (http://www.inkscape.org/) -->

<svg
   xmlns:dc="http://purl.org/dc/elements/1.1/"
   xmlns:cc="http://creativecommons.org/ns#"
   xmlns:rdf="http://www.w3.org/1999/02/22-rdf-syntax-ns#"
   xmlns:svg="http://www.w3.org/2000/svg"
   xmlns="http://www.w3.org/2000/svg"
   xmlns:sodipodi="http://sodipodi.sourceforge.net/DTD/sodipodi-0.dtd"
   xmlns:inkscape="http://www.inkscape.org/namespaces/inkscape"
   width="48"
   height="48"
   viewBox="0 0 48.000001 48.000001"
   id="svg15825"
   version="1.1"
   inkscape:version="0.91 r13725"
   sodipodi:docname="EN1665.svg">
  <defs
     id="defs15827" />
  <sodipodi:namedview
     id="base"
     pagecolor="#ffffff"
     bordercolor="#666666"
     borderopacity="1.0"
     inkscape:pageopacity="0.0"
     inkscape:pageshadow="2"
     inkscape:zoom="12.625"
     inkscape:cx="24"
     inkscape:cy="24"
     inkscape:document-units="px"
     inkscape:current-layer="layer1"
     showgrid="false"
     units="px"
     inkscape:window-width="1260"
     inkscape:window-height="787"
     inkscape:window-x="0"
     inkscape:window-y="0"
     inkscape:window-maximized="0" />
  <metadata
     id="metadata15830">
    <rdf:RDF>
      <cc:Work
         rdf:about="">
        <dc:format>image/svg+xml</dc:format>
        <dc:type
           rdf:resource="http://purl.org/dc/dcmitype/StillImage" />
        <dc:title></dc:title>
      </cc:Work>
    </rdf:RDF>
  </metadata>
  <g
     inkscape:label="Layer 1"
     inkscape:groupmode="layer"
     id="layer1"
     transform="translate(0,-1004.3622)">
    <g
       transform="matrix(3.5433071,0,0,3.543307,-333.18019,761.79677)"
       id="g16850">
      <path
         d="m 106.54658,74.523651 a 5.8772283,4.9607301 0 0 1 -5.86541,4.96072 5.8772283,4.9607301 0 0 1 -5.889001,-4.940763 5.8772283,4.9607301 0 0 1 5.841711,-4.980597 5.8772283,4.9607301 0 0 1 5.91251,4.920726"
         sodipodi:open="true"
         sodipodi:end="6.2751393"
         sodipodi:start="0"
         sodipodi:ry="4.9607301"
         sodipodi:rx="5.8772283"
         sodipodi:cy="74.523651"
         sodipodi:cx="100.66935"
         sodipodi:type="arc"
         id="path15521"
         style="opacity:1;fill:#ffaa00;fill-opacity:0.94117647;fill-rule:evenodd;stroke:none;stroke-width:1;stroke-linecap:round;stroke-linejoin:round;stroke-miterlimit:4;stroke-dasharray:none;stroke-dashoffset:0;stroke-opacity:1" />
      <path
         d="m 104.16076,70.697617 a 3.4332323,1.8911873 0 0 1 -3.42632,1.891183 3.4332323,1.8911873 0 0 1 -3.440113,-1.883575 3.4332323,1.8911873 0 0 1 3.412483,-1.898761 3.4332323,1.8911873 0 0 1 3.45384,1.875936"
         sodipodi:open="true"
         sodipodi:end="6.2751393"
         sodipodi:start="0"
         sodipodi:ry="1.8911873"
         sodipodi:rx="3.4332323"
         sodipodi:cy="70.697617"
         sodipodi:cx="100.72753"
         sodipodi:type="arc"
         id="path15523"
         style="opacity:1;fill:#ffaa00;fill-opacity:0.94117647;fill-rule:evenodd;stroke:none;stroke-width:1;stroke-linecap:round;stroke-linejoin:round;stroke-miterlimit:4;stroke-dasharray:none;stroke-dashoffset:0;stroke-opacity:1" />
      <path
         inkscape:connector-curvature="0"
         id="path15525"
         d="m 98.033097,78.971763 c -0.219095,0.05783 -0.104194,0.328078 -0.120063,0.487691 0.003,0.516975 0.229252,1.020011 0.622452,1.357413 0.607876,0.584993 1.493004,0.813816 2.318934,0.707088 0.86195,-0.11185 1.72651,-0.689994 1.95722,-1.56074 0.0357,-0.201015 0.1023,-0.419492 0.0427,-0.619579 -0.12514,-0.170956 -0.33921,-0.0025 -0.49984,0.0049 -1.17915,0.262783 -2.405257,0.211043 -3.562684,-0.12547 -0.258451,-0.0648 -0.497617,-0.204682 -0.758749,-0.251345 z"
         style="opacity:1;fill:#ffaa00;fill-opacity:0.94117647;fill-rule:evenodd;stroke:none;stroke-width:1;stroke-linecap:round;stroke-linejoin:round;stroke-miterlimit:4;stroke-dasharray:none;stroke-dashoffset:0;stroke-opacity:1" />
      <g
         id="g13999">
        <path
           style="fill:none;stroke:#000000;stroke-width:0.28222224;stroke-linecap:round;stroke-linejoin:round;stroke-miterlimit:4;stroke-dasharray:none"
           id="path9338"
           d="m 97.871989,78.892349 0.01899,0.444099"
           inkscape:connector-curvature="0"
           sodipodi:nodetypes="cc" />
        <path
           style="fill:none;stroke:#000000;stroke-width:0.28222224;stroke-linecap:round;stroke-linejoin:round;stroke-miterlimit:4;stroke-dasharray:none"
           id="path9340"
           d="m 102.92757,79.178671 -0.0462,0.468283"
           inkscape:connector-curvature="0"
           sodipodi:nodetypes="cc" />
        <path
           style="fill:none;stroke:#000000;stroke-width:0.28222224;stroke-linecap:round;stroke-linejoin:round;stroke-miterlimit:4;stroke-dasharray:none"
           d="m 104.09211,78.657687 c 0.79094,-0.461041 1.31531,-0.992414 1.68858,-1.521886 0.37087,-0.53224 0.59073,-1.06263 0.70936,-1.597157 0.11237,-0.509557 0.1291,-1.025782 0.0505,-1.548603 -0.0807,-0.5244 -0.25755,-1.061085 -0.58054,-1.612116 -0.31463,-0.523754 -0.74844,-1.062533 -1.42813,-1.566392"
           id="path9342"
           inkscape:connector-curvature="0" />
        <path
           style="fill:none;stroke:#000000;stroke-width:0.28222224;stroke-linecap:round;stroke-linejoin:round;stroke-miterlimit:4;stroke-dasharray:none"
           d="m 97.403154,70.330883 c -0.646987,0.355986 -1.124825,0.770546 -1.488553,1.187351 -0.363197,0.418924 -0.612217,0.84017 -0.789917,1.265504 -0.210194,0.507833 -0.313505,1.014234 -0.327608,1.527326 -0.01262,0.513045 0.06392,1.032695 0.254562,1.567875 0.196322,0.541138 0.501818,1.094992 1.012659,1.653035 0.511291,0.552703 1.227836,1.109416 2.259096,1.512949 0.441337,0.179939 0.967754,0.316761 1.509803,0.391557 0.542884,0.07547 1.101294,0.08886 1.628584,0.04135 0.52813,-0.04684 1.02524,-0.154636 1.46731,-0.302136 0.44298,-0.146747 0.83093,-0.333201 1.16302,-0.518005"
           id="path9344"
           inkscape:connector-curvature="0" />
        <path
           style="fill:none;stroke:#000000;stroke-width:0.28222224;stroke-linecap:round;stroke-linejoin:round;stroke-miterlimit:4;stroke-dasharray:none"
           d="m 104.02843,72.437592 c -0.0198,0.302661 -0.0996,0.613268 -0.2777,0.935822 -0.18998,0.339936 -0.50333,0.712992 -1.03297,1.021434"
           id="path9346"
           inkscape:connector-curvature="0" />
        <path
           style="fill:none;stroke:#000000;stroke-width:0.28222224;stroke-linecap:round;stroke-linejoin:round;stroke-miterlimit:4;stroke-dasharray:none"
           d="m 97.64074,72.040194 c -0.01973,0.356418 0.03635,0.723563 0.234399,1.12999 0.115129,0.22821 0.272312,0.468859 0.525698,0.717937 0.252109,0.246465 0.600607,0.501482 1.063744,0.690658 0.282704,0.117258 0.602999,0.202421 0.919469,0.245566 0.31727,0.04372 0.63104,0.0464 0.92021,0.01685 0.58205,-0.06065 1.05402,-0.238576 1.4135,-0.446349"
           id="path9348"
           inkscape:connector-curvature="0" />
        <path
           style="fill:none;stroke:#000000;stroke-width:0.28222224;stroke-linecap:round;stroke-linejoin:round;stroke-miterlimit:4;stroke-dasharray:none"
           d="m 101.84445,81.204365 c 0.6163,-0.355837 0.99782,-0.92887 1.03692,-1.557411"
           id="path9675"
           inkscape:connector-curvature="0"
           sodipodi:nodetypes="cc" />
        <path
           style="fill:none;stroke:#000000;stroke-width:0.28222224;stroke-linecap:round;stroke-linejoin:round;stroke-miterlimit:4;stroke-dasharray:none"
           d="m 97.890978,79.336448 c -0.108042,1.735011 2.252262,2.850195 3.953472,1.867917"
           id="path9677"
           inkscape:connector-curvature="0"
           sodipodi:nodetypes="cc" />
        <path
           style="fill:none;stroke:#000000;stroke-width:0.28222224;stroke-linecap:round;stroke-linejoin:round;stroke-miterlimit:4;stroke-dasharray:none"
           d="m 103.04337,74.31863 a 2.5,2.07307 3.5595999 0 0 -0.006,-0.01628"
           id="path9681"
           inkscape:connector-curvature="0" />
        <path
           style="fill:none;stroke:#000000;stroke-width:0.28222224;stroke-linecap:round;stroke-linejoin:round;stroke-miterlimit:4;stroke-dasharray:none"
           d="m 98.388843,74.021947 a 2.5,2.07307 3.5595999 0 0 -0.0038,0.0069"
           id="path9683"
           inkscape:connector-curvature="0" />
        <path
           style="fill:none;stroke:#000000;stroke-width:0.28222224;stroke-linecap:round;stroke-linejoin:round;stroke-miterlimit:4;stroke-dasharray:none"
           d="m 104.37778,75.289496 -0.0646,0.118345 -0.0648,0.119971 -0.0651,0.122093 -0.0655,0.124178 -0.0661,0.126501 -0.0666,0.129083 -0.0673,0.131815 -0.068,0.134771 -0.069,0.137875 -0.0701,0.141254 -0.0712,0.144906 -0.0724,0.148607 -0.0737,0.152719 -0.0752,0.15693"
           id="path9685"
           inkscape:connector-curvature="0" />
        <path
           style="fill:none;stroke:#000000;stroke-width:0.28222224;stroke-linecap:round;stroke-linejoin:round;stroke-miterlimit:4;stroke-dasharray:none"
           d="m 103.41826,77.178544 -0.17715,-0.01123 -0.17388,-0.0098 -0.17105,-0.0081 -0.16853,-0.0065 -0.16602,-0.005 -0.16395,-0.0034 -0.16216,-0.0019 -0.16054,-2.65e-4 -0.1592,0.0013 -0.15802,0.0029 -0.15726,0.0044 -0.15654,0.0059 -0.15622,0.0076 -0.15608,0.0091"
           id="path9687"
           inkscape:connector-curvature="0" />
        <path
           style="fill:none;stroke:#000000;stroke-width:0.28222224;stroke-linecap:round;stroke-linejoin:round;stroke-miterlimit:4;stroke-dasharray:none"
           d="m 101.13166,77.163646 -0.15616,0.01072 -0.15647,0.01239 -0.15709,0.01391 -0.15793,0.01566 -0.15898,0.01743 -0.16029,0.01898 -0.16178,0.02078 -0.163654,0.02255 -0.16574,0.02433 -0.168002,0.02621 -0.170622,0.02807 -0.173418,0.03003 -0.176572,0.03197 -0.179899,0.03401"
           id="path9689"
           inkscape:connector-curvature="0" />
        <path
           style="fill:none;stroke:#000000;stroke-width:0.28222224;stroke-linecap:round;stroke-linejoin:round;stroke-miterlimit:4;stroke-dasharray:none"
           d="m 98.825053,77.470685 -0.103226,-0.145593 -0.101509,-0.141619 -0.09984,-0.137731 -0.09836,-0.133968 -0.09701,-0.130706 -0.09584,-0.127457 -0.09477,-0.124375 -0.09388,-0.121544 -0.09316,-0.118958 -0.09252,-0.116437 -0.09206,-0.114167 -0.09174,-0.11204 -0.09153,-0.110081 -0.09153,-0.108352"
           id="path9691"
           inkscape:connector-curvature="0" />
        <path
           style="fill:none;stroke:#000000;stroke-width:0.28222224;stroke-linecap:round;stroke-linejoin:round;stroke-miterlimit:4;stroke-dasharray:none"
           d="m 97.488067,75.727657 -0.09164,-0.106787 -0.09185,-0.105282 -0.09224,-0.104017 -0.09276,-0.102907 -0.09342,-0.101948 -0.09423,-0.101134 -0.09523,-0.100559 -0.09631,-0.10005 -0.09755,-0.09968 -0.09893,-0.09946 -0.100503,-0.09948 -0.102233,-0.09963 -0.104055,-0.09985 -0.106148,-0.100374"
           id="path9693"
           inkscape:connector-curvature="0" />
        <path
           style="fill:none;stroke:#000000;stroke-width:0.28222224;stroke-linecap:round;stroke-linejoin:round;stroke-miterlimit:4;stroke-dasharray:none"
           d="m 103.98027,71.979382 0.002,0.0029 0.002,0.0029 0.002,0.0029 0.003,0.0029 0.002,0.0029 0.003,0.0029 0.002,0.0029 0.002,0.0029 0.002,0.0029 0.002,0.003 0.002,0.0029 0.003,0.0029 0.002,0.0029 0.002,0.0029"
           id="path9695"
           inkscape:connector-curvature="0" />
        <path
           style="fill:none;stroke:#000000;stroke-width:0.28222224;stroke-linecap:round;stroke-linejoin:round;stroke-miterlimit:4;stroke-dasharray:none"
           d="m 105.3173,73.722385 -0.0724,0.111644 -0.0712,0.111082 -0.07,0.110517 -0.069,0.110278 -0.0681,0.110087 -0.0673,0.110221 -0.0666,0.110403 -0.066,0.110723 -0.0655,0.111366 -0.065,0.111922 -0.0648,0.112938 -0.0646,0.114091 -0.0645,0.115156 -0.0645,0.116683"
           id="path9697"
           inkscape:connector-curvature="0" />
        <path
           style="fill:none;stroke:#000000;stroke-width:0.28222224;stroke-linecap:round;stroke-linejoin:round;stroke-miterlimit:4;stroke-dasharray:none"
           id="128"
           d="m 105.3173,73.722385 0.0992,-1.595346"
           inkscape:connector-curvature="0" />
        <path
           style="fill:none;stroke:#000000;stroke-width:0.28222224;stroke-linecap:round;stroke-linejoin:round;stroke-miterlimit:4;stroke-dasharray:none"
           d="m 105.41652,72.127039 -0.0712,0.09321 -0.0702,0.09408 -0.069,0.09505 -0.0681,0.09625 -0.0673,0.09741 -0.0666,0.09898 -0.0659,0.100415 -0.0655,0.102224 -0.0651,0.104083 -0.0647,0.106165 -0.0646,0.108398 -0.0644,0.110715 -0.0644,0.113272 -0.0644,0.116049"
           id="path9700"
           inkscape:connector-curvature="0" />
        <path
           style="fill:none;stroke:#000000;stroke-width:0.28222224;stroke-linecap:round;stroke-linejoin:round;stroke-miterlimit:4;stroke-dasharray:none"
           d="m 104.48519,73.56333 -0.0647,0.118978 -0.0649,0.121993 -0.0653,0.125245 -0.0657,0.128719 -0.0664,0.132431 -0.067,0.13628 -0.0678,0.1404 -0.0688,0.144672 -0.0697,0.149116 -0.0708,0.153934 -0.0721,0.158938 -0.0733,0.164166 -0.0748,0.169629 -0.0763,0.175368"
           id="path9702"
           inkscape:connector-curvature="0" />
        <path
           style="fill:none;stroke:#000000;stroke-width:0.28222224;stroke-linecap:round;stroke-linejoin:round;stroke-miterlimit:4;stroke-dasharray:none"
           id="131"
           d="m 103.41826,77.178544 0.0992,-1.595345"
           inkscape:connector-curvature="0" />
        <path
           style="fill:none;stroke:#000000;stroke-width:0.28222224;stroke-linecap:round;stroke-linejoin:round;stroke-miterlimit:4;stroke-dasharray:none"
           d="m 103.51748,75.583199 -0.17593,-0.02972 -0.17288,-0.02663 -0.1701,-0.02362 -0.16762,-0.02054 -0.16526,-0.01763 -0.16328,-0.01462 -0.1615,-0.01172 -0.15998,-0.0089 -0.15874,-0.0059 -0.15775,-0.003 -0.1569,-1.69e-4 -0.15637,0.0028 -0.15603,0.0056 -0.15607,0.0085"
           id="path9705"
           inkscape:connector-curvature="0" />
        <path
           style="fill:none;stroke:#000000;stroke-width:0.28222224;stroke-linecap:round;stroke-linejoin:round;stroke-miterlimit:4;stroke-dasharray:none"
           d="m 101.23907,75.43748 -0.15626,0.01135 -0.15662,0.01433 -0.15725,0.01723 -0.15819,0.0202 -0.15936,0.02318 -0.1607,0.02627 -0.16239,0.02933 -0.164265,0.03248 -0.16641,0.03557 -0.168764,0.03889 -0.171527,0.0421 -0.174416,0.0455 -0.177525,0.04892 -0.181033,0.05244"
           id="path9707"
           inkscape:connector-curvature="0" />
        <path
           style="fill:none;stroke:#000000;stroke-width:0.28222224;stroke-linecap:round;stroke-linejoin:round;stroke-miterlimit:4;stroke-dasharray:none"
           id="134"
           d="m 98.825053,77.470685 0.09931,-1.595396"
           inkscape:connector-curvature="0" />
        <path
           style="fill:none;stroke:#000000;stroke-width:0.28222224;stroke-linecap:round;stroke-linejoin:round;stroke-miterlimit:4;stroke-dasharray:none"
           d="m 98.92436,75.875289 -0.102179,-0.163979 -0.100419,-0.15853 -0.09884,-0.153203 -0.09751,-0.148087 -0.09628,-0.143366 -0.09506,-0.138646 -0.09417,-0.134308 -0.09338,-0.130145 -0.0927,-0.126153 -0.09211,-0.122336 -0.09184,-0.118678 -0.09156,-0.11538 -0.09135,-0.112032 -0.09158,-0.109017"
           id="path9710"
           inkscape:connector-curvature="0" />
        <path
           style="fill:none;stroke:#000000;stroke-width:0.28222224;stroke-linecap:round;stroke-linejoin:round;stroke-miterlimit:4;stroke-dasharray:none"
           d="m 97.59538,74.001429 -0.09163,-0.106102 -0.092,-0.103346 -0.09238,-0.100814 -0.09308,-0.09822 -0.09372,-0.09612 -0.09475,-0.09391 -0.09571,-0.09197 -0.09694,-0.0901 -0.09827,-0.08841 -0.0997,-0.08689 -0.101408,-0.08544 -0.103163,-0.08408 -0.105155,-0.08293 -0.107247,-0.08196"
           id="path9712"
           inkscape:connector-curvature="0" />
        <path
           style="fill:none;stroke:#000000;stroke-width:0.28222224;stroke-linecap:round;stroke-linejoin:round;stroke-miterlimit:4;stroke-dasharray:none"
           id="137"
           d="m 96.130975,74.306504 0.09926,-1.595371"
           inkscape:connector-curvature="0" />
        <path
           style="fill:none;stroke:#000000;stroke-width:0.28222224;stroke-linecap:round;stroke-linejoin:round;stroke-miterlimit:4;stroke-dasharray:none"
           d="m 96.230238,72.711133 0.07635,-0.175367 0.07481,-0.169629 0.07334,-0.164166 0.07209,-0.158938 0.07082,-0.153934 0.06968,-0.149116 0.06878,-0.144672 0.06778,-0.1404 0.06704,-0.13628 0.06638,-0.132431 0.06575,-0.128719 0.06533,-0.125245 0.0649,-0.121993 0.06468,-0.118978"
           id="path9715"
           inkscape:connector-curvature="0" />
        <path
           style="fill:none;stroke:#000000;stroke-width:0.28222224;stroke-linecap:round;stroke-linejoin:round;stroke-miterlimit:4;stroke-dasharray:none"
           d="m 97.197953,70.691265 0.0644,-0.11605 0.06439,-0.113271 0.06437,-0.110716 0.06455,-0.108397 0.06473,-0.106078 0.06503,-0.10417 0.06546,-0.102224 0.06593,-0.100415 0.06669,-0.09889 0.06726,-0.09749 0.06815,-0.09616 0.06902,-0.09505 0.07011,-0.09417 0.07124,-0.09321"
           id="path9717"
           inkscape:connector-curvature="0" />
        <path
           style="fill:none;stroke:#000000;stroke-width:0.28222224;stroke-linecap:round;stroke-linejoin:round;stroke-miterlimit:4;stroke-dasharray:none"
           d="m 98.129282,69.254974 0.181033,-0.05244 0.177662,-0.04888 0.174329,-0.04545 0.171478,-0.04219 0.168813,-0.03881 0.166447,-0.03571 0.164178,-0.03244 0.162394,-0.02933 0.160745,-0.02618 0.159308,-0.02327 0.158192,-0.0202 0.157339,-0.01728 0.15662,-0.01433 0.15617,-0.0113"
           id="path9719"
           inkscape:connector-curvature="0" />
        <path
           style="fill:none;stroke:#000000;stroke-width:0.28222224;stroke-linecap:round;stroke-linejoin:round;stroke-miterlimit:4;stroke-dasharray:none"
           d="m 100.44399,68.817165 0.15607,-0.0085 0.15612,-0.0056 0.15628,-0.0027 0.15691,1.69e-4 0.15775,0.003 0.15873,0.0059 0.15998,0.0089 0.16159,0.01167 0.16319,0.01467 0.16535,0.01758 0.16754,0.02059 0.17009,0.02362 0.17288,0.02663 0.17593,0.02972"
           id="path9721"
           inkscape:connector-curvature="0" />
        <path
           style="fill:none;stroke:#000000;stroke-width:0.28222224;stroke-linecap:round;stroke-linejoin:round;stroke-miterlimit:4;stroke-dasharray:none"
           d="m 102.7224,68.962883 0.10733,0.08191 0.10507,0.08298 0.10316,0.08408 0.10141,0.08544 0.0998,0.08684 0.0983,0.08841 0.0969,0.09015 0.0958,0.09192 0.0947,0.09396 0.0938,0.09607 0.093,0.09827 0.0925,0.100764 0.092,0.103346 0.0916,0.106102"
           id="path9723"
           inkscape:connector-curvature="0" />
        <path
           style="fill:none;stroke:#000000;stroke-width:0.28222224;stroke-linecap:round;stroke-linejoin:round;stroke-miterlimit:4;stroke-dasharray:none"
           d="m 104.08763,70.253129 0.0915,0.109067 0.0914,0.111982 0.0916,0.11538 0.0917,0.118728 0.0921,0.122336 0.0928,0.126103 0.0933,0.130195 0.0942,0.134308 0.0951,0.138596 0.0963,0.143366 0.0974,0.148137 0.0988,0.153203 0.10051,0.15848 0.10209,0.164029"
           id="path9725"
           inkscape:connector-curvature="0" />
        <path
           style="fill:none;stroke:#000000;stroke-width:0.28222224;stroke-linecap:round;stroke-linejoin:round;stroke-miterlimit:4;stroke-dasharray:none"
           d="m 104.48519,73.56333 a 4,3.31691 3.5595999 0 0 -0.39756,-3.310201"
           id="path9727"
           inkscape:connector-curvature="0" />
        <path
           style="fill:none;stroke:#000000;stroke-width:0.28222224;stroke-linecap:round;stroke-linejoin:round;stroke-miterlimit:4;stroke-dasharray:none"
           d="m 103.1747,74.867499 a 4,3.31691 3.5595999 0 0 1.31049,-1.304169"
           id="path9729"
           inkscape:connector-curvature="0" />
        <path
           style="fill:none;stroke:#000000;stroke-width:0.28222224;stroke-linecap:round;stroke-linejoin:round;stroke-miterlimit:4;stroke-dasharray:none"
           d="m 101.23907,75.43748 a 4,3.31691 3.5595999 0 0 1.93563,-0.569981"
           id="path9731"
           inkscape:connector-curvature="0" />
        <path
           style="fill:none;stroke:#000000;stroke-width:0.28222224;stroke-linecap:round;stroke-linejoin:round;stroke-miterlimit:4;stroke-dasharray:none"
           d="m 97.59538,74.001429 a 4,3.31691 3.5595999 0 0 3.64369,1.436051"
           id="path9733"
           inkscape:connector-curvature="0" />
        <path
           style="fill:none;stroke:#000000;stroke-width:0.28222224;stroke-linecap:round;stroke-linejoin:round;stroke-miterlimit:4;stroke-dasharray:none"
           d="m 97.197953,70.691265 a 4,3.31691 3.5595999 0 0 0.397427,3.310164"
           id="path9735"
           inkscape:connector-curvature="0" />
        <path
           style="fill:none;stroke:#000000;stroke-width:0.28222224;stroke-linecap:round;stroke-linejoin:round;stroke-miterlimit:4;stroke-dasharray:none"
           d="m 100.44399,68.817165 a 4,3.31691 3.5595999 0 0 -3.246037,1.8741"
           id="path9737"
           inkscape:connector-curvature="0" />
        <path
           style="fill:none;stroke:#000000;stroke-width:0.28222224;stroke-linecap:round;stroke-linejoin:round;stroke-miterlimit:4;stroke-dasharray:none"
           d="m 104.08763,70.253129 a 4,3.31691 3.5595999 0 0 -3.64364,-1.435964"
           id="path9739"
           inkscape:connector-curvature="0" />
        <path
           style="fill:none;stroke:#000000;stroke-width:0.28222224;stroke-linecap:round;stroke-linejoin:round;stroke-miterlimit:4;stroke-dasharray:none"
           d="m 103.98114,78.11669 a 5.61131,4.65305 3.5595999 0 0 0.79019,-6.974154"
           id="path10627"
           inkscape:connector-curvature="0" />
        <path
           style="fill:none;stroke:#000000;stroke-width:0.28222224;stroke-linecap:round;stroke-linejoin:round;stroke-miterlimit:4;stroke-dasharray:none"
           d="M 101.80748,69.728402 A 5.61131,4.65305 3.5595999 0 0 100.1803,69.62724"
           id="path10629"
           inkscape:connector-curvature="0" />
        <path
           style="fill:none;stroke:#000000;stroke-width:0.28222224;stroke-linecap:round;stroke-linejoin:round;stroke-miterlimit:4;stroke-dasharray:none"
           d="m 97.299622,70.50936 a 5.61131,4.65305 3.5595999 0 0 6.681518,7.60733"
           id="path10631"
           inkscape:connector-curvature="0" />
        <path
           style="fill:none;stroke:#000000;stroke-width:0.28222224;stroke-linecap:round;stroke-linejoin:round;stroke-miterlimit:4;stroke-dasharray:none"
           d="m 103.24405,74.168818 a 2.7,2.23892 3.5595999 0 0 -0.0123,-0.03134"
           id="path10633"
           inkscape:connector-curvature="0" />
        <path
           style="fill:none;stroke:#000000;stroke-width:0.28222224;stroke-linecap:round;stroke-linejoin:round;stroke-miterlimit:4;stroke-dasharray:none"
           d="m 98.216498,73.833237 a 2.7,2.23892 3.5595999 0 0 -0.01193,0.02213"
           id="path10635"
           inkscape:connector-curvature="0" />
        <g
           style="fill:none;stroke:#000000;stroke-width:0.28222224;stroke-linecap:round;stroke-linejoin:round;stroke-miterlimit:4;stroke-dasharray:none"
           transform="matrix(0.99807075,0.06208678,0.06208678,-0.99807075,31.515714,82.334657)"
           id="g10637">
          <ellipse
             cx="68.558296"
             cy="14.4919"
             rx="3.4000001"
             ry="2.81938"
             id="ellipse10639"
             style="stroke-width:0.28222224;stroke-linecap:round;stroke-linejoin:round;stroke-miterlimit:4;stroke-dasharray:none" />
        </g>
        <path
           style="fill:none;stroke:#000000;stroke-width:0.28222224;stroke-linecap:round;stroke-linejoin:round;stroke-miterlimit:4;stroke-dasharray:none"
           d="m 102.70111,74.431017 a 3.2,2.65353 3.5595999 0 0 1.32732,-1.993425"
           id="path10641"
           inkscape:connector-curvature="0" />
        <path
           style="fill:none;stroke:#000000;stroke-width:0.28222224;stroke-linecap:round;stroke-linejoin:round;stroke-miterlimit:4;stroke-dasharray:none"
           d="M 104.02843,72.437592 A 3.2000199,2.6535465 3.5595999 1 0 97.64074,72.040194"
           id="path10643"
           inkscape:connector-curvature="0" />
        <path
           style="fill:none;stroke:#000000;stroke-width:0.28222224;stroke-linecap:round;stroke-linejoin:round;stroke-miterlimit:4;stroke-dasharray:none"
           d="m 97.64074,72.040194 a 3.2,2.65353 3.5595999 0 0 5.06037,2.390823"
           id="path10645"
           inkscape:connector-curvature="0" />
        <path
           style="fill:none;stroke:#000000;stroke-width:0.28222224;stroke-linecap:round;stroke-linejoin:round;stroke-miterlimit:4;stroke-dasharray:none"
           d="M 104.02213,72.537878 A 3.2,2.65353 3.5595999 1 0 97.634489,72.140567"
           id="path10647"
           inkscape:connector-curvature="0" />
        <path
           style="fill:none;stroke:#000000;stroke-width:0.28222224;stroke-linecap:round;stroke-linejoin:round;stroke-miterlimit:4;stroke-dasharray:none"
           d="M 103.4085,73.864645 A 3.1,2.57061 3.5595999 1 0 98.079082,73.533024"
           id="path10649"
           inkscape:connector-curvature="0" />
      </g>
    </g>
  </g>
</svg>
