<?xml version="1.0" encoding="UTF-8" standalone="no"?>
<!-- Created with Inkscape (http://www.inkscape.org/) -->

<svg
   xmlns:dc="http://purl.org/dc/elements/1.1/"
   xmlns:cc="http://creativecommons.org/ns#"
   xmlns:rdf="http://www.w3.org/1999/02/22-rdf-syntax-ns#"
   xmlns:svg="http://www.w3.org/2000/svg"
   xmlns="http://www.w3.org/2000/svg"
   xmlns:sodipodi="http://sodipodi.sourceforge.net/DTD/sodipodi-0.dtd"
   xmlns:inkscape="http://www.inkscape.org/namespaces/inkscape"
   width="48"
   height="48"
   viewBox="0 0 48.000001 48.000001"
   id="svg15825"
   version="1.1"
   inkscape:version="0.91 r13725"
   sodipodi:docname="EN1661.svg">
  <defs
     id="defs15827" />
  <sodipodi:namedview
     id="base"
     pagecolor="#ffffff"
     bordercolor="#666666"
     borderopacity="1.0"
     inkscape:pageopacity="0.0"
     inkscape:pageshadow="2"
     inkscape:zoom="12.625"
     inkscape:cx="11.920792"
     inkscape:cy="28.747491"
     inkscape:document-units="px"
     inkscape:current-layer="layer1"
     showgrid="false"
     units="px"
     inkscape:window-width="1413"
     inkscape:window-height="911"
     inkscape:window-x="70"
     inkscape:window-y="-21"
     inkscape:window-maximized="0" />
  <metadata
     id="metadata15830">
    <rdf:RDF>
      <cc:Work
         rdf:about="">
        <dc:format>image/svg+xml</dc:format>
        <dc:type
           rdf:resource="http://purl.org/dc/dcmitype/StillImage" />
        <dc:title />
      </cc:Work>
    </rdf:RDF>
  </metadata>
  <g
     inkscape:label="Layer 1"
     inkscape:groupmode="layer"
     id="layer1"
     transform="translate(0,-1004.3622)">
    <g
       id="g8317"
       transform="matrix(1.3388741,0,0,1.3388741,-3.565281,-344.32154)"
       style="stroke-width:0.74689622;stroke-miterlimit:4;stroke-dasharray:none">
      <path
         sodipodi:nodetypes="csccccczcc"
         inkscape:connector-curvature="0"
         id="path8315"
         d="m 10.376237,1017.3523 c -1.7425737,1.0297 -5.6156764,4.4261 -5.4653459,8.7129 0.2110455,6.0181 5.7821789,11.0099 14.4950499,12.7524 5.069307,0.3961 11.722772,-1.3465 15.445544,-6.099 1.584159,-2.693 1.663366,-6.0197 0.950495,-9.2673 -0.792079,-1.5049 -2.613861,-3.3267 -2.613861,-3.3267 l 0.158416,-1.6634 c 0,0 -4.243519,-6.0887 -7.841585,-7.3663 -3.598066,-1.2776 -8.628897,-0.2496 -12.356435,1.1089 -1.588924,2.309 -2.772278,5.1485 -2.772278,5.1485 z"
         style="opacity:1;fill:#ffaa00;fill-opacity:1;fill-rule:evenodd;stroke:none;stroke-width:0.74689622;stroke-linecap:round;stroke-linejoin:round;stroke-miterlimit:4;stroke-dasharray:none;stroke-dashoffset:0;stroke-opacity:1" />
      <path
         inkscape:connector-curvature="0"
         id="path4159"
         d="m 30.487232,1036.2718 c 1.560933,-0.9073 2.654291,-1.9007 3.468437,-2.8801 0.812374,-0.9815 1.344472,-1.9515 1.706421,-2.9153 0.65289,-1.7855 0.765638,-3.5414 0.303662,-5.4534 -0.391359,-1.5293 -1.155402,-3.1901 -2.796804,-4.952"
         style="fill:none;stroke:#000000;stroke-width:0.74689622;stroke-linecap:round;stroke-linejoin:miter;stroke-miterlimit:4;stroke-dasharray:none" />
      <path
         inkscape:connector-curvature="0"
         id="path4161"
         d="m 10.614028,1017.0996 c -1.2459336,0.7285 -2.1718706,1.5239 -2.9203234,2.3089 -0.8665866,0.9269 -1.4605512,1.8498 -1.8843307,2.7634 -0.4164094,0.9094 -0.6812362,1.8172 -0.7920708,2.7281 -0.1176378,0.8964 -0.094252,1.8158 0.069803,2.7582 0.1690157,0.9458 0.4856456,1.9259 1.0302874,2.9586 0.6165708,1.1476 1.4953819,2.3679 2.9023937,3.5931 1.4001378,1.2138 3.3282288,2.4328 5.8565198,3.2806 1.304645,0.4558 2.797724,0.7783 4.299732,0.936 1.50424,0.1595 3.020102,0.1587 4.431295,0.011 1.413461,-0.147 2.722536,-0.4426 3.875421,-0.829 1.155367,-0.3847 2.154544,-0.8603 3.004441,-1.3356"
         style="fill:none;stroke:#000000;stroke-width:0.74689622;stroke-linecap:round;stroke-linejoin:miter;stroke-miterlimit:4;stroke-dasharray:none" />
      <g
         id="g4477"
         transform="matrix(2.6459873,0.24688619,0.24688619,-2.6459873,-515.71166,1141.6135)"
         style="fill:none;stroke:#000000;stroke-width:0.28105428;stroke-linecap:round;stroke-linejoin:miter;stroke-miterlimit:4;stroke-dasharray:none">
        <ellipse
           id="ellipse4479"
           ry="2.1081901"
           rx="2.875"
           cy="64.877098"
           cx="196.91901"
           style="stroke-width:0.28105428;stroke-linecap:round;stroke-miterlimit:4;stroke-dasharray:none" />
      </g>
      <path
         inkscape:connector-curvature="0"
         id="path4481"
         d="m 28.185889,1024.8321 a 10.629921,7.7947616 5.3305994 0 0 3.14054,-3.1818"
         style="fill:none;stroke:#000000;stroke-width:0.74689622;stroke-linecap:round;stroke-linejoin:miter;stroke-miterlimit:4;stroke-dasharray:none" />
      <path
         inkscape:connector-curvature="0"
         id="path4483"
         d="m 31.326429,1021.6503 a 10.629921,7.7947616 5.3305994 0 0 -1.862611,-7.7683"
         style="fill:none;stroke:#000000;stroke-width:0.74689622;stroke-linecap:round;stroke-linejoin:miter;stroke-miterlimit:4;stroke-dasharray:none" />
      <path
         inkscape:connector-curvature="0"
         id="path4485"
         d="m 29.463818,1013.882 a 10.629921,7.7947616 5.3305994 0 0 -9.977208,-3.0864"
         style="fill:none;stroke:#000000;stroke-width:0.74689622;stroke-linecap:round;stroke-linejoin:miter;stroke-miterlimit:4;stroke-dasharray:none" />
      <path
         inkscape:connector-curvature="0"
         id="path4487"
         d="m 19.48661,1010.7956 a 10.629921,7.7947616 5.3305994 0 0 -8.112827,4.6839"
         style="fill:none;stroke:#000000;stroke-width:0.74689622;stroke-linecap:round;stroke-linejoin:miter;stroke-miterlimit:4;stroke-dasharray:none" />
      <path
         inkscape:connector-curvature="0"
         id="path4489"
         d="m 11.373783,1015.4795 a 10.629921,7.7947616 5.3305994 0 0 1.863922,7.7706"
         style="fill:none;stroke:#000000;stroke-width:0.74689622;stroke-linecap:round;stroke-linejoin:miter;stroke-miterlimit:4;stroke-dasharray:none" />
      <path
         inkscape:connector-curvature="0"
         id="path4491"
         d="m 13.237705,1023.2501 a 10.629921,7.7947616 5.3305994 0 0 9.975684,3.0843"
         style="fill:none;stroke:#000000;stroke-width:0.74689622;stroke-linecap:round;stroke-linejoin:miter;stroke-miterlimit:4;stroke-dasharray:none" />
      <path
         inkscape:connector-curvature="0"
         id="path4493"
         d="m 23.213389,1026.3344 a 10.629921,7.7947616 5.3305994 0 0 4.9725,-1.5023"
         style="fill:none;stroke:#000000;stroke-width:0.74689622;stroke-linecap:round;stroke-linejoin:miter;stroke-miterlimit:4;stroke-dasharray:none" />
      <path
         inkscape:connector-curvature="0"
         id="path4495"
         d="m 29.155622,1026.7424 0.173622,-0.4562 0.170078,-0.4388 0.167244,-0.4218 0.163347,-0.4073 0.160157,-0.3931 0.156969,-0.3791 0.154488,-0.3654 0.150945,-0.3543 0.150945,-0.3387 0.146693,-0.3303 0.146338,-0.3175 0.144213,-0.3072 0.144213,-0.2951 0.141732,-0.2874"
         style="fill:none;stroke:#000000;stroke-width:0.74689622;stroke-linecap:round;stroke-linejoin:miter;stroke-miterlimit:4;stroke-dasharray:none" />
      <path
         inkscape:connector-curvature="0"
         id="path4497"
         d="m 33.321559,1018.4394 -0.294095,-0.4132 -0.289488,-0.3975 -0.286299,-0.384 -0.282048,-0.3681 -0.27744,-0.3522 -0.27567,-0.3409 -0.274252,-0.3295 -0.27,-0.3136 -0.270354,-0.3044 -0.268937,-0.2927 -0.26752,-0.2813 -0.266811,-0.2696 -0.267165,-0.2601 -0.26752,-0.2505"
         style="fill:none;stroke:#000000;stroke-width:0.74689622;stroke-linecap:round;stroke-linejoin:miter;stroke-miterlimit:4;stroke-dasharray:none" />
      <path
         inkscape:connector-curvature="0"
         id="path4499"
         d="m 31.326429,1021.6503 0.141023,-0.2778 0.14067,-0.2686 0.140315,-0.259 0.139606,-0.2523 0.140315,-0.2434 0.13996,-0.2374 0.139607,-0.231 0.141378,-0.2229 0.142086,-0.2169 0.142796,-0.2111 0.145275,-0.2034 0.14563,-0.2006 0.147402,-0.1956 0.149173,-0.1906"
         style="fill:none;stroke:#000000;stroke-width:0.74689622;stroke-linecap:round;stroke-linejoin:miter;stroke-miterlimit:4;stroke-dasharray:none" />
      <path
         inkscape:connector-curvature="0"
         id="path4501"
         d="m 25.428842,1011.2036 -0.455669,-0.09 -0.448973,-0.082 -0.442523,-0.073 -0.43565,-0.061 -0.430087,-0.052 -0.425232,-0.043 -0.420838,-0.032 -0.416906,-0.025 -0.414779,-0.014 -0.411768,0 -0.410528,0 -0.409996,0.014 -0.409464,0.021 -0.409819,0.032"
         style="fill:none;stroke:#000000;stroke-width:0.74689622;stroke-linecap:round;stroke-linejoin:miter;stroke-miterlimit:4;stroke-dasharray:none" />
      <path
         inkscape:connector-curvature="0"
         id="path4503"
         d="m 29.463818,1013.882 -0.27,-0.2431 -0.269291,-0.231 -0.271417,-0.2236 -0.274252,-0.2158 -0.275669,-0.2062 -0.279922,-0.2006 -0.282756,-0.1927 -0.285945,-0.1846 -0.290905,-0.179 -0.295866,-0.1729 -0.299764,-0.1644 -0.306496,-0.1605 -0.31252,-0.1541 -0.319606,-0.1499"
         style="fill:none;stroke:#000000;stroke-width:0.74689622;stroke-linecap:round;stroke-linejoin:miter;stroke-miterlimit:4;stroke-dasharray:none" />
      <path
         inkscape:connector-curvature="0"
         id="path4505"
         d="m 13.369976,1012.2711 -0.15059,0.1881 -0.147402,0.1956 -0.145275,0.2005 -0.144213,0.2059 -0.144213,0.2091 -0.142086,0.2168 -0.139961,0.225 -0.141378,0.2289 -0.13996,0.2374 -0.139961,0.2434 -0.139252,0.2523 -0.140669,0.259 -0.14067,0.2683 -0.141023,0.2778"
         style="fill:none;stroke:#000000;stroke-width:0.74689622;stroke-linecap:round;stroke-linejoin:miter;stroke-miterlimit:4;stroke-dasharray:none" />
      <path
         inkscape:connector-curvature="0"
         id="path4507"
         d="m 19.48661,1010.7956 -0.410492,0.04 -0.41152,0.05 -0.413539,0.061 -0.417083,0.069 -0.419811,0.08 -0.424488,0.089 -0.428315,0.1 -0.435296,0.107 -0.440503,0.1194 -0.445961,0.1314 -0.454961,0.14 -0.462932,0.1506 -0.471756,0.1619 -0.479977,0.1758"
         style="fill:none;stroke:#000000;stroke-width:0.74689622;stroke-linecap:round;stroke-linejoin:miter;stroke-miterlimit:4;stroke-dasharray:none" />
      <path
         inkscape:connector-curvature="0"
         id="path4509"
         d="m 9.2027282,1020.5718 0.3196063,0.1499 0.3125197,0.1541 0.3064958,0.1605 0.299764,0.1644 0.295866,0.1729 0.290906,0.179 0.285945,0.1846 0.28311,0.1924 0.279567,0.2005 0.275669,0.2059 0.274252,0.2161 0.271417,0.2236 0.269292,0.231 0.27,0.2431"
         style="fill:none;stroke:#000000;stroke-width:0.74689622;stroke-linecap:round;stroke-linejoin:miter;stroke-miterlimit:4;stroke-dasharray:none" />
      <path
         inkscape:connector-curvature="0"
         id="path4511"
         d="m 11.373783,1015.4795 -0.141732,0.2874 -0.142795,0.2973 -0.144213,0.3072 -0.145984,0.3174 -0.148465,0.3282 -0.149527,0.3408 -0.152362,0.3519 -0.154489,0.3654 -0.156968,0.3791 -0.1601576,0.3931 -0.1633464,0.4073 -0.1658268,0.4241 -0.1700787,0.4388 -0.1750394,0.4539"
         style="fill:none;stroke:#000000;stroke-width:0.74689622;stroke-linecap:round;stroke-linejoin:miter;stroke-miterlimit:4;stroke-dasharray:none" />
      <path
         inkscape:connector-curvature="0"
         id="path4513"
         d="m 17.095444,1027.8075 0.481288,-0.1736 0.471791,-0.1619 0.462898,-0.1506 0.453649,-0.1421 0.447272,-0.1293 0.440291,-0.1191 0.434197,-0.1095 0.429626,-0.098 0.424524,-0.089 0.419775,-0.08 0.417083,-0.069 0.413327,-0.061 0.411768,-0.051 0.410456,-0.04"
         style="fill:none;stroke:#000000;stroke-width:0.74689622;stroke-linecap:round;stroke-linejoin:miter;stroke-miterlimit:4;stroke-dasharray:none" />
      <path
         inkscape:connector-curvature="0"
         id="path4515"
         d="m 13.237705,1023.2501 0.267519,0.2505 0.267166,0.2601 0.266811,0.2697 0.267519,0.2813 0.268937,0.2927 0.27,0.3044 0.270354,0.3135 0.273898,0.3296 0.276024,0.3408 0.277441,0.3522 0.282047,0.3681 0.286299,0.3841 0.289488,0.3974 0.294095,0.4132"
         style="fill:none;stroke:#000000;stroke-width:0.74689622;stroke-linecap:round;stroke-linejoin:miter;stroke-miterlimit:4;stroke-dasharray:none" />
      <path
         inkscape:connector-curvature="0"
         id="path4517"
         d="m 23.213389,1026.3344 0.409855,-0.032 0.408118,-0.025 0.409996,-0.014 0.410527,0 0.413079,0.01 0.413433,0.014 0.418252,0.025 0.420839,0.032 0.425232,0.043 0.430122,0.053 0.435614,0.062 0.441213,0.07 0.448972,0.082 0.456981,0.092"
         style="fill:none;stroke:#000000;stroke-width:0.74689622;stroke-linecap:round;stroke-linejoin:miter;stroke-miterlimit:4;stroke-dasharray:none" />
      <path
         inkscape:connector-curvature="0"
         d="m 29.155622,1026.7424 -0.513815,5.5071"
         id="169"
         style="fill:none;stroke:#000000;stroke-width:0.74689622;stroke-linecap:round;stroke-linejoin:miter;stroke-miterlimit:4;stroke-dasharray:none" />
      <path
         inkscape:connector-curvature="0"
         id="path4520"
         d="m 22.66035,1032.2631 0.409429,-0.036 0.410032,-0.028 0.409748,-0.025 0.412547,-0.018 0.413468,-0.014 0.417189,-0.01 0.420095,0 0.423673,9e-4 0.429024,0.01 0.433311,0.011 0.43983,0.018 0.446351,0.021 0.455102,0.028 0.461658,0.032"
         style="fill:none;stroke:#000000;stroke-width:0.74689622;stroke-linecap:round;stroke-linejoin:miter;stroke-miterlimit:4;stroke-dasharray:none" />
      <path
         inkscape:connector-curvature="0"
         id="path4522"
         d="m 16.581629,1033.3146 0.4753,-0.1148 0.466972,-0.107 0.45776,-0.1017 0.450779,-0.095 0.442737,-0.09 0.436712,-0.083 0.431362,-0.077 0.42626,-0.071 0.422044,-0.066 0.418322,-0.061 0.416375,-0.053 0.412015,-0.051 0.411201,-0.044 0.410882,-0.038"
         style="fill:none;stroke:#000000;stroke-width:0.74689622;stroke-linecap:round;stroke-linejoin:miter;stroke-miterlimit:4;stroke-dasharray:none" />
      <path
         inkscape:connector-curvature="0"
         d="m 17.095444,1027.8075 -0.513815,5.5071"
         id="172"
         style="fill:none;stroke:#000000;stroke-width:0.74689622;stroke-linecap:round;stroke-linejoin:miter;stroke-miterlimit:4;stroke-dasharray:none" />
      <path
         inkscape:connector-curvature="0"
         d="m 33.321559,1018.4394 -0.513815,5.5071"
         id="173"
         style="fill:none;stroke:#000000;stroke-width:0.74689622;stroke-linecap:round;stroke-linejoin:miter;stroke-miterlimit:4;stroke-dasharray:none" />
      <path
         inkscape:connector-curvature="0"
         id="path4526"
         d="m 30.773389,1027.579 0.14067,-0.2806 0.141023,-0.275 0.142087,-0.2693 0.140315,-0.2682 0.141732,-0.2629 0.142087,-0.2601 0.143149,-0.2576 0.144213,-0.2551 0.14563,-0.2527 0.147401,-0.2508 0.148111,-0.2513 0.150945,-0.2498 0.152007,-0.2505 0.155197,-0.2491"
         style="fill:none;stroke:#000000;stroke-width:0.74689622;stroke-linecap:round;stroke-linejoin:miter;stroke-miterlimit:4;stroke-dasharray:none" />
      <path
         inkscape:connector-curvature="0"
         id="path4528"
         d="m 28.641807,1032.2495 0.169015,-0.3952 0.164056,-0.3861 0.161929,-0.3728 0.159094,-0.3619 0.156969,-0.3515 0.153071,-0.3434 0.152007,-0.3331 0.149174,-0.3252 0.147047,-0.3182 0.146693,-0.3086 0.143858,-0.3041 0.144567,-0.2951 0.142441,-0.2909 0.142087,-0.2846"
         style="fill:none;stroke:#000000;stroke-width:0.74689622;stroke-linecap:round;stroke-linejoin:miter;stroke-miterlimit:4;stroke-dasharray:none" />
      <path
         inkscape:connector-curvature="0"
         id="path4530"
         d="m 12.684453,1029.179 0.267519,0.2476 0.26752,0.2537 0.268228,0.2594 0.269646,0.2679 0.270354,0.2735 0.271063,0.2792 0.273543,0.2871 0.277087,0.2972 0.279212,0.3051 0.282048,0.3129 0.285945,0.3228 0.290196,0.3327 0.294449,0.3426 0.299764,0.3547"
         style="fill:none;stroke:#000000;stroke-width:0.74689622;stroke-linecap:round;stroke-linejoin:miter;stroke-miterlimit:4;stroke-dasharray:none" />
      <path
         inkscape:connector-curvature="0"
         id="path4532"
         d="m 8.6889133,1026.0789 0.3135827,0.2087 0.307559,0.2091 0.3015354,0.2094 0.2969292,0.2122 0.2912594,0.2122 0.287363,0.2148 0.28311,0.2168 0.280984,0.2215 0.276024,0.2211 0.27496,0.2278 0.272126,0.2296 0.270355,0.2335 0.27,0.2399 0.268582,0.2438"
         style="fill:none;stroke:#000000;stroke-width:0.74689622;stroke-linecap:round;stroke-linejoin:miter;stroke-miterlimit:4;stroke-dasharray:none" />
      <path
         inkscape:connector-curvature="0"
         d="m 9.2027282,1020.5718 -0.5138149,5.5071"
         id="178"
         style="fill:none;stroke:#000000;stroke-width:0.74689622;stroke-linecap:round;stroke-linejoin:miter;stroke-miterlimit:4;stroke-dasharray:none" />
      <path
         inkscape:connector-curvature="0"
         id="path4535"
         d="m 24.846712,1022.1939 a 5.4929853,4.0279162 5.3305994 0 0 1.936417,-2.729"
         style="fill:none;stroke:#000000;stroke-width:0.74689622;stroke-linecap:round;stroke-linejoin:miter;stroke-miterlimit:4;stroke-dasharray:none" />
      <path
         inkscape:connector-curvature="0"
         id="path4537"
         d="m 26.783129,1019.4649 a 5.4932297,4.0280955 5.3305994 0 0 -10.938862,-1.0215"
         style="fill:none;stroke:#000000;stroke-width:0.74689622;stroke-linecap:round;stroke-linejoin:miter;stroke-miterlimit:4;stroke-dasharray:none" />
      <path
         inkscape:connector-curvature="0"
         id="path4539"
         d="m 15.844267,1018.4434 a 5.4929853,4.0279162 5.3305994 0 0 9.002445,3.7505"
         style="fill:none;stroke:#000000;stroke-width:0.74689622;stroke-linecap:round;stroke-linejoin:miter;stroke-miterlimit:4;stroke-dasharray:none" />
    </g>
  </g>
</svg>
