<?xml version="1.0" encoding="UTF-8" standalone="no"?>
<!-- Created with Inkscape (http://www.inkscape.org/) -->

<svg
   xmlns:dc="http://purl.org/dc/elements/1.1/"
   xmlns:cc="http://creativecommons.org/ns#"
   xmlns:rdf="http://www.w3.org/1999/02/22-rdf-syntax-ns#"
   xmlns:svg="http://www.w3.org/2000/svg"
   xmlns="http://www.w3.org/2000/svg"
   xmlns:sodipodi="http://sodipodi.sourceforge.net/DTD/sodipodi-0.dtd"
   xmlns:inkscape="http://www.inkscape.org/namespaces/inkscape"
   width="48"
   height="48"
   viewBox="0 0 48.000001 48.000001"
   id="svg15825"
   version="1.1"
   inkscape:version="0.91 r13725"
   sodipodi:docname="EN1662.svg">
  <defs
     id="defs15827" />
  <sodipodi:namedview
     id="base"
     pagecolor="#ffffff"
     bordercolor="#666666"
     borderopacity="1.0"
     inkscape:pageopacity="0.0"
     inkscape:pageshadow="2"
     inkscape:zoom="12.625"
     inkscape:cx="24"
     inkscape:cy="24"
     inkscape:document-units="px"
     inkscape:current-layer="layer1"
     showgrid="false"
     units="px"
     inkscape:window-width="1260"
     inkscape:window-height="787"
     inkscape:window-x="0"
     inkscape:window-y="0"
     inkscape:window-maximized="0" />
  <metadata
     id="metadata15830">
    <rdf:RDF>
      <cc:Work
         rdf:about="">
        <dc:format>image/svg+xml</dc:format>
        <dc:type
           rdf:resource="http://purl.org/dc/dcmitype/StillImage" />
        <dc:title></dc:title>
      </cc:Work>
    </rdf:RDF>
  </metadata>
  <g
     inkscape:label="Layer 1"
     inkscape:groupmode="layer"
     id="layer1"
     transform="translate(0,-1004.3622)">
    <g
       transform="matrix(3.5433071,0,0,3.543307,-291.76564,809.67557)"
       id="g15664">
      <path
         d="m 94.675754,60.849319 a 5.6590147,4.7861586 0 0 1 -5.647632,4.786149 5.6590147,4.7861586 0 0 1 -5.670352,-4.766894 5.6590147,4.7861586 0 0 1 5.62482,-4.805326 5.6590147,4.7861586 0 0 1 5.69298,4.747562"
         sodipodi:open="true"
         sodipodi:end="6.2751393"
         sodipodi:start="0"
         sodipodi:ry="4.7861586"
         sodipodi:rx="5.6590147"
         sodipodi:cy="60.849319"
         sodipodi:cx="89.016739"
         sodipodi:type="arc"
         id="path15521-2"
         style="opacity:1;fill:#ffaa00;fill-opacity:0.94117647;fill-rule:evenodd;stroke:none;stroke-width:1;stroke-linecap:round;stroke-linejoin:round;stroke-miterlimit:4;stroke-dasharray:none;stroke-dashoffset:0;stroke-opacity:1" />
      <path
         d="m 92.086279,57.517902 a 3.0258996,1.9202825 0 0 1 -3.019813,1.920279 3.0258996,1.9202825 0 0 1 -3.031962,-1.912553 3.0258996,1.9202825 0 0 1 3.007615,-1.927973 3.0258996,1.9202825 0 0 1 3.044062,1.904797"
         sodipodi:open="true"
         sodipodi:end="6.2751393"
         sodipodi:start="0"
         sodipodi:ry="1.9202825"
         sodipodi:rx="3.0258996"
         sodipodi:cy="57.517902"
         sodipodi:cx="89.060379"
         sodipodi:type="arc"
         id="path15523-3"
         style="opacity:1;fill:#ffaa00;fill-opacity:0.94117647;fill-rule:evenodd;stroke:none;stroke-width:1;stroke-linecap:round;stroke-linejoin:round;stroke-miterlimit:4;stroke-dasharray:none;stroke-dashoffset:0;stroke-opacity:1" />
      <path
         transform="scale(0.28222222,0.28222223)"
         inkscape:connector-curvature="0"
         id="path15662"
         d="m 305.83072,230.87851 c -0.48923,2.35037 0.48457,4.87966 2.3196,6.4099 1.98974,1.69817 4.65851,2.58294 7.27077,2.34854 3.27603,-0.12427 6.66226,-2.18313 7.65632,-5.41714 0.1625,-0.75089 0.4155,-1.63981 0.0412,-2.35305 -0.51833,-0.44764 -1.19678,0.10512 -1.7768,0.12181 -3.05595,0.74274 -6.26452,0.72076 -9.31316,0.32862 -1.95315,-0.32123 -3.86134,-0.91483 -5.69139,-1.63539 -0.22573,-0.0714 -0.34262,0.0689 -0.50649,0.19671 z"
         style="opacity:1;fill:#ffaa00;fill-opacity:0.94117647;fill-rule:evenodd;stroke:none;stroke-width:1;stroke-linecap:round;stroke-linejoin:round;stroke-miterlimit:4;stroke-dasharray:none;stroke-dashoffset:0;stroke-opacity:1" />
      <g
         id="g13946">
        <path
           style="fill:none;stroke:#000000;stroke-width:0.28222224;stroke-linecap:round;stroke-linejoin:round;stroke-miterlimit:4;stroke-dasharray:none"
           id="74"
           d="m 86.262861,64.986289 0.0035,0.443398"
           inkscape:connector-curvature="0"
           sodipodi:nodetypes="cc" />
        <path
           style="fill:none;stroke:#000000;stroke-width:0.28222224;stroke-linecap:round;stroke-linejoin:round;stroke-miterlimit:4;stroke-dasharray:none"
           id="75"
           d="m 91.253189,65.297292 0.0036,0.442809"
           inkscape:connector-curvature="0"
           sodipodi:nodetypes="cc" />
        <path
           style="fill:none;stroke:#000000;stroke-width:0.28222224;stroke-linecap:round;stroke-linejoin:round;stroke-miterlimit:4;stroke-dasharray:none"
           d="m 92.309735,64.819623 c 0.76415,-0.445454 1.27108,-0.959025 1.631966,-1.470953 0.358615,-0.514659 0.571236,-1.027589 0.685987,-1.544635 0.108668,-0.492981 0.124889,-0.992286 0.04879,-1.498101 -0.07807,-0.50722 -0.249181,-1.026193 -0.561395,-1.558964 -0.216845,-0.360587 -0.488441,-0.724205 -0.865033,-1.082282 -0.37547,-0.356531 -0.855885,-0.707436 -1.459191,-1.001592"
           id="path9420"
           inkscape:connector-curvature="0" />
        <path
           style="fill:none;stroke:#000000;stroke-width:0.28222224;stroke-linecap:round;stroke-linejoin:round;stroke-miterlimit:4;stroke-dasharray:none"
           d="m 86.47911,56.471384 c -0.845656,0.34344 -1.449105,0.797497 -1.896223,1.258406 -0.446346,0.464505 -0.736262,0.936036 -0.934845,1.410261 -0.2033,0.491153 -0.303238,0.981056 -0.316887,1.477375 -0.01222,0.4963 0.06181,0.998923 0.246231,1.516565 0.189779,0.523207 0.485224,1.058732 0.978852,1.59796 0.494133,0.534204 1.186399,1.072025 2.18242,1.461724 0.42621,0.173777 0.934609,0.30599 1.457998,0.378166 0.524183,0.07287 1.063455,0.08588 1.572665,0.03991 0.509995,-0.04526 0.99002,-0.149314 1.416996,-0.291791 0.42777,-0.14178 0.80255,-0.321901 1.123418,-0.500342"
           id="path9422"
           inkscape:connector-curvature="0" />
        <path
           style="fill:none;stroke:#000000;stroke-width:0.28222224;stroke-linecap:round;stroke-linejoin:round;stroke-miterlimit:4;stroke-dasharray:none"
           d="m 91.955839,58.834057 c -0.01727,0.263889 -0.08686,0.534548 -0.24207,0.815722 -0.16588,0.296688 -0.439367,0.622595 -0.902643,0.892377"
           id="path9424"
           inkscape:connector-curvature="0" />
        <path
           style="fill:none;stroke:#000000;stroke-width:0.28222224;stroke-linecap:round;stroke-linejoin:round;stroke-miterlimit:4;stroke-dasharray:none"
           d="m 86.366647,58.486372 c -0.01722,0.310512 0.03159,0.630474 0.204452,0.985161 0.100429,0.199169 0.237561,0.409248 0.459167,0.627021 0.220477,0.215538 0.52542,0.438775 0.931055,0.604455 0.247649,0.10274 0.528359,0.177385 0.805702,0.215177 0.281035,0.03705 0.54978,0.04193 0.806202,0.01466 0.509887,-0.05305 0.923237,-0.208907 1.237901,-0.390693"
           id="path9426"
           inkscape:connector-curvature="0" />
        <path
           style="fill:none;stroke:#000000;stroke-width:0.28222224;stroke-linecap:round;stroke-linejoin:round;stroke-miterlimit:4;stroke-dasharray:none"
           d="m 90.219798,67.297532 c 0.61632,-0.355837 0.997855,-0.928878 1.036949,-1.557431"
           id="path10357"
           inkscape:connector-curvature="0"
           sodipodi:nodetypes="cc" />
        <path
           style="fill:none;stroke:#000000;stroke-width:0.28222224;stroke-linecap:round;stroke-linejoin:round;stroke-miterlimit:4;stroke-dasharray:none"
           d="m 86.266401,65.429687 c -0.107917,1.734926 2.25223,2.850014 3.953397,1.867845"
           id="path10359"
           inkscape:connector-curvature="0"
           sodipodi:nodetypes="cc" />
        <path
           style="fill:none;stroke:#000000;stroke-width:0.28222224;stroke-linecap:round;stroke-linejoin:round;stroke-miterlimit:4;stroke-dasharray:none"
           d="m 91.260965,60.3717 a 2.5,2.07307 3.5595999 0 0 -0.01565,-0.02711"
           id="path10363"
           inkscape:connector-curvature="0" />
        <path
           style="fill:none;stroke:#000000;stroke-width:0.28222224;stroke-linecap:round;stroke-linejoin:round;stroke-miterlimit:4;stroke-dasharray:none"
           d="m 86.884241,60.073512 a 2.5,2.07307 3.5595999 0 0 -0.01862,0.02472"
           id="path10365"
           inkscape:connector-curvature="0" />
        <path
           style="fill:none;stroke:#000000;stroke-width:0.28222224;stroke-linecap:round;stroke-linejoin:round;stroke-miterlimit:4;stroke-dasharray:none"
           d="m 92.261393,61.330893 -0.05651,0.103524 -0.05669,0.105013 -0.05694,0.106776 -0.05732,0.108724 -0.05769,0.110674 -0.05836,0.112909 -0.0588,0.115355 -0.05963,0.117914 -0.06036,0.120645 -0.06131,0.123615 -0.06223,0.126806 -0.06339,0.130011 -0.06451,0.133663 -0.06586,0.137329"
           id="path10367"
           inkscape:connector-curvature="0" />
        <path
           style="fill:none;stroke:#000000;stroke-width:0.28222224;stroke-linecap:round;stroke-linejoin:round;stroke-miterlimit:4;stroke-dasharray:none"
           d="m 91.421786,62.983851 -0.15489,-0.0099 -0.152255,-0.0085 -0.149656,-0.007 -0.147343,-0.0058 -0.145327,-0.0043 -0.143498,-0.0029 -0.141892,-0.0016 -0.140463,-3.1e-4 -0.139245,0.0012 -0.138307,0.0025 -0.137582,0.0038 -0.137014,0.0052 -0.13667,0.0066 -0.136571,0.008"
           id="path10369"
           inkscape:connector-curvature="0" />
        <path
           style="fill:none;stroke:#000000;stroke-width:0.28222224;stroke-linecap:round;stroke-linejoin:round;stroke-miterlimit:4;stroke-dasharray:none"
           d="m 89.421073,62.970753 -0.136647,0.0094 -0.136929,0.01081 -0.137442,0.01226 -0.138152,0.01371 -0.139136,0.01509 -0.140251,0.01666 -0.141582,0.01823 -0.143185,0.01974 -0.14502,0.02126 -0.146987,0.02297 -0.149294,0.02454 -0.151725,0.02628 -0.154473,0.02799 -0.157443,0.0297"
           id="path10371"
           inkscape:connector-curvature="0" />
        <path
           style="fill:none;stroke:#000000;stroke-width:0.28222224;stroke-linecap:round;stroke-linejoin:round;stroke-miterlimit:4;stroke-dasharray:none"
           d="m 87.402807,63.239374 -0.09036,-0.127387 -0.08881,-0.123891 -0.08735,-0.120462 -0.08604,-0.117292 -0.08491,-0.114368 -0.08386,-0.111509 -0.08292,-0.10882 -0.08215,-0.106374 -0.08146,-0.104001 -0.081,-0.10196 -0.08057,-0.0999 -0.08024,-0.09801 -0.08012,-0.09635 -0.08006,-0.09477"
           id="path10373"
           inkscape:connector-curvature="0" />
        <path
           style="fill:none;stroke:#000000;stroke-width:0.28222224;stroke-linecap:round;stroke-linejoin:round;stroke-miterlimit:4;stroke-dasharray:none"
           d="m 86.23294,61.714284 -0.08018,-0.09343 -0.08039,-0.09215 -0.08071,-0.09104 -0.08114,-0.08999 -0.08179,-0.08926 -0.08246,-0.08853 -0.0833,-0.08793 -0.08425,-0.0875 -0.08535,-0.08721 -0.08659,-0.08707 -0.08797,-0.08708 -0.08944,-0.08716 -0.09106,-0.08738 -0.09283,-0.08774"
           id="path10375"
           inkscape:connector-curvature="0" />
        <path
           style="fill:none;stroke:#000000;stroke-width:0.28222224;stroke-linecap:round;stroke-linejoin:round;stroke-miterlimit:4;stroke-dasharray:none"
           d="m 91.913625,58.434539 0.0022,0.0026 0.0022,0.0026 0.0022,0.0026 0.0022,0.0026 0.0022,0.0026 0.0022,0.0026 0.0022,0.0026 0.0022,0.0026 0.0022,0.0026 0.0022,0.0026 0.0022,0.0026 0.0022,0.0026 0.0022,0.0026 0.0022,0.0026"
           id="path10377"
           inkscape:connector-curvature="0" />
        <path
           style="fill:none;stroke:#000000;stroke-width:0.28222224;stroke-linecap:round;stroke-linejoin:round;stroke-miterlimit:4;stroke-dasharray:none"
           d="m 93.083501,59.959624 -0.06331,0.09775 -0.06227,0.09715 -0.06135,0.09674 -0.06034,0.0965 -0.05963,0.09632 -0.05886,0.09645 -0.05823,0.09655 -0.0578,0.09688 -0.05728,0.09739 -0.05688,0.09808 -0.05679,0.09884 -0.05651,0.09972 -0.05645,0.100832 -0.05642,0.102085"
           id="path10379"
           inkscape:connector-curvature="0" />
        <path
           style="fill:none;stroke:#000000;stroke-width:0.28222224;stroke-linecap:round;stroke-linejoin:round;stroke-miterlimit:4;stroke-dasharray:none"
           id="503"
           d="m 93.083501,59.959624 0.08782,-1.411288"
           inkscape:connector-curvature="0" />
        <path
           style="fill:none;stroke:#000000;stroke-width:0.28222224;stroke-linecap:round;stroke-linejoin:round;stroke-miterlimit:4;stroke-dasharray:none"
           d="m 93.171323,58.548336 -0.06235,0.08161 -0.06137,0.08231 -0.06042,0.08315 -0.05968,0.08422 -0.05886,0.08525 -0.0582,0.0866 -0.05781,0.08788 -0.05727,0.08941 -0.05685,0.09113 -0.05666,0.09287 -0.05645,0.09483 -0.05641,0.09689 -0.05628,0.09912 -0.05641,0.101502"
           id="path10382"
           inkscape:connector-curvature="0" />
        <path
           style="fill:none;stroke:#000000;stroke-width:0.28222224;stroke-linecap:round;stroke-linejoin:round;stroke-miterlimit:4;stroke-dasharray:none"
           d="m 92.356322,59.805113 -0.05652,0.104107 -0.05685,0.106726 -0.05713,0.109654 -0.05748,0.112632 -0.05814,0.115898 -0.05866,0.119199 -0.05934,0.122824 -0.06014,0.126636 -0.06103,0.130497 -0.06194,0.134718 -0.06302,0.13904 -0.06418,0.143634 -0.06546,0.148415 -0.06682,0.15347"
           id="path10384"
           inkscape:connector-curvature="0" />
        <path
           style="fill:none;stroke:#000000;stroke-width:0.28222224;stroke-linecap:round;stroke-linejoin:round;stroke-miterlimit:4;stroke-dasharray:none"
           id="506"
           d="m 91.421786,62.983851 0.08782,-1.411288"
           inkscape:connector-curvature="0" />
        <path
           style="fill:none;stroke:#000000;stroke-width:0.28222224;stroke-linecap:round;stroke-linejoin:round;stroke-miterlimit:4;stroke-dasharray:none"
           d="m 91.509608,61.572563 -0.153932,-0.02602 -0.151304,-0.02327 -0.148774,-0.02068 -0.146641,-0.01799 -0.144694,-0.01542 -0.142835,-0.0128 -0.141298,-0.01034 -0.140022,-0.0077 -0.138881,-0.0051 -0.138014,-0.0026 -0.137284,-1.82e-4 -0.136863,0.0023 -0.136529,0.0049 -0.136519,0.0073"
           id="path10387"
           inkscape:connector-curvature="0" />
        <path
           style="fill:none;stroke:#000000;stroke-width:0.28222224;stroke-linecap:round;stroke-linejoin:round;stroke-miterlimit:4;stroke-dasharray:none"
           d="m 89.516018,61.444963 -0.1367,0.01 -0.13706,0.01251 -0.137601,0.01513 -0.138417,0.01768 -0.139412,0.02033 -0.140683,0.02291 -0.142067,0.02567 -0.143691,0.02846 -0.145658,0.03109 -0.147695,0.034 -0.150043,0.03686 -0.152579,0.03983 -0.155374,0.04282 -0.158418,0.04585"
           id="path10389"
           inkscape:connector-curvature="0" />
        <path
           style="fill:none;stroke:#000000;stroke-width:0.28222224;stroke-linecap:round;stroke-linejoin:round;stroke-miterlimit:4;stroke-dasharray:none"
           id="509"
           d="m 87.402807,63.239374 0.08781,-1.411283"
           inkscape:connector-curvature="0" />
        <path
           style="fill:none;stroke:#000000;stroke-width:0.28222224;stroke-linecap:round;stroke-linejoin:round;stroke-miterlimit:4;stroke-dasharray:none"
           d="M 87.49062,61.828091 87.40124,61.684553 87.31338,61.54591 87.22683,61.41182 87.14154,61.282198 87.05733,61.156803 86.97411,61.035457 86.89175,60.918002 86.81004,60.804097 86.72895,60.69376 86.64832,60.586739 86.56798,60.482783 86.4879,60.381906 l -0.08,-0.09804 -0.08004,-0.09535"
           id="path10392"
           inkscape:connector-curvature="0" />
        <path
           style="fill:none;stroke:#000000;stroke-width:0.28222224;stroke-linecap:round;stroke-linejoin:round;stroke-miterlimit:4;stroke-dasharray:none"
           d="m 86.32785,60.188515 -0.0802,-0.09284 -0.0805,-0.09047 -0.08089,-0.08817 -0.0814,-0.08603 -0.08211,-0.08412 -0.08284,-0.08219 -0.08373,-0.08041 -0.08481,-0.07886 -0.08598,-0.07738 -0.08729,-0.07604 -0.08867,-0.07467 -0.09029,-0.07362 -0.09202,-0.07262 -0.09385,-0.07168"
           id="path10394"
           inkscape:connector-curvature="0" />
        <path
           style="fill:none;stroke:#000000;stroke-width:0.28222224;stroke-linecap:round;stroke-linejoin:round;stroke-miterlimit:4;stroke-dasharray:none"
           id="512"
           d="m 85.045505,60.470807 0.08776,-1.411369"
           inkscape:connector-curvature="0" />
        <path
           style="fill:none;stroke:#000000;stroke-width:0.28222224;stroke-linecap:round;stroke-linejoin:round;stroke-miterlimit:4;stroke-dasharray:none"
           d="m 85.133268,59.059438 0.06686,-0.153378 0.0654,-0.148497 0.06423,-0.143547 0.06304,-0.13905 0.06195,-0.134723 0.06103,-0.130497 0.06011,-0.126616 0.05935,-0.122829 0.05868,-0.119214 0.05807,-0.115858 0.05755,-0.112668 0.05712,-0.109649 0.05678,-0.106797 0.05658,-0.104025"
           id="path10397"
           inkscape:connector-curvature="0" />
        <path
           style="fill:none;stroke:#000000;stroke-width:0.28222224;stroke-linecap:round;stroke-linejoin:round;stroke-miterlimit:4;stroke-dasharray:none"
           d="m 85.980006,57.29209 0.05641,-0.101502 0.05632,-0.09915 0.05636,-0.09686 0.05644,-0.09482 0.0566,-0.09295 0.05692,-0.09106 0.05728,-0.08942 0.05772,-0.08794 0.05826,-0.08652 0.05891,-0.08528 0.05959,-0.08417 0.06051,-0.0832 0.06128,-0.08226 0.06235,-0.08161"
           id="path10399"
           inkscape:connector-curvature="0" />
        <path
           style="fill:none;stroke:#000000;stroke-width:0.28222224;stroke-linecap:round;stroke-linejoin:round;stroke-miterlimit:4;stroke-dasharray:none"
           d="m 86.794955,56.035343 0.158487,-0.04589 0.155313,-0.04279 0.152623,-0.03985 0.149981,-0.03683 0.147774,-0.03405 0.145529,-0.03114 0.143768,-0.02839 0.142093,-0.02569 0.140641,-0.023 0.139463,-0.02024 0.138407,-0.01767 0.137576,-0.01511 0.137103,-0.01253 0.136631,-0.0099"
           id="path10401"
           inkscape:connector-curvature="0" />
        <path
           style="fill:none;stroke:#000000;stroke-width:0.28222224;stroke-linecap:round;stroke-linejoin:round;stroke-miterlimit:4;stroke-dasharray:none"
           d="m 88.820344,55.65222 0.136468,-0.0074 0.136666,-0.0049 0.136777,-0.0023 0.13737,1.33e-4 0.137928,0.0027 0.138881,0.0051 0.140021,0.0077 0.141385,0.01029 0.142835,0.0128 0.144608,0.01547 0.146641,0.01799 0.14881,0.02055 0.151267,0.0234 0.15397,0.02588"
           id="path10403"
           inkscape:connector-curvature="0" />
        <path
           style="fill:none;stroke:#000000;stroke-width:0.28222224;stroke-linecap:round;stroke-linejoin:round;stroke-miterlimit:4;stroke-dasharray:none"
           d="m 90.813971,55.779683 0.09382,0.0717 0.09204,0.07261 0.0903,0.07361 0.08862,0.0747 0.08731,0.07603 0.086,0.07736 0.08479,0.07887 0.08372,0.08041 0.0828,0.08221 0.08215,0.08409 0.08142,0.08602 0.08083,0.0882 0.08052,0.09046 0.08026,0.09281"
           id="path10405"
           inkscape:connector-curvature="0" />
        <path
           style="fill:none;stroke:#000000;stroke-width:0.28222224;stroke-linecap:round;stroke-linejoin:round;stroke-miterlimit:4;stroke-dasharray:none"
           d="m 92.008553,56.90876 0.08001,0.09537 0.08003,0.09802 0.08007,0.100882 0.08034,0.103956 0.08062,0.107031 0.08104,0.110367 0.08179,0.11386 0.08236,0.117455 0.08322,0.121346 0.08418,0.12541 0.08525,0.129647 0.08663,0.134045 0.0878,0.138678 0.08944,0.143508"
           id="path10407"
           inkscape:connector-curvature="0" />
        <path
           style="fill:none;stroke:#000000;stroke-width:0.28222224;stroke-linecap:round;stroke-linejoin:round;stroke-miterlimit:4;stroke-dasharray:none"
           d="M 92.356322,59.805113 A 3.5,2.9023 3.5595999 0 0 92.008553,56.90876"
           id="path10409"
           inkscape:connector-curvature="0" />
        <path
           style="fill:none;stroke:#000000;stroke-width:0.28222224;stroke-linecap:round;stroke-linejoin:round;stroke-miterlimit:4;stroke-dasharray:none"
           d="m 91.209704,60.946314 a 3.5,2.9023 3.5595999 0 0 1.146618,-1.141201"
           id="path10411"
           inkscape:connector-curvature="0" />
        <path
           style="fill:none;stroke:#000000;stroke-width:0.28222224;stroke-linecap:round;stroke-linejoin:round;stroke-miterlimit:4;stroke-dasharray:none"
           d="m 89.516018,61.444963 a 3.5,2.9023 3.5595999 0 0 1.693686,-0.498649"
           id="path10413"
           inkscape:connector-curvature="0" />
        <path
           style="fill:none;stroke:#000000;stroke-width:0.28222224;stroke-linecap:round;stroke-linejoin:round;stroke-miterlimit:4;stroke-dasharray:none"
           d="m 86.32785,60.188515 a 3.5,2.9023 3.5595999 0 0 3.188168,1.256448"
           id="path10415"
           inkscape:connector-curvature="0" />
        <path
           style="fill:none;stroke:#000000;stroke-width:0.28222224;stroke-linecap:round;stroke-linejoin:round;stroke-miterlimit:4;stroke-dasharray:none"
           d="m 85.980006,57.29209 a 3.5,2.9023 3.5595999 0 0 0.347844,2.896425"
           id="path10417"
           inkscape:connector-curvature="0" />
        <path
           style="fill:none;stroke:#000000;stroke-width:0.28222224;stroke-linecap:round;stroke-linejoin:round;stroke-miterlimit:4;stroke-dasharray:none"
           d="m 88.820344,55.65222 a 3.5,2.9023 3.5595999 0 0 -2.840338,1.63987"
           id="path10419"
           inkscape:connector-curvature="0" />
        <path
           style="fill:none;stroke:#000000;stroke-width:0.28222224;stroke-linecap:round;stroke-linejoin:round;stroke-miterlimit:4;stroke-dasharray:none"
           d="M 92.008553,56.90876 A 3.5,2.9023 3.5595999 0 0 88.820344,55.65222"
           id="path10421"
           inkscape:connector-curvature="0" />
        <path
           style="fill:none;stroke:#000000;stroke-width:0.28222224;stroke-linecap:round;stroke-linejoin:round;stroke-miterlimit:4;stroke-dasharray:none"
           d="M 92.198633,64.278589 A 5.41131,4.48721 3.5595999 0 0 91.952396,56.843494"
           id="path10719"
           inkscape:connector-curvature="0" />
        <path
           style="fill:none;stroke:#000000;stroke-width:0.28222224;stroke-linecap:round;stroke-linejoin:round;stroke-miterlimit:4;stroke-dasharray:none"
           d="m 86.388192,56.608169 a 5.41131,4.48721 3.5595999 1 0 5.810441,7.67042"
           id="path10721"
           inkscape:connector-curvature="0" />
        <path
           style="fill:none;stroke:#000000;stroke-width:0.28222224;stroke-linecap:round;stroke-linejoin:round;stroke-miterlimit:4;stroke-dasharray:none"
           d="m 91.45448,60.203278 a 2.7,2.23892 3.5595999 0 0 -0.02633,-0.046"
           id="path10723"
           inkscape:connector-curvature="0" />
        <path
           style="fill:none;stroke:#000000;stroke-width:0.28222224;stroke-linecap:round;stroke-linejoin:round;stroke-miterlimit:4;stroke-dasharray:none"
           d="m 86.726265,59.864728 a 2.7,2.23892 3.5595999 0 0 -0.03183,0.04239"
           id="path10725"
           inkscape:connector-curvature="0" />
        <g
           style="fill:none;stroke:#000000;stroke-width:0.28222224;stroke-linecap:round;stroke-linejoin:round;stroke-miterlimit:4;stroke-dasharray:none"
           transform="matrix(0.99807075,0.06208678,0.06208678,-0.99807075,37.61066,66.534828)"
           id="g10727">
          <ellipse
             cx="50.9622"
             cy="11.1718"
             rx="3"
             ry="2.48768"
             id="ellipse10729"
             style="stroke-width:0.28222224;stroke-linecap:round;stroke-linejoin:round;stroke-miterlimit:4;stroke-dasharray:none" />
        </g>
        <path
           style="fill:none;stroke:#000000;stroke-width:0.28222224;stroke-linecap:round;stroke-linejoin:round;stroke-miterlimit:4;stroke-dasharray:none"
           d="m 90.79448,60.578324 a 2.8,2.32184 3.5595999 0 0 1.161359,-1.744267"
           id="path10731"
           inkscape:connector-curvature="0" />
        <path
           style="fill:none;stroke:#000000;stroke-width:0.28222224;stroke-linecap:round;stroke-linejoin:round;stroke-miterlimit:4;stroke-dasharray:none"
           d="M 91.955839,58.834057 A 2.8,2.32184 3.5595999 1 0 86.366647,58.486372"
           id="path10733"
           inkscape:connector-curvature="0" />
        <path
           style="fill:none;stroke:#000000;stroke-width:0.28222224;stroke-linecap:round;stroke-linejoin:round;stroke-miterlimit:4;stroke-dasharray:none"
           d="m 86.366647,58.486372 a 2.8,2.32184 3.5595999 0 0 4.427833,2.091952"
           id="path10735"
           inkscape:connector-curvature="0" />
        <path
           style="fill:none;stroke:#000000;stroke-width:0.28222224;stroke-linecap:round;stroke-linejoin:round;stroke-miterlimit:4;stroke-dasharray:none"
           d="M 91.950327,58.92211 A 2.8,2.32184 3.5595999 1 0 86.361135,58.574425"
           id="path10737"
           inkscape:connector-curvature="0" />
        <path
           style="fill:none;stroke:#000000;stroke-width:0.28222224;stroke-linecap:round;stroke-linejoin:round;stroke-miterlimit:4;stroke-dasharray:none"
           d="M 91.319528,60.180733 A 2.7,2.23892 3.5595999 1 0 86.831132,59.901524"
           id="path10739"
           inkscape:connector-curvature="0" />
      </g>
    </g>
  </g>
</svg>
