<?xml version="1.0" encoding="UTF-8" standalone="no"?>
<svg
   width="48"
   height="48"
   version="1.2"
   viewBox="0 0 127 127"
   id="svg2"
   xmlns="http://www.w3.org/2000/svg"
   xmlns:svg="http://www.w3.org/2000/svg"
   xmlns:rdf="http://www.w3.org/1999/02/22-rdf-syntax-ns#"
   xmlns:cc="http://creativecommons.org/ns#"
   xmlns:dc="http://purl.org/dc/elements/1.1/">
  <defs
     id="defs2" />
  <title
     id="title1">GN505</title>
  <desc
     id="desc1">Drawing page: Page exported from FreeCAD document: Unnamed</desc>
  <path
     transform="scale(2.65)"
     d="m32.9 5.54c-0.0154 0.00549-1.04 0.594-2.28 1.31l-2.25 1.3 0.652 0.379c0.359 0.209 0.669 0.375 0.688 0.369 0.0182-0.00581 0.895-0.509 1.95-1.12l1.92-1.11-0.084-0.146c-0.357-0.638-0.571-0.993-0.596-0.984zm-8.94 0.465c-0.0772 0-8.55 4.93-8.9 5.17-1.91 1.35-2.84 3.25-2.41 4.92 0.296 1.16 1.17 2.34 2.37 3.19 0.236 0.167 2.34 1.41 4.68 2.76 3.73 2.15 4.27 2.45 4.38 2.39 0.657-0.346 8.37-4.83 8.72-5.08 0.257-0.175 0.71-0.557 1.01-0.85 2.37-2.32 1.99-5.24-0.949-7.33-0.349-0.248-8.82-5.17-8.9-5.17zm10.6 0.484c-0.0414 0.0159-4.47 2.58-4.5 2.6-0.00904 0.00859 0.278 0.186 0.639 0.395 0.361 0.208 0.663 0.375 0.67 0.371 0.07-0.0364 3.84-2.21 3.85-2.22 0.0101-0.00876-0.127-0.272-0.307-0.584-0.234-0.407-0.335-0.563-0.357-0.555zm1.63 0.945c-0.00518 7.26e-4 -0.0104 0.00253-0.0156 0.00586-0.0246 0.0155-0.979 0.568-2.12 1.23s-2.15 1.24-2.23 1.29l-0.15 0.0879 0.434 0.254c0.239 0.139 0.531 0.315 0.648 0.391l0.213 0.139 1.6-0.926c0.881-0.509 1.76-1.02 1.95-1.13 0.192-0.111 0.347-0.212 0.344-0.225-0.00346-0.013-0.15-0.273-0.326-0.578-0.264-0.459-0.313-0.538-0.35-0.533zm1.64 0.947c-0.00532 0.00117-0.00994 0.00424-0.0156 0.00781-0.0464 0.0292-4.45 2.57-4.53 2.61-0.0327 0.0178 0.00146 0.0541 0.221 0.23 0.143 0.115 0.379 0.324 0.523 0.465l0.262 0.256 0.367-0.211c2.93-1.69 3.85-2.22 3.85-2.24 0-0.0101-0.145-0.271-0.322-0.58-0.273-0.474-0.316-0.547-0.354-0.539zm1.66 0.941c-0.0141 0.00314-4.96 2.85-4.97 2.87-0.00232 0.00202 0.0632 0.088 0.145 0.191 0.177 0.226 0.361 0.5 0.492 0.734 0.0528 0.0945 0.107 0.167 0.121 0.162 0.0391-0.015 4.86-2.8 4.87-2.82 0.0175-0.0185-0.633-1.14-0.658-1.14zm1.62 0.957c-0.0169 0-5.68 3.27-5.71 3.29-0.0102 0.00957 0.016 0.111 0.0586 0.225 0.0914 0.244 0.177 0.579 0.213 0.826 0.014 0.0972 0.0297 0.199 0.0352 0.227 0.00548 0.0274 0.0163 0.0488 0.0234 0.0488 0.00712 0 1.36-0.775 3-1.72l2.99-1.73-0.209-0.4c-0.115-0.22-0.25-0.484-0.301-0.584-0.0508-0.1-0.0996-0.182-0.107-0.182zm1.47 1.04c-0.00231-0.00316-1.55 0.884-3.43 1.97l-3.42 1.98-0.00586 0.764c-0.0032 0.42-0.00225 0.764 0.00195 0.764 0.0119 0 7.36-4.24 7.38-4.26 0.00843-0.00824-0.0403-0.139-0.107-0.291-0.125-0.283-0.409-0.914-0.416-0.924zm-18.6 0.0977c0.953 0 1.35 0.0291 2 0.143 1.98 0.344 3.68 1.17 4.54 2.21 0.52 0.625 0.744 1.21 0.744 1.94 0 1.9-2.03 3.5-5.16 4.08-1.22 0.226-3.13 0.215-4.39-0.0273-1.94-0.372-3.58-1.23-4.39-2.31-0.406-0.539-0.568-0.97-0.605-1.61-0.0985-1.67 1.26-3.09 3.73-3.9 1.14-0.375 2.12-0.52 3.53-0.52zm0.0117 0.334c-4.73 0.00318-8.1 2.66-6.59 5.18 0.275 0.457 1 1.13 1.59 1.48 0.954 0.559 2.39 1 3.71 1.15 0.721 0.0815 2.47 0.0326 3.15-0.0879 1.79-0.315 3.13-0.908 4.05-1.79 0.529-0.503 0.809-0.945 0.949-1.49 0.32-1.26-0.53-2.54-2.27-3.43-1.31-0.667-2.89-1.02-4.6-1.02zm19.9 0.73c-0.0077-0.00857-1.84 1.04-4.08 2.33l-4.06 2.35-0.00586 0.77c-0.00319 0.423 4.66e-4 0.765 0.00977 0.76 0.00927-0.00565 1.94-1.12 4.29-2.48 2.35-1.36 4.28-2.48 4.29-2.49 0.0102-0.0097-0.028-0.144-0.084-0.299-0.149-0.412-0.347-0.925-0.363-0.943zm1.1 1.24c-0.00853 0-2.05 1.18-4.54 2.61-2.49 1.44-4.57 2.64-4.62 2.67l-0.0938 0.0527v0.332c-1.8e-4 0.309-0.0233 0.761-0.0566 1.09-0.0077 0.076-0.00865 0.139-0.00195 0.139 0.0111 0 9.69-5.59 9.71-5.6 0.00872-0.00809-0.0129-0.0862-0.232-0.811-0.0801-0.264-0.154-0.48-0.162-0.48zm0.914 1.4c-0.098 0.0124-0.739 0.382-5.42 3.08-4.75 2.74-5.42 3.14-5.44 3.2-0.316 0.809-0.732 1.53-1.2 2.09-0.0586 0.0704-0.102 0.127-0.0977 0.127 0.0134 0 12.4-7.16 12.4-7.18 0.0161-0.0148-0.198-1.05-0.27-1.3-0.00199-0.00707-0.00553-0.0135-0.0195-0.0117zm-33.4 1.7 0.00977 1.55c0.00728 1.18 0.0181 1.63 0.0449 1.91 0.0193 0.201 0.0349 0.368 0.0352 0.371 2.6e-4 0.00347 0.0195-5e-3 0.043-0.0176 0.0586-0.0313 0.162-0.0282 0.209 0.00586 0.0256 0.0187 0.0557 0.113 0.0918 0.281 0.0932 0.434 0.302 1.26 0.316 1.25 0.00761-0.00424 0.0967-0.0557 0.197-0.113 0.18-0.103 0.228-0.113 0.309-0.0605 0.0155 0.0101 0.111 0.237 0.213 0.504 0.102 0.266 0.228 0.586 0.279 0.711l0.0938 0.227 0.0684-0.041c0.492-0.294 0.545-0.317 0.633-0.27 0.0224 0.012 0.135 0.204 0.25 0.426 0.227 0.436 0.469 0.877 0.5 0.908 0.0109 0.0109 0.169-0.0678 0.365-0.182 0.207-0.12 0.372-0.201 0.408-0.201 0.0348 0 0.0779 0.0202 0.104 0.0488 0.0245 0.0273 0.207 0.33 0.404 0.674 0.198 0.343 0.364 0.625 0.369 0.625 0.00543 0 0.165-0.0898 0.354-0.199 0.342-0.198 0.426-0.226 0.498-0.17 0.0193 0.0152 0.201 0.316 0.404 0.668 0.203 0.352 0.373 0.643 0.377 0.646 0.00362 0.00375 0.161-0.0833 0.352-0.193 0.363-0.21 0.459-0.238 0.525-0.16 0.0183 0.0213 0.189 0.312 0.381 0.646 0.192 0.334 0.358 0.618 0.369 0.633 0.0149 0.0189 0.114-0.0272 0.361-0.17 0.187-0.108 0.363-0.204 0.393-0.211 0.0376-0.00943 0.0706 0.00278 0.111 0.0391 0.0317 0.0282 0.198 0.294 0.369 0.592 0.172 0.298 0.338 0.584 0.367 0.635l0.0527 0.0918 0.361-0.207c0.198-0.115 0.377-0.209 0.398-0.209 0.0822 0 0.126 0.058 0.391 0.518 0.151 0.262 0.276 0.477 0.279 0.477s0.00614-0.912 0.00586-2.03v-2.03l-0.613-0.354c-4.06-2.34-7.8-4.5-8.07-4.69-1.2-0.797-2.07-1.74-2.52-2.75l-0.0859-0.189zm33.6 0.0156-30.2 17.4v2.97l-0.00195 2.97 1.95 1.13c1.07 0.624 1.95 1.14 1.96 1.14 0.0249 0.0283 21.3-12.3 21.4-12.4 0.172-0.173 2.48-3.62 3.88-5.81l1.08-1.68-0.0176-2.89-0.0156-2.89zm-10.8 0.127-0.213 0.395c-0.446 0.827-1.28 1.7-2.23 2.33-0.289 0.193-2.39 1.43-4.67 2.74l-4.14 2.39v2.15 2.15l0.141-0.0742c0.429-0.226 7.88-4.54 8.16-4.73 0.896-0.592 1.69-1.63 2.25-2.96 0.0935-0.22 0.184-0.327 0.367-0.42l0.244-0.123 0.041-0.482c0.0224-0.265 0.0398-1.13 0.0391-1.93v-1.44zm-23.2 0.512-4.73 2.73c-2.6 1.5-4.87 2.81-5.04 2.91-0.293 0.169-0.313 0.185-0.301 0.236 0.0268 0.112 0.317 1.21 0.328 1.23 0.00607 0.0165 0.022 0.0236 0.0371 0.0176 0.043-0.0171 9.68-5.58 9.7-5.6 0.00925-0.00913 0.0149-0.356 0.0117-0.771l-0.00586-0.754zm-0.00195 1.9c-0.00674 0-5.34 3.07-8.63 4.98-0.302 0.175-0.504 0.304-0.504 0.324-2.52e-4 0.0184 0.0924 0.305 0.205 0.637 0.158 0.464 0.213 0.602 0.238 0.596 0.0182-0.00473 1.58-0.903 3.47-1.99 1.89-1.09 3.87-2.23 4.39-2.54 0.85-0.491 0.953-0.557 0.943-0.6-0.0131-0.059-0.0709-0.796-0.0898-1.15-0.00775-0.143-0.0167-0.26-0.0215-0.26zm0.447 1.64c-0.00645-0.00645-8.41 4.83-8.45 4.87-0.0112 0.00914 0.0785 0.242 0.312 0.807 0.16 0.385 0.186 0.433 0.221 0.414 0.0699-0.0374 8.16-4.71 8.21-4.74l0.0469-0.0293-0.0859-0.328c-0.047-0.18-0.12-0.475-0.162-0.656-0.0421-0.181-0.0812-0.333-0.0859-0.338zm0.945 1.35c-0.00599-0.00677-8.05 4.63-8.08 4.66-0.01 0.00873 0.11 0.28 0.268 0.604 0.158 0.324 0.294 0.59 0.301 0.59 0.0107 0 7.74-4.46 7.94-4.58l0.0703-0.043-0.0723-0.17c-0.04-0.0936-0.152-0.37-0.246-0.613-0.0944-0.243-0.174-0.444-0.178-0.447zm1.33 1.13c-0.00248-0.00355-1.79 1.02-3.97 2.29l-3.97 2.29 0.0918 0.168c0.05 0.0922 0.194 0.353 0.322 0.58l0.232 0.412 0.18-0.105c0.0987-0.058 1.85-1.07 3.9-2.25 2.05-1.18 3.75-2.17 3.78-2.19l0.0586-0.0371-0.0996-0.176c-0.055-0.0972-0.196-0.355-0.312-0.574-0.116-0.219-0.212-0.401-0.215-0.404zm-13.1 0.041c-0.03-0.0332-0.0527 1.29-0.0527 3v3.06l0.32 0.559c0.504 0.884 0.966 1.49 1.77 2.33 0.856 0.889 1.74 1.62 2.78 2.3 0.395 0.258 2.56 1.53 4.81 2.84 2.25 1.3 4.11 2.37 4.14 2.37 0.0258 0.0017 0.0469-1.28 0.0469-2.86v-2.86l-0.289-0.5c-0.159-0.274-0.327-0.56-0.375-0.637l-0.0859-0.139-0.316 0.186c-0.461 0.272-0.514 0.255-0.814-0.268-0.144-0.249-0.315-0.546-0.383-0.658l-0.123-0.203-0.33 0.188c-0.181 0.104-0.374 0.189-0.43 0.189-0.062 0-0.249-0.253-0.484-0.656-0.211-0.361-0.392-0.656-0.404-0.656-0.0119 0-0.168 0.0866-0.346 0.191-0.178 0.105-0.368 0.181-0.424 0.17-0.0558-0.0107-0.261-0.294-0.455-0.631-0.194-0.337-0.367-0.629-0.385-0.646-0.018-0.018-0.205 0.0612-0.416 0.176l-0.383 0.209-0.115-0.141c-0.0638-0.077-0.252-0.379-0.416-0.672-0.164-0.293-0.319-0.531-0.346-0.531-0.0267 0-0.198 0.0866-0.379 0.193-0.236 0.139-0.355 0.179-0.424 0.137-0.0525-0.0324-0.243-0.323-0.422-0.646-0.179-0.323-0.355-0.597-0.391-0.609-0.0361-0.012-0.195 0.0528-0.352 0.145-0.157 0.0917-0.323 0.151-0.371 0.133-0.0482-0.0185-0.233-0.324-0.41-0.678-0.177-0.354-0.33-0.653-0.342-0.666-0.0117-0.0128-0.153 0.0527-0.312 0.146-0.367 0.215-0.382 0.203-0.73-0.662l-0.266-0.658-0.188 0.113c-0.382 0.233-0.435 0.188-0.691-0.588-0.128-0.387-0.239-0.712-0.248-0.723-0.0093-0.0111-0.108 0.0268-0.219 0.084-0.274 0.142-0.317 0.0813-0.529-0.721-0.0955-0.361-0.199-0.682-0.229-0.715zm14.7 0.926c-0.00729-1.98e-4 -1.7 0.974-3.76 2.16-2.06 1.19-3.84 2.21-3.95 2.28-0.113 0.065-0.201 0.129-0.197 0.143 0.00358 0.0138 0.149 0.274 0.324 0.578l0.318 0.553 3.96-2.29c2.18-1.26 3.96-2.29 3.96-2.29 0.00867-0.00838-0.646-1.14-0.66-1.14zm1.64 0.951c-0.0175 0-7.87 4.52-7.9 4.55-0.0104 0.0094 0.127 0.273 0.307 0.584 0.2 0.346 0.339 0.561 0.355 0.555 0.0265-0.0102 7.88-4.54 7.89-4.55 0.0115-0.0109-0.64-1.14-0.658-1.14zm1.65 0.932-0.0664 0.0391c-0.0365 0.022-1.81 1.05-3.95 2.28s-3.89 2.24-3.89 2.25c-0.00927 0.00832 0.129 0.27 0.309 0.582 0.179 0.312 0.331 0.568 0.336 0.568 0.0325 0.00165 7.91-4.57 7.91-4.59-0.00318-0.0126-0.15-0.273-0.326-0.578l-0.32-0.555zm1.64 0.947-0.0684 0.041c-0.0378 0.0227-1.81 1.05-3.95 2.28-2.13 1.23-3.88 2.24-3.89 2.25-0.0112 0.0104 0.491 0.905 0.631 1.12 0.0139 0.0219 0.045 0.0139 0.133-0.0371 0.0628-0.0365 1.84-1.06 3.95-2.28s3.84-2.22 3.84-2.23c1.84e-4 -0.0103-0.146-0.271-0.324-0.58l-0.324-0.561zm1.62 0.965c-0.015 0.00347-7.41 4.26-7.89 4.55-0.0079 0.00464 0.134 0.268 0.316 0.584l0.332 0.574 0.0703-0.041c0.0381-0.023 1.81-1.05 3.95-2.28 2.13-1.23 3.88-2.24 3.89-2.25 0.0201-0.0191-0.637-1.14-0.664-1.14z"
     fill="#ffaf00"
     stroke="#000000"
     stroke-width=".0625"
     id="path2"
     style="stroke-width:0.06290094;stroke-dasharray:none" />
  <path
     d="m32.8 50.5v-10.2m61.4 10.2v-10.2m-45.9 26.3-21.7 12.5m26-10-21.7 12.5m26-10-21.7 12.5m26-10-21.7 12.5m4.34-22.5-21.7 12.5m17.4 10 2.17 3.76m-4.34-2.5 2.17-1.25m-4.34-2.5 2.17 3.76m-4.34-2.5 2.17-1.25m-4.34-2.5 2.17 3.76m-4.34-2.5 2.17-1.25m-4.34-2.5 2.17 3.76m-4.34-2.5 2.17-1.25m-4.34-2.5 2.17 3.76m-4.34-2.5 2.17-1.25m22.4-35.2c0 2.89 1.99 5.66 5.52 7.7m32.2-7.7c0-6.01-8.44-10.9-18.9-10.9s-18.9 4.87-18.9 10.9m5.52 7.7c5.39 3.11 13.5 4.05 20.6 2.36 7.05-1.69 11.6-5.65 11.6-10.1m-36.2 26.4-2.17-3.76m6.51 6.26-2.17-3.76m6.51 6.26-2.17-3.76m6.51 6.26-2.17-3.76m6.51 6.26-2.17-3.76m51.6-44.8-18.7 10.8m22.2-7.79-22.2 12.8m25.1-9.51-25.1 14.5m27.6-10.9-29.3 16.9m-29 21.7v-12.5m45.5-38.8-15.9 9.16m29.6 7.94c-0.301-1.47-0.634-2.95-0.998-4.43m-1.15 0.664c-0.403-1.42-0.834-2.84-1.29-4.26m-1.42 0.822c-0.492-1.37-1.01-2.75-1.55-4.12m-1.67 0.963c-0.573-1.33-1.17-2.66-1.78-3.98m-1.9 1.09c-0.649-1.29-1.32-2.58-2.01-3.85m0.445 53.6c3.85-5.54 8.2-12.1 13.3-20.2m-81 30.5 21.7-12.5m21.7-12.5-21.7 12.5m21.7-12.5 21.7-12.5m0 0 15.9-9.17m0 16.3v-16.3m-70.1 69.3-10.8-6.26m-21.7-12.5 21.7 12.5m0 0v-16.3m-8.98-39.9-25.1 14.5m26.2-10.1-23.2 13.4m25.7-9.8-22.2 12.8m25.6-9.8-21.7 12.6m21.7-12.6c0.649 1.29 1.34 2.56 2.06 3.82m-5.51-6.84c0.489 1.37 1.03 2.73 1.61 4.08m-4.04-7.69c0.297 1.45 0.655 2.91 1.07 4.39m-2.12-8.8c0.0138 1.57 0.116 3.18 0.307 4.83m30.4 10 21.7-12.5m-43.4 0 21.7 12.5m-30.7-25c0-4.7 3.23-9.2 8.99-12.5m0 25c-5.75-3.32-8.99-7.83-8.99-12.5m61 15c0.205-1.54 0.308-3.15 0.308-4.83m-8.99 14.9c3.26-1.88 5.77-5.06 7.29-9.22m1.7-15.8c0 4.7-3.23 9.2-8.99 12.5m0-25c5.75 3.32 8.99 7.83 8.99 12.5m10.5-16.3 2.17 3.76m-2.17-3.76-14 8.09m9.68-10.6 2.17 3.76m-2.17-3.76-13.1 7.58m8.79-10.1 2.17 3.76m-2.17-3.76-13 7.51m8.68-10 2.17 3.76m-2.17-3.76-13 7.51m30.8 56.1-56.8 32.8m-34.7-38.9c0.686 1.27 1.39 2.54 2.12 3.79m0 16.3c-7.62-4.4-13.1-9.87-15.9-15.9m0.998-16.9c0.354 1.44 0.738 2.89 1.15 4.35m0 0 1.29-0.746m0 0c0.449 1.4 0.923 2.79 1.42 4.19m0 0 1.55-0.894m0 0c0.533 1.35 1.09 2.7 1.67 4.05m0 0 1.78-1.03m0 0c0.611 1.31 1.24 2.62 1.9 3.92m0 0 2.01-1.16m-13.8-12.1 0.998-0.576m27.6-15.9-27.6 15.9m36.6-33.6 21.7-12.5m0 0 21.7 12.5m2.17-13.8 2.17 3.76m-85.3 60.5v-16.3m83.1-48-13 7.51m17.4-5.01 2.17 3.76-10.8 6.26-4.34-2.5 13-7.51m-4.34-2.5-13 7.51 4.34 2.5 10.8-6.26-2.17-3.76m8.68 5.01 2.17 3.76-11 6.32c-0.648-0.458-1.34-0.897-2.06-1.32l-2.17-1.25 13-7.51m4.34 2.5 2.17 3.76-11.8 6.84c-0.968-1.07-2.12-2.08-3.45-3.02l13.1-7.58m4.34 2.5 2.17 3.76-13.8 7.94c-0.58-1.25-1.4-2.46-2.43-3.61l14-8.09m6.29 6.39c-0.649-1.29-1.32-2.58-2.01-3.85l-15.9 9.16c0.667 1.44 1.02 2.92 1.04 4.41l16.8-9.72m3.68 2.89c-0.573-1.33-1.17-2.66-1.78-3.98l-18.7 10.8v0.177 4.83l20.5-11.8m-59.9 39.6-2.17-3.76-21.7 12.5 2.17 3.76 21.7-12.5m-13 17.5 21.7-12.5-2.17-3.76-21.7 12.5 2.17 3.76m8.68-20-2.17-3.76-21.7 12.5 2.17 3.76 21.7-12.5m-4.34-2.5-2.17-3.76-21.7 12.5 2.17 3.76 21.7-12.5m13 7.51-2.17-3.76-21.7 12.5 2.17 3.76 21.7-12.5m-19.4-13.8-21.7 12.6c0.686 1.27 1.39 2.54 2.12 3.79l21.7-12.5c-0.725-1.26-1.41-2.53-2.06-3.82m-3.45-3.02-22.2 12.8c0.611 1.31 1.24 2.62 1.9 3.92l21.9-12.7c-0.583-1.36-1.12-2.72-1.61-4.08m-2.43-3.61-23.2 13.4c0.533 1.35 1.09 2.7 1.67 4.05l22.6-13.1c-0.419-1.48-0.777-2.94-1.07-4.39m84-18.5c-0.492-1.37-1.01-2.75-1.55-4.12l-22.2 12.8v5.01l23.7-13.7m-85.1 14.1-25.1 14.5c0.449 1.4 0.923 2.79 1.42 4.19l24-13.9c-0.191-1.65-0.293-3.26-0.307-4.83m87.8-10.6-26.7 15.4c0.205-1.54 0.308-3.15 0.308-4.83v-0.356l25.1-14.5c0.458 1.42 0.888 2.85 1.29 4.26m-35.4 25.5c3.26-1.88 5.77-5.06 7.29-9.22l29.3-16.9c0.364 1.49 0.697 2.96 0.998 4.43l-37.6 21.7"
     fill="none"
     stroke="#000000"
     stroke-linecap="round"
     stroke-linejoin="bevel"
     stroke-width=".767"
     id="path1"
     style="stroke-width:2.64583333;stroke-dasharray:none" />
  <metadata
     id="metadata3">
    <rdf:RDF>
      <cc:Work
         rdf:about="">
        <dc:title>GN505</dc:title>
      </cc:Work>
    </rdf:RDF>
  </metadata>
</svg>
