<svg version="1.1" viewBox="0 0 48 48" xmlns="http://www.w3.org/2000/svg">
 <title>GN 506</title>
 <path d="m28.159 4.988c-0.32153 0.082493-0.22096 0.051558-0.33115 0.077337l-1.0733 1.0657-3.3812-1.119c-0.24552 0.072673-0.22146 0.05254-0.33113 0.078565l-20.869 20.731 0.22838 0.22956h-0.32353c0 4.0727 0.94507 7.4713 2.8508 10.163 1.9058 2.6912 4.7635 4.6622 8.5348 5.9111 2.0768 0.68756 3.8832 0.97803 5.4289 0.85513 1.5457-0.123 2.8349-0.67053 3.8126-1.6418 0.0074-0.0074 0.01228-0.01964 0.0221-0.02799l0.0013 0.0013 20.843-20.708 0.0024 0.0024c5e-3 -5e-3 0.0098-0.01473 0.01473-0.01964l0.0074-0.0074-0.0013-0.0013c1.5785-1.5879 2.3281-4.2222 2.3281-7.8636-0.16523-0.19838-0.14755-0.205-0.22195-0.30832l-4.5624-1.511v-1.3728c-0.24232-0.21311-0.14927-0.20599-0.22342-0.30832z" color="#000000" fill="#ffaf00" style="-inkscape-stroke:none"/>
 <path d="m22.498 41.082 20.869-20.734m-16.106 2.6353a7.7337 4.4359 2.8e-5 0 0-12.757-4.2247m10.4 6.5687q0.60397-0.52049 1.1785-1.0925 0.5745-0.5696 1.1785-1.2521m-2.5e-5 1.96e-4 13.552-13.462m-28.666 11.581c0.8102-0.69972 1.5467-1.4289 2.3569-2.3422m2.46e-4 7.3e-5 13.552-13.464m-8.1121 24.957 4.9596-4.9252m-12.758-4.2259a7.7337 4.4359 2.8e-5 0 0 12.757 4.2247m-17.716 0.70085 4.959-4.9246m7.7977 10.758 20.869-20.731m-13.972-4.6277-3.5702-1.181m17.542 5.8087 4.7849 1.5837m-4.7849-3.1915v1.6078m-12.757-5.8333 12.757 4.2256m-27.146 12.894a6.0366 3.4624 2.8e-5 0 0 11.264 1.7312m0.80873-1.7312a6.0366 3.4624 2.8e-5 0 0-12.073-2.4e-5m11.264 1.7312a6.0366 3.4624 2.8e-5 0 0 0.80873-1.7312m-5.796 7.8369v1.6078l4.7849 1.5863m-17.542-5.8086-4.7855-1.5863m4.7855-0.02456v1.611m12.757 2.6146-12.757-4.2256m-4.7855 0.024552 20.869-20.731m-20.869 20.731q0 12.068 11.164 15.765m11.163-8.3696 20.869-20.734m2.21e-4 -4.8e-5q0 5.4234-2.2538 7.6625m-20.869 20.732q-2.762 2.7439-8.9097 0.70856m11.164-8.3696q0 5.4217-2.2538 7.6611" fill="none" stroke="#000000" stroke-width=".81849"/>
</svg>
