<?xml version="1.0" encoding="UTF-8"?>
<svg width="48" height="48" version="1.2" viewBox="0 0 127 127" xmlns="http://www.w3.org/2000/svg">
 <g transform="translate(-1374,-970)" fill="#ffaf00" stroke-width=".113">
  <path d="m1421 991-45.3 45-0.045 10.2 9.79 12.5s58.4 19.6 58.6 19.5c0.232-0.051 10-6.05 10-6.05s44.9-45 44.9-45l-0.01-10.2-19.2-6.5-0.01-8.32-39.2-13-6.56 6.25z"/>
 </g>
 <g id="e" transform="matrix(.566 0 0 .566 -777 -531)" fill="none" fill-rule="evenodd" stroke="#000000" stroke-linecap="round" stroke-linejoin="bevel" stroke-width="2.5">
  <path d="m1480 1074 79.6-79.1-69.3-23-79.3 79 69 23"/>
  <path d="m1514 1100 79.5-78.9-33.9-11.5-79.6 79.2 34 11.2"/>
  <path d="m1511 1031c2.21-2.74 3.12-5.82 2.55-8.81-0.503-2.68-2.19-5.28-4.9-7.47-4.62-3.8-12.4-6.26-20.4-6.32-7.97-0.637-16.4 1.17-21.6 4.65-3.22 2.09-5.32 4.73-5.95 7.5-0.934 2.15-0.961 4.44-0.102 6.62l0.35 0.789c0.508 1.03 1.2 2.01 2.08 2.96 0.332 0.358 0.688 0.708 1.07 1.05 1.35 1.21 2.97 2.29 4.85 3.25 0.79 0.401 1.62 0.776 2.48 1.12l0.216 0.086c6.08 2.41 13.9 3.34 21.2 2.6 0.451-0.03 1-0.091 1.65-0.183 2.78-0.39 6.27-1.32 9.11-2.59 2.19-0.961 4.13-2.14 5.55-3.31 0.882-0.722 1.57-1.46 1.91-1.94"/>
  <path d="m1460 1027c0.516-2.96 3.09-5.79 7.15-7.79 4.03-2.01 9.5-3.17 15.2-3.15 5.68 0 11.5 1.19 16.2 3.37 4.69 2.16 8.18 5.29 9.68 8.74 0.44-1.01 0.716-2.03 0.826-3.07-0.269-2.56-1.58-5.08-3.79-7.28-2.2-2.2-5.27-4.08-8.86-5.43-8.64-2.59-19.1-2.61-27.2-0.23-4.96 1.91-8.3 4.95-9.11 8.21-0.934 2.15-0.961 4.44-0.102 6.62"/>
  <path d="m1506 1032c0.766-0.843 1.4-1.72 1.91-2.63-1.96-3.55-6.07-6.66-11.3-8.62-8.64-2.59-19.1-2.61-27.2-0.23-4.56 1.76-7.77 4.47-8.86 7.43 0.508 1.03 1.2 2.01 2.08 2.96 1.92-2.01 4.91-3.72 8.55-4.87s7.93-1.72 12.3-1.61c4.35 0.102 8.76 0.886 12.6 2.28 3.86 1.39 7.17 3.38 9.47 5.73l0.417-0.442"/>
  <path d="m1500 1037c1.75-0.906 3.28-1.93 4.6-3.07-2.09-1.81-4.8-3.36-7.89-4.53-8.64-2.59-19.1-2.61-27.2-0.23-2.29 0.89-4.19 1.97-5.72 3.25 1.35 1.21 2.97 2.29 4.85 3.25 4.26-1.84 9.85-2.79 15.5-2.57 5.66 0.206 11.4 1.59 15.8 3.9"/>
  <path d="m1460 1027 0.35 0.789c1.1-2.97 4.3-5.68 8.86-7.43 3.77-1.47 8.44-2.27 13.2-2.24 4.8 0.02 9.71 0.877 13.9 2.47 5.24 1.96 9.35 5.06 11.3 8.62 0.188-0.338 0.358-0.679 0.508-1.02-1.5-3.46-4.99-6.59-9.68-8.74-4.67-2.17-10.5-3.36-16.2-3.37-5.68-0.023-11.2 1.14-15.2 3.15-4.05 2-6.63 4.83-7.15 7.79"/>
  <path d="m1511 1031-4.89 1.23 0.208-0.221c0.766-0.843 1.4-1.72 1.91-2.63 0.188-0.338 0.358-0.679 0.508-1.02 0.44-1.01 0.716-2.03 0.826-3.07 0.036-0.341 0.054-0.682 0.054-1.02 0.017-3.7-2.19-7.38-6.1-10.2-3.88-2.87-9.41-4.88-15.3-5.62 7.99 0.06 15.8 2.52 20.4 6.32 2.7 2.19 4.4 4.79 4.9 7.47 0.573 2.99-0.333 6.07-2.55 8.81"/>
  <path d="m1505 1034c0.384-0.333 0.747-0.674 1.09-1.02-2.3-2.35-5.61-4.34-9.47-5.73s-8.27-2.18-12.6-2.28c-4.35-0.108-8.64 0.465-12.3 1.61-3.65 1.14-6.63 2.85-8.55 4.87 0.332 0.358 0.688 0.708 1.07 1.05 1.53-1.28 3.43-2.36 5.72-3.25 3.77-1.47 8.44-2.27 13.2-2.24 4.8 0.021 9.71 0.877 13.9 2.47 3.09 1.16 5.8 2.71 7.89 4.53"/>
  <path d="m1509 1028c0.036-0.341 0.456-1.85 0.456-2.19 0.017-3.7-1.68-7.96-5.59-10.8-3.88-2.87-9.41-4.88-15.3-5.62-7.97-0.637-16.4 1.17-21.6 4.65-3.22 2.09-5.32 4.73-5.95 7.5 0.803-3.26 4.14-6.3 9.11-8.21 3.77-1.47 8.44-2.27 13.2-2.24 4.8 0.02 9.71 0.877 13.9 2.47 3.59 1.35 6.67 3.23 8.86 5.43 2.2 2.2 2.61 5.3 2.88 7.86"/>
  <path d="m1493 1039c0.451-0.03 1-0.091 1.65-0.183 1.24-0.367 2.44-0.791 3.58-1.27l-1.09-0.434c-8.01-2.39-17.5-2.61-25.3-0.711 6.08 2.41 13.9 3.34 21.2 2.6"/>
  <path d="m1471 1036c7.44-2.44 17.7-2.22 25.5 0.797l1.09 0.434c0.759-0.319 1.49-0.66 2.19-1.02-4.45-2.31-10.1-3.69-15.8-3.9-5.66-0.224-11.3 0.725-15.5 2.57 0.79 0.401 1.62 0.776 2.48 1.12"/>
  <path d="m1511 1031-4.89 1.23 0.208-0.221-0.417 0.442c-0.342 0.35-0.705 0.691-1.09 1.02-1.32 1.14-2.85 2.17-4.6 3.07-0.704 0.364-1.43 0.706-2.19 1.02-1.14 0.48-2.34 0.903-3.58 1.27 2.78-0.39 6.27-1.32 9.11-2.59 2.19-0.961 4.13-2.14 5.55-3.31 0.882-0.722 1.57-1.46 1.91-1.94"/>
  <path d="m1497 1013c-8.64-2.59-19.1-2.61-27.2-0.23 3.77-1.47 8.44-2.27 13.2-2.24 4.8 0.02 9.71 0.877 13.9 2.47"/>
  <path d="m1497 1021c-8.64-2.59-19.1-2.61-27.2-0.23 3.77-1.47 8.44-2.27 13.2-2.24 4.8 0.02 9.71 0.877 13.9 2.47"/>
  <path d="m1497 1029c-8.64-2.59-19.1-2.61-27.2-0.23 3.77-1.47 8.44-2.27 13.2-2.24 4.8 0.02 9.71 0.877 13.9 2.47"/>
  <path d="m1471 1036c7.44-2.44 17.7-2.22 25.5 0.797-8.01-2.39-17.5-2.61-25.3-0.711l-0.216-0.086"/>
  <path d="m1514 1100 79.5-78.9"/>
  <path d="m1514 1118-0.01-18"/>
  <path d="m1411 1066-35.3-11.5"/>
  <path d="m1376 1073 17.3 22.1"/>
  <path d="m1560 1010-0.015-14.7"/>
  <path d="m1511 1031c2.21-2.74 3.12-5.82 2.55-8.81-0.503-2.68-2.19-5.28-4.9-7.47-4.62-3.8-12.4-6.26-20.4-6.32"/>
  <path d="m1493 1039c-17.8 0.894-36.7-3.61-32.9-18.6"/>
  <path d="m1509 1033c0.882-0.722 1.57-1.46 1.91-1.94"/>
  <path d="m1506 1032c2.16-2.36 3.31-5.05 3.3-7.75"/>
  <path d="m1509 1024c0.017-3.7-1.49-7.63-5.4-10.4-3.88-2.87-9.79-4.61-15.7-5.35"/>
  <path d="m1511 1031-4.69 1.01"/>
  <path d="m1509 1026c-0.382-3.78-2.57-7.64-6.93-10.4-4.33-2.73-10.3-4.49-16.3-4.91-6.03-0.442-12.1 0.456-16.7 2.39-4.62 1.91-7.7 4.84-8.47 7.96"/>
  <path d="m1497 1013c-8.64-2.59-19.1-2.61-27.2-0.23"/>
  <path d="m1497 1037c-8.01-2.39-17.5-2.61-25.3-0.711"/>
  <path d="m1508 1027c-1.5-3.46-4.28-6.01-8.97-8.16-4.67-2.17-10.5-2.84-16.2-2.85-5.68-0.023-11.2 1.14-15.2 3.15-4.05 2-6.63 4.83-7.15 7.79"/>
  <path d="m1494 1039c4.96-1.46 9.21-3.88 11.9-6.83"/>
  <path d="m1508 1030c-1.76-3.18-5.24-6.01-9.72-7.97-4.47-1.97-9.92-3.07-15.3-3.12-5.34-0.067-10.5 0.907-14.5 2.67-4.01 1.75-6.81 4.27-7.82 7.01"/>
  <path d="m1497 1021c-8.64-2.59-19.1-2.61-27.2-0.23"/>
  <path d="m1498 1038c-3.98-1.67-8.69-2.67-13.4-2.87-4.69-0.207-9.36 0.382-13.3 1.63"/>
  <path d="m1500 1037c-4.45-2.31-10.1-3.69-15.8-3.9-5.66-0.224-11.3 0.725-15.5 2.57"/>
  <path d="m1497 1029c-8.64-2.59-19.1-2.61-27.2-0.23"/>
  <path d="m1506 1033c-2.3-2.35-5.61-4.34-9.47-5.73s-8.27-2.18-12.6-2.28c-4.35-0.108-8.64 0.465-12.3 1.61-3.65 1.14-6.63 2.85-8.55 4.87"/>
  <path d="m1480 1074-0.036 14.8"/>
  <path d="m1411 1051 0.125 15.3"/>
  <path d="m1376 1055 0.2 18.2"/>
  <path d="m1393 1095 103 34.2 17.7-10.7 79.3-79.5-0.018-18"/>
  <path d="m1376 1055 80-79.5 22.9 7.74"/>
 </g>
</svg>
