<?xml version="1.0" encoding="UTF-8" standalone="no"?>
<svg
   width="48"
   height="48"
   version="1.2"
   viewBox="0 0 127 127"
   id="svg10"
   xmlns="http://www.w3.org/2000/svg"
   xmlns:svg="http://www.w3.org/2000/svg"
   xmlns:rdf="http://www.w3.org/1999/02/22-rdf-syntax-ns#"
   xmlns:cc="http://creativecommons.org/ns#"
   xmlns:dc="http://purl.org/dc/elements/1.1/">
  <defs
     id="defs10" />
  <title
     id="title1">GN505.4</title>
  <desc
     id="desc1">Drawing page: Page exported from FreeCAD document: Unnamed</desc>
  <g
     id="a"
     transform="translate(-1407 -971)"
     stroke="#000000"
     style="stroke-width:2.64583333;stroke-dasharray:none;stroke-linejoin:round;stroke-linecap:round">
    <path
       d="m1458 1091-3.24-1.9m29.2 1.9 3.24-1.9m6.5-29.5v20.3m-45.4-22v22m-36-64.9v17.3m28.4 9.73v4.38m89-31.4v17.3m-71.7 58.6c3.42 2 8.09 3.13 13 3.13 4.88 0 9.56-1.13 13-3.13m3.24-1.9c1.34-0.783 2.5-1.66 3.46-2.61m-35.9 2.61c4.27 2.5 10.1 3.91 16.2 3.91 6.1 0 11.9-1.41 16.2-3.91m-38.9-9.12c0 3.41 2.33 6.69 6.5 9.12m35.9-2.61c1.99-1.98 3.04-4.23 3.04-6.52m21.9-25.1 1.68 0.555m-4.7 2.45 1.67 0.555m-4.7 2.45 1.67 0.555m-27.6-5.14 24.6 8.14m10.4-12.6 1.68 0.555m-12.1 12-1.51-0.977m3.03-3.01-1.51 3.99m3.03-3.01-1.51-0.977m3.03-3.01-1.51 3.99m3.03-3.01-1.51-0.977m3.03-3.01-1.51 3.99m3.03-3.01-1.51-0.977m3.03-3.01-1.51 3.99m3.03-3.01-1.51-0.977m3.03-3.01-1.51 3.99m-38.2 2.92 1.51 0.977m-71.2-23.6 33.6 11.1m36.2 11.5v14.9m-69.8-37.8c0 0.108 0.016 0.222 0.048 0.343m-0.038-0.488-0.01 0.145m-3e-4 -17.3c0 0.21 0 0.42 0.01 0.63m7.85-17.5c-5.15 5.12-7.86 10.9-7.86 16.8m15.9-6.13c-4.59 1.63-9.77 3.84-15.9 6.76m94.4 47.8-24.6-8.14m-26.2-8.69 26.2 8.69m-26.2-8.69-26.2-8.69m0 0-17.3-5.73m0-16.5v16.5m81.7-1.5 12.7 16.2m15.1-15-15.1 15m0 0-1e-4 16.5m21.7-24.5 0.651 0.216m-2.31 3.25 0.99 0.328m-3.23 2.94 1.31 0.432m-4.09 2.66 1.61 0.532m-41.2 20.8-26.2-8.69m37.1-2.12-10.9 10.8m-26.2-23.6c-3.94-1.31-7.36-2.27-9.92-2.81m-5.23 2.65c0 6.21 5.77 11.9 15.1 15m-20.5-78.3-15.1 15m27.9-22.9-15.1 15m0 0c-5.64 5.6-7.31 12.2-4.68 18.5m0 0 65.8 21.8m15.1-15-15.1 15m15.1-15c5.64-5.6 7.31-12.2 4.68-18.5m9.47 52.2c-0.46-0.31-0.942-0.628-1.45-0.954m7.86-33.3c0-0.21 0-0.42-0.01-0.63m-7.85 17.5c5.15-5.12 7.86-10.9 7.86-16.8m-0.048 20.4c-0.046-0.171-0.124-0.355-0.233-0.552m0 0c-0.107 1.44-0.245 2.89-0.413 4.35m0 0c-0.165-0.211-0.358-0.434-0.58-0.667m0 0c-0.218 1.41-0.464 2.83-0.738 4.24m0 0c-0.27-0.247-0.566-0.503-0.888-0.769m0 0c-0.319 1.38-0.663 2.76-1.03 4.15m0 0c-0.367-0.279-0.758-0.567-1.17-0.864m0 0c-0.413 1.36-0.85 2.71-1.31 4.05m6.42-17c-1e-4 1.02-0.016 2.04-0.048 3.07m-0.269-0.089 0.269 0.089m-94.3-52.2 12.7-7.81m0 0 65.8 21.8m15.9 17.3c-6.11-6.97-11.3-12.6-15.9-17.3m15.6 38.2 0.269 0.089c-0.046-0.171-0.124-0.355-0.233-0.552l-0.036 0.463m-0.377 3.89c-0.165-0.211-0.358-0.434-0.58-0.667l-0.071 0.452h1e-4l0.651 0.216m-117-24.2c0 0.21 0 0.42 0.01 0.63v16.5l-0.01 0.145v-17.3m115 27.7c-0.27-0.247-0.566-0.503-0.888-0.769l-0.103 0.441h2e-4l0.99 0.328m-1.92 3.38c-0.367-0.279-0.758-0.567-1.17-0.864l-0.132 0.431h2e-4l1.31 0.432m-2.48 3.19c-0.46-0.31-0.942-0.628-1.45-0.954l-0.16 0.422 1.61 0.532m-5.99 6.04-1.51-0.977-0.16 0.422 1.68 0.555m-6.06 6.02-1.51-0.977-0.16 0.422 1.67 0.555m9.09-9.03-1.51-0.977-0.16 0.422 1.68 0.555m-6.06 6.02-1.51-0.977-0.16 0.422 1.67 0.555m-7.57 5.04-24.6-8.14 1.51 0.977 24.6 8.14-1.51-0.977m-50.8-16.8c-3.94-1.31-7.36-2.27-9.92-2.81l-33.6-11.1c-0.032-0.121-0.048-0.235-0.048-0.343l0.01-0.145 43.5 14.4m2.17 44.4-3.24-1.9c4.27 2.5 10.1 3.91 16.2 3.91 6.1 0 11.9-1.41 16.2-3.91l-3.24 1.9c-3.42 2-8.09 3.13-13 3.13s-9.56-1.13-13-3.13m24.1-35.7 1.51 0.977 9.37 3.1-10.9 10.8v-14.9m10.9 4.08-10.9 10.8-26.2-8.69c-2.84-0.942-5.4-2.14-7.57-3.55v22c0 3.41 2.33 6.69 6.5 9.12 4.27 2.5 10.1 3.91 16.2 3.91 6.1 0 11.9-1.41 16.2-3.91 1.34-0.783 2.5-1.66 3.46-2.61 1.99-1.98 3.04-4.23 3.04-6.52v-20.3l-0.75-0.248m-64.8-50.5 65.8 21.8 12.7 16.2-1e-4 16.5-94.4-31.2v-16.5c6.11-2.92 11.3-5.13 15.9-6.76m19.8-33.6 65.8 21.8c2.63 6.29 0.952 12.9-4.68 18.5l-15.1 15-65.8-21.8c-2.63-6.29-0.952-12.9 4.68-18.5l15.1-15m81.7 39.7c0-0.21 0-0.42-0.01-0.63-6.11-6.97-11.3-12.6-15.9-17.3l-65.8-21.8-12.7 7.81-15.1 15c-5.15 5.12-7.86 10.9-7.86 16.8v17.3c0 0.108 0.016 0.222 0.048 0.343l28.4 9.39v4.38c0 4.23 2.69 8.32 7.57 11.5v22c0 3.41 2.33 6.69 6.5 9.12l3.24 1.9c3.42 2 8.09 3.13 13 3.13 4.88 0 9.56-1.13 13-3.13l3.24-1.9c1.34-0.783 2.5-1.66 3.46-2.61 1.99-1.98 3.04-4.23 3.04-6.52v-20.3l14.5 4.79 1.35-3.56 1.67 0.555 1.35-3.56 1.67 0.555 1.35-3.56 1.68 0.555 1.35-3.56 1.68 0.555 1.35-3.56 1.61 0.532c0.412-1.2 0.804-2.41 1.18-3.62h2e-4l1.31 0.432c0.33-1.23 0.64-2.47 0.93-3.7h2e-4l0.99 0.328c0.244-1.27 0.466-2.53 0.667-3.79h1e-4l0.651 0.216c0.15-1.3 0.276-2.6 0.377-3.89h2e-4l0.269 0.089c0.032-1.03 0.048-2.05 0.048-3.07v-17.3"
       fill="none"
       stroke-linecap="round"
       stroke-linejoin="bevel"
       stroke-width=".757"
       id="path1"
       style="stroke-width:2.64583333;stroke-dasharray:none;stroke-linejoin:round;stroke-linecap:round" />
    <g
       fill="#ffaf00"
       id="g10"
       style="stroke-width:2.64583333;stroke-dasharray:none;stroke-linejoin:round;stroke-linecap:round">
      <g
         stroke-width=".0733"
         id="g9"
         style="stroke-width:2.64583333;stroke-dasharray:none;stroke-linejoin:round;stroke-linecap:round">
        <path
           transform="matrix(2.65 0 0 2.65 1407 971)"
           d="m31.4 21.9c-0.614-0.203-6.12-2.03-12.2-4.05l-11.1-3.68-0.123-0.246c-0.174-0.347-0.353-1.29-0.353-1.86 0-1.4 0.682-3.01 1.78-4.19 0.217-0.234 1.67-1.69 3.22-3.24l2.83-2.81 24.7 8.18 0.172 0.557c0.248 0.802 0.248 2.22 9.05e-4 3.01-0.218 0.695-0.634 1.52-1.07 2.13-0.357 0.496-6.47 6.6-6.6 6.59-0.0403-0.0035-0.576-0.172-1.19-0.375z"
           id="path2"
           style="stroke-width:0.99842767;stroke-dasharray:none;stroke-linejoin:round;stroke-linecap:round" />
        <path
           transform="matrix(2.65 0 0 2.65 1407 971)"
           d="m2.02 16c0.104-1.1 0.513-2.35 1.1-3.35 0.639-1.09 1.18-1.69 4.34-4.82l3.2-3.17 1.57-0.969c0.864-0.533 1.61-0.981 1.65-0.996 0.0428-0.0148-0.968 1-2.25 2.26-2.68 2.63-3.19 3.23-3.75 4.36-0.468 0.949-0.622 1.51-0.676 2.45-0.0374 0.648 0.0749 1.47 0.307 2.25 0.0368 0.123 0.0095 0.169-0.124 0.21-0.576 0.175-3.22 1.29-4.85 2.04l-0.572 0.265z"
           id="path3"
           style="stroke-width:0.99842767;stroke-dasharray:none;stroke-linejoin:round;stroke-linecap:round" />
        <path
           transform="matrix(2.65 0 0 2.65 1407 971)"
           d="m32 32.9c-2.88-0.962-10.8-3.59-17.6-5.85l-12.4-4.1-0.0191-3-0.0191-3 0.276-0.114c0.152-0.0626 0.77-0.341 1.37-0.619 1.63-0.75 3.98-1.7 4.2-1.7 0.0561 0 4.82 1.56 10.6 3.47s11.3 3.75 12.3 4.08l1.83 0.604 4.72 6.02 0.0029 2.99c0.0016 1.64-0.0054 2.98-0.0155 2.98-0.0101-0.0032-2.38-0.793-5.26-1.75z"
           id="path4"
           style="stroke-width:0.99842767;stroke-dasharray:none;stroke-linejoin:round;stroke-linecap:round" />
        <path
           transform="matrix(2.65 0 0 2.65 1407 971)"
           d="m35.2 25.4-2.26-2.9 3.15-3.16c2.67-2.68 3.22-3.27 3.6-3.85 0.814-1.25 1.16-2.47 1.08-3.78-0.0244-0.403-0.0651-0.832-0.0905-0.952-0.039-0.185 0.0796-0.0877 0.756 0.623 0.948 0.996 3.07 3.32 3.94 4.33 0.693 0.795 0.683 0.764 0.541 1.8-0.1 0.736-0.507 1.96-0.885 2.66-0.624 1.16-1.06 1.66-4.31 4.93-1.75 1.76-3.2 3.2-3.22 3.2-0.022-0.0018-1.06-1.31-2.3-2.9z"
           id="path5"
           style="stroke-width:0.99842767;stroke-dasharray:none;stroke-linejoin:round;stroke-linecap:round" />
        <path
           transform="matrix(2.65 0 0 2.65 1407 971)"
           d="m37.8 34.8c-0.119-0.0692-0.128-0.296-0.128-3.09v-3.02l3.32-3.34c2.64-2.65 3.41-3.47 3.76-4 0.479-0.711 0.919-1.54 1.13-2.12 0.13-0.365 0.131-0.357 0.136 2.14 0.0029 1.38-0.0226 2.52-0.0569 2.54-0.0342 0.0212-0.083 0.308-0.108 0.637-0.0365 0.473-0.0756 0.62-0.186 0.697-0.103 0.0724-0.164 0.261-0.232 0.716-0.089 0.598-0.0981 0.618-0.282 0.606-0.181-0.0117-0.199 0.0223-0.374 0.693-0.183 0.702-0.184 0.705-0.349 0.595-0.24-0.16-0.337-0.0424-0.532 0.644-0.0921 0.323-0.195 0.605-0.228 0.625-0.0332 0.0205-0.143-0.0166-0.243-0.0825-0.101-0.0659-0.221-0.107-0.267-0.0919-0.0461 0.0154-0.193 0.318-0.327 0.673-0.133 0.355-0.26 0.662-0.28 0.682-0.0206 0.0206-0.113-0.0154-0.205-0.08-0.319-0.223-0.396-0.159-0.656 0.542-0.134 0.363-0.279 0.659-0.322 0.659-0.0425 0-0.152-0.0524-0.244-0.116-0.0914-0.064-0.209-0.1-0.261-0.0799-0.0523 0.0201-0.203 0.336-0.335 0.703s-0.261 0.665-0.286 0.664c-0.0253-0.0013-0.11-0.0507-0.188-0.11-0.22-0.167-0.402-0.131-0.485 0.0939-0.0409 0.111-0.158 0.424-0.261 0.696l-0.187 0.495-0.216-0.154c-0.119-0.0845-0.259-0.137-0.312-0.117-0.0529 0.0203-0.208 0.336-0.345 0.702-0.137 0.366-0.266 0.665-0.286 0.664-0.0202-8.38e-4 -0.0943-0.0351-0.165-0.0762z"
           id="path6"
           style="stroke-width:0.99842767;stroke-dasharray:none;stroke-linejoin:round;stroke-linecap:round" />
        <path
           transform="matrix(2.65 0 0 2.65 1407 971)"
           d="m22.7 35.4c-2.8-0.936-5.34-1.81-5.64-1.94-2.08-0.919-3.57-2.29-4.12-3.78-0.131-0.355-0.166-0.633-0.189-1.52-0.0157-0.594-0.0046-1.08 0.0246-1.08 0.0292 0 0.469 0.131 0.977 0.291 0.508 0.16 1.4 0.416 1.98 0.568 0.583 0.152 3.57 1.1 6.63 2.12l5.57 1.84 0.0192 2.61c0.0152 2.07-3.8e-5 2.61-0.0733 2.61-0.0509-0.0037-2.38-0.772-5.18-1.71z"
           id="path7"
           style="stroke-width:0.99842767;stroke-dasharray:none;stroke-linejoin:round;stroke-linecap:round" />
        <path
           transform="matrix(2.65 0 0 2.65 1407 971)"
           d="m28.4 34.5v-2.42l0.201 0.102c0.111 0.056 0.923 0.341 1.8 0.634l1.6 0.532-1.78 1.79c-0.982 0.982-1.79 1.79-1.8 1.79-0.0104 0-0.0189-1.09-0.0189-2.42z"
           id="path8"
           style="stroke-width:0.99842767;stroke-dasharray:none;stroke-linejoin:round;stroke-linecap:round" />
        <path
           transform="matrix(2.65 0 0 2.65 1407 971)"
           d="m22.6 45.8c-2.08-0.225-4.02-0.903-5.29-1.85-0.684-0.507-1.12-1.02-1.44-1.69l-0.227-0.476-0.0206-4.31c-0.0113-2.37 0.0052-4.3 0.0366-4.28 1.38 0.697 2.11 0.968 7.06 2.61 2.92 0.972 5.38 1.77 5.46 1.77 0.092 0 0.887-0.742 2.18-2.03l2.03-2.03v4.04c0 3.83-0.0074 4.06-0.145 4.46-0.591 1.72-2.84 3.13-5.86 3.67-0.677 0.121-3.11 0.21-3.77 0.138z"
           id="path9"
           style="stroke-width:0.99842767;stroke-dasharray:none;stroke-linejoin:round;stroke-linecap:round" />
      </g>
      <path
         transform="matrix(2.65 0 0 2.65 1407 971)"
         d="m23.8 46.3c-0.121-3e-3 -0.309-0.0101-0.408-0.0154-0.957-0.0513-1.88-0.217-2.72-0.49-0.0414-0.0134-0.0747-0.0251-0.0739-0.0259s0.0374 0.0072 0.0812 0.0178c0.731 0.177 1.56 0.3 2.36 0.352 0.306 0.0198 0.517 0.0272 0.852 0.0301 0.83 0.0072 1.62-0.0507 2.42-0.177 0.0992-0.0156 0.274-0.0453 0.332-0.0562 0.0116-0.0022 0.0218-4e-3 0.0226-4e-3 8.71e-4 0 0.0011 0.0136 4.43e-4 0.0302l-0.0011 0.0302-0.0293 0.0069c-0.742 0.174-1.42 0.265-2.21 0.296-0.103 4e-3 -0.539 0.0078-0.633 0.0055z"
         stroke-width=".00391"
         id="path10"
         style="stroke-width:0.99842767;stroke-dasharray:none;stroke-linejoin:round;stroke-linecap:round" />
    </g>
  </g>
  <metadata
     id="metadata10">
    <rdf:RDF>
      <cc:Work
         rdf:about="">
        <dc:title>GN505.4</dc:title>
      </cc:Work>
    </rdf:RDF>
  </metadata>
</svg>
