<?xml version="1.0" encoding="UTF-8"?>
<svg width="48" height="48" version="1.2" viewBox="0 0 127 127" xmlns="http://www.w3.org/2000/svg" xmlns:freecad="http://www.freecadweb.org/wiki/index.php?title=Svg_Namespace" xmlns:xlink="http://www.w3.org/1999/xlink">
 <title>FreeCAD SVG Export</title>
 <desc>Drawing page: Page exported from FreeCAD document: Unnamed</desc>
 <g id="c" transform="translate(-1374.5 -970.07)">
  <g id="d" transform="scale(10)">
   <defs>
    <radialGradient id="a" cx="270.58" cy="33.9" r="19.571" gradientTransform="matrix(1.1149 .27223 -.75072 3.0746 -471.09 -148.33)" gradientUnits="userSpaceOnUse">
     <stop stop-color="#ff6d0f" offset="0"/>
     <stop stop-color="#ff1000" offset="1"/>
    </radialGradient>
    <radialGradient id="b" cx="282.65" cy="29.149" r="19.571" gradientTransform="matrix(.61866 .96665 -1.0332 .66128 -327.28 -255.84)" gradientUnits="userSpaceOnUse">
     <stop stop-color="#71b2f8" offset="0"/>
     <stop stop-color="#002795" offset="1"/>
    </radialGradient>
   </defs>
   <g fill="none" stroke="#000000">
    <g stroke-width=".35">
     <path d="m9.9956 200h276.71"/>
     <path d="m287.14 199.85v-190.16"/>
     <path d="m287.2 9.8544h-277.06"/>
     <path d="m10.145 9.7049v190.15"/>
     <path d="m148.65 9.8574v-9.7149"/>
     <path d="m148.68 202.65v7.1938"/>
     <path d="m10.169 104.83h-9.9941"/>
     <path d="m287.17 104.82h9.6618"/>
     <path d="m241.01 202.44v5.1115"/>
     <path d="m56.342 200v7.5"/>
     <path d="m194.84 202.44v5.1115"/>
     <path d="m102.51 200v7.5"/>
     <path d="m102.48 9.8525v-7.5412"/>
     <path d="m194.81 9.8525v-7.5412"/>
     <path d="m56.315 9.8525v-7.5412"/>
     <path d="m240.98 9.8525v-7.5412"/>
     <path d="m10 57.325h-7.5"/>
     <path d="m10 152.32h-7.5"/>
     <path d="m287.18 57.325h7.5"/>
     <path d="m287.18 152.32h7.5"/>
     <path d="m137.15 202.5h150.05"/>
     <path d="m187.18 200v5"/>
     <path d="m237.18 200v5"/>
     <path d="m257.18 200v2.5"/>
     <path d="m247.18 200v2.5"/>
     <path d="m227.18 200v2.5"/>
     <path d="m207.18 200v2.5"/>
     <path d="m217.18 200v2.5"/>
     <path d="m137.18 200v5"/>
     <path d="m287.12 200v5"/>
     <path d="m177.18 200v2.5"/>
     <path d="m167.18 200v2.5"/>
     <path d="m197.18 200v2.5"/>
     <path d="m147.18 200v2.5"/>
     <path d="m277.18 200v2.5"/>
     <path d="m157.18 200v2.5"/>
     <path d="m267.18 200v2.5"/>
    </g>
    <g stroke-width=".13">
     <g transform="translate(-110.92 .82999)">
      <path d="m234.58 5.005v1.165h3.5v-1.165l-0.111-0.54972-0.338-0.40851-0.549-0.25216-0.752-0.09076-0.766 0.08069-0.303 0.10086-0.242 0.1412-0.328 0.40851-0.081 0.2673zm0.419 0.0353 0.075-0.3833 0.232-0.26223 0.414-0.15635 0.61-0.05044 0.59 0.05548 0.414 0.15634 0.247 0.2673 0.081 0.3732v0.66065h-2.663z" fill="#000000" fill-rule="evenodd" stroke="none"/>
     </g>
     <g transform="translate(-104.58 .94092)">
      <path d="m185.58 6.0591v-2.219h-0.423v1.755h-1.186v-1.5634h-0.418v1.5634h-1.049v-1.7147h-0.424v2.1787z" fill="#000000" fill-rule="evenodd" stroke="none"/>
     </g>
     <g transform="translate(-117.15 .7493)">
      <path d="m289.28 4.183 0.424 0.10086 0.302 0.16645 0.187 0.23196 0.06 0.27234-0.09 0.32782-0.273 0.2572-0.444 0.17148-0.615 0.05548-0.61-0.05548-0.449-0.16644-0.272-0.2572-0.096-0.33286 0.05-0.24207 0.142-0.20678 0.227-0.16138 0.312-0.11093v-0.47913l-0.479 0.15131-0.363 0.26224-0.227 0.35809-0.081 0.42865 0.126 0.53461 0.353 0.40847 0.58 0.26227 0.787 0.09076 0.787-0.09076 0.58-0.26227 0.358-0.40847 0.121-0.53461-0.096-0.46902-0.267-0.37824-0.439-0.26727-0.595-0.14124z" fill="#000000" fill-rule="evenodd" stroke="none"/>
     </g>
     <g transform="translate(-98.25 .96616)">
      <path d="m133.08 6.0338v-0.46902h-1.609v-1.4726h-0.418v1.4726h-1.049v-1.8105h-0.424v2.2795z" fill="#000000" fill-rule="evenodd" stroke="none"/>
     </g>
     <g transform="translate(-123.58 .83502)">
      <path d="m341.19 4.3696-0.292-0.35303-0.197-0.09079-0.242-0.03027-0.379 0.06558-0.272 0.19669-0.166 0.31771-0.061 0.44382v1.2457h3.5v-1.3163l-0.07-0.46902-0.207-0.34799-0.328-0.21686-0.444-0.07565-0.297 0.04541-0.247 0.12103-0.182 0.19668zm-0.156 0.64551v0.68588h-1.034v-0.72623l0.03-0.27231 0.091-0.19165 0.156-0.11599 0.232-0.04035 0.232 0.04538 0.162 0.12103 0.1 0.20679zm1.629-0.11094v0.79682h-1.206v-0.75144l0.036-0.31771 0.105-0.22696 0.182-0.13617 0.262-0.04538 0.278 0.04538 0.191 0.1261 0.116 0.21182z" fill="#000000" fill-rule="evenodd" stroke="none"/>
     </g>
     <g transform="translate(-129.91 .46686)">
      <path d="m395.58 6.5331v-0.46399l-1.029-0.36816v-1.397l1.029-0.36817v-0.47406l-3.505 1.281v0.5144zm-1.457-0.99353-1.544-0.53961 1.544-0.53964z" fill="#000000" fill-rule="evenodd" stroke="none"/>
     </g>
     <g transform="translate(0,-30.221)">
      <path d="m5.7338 112.67h0.0353l0.48415-0.081 0.36311-0.237 0.23199-0.373 0.08574-0.494-0.08574-0.525-0.2219-0.393-0.35302-0.252-0.4539-0.091-0.29755 0.04-0.24207 0.111-0.1866 0.182-0.13617 0.242-0.27233-0.328-0.43372-0.116-0.39337 0.076-0.29755 0.217-0.1866 0.353-0.06556 0.484 0.08069 0.454 0.2219 0.348 0.35303 0.227 0.46902 0.075h0.0353v-0.449l-0.32277-0.04-0.23199-0.131-0.14121-0.212-0.05043-0.297 0.04035-0.263 0.10591-0.191 0.17147-0.116 0.23198-0.046 0.24712 0.046 0.16643 0.121 0.10086 0.211 0.03026 0.288-0.00504 0.197h0.39841l-0.01008-0.247 0.04539-0.318 0.12103-0.237 0.19669-0.141 0.2572-0.051 0.29251 0.056 0.21686 0.146 0.13617 0.232 0.04539 0.307-0.05044 0.318-0.15129 0.232-0.24208 0.146-0.33285 0.056z" fill="#000000" fill-rule="evenodd" stroke="none"/>
     </g>
     <g transform="translate(0,-56.881)">
      <path d="m6.8332 186.83v-2.406h-0.43371v1.901l-0.23704-0.106-0.19668-0.181-0.35807-0.56-0.1513-0.298-0.21686-0.332-0.25216-0.237-0.29755-0.137-0.3379-0.05-0.42363 0.086-0.33285 0.237-0.21182 0.363-0.07565 0.469 0.08574 0.484 0.23703 0.368 0.37824 0.237 0.49928 0.081h0.07061v-0.459h-0.04035l-0.34294-0.045-0.25216-0.137-0.16138-0.216-0.05548-0.288 0.05043-0.292 0.12608-0.217 0.19669-0.142 0.24712-0.05 0.23199 0.035 0.19668 0.096 0.17147 0.162 0.1513 0.221 0.16138 0.298 0.31268 0.494 0.33286 0.348 0.40346 0.207 0.50936 0.066z" fill="#000000" fill-rule="evenodd" stroke="none"/>
     </g>
     <g transform="translate(-123.73 -30.884)">
      <path d="m413.73 112.13v0.035l0.081 0.484 0.237 0.363 0.373 0.232 0.494 0.086 0.525-0.086 0.393-0.222 0.252-0.353 0.091-0.454-0.04-0.297-0.111-0.242-0.182-0.187-0.242-0.136 0.328-0.272 0.116-0.434-0.076-0.393-0.217-0.298-0.353-0.186-0.484-0.066-0.454 0.081-0.348 0.222-0.227 0.353-0.075 0.469v0.035h0.449l0.04-0.323 0.131-0.232 0.212-0.141 0.297-0.05 0.263 0.04 0.191 0.106 0.116 0.171 0.046 0.232-0.046 0.247-0.121 0.167-0.211 0.101-0.288 0.03-0.197-5e-3v0.398l0.247-0.01 0.318 0.046 0.237 0.121 0.141 0.196 0.051 0.257-0.056 0.293-0.146 0.217-0.232 0.136-0.307 0.045-0.318-0.05-0.232-0.151-0.146-0.242-0.056-0.333z" fill="#000000" fill-rule="evenodd" stroke="none"/>
     </g>
     <g transform="translate(-123.77 -57.483)">
      <path d="m413.77 187.43h2.406v-0.434h-1.901l0.106-0.237 0.181-0.196 0.56-0.358 0.298-0.152 0.332-0.216 0.237-0.253 0.137-0.297 0.05-0.338-0.086-0.424-0.237-0.333-0.363-0.211-0.469-0.076-0.484 0.086-0.368 0.237-0.237 0.378-0.081 0.499v0.071h0.459v-0.04l0.045-0.343 0.137-0.253 0.217-0.161 0.287-0.055 0.292 0.05 0.217 0.126 0.142 0.197 0.05 0.247-0.035 0.232-0.096 0.197-0.162 0.171-0.221 0.151-0.298 0.162-0.494 0.312-0.348 0.333-0.207 0.404-0.066 0.509z" fill="#000000" fill-rule="evenodd" stroke="none"/>
     </g>
     <g transform="translate(0,-3.5108)">
      <path d="m6.8332 36.923v-0.4539h-0.86743v-0.4992h-0.40346v0.4992h-2.1535v0.459l2.1131 1.5331h0.44381v-1.5382zm-1.2709 1.1146-1.5684-1.1146h1.5684z" fill="#000000" fill-rule="evenodd" stroke="none"/>
     </g>
     <g transform="translate(0,-83.82)">
      <path d="m6.8332 259.89v-0.459h-3.5252v0.343l0.30764 0.091 0.20677 0.181 0.12104 0.278 0.04034 0.383h0.35807v-0.817z" fill="#000000" fill-rule="evenodd" stroke="none"/>
     </g>
     <g transform="translate(-123.74 -4.0832)">
      <path d="m415.28 39.033h0.454v-0.8674h0.5v-0.4035h-0.5v-2.1534h-0.459l-1.533 2.1131v0.4438h1.538zm-1.114-1.2709 1.114-1.5684v1.5684z" fill="#000000" fill-rule="evenodd" stroke="none"/>
     </g>
     <g transform="translate(-124.09 -84.183)">
      <path d="m414.91 261.63h0.459v-3.525h-0.343l-0.091 0.308-0.181 0.206-0.277 0.121-0.384 0.041v0.358h0.817z" fill="#000000" fill-rule="evenodd" stroke="none"/>
     </g>
     <g transform="rotate(90 -17.775 55.142)">
      <path d="m133.08 6.0338v-0.46902h-1.609v-1.4726h-0.418v1.4726h-1.049v-1.8105h-0.424v2.2795z" fill="#000000" fill-rule="evenodd" stroke="none"/>
     </g>
     <g transform="rotate(90 31.571 51.988)">
      <path d="m185.58 6.0591v-2.219h-0.423v1.755h-1.186v-1.5634h-0.418v1.5634h-1.049v-1.7147h-0.424v2.1787z" fill="#000000" fill-rule="evenodd" stroke="none"/>
     </g>
     <g transform="rotate(90 80.96 48.877)">
      <path d="m234.58 5.005v1.165h3.5v-1.165l-0.111-0.54972-0.338-0.40851-0.549-0.25216-0.752-0.09076-0.766 0.08069-0.303 0.10086-0.242 0.1412-0.328 0.40851-0.081 0.2673zm0.419 0.0353 0.075-0.3833 0.232-0.26223 0.414-0.15635 0.61-0.05044 0.59 0.05548 0.414 0.15634 0.247 0.2673 0.081 0.3732v0.66065h-2.663z" fill="#000000" fill-rule="evenodd" stroke="none"/>
     </g>
    </g>
   </g>
   <g transform="translate(-153.06 .054004)">
    <g>
     <g fill="none" stroke="#000000" stroke-width=".35">
      <path d="m300.15 199.95h140.09"/>
      <path d="m300.2 199.99v-46.69"/>
      <path d="m300.15 153.3h140.09"/>
      <path d="m440.2 153.26v46.727"/>
      <path d="m300.15 195.95h119.07"/>
      <path d="m300.15 182.95h119.07"/>
      <path d="m300.15 169.95h119.07"/>
      <path d="m419.17 193.29h21.055"/>
      <path d="m419.17 186.62h21.055"/>
      <path d="m419.17 179.95h21.055"/>
      <path d="m419.17 173.29h21.055"/>
      <path d="m419.17 166.62h21.055"/>
      <path d="m419.17 159.95h21.055"/>
      <path d="m317.7 195.95v-26"/>
      <path d="m338.2 195.99v-42.795"/>
      <path d="m400.2 195.95v-13"/>
      <path d="m419.2 199.99v-46.727"/>
      <path d="m424.12 199.99v-46.727"/>
     </g>
     <g stroke-width=".13">
      <g transform="matrix(1 0 0 1 80.199 -87.047)" fill="none" stroke="#000000">
       <path d="m221.31 271.59h-0.197l0.044 0.23 0.108 0.168 0.166 0.102 0.225 0.036 0.223-0.034 0.166-0.095 0.106-0.149 0.039-0.197-0.033-0.177-0.09-0.115-0.147-0.075-0.197-0.057-0.169-0.041-0.11-0.047-0.063-0.069-0.019-0.109 0.019-0.097 0.057-0.073 0.086-0.05 0.119-0.017 0.121 0.021 0.095 0.059 0.063 0.097 0.03 0.132h0.197v-4e-3l-0.035-0.204-0.101-0.151-0.16-0.095-0.217-0.032-0.194 0.032-0.151 0.091-0.098 0.14-0.034 0.182 0.028 0.162 0.082 0.11 0.13 0.074 0.177 0.056 0.175 0.049 0.132 0.048 0.08 0.069 0.028 0.113-0.026 0.114-0.067 0.087-0.102 0.054-0.131 0.017-0.147-0.024-0.113-0.069-0.071-0.112zm1.993-0.062-0.043 0.181-0.072 0.13-0.099 0.08-0.117 0.026-0.14-0.039-0.111-0.117-0.073-0.19-0.024-0.264 0.024-0.261 0.071-0.192 0.111-0.117 0.142-0.041 0.104 0.021 0.089 0.061 0.069 0.097 0.047 0.134h0.206l-0.065-0.205-0.113-0.156-0.153-0.097-0.184-0.035-0.229 0.054-0.175 0.152-0.112 0.248-0.039 0.337 0.039 0.338 0.112 0.248 0.175 0.154 0.229 0.051 0.201-0.041 0.162-0.114 0.115-0.188 0.06-0.255zm0.294 0.557h0.199l0.157-0.441h0.599l0.158 0.441h0.203l-0.549-1.502h-0.22zm0.426-0.624 0.231-0.662 0.231 0.662zm1.093 0.624h0.964v-0.181h-0.765v-1.319h-0.199zm1.286 0h0.951v-0.181h-0.752v-0.508h0.67v-0.179h-0.67v-0.45h0.735v-0.182h-0.934z" fill="#000000" fill-rule="evenodd" stroke="none"/>
      </g>
      <g transform="matrix(1 0 0 1 78.041 -87.047)" fill="none" stroke="#000000">
       <path d="m241.24 272.08h0.19l0.216-1.301 0.223 1.301h0.182l0.263-1.502h-0.173l-0.186 1.278-0.213-1.278h-0.189l-0.209 1.278-0.186-1.278h-0.177zm1.256 0h0.951v-0.181h-0.752v-0.508h0.67v-0.179h-0.67v-0.45h0.735v-0.182h-0.934zm1.655-0.181h-0.276v0.181h0.752v-0.181h-0.277v-1.137h0.277v-0.182h-0.752v0.182h0.276zm1.797-0.02 0.036 0.201h0.108v-0.81h-0.546v0.184h0.337v0.013l-0.026 0.198-0.069 0.147-0.106 0.093-0.132 0.031-0.147-0.039-0.115-0.117-0.073-0.192-0.026-0.264 0.024-0.262 0.073-0.192 0.117-0.117 0.158-0.041 0.108 0.022 0.088 0.06 0.065 0.102 0.037 0.136h0.214l-0.056-0.207-0.106-0.156-0.149-0.095-0.188-0.035-0.247 0.054-0.186 0.158-0.118 0.249-0.042 0.33 0.042 0.333 0.118 0.249 0.175 0.158 0.221 0.051 0.123-0.017 0.11-0.043 0.095-0.076zm0.404 0.201h0.201v-0.704h0.601v0.704h0.199v-1.5h-0.199v0.612h-0.601v-0.612h-0.201zm1.703 0h0.199v-1.318h0.454v-0.182h-1.109v0.182h0.456zm2.86 0.418h0.136l-0.124-0.23-0.086-0.239-0.054-0.253-0.017-0.255 0.017-0.255 0.054-0.251 0.086-0.242 0.124-0.229h-0.136l-0.158 0.237-0.111 0.236-0.064 0.246-0.02 0.258 0.02 0.259 0.064 0.244 0.111 0.236zm0.721-0.418h0.191v-0.408l0.198-0.192 0.342 0.6h0.214l-0.426-0.732 0.437-0.428h-0.24l-0.525 0.523v-0.914h-0.191zm2.179-0.051v-1.109h-0.181v0.188l-0.15-0.171-0.09-0.043-0.102-0.015-0.184 0.043-0.142 0.121-0.093 0.194-0.033 0.262 0.033 0.264 0.093 0.194 0.142 0.123 0.184 0.041 0.104-0.015 0.086-0.039 0.152-0.164v0.164l-0.018 0.13-0.047 0.093-0.091 0.054-0.136 0.02-0.119-0.013-0.084-0.033-0.05-0.056-0.015-0.076h-0.184v9e-3l0.028 0.138 0.087 0.104 0.138 0.067 0.188 0.024 0.225-0.033 0.149-0.09 0.084-0.158zm-0.778-0.53 0.019-0.192 0.059-0.143 0.091-0.084 0.121-0.031 0.127 0.031 0.095 0.084 0.059 0.143 0.021 0.192-0.021 0.197-0.059 0.14-0.095 0.087-0.127 0.028-0.121-0.028-0.091-0.087-0.059-0.142zm1.468 0.999 0.155-0.238 0.11-0.236 0.065-0.244 0.022-0.259-0.022-0.258-0.065-0.246-0.11-0.236-0.155-0.237h-0.137l0.121 0.229 0.087 0.242 0.052 0.251 0.019 0.255-0.019 0.255-0.052 0.253-0.089 0.239-0.119 0.23z" fill="#000000" fill-rule="evenodd" stroke="none"/>
      </g>
      <g transform="matrix(1 0 0 1 73.175 -87.047)" fill="none" stroke="#000000">
       <path d="m266.65 270.58h-0.499v1.5h0.499l0.236-0.047 0.175-0.145 0.108-0.236 0.039-0.322-0.035-0.328-0.043-0.13-0.06-0.104-0.175-0.14-0.115-0.035zm-0.015 0.18 0.165 0.032 0.112 0.1 0.067 0.177 0.022 0.261-0.024 0.253-0.067 0.178-0.115 0.105-0.16 0.035h-0.283v-1.141zm0.837 1.32h0.201v-0.633h0.205l0.151 7e-3 0.095 0.03 0.052 0.071 0.022 0.128 0.011 0.194 0.013 0.128 0.026 0.075h0.227v-0.041l-0.05-0.06-0.017-0.113-0.016-0.242-0.036-0.179-0.05-0.056-0.078-0.041 0.087-0.054 0.06-0.076 0.039-0.095 0.013-0.115-0.03-0.181-0.087-0.136-0.142-0.082-0.195-0.029h-0.501zm0.445-1.316 0.132 0.013 0.093 0.041 0.058 0.076 0.02 0.119-0.022 0.125-0.058 0.076-0.1 0.039-0.136 0.01h-0.231v-0.499zm0.681 1.316h0.199l0.157-0.441h0.599l0.158 0.441h0.203l-0.549-1.502h-0.22zm0.426-0.624 0.231-0.662 0.231 0.662zm1.124 0.624h0.19l0.216-1.301 0.222 1.301h0.182l0.264-1.502h-0.173l-0.186 1.278-0.214-1.278h-0.188l-0.21 1.278-0.186-1.278h-0.177zm1.61-0.181h-0.277v0.181h0.752v-0.181h-0.276v-1.137h0.276v-0.182h-0.752v0.182h0.277zm0.908 0.181h0.179v-1.229l0.575 1.229h0.231v-1.5h-0.181v1.23l-0.569-1.23h-0.235zm2.189-0.201 0.037 0.201h0.108v-0.81h-0.547v0.184h0.337v0.013l-0.026 0.198-0.069 0.147-0.106 0.093-0.132 0.031-0.147-0.039-0.114-0.117-0.074-0.192-0.026-0.264 0.024-0.262 0.074-0.192 0.116-0.117 0.158-0.041 0.108 0.022 0.089 0.06 0.065 0.102 0.036 0.136h0.214l-0.056-0.207-0.106-0.156-0.149-0.095-0.188-0.035-0.246 0.054-0.186 0.158-0.119 0.249-0.041 0.33 0.041 0.333 0.119 0.249 0.175 0.158 0.22 0.051 0.124-0.017 0.11-0.043 0.095-0.076zm1.714 0.201h0.179v-1.229l0.575 1.229h0.232v-1.5h-0.182v1.23l-0.568-1.23h-0.236zm1.277-0.57 0.031 0.27 0.095 0.192 0.16 0.111 0.231 0.038 0.229-0.038 0.16-0.111 0.095-0.19 0.032-0.272v-0.93h-0.201v0.941l-0.019 0.183-0.058 0.132-0.1 0.078-0.138 0.026-0.143-0.026-0.099-0.078-0.059-0.129-0.017-0.186v-0.941h-0.199zm1.278 0.57h0.166v-1.361l0.281 1.361h0.186l0.279-1.361v1.361h0.168v-1.5h-0.263l-0.277 1.323-0.274-1.323h-0.266zm2.111-0.81 0.152-0.125 0.039-0.085 0.013-0.103-0.029-0.163-0.084-0.116-0.136-0.072-0.19-0.026h-0.534v1.5h0.564l0.201-0.03 0.149-0.088 0.093-0.141 0.033-0.19-0.02-0.128-0.052-0.106-0.084-0.077zm-0.276-0.067h-0.294v-0.443h0.311l0.117 0.013 0.082 0.039 0.05 0.067 0.017 0.099-0.02 0.1-0.051 0.069-0.089 0.043zm0.047 0.698h-0.341v-0.517h0.322l0.136 0.016 0.097 0.045 0.059 0.078 0.019 0.112-0.019 0.119-0.054 0.082-0.091 0.05zm0.806 0.179h0.951v-0.181h-0.752v-0.508h0.67v-0.179h-0.67v-0.45h0.735v-0.182h-0.934zm1.273 0h0.202v-0.633h0.205l0.151 7e-3 0.095 0.03 0.052 0.071 0.022 0.128 0.011 0.194 0.012 0.128 0.026 0.075h0.227v-0.041l-0.049-0.06-0.018-0.113-0.015-0.242-0.037-0.179-0.049-0.056-0.078-0.041 0.086-0.054 0.061-0.076 0.039-0.095 0.013-0.115-0.03-0.181-0.087-0.136-0.143-0.082-0.194-0.029h-0.502zm0.446-1.316 0.132 0.013 0.093 0.041 0.058 0.076 0.019 0.119-0.021 0.125-0.059 0.076-0.099 0.039-0.136 0.01h-0.231v-0.499z" fill="#000000" fill-rule="evenodd" stroke="none"/>
      </g>
      <g transform="matrix(1 0 0 1 35.412 -87.047)" fill="none" stroke="#000000">
       <path d="m366.31 271.59h-0.197l0.044 0.23 0.108 0.168 0.166 0.102 0.225 0.036 0.223-0.034 0.166-0.095 0.106-0.149 0.039-0.197-0.033-0.177-0.09-0.115-0.147-0.075-0.197-0.057-0.169-0.041-0.11-0.047-0.063-0.069-0.019-0.108 0.019-0.098 0.057-0.073 0.086-0.05 0.119-0.017 0.121 0.021 0.095 0.059 0.063 0.097 0.03 0.132h0.197v-4e-3l-0.035-0.204-0.101-0.151-0.16-0.095-0.217-0.032-0.194 0.032-0.151 0.091-0.098 0.14-0.034 0.182 0.028 0.162 0.082 0.11 0.13 0.074 0.177 0.056 0.175 0.049 0.132 0.048 0.08 0.069 0.028 0.113-0.026 0.114-0.067 0.087-0.102 0.054-0.131 0.017-0.147-0.024-0.113-0.069-0.071-0.112zm1.141 0.495h0.201v-0.704h0.601v0.704h0.199v-1.5h-0.199v0.612h-0.601v-0.612h-0.201zm1.349 0h0.951v-0.181h-0.752v-0.508h0.67v-0.179h-0.67v-0.45h0.735v-0.182h-0.934zm1.301 0h0.951v-0.181h-0.752v-0.508h0.67v-0.179h-0.67v-0.45h0.735v-0.182h-0.934zm1.656 0h0.199v-1.318h0.453v-0.182h-1.108v0.182h0.456z" fill="#000000" fill-rule="evenodd" stroke="none"/>
      </g>
      <g transform="matrix(1 0 0 1 80.199 -87.047)" fill="#000000" fill-rule="evenodd">
       <path d="m221.31 258.59h-0.197l0.044 0.23 0.108 0.168 0.166 0.102 0.225 0.036 0.223-0.034 0.166-0.095 0.106-0.149 0.039-0.197-0.033-0.177-0.09-0.115-0.147-0.075-0.197-0.057-0.169-0.041-0.11-0.047-0.063-0.069-0.019-0.109 0.019-0.097 0.057-0.073 0.086-0.05 0.119-0.017 0.121 0.021 0.095 0.059 0.063 0.097 0.03 0.132h0.197v-4e-3l-0.035-0.204-0.101-0.151-0.16-0.095-0.217-0.032-0.194 0.032-0.151 0.091-0.098 0.14-0.034 0.182 0.028 0.162 0.082 0.11 0.13 0.074 0.177 0.056 0.175 0.049 0.132 0.048 0.08 0.069 0.028 0.113-0.026 0.114-0.067 0.087-0.102 0.054-0.131 0.017-0.147-0.024-0.113-0.069-0.071-0.112zm1.543 0.314h-0.276v0.181h0.752v-0.181h-0.277v-1.137h0.277v-0.182h-0.752v0.182h0.276zm0.863 0.181h1.076v-0.181h-0.839l0.839-1.148v-0.171h-1.018v0.182h0.793l-0.851 1.146zm1.385 0h0.951v-0.181h-0.752v-0.508h0.67v-0.179h-0.67v-0.45h0.735v-0.182h-0.934z"/>
       <path d="m221.65 250.08h-0.499v1.5h0.499l0.236-0.047 0.175-0.145 0.108-0.236 0.039-0.322-0.035-0.328-0.043-0.13-0.06-0.104-0.175-0.14-0.115-0.035zm-0.015 0.18 0.165 0.032 0.112 0.1 0.067 0.177 0.022 0.261-0.024 0.253-0.067 0.178-0.115 0.105-0.16 0.035h-0.283v-1.141zm0.662 1.32h0.199l0.157-0.441h0.599l0.158 0.441h0.203l-0.549-1.502h-0.22zm0.425-0.624 0.232-0.662 0.231 0.662zm1.433 0.624h0.199v-1.318h0.454v-0.182h-1.109v0.182h0.456zm0.947 0h0.951v-0.181h-0.752v-0.508h0.67v-0.179h-0.67v-0.45h0.735v-0.182h-0.934zm1.606 0h0.298v-0.322h-0.298zm0-0.838h0.298v-0.322h-0.298z"/>
      </g>
      <g transform="matrix(1 0 0 1 80.199 -72.994)" fill="none" stroke="#000000">
       <path d="m221.65 227.58h-0.499v1.5h0.499l0.236-0.047 0.175-0.145 0.108-0.236 0.039-0.322-0.035-0.328-0.043-0.13-0.06-0.104-0.175-0.14-0.115-0.035zm-0.015 0.18 0.165 0.032 0.112 0.1 0.067 0.177 0.022 0.261-0.024 0.253-0.067 0.178-0.115 0.105-0.16 0.035h-0.283v-1.141zm0.865 1.32h0.951v-0.181h-0.752v-0.508h0.67v-0.179h-0.67v-0.45h0.735v-0.182h-0.934zm1.413-0.495h-0.196l0.043 0.23 0.108 0.168 0.166 0.102 0.225 0.036 0.223-0.034 0.166-0.095 0.106-0.149 0.039-0.197-0.032-0.177-0.091-0.115-0.147-0.075-0.197-0.057-0.168-0.041-0.111-0.047-0.062-0.069-0.02-0.109 0.02-0.097 0.056-0.073 0.086-0.05 0.119-0.017 0.121 0.021 0.095 0.059 0.063 0.097 0.03 0.132h0.197v-5e-3l-0.035-0.203-0.101-0.151-0.16-0.095-0.216-0.032-0.195 0.032-0.151 0.091-0.097 0.14-0.035 0.182 0.028 0.162 0.082 0.11 0.13 0.074 0.177 0.056 0.175 0.049 0.132 0.048 0.08 0.069 0.028 0.113-0.026 0.114-0.067 0.087-0.101 0.054-0.132 0.017-0.147-0.024-0.112-0.069-0.072-0.112zm1.544 0.314h-0.277v0.181h0.752v-0.181h-0.277v-1.137h0.277v-0.182h-0.752v0.182h0.277zm1.796-0.02 0.037 0.201h0.108v-0.81h-0.547v0.184h0.337v0.013l-0.026 0.198-0.069 0.147-0.106 0.093-0.132 0.031-0.147-0.039-0.114-0.117-0.074-0.192-0.026-0.264 0.024-0.262 0.073-0.192 0.117-0.117 0.158-0.041 0.108 0.022 0.089 0.06 0.064 0.102 0.037 0.136h0.214l-0.056-0.207-0.106-0.156-0.149-0.095-0.188-0.035-0.247 0.054-0.185 0.158-0.119 0.249-0.041 0.33 0.041 0.333 0.119 0.249 0.175 0.158 0.22 0.051 0.123-0.017 0.111-0.043 0.095-0.076zm0.413 0.201h0.179v-1.229l0.575 1.229h0.231v-1.5h-0.181v1.23l-0.569-1.23h-0.235zm1.34 0h0.951v-0.181h-0.752v-0.508h0.67v-0.179h-0.67v-0.45h0.734v-0.182h-0.933zm1.753-1.5h-0.5v1.5h0.5l0.235-0.047 0.175-0.145 0.108-0.236 0.039-0.322-0.034-0.328-0.044-0.13-0.06-0.104-0.175-0.14-0.115-0.035zm-0.016 0.18 0.165 0.032 0.112 0.1 0.067 0.177 0.022 0.261-0.024 0.253-0.067 0.178-0.115 0.105-0.16 0.035h-0.283v-1.141zm2.89 0.51 0.152-0.125 0.038-0.085 0.013-0.104-0.028-0.162-0.084-0.116-0.136-0.072-0.19-0.026h-0.534v1.5h0.564l0.201-0.03 0.149-0.088 0.093-0.141 0.032-0.19-0.019-0.128-0.052-0.106-0.084-0.077zm-0.276-0.067h-0.294v-0.443h0.311l0.117 0.013 0.082 0.039 0.049 0.067 0.018 0.099-0.02 0.1-0.052 0.069-0.088 0.043zm0.047 0.698h-0.341v-0.517h0.322l0.136 0.016 0.097 0.045 0.058 0.078 0.02 0.112-0.02 0.119-0.054 0.082-0.09 0.05zm1.373 0.179v-0.607l0.492-0.895h-0.224l-0.37 0.711-0.374-0.711h-0.24l0.515 0.908v0.594zm1.039 0h0.299v-0.322h-0.299zm0-0.838h0.299v-0.322h-0.299z" fill="#000000" fill-rule="evenodd" stroke="none"/>
      </g>
      <g transform="matrix(1 0 0 1 34.119 -87.047)" fill="none" stroke="#000000">
       <path d="m386.4 284.98h0.331l0.263-0.735h0.998l0.263 0.735h0.339l-0.915-2.503h-0.368zm0.71-1.041 0.385-1.102 0.385 1.102z" fill="#000000" fill-rule="evenodd" stroke="none"/>
      </g>
      <g transform="matrix(1 0 0 1 31.608 -87.047)" fill="none" stroke="#000000">
       <path d="m398.92 285.57v0.252h2.168v-0.252z" fill="#000000" fill-rule="evenodd" stroke="none"/>
      </g>
      <g transform="matrix(1 0 0 1 34.119 -87.047)" fill="none" stroke="#000000">
       <path d="m387.95 276.96 0.252-0.209 0.065-0.141 0.022-0.173-0.047-0.27-0.14-0.194-0.227-0.119-0.317-0.044h-0.89v2.5h0.94l0.335-0.05 0.249-0.148 0.155-0.234 0.054-0.317-0.033-0.212-0.086-0.177-0.141-0.13zm-0.461-0.112h-0.49v-0.739h0.519l0.195 0.022 0.136 0.065 0.083 0.112 0.029 0.165-0.032 0.166-0.087 0.115-0.147 0.072zm0.079 1.163h-0.569v-0.86h0.537l0.227 0.025 0.162 0.075 0.097 0.13 0.033 0.187-0.033 0.199-0.09 0.136-0.151 0.083z" fill="#000000" fill-rule="evenodd" stroke="none"/>
      </g>
      <g transform="matrix(1 0 0 1 31.608 -87.047)" fill="none" stroke="#000000">
       <path d="m398.92 278.91v0.253h2.168v-0.253z" fill="#000000" fill-rule="evenodd" stroke="none"/>
      </g>
      <g transform="matrix(1 0 0 1 34.119 -87.047)" fill="none" stroke="#000000">
       <path d="m388.08 270.71-0.072 0.303-0.119 0.216-0.166 0.133-0.195 0.044-0.234-0.065-0.183-0.195-0.123-0.317-0.04-0.439 0.04-0.436 0.119-0.321 0.184-0.194 0.237-0.069 0.173 0.036 0.148 0.101 0.115 0.162 0.08 0.224h0.342l-0.108-0.343-0.188-0.259-0.255-0.162-0.307-0.058-0.381 0.09-0.292 0.253-0.188 0.414-0.064 0.562 0.064 0.562 0.188 0.414 0.292 0.256 0.381 0.086 0.335-0.068 0.271-0.191 0.191-0.314 0.1-0.425z" fill="#000000" fill-rule="evenodd" stroke="none"/>
      </g>
      <g transform="matrix(1 0 0 1 31.608 -87.047)" fill="none" stroke="#000000">
       <path d="m398.92 272.24v0.252h2.168v-0.252z" fill="#000000" fill-rule="evenodd" stroke="none"/>
      </g>
      <g transform="matrix(1 0 0 1 34.119 -87.047)" fill="none" stroke="#000000">
       <path d="m387.5 262.48h-0.832v2.5h0.832l0.393-0.079 0.292-0.242 0.18-0.392 0.065-0.537-0.058-0.547-0.072-0.217-0.101-0.172-0.292-0.235-0.19-0.057zm-0.025 0.299 0.274 0.054 0.187 0.166 0.112 0.295 0.036 0.436-0.04 0.422-0.111 0.295-0.191 0.176-0.267 0.058h-0.472v-1.902z" fill="#000000" fill-rule="evenodd" stroke="none"/>
      </g>
      <g transform="matrix(1 0 0 1 31.608 -87.047)" fill="none" stroke="#000000">
       <path d="m398.92 265.57v0.252h2.168v-0.252z" fill="#000000" fill-rule="evenodd" stroke="none"/>
      </g>
      <g transform="matrix(1 0 0 1 34.119 -87.047)" fill="none" stroke="#000000">
       <path d="m386.74 258.31h1.585v-0.302h-1.254v-0.847h1.117v-0.299h-1.117v-0.749h1.225v-0.303h-1.556z" fill="#000000" fill-rule="evenodd" stroke="none"/>
      </g>
      <g transform="matrix(1 0 0 1 31.608 -87.047)" fill="none" stroke="#000000">
       <path d="m398.92 258.91v0.253h2.168v-0.253z" fill="#000000" fill-rule="evenodd" stroke="none"/>
      </g>
      <g transform="matrix(1 0 0 1 34.119 -87.047)" fill="none" stroke="#000000">
       <path d="m386.76 251.64h0.335v-1.149h1.051v-0.299h-1.051v-0.75h1.293v-0.302h-1.628z" fill="#000000" fill-rule="evenodd" stroke="none"/>
      </g>
      <g transform="matrix(1 0 0 1 31.608 -87.047)" fill="none" stroke="#000000">
       <path d="m398.92 252.24v0.252h2.168v-0.252z" fill="#000000" fill-rule="evenodd" stroke="none"/>
      </g>
      <g transform="matrix(1 0 0 1 34.119 -87.047)" fill="none" stroke="#000000">
       <path d="m388.16 244.64 0.061 0.335h0.181v-1.351h-0.912v0.306h0.562v0.022l-0.043 0.331-0.115 0.245-0.177 0.155-0.22 0.051-0.245-0.065-0.19-0.195-0.123-0.32-0.043-0.44 0.039-0.436 0.123-0.32 0.194-0.195 0.263-0.068 0.181 0.036 0.147 0.101 0.108 0.169 0.062 0.227h0.356l-0.093-0.346-0.177-0.259-0.249-0.159-0.313-0.057-0.411 0.09-0.309 0.263-0.199 0.414-0.068 0.551 0.068 0.555 0.199 0.414 0.291 0.263 0.368 0.087 0.205-0.029 0.184-0.072 0.158-0.126z" fill="#000000" fill-rule="evenodd" stroke="none"/>
      </g>
      <g transform="matrix(1 0 0 1 31.608 -87.047)" fill="none" stroke="#000000">
       <path d="m398.92 245.57v0.252h2.168v-0.252z" fill="#000000" fill-rule="evenodd" stroke="none"/>
      </g>
     </g>
    </g>
    <text x="301.2355" y="198.72655" fill="#000000" font-family="Arial" style="line-height:0%"><tspan x="301.2355" y="198.72655" font-size="2.5px" style="line-height:1.25">This drawing is our property; it can't be reproduced or communicated without our written consent.</tspan></text>
    <text x="304.01172" y="179.39999" fill="#000000" font-family="Arial" style="line-height:0%"><tspan x="304.01172" y="179.39999" font-size="7.9022px" style="line-height:1.25">A4</tspan></text>
    <g transform="matrix(.21138 0 0 .21138 405.73 169.73)">
     <g transform="matrix(.85064 0 0 .85064 187.83 -.196)" fill-rule="evenodd" stroke-width="1.91">
      <path d="m-216.14 7.2708v55.5h12.375v-21.719h8.75v-8.5625h-8.75v-9.2419h21.555v-15.946z" fill="url(#a)" stroke="#370700"/>
      <path d="m-161.05 23.812-7.1983 4.1299-3.1787-1.1031-3.0327-7.7507-4.7707 0.2507-2.176 8.0147-3.0455 1.4584-7.5959-3.3228-3.2083 3.5652 4.1299 7.1983-1.1286 3.1694-7.7507 3.0327 0.27618 4.78 8.0147 2.176 1.4584 3.0455-3.3483 7.5866 3.5652 3.2083 7.1982-4.1299 3.1949 1.1379 3.0073 7.7414 4.8054-0.26688 2.1505-8.024 3.0455-1.4584 7.6121 3.3576 3.2083-3.5652-4.1299-7.1983 1.1124-3.2042 7.7414-3.0073-0.24138-4.7961-8.024-2.1505-1.4584-3.0455 3.3321-7.6214zm-10.781 11.804 1.4776 0.85736 1.2802 1.1607 1.0249 1.3852 0.73729 1.5401 0.43349 1.6602 0.0718 1.7015-0.24575 1.701-0.56084 1.6148-0.89215 1.4938-1.1259 1.264-1.3852 1.0249-1.5401 0.73729-1.6602 0.43348-1.7108 0.09731-1.701-0.24573-1.6148-0.56085-1.4938-0.89215-1.2548-1.1514-1.0342-1.3597-0.73731-1.5401-0.42417-1.6857-0.0973-1.7108 0.24573-1.701 0.56086-1.6148 0.88284-1.4684 1.1353-1.2895 1.3852-1.0249 1.5401-0.73729 1.6857-0.42417 1.7015-0.07182 1.701 0.24573 1.6148 0.56085z" fill="url(#b)" stroke="#000137"/>
     </g>
    </g>
   </g>
   <g fill="#000000" font-family="Arial" letter-spacing="0px" word-spacing="0px">
    <text x="147.9312" y="160.67236" style="line-height:0%" freecad:editable="Designed_by_Name"><tspan x="147.9312" y="160.67236" font-size="3.95px" style="line-height:1.25" xml:space="preserve">Designed by Name</tspan></text>
    <text x="147.93056" y="168.59135" style="line-height:0%" freecad:editable="FC-Date"><tspan x="147.93056" y="168.59135" font-size="3.95px" style="line-height:1.25" xml:space="preserve">Date</tspan></text>
    <text x="154.46243" y="191.45177" text-align="center" text-anchor="middle" style="line-height:0%" freecad:editable="FC-SC"><tspan x="154.46243" y="191.45177" font-size="3.95px" style="line-height:1.25" xml:space="preserve">Scale</tspan></text>
    <text x="173.94231" y="191.44733" text-align="center" text-anchor="middle" style="line-height:0%" freecad:editable="Weight"><tspan x="173.94231" y="191.44733" font-size="3.95px" style="line-height:1.25" xml:space="preserve">Weight</tspan></text>
    <g>
     <text x="186.05237" y="158.72597" style="line-height:0%" freecad:editable="FC-Title"><tspan x="186.05237" y="158.72597" font-size="5.6444px" style="line-height:1.25" xml:space="preserve">Title</tspan></text>
     <text x="185.99422" y="165.73558" style="line-height:0%" freecad:editable="Subtitle"><tspan x="185.99422" y="165.73558" font-size="3.9511px" style="line-height:1.25" xml:space="preserve">Subtitle</tspan></text>
     <text x="185.6927" y="191.31752" style="line-height:0%" freecad:editable="Drawing_number"><tspan x="185.6927" y="191.31752" font-size="3.9511px" style="line-height:1.25" xml:space="preserve">Drawing number</tspan></text>
     <text x="248.32477" y="191.45177" style="line-height:0%" freecad:editable="FC-SH"><tspan x="248.32477" y="191.45177" font-size="3.9511px" style="line-height:1.25" xml:space="preserve">Sheet</tspan></text>
    </g>
   </g>
  </g>
  <g id="e" transform="matrix(.56649 0 0 .56649 596.8 439.06)" fill-rule="evenodd" font-family="'Sans Serif'" font-size="28.222px" font-weight="400" stroke-linecap="square" stroke-linejoin="bevel">
   <g transform="translate(1485,1050)" fill="#ffffff">
    <path d="m-109.3 4.1084 7e-3 18.016 17.322 22.118 103.89 34.436 17.309-10.639 80.065-79.525-7e-3 -18.016-34.631-11.479-0.0058-14.74-69.263-22.958-11.126 11.051-23.5-7.7891-80.065 79.525" fill-rule="evenodd" vector-effect="non-scaling-stroke"/>
   </g>
   <g transform="translate(1485,1050)" fill="none" stroke="#000000" stroke-linecap="square" stroke-linejoin="bevel">
    <rect width="0" height="0"/>
   </g>
   <g transform="translate(1485,1050)" fill="#ffffff">
    <path d="m-5.4104 23.804 80.065-79.525-69.263-22.958-80.065 79.525 69.263 22.958" fill-rule="evenodd" vector-effect="non-scaling-stroke"/>
   </g>
   <g transform="translate(1485,1050)" fill="none" stroke="#000000" stroke-linecap="square" stroke-linejoin="bevel">
    <rect width="0" height="0"/>
   </g>
   <g transform="translate(1485,1050)" fill="#ffffff">
    <path d="m29.234 68.039-0.0071-18.016-34.632-11.479-0.00579-14.74-69.263-22.958 0.0057 14.74-34.631-11.479 7e-3 18.016 17.322 22.118 103.89 34.436 17.309-10.639" fill-rule="evenodd" vector-effect="non-scaling-stroke"/>
   </g>
   <g transform="translate(1485,1050)" fill="none" stroke="#000000" stroke-linecap="square" stroke-linejoin="bevel">
    <rect width="0" height="0"/>
   </g>
   <g transform="translate(1485,1050)" fill="#ffffff">
    <path d="m29.227 50.024 80.065-79.525-34.631-11.479-80.065 79.525 34.632 11.479" fill-rule="evenodd" vector-effect="non-scaling-stroke"/>
   </g>
   <g transform="translate(1485,1050)" fill="none" stroke="#000000" stroke-linecap="square" stroke-linejoin="bevel">
    <rect width="0" height="0"/>
   </g>
   <g transform="translate(1485,1050)" fill="#ffffff">
    <path d="m-74.674 0.84681 68.939-68.474-23.5-7.7891-80.065 79.525 34.631 11.479-0.0057-14.74" fill-rule="evenodd" vector-effect="non-scaling-stroke"/>
   </g>
   <g transform="translate(1485,1050)" fill="none" stroke="#000000" stroke-linecap="square" stroke-linejoin="bevel">
    <rect width="0" height="0"/>
   </g>
   <g transform="translate(1485,1050)" fill="#ffffff">
    <path d="m29.234 68.039 80.065-79.525-7e-3 -18.016-80.065 79.525 0.0071 18.016" fill-rule="evenodd" vector-effect="non-scaling-stroke"/>
   </g>
   <g transform="translate(1485,1050)" fill="none" stroke="#000000" stroke-linecap="square" stroke-linejoin="bevel">
    <rect width="0" height="0"/>
   </g>
   <g transform="translate(1485,1050)" fill="#ffffff">
    <path d="m25.964-18.828c2.2138-2.7431 3.1198-5.8238 2.5466-8.8125-0.5027-2.6817-2.1948-5.2818-4.8984-7.4686-4.6207-3.8031-12.408-6.2583-20.401-6.3186-7.9697-0.6373-16.365 1.1673-21.648 4.653-3.2213 2.0862-5.321 4.7321-5.9484 7.4957-0.934 2.1547-0.9608 4.4426-0.102 6.623l0.3495 0.7891c0.5085 1.0263 1.2008 2.0117 2.0771 2.9563 0.332 0.3578 0.6885 0.7075 1.0696 1.0493 1.351 1.2091 2.9662 2.2917 4.8455 3.2479 0.7896 0.4014 1.6172 0.7759 2.4828 1.1233l0.216 0.0858c6.0781 2.4091 13.862 3.3381 21.188 2.5984 0.45091-0.0297 1.0017-0.0907 1.6522-0.1829 2.7836-0.3903 6.2669-1.3159 9.1147-2.5881 2.1928-0.9606 4.1297-2.1396 5.5493-3.3121 0.8821-0.7218 1.5746-1.4574 1.9066-1.939" fill-rule="evenodd" vector-effect="non-scaling-stroke"/>
   </g>
   <g transform="translate(1485,1050)" fill="none" stroke="#000000" stroke-linecap="square" stroke-linejoin="bevel">
    <rect width="0" height="0"/>
   </g>
   <g transform="translate(1485,1050)" fill="#ffffff">
    <path d="m-5.4046 38.545 80.065-79.525-0.0058-14.74-80.065 79.525 0.00579 14.74" fill-rule="evenodd" vector-effect="non-scaling-stroke"/>
   </g>
   <g transform="translate(1485,1050)" fill="none" stroke="#000000" stroke-linecap="square" stroke-linejoin="bevel">
    <rect width="0" height="0"/>
   </g>
   <g transform="translate(1485,1050)" fill="#ffffff">
    <path d="m-24.487-22.656c0.5162-2.9559 3.0921-5.7872 7.1457-7.786 4.0306-2.012 9.5038-3.1714 15.183-3.1481 5.6763 0.0049 11.509 1.1949 16.181 3.3695 4.6901 2.1593 8.1782 5.287 9.6762 8.7446 0.4402-1.0078 0.7156-2.0316 0.826-3.0713-0.2687-2.5637-1.5838-5.0844-3.7868-7.2839-2.1955-2.2022-5.2737-4.0787-8.8632-5.4293-8.6427-2.5861-19.061-2.6125-27.154-0.2299-4.9634 1.9066-8.3027 4.9513-9.1059 8.2114-0.934 2.1547-0.9608 4.4426-0.102 6.623" fill-rule="evenodd" vector-effect="non-scaling-stroke"/>
   </g>
   <g transform="translate(1485,1050)" fill="none" stroke="#000000" stroke-linecap="square" stroke-linejoin="bevel">
    <rect width="0" height="0"/>
   </g>
   <g transform="translate(1485,1050)" fill="#ffffff">
    <path d="m21.279-17.822c0.7664-0.8426 1.4035-1.7193 1.9113-2.63-1.9635-3.5546-6.0721-6.6567-11.312-8.6192-8.6427-2.5861-19.061-2.6126-27.154-0.23-4.5617 1.7555-7.7653 4.4692-8.8616 7.4345 0.5085 1.0263 1.2008 2.0117 2.0771 2.9563 1.9208-2.0148 4.9066-3.7247 8.5517-4.8659 3.6389-1.1467 7.9261-1.7205 12.279-1.6121 4.3526 0.1018 8.7581 0.8861 12.618 2.2778 3.865 1.3859 7.1726 3.3757 9.4736 5.7303l0.4168-0.4417" fill-rule="evenodd" vector-effect="non-scaling-stroke"/>
   </g>
   <g transform="translate(1485,1050)" fill="none" stroke="#000000" stroke-linecap="square" stroke-linejoin="bevel">
    <rect width="0" height="0"/>
   </g>
   <g transform="translate(1485,1050)" fill="#ffffff">
    <path d="m15.171-13.284c1.7473-0.9055 3.2813-1.9297 4.6021-3.0727-2.0927-1.814-4.8046-3.3635-7.8915-4.526-8.6427-2.586-19.061-2.6125-27.154-0.2299-2.287 0.8904-4.193 1.9741-5.7182 3.251 1.351 1.2091 2.9662 2.2917 4.8455 3.2479 4.2623-1.8428 9.8493-2.7918 15.513-2.5677 5.6629 0.2059 11.354 1.5854 15.803 3.8974" fill-rule="evenodd" vector-effect="non-scaling-stroke"/>
   </g>
   <g transform="translate(1485,1050)" fill="none" stroke="#000000" stroke-linecap="square" stroke-linejoin="bevel">
    <rect width="0" height="0"/>
   </g>
   <g transform="translate(1485,1050)" fill="#ffffff">
    <path d="m-24.487-22.656 0.3495 0.7891c1.0963-2.9653 4.2999-5.679 8.8616-7.4345 3.7689-1.4659 8.4367-2.271 13.236-2.2409 4.798 0.0204 9.7063 0.877 13.918 2.4709 5.2403 1.9625 9.3489 5.0646 11.312 8.6192 0.1883-0.3379 0.3578-0.6792 0.5084-1.0238-1.498-3.4576-4.9861-6.5853-9.6762-8.7446-4.6716-2.1746-10.505-3.3646-16.181-3.3695-5.6792-0.0233-11.152 1.1361-15.183 3.1481-4.0536 1.9988-6.6295 4.8301-7.1457 7.786" fill-rule="evenodd" vector-effect="non-scaling-stroke"/>
   </g>
   <g transform="translate(1485,1050)" fill="none" stroke="#000000" stroke-linecap="square" stroke-linejoin="bevel">
    <rect width="0" height="0"/>
   </g>
   <g transform="translate(1485,1050)" fill="#ffffff">
    <path d="m25.964-18.828-4.8937 1.2267 0.2085-0.2209c0.7664-0.8426 1.4035-1.7193 1.9113-2.63 0.1883-0.3379 0.3578-0.6792 0.5084-1.0238 0.4402-1.0078 0.7156-2.0316 0.826-3.0713 0.036-0.3408 0.0539-0.6821 0.0538-1.0236 0.0171-3.7009-2.1939-7.384-6.1-10.236-3.8781-2.8663-9.4123-4.8763-15.268-5.6206 7.9936 0.0603 15.781 2.5155 20.401 6.3186 2.7036 2.1868 4.3957 4.7869 4.8984 7.4686 0.5732 2.9887-0.3328 6.0694-2.5466 8.8125" fill-rule="evenodd" vector-effect="non-scaling-stroke"/>
   </g>
   <g transform="translate(1485,1050)" fill="none" stroke="#000000" stroke-linecap="square" stroke-linejoin="bevel">
    <rect width="0" height="0"/>
   </g>
   <g transform="translate(1485,1050)" fill="#ffffff">
    <path d="m19.773-16.356c0.3843-0.3331 0.7474-0.6745 1.0895-1.0241-2.301-2.3546-5.6086-4.3444-9.4736-5.7303-3.8598-1.3917-8.2653-2.176-12.618-2.2778-4.3532-0.1084-8.6404 0.4654-12.279 1.6121-3.6451 1.1412-6.6309 2.8511-8.5517 4.8659 0.332 0.3578 0.6885 0.7075 1.0696 1.0493 1.5252-1.2769 3.4312-2.3606 5.7182-3.251 3.7688-1.4659 8.4366-2.271 13.236-2.241 4.798 0.0205 9.7063 0.8771 13.918 2.4709 3.0869 1.1625 5.7988 2.712 7.8915 4.526" fill-rule="evenodd" vector-effect="non-scaling-stroke"/>
   </g>
   <g transform="translate(1485,1050)" fill="none" stroke="#000000" stroke-linecap="square" stroke-linejoin="bevel">
    <rect width="0" height="0"/>
   </g>
   <g transform="translate(1485,1050)" fill="#ffffff">
    <path d="m24.525-24.547c0.036-0.3408 0.0539-0.6821 0.0538-1.0236 0.0171-3.7009-2.1939-7.384-6.1-10.236-3.8781-2.8663-9.4123-4.8763-15.268-5.6206-7.9697-0.6373-16.365 1.1673-21.648 4.653-3.2213 2.0862-5.321 4.7321-5.9484 7.4957 0.8032-3.2601 4.1425-6.3048 9.1059-8.2114 3.7689-1.466 8.4366-2.2711 13.236-2.241 4.798 0.0204 9.7063 0.877 13.918 2.4709 3.5895 1.3506 6.6677 3.2271 8.8632 5.4293 2.203 2.1995 3.5181 4.7202 3.7868 7.2839" fill-rule="evenodd" vector-effect="non-scaling-stroke"/>
   </g>
   <g transform="translate(1485,1050)" fill="none" stroke="#000000" stroke-linecap="square" stroke-linejoin="bevel">
    <rect width="0" height="0"/>
   </g>
   <g transform="translate(1485,1050)" fill="#ffffff">
    <path d="m7.7416-10.806c0.45091-0.0297 1.0017-0.0907 1.6522-0.1829 1.2445-0.3673 2.4387-0.7907 3.5826-1.2704l-1.0919-0.4341c-8.0056-2.3883-17.54-2.607-25.331-0.711 6.0781 2.4091 13.862 3.3381 21.188 2.5984" fill-rule="evenodd" vector-effect="non-scaling-stroke"/>
   </g>
   <g transform="translate(1485,1050)" fill="none" stroke="#000000" stroke-linecap="square" stroke-linejoin="bevel">
    <rect width="0" height="0"/>
   </g>
   <g transform="translate(1485,1050)" fill="#ffffff">
    <path d="m-13.662-13.49c7.4388-2.4441 17.704-2.2214 25.547 0.7968l1.0919 0.4341c0.7594-0.3186 1.4908-0.6601 2.1943-1.0245-4.4485-2.312-10.14-3.6915-15.803-3.8974-5.6637-0.2241-11.251 0.7249-15.513 2.5677 0.7896 0.4014 1.6172 0.7759 2.4828 1.1233" fill-rule="evenodd" vector-effect="non-scaling-stroke"/>
   </g>
   <g transform="translate(1485,1050)" fill="none" stroke="#000000" stroke-linecap="square" stroke-linejoin="bevel">
    <rect width="0" height="0"/>
   </g>
   <g transform="translate(1485,1050)" fill="#ffffff">
    <path d="m25.964-18.828-4.8937 1.2267 0.2084-0.2209-0.4168 0.4417c-0.3421 0.3496-0.7052 0.691-1.0895 1.0241-1.3208 1.143-2.8548 2.1672-4.6021 3.0727-0.7035 0.3644-1.4349 0.7059-2.1943 1.0245-1.1439 0.4797-2.3381 0.9031-3.5826 1.2704 2.7836-0.3903 6.2669-1.3159 9.1147-2.5881 2.1928-0.9606 4.1297-2.1396 5.5493-3.3121 0.8821-0.7218 1.5746-1.4574 1.9066-1.939" fill-rule="evenodd" vector-effect="non-scaling-stroke"/>
   </g>
   <g transform="translate(1485,1050)" fill="none" stroke="#000000" stroke-linecap="square" stroke-linejoin="bevel">
    <rect width="0" height="0"/>
   </g>
   <g transform="translate(1485,1050)" fill="#ffffff">
    <path d="m11.875-37.26c-8.6427-2.5861-19.061-2.6125-27.154-0.2299 3.7689-1.466 8.4366-2.2711 13.236-2.241 4.798 0.0204 9.7063 0.877 13.918 2.4709" fill-rule="evenodd" vector-effect="non-scaling-stroke"/>
   </g>
   <g transform="translate(1485,1050)" fill="none" stroke="#000000" stroke-linecap="square" stroke-linejoin="bevel">
    <rect width="0" height="0"/>
   </g>
   <g transform="translate(1485,1050)" fill="#ffffff">
    <path d="m11.878-29.071c-8.6427-2.5861-19.061-2.6126-27.154-0.23 3.7689-1.4659 8.4367-2.271 13.236-2.2409 4.798 0.0204 9.7063 0.877 13.918 2.4709" fill-rule="evenodd" vector-effect="non-scaling-stroke"/>
   </g>
   <g transform="translate(1485,1050)" fill="none" stroke="#000000" stroke-linecap="square" stroke-linejoin="bevel">
    <rect width="0" height="0"/>
   </g>
   <g transform="translate(1485,1050)" fill="#ffffff">
    <path d="m11.881-20.882c-8.6427-2.586-19.061-2.6125-27.154-0.2299 3.7688-1.4659 8.4366-2.271 13.236-2.241 4.798 0.0205 9.7063 0.8771 13.918 2.4709" fill-rule="evenodd" vector-effect="non-scaling-stroke"/>
   </g>
   <g transform="translate(1485,1050)" fill="none" stroke="#000000" stroke-linecap="square" stroke-linejoin="bevel">
    <rect width="0" height="0"/>
   </g>
   <g transform="translate(1485,1050)" fill="#ffffff">
    <path d="m-13.662-13.49c7.4388-2.4441 17.704-2.2214 25.547 0.7968-8.0056-2.3883-17.54-2.607-25.331-0.711l-0.216-0.0858" fill-rule="evenodd" vector-effect="non-scaling-stroke"/>
   </g>
   <g transform="translate(1485,1050)" fill="none" stroke="#000000" stroke-linecap="square" stroke-linejoin="bevel">
    <rect width="0" height="0"/>
   </g>
   <g transform="translate(1485,1050)" fill="none" fill-rule="evenodd" stroke="#000000" stroke-linecap="round" stroke-linejoin="bevel" stroke-width="2.5">
    <path d="m29.234 68.039 80.065-79.525"/>
    <path d="m11.925 78.678 17.309-10.639"/>
    <path d="m-91.97 44.242 103.89 34.436"/>
    <path d="m29.227 50.024 80.065-79.525"/>
    <path d="m29.234 68.039-0.0071-18.016"/>
    <path d="m109.3-11.486-7e-3 -18.016"/>
    <path d="m29.227 50.024-34.632-11.479"/>
    <path d="m-5.4046 38.545-0.00579-14.74"/>
    <path d="m-5.4104 23.804-69.263-22.958"/>
    <path d="m-74.674 0.84681 0.0057 14.74"/>
    <path d="m-74.668 15.587-34.631-11.479"/>
    <path d="m-109.3 4.1084 7e-3 18.016"/>
    <path d="m-109.29 22.124 17.322 22.118"/>
    <path d="m109.29-29.502-34.631-11.479"/>
    <path d="m74.661-40.98-0.0058-14.74"/>
    <path d="m74.655-55.721-69.263-22.958"/>
    <path d="m-5.7341-67.628-23.5-7.7891"/>
    <path d="m-5.4046 38.545 80.065-79.525"/>
    <path d="m-5.4104 23.804 80.065-79.525"/>
    <path d="m-74.674 0.84681 80.065-79.525"/>
    <path d="m25.964-18.828c2.2138-2.7431 3.1198-5.8238 2.5466-8.8125-0.5027-2.6817-2.1948-5.2818-4.8984-7.4686-4.6207-3.8031-12.408-6.2583-20.401-6.3186"/>
    <path d="m-24.385-29.279c0.6274-2.7636 2.7271-5.4095 5.9484-7.4957 5.2821-3.4857 13.678-5.2903 21.648-4.653"/>
    <path d="m7.7416-10.806c-5.2079 0.5179-10.647 0.2172-15.54-0.8849-4.3778-0.9788-8.3075-2.5952-11.278-4.664-5.1767-3.5456-7.274-8.4872-5.3077-12.924"/>
    <path d="m7.7416-10.806c1.3245-0.0862 3.6123-0.4499 5.7371-1.0224 1.7499-0.4634 3.4265-1.0462 5.0298-1.7486 2.1928-0.9606 4.1297-2.1396 5.5493-3.3121"/>
    <path d="m24.058-16.889c0.8821-0.7218 1.5746-1.4574 1.9066-1.939"/>
    <path d="m-109.3 4.1084 80.065-79.525"/>
    <path d="m21.279-17.822c2.1555-2.3626 3.3059-5.054 3.2995-7.7487"/>
    <path d="m24.579-25.571c0.0171-3.7009-2.1939-7.384-6.1-10.236-3.8781-2.8663-9.4123-4.8763-15.268-5.6206"/>
    <path d="m25.964-18.828-4.6853 1.0058"/>
    <path d="m24.525-24.547c-0.3822-3.7779-3.092-7.447-7.4482-10.165-4.3279-2.7347-10.255-4.4922-16.29-4.9107-6.034-0.4419-12.111 0.4564-16.702 2.3886-4.6173 1.9143-7.6988 4.8381-8.4697 7.9554"/>
    <path d="m11.875-37.26c-8.6427-2.5861-19.061-2.6125-27.154-0.2299"/>
    <path d="m11.884-12.693c-8.0056-2.3883-17.54-2.607-25.331-0.711"/>
    <path d="m23.699-21.476c-1.498-3.4576-4.9861-6.5853-9.6762-8.7446-4.6716-2.1746-10.505-3.3646-16.181-3.3695-5.6792-0.0233-11.152 1.1361-15.183 3.1481-4.0536 1.9988-6.6295 4.8301-7.1457 7.786"/>
    <path d="m9.3938-10.989c4.9636-1.4566 9.2111-3.878 11.885-6.8334"/>
    <path d="m23.19-20.452c-1.7635-3.1836-5.236-6.0107-9.7201-7.9705-4.4702-1.9721-9.9216-3.0655-15.259-3.1176-5.3394-0.0666-10.529 0.9066-14.526 2.6673-4.014 1.7497-6.8086 4.273-7.8225 7.0061"/>
    <path d="m11.878-29.071c-8.6427-2.5861-19.061-2.6126-27.154-0.23"/>
    <path d="m12.976-12.259c-3.9836-1.6732-8.691-2.6673-13.385-2.8656-4.694-0.207-9.3553 0.3816-13.254 1.6347"/>
    <path d="m15.171-13.284c-4.4485-2.312-10.14-3.6915-15.803-3.8974-5.6637-0.2241-11.251 0.7249-15.513 2.5677"/>
    <path d="m11.881-20.882c-8.6427-2.586-19.061-2.6125-27.154-0.2299"/>
    <path d="m20.862-17.38c-2.301-2.3546-5.6086-4.3444-9.4736-5.7303-3.8598-1.3917-8.2653-2.176-12.618-2.2778-4.3532-0.1084-8.6404 0.4654-12.279 1.6121-3.6451 1.1412-6.6309 2.8511-8.5517 4.8659"/>
    <path d="m19.773-16.356c-4.7337-4.1591-12.825-6.7973-20.862-6.9814-8.0423-0.2536-15.761 1.94-19.901 5.4765"/>
   </g>
  </g>
  <g fill="#ffaf00">
   <g stroke-width=".11263">
    <path d="m1415.6 1068c-19.537-6.4769-29.156-9.7162-29.303-9.8675-0.1201-0.1239-2.2756-2.8557-4.7898-6.0706l-4.5714-5.8453v-4.4445c0-3.5083 0.03-4.4337 0.1407-4.3928 0.7845 0.2889 18.682 6.1671 18.777 6.1671 0.07 0 0.2518-0.1244 0.4038-0.2764l0.2765-0.2765v-7.5281l18.866 6.2603 18.866 6.2604v4.0702c0 3.735 0.016 4.0845 0.1971 4.2441 0.1085 0.096 4.5181 1.6005 9.7992 3.3441l9.602 3.1701v9.1882l-4.4673 2.7513c-2.457 1.5132-4.5224 2.7821-4.5898 2.8198-0.067 0.038-13.211-4.2706-29.207-9.5739z"/>
    <path d="m1386.2 1038.7c-4.6617-1.5593-8.4664-2.8858-8.455-2.9478 0.011-0.062 8.4378-8.4701 18.725-18.685 10.288-10.215 20.175-20.035 21.972-21.823l3.2671-3.2505 11.622 3.8859-10.261 10.188c-5.6434 5.6036-14.278 14.189-19.187 19.078l-8.9262 8.8895v3.7586c0 2.9366-0.031 3.7567-0.1408 3.7498-0.077 0-3.9548-1.2847-8.6164-2.844z"/>
    <path d="m1415.9 1040.2c-10.242-3.3983-18.641-6.1975-18.664-6.2204-0.043-0.042 37.955-37.832 41.918-41.689l2.1796-2.1211 18.614 6.1615c10.238 3.3889 18.676 6.1946 18.751 6.235 0.1504 0.08-43.754 43.754-44.023 43.791-0.085 0.012-8.5348-2.7589-18.777-6.1572zm26.515-11.725c1.5168-0.1493 3.3647-0.5383 4.7783-1.0059 2.4465-0.8092 4.9735-2.3648 6.0703-3.7369 0.6475-0.81 1.3893-2.2481 1.5839-3.0706 0.1732-0.7319 0.1715-2.2275 0-2.9346-0.9679-3.9157-5.5067-6.9435-11.818-7.884-1.921-0.2862-6.1758-0.3517-7.9643-0.1226-4.4983 0.5762-8.2158 2.25-10.138 4.5645-1.3387 1.612-2.049 3.8221-1.8213 5.6667 0.5213 4.2239 6.1235 7.7571 13.503 8.5161 1.3935 0.1433 4.389 0.1471 5.8092 0.01z"/>
    <path d="m1455.3 1066.6v-4.003l43.758-43.466 0.03 3.9962 0.03 3.9963-0.987 0.9706c-1.1546 1.1354-34.142 33.87-39.311 39.009l-3.5198 3.4999z"/>
    <path d="m1445.3 1058.3c-4.8475-1.621-8.8007-2.9861-8.7849-3.0336 0.016-0.048 9.9247-9.9133 22.02-21.924l21.991-21.837 8.9031 2.9586c4.8967 1.6273 8.9137 2.9915 8.9266 3.0318 0.038 0.1175-43.963 43.77-44.109 43.76-0.073 0-4.0987-1.3352-8.9463-2.9561z"/>
    <path d="m1435.7 1050.8v-3.0816l5.8851-5.8516c3.2368-3.2183 13.095-13.017 21.907-21.774l16.022-15.923v6.18l-43.814 43.531z"/>
   </g>
   <g stroke-width=".014079">
    <path d="m1438.7 1027.2c-1.646-0.055-3.1941-0.2387-4.686-0.5548-0.2863-0.061-0.5922-0.1314-0.5995-0.1387-0.016-0.016 1.0586-0.1124 1.6906-0.1509 0.7575-0.046 2.2186-0.054 2.9426-0.015 1.3467 0.071 2.3656 0.1812 3.5339 0.3809 0.537 0.092 1.3676 0.2593 1.3903 0.2804 0.029 0.027-1.3798 0.1453-2.1928 0.1845-0.4092 0.02-1.6592 0.028-2.0791 0.014z"/>
    <path d="m1446.4 1025.5c-2.096-0.9956-4.6596-1.6755-7.2571-1.9247-0.8822-0.085-1.4596-0.1112-2.4216-0.1114-0.7644-2e-4 -1.1089 0.011-1.7318 0.055-2.1273 0.1519-4.2319 0.6006-5.9019 1.2583-0.1 0.039-0.188 0.072-0.1957 0.072-0.021 0-0.4803-0.261-0.7142-0.4063-0.2836-0.176-0.8415-0.5519-0.9008-0.6068-0.029-0.027 0.6751-0.4419 1.1587-0.6836 0.6065-0.303 1.0616-0.4902 1.4506-0.5966 2.9631-0.8103 6.3715-1.0606 9.7917-0.7189 1.516 0.1515 3.0286 0.4324 4.442 0.825 0.802 0.2228 2.1215 0.8289 3.0692 1.41 0.2052 0.1258 0.6558 0.4244 0.795 0.5269 0.034 0.025 0.061 0.052 0.059 0.059 0 0.01-0.089 0.073-0.193 0.1468-0.3178 0.2243-0.7483 0.4959-1.1121 0.7013l-0.1485 0.084z"/>
    <path d="m1449.7 1022.9c-0.1813-0.1602-0.559-0.4591-0.8095-0.6408-2.529-1.8337-6.0041-3.0265-9.8555-3.3827-1.2345-0.1142-2.6484-0.1321-3.8929-0.049-3.0543 0.2033-5.8398 0.968-7.9477 2.182-0.5062 0.2915-1.0446 0.6613-1.4413 0.9898-0.076 0.063-0.1429 0.1148-0.1478 0.1145-0.018 0-0.2701-0.3704-0.3824-0.5609l-0.061-0.104 0.052-0.1002c0.2246-0.4364 0.5222-0.8314 0.9458-1.2556 0.449-0.4496 0.9225-0.8183 1.5232-1.1863 0.6914-0.4235 1.6318-0.8634 2.1678-1.014 1.5113-0.4249 3.2183-0.7075 4.9824-0.8252 0.7185-0.048 1.0082-0.056 1.9359-0.056 0.9304 0 1.2234 0.01 1.9429 0.057 1.9462 0.1305 3.8326 0.4495 5.5467 0.9379 0.7156 0.2039 1.9008 0.7483 2.8234 1.2969 1.2285 0.7304 2.2986 1.6598 2.9942 2.6003 0.1268 0.1715 0.2651 0.3734 0.2651 0.387 0 0.037-0.4954 0.7121-0.5209 0.7101 0-3e-4 -0.058-0.045-0.1197-0.1z"/>
    <path d="m1451.2 1019.8c-0.01-0.013-0.071-0.094-0.1392-0.1789-0.6987-0.871-1.5711-1.6529-2.6319-2.359-2.2975-1.5294-5.3712-2.5808-8.7014-2.9765-1.0208-0.1213-1.8307-0.1676-2.9355-0.1677-1.1615-2e-4 -2.0514 0.055-3.0763 0.1888-4.0236 0.5276-7.2702 1.9991-9.0021 4.0803-0.1 0.12-0.1027 0.1146-0.052-0.1011 0.045-0.1909 0.1196-0.4195 0.2036-0.6247 0.037-0.091 0.086-0.2294 0.1072-0.3068 0.3848-1.3814 1.7881-2.7424 3.7985-3.6839 0.6419-0.3006 0.9122-0.3977 1.5806-0.5677 3.2483-0.8264 7.1218-0.9864 10.734-0.4433 1.3221 0.1987 3.0048 0.5837 3.6535 0.8359 2.3483 0.9128 4.215 2.2165 5.344 3.7323 0.515 0.6913 0.8678 1.4116 1.0478 2.1385 0.047 0.1905 0.096 0.445 0.088 0.4536 0 0-0.011-0.01-0.019-0.02z"/>
   </g>
   <path d="m1451.8 1022.6c0-0.01 0.081-0.1802 0.1809-0.3872 0.4712-0.9802 0.6719-1.8422 0.6712-2.8823-7e-4 -1.0438-0.2083-1.9034-0.7025-2.9085-0.4003-0.8143-1.1154-1.7799-1.7876-2.414-0.1063-0.1004-0.1823-0.1824-0.1688-0.1824 0.014 0 0.1643 0.1 0.3351 0.2212 0.9587 0.6828 1.7406 1.4559 2.2648 2.2392 1.1206 1.6748 1.2458 3.4147 0.372 5.1699-0.1869 0.3752-0.5136 0.9067-0.6259 1.018-0.057 0.057-0.5392 0.1694-0.5392 0.1261z" stroke-width=".028158"/>
  </g>
 </g>
</svg>
