<?xml version="1.0" encoding="UTF-8" standalone="no"?>
<svg
   width="48"
   height="48"
   version="1.2"
   viewBox="0 0 127 127"
   id="svg45"
   xmlns="http://www.w3.org/2000/svg"
   xmlns:svg="http://www.w3.org/2000/svg">
  <defs
     id="defs45" />
  <g
     transform="translate(-1374,-970)"
     fill="#ffaf00"
     stroke-width=".113"
     id="g1"
     style="stroke-width:2.64583;stroke-dasharray:none">
    <path
       d="m 1421,991 -45.3,45 -0.045,10.2 9.79,12.5 c 0,0 58.4,19.6 58.6,19.5 0.232,-0.051 10,-6.05 10,-6.05 0,0 44.9,-45 44.9,-45 l -0.01,-10.2 -19.2,-6.5 -0.01,-8.32 -39.2,-13 -6.56,6.25 z"
       id="path1"
       style="stroke-width:2.64583;stroke-dasharray:none" />
  </g>
  <g
     id="e"
     transform="matrix(.566 0 0 .566 -777 -531)"
     fill="none"
     fill-rule="evenodd"
     stroke="#000000"
     stroke-linecap="round"
     stroke-linejoin="bevel"
     stroke-width="2.5"
     style="stroke-width:2.50092034;stroke-dasharray:none">
    <path
       d="m 1480.5249,1073.8034 78.8478,-79.10005 -68.6452,-23 -78.5507,79.00005 68.3481,23"
       id="path2"
       style="stroke-width:4.67462;stroke-linecap:round;stroke-linejoin:round;stroke-dasharray:none" />
    <path
       d="m 1514.2036,1099.8034 78.2357,-79.0757 -33.0666,-11.3243 -78.8478,79.2 33.6787,11.2"
       id="path3"
       style="stroke-width:4.67462;stroke-linecap:round;stroke-linejoin:round;stroke-dasharray:none" />
    <path
       d="m 1511.2319,1030.8034 c 2.1892,-2.74 3.0906,-5.82 2.5259,-8.81 -0.4982,-2.68 -2.1693,-5.28 -4.8537,-7.47 -4.5763,-3.8 -12.2828,-6.26 -20.2072,-6.32 -7.8947,-0.637 -16.245,1.17 -21.3959,4.65 -3.1896,2.09 -5.2697,4.73 -5.8938,7.5 -0.9252,2.15 -0.9519,4.44 -0.101,6.62 l 0.3467,0.789 c 0.5032,1.03 1.1886,2.01 2.0603,2.96 0.3289,0.358 0.6815,0.708 1.0599,1.05 1.3373,1.21 2.9419,2.29 4.8042,3.25 0.7825,0.401 1.6047,0.776 2.4565,1.12 l 0.214,0.086 c 6.0226,2.41 13.7687,3.34 20.9997,2.6 0.4467,-0.03 0.9905,-0.091 1.6344,-0.183 2.7537,-0.39 6.2108,-1.32 9.0239,-2.59 2.1693,-0.961 4.091,-2.14 5.4976,-3.31 0.8736,-0.722 1.5551,-1.46 1.8919,-1.94"
       id="path4"
       style="stroke-width:2.50092;stroke-dasharray:none" />
    <path
       d="m 1460.7138,1026.8034 c 0.5112,-2.96 3.0608,-5.79 7.0825,-7.79 3.9919,-2.01 9.4102,-3.17 15.0563,-3.15 5.6264,0 11.3914,1.19 16.047,3.37 4.6457,2.16 8.1027,5.29 9.5885,8.74 0.4359,-1.01 0.7092,-2.03 0.8182,-3.07 -0.2665,-2.56 -1.5651,-5.08 -3.7542,-7.28 -2.1792,-2.2 -5.2202,-4.08 -8.7763,-5.43 -8.5583,-2.59 -18.9195,-2.61 -26.943,-0.23 -4.9131,1.91 -8.2215,4.95 -9.0239,8.21 -0.9251,2.15 -0.9519,4.44 -0.101,6.62"
       id="path5"
       style="stroke-width:2.50092;stroke-dasharray:none" />
    <path
       d="m 1506.2792,1031.8034 c 0.7587,-0.843 1.3868,-1.72 1.8919,-2.63 -1.9414,-3.55 -6.0126,-6.66 -11.1932,-8.62 -8.5584,-2.59 -18.9195,-2.61 -26.943,-0.23 -4.5169,1.76 -7.6966,4.47 -8.7763,7.43 0.5032,1.03 1.1887,2.01 2.0604,2.96 1.9018,-2.01 4.8636,-3.72 8.4692,-4.87 3.6056,-1.15 7.8551,-1.72 12.1838,-1.61 4.3089,0.102 8.6772,0.886 12.4809,2.28 3.8235,1.39 7.1023,3.38 9.3805,5.73 l 0.4131,-0.442"
       id="path6"
       style="stroke-width:2.50092;stroke-dasharray:none" />
    <path
       d="m 1500.3359,1036.8034 c 1.7334,-0.906 3.249,-1.93 4.5565,-3.07 -2.0702,-1.81 -4.7546,-3.36 -7.8154,-4.53 -8.5584,-2.59 -18.9196,-2.61 -26.943,-0.23 -2.2684,0.89 -4.1504,1.97 -5.666,3.25 1.3373,1.21 2.942,2.29 4.8042,3.25 4.2197,-1.84 9.7569,-2.79 15.3535,-2.57 5.6066,0.206 11.2923,1.59 15.6507,3.9"
       id="path7"
       style="stroke-width:2.50092;stroke-dasharray:none" />
    <path
       d="m 1460.7138,1026.8034 0.3467,0.789 c 1.0896,-2.97 4.2594,-5.68 8.7763,-7.43 3.7344,-1.47 8.3603,-2.27 13.0753,-2.24 4.7546,0.02 9.6182,0.877 13.7686,2.47 5.1905,1.96 9.2617,5.06 11.1933,8.62 0.1862,-0.338 0.3546,-0.679 0.5032,-1.02 -1.4859,-3.46 -4.9429,-6.59 -9.5886,-8.74 -4.6258,-2.17 -10.4008,-3.36 -16.0469,-3.37 -5.6263,-0.023 -11.0942,1.14 -15.0564,3.15 -4.0117,2 -6.5673,4.83 -7.0824,7.79"
       id="path8"
       style="stroke-width:2.50092;stroke-dasharray:none" />
    <path
       d="m 1511.2319,1030.8034 -4.8438,1.23 0.2061,-0.221 c 0.7587,-0.843 1.3867,-1.72 1.8919,-2.63 0.1863,-0.338 0.3546,-0.679 0.5032,-1.02 0.4359,-1.01 0.7093,-2.03 0.8182,-3.07 0.036,-0.341 0.053,-0.682 0.053,-1.02 0.017,-3.7 -2.1693,-7.38 -6.0423,-10.2 -3.8434,-2.87 -9.3211,-4.88 -15.1555,-5.62 7.9145,0.06 15.6507,2.52 20.2073,6.32 2.6744,2.19 4.3584,4.79 4.8537,7.47 0.5675,2.99 -0.3299,6.07 -2.5259,8.81"
       id="path9"
       style="stroke-width:2.50092;stroke-dasharray:none" />
    <path
       d="m 1505.2886,1033.8034 c 0.3804,-0.333 0.74,-0.674 1.0797,-1.02 -2.2782,-2.35 -5.557,-4.34 -9.3805,-5.73 -3.8235,-1.39 -8.1918,-2.18 -12.4809,-2.28 -4.3089,-0.108 -8.5584,0.465 -12.1838,1.61 -3.6155,1.14 -6.5674,2.85 -8.4692,4.87 0.3288,0.358 0.6815,0.708 1.0599,1.05 1.5155,-1.28 3.3976,-2.36 5.6659,-3.25 3.7344,-1.47 8.3603,-2.27 13.0753,-2.24 4.7546,0.021 9.6182,0.877 13.7687,2.47 3.0608,1.16 5.7451,2.71 7.8154,4.53"
       id="path10"
       style="stroke-width:2.50092;stroke-dasharray:none" />
    <path
       d="m 1509.2508,1027.8034 c 0.036,-0.341 0.4517,-1.85 0.4517,-2.19 0.017,-3.7 -1.6641,-7.96 -5.5372,-10.8 -3.8433,-2.87 -9.321,-4.88 -15.1554,-5.62 -7.8947,-0.637 -16.245,1.17 -21.3959,4.65 -3.1896,2.09 -5.2697,4.73 -5.8938,7.5 0.7954,-3.26 4.1009,-6.3 9.024,-8.21 3.7343,-1.47 8.3602,-2.27 13.0752,-2.24 4.7547,0.02 9.6183,0.877 13.7687,2.47 3.5561,1.35 6.607,3.23 8.7763,5.43 2.1792,2.2 2.5853,5.3 2.8528,7.86"
       id="path11"
       style="stroke-width:2.50092;stroke-dasharray:none" />
    <path
       d="m 1493.402,1038.8034 c 0.4468,-0.03 0.9906,-0.091 1.6344,-0.183 1.2283,-0.367 2.417,-0.791 3.5462,-1.27 l -1.0797,-0.434 c -7.9343,-2.39 -17.3346,-2.61 -25.0609,-0.711 6.0225,2.41 13.7686,3.34 20.9996,2.6"
       id="path12"
       style="stroke-width:2.50092;stroke-dasharray:none" />
    <path
       d="m 1471.6099,1035.8034 c 7.3697,-2.44 17.5327,-2.22 25.259,0.797 l 1.0797,0.434 c 0.7519,-0.319 1.476,-0.66 2.1694,-1.02 -4.408,-2.31 -10.0046,-3.69 -15.6508,-3.9 -5.6065,-0.224 -11.1932,0.725 -15.3535,2.57 0.7825,0.401 1.6047,0.776 2.4566,1.12"
       id="path13"
       style="stroke-width:2.50092;stroke-dasharray:none" />
    <path
       d="m 1511.2319,1030.8034 -4.8438,1.23 0.2061,-0.221 -0.4131,0.442 c -0.3388,0.35 -0.6983,0.691 -1.0797,1.02 -1.3075,1.14 -2.8231,2.17 -4.5565,3.07 -0.6974,0.364 -1.4165,0.706 -2.1693,1.02 -1.1293,0.48 -2.3179,0.903 -3.5462,1.27 2.7537,-0.39 6.2108,-1.32 9.0239,-2.59 2.1693,-0.961 4.091,-2.14 5.4976,-3.31 0.8736,-0.722 1.5551,-1.46 1.8919,-1.94"
       id="path14"
       style="stroke-width:2.50092;stroke-dasharray:none" />
    <path
       d="m 1497.3642,1012.8034 c -8.5583,-2.59 -18.9195,-2.61 -26.943,-0.23 3.7344,-1.47 8.3603,-2.27 13.0753,-2.24 4.7547,0.02 9.6183,0.877 13.7687,2.47"
       id="path15"
       style="stroke-width:2.50092;stroke-dasharray:none" />
    <path
       d="m 1497.3642,1020.8034 c -8.5583,-2.59 -18.9195,-2.61 -26.943,-0.23 3.7344,-1.47 8.3603,-2.27 13.0753,-2.24 4.7547,0.02 9.6183,0.877 13.7687,2.47"
       id="path16"
       style="stroke-width:2.50092;stroke-dasharray:none" />
    <path
       d="m 1497.3642,1028.8034 c -8.5583,-2.59 -18.9195,-2.61 -26.943,-0.23 3.7344,-1.47 8.3603,-2.27 13.0753,-2.24 4.7547,0.02 9.6183,0.877 13.7687,2.47"
       id="path17"
       style="stroke-width:2.50092;stroke-dasharray:none" />
    <path
       d="m 1471.6099,1035.8034 c 7.3697,-2.44 17.5327,-2.22 25.259,0.797 -7.9343,-2.39 -17.3346,-2.61 -25.0609,-0.711 l -0.214,-0.086"
       id="path18"
       style="stroke-width:2.50092;stroke-dasharray:none" />
    <path
       d="m 1514.2036,1099.8034 78.7488,-78.9"
       id="path19"
       style="stroke-width:2.50092;stroke-dasharray:none" />
    <path
       d="m 1514.2036,1117.8034 -0.01,-18"
       id="path20"
       style="stroke-width:4.67462;stroke-linecap:round;stroke-linejoin:round;stroke-dasharray:none" />
    <path
       d="m 1412.1768,1065.8034 -34.3672,-11.303"
       id="path21"
       style="stroke-width:4.67462;stroke-linecap:round;stroke-linejoin:round;stroke-dasharray:none" />
    <path
       d="m 1377.5075,1072.8034 17.1366,22.1"
       id="path22"
       style="stroke-width:4.67462;stroke-linecap:round;stroke-linejoin:round;stroke-dasharray:none" />
    <path
       d="m 1559.7689,1009.8034 -0.015,-14.70005"
       id="path23"
       style="stroke-width:4.67462;stroke-linecap:round;stroke-linejoin:round;stroke-dasharray:none" />
    <path
       d="m 1511.2319,1030.8034 c 2.1892,-2.74 3.0906,-5.82 2.5259,-8.81 -0.4982,-2.68 -2.1693,-5.28 -4.8537,-7.47 -4.5763,-3.8 -12.2828,-6.26 -20.2072,-6.32"
       id="path24"
       style="stroke-width:2.50092;stroke-dasharray:none" />
    <path
       d="m 1493.402,1038.8034 c -17.6318,0.894 -36.3532,-3.61 -32.5891,-18.6"
       id="path25"
       style="stroke-width:2.50092;stroke-dasharray:none" />
    <path
       d="m 1509.2508,1032.8034 c 0.8737,-0.722 1.5552,-1.46 1.892,-1.94"
       id="path26"
       style="stroke-width:2.50092;stroke-dasharray:none" />
    <path
       d="m 1506.2792,1031.8034 c 2.1396,-2.36 3.2787,-5.05 3.2688,-7.75"
       id="path27"
       style="stroke-width:2.50092;stroke-dasharray:none" />
    <path
       d="m 1509.2508,1023.8034 c 0.017,-3.7 -1.4759,-7.63 -5.3489,-10.4 -3.8434,-2.87 -9.6975,-4.61 -15.5517,-5.35"
       id="path28"
       style="stroke-width:2.50092;stroke-dasharray:none" />
    <path
       d="m 1511.2319,1030.8034 -4.6457,1.01"
       id="path29"
       style="stroke-width:2.50092;stroke-dasharray:none" />
    <path
       d="m 1509.2508,1025.8034 c -0.3784,-3.78 -2.5457,-7.64 -6.8645,-10.4 -4.2891,-2.73 -10.2027,-4.49 -16.146,-4.91 -5.973,-0.442 -11.9856,0.456 -16.5422,2.39 -4.5763,1.91 -7.6272,4.84 -8.3899,7.96"
       id="path30"
       style="stroke-width:2.50092;stroke-dasharray:none" />
    <path
       d="m 1497.3642,1012.8034 c -8.5583,-2.59 -18.9195,-2.61 -26.943,-0.23"
       id="path31"
       style="stroke-width:2.50092;stroke-dasharray:none" />
    <path
       d="m 1497.3642,1036.8034 c -7.9343,-2.39 -17.3346,-2.61 -25.0609,-0.711"
       id="path32"
       style="stroke-width:2.50092;stroke-dasharray:none" />
    <path
       d="m 1508.2603,1026.8034 c -1.4858,-3.46 -4.2396,-6.01 -8.8853,-8.16 -4.6258,-2.17 -10.4007,-2.84 -16.0469,-2.85 -5.6263,-0.023 -11.0942,1.14 -15.0564,3.15 -4.0117,2 -6.5673,4.83 -7.0824,7.79"
       id="path33"
       style="stroke-width:2.50092;stroke-dasharray:none" />
    <path
       d="m 1494.3926,1038.8034 c 4.9131,-1.46 9.1229,-3.88 11.7875,-6.83"
       id="path34"
       style="stroke-width:2.50092;stroke-dasharray:none" />
    <path
       d="m 1508.2603,1029.8034 c -1.7434,-3.18 -5.1905,-6.01 -9.6282,-7.97 -4.4277,-1.97 -9.8262,-3.07 -15.1554,-3.12 -5.2895,-0.067 -10.4008,0.907 -14.363,2.67 -3.9721,1.75 -6.7456,4.27 -7.7461,7.01"
       id="path35"
       style="stroke-width:2.50092;stroke-dasharray:none" />
    <path
       d="m 1497.3642,1020.8034 c -8.5583,-2.59 -18.9195,-2.61 -26.943,-0.23"
       id="path36"
       style="stroke-width:2.50092;stroke-dasharray:none" />
    <path
       d="m 1498.3548,1037.8034 c -3.9424,-1.67 -8.6079,-2.67 -13.2734,-2.87 -4.6457,-0.207 -9.2716,0.382 -13.1743,1.63"
       id="path37"
       style="stroke-width:2.50092;stroke-dasharray:none" />
    <path
       d="m 1500.3359,1036.8034 c -4.408,-2.31 -10.0046,-3.69 -15.6507,-3.9 -5.6066,-0.224 -11.1933,0.725 -15.3536,2.57"
       id="path38"
       style="stroke-width:2.50092;stroke-dasharray:none" />
    <path
       d="m 1497.3642,1028.8034 c -8.5583,-2.59 -18.9195,-2.61 -26.943,-0.23"
       id="path39"
       style="stroke-width:2.50092;stroke-dasharray:none" />
    <path
       d="m 1506.2792,1032.8034 c -2.2783,-2.35 -5.557,-4.34 -9.3805,-5.73 -3.8236,-1.39 -8.1919,-2.18 -12.481,-2.28 -4.3089,-0.108 -8.5583,0.465 -12.1838,1.61 -3.6155,1.14 -6.5673,2.85 -8.4692,4.87"
       id="path40"
       style="stroke-width:2.50092;stroke-dasharray:none" />
    <path
       d="m 1480.5249,1073.8034 -0.036,14.8"
       id="path41"
       style="stroke-width:4.67462;stroke-linecap:round;stroke-linejoin:round;stroke-dasharray:none" />
    <path
       d="m 1412.1768,1050.8034 v 14.1523"
       id="path42"
       style="stroke-width:4.67462;stroke-linecap:round;stroke-linejoin:round;stroke-dasharray:none" />
    <path
       d="m 1377.5075,1054.8034 0.1982,18.2"
       id="path43"
       style="stroke-width:4.67462;stroke-linecap:round;stroke-linejoin:round;stroke-dasharray:none" />
    <path
       d="m 1394.3469,1094.8034 102.0268,34.2 17.5327,-10.7 78.5507,-79.5 -0.018,-18.0757"
       id="path44"
       style="stroke-width:4.67462;stroke-linecap:round;stroke-linejoin:round;stroke-dasharray:none" />
    <path
       d="m 1377.5075,1054.8034 79.2441,-79.50005 22.6836,7.74"
       id="path45"
       style="stroke-width:4.67462;stroke-linecap:round;stroke-linejoin:round;stroke-dasharray:none" />
  </g>
</svg>
