<?xml version="1.0" encoding="UTF-8" standalone="no"?>
<svg
   version="1.1"
   viewBox="0 0 48 48"
   id="svg2"
   xmlns="http://www.w3.org/2000/svg"
   xmlns:svg="http://www.w3.org/2000/svg"
   xmlns:rdf="http://www.w3.org/1999/02/22-rdf-syntax-ns#"
   xmlns:cc="http://creativecommons.org/ns#"
   xmlns:dc="http://purl.org/dc/elements/1.1/">
  <defs
     id="defs2" />
  <title
     id="title1">GN 506</title>
  <path
     d="M 28.331584,4.21578 C 27.996833,4.301671 28.101538,4.269462 27.986817,4.296302 L 26.869381,5.4058967 23.349142,4.240807 C 23.093526,4.316473 23.118575,4.295511 23.004395,4.322608 L 1.277233,25.907483 1.5150043,26.146498 h -0.336834 c 0,4.240447 0.9839326,7.77903 2.9680289,10.581597 1.9841692,2.802046 4.9593821,4.854228 8.8857628,6.154568 2.162201,0.715879 4.042882,1.018313 5.652144,0.890351 1.609261,-0.128066 2.951475,-0.698148 3.969379,-1.709423 0.0077,-0.0077 0.01279,-0.02045 0.02301,-0.02914 l 0.0014,0.0014 21.700093,-21.560927 0.0025,0.0025 c 0.0052,-0.0052 0.0102,-0.01534 0.01534,-0.02045 l 0.0077,-0.0077 -0.0014,-0.0014 c 1.64341,-1.653303 2.423835,-4.396105 2.423835,-8.187488 -0.172025,-0.206551 -0.153618,-0.213444 -0.231077,-0.321019 L 41.844872,10.366123 V 8.9367797 C 41.592587,8.714892 41.689463,8.7223053 41.612264,8.6157605 Z"
     color="#000000"
     fill="#ffaf00"
     style="stroke-width:1;stroke-linecap:round;stroke-linejoin:round;stroke-dasharray:none"
     id="path1" />
  <path
     d="M 22.437796,41.796431 44.164959,20.208432 M 27.396657,22.952276 A 8.0517206,4.6186072 2.8003564e-5 0 0 14.115072,18.553568 m 10.827662,6.839253 q 0.628806,-0.541928 1.226962,-1.137498 0.598124,-0.593061 1.226961,-1.303672 m -2.6e-5,2.04e-4 L 41.505909,8.9353782 M 11.661123,20.99338 c 0.843516,-0.72854 1.610302,-1.487754 2.453819,-2.438671 m 2.56e-4,7.6e-5 L 28.224475,4.5362254 M 19.778794,30.521162 24.94234,25.393101 M 11.659713,20.993144 a 8.0517206,4.6186072 2.8003564e-5 0 0 13.281586,4.398708 M 6.4967921,26.121569 11.659713,20.994133 M 19.778065,32.195237 41.505228,10.610362 M 26.958679,5.7920547 23.241668,4.5624113 m 18.263351,6.0479507 4.981662,1.64893 M 41.505019,8.9363392 V 10.610362 M 28.223434,4.5367981 41.505019,8.9364434 M 13.242738,22.361525 a 6.2848334,3.6050104 2.8003564e-5 0 0 11.727191,1.802506 m 0.841986,-1.802506 A 6.2848334,3.6050104 2.8003564e-5 0 0 13.242457,22.3615 m 11.727191,1.802506 A 6.2848334,3.6050104 2.8003564e-5 0 0 25.811634,22.3615 m -6.034339,8.159689 v 1.674023 l 4.981662,1.651637 M 6.4956051,27.799002 1.5133188,26.147365 m 4.9822863,-0.02557 v 1.677354 M 19.777191,30.521439 6.4956051,26.121794 M 1.5133188,26.147355 23.240481,4.56248 M 1.5133188,26.147355 q 0,12.56506 11.6230792,16.414333 M 24.758436,33.847359 46.485598,12.259361 m 2.31e-4,-5e-5 q 0,5.64678 -2.34648,7.978105 M 22.412187,41.823332 q -2.875578,2.856916 -9.27608,0.737744 m 11.62308,-8.714329 q 0,5.64501 -2.34648,7.976647"
     fill="none"
     stroke="#000000"
     stroke-width=".81849"
     id="path2"
     style="stroke-width:1;stroke-linecap:round;stroke-linejoin:round;stroke-dasharray:none" />
  <metadata
     id="metadata2">
    <rdf:RDF>
      <cc:Work
         rdf:about="">
        <dc:title>GN 506</dc:title>
      </cc:Work>
    </rdf:RDF>
  </metadata>
</svg>
