<?xml version="1.0" encoding="UTF-8"?>
<svg width="48" height="48" version="1.1" viewBox="0 0 12.7 12.7" xmlns="http://www.w3.org/2000/svg">
 <g id="Screw_proj" transform="matrix(.733 0 0 -.721 6.4 5.06)">
  <g transform="translate(0 .0734)">
   <g fill="#ffaf0f">
    <path d="m-1.4-7.41c0.645-0.0392 0.907-0.179 1.42-0.231 0.549 0.078 0.752 0.189 1.26 0.212-0.287-0.52-0.752-0.945-1.25-1.55-0.501 0.475-0.992 1.08-1.42 1.57z" stop-color="#000000"/>
    <ellipse transform="scale(1,-1)" cx="-.0178" cy="3.52" rx="3.07" ry="4.22" stop-color="#000000"/>
    <ellipse transform="scale(1,-1)" cx="-.0063" cy="-.0982" rx="6.01" ry="5.12" stop-color="#000000"/>
   </g>
   <g fill="none" stroke="#191919" stroke-width=".35">
    <path d="m-4.65 3.28c-1.58-1.47-1.7-4.06-0.585-5.84 0.961-1.52 2.72-2.42 4.47-2.6 2.22-0.222 4.63 0.651 5.94 2.5 1.04 1.5 1.12 3.63 0.089 5.16-1.31 2.09-3.96 3.12-6.35 2.69-1.35-0.224-2.65-0.88-3.56-1.91z" stroke-linecap="square"/>
    <path d="m-0.99 0.24c0.326 0.12 0.657 0.23 0.99 0.328 0.333-0.0986 0.664-0.208 0.99-0.328 0.392-0.339 0.77-0.693 1.13-1.05 0.245 0.162 0.464 0.352 0.651 0.564-0.258 0.445-0.54 0.883-0.839 1.3-0.0908 0.324-0.186 0.638-0.285 0.939 0.0986 0.275 0.194 0.535 0.285 0.775 0.267 0.231 0.544 0.452 0.839 0.648-0.187 0.212-0.406 0.402-0.651 0.564-0.388-0.0946-0.763-0.234-1.13-0.399-0.326-0.0372-0.657-0.0922-0.99-0.165-0.333 0.0723-0.664 0.127-0.99 0.165-0.392 0.178-0.77 0.312-1.13 0.399-0.245-0.162-0.464-0.352-0.651-0.564 0.258-0.171 0.54-0.389 0.839-0.648 0.0908-0.241 0.186-0.5 0.285-0.775-0.0986-0.302-0.194-0.616-0.285-0.939-0.299-0.42-0.58-0.857-0.839-1.3 0.187-0.212 0.406-0.402 0.651-0.564 0.356 0.361 0.734 0.715 1.13 1.05z" stroke-linecap="square"/>
    <g stroke-linecap="round">
     <path d="m1.93 1.05-0.283-1.41"/>
     <path d="m1.64 1.99-0.398-1.98"/>
     <path d="m-1.93 1.05 0.283-1.41"/>
     <path d="m-1.64 1.99 0.398-1.98"/>
     <path d="m-0.99 3.58-0.0292-2.23c-0.182-0.0553-0.319-0.161-0.437-0.282"/>
    </g>
    <path d="m0 3.42v-2.56" stroke-linecap="square"/>
    <path d="m0.99 3.58 0.0292-2.23c0.182-0.0553 0.319-0.161 0.437-0.282" stroke-linecap="round"/>
    <path d="m2.12 3.98c-0.355-0.867-0.71-1.73-1.1-2.63-0.351-0.2-0.678-0.363-1.02-0.488-0.342 0.125-0.668 0.288-1.02 0.488-0.386 0.899-0.742 1.77-1.1 2.63" stroke-linecap="round"/>
    <path d="m3-4.61c2.6e-6 -3.46-6-3.46-6-3.4e-6" stroke-linecap="square"/>
    <path d="m-2.19-6.67c1.28-1.12 3.08-1.14 4.38 4.3e-6" stroke-linecap="round"/>
    <g stroke-linecap="square">
     <path d="m-3-4.61a3 3 0 0 1 0.812-2.05"/>
     <path d="m2.19-6.67a3 3 0 0 1 0.812 2.05"/>
     <path d="m-2.19-6.67 2.19-2.33 2.19 2.33"/>
    </g>
   </g>
  </g>
 </g>
</svg>
