<?xml version="1.0" encoding="UTF-8"?>
<svg width="48" height="48" version="1.1" viewBox="0 0 12.7 12.7" xmlns="http://www.w3.org/2000/svg" xmlns:cc="http://creativecommons.org/ns#" xmlns:dc="http://purl.org/dc/elements/1.1/" xmlns:rdf="http://www.w3.org/1999/02/22-rdf-syntax-ns#">
 <metadata>
  <rdf:RDF>
   <cc:Work rdf:about="">
    <dc:format>image/svg+xml</dc:format>
    <dc:type rdf:resource="http://purl.org/dc/dcmitype/StillImage"/>
   </cc:Work>
  </rdf:RDF>
 </metadata>
 <g stroke="#000000" stroke-linecap="round" stroke-linejoin="round" stroke-width=".2646">
  <path d="m1.298 8.103s0.1884 0.6074 0.4452 1.235c0.5134 1.255 0.8888 1.616 0.8888 1.616s1.118 0.4958 2.28 0.683c1.766 0.2845 2.797 0.1026 2.797 0.1026s1.091-0.211 2.303-1.016c1.211-0.8046 1.415-1.131 1.415-1.131l4.23e-4 -3.146s-0.2502-0.7816-0.4278-1.211c-0.1777-0.4291-0.3019-0.6896-0.3019-0.6896s-0.6675-3.636-4.356-3.636c-3.394 0-4.261 3.276-4.261 3.276l-0.8086 0.6892z" fill="#ffaf00"/>
  <path d="m10.7 4.552s1.012 1.738-1.743 2.895c-2.886 1.212-5.196-0.02063-5.599-0.2025-2.289-1.034-1.358-2.692-1.358-2.692l0.08061-0.3654" fill="none"/>
  <path d="m2.632 10.95 5.926e-4 -3.146" fill="none"/>
  <path d="m7.71 8.594-3.175e-4 3.146" fill="none"/>
  <path d="m1.272 4.876s0.3382 0.3758 0.7019 1.18c0.3637 0.8044 0.6586 1.751 0.6586 1.751s1.432-0.1467 2.625 0.07242c1.193 0.2191 2.453 0.7133 2.453 0.7133s0.9543-0.9024 1.859-1.408c0.9044-0.5053 1.858-0.7386 1.858-0.7386" fill="none"/>
 </g>
</svg>
