<?xml version="1.0" encoding="UTF-8"?>
<svg version="1.1" width="48" height="48" viewBox="0 0 48 48" xmlns="http://www.w3.org/2000/svg">
 <g transform="translate(.8 -1005)">
  <g id="a" transform="matrix(.203 0 0 .204 -372 724)" stroke-linecap="square" stroke-linejoin="bevel" stroke-width="5.4">
   <path d="m1947 1396c-43.2 0-78.2 30.8-78.2 68.7 0.4 24.5 13.8 49.6 38.1 61.9 0.9 13.8 7.1 27.1 17.7 39.2 8.1 11 19.7 22 22.4 24.7 2.3-2.5 16.3-16.8 26.4-27.4 10.2-14.2 12.2-24.3 13.5-36.5 24.3-12 38.1-37.2 38.5-61.9 0-38-35-68.7-78.2-68.7z" fill="#ffaf0f"/>
   <g transform="translate(1947,1494)" fill="#ffffff">
    <path d="m-40 39.3c0 14 9.75 26.6 24.7 32 14.9 5.36 32.2 2.4 43.6-7.51 0 2.34-0.57 4.15-1.71 5.37-7.53 6.52-17.9 9.97-28.5 9.49-10.6-0.48-20.5-4.85-27.2-12-6.94-7.41-10.8-17.2-10.8-27.3"/>
    <path d="m26.6 69.2c0.925-0.801 1.8-1.64 2.62-2.52l-29.2 31.2 26.6-28.7"/>
    <g fill="none" stroke="#000000" stroke-linecap="round">
     <path d="m-39.4-85.6c11.4-0.11 28.4 8.9 46.5 24.5s35.2 36.2 46.5 56c-4.05 4.7-8.8 8.8-14.1 12.2-11.4-19.8-28.4-40.3-46.5-56-18.1-15.6-35.2-24.7-46.5-24.5 3.97-4.67 8.74-8.8 14.1-12.2l93 80.5" stroke-linejoin="round"/>
     <path d="m67.4 10c21.5-27.5 13.1-71.7-15.8-90.6-32.6-25.1-83.3-22.7-113 7.76-26.9 24.9-24.9 71.1 8.05 97 33 25.9 92.8 22.9 121-14.2z"/>
     <path d="m40 32.7c0.455 12.5-3.65 26.1-10.8 34l-29.2 31.2-29.2-31.2c-8.73-11.6-10.8-20.9-10.8-33.9" stroke-linejoin="miter"/>
     <path d="M -40,39.3 C -39.977,59.5 -19.7,74.5 -0.5,74 19,74.469 40,60.3 40,39.3"/>
     <path d="m-29.2 66.7c6.71 7.16 16.6 11.5 27.2 12 10.6 0.481 21-2.97 28.5-9.49"/>
    </g>
   </g>
  </g>
 </g>
</svg>
