<?xml version="1.0" encoding="UTF-8" standalone="no"?>
<svg
   viewBox="0 0 47.999999 48.000001"
   width="48"
   height="48"
   version="1.1"
   id="svg1726"
   sodipodi:docname="GroundScrew.svg"
   inkscape:version="1.2.2 (b0a8486541, 2022-12-01)"
   xmlns:inkscape="http://www.inkscape.org/namespaces/inkscape"
   xmlns:sodipodi="http://sodipodi.sourceforge.net/DTD/sodipodi-0.dtd"
   xmlns="http://www.w3.org/2000/svg"
   xmlns:svg="http://www.w3.org/2000/svg"
   xmlns:rdf="http://www.w3.org/1999/02/22-rdf-syntax-ns#"
   xmlns:cc="http://creativecommons.org/ns#"
   xmlns:dc="http://purl.org/dc/elements/1.1/">
  <title
     id="title17913">Ground Screw</title>
  <sodipodi:namedview
     id="namedview1728"
     pagecolor="#ffffff"
     bordercolor="#000000"
     borderopacity="0.25"
     inkscape:showpageshadow="2"
     inkscape:pageopacity="0.0"
     inkscape:pagecheckerboard="true"
     inkscape:deskcolor="#d1d1d1"
     showgrid="false"
     inkscape:zoom="8.8306"
     inkscape:cx="12.513306"
     inkscape:cy="10.305076"
     inkscape:window-width="2560"
     inkscape:window-height="1528"
     inkscape:window-x="0"
     inkscape:window-y="0"
     inkscape:window-maximized="1"
     inkscape:current-layer="g1724" />
  <desc
     id="desc1492">ground_screw.dxf - scale = 1.000000, origin = (0.000000, 0.000000), method = manual</desc>
  <defs
     id="defs1506">
    <marker
       id="DistanceX"
       orient="auto"
       refX="0"
       refY="0"
       style="overflow:visible">
      <path
         d="M 3,-3 -3,3 M 0,-5 V 5"
         style="stroke:#000000;stroke-width:0.5"
         id="path1494" />
    </marker>
    <pattern
       id="Hatch"
       patternUnits="userSpaceOnUse"
       width="8"
       height="8"
       x="0"
       y="0">
      <path
         d="M8 4 l-4,4"
         stroke="#000000"
         stroke-width="0.25"
         linecap="square"
         id="path1497" />
      <path
         d="M6 2 l-4,4"
         stroke="#000000"
         stroke-width="0.25"
         linecap="square"
         id="path1499" />
      <path
         d="M4 0 l-4,4"
         stroke="#000000"
         stroke-width="0.25"
         linecap="square"
         id="path1501" />
    </pattern>
    <symbol
       id="*MODEL_SPACE" />
    <symbol
       id="*PAPER_SPACE" />
  </defs>
  <g
     inkscape:groupmode="layer"
     inkscape:label="0"
     id="g1508"
     transform="translate(-329.21296,-430.08452)" />
  <g
     inkscape:groupmode="layer"
     inkscape:label="View"
     id="g1724"
     transform="translate(-329.21296,-430.08452)">
    <g
       id="g17891"
       transform="matrix(0.52213138,0,0,0.52383598,60.323646,74.129801)">
      <path
         style="color:#000000;display:inline;fill:#ffaf00;fill-opacity:1;stroke:none;stroke-opacity:1;-inkscape-stroke:none"
         d="m 561.25977,683.66602 c -11.57545,10e-6 -22.06412,3.28953 -29.68555,8.64257 -7.62083,5.35262 -12.38793,12.80151 -12.38867,21.05664 v 0.002 0.80664 c 2e-5,12.21415 10.54195,23.09219 26.44531,27.57812 0.74792,0.21097 1.52037,0.32671 2.27734,0.50586 v 6.89063 h 0.002 c 0,1.71203 0.64526,3.3855 1.83984,4.83593 l 11.125,13.50586 0.38672,-0.31836 0.38476,0.31836 11.12305,-13.50586 c 1.19459,-1.45044 1.83985,-3.1239 1.83984,-4.83593 v -6.86133 c 6.29776,-1.48818 12.15813,-3.98266 16.97266,-7.51367 7.51036,-5.50815 11.75196,-12.89035 11.75195,-20.59961 h 0.002 v -0.8086 h -0.002 c -7.7e-4,-8.25514 -4.76782,-15.70403 -12.38867,-21.05664 -7.62145,-5.35303 -18.11009,-8.64258 -29.68554,-8.64257 z m 41.07421,29.70117 c -401.55599,-475.57813 -200.77799,-237.78906 0,0 z m -30.33574,39.9824 c -381.33216,-502.23306 -190.66608,-251.11653 0,0 z m -10.73828,13.03708 c -374.17331,-510.92445 -187.08665,-255.46222 0,0 z"
         id="path14016"
         sodipodi:nodetypes="ssscssccccccccscsccccssscccccc"
         inkscape:label="bg" />
      <path
         style="color:#000000;display:inline;fill:#ffffff;fill-opacity:1;stroke:none;stroke-opacity:1;-inkscape-stroke:none"
         d="m 558.14192,691.23587 c 0.47158,-2.11872 0.42569,-1.11017 0.86394,-1.34715 0.4426,-0.23933 1.0514,-0.36455 1.65234,-0.3457 0.60094,0.0188 1.18948,0.18256 1.5918,0.44336 0.40232,0.26079 0.61709,0.57208 0.63086,1.01953 h 0.002 l 0.26758,8.73242 c -0.0157,0.45021 -0.21444,0.76544 -0.61914,1.02149 -0.42013,0.26581 -1.05458,1.22401 -4.24985,0.0616 -0.48416,-8.63291 -0.36289,-8.68606 -0.13953,-9.5855 z m -22.92317,7.97507 c -356.8125,-466.14063 -178.40625,-233.07031 0,0 z m 48.23242,-3.19336 c 0.42461,-0.0741 0.87088,-0.068 1.28516,0.0156 0.70737,0.14278 1.20384,0.51524 1.45117,0.95117 -0.0839,0.21883 -0.11618,0.44313 -0.38281,0.63868 l -9.33008,6.84375 c -0.7272,0.53333 -1.80569,0.63691 -2.67188,0.39257 -0.43309,-0.12216 -0.8047,-0.32815 -1.04882,-0.56835 -0.13069,-0.12859 -0.13492,-0.28571 -0.19532,-0.42774 0.0937,-0.18491 0.18846,-0.37308 0.41211,-0.53711 l 9.33008,-6.84375 c 0.32283,-0.23676 0.72578,-0.39075 1.15039,-0.46484 z m -45.46484,0.69531 c 0.42041,0.0636 0.8226,0.20462 1.15429,0.42773 l 9.74219,6.55469 c 0.26403,0.1776 0.3796,0.38879 0.48242,0.59571 -0.0583,0.1329 -0.0591,0.28055 -0.17968,0.40234 -0.23501,0.23728 -0.59288,0.44413 -1.01368,0.57031 -0.84159,0.25237 -1.90474,0.17279 -2.65234,-0.33008 l -9.74219,-6.55273 c -0.30982,-0.2084 -0.35518,-0.45795 -0.44531,-0.69922 0.24322,-0.41916 0.71238,-0.78114 1.39258,-0.92969 0.40315,-0.088 0.84131,-0.1027 1.26172,-0.0391 z m 23.27344,10.84375 c -1.96781,0 -3.93777,0.45334 -5.46094,1.4043 -1.52317,0.95095 -2.59766,2.45854 -2.59766,4.40625 0,0.0551 0.0312,0.0998 0.0332,0.15429 -0.002,0.0264 -0.0216,0.0438 -0.0234,0.0703 l 0.041,0.002 c 0.0664,1.24149 0.59701,2.3493 1.46875,3.20703 0.9278,0.91288 2.18649,1.57791 3.58594,1.97266 2.7989,0.7895 6.19629,0.51079 8.70898,-1.33203 1.37218,-1.00636 2.15724,-2.38337 2.24024,-3.84571 l 0.0527,-0.004 c -0.002,-0.0319 -0.0265,-0.0524 -0.0293,-0.084 0.002,-0.049 0.0391,-0.0914 0.0391,-0.14062 0,-1.94771 -1.07448,-3.4553 -2.59766,-4.40625 -1.52317,-0.95096 -3.49313,-1.4043 -5.46093,-1.4043 z m 0,1.52148 c 1.75197,0 3.50144,0.41095 4.80078,1.19141 1.26005,0.75687 2.06354,1.8338 2.20898,3.27344 -0.0622,1.12284 -0.66057,2.22261 -1.8457,3.0918 -2.19988,1.6134 -5.31357,1.89198 -7.84571,1.17773 -1.26606,-0.35713 -2.37748,-0.96028 -3.15429,-1.72461 -0.72514,-0.71349 -1.12486,-1.56165 -1.17969,-2.52539 0.13919,-1.45073 0.94844,-2.53229 2.21484,-3.29297 1.29934,-0.78046 3.04881,-1.1914 4.80079,-1.19141 z m -19.39058,7.07422 c -361.24613,-477.43489 -180.62306,-238.71745 0,0 z m 38.78901,-4.26562 h 0.002 l 0.006,0.5 13.48632,-0.20313 c 1.06678,-0.0162 1.86145,0.48711 2.17383,1.03711 -0.0914,0.21795 -0.12611,0.44522 -0.38476,0.63086 -0.40405,0.28999 -1.00456,0.49558 -1.68164,0.50586 l -13.48633,0.20313 c -0.69832,0.0106 -1.32769,-0.18556 -1.75391,-0.47852 -0.27964,-0.19221 -0.32105,-0.43372 -0.41601,-0.66406 0.30359,-0.527 1.041,-1.01574 2.0625,-1.03125 z m -38.91211,1.0918 c 1.0671,-0.0162 1.8617,0.48886 2.17383,1.03906 -0.0914,0.21794 -0.12611,0.44522 -0.38476,0.63086 -0.40405,0.28999 -1.00456,0.49362 -1.68164,0.5039 l -13.48633,0.20508 c -0.69832,0.0106 -1.32769,-0.18751 -1.75391,-0.48047 -0.28002,-0.19247 -0.32117,-0.43337 -0.41601,-0.66406 0.304,-0.52664 1.04156,-1.01379 2.0625,-1.0293 z m 5.84115,13.14875 c -366.76043,-483.34631 -183.38022,-241.67315 0,0 z m 28.25651,-3.94954 c 0.41979,0.0635 0.82288,0.2052 1.1543,0.42774 4.9e-4,3.3e-4 10e-4,-3.3e-4 0.002,0 l 9.74219,6.55469 c 0.26402,0.17759 0.37959,0.38878 0.48242,0.5957 -0.0583,0.13304 -0.0589,0.28044 -0.17969,0.40234 -0.235,0.23728 -0.59483,0.44413 -1.01562,0.57032 -0.8416,0.25236 -1.90279,0.17278 -2.65039,-0.33008 L 574.60937,724.5 v -2.2832 c 0.39589,-0.083 0.82307,-0.10133 1.23438,-0.0391 z m -28.64844,0.42969 c 0.23554,-0.0411 0.47286,5e-5 0.71289,0.008 v 2.80079 l -7.68945,5.64062 c -0.7272,0.53334 -1.80568,0.63691 -2.67188,0.39258 -0.43309,-0.12217 -0.80665,-0.32816 -1.05078,-0.56836 -0.13035,-0.12826 -0.13293,-0.28417 -0.19336,-0.42578 0.0937,-0.18502 0.18834,-0.37495 0.41211,-0.53906 l 9.33008,-6.84375 v 0.002 c 0.32283,-0.23677 0.72578,-0.3927 1.15039,-0.4668 z m 12.4434,13.92769 -0.27148,-8.84766 c 0.0748,-0.43935 0.33419,-0.75378 0.77148,-0.99023 0.4426,-0.23933 1.05141,-0.36455 1.65235,-0.34571 0.60094,0.0189 1.18947,0.18257 1.59179,0.44336 0.40232,0.2608 0.61904,0.57209 0.63281,1.01953 l 0.26758,8.73242 c -0.0157,0.45019 -0.2125,0.76545 -0.61718,1.02149 -0.42014,0.26581 -1.04221,0.42494 -1.66797,0.42969 -0.62577,0.005 -1.25122,-0.14553 -1.68164,-0.40625 -0.43043,-0.26072 -0.96095,-0.78068 -0.9757,-1.25989 -0.0247,-2.4864 -1.99072,-4.60135 0.29796,0.20325 z"
         id="path1722"
         sodipodi:nodetypes="cssscccscccsssscccsscccssscccsscccsssssscccssscccsssssscssscsscccccccsccscccscsccsccscccscccsscccscccccssccccccccsssccscscc" />
      <path
         style="color:#000000;display:inline;fill:none;fill-opacity:1;stroke:#000000;stroke-width:1.00003253;stroke-dasharray:none;stroke-opacity:1"
         d="m 561.25977,683.66602 c -11.57545,10e-6 -22.06412,3.28953 -29.68555,8.64257 -7.62083,5.35262 -12.38793,12.80151 -12.38867,21.05664 v 0.002 0.80664 c 2e-5,12.21415 10.54195,23.09219 26.44531,27.57812 0.74792,0.21097 1.52037,0.32671 2.27734,0.50586 v 6.89063 h 0.002 c 0,1.71203 0.64526,3.3855 1.83984,4.83593 l 11.125,13.50586 0.38672,-0.31836 0.38476,0.31836 11.12305,-13.50586 c 1.19459,-1.45044 1.83985,-3.1239 1.83984,-4.83593 v -6.86133 c 6.29776,-1.48818 12.15813,-3.98266 16.97266,-7.51367 7.51036,-5.50815 11.75196,-12.89035 11.75195,-20.59961 h 0.002 v -0.8086 h -0.002 c -7.7e-4,-8.25514 -4.76782,-15.70403 -12.38867,-21.05664 -7.62145,-5.35303 -18.11009,-8.64258 -29.68554,-8.64257 z m 0,1 c 11.38565,-10e-6 21.68565,3.24541 29.11132,8.46093 7.42568,5.21553 11.96288,12.36904 11.96289,20.24024 10e-6,7.34278 -4.03154,14.43014 -11.34375,19.79297 -11.58768,8.49849 -29.47931,11.22505 -45.08789,6.82226 -15.60857,-4.40278 -25.71677,-14.97826 -25.71679,-26.61523 v -0.002 c 7.4e-4,-7.87041 4.53785,-15.02317 11.96289,-20.23828 7.42565,-5.21553 17.72567,-8.46093 29.11133,-8.46093 z m -0.7461,3.06835 c -0.78128,0.006 -1.56324,0.18728 -2.19336,0.58594 -0.63011,0.39867 -1.1074,1.07242 -1.10742,1.90625 0,0.0195 -6e-4,0.0372 0,0.0566 l 0.22461,-0.006 -0.22266,0.008 0.29102,9.4707 0.99805,-0.0312 -0.27149,-8.84375 c 0.0741,-0.44088 0.33519,-0.75521 0.77344,-0.99219 0.4426,-0.23933 1.0514,-0.36455 1.65234,-0.3457 0.60094,0.0188 1.18948,0.18256 1.5918,0.44336 0.40232,0.26079 0.61709,0.57208 0.63086,1.01953 h 0.002 l 0.26758,8.73242 c -0.0157,0.45021 -0.21444,0.76544 -0.61914,1.02149 -0.42013,0.26581 -1.04025,0.42494 -1.66602,0.42968 -0.62576,0.005 -1.25121,-0.14553 -1.68164,-0.40625 -0.43042,-0.26072 -0.66298,-0.57742 -0.67773,-1.05664 l -1,0.0293 c 0.0257,0.83351 0.52015,1.49514 1.16016,1.88281 0.64001,0.38768 1.42574,0.55671 2.20703,0.55078 0.78128,-0.006 1.56324,-0.18531 2.19336,-0.58398 0.57163,-0.36167 0.97104,-0.97061 1.04882,-1.69922 l 0.041,-0.002 -0.004,-0.12891 c 5.1e-4,-0.013 0.009,-0.0221 0.01,-0.0352 h 0.0117 v -0.041 -0.0449 c -1.1e-4,-0.005 1.4e-4,-0.009 0,-0.0137 h -0.0254 v -0.002 h 0.0234 l -0.28906,-9.40625 v -0.0488 h -0.002 v -0.0156 c -0.0256,-0.83351 -0.52015,-1.49514 -1.16016,-1.88281 -0.64001,-0.38768 -1.42575,-0.55671 -2.20703,-0.55079 z m 22.92969,6.45508 c -0.61215,0.0817 -1.21241,0.29831 -1.73242,0.67969 l -9.33203,6.84375 c -0.6044,0.44327 -0.99024,1.08292 -0.99024,1.7793 0,0.0905 0.0896,0.1432 0.10156,0.23047 -0.004,0.0124 -0.0198,0.0188 -0.0234,0.0312 l 0.041,0.0117 c 0.0757,0.46497 0.21927,0.91979 0.54297,1.23829 0.39511,0.38875 0.91399,0.65857 1.48047,0.81836 1.13295,0.31957 2.49514,0.21392 3.53516,-0.54883 l 9.33007,-6.84375 c 0.6044,-0.44327 0.99219,-1.08293 0.99219,-1.7793 0,-0.59328 -0.26896,-1.12296 -0.66406,-1.51172 -0.39511,-0.38875 -0.91204,-0.65857 -1.47852,-0.81836 -0.56647,-0.15979 -1.19058,-0.21259 -1.80273,-0.13086 z m -45.47461,0.69532 c -0.60402,-0.067 -1.21294,-0.004 -1.76563,0.1621 -0.55268,0.16574 -1.05505,0.43808 -1.4375,0.82422 -0.38244,0.38615 -0.64062,0.90581 -0.64062,1.48633 0,0.73679 0.43071,1.40753 1.09375,1.85352 l 0.002,-0.002 9.74219,6.55469 c 1.05504,0.70967 2.39072,0.78849 3.49609,0.45703 0.55269,-0.16573 1.05506,-0.43807 1.4375,-0.82422 0.31215,-0.31516 0.4497,-0.75926 0.52344,-1.21289 l 0.0371,-0.0117 c -0.003,-0.0111 -0.018,-0.0163 -0.0215,-0.0273 0.0123,-0.0883 0.10156,-0.14276 0.10156,-0.23437 0,-0.7368 -0.43266,-1.40558 -1.0957,-1.85157 l -9.74219,-6.55468 c -0.52752,-0.35484 -1.12645,-0.55212 -1.73047,-0.61914 z m 45.48242,1.13281 c 0.42461,-0.0741 0.87088,-0.068 1.28516,0.0156 0.70737,0.14278 1.20384,0.51524 1.45117,0.95117 -0.0839,0.21883 -0.11618,0.44313 -0.38281,0.63868 l -9.33008,6.84375 c -0.7272,0.53333 -1.80569,0.63691 -2.67188,0.39257 -0.43309,-0.12216 -0.8047,-0.32815 -1.04882,-0.56835 -0.13069,-0.12859 -0.13492,-0.28571 -0.19532,-0.42774 0.0937,-0.18491 0.18846,-0.37308 0.41211,-0.53711 l 9.33008,-6.84375 c 0.32283,-0.23676 0.72578,-0.39075 1.15039,-0.46484 z m -45.46484,0.69531 c 0.42041,0.0636 0.8226,0.20462 1.15429,0.42773 l 3.46501,2.33131 6.27718,4.22338 c 0.26403,0.1776 0.3796,0.38879 0.48242,0.59571 -0.0583,0.1329 -0.0591,0.28055 -0.17968,0.40234 -0.23501,0.23728 -0.59288,0.44413 -1.01368,0.57031 -0.84159,0.25237 -1.90474,0.17279 -2.65234,-0.33008 l -9.74219,-6.55273 c -0.30982,-0.2084 -0.35518,-0.45795 -0.44531,-0.69922 0.24322,-0.41916 0.71238,-0.78114 1.39258,-0.92969 0.40315,-0.088 0.84131,-0.1027 1.26172,-0.0391 z m 23.27344,10.84375 c -1.96781,0 -3.93777,0.45334 -5.46094,1.4043 -1.52317,0.95095 -2.59766,2.45854 -2.59766,4.40625 0,0.0551 0.0312,0.0998 0.0332,0.15429 -0.002,0.0264 -0.0216,0.0438 -0.0234,0.0703 l 0.041,0.002 c 0.0664,1.24149 0.59701,2.3493 1.46875,3.20703 0.9278,0.91288 2.18649,1.57791 3.58594,1.97266 2.7989,0.7895 6.19629,0.51079 8.70898,-1.33203 1.37218,-1.00636 2.15724,-2.38337 2.24024,-3.84571 l 0.0527,-0.004 c -0.002,-0.0319 -0.0265,-0.0524 -0.0293,-0.084 0.002,-0.049 0.0391,-0.0914 0.0391,-0.14062 0,-1.94771 -1.07448,-3.4553 -2.59766,-4.40625 -1.52317,-0.95096 -3.49313,-1.4043 -5.46093,-1.4043 z m 0,1.52148 c 1.75197,0 3.50144,0.41095 4.80078,1.19141 1.26005,0.75687 2.06354,1.8338 2.20898,3.27344 -0.0622,1.12284 -0.66057,2.22261 -1.8457,3.0918 -2.19988,1.6134 -5.31357,1.89198 -7.84571,1.17773 -1.26606,-0.35713 -2.37748,-0.96028 -3.15429,-1.72461 -0.72514,-0.71349 -1.12486,-1.56165 -1.17969,-2.52539 0.13919,-1.45073 0.94844,-2.53229 2.21484,-3.29297 1.29934,-0.78046 3.04881,-1.1914 4.80079,-1.19141 z m 32.8789,1.29688 0.008,0.50195 h -0.002 l -0.008,-0.5 -13.48438,0.20313 0.006,0.5 -0.008,-0.5 c -0.86421,0.0131 -1.65073,0.2627 -2.24805,0.6914 -0.59731,0.42871 -1.01758,1.06779 -1.01757,1.79883 0,0.75329 0.4439,1.40673 1.06835,1.83594 0.62446,0.42921 1.44512,0.66782 2.33594,0.6543 l 13.48633,-0.20313 c 0.86422,-0.0131 1.65073,-0.26465 2.24805,-0.69336 0.59732,-0.4287 1.01758,-1.06778 1.01758,-1.79883 -10e-6,-0.75329 -0.44391,-1.40477 -1.06836,-1.83398 -0.62446,-0.42921 -1.44317,-0.66978 -2.33399,-0.65625 z m -52.4082,0.79687 -13.48633,0.20508 c -0.86421,0.0131 -1.65073,0.2627 -2.24805,0.69141 -0.59731,0.4287 -1.01758,1.06778 -1.01757,1.79883 0,0.75329 0.4439,1.40477 1.06835,1.83398 0.62397,0.42888 1.44397,0.66938 2.33399,0.65625 6.9e-4,-1e-5 10e-4,10e-6 0.002,0 l 13.48633,-0.20508 c 0.86421,-0.0131 1.65073,-0.2627 2.24805,-0.6914 0.59732,-0.42871 1.01757,-1.06779 1.01758,-1.79883 -10e-6,-0.75329 -0.44391,-1.40672 -1.06836,-1.83594 -0.62446,-0.42921 -1.44512,-0.66782 -2.33594,-0.6543 z m 38.92773,0.71485 h 0.002 l 0.006,0.5 13.48632,-0.20313 c 1.06678,-0.0162 1.86145,0.48711 2.17383,1.03711 -0.0914,0.21795 -0.12611,0.44522 -0.38476,0.63086 -0.40405,0.28999 -1.00456,0.49558 -1.68164,0.50586 l -13.48633,0.20313 c -0.69832,0.0106 -1.32769,-0.18556 -1.75391,-0.47852 -0.27964,-0.19221 -0.32105,-0.43372 -0.41601,-0.66406 0.30359,-0.527 1.041,-1.01574 2.0625,-1.03125 z m -38.91211,1.0918 c 1.0671,-0.0162 1.8617,0.48886 2.17383,1.03906 -0.0914,0.21794 -0.12611,0.44522 -0.38476,0.63086 -0.40405,0.28999 -1.00456,0.49362 -1.68164,0.5039 l -13.48633,0.20508 c -0.69832,0.0106 -1.32769,-0.18751 -1.75391,-0.48047 -0.28002,-0.19247 -0.32117,-0.43337 -0.41601,-0.66406 0.304,-0.52664 1.04156,-1.01379 2.0625,-1.0293 l 7.47086,-0.1136 z m 34.08203,7.37109 c -0.60402,-0.067 -1.21489,-0.004 -1.76757,0.16211 -0.55269,0.16573 -1.05506,0.43807 -1.4375,0.82422 -0.38245,0.38614 -0.64063,0.9058 -0.64063,1.48633 0,0.73679 0.43267,1.40752 1.0957,1.85351 l 9.74219,6.55274 c 1.05504,0.70966 2.39073,0.78849 3.4961,0.45703 0.55268,-0.16573 1.05505,-0.43808 1.4375,-0.82422 0.31154,-0.31456 0.44728,-0.75839 0.52148,-1.21094 l 0.041,-0.0117 c -0.004,-0.0119 -0.0197,-0.0174 -0.0234,-0.0293 0.0123,-0.0883 0.10156,-0.14275 0.10156,-0.23437 0,-0.73679 -0.43071,-1.40558 -1.09375,-1.85156 l -9.74414,-6.55469 c -0.52752,-0.35483 -1.12449,-0.55212 -1.72852,-0.61914 z m -28.64062,0.42969 c -0.61155,0.0816 -1.21276,0.299 -1.73242,0.67968 -5.1e-4,3.8e-4 -10e-4,-3.7e-4 -0.002,0 l -9.33007,6.84375 c -0.60439,0.44327 -0.99024,1.08488 -0.99024,1.78125 0,0.0906 0.0895,0.14311 0.10156,0.23047 -0.004,0.0124 -0.0198,0.0188 -0.0234,0.0312 l 0.043,0.0117 c 0.0759,0.4645 0.21758,0.9181 0.54101,1.23633 0.39511,0.38875 0.91399,0.65857 1.48047,0.81836 1.13295,0.31958 2.49514,0.21393 3.53516,-0.54883 l 9.33007,-6.84375 c 0.60439,-0.44326 0.99024,-1.08292 0.99024,-1.7793 0,-0.59327 -0.26701,-1.12296 -0.66211,-1.51171 -0.3951,-0.38876 -0.91399,-0.65662 -1.48047,-0.81641 -0.56647,-0.15979 -1.18863,-0.21454 -1.80078,-0.13281 z m 28.65625,1.39843 c 0.41979,0.0635 0.82288,0.2052 1.1543,0.42774 4.9e-4,3.3e-4 10e-4,-3.3e-4 0.002,0 l 9.74219,6.55469 c 0.26402,0.17759 0.37959,0.38878 0.48242,0.5957 -0.0583,0.13304 -0.0589,0.28044 -0.17969,0.40234 -0.235,0.23728 -0.59483,0.44413 -1.01562,0.57032 -0.8416,0.25236 -1.90279,0.17278 -2.65039,-0.33008 L 574.60937,724.5 v -2.2832 c 0.39589,-0.083 0.82307,-0.10133 1.23438,-0.0391 z m -28.64844,0.42969 c 0.23554,-0.0411 0.47286,5e-5 0.71289,0.008 v 2.80079 l -7.68945,5.64062 c -0.7272,0.53334 -1.80568,0.63691 -2.67188,0.39258 -0.43309,-0.12217 -0.80665,-0.32816 -1.05078,-0.56836 -0.13035,-0.12826 -0.13293,-0.28417 -0.19336,-0.42578 0.0937,-0.18502 0.18834,-0.37495 0.41211,-0.53906 l 9.33008,-6.84375 v 0.002 c 0.32283,-0.23677 0.72578,-0.3927 1.15039,-0.4668 z m 26.41406,0.0312 v 1.16406 c -0.27732,-0.19902 -0.33536,-0.42969 -0.41992,-0.65625 0.10619,-0.18312 0.21492,-0.36371 0.41992,-0.50781 z m -24.70117,0.16211 c 0.4794,0.17912 0.83461,0.44061 1.02344,0.77344 -0.0835,0.2187 -0.11679,0.44315 -0.38281,0.63867 l -0.64063,0.4707 z m 12.73828,1.74219 c -0.78128,0.006 -1.56324,0.18727 -2.19336,0.58594 -0.63011,0.39866 -1.1074,1.07241 -1.10742,1.90625 1e-5,0.0188 0.001,0.0378 0.002,0.0566 v 0.002 l 0.29101,9.4707 1,-0.0293 -0.27148,-8.84766 c 0.0748,-0.43935 0.33419,-0.75378 0.77148,-0.99023 0.4426,-0.23933 1.05141,-0.36455 1.65235,-0.34571 0.60094,0.0189 1.18947,0.18257 1.59179,0.44336 0.40232,0.2608 0.61904,0.57209 0.63281,1.01953 l 0.26758,8.73242 c -0.0157,0.45019 -0.2125,0.76545 -0.61718,1.02149 -0.42014,0.26581 -1.04221,0.42494 -1.66797,0.42969 -0.62577,0.005 -1.25122,-0.14553 -1.68164,-0.40625 -0.43043,-0.26072 -0.66299,-0.57743 -0.67774,-1.05664 l -1,0.0312 c 0.0256,0.83351 0.52015,1.49318 1.16016,1.88086 0.64001,0.38767 1.42575,0.5567 2.20703,0.55078 0.78128,-0.006 1.56325,-0.18532 2.19336,-0.58399 0.57215,-0.36199 0.97163,-0.97166 1.04883,-1.70117 l 0.041,-0.002 -0.004,-0.12696 c 4.8e-4,-0.0123 0.009,-0.0208 0.01,-0.0332 h 0.0117 v -0.043 -0.043 c -1.2e-4,-0.005 1.6e-4,-0.0104 0,-0.0156 l -0.29102,-9.45899 v -0.0137 h -0.002 c -0.0257,-0.83351 -0.52014,-1.49514 -1.16015,-1.88281 -0.64001,-0.38767 -1.42575,-0.55671 -2.20704,-0.55078 z m -12.73828,17.9375 c 8.1898,1.77989 16.75817,1.7372 24.70117,0.0137 v 6.6543 c 10e-6,1.46178 -0.54326,2.90434 -1.61132,4.20117 -2.9e-4,3.5e-4 -0.002,-3.5e-4 -0.002,0 l -0.006,0.008 c -0.48393,0.58609 -1.07001,1.13307 -1.74609,1.62891 -2.83734,2.08092 -6.75579,2.93924 -10.47656,2.625 -3.72077,-0.31425 -7.21797,-1.79922 -9.2461,-4.26172 -1.06806,-1.29683 -1.61132,-2.7394 -1.61132,-4.20117 h -0.002 z m 20.30078,14.2539 -7.94921,9.65235 -7.92969,-9.62695 c 1.89999,1.00502 4.07616,1.65531 6.35351,1.84765 3.28776,0.27768 6.68507,-0.35379 9.52539,-1.87305 z"
         id="path9573"
         sodipodi:nodetypes="ssscssccccccccscsccccssssssssssssssssccccccssscccscsccssscccccccccccccccssssccscccssccsssssscsscccsscccsccsssscccsscccsssccccsscccsssssscccssscccsssssscssscsscccccccsssccsssscccssssccssssccccccsccscccccsccsccccscssccsscccsccssssccscccssccssssssscccsscccssccccssccccccccccccsccssssccccsssccscsccssscccccccscccsssccssccsssccccccsc"
         inkscape:label="stroke"
         sodipodi:insensitive="true" />
    </g>
  </g>
  <metadata
     id="metadata17911">
    <rdf:RDF>
      <cc:Work
         rdf:about="">
        <dc:title>Ground Screw</dc:title>
      </cc:Work>
    </rdf:RDF>
  </metadata>
</svg>
