<?xml version="1.0" encoding="UTF-8" standalone="no"?>
<!-- Created with Inkscape (http://www.inkscape.org/) -->

<svg
   xmlns:dc="http://purl.org/dc/elements/1.1/"
   xmlns:cc="http://creativecommons.org/ns#"
   xmlns:rdf="http://www.w3.org/1999/02/22-rdf-syntax-ns#"
   xmlns:svg="http://www.w3.org/2000/svg"
   xmlns="http://www.w3.org/2000/svg"
   xmlns:sodipodi="http://sodipodi.sourceforge.net/DTD/sodipodi-0.dtd"
   xmlns:inkscape="http://www.inkscape.org/namespaces/inkscape"
   width="48"
   height="48"
   viewBox="0 0 48 48.000001"
   id="svg2"
   version="1.1"
   inkscape:version="0.91 r13725"
   sodipodi:docname="HexNut.svg">
  <defs
     id="defs4" />
  <sodipodi:namedview
     id="base"
     pagecolor="#ffffff"
     bordercolor="#666666"
     borderopacity="1.0"
     inkscape:pageopacity="0.0"
     inkscape:pageshadow="2"
     inkscape:zoom="12.625"
     inkscape:cx="24"
     inkscape:cy="24"
     inkscape:document-units="px"
     inkscape:current-layer="layer1"
     showgrid="false"
     units="px"
     inkscape:window-width="1260"
     inkscape:window-height="787"
     inkscape:window-x="0"
     inkscape:window-y="0"
     inkscape:window-maximized="0" />
  <metadata
     id="metadata7">
    <rdf:RDF>
      <cc:Work
         rdf:about="">
        <dc:format>image/svg+xml</dc:format>
        <dc:type
           rdf:resource="http://purl.org/dc/dcmitype/StillImage" />
        <dc:title></dc:title>
      </cc:Work>
    </rdf:RDF>
  </metadata>
  <g
     inkscape:label="Layer 1"
     inkscape:groupmode="layer"
     id="layer1"
     transform="translate(0,-1004.3622)">
    <path
       style="opacity:1;fill:#ffaa00;fill-opacity:1;fill-rule:evenodd;stroke:none;stroke-width:0.91583323;stroke-linecap:round;stroke-linejoin:round;stroke-miterlimit:4;stroke-dasharray:none;stroke-dashoffset:0;stroke-opacity:1"
       d="m 5.7397287,1037.6821 0.072541,-11.7517 2.1036962,-7.109 2.3938611,-3.4819 5.150428,-2.7566 8.487327,-1.4509 7.544289,1.0882 6.456172,2.8291 4.860262,4.5701 0.145083,9.3578 0.07254,2.7565 -2.176237,6.8915 -1.595908,2.7565 -2.248778,1.741 -5.005346,2.1762 -5.585676,1.0156 -6.311091,-0.4352 -4.932804,-0.943 -4.64264,-2.6841 z"
       id="path4418"
       inkscape:connector-curvature="0" />
    <g
       id="g4371"
       transform="matrix(0.91583325,0,0,0.91583325,1.9675838,87.67664)"
       style="stroke-width:1.09190183;stroke-miterlimit:4;stroke-dasharray:none">
      <path
         inkscape:connector-curvature="0"
         id="1"
         d="m 37.743265,1043.5119 1.775082,-1.096"
         style="fill:none;stroke:#000000;stroke-width:1.09190183;stroke-linecap:round;stroke-linejoin:round;stroke-miterlimit:4;stroke-dasharray:none" />
      <path
         inkscape:connector-curvature="0"
         id="2"
         d="m 11.13369,1043.5118 -0.0075,0"
         style="fill:none;stroke:#000000;stroke-width:1.09190183;stroke-linecap:round;stroke-linejoin:round;stroke-miterlimit:4;stroke-dasharray:none" />
      <path
         inkscape:connector-curvature="0"
         id="3"
         d="m 37.743588,1011.6696 0.0074,0"
         style="fill:none;stroke:#000000;stroke-width:1.09190183;stroke-linecap:round;stroke-linejoin:round;stroke-miterlimit:4;stroke-dasharray:none" />
      <path
         inkscape:connector-curvature="0"
         id="4"
         d="m 11.13351,1011.6698 -1.774772,1.0958"
         style="fill:none;stroke:#000000;stroke-width:1.09190183;stroke-linecap:round;stroke-linejoin:round;stroke-miterlimit:4;stroke-dasharray:none" />
      <path
         inkscape:connector-curvature="0"
         d="m 31.788562,1023.8725 a 9.5632369,5.5213576 0 0 0 2.213114,-3.5323"
         id="path4147"
         style="fill:none;stroke:#000000;stroke-width:1.09190183;stroke-linecap:round;stroke-linejoin:round;stroke-miterlimit:4;stroke-dasharray:none" />
      <path
         inkscape:connector-curvature="0"
         d="m 34.001676,1020.3402 a 9.5632369,5.5213576 0 0 0 -19.126447,0"
         id="path4149"
         style="fill:none;stroke:#000000;stroke-width:1.09190183;stroke-linecap:round;stroke-linejoin:round;stroke-miterlimit:4;stroke-dasharray:none" />
      <path
         inkscape:connector-curvature="0"
         d="m 14.875229,1020.3402 a 9.5632369,5.5213576 0 0 0 2.21339,3.5322"
         id="path4151"
         style="fill:none;stroke:#000000;stroke-width:1.09190183;stroke-linecap:round;stroke-linejoin:round;stroke-miterlimit:4;stroke-dasharray:none" />
      <path
         inkscape:connector-curvature="0"
         d="m 37.318979,1043.7652 a 18.215689,10.516828 0 0 0 0.424286,-0.2533"
         id="path4153"
         style="fill:none;stroke:#000000;stroke-width:1.09190183;stroke-linecap:round;stroke-linejoin:round;stroke-miterlimit:4;stroke-dasharray:none" />
      <path
         inkscape:connector-curvature="0"
         d="m 29.15313,1046.4872 a 18.215689,10.516828 0 0 0 8.165849,-2.722"
         id="path4155"
         style="fill:none;stroke:#000000;stroke-width:1.09190183;stroke-linecap:round;stroke-linejoin:round;stroke-miterlimit:4;stroke-dasharray:none" />
      <path
         inkscape:connector-curvature="0"
         d="m 11.558112,1043.7652 a 18.215689,10.516828 0 0 0 17.595018,2.722"
         id="path4157"
         style="fill:none;stroke:#000000;stroke-width:1.09190183;stroke-linecap:round;stroke-linejoin:round;stroke-miterlimit:4;stroke-dasharray:none" />
      <path
         inkscape:connector-curvature="0"
         d="m 11.130003,1043.5095 a 18.215689,10.516828 0 0 0 0.0037,0"
         id="path4159"
         style="fill:none;stroke:#000000;stroke-width:1.09190183;stroke-linecap:round;stroke-linejoin:round;stroke-miterlimit:4;stroke-dasharray:none" />
      <path
         inkscape:connector-curvature="0"
         d="m 11.13369,1043.5118 a 18.215689,10.516828 0 0 0 0.424422,0.2534"
         id="path4161"
         style="fill:none;stroke:#000000;stroke-width:1.09190183;stroke-linecap:round;stroke-linejoin:round;stroke-miterlimit:4;stroke-dasharray:none" />
      <path
         inkscape:connector-curvature="0"
         d="m 32.488834,1023.5007 a 11.384806,6.5730404 0 1 0 -16.100703,0"
         id="path4163"
         style="fill:none;stroke:#000000;stroke-width:1.09190183;stroke-linecap:round;stroke-linejoin:round;stroke-miterlimit:4;stroke-dasharray:none" />
      <path
         inkscape:connector-curvature="0"
         d="m 16.388131,1023.5007 a 11.384806,6.5730404 0 0 0 16.100703,0"
         id="path4165"
         style="fill:none;stroke:#000000;stroke-width:1.09190183;stroke-linecap:round;stroke-linejoin:round;stroke-miterlimit:4;stroke-dasharray:none" />
      <path
         inkscape:connector-curvature="0"
         d="m 39.311743,1042.5335 0.01493,-0.01 0.01488,-0.01 0.01484,-0.01 0.0148,-0.01 0.01475,-0.01 0.01471,-0.01 0.01467,-0.01 0.01502,-0.01 0.01458,-0.01 0.01493,-0.01 0.01449,-0.01 0.01484,-0.01 0.01441,-0.01 0.01475,-0.01"
         id="path4167"
         style="fill:none;stroke:#000000;stroke-width:1.09190183;stroke-linecap:round;stroke-linejoin:round;stroke-miterlimit:4;stroke-dasharray:none" />
      <path
         inkscape:connector-curvature="0"
         d="m 39.518347,1042.4159 0.193465,-0.1285 0.190411,-0.1447 0.187335,-0.161 0.185017,-0.1777 0.182266,-0.1943 0.180643,-0.2118 0.178565,-0.229 0.176809,-0.2466 0.175365,-0.2645 0.174615,-0.2832 0.173365,-0.3018 0.172786,-0.321 0.172473,-0.3406 0.172041,-0.3605"
         id="path4169"
         style="fill:none;stroke:#000000;stroke-width:1.09190183;stroke-linecap:round;stroke-linejoin:round;stroke-miterlimit:4;stroke-dasharray:none" />
      <path
         inkscape:connector-curvature="0"
         d="m 29.15313,1046.4872 0.690593,-0.1188 0.691705,-0.1426 0.693617,-0.1666 0.696881,-0.191 0.701074,-0.2157 0.706575,-0.2407 0.712976,-0.266 0.72066,-0.292 0.72921,-0.3181 0.738625,-0.3445 0.750059,-0.3722 0.761933,-0.3999 0.775016,-0.4282 0.789689,-0.4574"
         id="path4171"
         style="fill:none;stroke:#000000;stroke-width:1.09190183;stroke-linecap:round;stroke-linejoin:round;stroke-miterlimit:4;stroke-dasharray:none" />
      <path
         inkscape:connector-curvature="0"
         d="m 42.033503,1039.0507 0.185171,-0.4107 0.185345,-0.4349 0.185731,-0.4597 0.186611,-0.4856 0.188074,-0.5122 0.189241,-0.5392 0.190947,-0.5674 0.193076,-0.5964 0.195327,-0.6262 0.198003,-0.6571 0.201125,-0.689 0.204233,-0.7219 0.207741,-0.7559 0.211212,-0.7908"
         id="path4173"
         style="fill:none;stroke:#000000;stroke-width:1.09190183;stroke-linecap:round;stroke-linejoin:round;stroke-miterlimit:4;stroke-dasharray:none" />
      <path
         inkscape:connector-curvature="0"
         d="m 11.558112,1043.7652 0.505505,0.28 0.506311,0.2567 0.507836,0.2339 0.510176,0.2113 0.513314,0.1891 0.517221,0.1673 0.52192,0.1455 0.527468,0.1242 0.533784,0.1029 0.540926,0.082 0.548887,0.061 0.557759,0.04 0.567405,0.019 0.578009,0"
         id="path4175"
         style="fill:none;stroke:#000000;stroke-width:1.09190183;stroke-linecap:round;stroke-linejoin:round;stroke-miterlimit:4;stroke-dasharray:none" />
      <path
         inkscape:connector-curvature="0"
         d="m 18.994633,1045.6766 0.789531,0.2131 0.775136,0.1884 0.761883,0.1641 0.749807,0.14 0.738928,0.1162 0.729182,0.092 0.720507,0.069 0.712976,0.045 0.706556,0.022 0.701177,0 0.696922,-0.025 0.693738,-0.048 0.691601,-0.071 0.690553,-0.095"
         id="path4177"
         style="fill:none;stroke:#000000;stroke-width:1.09190183;stroke-linecap:round;stroke-linejoin:round;stroke-miterlimit:4;stroke-dasharray:none" />
      <path
         inkscape:connector-curvature="0"
         d="m 4.1215922,1037.0897 0.5430009,0.629 0.533687,0.6 0.5250091,0.5716 0.5171142,0.5441 0.5099174,0.5173 0.5033339,0.4913 0.4975211,0.4658 0.4923838,0.4411 0.4878307,0.4169 0.4840485,0.3933 0.4808446,0.3701 0.4782866,0.3476 0.476449,0.3255 0.475172,0.3039"
         id="path4179"
         style="fill:none;stroke:#000000;stroke-width:1.09190183;stroke-linecap:round;stroke-linejoin:round;stroke-miterlimit:4;stroke-dasharray:none" />
      <path
         inkscape:connector-curvature="0"
         d="m 11.126191,1043.5072 0.03089,0.019 0.03086,0.019 0.03086,0.019 0.03085,0.019 0.03084,0.019 0.03086,0.019 0.03082,0.019 0.03085,0.018 0.03087,0.018 0.03086,0.018 0.03081,0.018 0.03087,0.018 0.03084,0.018 0.03084,0.018"
         id="path4181"
         style="fill:none;stroke:#000000;stroke-width:1.09190183;stroke-linecap:round;stroke-linejoin:round;stroke-miterlimit:4;stroke-dasharray:none" />
      <path
         inkscape:connector-curvature="0"
         d="m 37.319107,1026.2893 a 18.215689,10.516828 0 0 0 4.714507,-4.7146"
         id="path4183"
         style="fill:none;stroke:#000000;stroke-width:1.09190183;stroke-linecap:round;stroke-linejoin:round;stroke-miterlimit:4;stroke-dasharray:none" />
      <path
         inkscape:connector-curvature="0"
         d="m 29.153123,1029.0113 a 18.215689,10.516828 0 0 0 8.165984,-2.722"
         id="path4185"
         style="fill:none;stroke:#000000;stroke-width:1.09190183;stroke-linecap:round;stroke-linejoin:round;stroke-miterlimit:4;stroke-dasharray:none" />
      <path
         inkscape:connector-curvature="0"
         d="m 42.033614,1021.5747 a 18.215689,10.516828 0 0 0 -4.290026,-9.9051"
         id="path4187"
         style="fill:none;stroke:#000000;stroke-width:1.09190183;stroke-linecap:round;stroke-linejoin:round;stroke-miterlimit:4;stroke-dasharray:none" />
      <path
         inkscape:connector-curvature="0"
         d="m 37.743588,1011.6696 a 18.215689,10.516828 0 0 0 -0.424461,-0.2534"
         id="path4189"
         style="fill:none;stroke:#000000;stroke-width:1.09190183;stroke-linecap:round;stroke-linejoin:round;stroke-miterlimit:4;stroke-dasharray:none" />
      <path
         inkscape:connector-curvature="0"
         d="m 11.558105,1026.2894 a 18.215689,10.516828 0 0 0 17.595018,2.7219"
         id="path4191"
         style="fill:none;stroke:#000000;stroke-width:1.09190183;stroke-linecap:round;stroke-linejoin:round;stroke-miterlimit:4;stroke-dasharray:none" />
      <path
         inkscape:connector-curvature="0"
         d="m 37.319127,1011.4162 a 18.215689,10.516828 0 0 0 -17.594979,-2.722"
         id="path4193"
         style="fill:none;stroke:#000000;stroke-width:1.09190183;stroke-linecap:round;stroke-linejoin:round;stroke-miterlimit:4;stroke-dasharray:none" />
      <path
         inkscape:connector-curvature="0"
         d="m 6.8435384,1016.1309 a 18.215689,10.516828 0 0 0 4.7145666,10.1585"
         id="path4195"
         style="fill:none;stroke:#000000;stroke-width:1.09190183;stroke-linecap:round;stroke-linejoin:round;stroke-miterlimit:4;stroke-dasharray:none" />
      <path
         inkscape:connector-curvature="0"
         d="m 19.724148,1008.6942 a 18.215689,10.516828 0 0 0 -8.590638,2.9756"
         id="path4197"
         style="fill:none;stroke:#000000;stroke-width:1.09190183;stroke-linecap:round;stroke-linejoin:round;stroke-miterlimit:4;stroke-dasharray:none" />
      <path
         inkscape:connector-curvature="0"
         d="m 11.13351,1011.6698 a 18.215689,10.516828 0 0 0 -4.2899716,4.4611"
         id="path4199"
         style="fill:none;stroke:#000000;stroke-width:1.09190183;stroke-linecap:round;stroke-linejoin:round;stroke-miterlimit:4;stroke-dasharray:none" />
      <path
         inkscape:connector-curvature="0"
         id="28"
         d="m 44.75534,1030.8037 3e-5,-12.7118"
         style="fill:none;stroke:#000000;stroke-width:1.09190183;stroke-linecap:round;stroke-linejoin:round;stroke-miterlimit:4;stroke-dasharray:none" />
      <path
         inkscape:connector-curvature="0"
         d="m 44.75537,1018.0919 -0.211237,0.1205 -0.207787,0.1392 -0.204315,0.158 -0.200773,0.1768 -0.198045,0.1962 -0.195223,0.2156 -0.193124,0.2357 -0.191327,0.256 -0.189067,0.2764 -0.187855,0.2976 -0.186944,0.3192 -0.185853,0.3412 -0.185391,0.3638 -0.184815,0.3866"
         id="path4202"
         style="fill:none;stroke:#000000;stroke-width:1.09190183;stroke-linecap:round;stroke-linejoin:round;stroke-miterlimit:4;stroke-dasharray:none" />
      <path
         inkscape:connector-curvature="0"
         d="m 42.033614,1021.5747 -0.18517,0.4107 -0.185368,0.4349 -0.185709,0.4598 -0.186611,0.4855 -0.188074,0.5122 -0.189241,0.5393 -0.190947,0.5673 -0.193076,0.5964 -0.195327,0.6262 -0.198003,0.6571 -0.201125,0.689 -0.204232,0.7219 -0.207742,0.7559 -0.211212,0.7909"
         id="path4204"
         style="fill:none;stroke:#000000;stroke-width:1.09190183;stroke-linecap:round;stroke-linejoin:round;stroke-miterlimit:4;stroke-dasharray:none" />
      <path
         inkscape:connector-curvature="0"
         id="31"
         d="m 39.311743,1042.5335 3.4e-5,-12.7117"
         style="fill:none;stroke:#000000;stroke-width:1.09190183;stroke-linecap:round;stroke-linejoin:round;stroke-miterlimit:4;stroke-dasharray:none" />
      <path
         inkscape:connector-curvature="0"
         d="m 39.311777,1029.8218 -0.789727,-0.213 -0.775057,-0.1885 -0.762002,-0.164 -0.749728,-0.1401 -0.739047,-0.1161 -0.729102,-0.092 -0.720311,-0.069 -0.712975,-0.045 -0.706793,-0.022 -0.701256,0 -0.696803,0.024 -0.693761,0.048 -0.691736,0.072 -0.690356,0.095"
         id="path4207"
         style="fill:none;stroke:#000000;stroke-width:1.09190183;stroke-linecap:round;stroke-linejoin:round;stroke-miterlimit:4;stroke-dasharray:none" />
      <path
         inkscape:connector-curvature="0"
         d="m 29.153123,1029.0113 -0.690712,0.1188 -0.691319,0.1424 -0.694011,0.1668 -0.696864,0.1911 -0.70108,0.2156 -0.706573,0.2407 -0.712989,0.2661 -0.720658,0.2919 -0.728811,0.3179 -0.739006,0.3448 -0.75008,0.3721 -0.761722,0.3998 -0.775129,0.4283 -0.789545,0.4573"
         id="path4209"
         style="fill:none;stroke:#000000;stroke-width:1.09190183;stroke-linecap:round;stroke-linejoin:round;stroke-miterlimit:4;stroke-dasharray:none" />
      <path
         inkscape:connector-curvature="0"
         id="34"
         d="m 18.994633,1045.6766 -9e-6,-12.7117"
         style="fill:none;stroke:#000000;stroke-width:1.09190183;stroke-linecap:round;stroke-linejoin:round;stroke-miterlimit:4;stroke-dasharray:none" />
      <path
         inkscape:connector-curvature="0"
         d="m 37.747078,1011.672 1.37e-4,2e-4 5.31e-4,0 1.36e-4,3e-4 1.37e-4,2e-4 5.31e-4,0 1.59e-4,3e-4 1.37e-4,2e-4 5.31e-4,1e-4 1.36e-4,2e-4 1.37e-4,2e-4 5.54e-4,10e-5 1.36e-4,2e-4 1.37e-4,2e-4 5.31e-4,10e-5"
         id="path4212"
         style="fill:none;stroke:#000000;stroke-width:1.09190183;stroke-linecap:round;stroke-linejoin:round;stroke-miterlimit:4;stroke-dasharray:none" />
      <path
         inkscape:connector-curvature="0"
         d="m 37.751008,1011.6743 0.475172,0.3038 0.476173,0.3257 0.478326,0.3476 0.480845,0.3701 0.484166,0.3933 0.487831,0.4168 0.492344,0.4411 0.49764,0.4658 0.503413,0.4912 0.509641,0.5175 0.517114,0.5441 0.525088,0.5716 0.533608,0.6 0.543001,0.629"
         id="path4214"
         style="fill:none;stroke:#000000;stroke-width:1.09190183;stroke-linecap:round;stroke-linejoin:round;stroke-miterlimit:4;stroke-dasharray:none" />
      <path
         inkscape:connector-curvature="0"
         d="m 18.994624,1032.9649 -0.577979,-0.6689 -0.56745,-0.636 -0.557717,-0.6039 -0.548896,-0.573 -0.540945,-0.5427 -0.53376,-0.5135 -0.527475,-0.4849 -0.521929,-0.4571 -0.517245,-0.43 -0.513291,-0.4036 -0.510211,-0.3778 -0.5078,-0.3525 -0.506301,-0.3279 -0.50552,-0.3037"
         id="path4216"
         style="fill:none;stroke:#000000;stroke-width:1.09190183;stroke-linecap:round;stroke-linejoin:round;stroke-miterlimit:4;stroke-dasharray:none" />
      <path
         inkscape:connector-curvature="0"
         d="m 11.558105,1026.2894 -0.505506,-0.28 -0.506311,-0.2568 -0.507836,-0.2338 -0.5101757,-0.2113 -0.5133138,-0.1892 -0.517221,-0.1672 -0.5219596,-0.1456 -0.5274281,-0.1241 -0.5337842,-0.1029 -0.5409033,-0.082 -0.5489102,-0.061 -0.5577589,-0.04 -0.5674437,-0.019 -0.5779705,0"
         id="path4218"
         style="fill:none;stroke:#000000;stroke-width:1.09190183;stroke-linecap:round;stroke-linejoin:round;stroke-miterlimit:4;stroke-dasharray:none" />
      <path
         inkscape:connector-curvature="0"
         id="39"
         d="m 4.1215922,1037.0897 -9.2e-6,-12.7118"
         style="fill:none;stroke:#000000;stroke-width:1.09190183;stroke-linecap:round;stroke-linejoin:round;stroke-miterlimit:4;stroke-dasharray:none" />
      <path
         inkscape:connector-curvature="0"
         d="m 4.121583,1024.3779 0.2115668,-0.791 0.2077019,-0.7559 0.2041142,-0.7218 0.2009281,-0.6889 0.1980027,-0.6571 0.1953667,-0.6262 0.1930368,-0.5964 0.1910647,-0.5674 0.18932,-0.5393 0.1878767,-0.5121 0.1867292,-0.4856 0.1859289,-0.4599 0.1853056,-0.4349 0.1850131,-0.4105"
         id="path4221"
         style="fill:none;stroke:#000000;stroke-width:1.09190183;stroke-linecap:round;stroke-linejoin:round;stroke-miterlimit:4;stroke-dasharray:none" />
      <path
         inkscape:connector-curvature="0"
         d="m 6.8435384,1016.1309 0.1721199,-0.3606 0.172322,-0.3405 0.1728213,-0.321 0.1734828,-0.3018 0.1743855,-0.2831 0.1755459,-0.2647 0.1769763,-0.2467 0.1785689,-0.229 0.1804086,-0.2116 0.1825351,-0.1945 0.1848526,-0.1776 0.1874628,-0.1611 0.1902808,-0.1446 0.1934371,-0.1285"
         id="path4223"
         style="fill:none;stroke:#000000;stroke-width:1.09190183;stroke-linecap:round;stroke-linejoin:round;stroke-miterlimit:4;stroke-dasharray:none" />
    </g>
  </g>
</svg>
