<?xml version="1.0" encoding="UTF-8" standalone="no"?>
<!-- Created with Inkscape (http://www.inkscape.org/) -->

<svg
   width="64"
   height="64"
   id="svg2869"
   version="1.1"
   viewBox="0 0 64 64"
   xmlns:xlink="http://www.w3.org/1999/xlink"
   xmlns="http://www.w3.org/2000/svg"
   xmlns:svg="http://www.w3.org/2000/svg"
   xmlns:rdf="http://www.w3.org/1999/02/22-rdf-syntax-ns#"
   xmlns:cc="http://creativecommons.org/ns#"
   xmlns:dc="http://purl.org/dc/elements/1.1/">
  <title
     id="title22">FreeCAD SVG Export</title>
  <defs
     id="defs2871">
    <linearGradient
       id="linearGradient76">
      <stop
         style="stop-color:#729fcf;stop-opacity:1"
         offset="0"
         id="stop76" />
      <stop
         style="stop-color:#204a87;stop-opacity:1"
         offset="1"
         id="stop77" />
    </linearGradient>
    <linearGradient
       id="linearGradient58">
      <stop
         style="stop-color:#729fcf;stop-opacity:1"
         offset="0"
         id="stop58" />
      <stop
         style="stop-color:#204a87;stop-opacity:1"
         offset="1"
         id="stop59" />
    </linearGradient>
    <linearGradient
       id="linearGradient5">
      <stop
         style="stop-color:#ef2929;stop-opacity:1;"
         offset="0"
         id="stop19" />
      <stop
         style="stop-color:#ef2929;stop-opacity:0;"
         offset="1"
         id="stop20" />
    </linearGradient>
    <linearGradient
       id="swatch18">
      <stop
         style="stop-color:#ef2929;stop-opacity:1;"
         offset="0"
         id="stop18" />
    </linearGradient>
    <linearGradient
       id="swatch15">
      <stop
         style="stop-color:#3d0000;stop-opacity:1;"
         offset="0"
         id="stop15" />
    </linearGradient>
    <linearGradient
       id="linearGradient5-1">
      <stop
         style="stop-color:#ef2929;stop-opacity:1;"
         offset="0"
         id="stop5" />
      <stop
         style="stop-color:#ef2929;stop-opacity:0;"
         offset="1"
         id="stop6" />
    </linearGradient>
    <linearGradient
       id="linearGradient3836-9">
      <stop
         style="stop-color:#a40000;stop-opacity:1"
         offset="0"
         id="stop3838-8" />
      <stop
         style="stop-color:#ef2929;stop-opacity:1"
         offset="1"
         id="stop3840-1" />
    </linearGradient>
    <linearGradient
       xlink:href="#linearGradient58"
       id="linearGradient82"
       gradientUnits="userSpaceOnUse"
       x1="32"
       y1="26.945217"
       x2="44.632576"
       y2="26.945217"
       spreadMethod="reflect" />
    <linearGradient
       xlink:href="#linearGradient76"
       id="linearGradient83"
       gradientUnits="userSpaceOnUse"
       x1="32"
       y1="46.504883"
       x2="38.085938"
       y2="46.504883"
       spreadMethod="reflect" />
    <linearGradient
       xlink:href="#linearGradient3774"
       id="linearGradient4316-3"
       gradientUnits="userSpaceOnUse"
       gradientTransform="matrix(0.06183271,-0.69215846,0.57205891,0.05424512,847.51461,1510.3523)"
       x1="288.11227"
       y1="358.15811"
       x2="372.52457"
       y2="7.5416322" />
    <linearGradient
       id="linearGradient3774">
      <stop
         style="stop-color:#cc0000;stop-opacity:1"
         offset="0"
         id="stop3776" />
      <stop
         style="stop-color:#ef2929;stop-opacity:1"
         offset="1"
         id="stop3778" />
    </linearGradient>
  </defs>
  <metadata
     id="metadata2874">
    <rdf:RDF>
      <cc:Work
         rdf:about="">
        <dc:format>image/svg+xml</dc:format>
        <dc:type
           rdf:resource="http://purl.org/dc/dcmitype/StillImage" />
        <dc:creator>
          <cc:Agent>
            <dc:title>[maxwxyz]</dc:title>
          </cc:Agent>
        </dc:creator>
        <dc:relation>https://www.freecad.org/wiki/index.php?title=Artwork</dc:relation>
        <dc:publisher>
          <cc:Agent>
            <dc:title>FreeCAD</dc:title>
          </cc:Agent>
        </dc:publisher>
        <dc:identifier>FreeCAD/src/</dc:identifier>
        <dc:rights>
          <cc:Agent>
            <dc:title>FreeCAD LGPL2+</dc:title>
          </cc:Agent>
        </dc:rights>
        <dc:date>2024</dc:date>
        <dc:title>FreeCAD SVG Export</dc:title>
      </cc:Work>
    </rdf:RDF>
  </metadata>
  <g
     id="layer3"
     style="display:inline">
    <g
       id="g79"
       transform="matrix(1.2331437,0,0,1.2270698,5.1750789,-22.522111)"
       style="stroke-width:0.81294">
      <rect
         y="21.890434"
         x="19.367424"
         height="10.109566"
         width="25.265152"
         id="rect77"
         style="fill:#729fcf;fill-opacity:1;fill-rule:evenodd;stroke:#0c1522;stroke-width:1.62588;stroke-linecap:round;stroke-linejoin:round;stroke-miterlimit:4;stroke-dasharray:none;stroke-dashoffset:0;stroke-opacity:1" />
      <rect
         y="32"
         x="24.914768"
         height="29.009968"
         width="14.170456"
         id="rect78"
         style="fill:#729fcf;fill-opacity:1;fill-rule:evenodd;stroke:#0c1522;stroke-width:1.62588;stroke-linecap:round;stroke-linejoin:round;stroke-miterlimit:4;stroke-dasharray:none;stroke-dashoffset:0;stroke-opacity:1" />
      <path
         y="21.890434"
         x="19.367424"
         height="10.109566"
         width="25.265152"
         id="path78"
         style="font-variation-settings:normal;opacity:1;vector-effect:none;fill:url(#linearGradient82);fill-opacity:1;fill-rule:evenodd;stroke:#729fcf;stroke-width:1.62588;stroke-linecap:round;stroke-linejoin:round;stroke-miterlimit:4;stroke-dasharray:none;stroke-dashoffset:0;stroke-opacity:1;-inkscape-stroke:none;stop-color:#000000;stop-opacity:1"
         d="M 20.992187,23.515625 H 43.007812 V 30.375 H 20.992187 Z" />
      <path
         y="32"
         x="24.914768"
         height="29.009968"
         width="14.170456"
         id="path79"
         style="fill:url(#linearGradient83);fill-opacity:1;fill-rule:evenodd;stroke:#729fcf;stroke-width:1.62588;stroke-linecap:round;stroke-linejoin:round;stroke-miterlimit:4;stroke-dasharray:none;stroke-dashoffset:0;stroke-opacity:1"
         d="M 26.539062,33.625 H 37.460937 V 59.384766 H 26.539062 Z" />
    </g>
    <g
       id="g848"
       transform="matrix(0.14362562,0,0,0.14362562,-122.57666,-147.91806)">
      <path
         id="path4312-7"
         d="m 981.26844,1199.5897 c -23.22708,22.774 -38.78184,61.0912 -46.66819,114.9502 l -42.7912,-4.0576 c -4.57296,-0.4337 -8.01407,1.8318 -10.32543,6.7941 -2.33026,5.2257 -1.9825,9.9096 1.05198,14.0496 l 74.58404,109.1052 c 1.84782,2.7005 4.18501,4.1828 7.01545,4.4512 2.83125,0.2684 5.39138,-0.75 7.6847,-3.0572 l 92.66051,-93.2492 c 2.2813,-2.1792 3.5801,-5.0423 3.8979,-8.5997 0.1412,-1.5805 0.016,-3.2522 -0.375,-5.0169 -1.3934,-5.3134 -4.3724,-8.1898 -8.9476,-8.6236 l -40.9955,-3.8874 c 3.3105,-21.0748 7.7425,-38.4228 13.2971,-52.0512 5.5547,-13.6222 12.5731,-24.2813 21.0578,-31.9809 19.7193,-17.9274 51.1003,-21.994 94.151,-12.1985 2.8089,0.5287 4.7944,-0.8066 5.9595,-4.0188 0.1462,-0.3847 0.2505,-0.9722 0.3211,-1.7627 0.2354,-2.6344 -0.5254,-4.5646 -2.2818,-5.7964 l -6.1799,-4.5711 c -2.8849,-2.1315 -7.5745,-5.2663 -14.0677,-9.403 -6.4965,-4.1346 -13.017,-7.9466 -19.5704,-11.4249 -6.5504,-3.4781 -13.8368,-6.7252 -21.8573,-9.7452 -8.0238,-3.0183 -15.1905,-4.8281 -21.5044,-5.4268 -36.5853,-3.4692 -65.289,5.0396 -86.11666,25.5208 z"
         style="opacity:1;fill:#ef2929;fill-opacity:1;stroke:#230b0b;stroke-width:14.6213;stroke-miterlimit:4;stroke-dasharray:none;stroke-opacity:1" />
      <path
         style="opacity:1;fill:url(#linearGradient4316-3);fill-opacity:1;stroke:none;stroke-width:43.0657;stroke-miterlimit:4;stroke-dasharray:none;stroke-opacity:1"
         d="m 912.40727,1336.8997 c 18.10965,26.4928 35.81255,53.3164 54.37597,79.4477 22.85603,-23.4766 46.51736,-46.0183 69.19286,-69.703 -14.0292,-1.3545 -28.053,-2.777 -42.09822,-3.949 5.02268,-35.0484 10.50862,-71.4994 28.95672,-101.7877 12.9758,-21.618 35.1817,-34.9317 57.9386,-40.9012 -24.2632,-7.102 -51.678,-6.6327 -74.0363,7.2277 -20.63289,12.8563 -32.92403,36.5528 -40.35113,60.1527 -6.7066,19.223 -8.18734,39.866 -14.20145,59.2723 -5.96061,9.965 -18.30518,12.2595 -28.35141,9.6934 -4.32735,-0.4936 -8.69078,-1.2118 -13.03881,-1.8171 0.53771,0.7882 1.07541,1.5765 1.61312,2.3647 z"
         id="path4314-5" />
    </g>
  </g>
</svg>
