<?xml version="1.0" encoding="UTF-8" standalone="no"?>
<!-- Created with Inkscape (http://www.inkscape.org/) -->

<svg
   width="64"
   height="64"
   id="svg2869"
   version="1.1"
   viewBox="0 0 64 64"
   xmlns:xlink="http://www.w3.org/1999/xlink"
   xmlns="http://www.w3.org/2000/svg"
   xmlns:svg="http://www.w3.org/2000/svg"
   xmlns:rdf="http://www.w3.org/1999/02/22-rdf-syntax-ns#"
   xmlns:cc="http://creativecommons.org/ns#"
   xmlns:dc="http://purl.org/dc/elements/1.1/">
  <title
     id="title22">FreeCAD SVG Export</title>
  <defs
     id="defs2871">
    <linearGradient
       id="linearGradient5">
      <stop
         style="stop-color:#ef2929;stop-opacity:1;"
         offset="0"
         id="stop19" />
      <stop
         style="stop-color:#ef2929;stop-opacity:0;"
         offset="1"
         id="stop20" />
    </linearGradient>
    <linearGradient
       id="swatch18">
      <stop
         style="stop-color:#ef2929;stop-opacity:1;"
         offset="0"
         id="stop18" />
    </linearGradient>
    <linearGradient
       id="swatch15">
      <stop
         style="stop-color:#3d0000;stop-opacity:1;"
         offset="0"
         id="stop15" />
    </linearGradient>
    <linearGradient
       id="linearGradient5-1">
      <stop
         style="stop-color:#ef2929;stop-opacity:1;"
         offset="0"
         id="stop5" />
      <stop
         style="stop-color:#ef2929;stop-opacity:0;"
         offset="1"
         id="stop6" />
    </linearGradient>
    <linearGradient
       id="linearGradient3836-9">
      <stop
         style="stop-color:#a40000;stop-opacity:1"
         offset="0"
         id="stop3838-8" />
      <stop
         style="stop-color:#ef2929;stop-opacity:1"
         offset="1"
         id="stop3840-1" />
    </linearGradient>
    <linearGradient
       xlink:href="#linearGradient5889"
       id="linearGradient5639"
       x1="23.779158"
       y1="1027.2395"
       x2="41.296703"
       y2="1027.2395"
       gradientUnits="userSpaceOnUse"
       gradientTransform="matrix(1.4047081,0,0,1.4043346,-1.4027758,-1410.588)"
       spreadMethod="reflect" />
    <linearGradient
       id="linearGradient5889">
      <stop
         style="stop-color:#729fcf;stop-opacity:1"
         offset="0"
         id="stop5891" />
      <stop
         style="stop-color:#204a87;stop-opacity:1"
         offset="1"
         id="stop5893" />
    </linearGradient>
  </defs>
  <metadata
     id="metadata2874">
    <rdf:RDF>
      <cc:Work
         rdf:about="">
        <dc:format>image/svg+xml</dc:format>
        <dc:type
           rdf:resource="http://purl.org/dc/dcmitype/StillImage" />
        <dc:creator>
          <cc:Agent>
            <dc:title>[maxwxyz]</dc:title>
          </cc:Agent>
        </dc:creator>
        <dc:relation>https://www.freecad.org/wiki/index.php?title=Artwork</dc:relation>
        <dc:publisher>
          <cc:Agent>
            <dc:title>FreeCAD</dc:title>
          </cc:Agent>
        </dc:publisher>
        <dc:identifier>FreeCAD/src/</dc:identifier>
        <dc:rights>
          <cc:Agent>
            <dc:title>FreeCAD LGPL2+</dc:title>
          </cc:Agent>
        </dc:rights>
        <dc:date>2024</dc:date>
        <dc:title>FreeCAD SVG Export</dc:title>
      </cc:Work>
    </rdf:RDF>
  </metadata>
  <g
     id="layer3"
     style="display:inline">
    <path
       style="fill:#729fcf;fill-opacity:1;stroke:#000000;stroke-width:6;stroke-linecap:round;stroke-linejoin:round;stroke-miterlimit:4;stroke-dasharray:none"
       d="m 49.134626,8.160367 c 2.150844,1.248874 4.414061,2.561927 6.789641,3.938596 0.104763,0.0632 0.157155,0.122177 0.157155,0.182423 l 8e-6,1.559093 c 9e-6,0.0632 -0.05238,0.122177 -0.157138,0.182423 -2.37559,1.376809 -4.638806,2.689722 -6.789651,3.939018 -0.08611,0.04213 -0.196367,0.13622 -0.330761,0.284799 -0.101195,0.110942 -0.192887,0.268087 -0.275088,0.473822 -0.06158,0.153354 -0.09615,0.34013 -0.103737,0.561032 0.0025,0.218374 0.03336,0.406274 0.09225,0.563981 0.07837,0.206858 0.167195,0.367374 0.266455,0.481406 0.142104,0.161779 0.259054,0.264857 0.350859,0.310779 2.150868,1.249577 4.414085,2.562489 6.789667,3.938878 0.104763,0.0632 0.157154,0.122177 0.157154,0.182423 l 9e-6,1.559092 c 8e-6,0.0632 -0.05238,0.122177 -0.157138,0.182564 -2.37559,1.37709 -4.638807,2.690143 -6.789651,3.93972 -0.08611,0.04213 -0.196366,0.13622 -0.330761,0.284939 -0.101195,0.110943 -0.192888,0.267947 -0.275088,0.47284 -0.06158,0.153353 -0.09615,0.34013 -0.103738,0.561172 0.0025,0.218374 0.03336,0.406274 0.09225,0.564262 0.07837,0.206998 0.167196,0.367514 0.266455,0.481686 0.142105,0.16192 0.259055,0.265139 0.35086,0.310358 2.150868,1.249156 4.414084,2.562349 6.789666,3.938878 0.104763,0.06039 0.157155,0.120773 0.157155,0.182704 l 8e-6,1.559233 c 8e-6,0.0632 -0.05238,0.122177 -0.157138,0.182282 -2.37559,1.376669 -4.638807,2.689863 -6.789651,3.93944 -0.08611,0.04213 -0.196365,0.13622 -0.330761,0.284939 -0.101195,0.110943 -0.192887,0.267666 -0.275088,0.472699 -0.06158,0.153353 -0.09615,0.340411 -0.103738,0.561734 0.0025,0.218374 0.03336,0.406134 0.09225,0.5637 0.07837,0.207139 0.167195,0.367655 0.266456,0.481827 0.142104,0.16192 0.259053,0.264998 0.350858,0.310498 1.609183,0.934866 3.281334,1.905121 5.01647,2.910203 0.06948,0.04073 0.08403,0.08145 0.04369,0.122177 l -5.769684,5.768585 H 48.237775 47.678241 C 28.317956,54.394713 35.93695,54.39373 16.576664,54.39373 h -0.559533 -0.187347 l -1.813257,-1.812996 c -0.04544,-0.04634 -0.02915,-0.08988 0.04891,-0.136221 l 1.054687,-0.612711 c 0.0919,-0.04634 0.208875,-0.148157 0.350984,-0.310498 0.09927,-0.113751 0.188082,-0.274267 0.266454,-0.481125 0.05889,-0.15855 0.08964,-0.346169 0.09225,-0.564402 -0.0074,-0.221323 -0.04216,-0.408521 -0.103738,-0.561734 -0.0822,-0.204893 -0.173897,-0.362459 -0.275088,-0.472699 -0.134403,-0.148157 -0.24465,-0.24281 -0.330761,-0.284799 -2.150846,-1.249577 -4.414059,-2.56263 -6.789648,-3.939159 -0.104778,-0.06319 -0.157158,-0.122177 -0.157148,-0.182423 l 9e-6,-1.559513 c 0,-0.05898 0.05238,-0.119369 0.157147,-0.182564 2.375581,-1.376248 4.638754,-2.68916 6.789539,-3.938737 0.0919,-0.04634 0.208874,-0.148298 0.350983,-0.310499 0.09927,-0.113751 0.188082,-0.274687 0.266455,-0.481827 0.05889,-0.156724 0.08963,-0.345326 0.09225,-0.5637 -0.0074,-0.221323 -0.04216,-0.408521 -0.103738,-0.561734 -0.0822,-0.205032 -0.173897,-0.362458 -0.275088,-0.472699 -0.134403,-0.148297 -0.24465,-0.242809 -0.330761,-0.284939 -2.150844,-1.249577 -4.414059,-2.56277 -6.789648,-3.939439 -0.104763,-0.06039 -0.157156,-0.119369 -0.157148,-0.182283 l 9e-6,-1.559795 c 0,-0.05898 0.05238,-0.119368 0.157147,-0.182282 2.375582,-1.376388 4.638754,-2.689301 6.789539,-3.938878 0.0919,-0.04634 0.208876,-0.148298 0.350983,-0.310498 0.09927,-0.113751 0.188083,-0.274407 0.266455,-0.481406 0.05889,-0.156864 0.08963,-0.345466 0.09225,-0.5637 -0.0074,-0.221042 -0.04216,-0.4081 -0.103738,-0.561313 -0.0822,-0.205735 -0.173895,-0.363441 -0.275088,-0.473822 -0.134408,-0.148157 -0.244655,-0.242529 -0.330765,-0.284659 -2.150846,-1.249296 -4.41406,-2.562349 -6.78965,-3.939439 -0.104763,-0.06039 -0.157156,-0.119369 -0.157148,-0.182564 l 9e-6,-1.559232 c 0,-0.05898 0.05238,-0.119369 0.157139,-0.182423 2.375573,-1.376529 4.638746,-2.689722 6.789527,-3.939299 0.09191,-0.04634 0.208917,-0.148158 0.351005,-0.310218 0.09926,-0.11656 0.188065,-0.273003 0.266454,-0.481406 0.05865,-0.160234 0.08952,-0.347011 0.09225,-0.563981 -0.0074,-0.220901 -0.04216,-0.407678 -0.103738,-0.561031 C 15.643869,12.27942 15.55216,12.121433 15.450981,12.00726 15.316578,11.859103 15.206348,11.765013 15.12022,11.722321 12.969373,10.473306 10.706159,9.160112 8.33057,7.783443"
       id="path88" />
    <path
       style="fill:none;fill-opacity:1;stroke:#000000;stroke-width:2;stroke-linecap:round;stroke-linejoin:round;stroke-dasharray:none"
       d="M 43.762618,46.169806 Z"
       id="path5619" />
    <path
       style="fill:url(#linearGradient5639);fill-opacity:1;stroke:#729fcf;stroke-width:2;stroke-linecap:round;stroke-linejoin:round;stroke-miterlimit:4;stroke-dasharray:none"
       d="m 49.134626,8.160367 c 2.150844,1.248874 4.414061,2.561927 6.789641,3.938596 0.104763,0.0632 0.157155,0.122177 0.157155,0.182423 l 8e-6,1.559093 c 9e-6,0.0632 -0.05238,0.122177 -0.157138,0.182423 -2.37559,1.376809 -4.638806,2.689722 -6.789651,3.939018 -0.08611,0.04213 -0.196367,0.13622 -0.330761,0.284799 -0.101195,0.110942 -0.192887,0.268087 -0.275088,0.473822 -0.06158,0.153354 -0.09615,0.34013 -0.103737,0.561032 0.0025,0.218374 0.03336,0.406274 0.09225,0.563981 0.07837,0.206858 0.167195,0.367374 0.266455,0.481406 0.142104,0.161779 0.259054,0.264857 0.350859,0.310779 2.150868,1.249577 4.414085,2.562489 6.789667,3.938878 0.104763,0.0632 0.157154,0.122177 0.157154,0.182423 l 9e-6,1.559092 c 8e-6,0.0632 -0.05238,0.122177 -0.157138,0.182564 -2.37559,1.37709 -4.638807,2.690143 -6.789651,3.93972 -0.08611,0.04213 -0.196366,0.13622 -0.330761,0.284939 -0.101195,0.110943 -0.192888,0.267947 -0.275088,0.47284 -0.06158,0.153353 -0.09615,0.34013 -0.103738,0.561172 0.0025,0.218374 0.03336,0.406274 0.09225,0.564262 0.07837,0.206998 0.167196,0.367514 0.266455,0.481686 0.142105,0.16192 0.259055,0.265139 0.35086,0.310358 2.150868,1.249156 4.414084,2.562349 6.789666,3.938878 0.104763,0.06039 0.157155,0.120773 0.157155,0.182704 l 8e-6,1.559233 c 8e-6,0.0632 -0.05238,0.122177 -0.157138,0.182282 -2.37559,1.376669 -4.638807,2.689863 -6.789651,3.93944 -0.08611,0.04213 -0.196365,0.13622 -0.330761,0.284939 -0.101195,0.110943 -0.192887,0.267666 -0.275088,0.472699 -0.06158,0.153353 -0.09615,0.340411 -0.103738,0.561734 0.0025,0.218374 0.03336,0.406134 0.09225,0.5637 0.07837,0.207139 0.167195,0.367655 0.266456,0.481827 0.142104,0.16192 0.259053,0.264998 0.350858,0.310498 1.609183,0.934866 3.281334,1.905121 5.01647,2.910203 0.06948,0.04073 0.08403,0.08145 0.04369,0.122177 l -5.769684,5.768585 H 48.237775 47.678241 C 28.317956,54.394713 35.93695,54.39373 16.576664,54.39373 h -0.559533 -0.187347 l -1.813257,-1.812996 c -0.04544,-0.04634 -0.02915,-0.08988 0.04891,-0.136221 l 1.054687,-0.612711 c 0.0919,-0.04634 0.208875,-0.148157 0.350984,-0.310498 0.09927,-0.113751 0.188082,-0.274267 0.266454,-0.481125 0.05889,-0.15855 0.08964,-0.346169 0.09225,-0.564402 -0.0074,-0.221323 -0.04216,-0.408521 -0.103738,-0.561734 -0.0822,-0.204893 -0.173897,-0.362459 -0.275088,-0.472699 -0.134403,-0.148157 -0.24465,-0.24281 -0.330761,-0.284799 -2.150846,-1.249577 -4.414059,-2.56263 -6.789648,-3.939159 -0.104778,-0.06319 -0.157158,-0.122177 -0.157148,-0.182423 l 9e-6,-1.559513 c 0,-0.05898 0.05238,-0.119369 0.157147,-0.182564 2.375581,-1.376248 4.638754,-2.68916 6.789539,-3.938737 0.0919,-0.04634 0.208874,-0.148298 0.350983,-0.310499 0.09927,-0.113751 0.188082,-0.274687 0.266455,-0.481827 0.05889,-0.156724 0.08963,-0.345326 0.09225,-0.5637 -0.0074,-0.221323 -0.04216,-0.408521 -0.103738,-0.561734 -0.0822,-0.205032 -0.173897,-0.362458 -0.275088,-0.472699 -0.134403,-0.148297 -0.24465,-0.242809 -0.330761,-0.284939 -2.150844,-1.249577 -4.414059,-2.56277 -6.789648,-3.939439 -0.104763,-0.06039 -0.157156,-0.119369 -0.157148,-0.182283 l 9e-6,-1.559795 c 0,-0.05898 0.05238,-0.119368 0.157147,-0.182282 2.375582,-1.376388 4.638754,-2.689301 6.789539,-3.938878 0.0919,-0.04634 0.208876,-0.148298 0.350983,-0.310498 0.09927,-0.113751 0.188083,-0.274407 0.266455,-0.481406 0.05889,-0.156864 0.08963,-0.345466 0.09225,-0.5637 -0.0074,-0.221042 -0.04216,-0.4081 -0.103738,-0.561313 -0.0822,-0.205735 -0.173895,-0.363441 -0.275088,-0.473822 -0.134408,-0.148157 -0.244655,-0.242529 -0.330765,-0.284659 -2.150846,-1.249296 -4.41406,-2.562349 -6.78965,-3.939439 -0.104763,-0.06039 -0.157156,-0.119369 -0.157148,-0.182564 l 9e-6,-1.559232 c 0,-0.05898 0.05238,-0.119369 0.157139,-0.182423 2.375573,-1.376529 4.638746,-2.689722 6.789527,-3.939299 0.09191,-0.04634 0.208917,-0.148158 0.351005,-0.310218 0.09926,-0.11656 0.188065,-0.273003 0.266454,-0.481406 0.05865,-0.160234 0.08952,-0.347011 0.09225,-0.563981 -0.0074,-0.220901 -0.04216,-0.407678 -0.103738,-0.561031 C 15.643869,12.27942 15.55216,12.121433 15.450981,12.00726 15.316578,11.859103 15.206348,11.765013 15.12022,11.722321 12.969373,10.473306 10.706159,9.160112 8.33057,7.783443"
       id="path4634" />
    <path
       style="fill:none;fill-opacity:1;fill-rule:evenodd;stroke:#a40000;stroke-width:6;stroke-linecap:round;stroke-linejoin:round;stroke-miterlimit:4;stroke-dasharray:none;stroke-dashoffset:0;stroke-opacity:1"
       d="M 20,4.8124999 V 59.1875"
       id="path89" />
    <path
       style="fill:none;fill-opacity:1;fill-rule:evenodd;stroke:#ef2929;stroke-width:2;stroke-linecap:round;stroke-linejoin:round;stroke-miterlimit:4;stroke-dasharray:none;stroke-dashoffset:0;stroke-opacity:1"
       d="M 20,4.8124999 V 59.1875"
       id="path5641" />
    <path
       style="fill:#ef2929;fill-opacity:1;fill-rule:evenodd;stroke:#a40000;stroke-width:2;stroke-linecap:round;stroke-linejoin:round;stroke-miterlimit:4;stroke-dasharray:none;stroke-dashoffset:0;stroke-opacity:1"
       d="M 14.789203,32.051749 3,24.814651 v 14.370696 z"
       id="path5658-0" />
    <path
       style="fill:none;fill-opacity:1;fill-rule:evenodd;stroke:#a40000;stroke-width:6;stroke-linecap:round;stroke-linejoin:round;stroke-miterlimit:4;stroke-dasharray:none;stroke-dashoffset:0;stroke-opacity:1"
       d="M 44,4.8124999 V 59.1875"
       id="path90" />
    <path
       style="fill:none;fill-opacity:1;fill-rule:evenodd;stroke:#ef2929;stroke-width:2;stroke-linecap:round;stroke-linejoin:round;stroke-miterlimit:4;stroke-dasharray:none;stroke-dashoffset:0;stroke-opacity:1"
       d="M 44,4.8124999 V 59.1875"
       id="path91" />
    <path
       style="fill:#ef2929;fill-opacity:1;fill-rule:evenodd;stroke:#a40000;stroke-width:2;stroke-linecap:round;stroke-linejoin:round;stroke-miterlimit:4;stroke-dasharray:none;stroke-dashoffset:0;stroke-opacity:1"
       d="M 49.210797,32 61,24.762902 v 14.370696 z"
       id="path92" />
  </g>
</svg>
