<?xml version="1.0" encoding="UTF-8" standalone="no"?>
<!-- Created with Inkscape (http://www.inkscape.org/) -->

<svg
   width="64"
   height="64"
   id="svg2869"
   version="1.1"
   viewBox="0 0 64 64"
   xmlns:xlink="http://www.w3.org/1999/xlink"
   xmlns="http://www.w3.org/2000/svg"
   xmlns:svg="http://www.w3.org/2000/svg"
   xmlns:rdf="http://www.w3.org/1999/02/22-rdf-syntax-ns#"
   xmlns:cc="http://creativecommons.org/ns#"
   xmlns:dc="http://purl.org/dc/elements/1.1/">
  <title
     id="title22">FreeCAD SVG Export</title>
  <defs
     id="defs2871">
    <linearGradient
       id="linearGradient22">
      <stop
         style="stop-color:#729fcf;stop-opacity:1"
         offset="0"
         id="stop22" />
      <stop
         style="stop-color:#3465a4;stop-opacity:1"
         offset="1"
         id="stop23" />
    </linearGradient>
    <linearGradient
       id="linearGradient5">
      <stop
         style="stop-color:#ef2929;stop-opacity:1;"
         offset="0"
         id="stop19" />
      <stop
         style="stop-color:#ef2929;stop-opacity:0;"
         offset="1"
         id="stop20" />
    </linearGradient>
    <linearGradient
       id="swatch18">
      <stop
         style="stop-color:#ef2929;stop-opacity:1;"
         offset="0"
         id="stop18" />
    </linearGradient>
    <linearGradient
       id="swatch15">
      <stop
         style="stop-color:#3d0000;stop-opacity:1;"
         offset="0"
         id="stop15" />
    </linearGradient>
    <linearGradient
       id="linearGradient5-1">
      <stop
         style="stop-color:#ef2929;stop-opacity:1;"
         offset="0"
         id="stop5" />
      <stop
         style="stop-color:#ef2929;stop-opacity:0;"
         offset="1"
         id="stop6" />
    </linearGradient>
    <linearGradient
       id="linearGradient3836-9">
      <stop
         style="stop-color:#a40000;stop-opacity:1"
         offset="0"
         id="stop3838-8" />
      <stop
         style="stop-color:#ef2929;stop-opacity:1"
         offset="1"
         id="stop3840-1" />
    </linearGradient>
    <linearGradient
       xlink:href="#linearGradient22"
       id="linearGradient23"
       x1="15.067151"
       y1="4"
       x2="43.294601"
       y2="54.097088"
       gradientUnits="userSpaceOnUse" />
  </defs>
  <metadata
     id="metadata2874">
    <rdf:RDF>
      <cc:Work
         rdf:about="">
        <dc:format>image/svg+xml</dc:format>
        <dc:type
           rdf:resource="http://purl.org/dc/dcmitype/StillImage" />
        <dc:creator>
          <cc:Agent>
            <dc:title>[maxwxyz]</dc:title>
          </cc:Agent>
        </dc:creator>
        <dc:relation>https://www.freecad.org/wiki/index.php?title=Artwork</dc:relation>
        <dc:publisher>
          <cc:Agent>
            <dc:title>FreeCAD</dc:title>
          </cc:Agent>
        </dc:publisher>
        <dc:identifier>FreeCAD/src/</dc:identifier>
        <dc:rights>
          <cc:Agent>
            <dc:title>FreeCAD LGPL2+</dc:title>
          </cc:Agent>
        </dc:rights>
        <dc:date>2024</dc:date>
        <dc:title>FreeCAD SVG Export</dc:title>
      </cc:Work>
    </rdf:RDF>
  </metadata>
  <g
     id="layer3"
     style="display:inline">
    <path
       d="m 31.917903,3.0008947 c -0.930762,-0.02347 -1.946582,0.527546 -2.434222,1.320665 -0.630225,0.95761 -1.143146,1.976498 -1.536772,3.052537 -0.212182,0.585069 -0.368917,1.18432 -0.471237,1.797906 -0.0732,0.489174 -0.125954,0.9904953 -0.05403,1.4827473 l 0.723363,3.361693 c 0.135206,0.602841 0.06183,1.337805 -0.270135,1.959988 -0.323619,0.626596 -0.885752,1.101559 -1.458733,1.33267 l -0.855429,0.354179 c -0.568571,0.24174 -1.303092,0.304253 -1.974993,0.09004 -0.674687,-0.205265 -1.245126,-0.67573 -1.57579,-1.197603 l -1.866938,-2.887455 c -0.297209,-0.398911 -0.685911,-0.717379 -1.083545,-1.011509 -0.506248,-0.361507 -1.042114,-0.672834 -1.605806,-0.936472 -1.039215,-0.48255 -2.121892,-0.840021 -3.24463,-1.071539 -0.905683,-0.21601 -2.011751,0.111647 -2.653332,0.786395 l -0.120068,0.120068 c -0.674747,0.641583 -1.002405,1.747653 -0.786395,2.653337 0.231518,1.12274 0.588988,2.205418 1.071537,3.244634 0.263638,0.563693 0.574965,1.09956 0.93647,1.605809 0.294131,0.397634 0.612598,0.786336 1.011508,1.083545 l 2.887452,1.869942 c 0.521872,0.330665 0.992336,0.898103 1.197602,1.572791 0.214207,0.671903 0.151694,1.406424 -0.09004,1.974996 l -0.354178,0.85543 c -0.231111,0.572982 -0.706073,1.135115 -1.332669,1.458735 -0.622182,0.331954 -1.357145,0.405335 -1.959985,0.270136 L 10.65522,27.421196 c -0.492252,-0.07192 -0.993573,-0.01916 -1.482746,0.05403 -0.613585,0.102318 -1.212835,0.259055 -1.797903,0.471237 -1.076038,0.393627 -2.094924,0.906548 -3.052533,1.536774 -0.793118,0.48764 -1.3441282,1.503462 -1.3206628,2.434226 v 0.165083 c -0.023465,0.930764 0.5275448,1.949588 1.3206628,2.437228 0.957609,0.630226 1.976495,1.140145 3.052533,1.533773 0.585068,0.212182 1.184318,0.368918 1.797903,0.471236 0.489173,0.0732 0.990494,0.125954 1.482746,0.05403 l 3.361688,-0.720363 c 0.60284,-0.135205 1.337803,-0.06482 1.959985,0.267135 0.626596,0.323618 1.101558,0.885753 1.332669,1.458733 l 0.354178,0.855431 c 0.24174,0.568573 0.304253,1.303094 0.09004,1.974995 -0.205266,0.674689 -0.67573,1.245129 -1.197602,1.575794 l -2.887452,1.86694 c -0.39891,0.297209 -0.717377,0.688913 -1.011508,1.086547 -0.361505,0.506249 -0.672832,1.039114 -0.93647,1.602808 -0.482549,1.039215 -0.840019,2.121894 -1.071537,3.244633 -0.21601,0.905684 0.111646,2.014755 0.786395,2.656337 l 0.120068,0.117056 c 0.641581,0.674748 1.747649,1.002407 2.653332,0.786397 1.122738,-0.231519 2.205415,-0.588989 3.24463,-1.071541 0.563692,-0.263636 1.099558,-0.574964 1.605806,-0.936471 0.397634,-0.294131 0.786336,-0.612597 1.083545,-1.011509 l 1.866938,-2.887454 c 0.330664,-0.521873 0.901103,-0.989337 1.57579,-1.194602 0.671901,-0.214208 1.406422,-0.154696 1.974993,0.08704 l 0.855429,0.354178 c 0.572981,0.231111 1.135114,0.709076 1.458733,1.335672 0.331954,0.622183 0.405334,1.354145 0.270135,1.956986 l -0.723363,3.364695 c -0.07192,0.492251 -0.01916,0.993573 0.05403,1.482747 0.102318,0.613586 0.259055,1.212837 0.471237,1.797905 0.393626,1.07604 0.906547,2.091926 1.536772,3.049536 0.48764,0.79312 1.50346,1.34413 2.434222,1.320665 h 0.165084 c 0.930762,0.02347 1.949585,-0.527545 2.437225,-1.320665 0.630225,-0.95761 1.140143,-1.973496 1.53377,-3.049536 0.212182,-0.585068 0.368918,-1.184319 0.471236,-1.797905 0.0732,-0.489174 0.125954,-0.990496 0.05403,-1.482747 l -0.720359,-3.364687 c -0.135205,-0.602841 -0.06482,-1.334803 0.267134,-1.956986 0.323618,-0.626596 0.885752,-1.104561 1.458731,-1.335672 l 0.855431,-0.354178 c 0.568571,-0.241741 1.303092,-0.301253 1.974991,-0.08704 0.674689,0.205265 1.245128,0.672729 1.575792,1.194602 l 1.866939,2.887454 c 0.297208,0.398912 0.688911,0.717378 1.086545,1.011509 0.506248,0.361507 1.039113,0.672835 1.602805,0.936471 1.039215,0.482552 2.121892,0.840022 3.24463,1.071541 0.905683,0.21601 2.014752,-0.111647 2.656333,-0.786397 l 0.117056,-0.117056 c 0.674747,-0.641582 1.002406,-1.750653 0.786395,-2.656337 -0.231519,-1.122751 -0.588989,-2.20543 -1.07154,-3.244646 -0.263636,-0.563693 -0.574963,-1.096559 -0.93647,-1.602807 -0.294131,-0.397634 -0.612596,-0.789338 -1.011508,-1.086547 l -2.88745,-1.866941 c -0.521872,-0.330664 -0.989335,-0.901104 -1.1946,-1.575794 -0.214208,-0.6719 -0.154697,-1.406421 0.08704,-1.974994 l 0.354179,-0.855431 c 0.23111,-0.57298 0.709074,-1.135115 1.335669,-1.458734 0.622183,-0.331955 1.354144,-0.402333 1.956984,-0.267134 l 3.36469,0.720363 c 0.492251,0.07192 0.993572,0.01916 1.482745,-0.05403 0.613586,-0.102319 1.212836,-0.259054 1.797903,-0.471237 1.076039,-0.393627 2.091924,-0.903546 3.049532,-1.533772 0.824019,-0.535732 1.320664,-1.45434 1.320664,-2.437228 v -0.165084 c 0,-0.982886 -0.496645,-1.898493 -1.320664,-2.434225 -0.957608,-0.630226 -1.973493,-1.143148 -3.049532,-1.536774 -0.585067,-0.212182 -1.184317,-0.368918 -1.797903,-0.471238 -0.489173,-0.0732 -0.990494,-0.125954 -1.482745,-0.05403 l -3.36469,0.723364 c -1.370634,0.293935 -2.756202,-0.433788 -3.292653,-1.72887 l -0.354179,-0.85543 c -0.536451,-1.295072 -0.06943,-2.786439 1.107556,-3.547787 l 2.88745,-1.869942 c 0.398913,-0.297209 0.717378,-0.685911 1.011508,-1.083545 0.361507,-0.506249 0.672834,-1.042116 0.936471,-1.605809 0.482551,-1.039216 0.840021,-2.121895 1.071538,-3.244634 0.216011,-0.905684 -0.111646,-2.011754 -0.786395,-2.653337 l -0.117056,-0.120068 c -0.641581,-0.674747 -1.75065,-1.002405 -2.656333,-0.786395 -1.122738,0.231518 -2.205415,0.588989 -3.24463,1.071539 -0.563692,0.263638 -1.096557,0.574965 -1.602805,0.936471 -0.397634,0.294131 -0.789337,0.612598 -1.086546,1.011509 l -1.866938,2.887456 c -0.330664,0.521873 -0.901103,0.992338 -1.575792,1.197603 -0.671899,0.214208 -1.40642,0.151695 -1.974991,-0.09004 L 37.584748,17.30911 c -0.572979,-0.231111 -1.135114,-0.706074 -1.458732,-1.33267 -0.331955,-0.622183 -0.402333,-1.357147 -0.267134,-1.959988 l 0.720362,-3.361693 c 0.07194,-0.492252 0.01916,-0.9935733 -0.05403,-1.4827473 -0.102318,-0.613586 -0.259053,-1.212837 -0.471236,-1.797906 -0.393627,-1.076039 -0.903545,-2.094927 -1.53377,-3.052537 -0.487639,-0.793119 -1.506462,-1.34413 -2.437225,-1.320665 z"
       style="fill:#729fcf;fill-rule:evenodd;stroke:#0c1522;stroke-width:2;stroke-linecap:round;stroke-linejoin:round;stroke-dasharray:none;stroke-opacity:1"
       id="path21" />
    <path
       d="m 31.867187,5 h 0.02539 0.214844 0.02539 c 0.206575,-0.00521 0.575766,0.1937631 0.683594,0.3691406 l 0.01563,0.027344 0.01758,0.025391 c 0.543767,0.8262394 0.985312,1.7083354 1.324219,2.6347656 0.167118,0.4608078 0.292566,0.9341275 0.375,1.4199219 0.06245,0.4193591 0.07807,0.6682865 0.05273,0.8652345 l -0.693359,3.236328 c -0.229903,1.025118 -0.0975,2.29835 0.453125,3.333984 l 0.002,0.0059 c 0.538916,1.027452 1.503991,1.855383 2.472656,2.246093 l 0.820313,0.339844 c 0.965619,0.410545 2.23875,0.509656 3.353516,0.158203 1.11936,-0.344297 2.109982,-1.151428 2.669921,-2.035156 l 1.798829,-2.78125 c 0.121337,-0.156881 0.31089,-0.324746 0.644531,-0.572265 0.401914,-0.285646 0.822765,-0.531148 1.265625,-0.738282 0.898911,-0.417401 1.836921,-0.72777 2.80664,-0.927734 l 0.0293,-0.0059 0.03125,-0.0078 c 0.202787,-0.04837 0.599152,0.07027 0.742188,0.220703 l 0.01172,0.01172 0.152343,0.154297 0.02344,0.02344 c 0.15172,0.144263 0.269201,0.536893 0.220703,0.740235 l -0.0078,0.03125 -0.0059,0.0293 c -0.199963,0.969719 -0.510707,1.906864 -0.925781,2.800781 -0.211316,0.451822 -0.456801,0.87651 -0.740235,1.27539 -0.242498,0.326843 -0.407648,0.511764 -0.568359,0.636719 l -2.798828,1.814453 c -1.98772,1.285782 -2.775558,3.803964 -1.869141,5.992188 l 0.353516,0.857422 c 0.906888,2.189379 3.243131,3.414943 5.560547,2.917968 l 3.259765,-0.699218 c 0.200422,-0.02564 0.448754,-0.01057 0.861329,0.05078 0.004,5.93e-4 0.0057,0.0014 0.0098,0.002 0.479911,0.08198 0.948605,0.207084 1.40625,0.373047 0.930908,0.340535 1.811378,0.781709 2.638672,1.326172 l 0.0039,0.0039 0.0059,0.0039 C 58.844993,31.32604 59,31.610963 59,31.917969 v 0.164062 c 0,0.308325 -0.155764,0.594374 -0.410156,0.759766 l -0.0059,0.0039 -0.0039,0.0039 c -0.825683,0.543403 -1.705087,0.982886 -2.632812,1.322266 -0.465334,0.16876 -0.937223,0.294998 -1.419922,0.376953 -0.416327,0.06198 -0.665828,0.0771 -0.867188,0.05078 l -3.238281,-0.691406 c -0.0012,-2.73e-4 -0.0027,2.72e-4 -0.0039,0 -1.019432,-0.227641 -2.291936,-0.0987 -3.326172,0.451172 l -0.0059,0.002 c -1.021874,0.535928 -1.846901,1.490645 -2.242187,2.458984 l -0.345703,0.835938 c 0,0 0,0.002 0,0.002 -0.41071,0.967199 -0.506303,2.239311 -0.15625,3.349609 0.343106,1.115558 1.145205,2.10923 2.033203,2.671875 l 2.779297,1.798829 c 0.159404,0.123155 0.326304,0.31105 0.572265,0.642578 0.284274,0.400028 0.5304,0.823114 0.738282,1.267578 0.417404,0.898916 0.727769,1.836909 0.927734,2.80664 l 0.0059,0.0293 0.0078,0.03125 c 0.04837,0.202787 -0.07027,0.599149 -0.220703,0.742188 l -0.01758,0.01758 -0.152344,0.152344 -0.01758,0.01758 c -0.143034,0.150429 -0.539398,0.269069 -0.742188,0.220703 l -0.03125,-0.0078 -0.0293,-0.0059 C 49.225588,51.192612 48.288445,50.881871 47.394531,50.466797 46.946738,50.257366 46.524962,50.012209 46.123047,49.726562 45.789403,49.479041 45.59985,49.311174 45.478516,49.154297 l -1.798829,-2.78125 c -0.562038,-0.887042 -1.556396,-1.688766 -2.669921,-2.03125 -1.108957,-0.349659 -2.381682,-0.258901 -3.353516,0.154297 l -0.820313,0.339843 c -0.97495,0.393247 -1.935141,1.225076 -2.472656,2.25 l -0.002,0.0059 c -0.549198,1.032954 -0.68269,2.306513 -0.453125,3.330078 l 0.693359,3.238281 c 0.02534,0.197073 0.0078,0.44579 -0.05469,0.865235 -4.29e-4,0.0025 4.31e-4,0.0053 0,0.0078 -0.08269,0.484566 -0.206905,0.955448 -0.371094,1.408203 -0.340264,0.930164 -0.78101,1.80836 -1.326172,2.636719 l -0.01758,0.02539 -0.01563,0.02734 C 32.708575,58.806242 32.339374,59.005209 32.132812,59 h -0.02539 -0.214844 -0.02539 c -0.206697,0.0052 -0.569673,-0.190209 -0.679687,-0.369141 l -0.01563,-0.02734 -0.01758,-0.02539 c -0.546222,-0.82997 -0.988557,-1.707956 -1.326172,-2.630859 -0.166051,-0.457869 -0.290359,-0.929495 -0.373047,-1.414063 -4.72e-4,-0.0032 4.67e-4,-0.0047 0,-0.0078 -0.06247,-0.41948 -0.08003,-0.668165 -0.05469,-0.865235 l 0.695312,-3.238281 c 0.230336,-1.027048 0.0928,-2.299623 -0.455078,-3.330078 -0.538291,-1.029844 -1.501194,-1.862446 -2.476563,-2.25586 L 26.34375,44.496094 c -0.970504,-0.412624 -2.243534,-0.503648 -3.351563,-0.154297 -1.112627,0.342202 -2.108179,1.141593 -2.671875,2.03125 l -1.798828,2.78125 c -0.124963,0.161957 -0.31117,0.327828 -0.640625,0.572265 -0.398877,0.283433 -0.822642,0.529266 -1.269531,0.738282 -0.898906,0.417401 -1.836916,0.727768 -2.80664,0.927734 l -0.0293,0.0059 -0.03125,0.0078 c -0.203893,0.04863 -0.592802,-0.0677 -0.738282,-0.220703 l -0.0293,-0.0293 -0.15625,-0.152344 -0.0059,-0.0059 c -0.150432,-0.143038 -0.26907,-0.539396 -0.220703,-0.742188 l 0.0078,-0.03125 0.0059,-0.0293 c 0.199964,-0.969719 0.51071,-1.906867 0.925781,-2.800781 0.210186,-0.449406 0.455952,-0.873396 0.740235,-1.273437 0.245959,-0.331525 0.412859,-0.519421 0.572265,-0.642578 l 2.78125,-1.798829 c 0.886343,-0.561598 1.691144,-1.5534 2.035156,-2.671875 0.351165,-1.113847 0.251788,-2.387263 -0.158203,-3.351562 l -0.339844,-0.820313 c -0.390204,-0.96741 -1.216161,-1.934382 -2.246093,-2.474609 l -0.0059,-0.002 c -1.035564,-0.550586 -2.307885,-0.679006 -3.328125,-0.451172 l -3.240234,0.691406 c -0.200988,0.02627 -0.4503403,0.01092 -0.8652344,-0.05078 -0.00399,-5.93e-4 -0.00574,-0.0014 -0.00977,-0.002 C 8.988848,34.464898 8.5201465,34.339791 8.0625,34.173828 7.1288079,33.832272 6.2464995,33.392315 5.421875,32.849609 l -0.025391,-0.01758 -0.027344,-0.01563 C 5.1948518,32.709247 4.9966836,32.341834 5.0019531,32.132812 v -0.02539 -0.214844 -0.02539 c -0.00527,-0.209081 0.1911224,-0.573388 0.3671875,-0.68164 l 0.027344,-0.01563 0.025391,-0.01758 c 0.8262352,-0.543766 1.7083367,-0.985312 2.6347656,-1.324219 0.4627872,-0.167835 0.9321772,-0.293022 1.4121094,-0.375 l 0.00781,-0.002 c 0.4140044,-0.06163 0.6624815,-0.07647 0.8632815,-0.05078 l 3.240234,0.695312 c 1.027837,0.230513 2.300239,0.09352 3.332031,-0.455078 1.03239,-0.539683 1.86108,-1.50749 2.251953,-2.476563 l 0.339844,-0.820312 c 0.409978,-0.964291 0.509355,-2.237722 0.158203,-3.351563 -0.344298,-1.119358 -1.151432,-2.109982 -2.035156,-2.669921 l -2.78125,-1.800782 c -0.161959,-0.124965 -0.32783,-0.311172 -0.572265,-0.640625 -0.283435,-0.398883 -0.529267,-0.822648 -0.738282,-1.269531 -0.417402,-0.898916 -0.72777,-1.836921 -0.927734,-2.80664 l -0.0059,-0.0293 -0.0078,-0.03125 c -0.0485,-0.203342 0.06898,-0.595972 0.220703,-0.740235 l 0.01172,-0.01172 0.15625,-0.154297 0.02344,-0.02344 c 0.14548,-0.153 0.534389,-0.269332 0.738282,-0.220703 l 0.03125,0.0078 0.0293,0.0059 c 0.969719,0.199964 1.906871,0.51071 2.800781,0.925781 0.451827,0.211319 0.876515,0.456804 1.27539,0.740235 0.329451,0.244433 0.51566,0.410306 0.640625,0.572265 l 1.798828,2.78125 c 0.561601,0.886351 1.553402,1.691145 2.671875,2.035156 1.113849,0.351165 2.387262,0.25179 3.351563,-0.158203 l 0.820312,-0.339844 c 0.967414,-0.390204 1.934383,-1.216165 2.47461,-2.246093 l 0.002,-0.0059 c 0.549327,-1.033138 0.68578,-2.305357 0.455078,-3.333984 l -0.695312,-3.236328 c -0.02534,-0.197032 -0.0097,-0.4459539 0.05273,-0.8652345 4.8e-4,-0.00323 0.0015,-0.00457 0.002,-0.00781 0.08244,-0.4830086 0.206754,-0.9530777 0.371094,-1.40625 0.340474,-0.9307412 0.782641,-1.8117768 1.328125,-2.640625 l 0.01758,-0.025391 0.01563,-0.027344 C 31.297516,5.1902066 31.660504,4.9947883 31.867187,5 Z m -8.875,14.662109 c -0.0044,-0.0014 -0.0093,-5.6e-4 -0.01367,-0.002 l 0.02539,0.0078 c -0.0042,-0.0013 -0.0076,-0.0046 -0.01172,-0.0059 z m -3.330078,3.330078 c 0.0013,0.0042 0.0046,0.0076 0.0059,0.01172 l -0.0078,-0.02539 c 0.0014,0.0044 5.74e-4,0.0093 0.002,0.01367 z m 0,18.015625 c -0.0014,0.0044 -5.6e-4,0.0093 -0.002,0.01367 l 0.0078,-0.02539 c -0.0013,0.0042 -0.0046,0.0076 -0.0059,0.01172 z m 3.330078,3.333985 c 0.0042,-0.0013 0.0076,-0.0046 0.01172,-0.0059 l -0.02539,0.0078 c 0.0044,-0.0014 0.0093,-5.75e-4 0.01367,-0.002 z m 18.017579,0 c 0.0044,0.0014 0.0093,5.6e-4 0.01367,0.002 l -0.02539,-0.0078 c 0.0042,0.0013 0.0076,0.0046 0.01172,0.0059 z m 3.332031,-3.333985 c -0.0013,-0.0042 -0.0046,-0.0076 -0.0059,-0.01172 l 0.0078,0.02539 c -0.0014,-0.0044 -5.75e-4,-0.0093 -0.002,-0.01367 z M 41.009766,19.662109 c -0.0042,0.0013 -0.0076,0.0046 -0.01172,0.0059 l 0.02539,-0.0078 c -0.0044,0.0014 -0.0093,5.73e-4 -0.01367,0.002 z"
       style="fill:url(#linearGradient23);fill-rule:evenodd;stroke:#729fcf;stroke-width:2;stroke-linecap:round;stroke-linejoin:round;stroke-dasharray:none;stroke-opacity:1"
       id="path22" />
  </g>
</svg>
