<?xml version="1.0" encoding="UTF-8" standalone="no"?>
<!-- Created with Inkscape (http://www.inkscape.org/) -->

<svg
   xmlns:dc="http://purl.org/dc/elements/1.1/"
   xmlns:cc="http://creativecommons.org/ns#"
   xmlns:rdf="http://www.w3.org/1999/02/22-rdf-syntax-ns#"
   xmlns:svg="http://www.w3.org/2000/svg"
   xmlns="http://www.w3.org/2000/svg"
   xmlns:sodipodi="http://sodipodi.sourceforge.net/DTD/sodipodi-0.dtd"
   xmlns:inkscape="http://www.inkscape.org/namespaces/inkscape"
   width="48"
   height="48"
   viewBox="0 0 48.000001 48.000001"
   id="svg15825"
   version="1.1"
   inkscape:version="0.91 r13725"
   sodipodi:docname="ISO14580.svg">
  <defs
     id="defs15827" />
  <sodipodi:namedview
     id="base"
     pagecolor="#ffffff"
     bordercolor="#666666"
     borderopacity="1.0"
     inkscape:pageopacity="0.0"
     inkscape:pageshadow="2"
     inkscape:zoom="12.625"
     inkscape:cx="24"
     inkscape:cy="24"
     inkscape:document-units="px"
     inkscape:current-layer="layer1"
     showgrid="false"
     units="px"
     inkscape:window-width="1260"
     inkscape:window-height="787"
     inkscape:window-x="0"
     inkscape:window-y="0"
     inkscape:window-maximized="0" />
  <metadata
     id="metadata15830">
    <rdf:RDF>
      <cc:Work
         rdf:about="">
        <dc:format>image/svg+xml</dc:format>
        <dc:type
           rdf:resource="http://purl.org/dc/dcmitype/StillImage" />
        <dc:title></dc:title>
      </cc:Work>
    </rdf:RDF>
  </metadata>
  <g
     inkscape:label="Layer 1"
     inkscape:groupmode="layer"
     id="layer1"
     transform="translate(0,-1004.3622)">
    <g
       transform="matrix(3.7922166,0,0,3.7922165,-932.42125,68.153612)"
       id="g14848">
      <path
         transform="scale(0.28222222,0.28222223)"
         inkscape:connector-curvature="0"
         id="path14842"
         d="m 879.86285,891.90256 c -1.24703,3.14929 -0.98795,6.90906 0.89361,9.76446 2.64171,4.12174 7.44687,6.45735 12.22298,6.93624 2.51917,0.0508 5.10096,-0.0773 7.4619,-1.0447 3.94766,-1.43863 7.41513,-4.66293 8.39412,-8.84379 0.27751,-1.42259 0.22977,-2.90726 0.0455,-4.33858 -0.0296,-0.49405 -0.46128,-1.1631 -0.99006,-0.73413 -1.35807,3.00934 -3.96234,5.39394 -7.03157,6.59329 -5.81536,2.3821 -13.02295,1.02107 -17.4301,-3.51741 -1.26349,-1.3049 -2.18685,-2.91724 -2.71969,-4.65107 -0.17244,-0.34375 -0.55718,-0.41838 -0.84669,-0.16431 z"
         style="opacity:1;fill:#ffaa00;fill-opacity:0.94117647;fill-rule:evenodd;stroke:#800000;stroke-width:0.10309318;stroke-linecap:round;stroke-linejoin:round;stroke-miterlimit:4;stroke-dasharray:none;stroke-dashoffset:0;stroke-opacity:1" />
      <path
         transform="scale(0.28222222,0.28222223)"
         inkscape:connector-curvature="0"
         id="path14844"
         d="m 884.83568,906.33802 c -0.42267,0.61948 -0.2454,1.46407 -0.33968,2.18107 -0.13426,2.92084 1.97615,5.49823 4.5214,6.69341 2.30695,1.15244 5.06476,1.32389 7.51695,0.56218 1.53686,-0.51903 2.98921,-1.35051 4.01016,-2.63714 1.35636,-1.41585 1.58693,-3.44998 1.64476,-5.31705 0.0387,-0.73193 -0.81559,-0.63811 -1.23742,-0.33737 -4.89893,2.0108 -10.66619,1.54897 -15.26024,-1.04988 -0.27772,-0.16526 -0.55507,-0.29824 -0.85593,-0.0952 z"
         style="opacity:1;fill:#ffaa00;fill-opacity:0.94117647;fill-rule:evenodd;stroke:#800000;stroke-width:0.10309318;stroke-linecap:round;stroke-linejoin:round;stroke-miterlimit:4;stroke-dasharray:none;stroke-dashoffset:0;stroke-opacity:1" />
      <ellipse
         cx="252.50258"
         cy="251.0296"
         rx="3.9423978"
         ry="3.258661"
         id="path14846"
         style="opacity:1;fill:#ffaa00;fill-opacity:0.94117647;fill-rule:evenodd;stroke:none;stroke-width:0.28222221;stroke-linecap:round;stroke-linejoin:round;stroke-miterlimit:4;stroke-dasharray:none;stroke-dashoffset:0;stroke-opacity:1" />
      <g
         id="g14624">
        <path
           style="fill:none;stroke:#000000;stroke-width:0.28222224;stroke-linecap:round;stroke-linejoin:round;stroke-miterlimit:4;stroke-dasharray:none"
           id="29"
           d="m 249.65756,255.60766 -0.0464,0.75918"
           inkscape:connector-curvature="0"
           sodipodi:nodetypes="cc" />
        <path
           style="fill:none;stroke:#000000;stroke-width:0.28222224;stroke-linecap:round;stroke-linejoin:round;stroke-miterlimit:4;stroke-dasharray:none"
           id="30"
           d="m 254.64795,255.91805 -0.0464,0.75919"
           inkscape:connector-curvature="0"
           sodipodi:nodetypes="cc" />
        <path
           style="fill:none;stroke:#000000;stroke-width:0.28222224;stroke-linecap:round;stroke-linejoin:round;stroke-miterlimit:4;stroke-dasharray:none"
           id="path9362"
           d="m 253.77699,252.41871 0.0346,-0.55462"
           inkscape:connector-curvature="0" />
        <path
           style="fill:none;stroke:#000000;stroke-width:0.28222224;stroke-linecap:round;stroke-linejoin:round;stroke-miterlimit:4;stroke-dasharray:none"
           d="m 256.39348,250.90461 c -0.0394,-0.39758 -0.15434,-0.80694 -0.40645,-1.2422 -0.13754,-0.23582 -0.31785,-0.47813 -0.57136,-0.72783 -0.25525,-0.24869 -0.58311,-0.50396 -1.05893,-0.73731 -0.39212,-0.19277 -0.98944,-0.39177 -1.62479,-0.43602 -0.63209,-0.0542 -1.30271,0.0454 -1.7455,0.1937 -0.53679,0.17366 -0.91184,0.39365 -1.20696,0.61369 -0.29301,0.22229 -0.50601,0.44457 -0.67456,0.66543 -0.30608,0.40305 -0.46935,0.79406 -0.55761,1.18219"
           id="path9364"
           inkscape:connector-curvature="0" />
        <path
           style="fill:none;stroke:#000000;stroke-width:0.28222224;stroke-linecap:round;stroke-linejoin:round;stroke-miterlimit:4;stroke-dasharray:none"
           id="path9366"
           d="m 253.51367,250.76363 0.0597,-0.95822"
           inkscape:connector-curvature="0" />
        <path
           style="fill:none;stroke:#000000;stroke-width:0.28222224;stroke-linecap:round;stroke-linejoin:round;stroke-miterlimit:4;stroke-dasharray:none"
           id="path9368"
           d="m 256.3937,250.90679 0.17076,1.81937"
           inkscape:connector-curvature="0" />
        <path
           style="fill:none;stroke:#000000;stroke-width:0.28222224;stroke-linecap:round;stroke-linejoin:round;stroke-miterlimit:4;stroke-dasharray:none"
           id="path9370"
           d="m 248.54694,250.4188 -0.39535,1.78363"
           inkscape:connector-curvature="0" />
        <path
           style="fill:none;stroke:#000000;stroke-width:0.28222224;stroke-linecap:round;stroke-linejoin:round;stroke-miterlimit:4;stroke-dasharray:none"
           id="path9372"
           d="m 251.31287,252.38413 0.0127,-0.19784"
           inkscape:connector-curvature="0" />
        <path
           style="fill:none;stroke:#000000;stroke-width:0.28222224;stroke-linecap:round;stroke-linejoin:round;stroke-miterlimit:4;stroke-dasharray:none"
           id="37"
           d="m 251.02125,251.18303 0.0597,-0.95711"
           inkscape:connector-curvature="0" />
        <path
           style="fill:none;stroke:#000000;stroke-width:0.28222224;stroke-linecap:round;stroke-linejoin:round;stroke-miterlimit:4;stroke-dasharray:none"
           d="m 253.56449,258.23439 c 0.61627,-0.35575 0.99784,-0.92868 1.03706,-1.55715"
           id="path9828"
           inkscape:connector-curvature="0"
           sodipodi:nodetypes="cc" />
        <path
           style="fill:none;stroke:#000000;stroke-width:0.28222224;stroke-linecap:round;stroke-linejoin:round;stroke-miterlimit:4;stroke-dasharray:none"
           d="m 249.61117,256.36684 c -0.10755,1.73474 2.2523,2.84953 3.95332,1.86755"
           id="path9830"
           inkscape:connector-curvature="0"
           sodipodi:nodetypes="cc" />
        <path
           style="fill:none;stroke:#000000;stroke-width:0.28222224;stroke-linecap:round;stroke-linejoin:round;stroke-miterlimit:4;stroke-dasharray:none"
           d="m 251.0164,251.23663 a 2.5,2.07307 3.5595999 0 0 -0.34625,0.20568"
           id="path9834"
           inkscape:connector-curvature="0" />
        <path
           style="fill:none;stroke:#000000;stroke-width:0.28222224;stroke-linecap:round;stroke-linejoin:round;stroke-miterlimit:4;stroke-dasharray:none"
           d="m 253.76867,252.42351 a 2.25,1.86576 3.5595999 0 0 0.92538,-1.6832"
           id="path9836"
           inkscape:connector-curvature="0" />
        <path
           style="fill:none;stroke:#000000;stroke-width:0.28222224;stroke-linecap:round;stroke-linejoin:round;stroke-miterlimit:4;stroke-dasharray:none"
           d="m 254.41516,251.15306 c 0.0707,-0.035 0.14713,-0.0896 0.20674,-0.17133 0.0423,-0.0579 0.0669,-0.12175 0.0735,-0.19141"
           id="path9838"
           inkscape:connector-curvature="0" />
        <path
           style="fill:none;stroke:#000000;stroke-width:0.28222224;stroke-linecap:round;stroke-linejoin:round;stroke-miterlimit:4;stroke-dasharray:none"
           d="m 254.69544,250.79032 q 0.001,-0.0261 -0.001,-0.05"
           id="path9840"
           inkscape:connector-curvature="0" />
        <path
           style="fill:none;stroke:#000000;stroke-width:0.28222224;stroke-linecap:round;stroke-linejoin:round;stroke-miterlimit:4;stroke-dasharray:none"
           d="m 253.89141,252.10669 q -0.0867,-0.10008 -0.0798,-0.2426"
           id="path9842"
           inkscape:connector-curvature="0" />
        <path
           style="fill:none;stroke:#000000;stroke-width:0.28222224;stroke-linecap:round;stroke-linejoin:round;stroke-miterlimit:4;stroke-dasharray:none"
           d="m 253.81162,251.86409 c 0.006,-0.0644 0.0166,-0.12044 0.0708,-0.22445 0.0153,-0.0285 0.0329,-0.0571 0.0531,-0.0849 0.0682,-0.0948 0.12734,-0.15204 0.18315,-0.20158 0.0922,-0.0821 0.20024,-0.15257 0.29658,-0.2001"
           id="path9844"
           inkscape:connector-curvature="0" />
        <path
           style="fill:none;stroke:#000000;stroke-width:0.28222224;stroke-linecap:round;stroke-linejoin:round;stroke-miterlimit:4;stroke-dasharray:none"
           d="m 253.76867,252.42351 c 0.12843,-0.0788 0.1532,-0.14965 0.15993,-0.2078"
           id="path9846"
           inkscape:connector-curvature="0" />
        <path
           style="fill:none;stroke:#000000;stroke-width:0.28222224;stroke-linecap:round;stroke-linejoin:round;stroke-miterlimit:4;stroke-dasharray:none"
           d="m 253.9286,252.21571 q 0.002,-0.0646 -0.0372,-0.10902"
           id="path9848"
           inkscape:connector-curvature="0" />
        <path
           style="fill:none;stroke:#000000;stroke-width:0.28222224;stroke-linecap:round;stroke-linejoin:round;stroke-miterlimit:4;stroke-dasharray:none"
           d="m 251.5315,252.56621 a 2.25,1.86576 3.5595999 0 0 2.23717,-0.1427"
           id="path9850"
           inkscape:connector-curvature="0" />
        <path
           style="fill:none;stroke:#000000;stroke-width:0.28222224;stroke-linecap:round;stroke-linejoin:round;stroke-miterlimit:4;stroke-dasharray:none"
           d="m 254.69405,250.74031 a 2.25,1.86576 3.5595999 0 0 -1.31238,-1.5413"
           id="path9852"
           inkscape:connector-curvature="0" />
        <path
           style="fill:none;stroke:#000000;stroke-width:0.28222224;stroke-linecap:round;stroke-linejoin:round;stroke-miterlimit:4;stroke-dasharray:none"
           d="m 250.21912,251.02491 a 2.25,1.86576 3.5595999 0 0 1.31238,1.5413"
           id="path9854"
           inkscape:connector-curvature="0" />
        <path
           style="fill:none;stroke:#000000;stroke-width:0.28222224;stroke-linecap:round;stroke-linejoin:round;stroke-miterlimit:4;stroke-dasharray:none"
           d="m 253.38167,249.19901 a 2.25,1.86576 3.5595999 0 0 -2.23767,0.14183"
           id="path9856"
           inkscape:connector-curvature="0" />
        <path
           style="fill:none;stroke:#000000;stroke-width:0.28222224;stroke-linecap:round;stroke-linejoin:round;stroke-miterlimit:4;stroke-dasharray:none"
           d="m 251.144,249.34084 a 2.25,1.86576 3.5595999 0 0 -0.92488,1.68407"
           id="path9858"
           inkscape:connector-curvature="0" />
        <path
           style="fill:none;stroke:#000000;stroke-width:0.28222224;stroke-linecap:round;stroke-linejoin:round;stroke-miterlimit:4;stroke-dasharray:none"
           d="m 254.69405,250.74031 c -0.006,-0.0751 -0.0622,-0.15114 -0.11702,-0.18069 -0.0683,-0.0425 -0.16439,-0.0517 -0.23776,-0.0394"
           id="path9860"
           inkscape:connector-curvature="0" />
        <path
           style="fill:none;stroke:#000000;stroke-width:0.28222224;stroke-linecap:round;stroke-linejoin:round;stroke-miterlimit:4;stroke-dasharray:none"
           d="m 253.27073,252.46504 c 0.0731,0.0294 0.16077,0.0481 0.2948,0.0284 0.0591,-0.009 0.13144,-0.0285 0.20314,-0.0699"
           id="path9862"
           inkscape:connector-curvature="0" />
        <path
           style="fill:none;stroke:#000000;stroke-width:0.28222224;stroke-linecap:round;stroke-linejoin:round;stroke-miterlimit:4;stroke-dasharray:none"
           d="m 252.00363,252.54536 c 0.099,-0.0699 0.23751,-0.11981 0.41596,-0.14894 0.0711,-0.011 0.18502,-0.0225 0.29122,-0.0238 0.12728,-7.4e-4 0.20356,0.007 0.27295,0.0168 0.11201,0.015 0.2129,0.0434 0.28697,0.0756"
           id="path9864"
           inkscape:connector-curvature="0" />
        <path
           style="fill:none;stroke:#000000;stroke-width:0.28222224;stroke-linecap:round;stroke-linejoin:round;stroke-miterlimit:4;stroke-dasharray:none"
           d="m 251.5315,252.56621 c 0.0867,0.0342 0.18591,0.0474 0.26386,0.0428 0.0991,-0.005 0.16582,-0.0334 0.20827,-0.0637"
           id="path9866"
           inkscape:connector-curvature="0" />
        <path
           style="fill:none;stroke:#000000;stroke-width:0.28222224;stroke-linecap:round;stroke-linejoin:round;stroke-miterlimit:4;stroke-dasharray:none"
           d="m 253.59633,249.6478 q 0.008,-0.0359 0.0104,-0.073"
           id="path9868"
           inkscape:connector-curvature="0" />
        <path
           style="fill:none;stroke:#000000;stroke-width:0.28222224;stroke-linecap:round;stroke-linejoin:round;stroke-miterlimit:4;stroke-dasharray:none"
           d="m 253.60674,249.57482 c 0.007,-0.10312 -0.0246,-0.20747 -0.0928,-0.28357 -0.0386,-0.0424 -0.0828,-0.0734 -0.13224,-0.0922"
           id="path9870"
           inkscape:connector-curvature="0" />
        <path
           style="fill:none;stroke:#000000;stroke-width:0.28222224;stroke-linecap:round;stroke-linejoin:round;stroke-miterlimit:4;stroke-dasharray:none"
           d="m 254.33927,250.52021 c -0.17257,0.0269 -0.34623,0.006 -0.48685,-0.0826 -0.0357,-0.0198 -0.0771,-0.0559 -0.12292,-0.1057 -0.0225,-0.0263 -0.0425,-0.054 -0.0598,-0.0832 -0.0102,-0.0149 -0.025,-0.0456 -0.0456,-0.0938 -0.0188,-0.0469 -0.0351,-0.10793 -0.0425,-0.15793 -0.009,-0.0627 -0.0124,-0.12681 -0.008,-0.19152"
           id="path9872"
           inkscape:connector-curvature="0" />
        <path
           style="fill:none;stroke:#000000;stroke-width:0.28222224;stroke-linecap:round;stroke-linejoin:round;stroke-miterlimit:4;stroke-dasharray:none"
           d="m 253.57336,249.80541 q 0.006,-0.0831 0.023,-0.15761"
           id="path9874"
           inkscape:connector-curvature="0" />
        <path
           style="fill:none;stroke:#000000;stroke-width:0.28222224;stroke-linecap:round;stroke-linejoin:round;stroke-miterlimit:4;stroke-dasharray:none"
           d="m 251.30697,252.27091 q -0.007,0.019 -0.008,0.0393"
           id="path9876"
           inkscape:connector-curvature="0" />
        <path
           style="fill:none;stroke:#000000;stroke-width:0.28222224;stroke-linecap:round;stroke-linejoin:round;stroke-miterlimit:4;stroke-dasharray:none"
           d="m 251.29885,252.31025 c -0.004,0.0566 0.0298,0.12365 0.099,0.17953 0.0394,0.0315 0.0838,0.0567 0.13361,0.0764"
           id="path9878"
           inkscape:connector-curvature="0" />
        <path
           style="fill:none;stroke:#000000;stroke-width:0.28222224;stroke-linecap:round;stroke-linejoin:round;stroke-miterlimit:4;stroke-dasharray:none"
           d="m 250.56403,251.3985 c 0.16699,0.0606 0.33578,0.16179 0.47427,0.28506 0.0354,0.0304 0.0762,0.0715 0.1221,0.12349 0.022,0.0254 0.0424,0.0518 0.0601,0.0773 0.0171,0.0213 0.0767,0.11967 0.092,0.18591 0.0111,0.041 0.0151,0.079 0.0131,0.11602"
           id="path9880"
           inkscape:connector-curvature="0" />
        <path
           style="fill:none;stroke:#000000;stroke-width:0.28222224;stroke-linecap:round;stroke-linejoin:round;stroke-miterlimit:4;stroke-dasharray:none"
           d="m 251.32555,252.18629 q -0.003,0.047 -0.0186,0.0846"
           id="path9882"
           inkscape:connector-curvature="0" />
        <path
           style="fill:none;stroke:#000000;stroke-width:0.28222224;stroke-linecap:round;stroke-linejoin:round;stroke-miterlimit:4;stroke-dasharray:none"
           d="m 250.21912,251.02491 c 0.006,0.073 0.0604,0.16948 0.114,0.22285 0.0665,0.0713 0.16006,0.12583 0.23091,0.15074"
           id="path9884"
           inkscape:connector-curvature="0" />
        <path
           style="fill:none;stroke:#000000;stroke-width:0.28222224;stroke-linecap:round;stroke-linejoin:round;stroke-miterlimit:4;stroke-dasharray:none"
           d="m 251.63249,249.45373 c -0.0699,-0.0786 -0.15477,-0.13928 -0.28718,-0.15521 -0.0575,-0.005 -0.12919,0.002 -0.20131,0.0423"
           id="path9886"
           inkscape:connector-curvature="0" />
        <path
           style="fill:none;stroke:#000000;stroke-width:0.28222224;stroke-linecap:round;stroke-linejoin:round;stroke-miterlimit:4;stroke-dasharray:none"
           d="m 252.89968,249.37336 c -0.10187,0.15697 -0.25072,0.28794 -0.42896,0.35043 -0.0713,0.0273 -0.18563,0.0483 -0.29176,0.0357 -0.12609,-0.0138 -0.20099,-0.0479 -0.26869,-0.0816 -0.10976,-0.0567 -0.20681,-0.1404 -0.27778,-0.22413"
           id="path9888"
           inkscape:connector-curvature="0" />
        <path
           style="fill:none;stroke:#000000;stroke-width:0.28222224;stroke-linecap:round;stroke-linejoin:round;stroke-miterlimit:4;stroke-dasharray:none"
           d="m 253.38167,249.19901 c -0.0871,-0.0351 -0.18763,-0.0314 -0.26687,-6.5e-4 -0.10098,0.0375 -0.17073,0.10549 -0.21512,0.175"
           id="path9890"
           inkscape:connector-curvature="0" />
        <path
           style="fill:none;stroke:#000000;stroke-width:0.28222224;stroke-linecap:round;stroke-linejoin:round;stroke-miterlimit:4;stroke-dasharray:none"
           d="m 250.48814,250.76566 c -0.0687,-0.003 -0.14232,0.0129 -0.20018,0.0625 -0.0411,0.0353 -0.0646,0.0847 -0.0703,0.1491"
           id="path9892"
           inkscape:connector-curvature="0" />
        <path
           style="fill:none;stroke:#000000;stroke-width:0.28222224;stroke-linecap:round;stroke-linejoin:round;stroke-miterlimit:4;stroke-dasharray:none"
           d="m 250.2177,250.97723 q -0.002,0.0229 0.001,0.0477"
           id="path9894"
           inkscape:connector-curvature="0" />
        <path
           style="fill:none;stroke:#000000;stroke-width:0.28222224;stroke-linecap:round;stroke-linejoin:round;stroke-miterlimit:4;stroke-dasharray:none"
           d="m 251.01181,249.81208 q 0.0797,0.20452 0.0692,0.41384"
           id="path9896"
           inkscape:connector-curvature="0" />
        <path
           style="fill:none;stroke:#000000;stroke-width:0.28222224;stroke-linecap:round;stroke-linejoin:round;stroke-miterlimit:4;stroke-dasharray:none"
           d="m 251.081,250.22592 c -0.002,0.0418 -0.008,0.0821 -0.0174,0.12089 -0.009,0.0457 -0.0277,0.0968 -0.0562,0.15252 -0.0153,0.0285 -0.0329,0.0548 -0.0526,0.0789 -0.0675,0.0794 -0.12518,0.11038 -0.17939,0.1359 -0.0894,0.0412 -0.19406,0.0555 -0.28731,0.0516"
           id="path9898"
           inkscape:connector-curvature="0" />
        <path
           style="fill:none;stroke:#000000;stroke-width:0.28222224;stroke-linecap:round;stroke-linejoin:round;stroke-miterlimit:4;stroke-dasharray:none"
           d="m 251.144,249.34084 c -0.0943,0.0568 -0.13289,0.13562 -0.15165,0.20072 -0.006,0.0256 -0.0106,0.0511 -0.012,0.0774"
           id="path9900"
           inkscape:connector-curvature="0" />
        <path
           style="fill:none;stroke:#000000;stroke-width:0.28222224;stroke-linecap:round;stroke-linejoin:round;stroke-miterlimit:4;stroke-dasharray:none"
           d="m 250.98032,249.61894 q -0.004,0.10416 0.0315,0.19314"
           id="path9902"
           inkscape:connector-curvature="0" />
        <path
           style="fill:none;stroke:#000000;stroke-width:0.28222224;stroke-linecap:round;stroke-linejoin:round;stroke-miterlimit:4;stroke-dasharray:none"
           d="m 253.99706,251.47528 c -0.0732,-0.0143 -0.14108,-0.041 -0.20422,-0.0807 -0.0356,-0.0199 -0.0765,-0.0551 -0.12283,-0.10575 -0.022,-0.0254 -0.042,-0.0531 -0.0598,-0.0832 -0.0656,-0.11568 -0.0776,-0.19076 -0.0899,-0.26332 -0.008,-0.0588 -0.0105,-0.11863 -0.007,-0.17863"
           id="path9904"
           inkscape:connector-curvature="0" />
        <path
           style="fill:none;stroke:#000000;stroke-width:0.28222224;stroke-linecap:round;stroke-linejoin:round;stroke-miterlimit:4;stroke-dasharray:none"
           d="m 253.51367,250.76363 q 0.006,-0.083 0.023,-0.15649"
           id="path9906"
           inkscape:connector-curvature="0" />
        <path
           style="fill:none;stroke:#000000;stroke-width:0.28222224;stroke-linecap:round;stroke-linejoin:round;stroke-miterlimit:4;stroke-dasharray:none"
           d="m 251.02125,251.18303 q -0.004,0.0622 -0.0172,0.12079 -0.0138,0.068 -0.0564,0.1515 -0.0314,0.0586 -0.072,0.1028"
           id="path9908"
           inkscape:connector-curvature="0" />
        <path
           style="fill:none;stroke:#000000;stroke-width:0.28222224;stroke-linecap:round;stroke-linejoin:round;stroke-miterlimit:4;stroke-dasharray:none"
           d="m 251.57296,250.41301 c -0.0523,-0.061 -0.11488,-0.10457 -0.18868,-0.1324 -0.0484,-0.0171 -0.0984,-0.0252 -0.14876,-0.0226 -0.0407,0.003 -0.0953,0.009 -0.16399,0.052"
           id="path9910"
           inkscape:connector-curvature="0" />
        <path
           style="fill:none;stroke:#000000;stroke-width:0.28222224;stroke-linecap:round;stroke-linejoin:round;stroke-miterlimit:4;stroke-dasharray:none"
           d="m 252.83965,250.33178 c -0.1017,0.15687 -0.25021,0.28764 -0.42809,0.34993 -0.0715,0.0263 -0.1857,0.0472 -0.29133,0.0354 -0.13388,-0.0151 -0.21079,-0.0515 -0.28086,-0.0873 -0.1171,-0.064 -0.19742,-0.13775 -0.26641,-0.21685"
           id="path9912"
           inkscape:connector-curvature="0" />
        <path
           style="fill:none;stroke:#000000;stroke-width:0.28222224;stroke-linecap:round;stroke-linejoin:round;stroke-miterlimit:4;stroke-dasharray:none"
           d="m 253.54703,250.53421 c 0.003,-0.0526 -0.003,-0.10336 -0.019,-0.15302 -0.0158,-0.0486 -0.0401,-0.0911 -0.0739,-0.12939 -0.028,-0.0312 -0.0684,-0.0667 -0.13343,-0.0927 -0.0738,-0.0278 -0.14988,-0.0324 -0.22791,-0.0127 -0.0509,0.0132 -0.0976,0.0356 -0.13998,0.067 -0.0479,0.0358 -0.0859,0.075 -0.11322,0.11848"
           id="path9914"
           inkscape:connector-curvature="0" />
        <path
           style="fill:none;stroke:#000000;stroke-width:0.28222224;stroke-linecap:round;stroke-linejoin:round;stroke-miterlimit:4;stroke-dasharray:none"
           d="m 254.80869,255.82987 a 4.25,3.52422 3.5595999 0 0 1.75577,-3.10371"
           id="path9916"
           inkscape:connector-curvature="0" />
        <path
           style="fill:none;stroke:#000000;stroke-width:0.28222224;stroke-linecap:round;stroke-linejoin:round;stroke-miterlimit:4;stroke-dasharray:none"
           d="m 256.56446,252.72616 a 4.25,3.52422 3.5595999 0 0 -0.2359,-0.9192"
           id="path9918"
           inkscape:connector-curvature="0" />
        <path
           style="fill:none;stroke:#000000;stroke-width:0.28222224;stroke-linecap:round;stroke-linejoin:round;stroke-miterlimit:4;stroke-dasharray:none"
           d="m 248.49979,251.32013 a 4.25,3.52422 3.5595999 0 0 -0.3482,0.8823"
           id="path9920"
           inkscape:connector-curvature="0" />
        <path
           style="fill:none;stroke:#000000;stroke-width:0.28222224;stroke-linecap:round;stroke-linejoin:round;stroke-miterlimit:4;stroke-dasharray:none"
           d="m 248.15159,252.20243 a 4.25,3.52422 3.5595999 0 0 6.6571,3.62744"
           id="path9922"
           inkscape:connector-curvature="0" />
        <g
           style="fill:none;stroke:#000000;stroke-width:0.28222224;stroke-linecap:round;stroke-linejoin:round;stroke-miterlimit:4;stroke-dasharray:none"
           transform="matrix(0.99807075,0.06208678,0.06208678,-0.99807075,-49.641256,288.61543)"
           id="g10651">
          <ellipse
             cx="299.172"
             cy="56.416698"
             rx="3.56566"
             ry="2.9567499"
             id="ellipse10653"
             style="stroke-width:0.28222224;stroke-linecap:round;stroke-linejoin:round;stroke-miterlimit:4;stroke-dasharray:none" />
        </g>
        <path
           style="fill:none;stroke:#000000;stroke-width:0.28222224;stroke-linecap:round;stroke-linejoin:round;stroke-miterlimit:4;stroke-dasharray:none"
           id="path10655"
           d="m 254.33927,250.52021 -0.0433,0.70048"
           inkscape:connector-curvature="0" />
        <path
           style="fill:none;stroke:#000000;stroke-width:0.28222224;stroke-linecap:round;stroke-linejoin:round;stroke-miterlimit:4;stroke-dasharray:none"
           id="path10657"
           d="m 253.89141,252.10669 -0.014,0.2275"
           inkscape:connector-curvature="0" />
        <path
           style="fill:none;stroke:#000000;stroke-width:0.28222224;stroke-linecap:round;stroke-linejoin:round;stroke-miterlimit:4;stroke-dasharray:none"
           d="m 254.75593,253.80149 a 3.96414,3.28718 3.5595999 0 0 1.63777,-2.8947"
           id="path10659"
           inkscape:connector-curvature="0" />
        <path
           style="fill:none;stroke:#000000;stroke-width:0.28222224;stroke-linecap:round;stroke-linejoin:round;stroke-miterlimit:4;stroke-dasharray:none"
           d="m 256.3937,250.90679 a 3.96414,3.28718 3.5595999 0 0 -2.2e-4,-0.002"
           id="path10661"
           inkscape:connector-curvature="0" />
        <path
           style="fill:none;stroke:#000000;stroke-width:0.28222224;stroke-linecap:round;stroke-linejoin:round;stroke-miterlimit:4;stroke-dasharray:none"
           d="m 248.54732,250.41626 a 3.96414,3.28718 3.5595999 0 0 -3.8e-4,0.003"
           id="path10663"
           inkscape:connector-curvature="0" />
        <path
           style="fill:none;stroke:#000000;stroke-width:0.28222224;stroke-linecap:round;stroke-linejoin:round;stroke-miterlimit:4;stroke-dasharray:none"
           d="m 248.54694,250.4188 a 3.96414,3.28718 3.5595999 0 0 6.20899,3.38269"
           id="path10665"
           inkscape:connector-curvature="0" />
        <path
           style="fill:none;stroke:#000000;stroke-width:0.28222224;stroke-linecap:round;stroke-linejoin:round;stroke-miterlimit:4;stroke-dasharray:none"
           id="path10667"
           d="m 251.30697,252.27091 -0.005,0.0802"
           inkscape:connector-curvature="0" />
        <path
           style="fill:none;stroke:#000000;stroke-width:0.28222224;stroke-linecap:round;stroke-linejoin:round;stroke-miterlimit:4;stroke-dasharray:none"
           id="path10669"
           d="m 252.89968,249.37336 -0.06,0.95842"
           inkscape:connector-curvature="0" />
        <path
           style="fill:none;stroke:#000000;stroke-width:0.28222224;stroke-linecap:round;stroke-linejoin:round;stroke-miterlimit:4;stroke-dasharray:none"
           id="path10671"
           d="m 250.48814,250.76566 -0.036,0.57849"
           inkscape:connector-curvature="0" />
        <path
           style="fill:none;stroke:#000000;stroke-width:0.28222224;stroke-linecap:round;stroke-linejoin:round;stroke-miterlimit:4;stroke-dasharray:none"
           id="path10673"
           d="m 251.63249,249.45373 -0.0595,0.95928"
           inkscape:connector-curvature="0" />
      </g>
    </g>
  </g>
</svg>
