<?xml version="1.0" encoding="UTF-8" standalone="no"?>
<!-- Created with Inkscape (http://www.inkscape.org/) -->

<svg
   xmlns:dc="http://purl.org/dc/elements/1.1/"
   xmlns:cc="http://creativecommons.org/ns#"
   xmlns:rdf="http://www.w3.org/1999/02/22-rdf-syntax-ns#"
   xmlns:svg="http://www.w3.org/2000/svg"
   xmlns="http://www.w3.org/2000/svg"
   xmlns:sodipodi="http://sodipodi.sourceforge.net/DTD/sodipodi-0.dtd"
   xmlns:inkscape="http://www.inkscape.org/namespaces/inkscape"
   width="48"
   height="48"
   viewBox="0 0 48.000001 48.000001"
   id="svg15825"
   version="1.1"
   inkscape:version="0.91 r13725"
   sodipodi:docname="ISO14584.svg">
  <defs
     id="defs15827" />
  <sodipodi:namedview
     id="base"
     pagecolor="#ffffff"
     bordercolor="#666666"
     borderopacity="1.0"
     inkscape:pageopacity="0.0"
     inkscape:pageshadow="2"
     inkscape:zoom="12.625"
     inkscape:cx="19.162469"
     inkscape:cy="24.654403"
     inkscape:document-units="px"
     inkscape:current-layer="layer1"
     showgrid="false"
     units="px"
     inkscape:window-width="1260"
     inkscape:window-height="787"
     inkscape:window-x="109"
     inkscape:window-y="71"
     inkscape:window-maximized="0" />
  <metadata
     id="metadata15830">
    <rdf:RDF>
      <cc:Work
         rdf:about="">
        <dc:format>image/svg+xml</dc:format>
        <dc:type
           rdf:resource="http://purl.org/dc/dcmitype/StillImage" />
        <dc:title />
      </cc:Work>
    </rdf:RDF>
  </metadata>
  <g
     inkscape:label="Layer 1"
     inkscape:groupmode="layer"
     id="layer1"
     transform="translate(0,-1004.3622)">
    <g
       id="g7426"
       transform="matrix(1.681646,0,0,1.681646,-13.780007,-712.2657)"
       style="stroke-width:0.59465545;stroke-miterlimit:4;stroke-dasharray:none">
      <path
         transform="translate(0,1004.3622)"
         inkscape:connector-curvature="0"
         id="path7424"
         d="m 15.588614,35.708437 c -0.658803,0.13515 -0.451143,0.963093 -0.581261,1.442721 -0.119036,1.461562 -0.435168,1.262488 0.297649,2.647692 0.901433,1.78503 2.816775,2.754974 4.698784,3.204359 0.109197,0.02607 0.218283,0.0504 0.327052,0.07302 1.747907,0.212783 3.628598,0.130339 5.190749,-0.767635 1.356345,-0.708825 2.4452,-2.041258 2.53711,-3.610654 0.103963,-1.085155 0.202255,-0.359006 0.147801,-1.449592 -0.137982,-0.553085 -0.766199,-0.41436 -1.157334,-0.262376 -3.19137,0.771159 -6.656913,0.509849 -9.742264,-0.667853 -0.572881,-0.19093 -1.106627,-0.568831 -1.718286,-0.609685 z"
         style="opacity:1;fill:#ffaa00;fill-opacity:1;fill-rule:evenodd;stroke:none;stroke-width:0.59465545;stroke-linecap:round;stroke-linejoin:round;stroke-miterlimit:4;stroke-dasharray:none;stroke-dashoffset:0;stroke-opacity:1"
         sodipodi:nodetypes="cccsccccccc" />
      <path
         sodipodi:nodetypes="ccccccccc"
         inkscape:connector-curvature="0"
         id="path7421"
         d="m 21.812159,1022.6228 c -3.491716,0.042 -7.180234,1.2115 -9.578303,4.0171 -1.302213,1.5133 -2.046189,3.5714 -1.867086,5.625 0.16038,2.5891 1.77864,4.8194 3.665068,6.3535 2.283322,1.8091 5.106444,2.7608 7.922199,3.0794 3.763523,0.3291 7.811746,-0.6642 10.601146,-3.4787 1.441212,-1.4558 2.422536,-3.5028 2.329565,-5.6445 -0.01683,-2.8369 -1.769184,-5.3362 -3.868999,-6.9459 -2.645181,-2.0295 -5.951426,-3.0217 -9.20359,-3.0059 z"
         style="opacity:1;fill:#ffaa00;fill-opacity:1;fill-rule:evenodd;stroke:none;stroke-width:0.59465545;stroke-linecap:round;stroke-linejoin:round;stroke-miterlimit:4;stroke-dasharray:none;stroke-dashoffset:0;stroke-opacity:1" />
      <path
         inkscape:connector-curvature="0"
         id="path4289"
         d="m 10.226147,1031.5002 a 12.357284,9.0613964 5.3305994 0 0 20.250036,8.4328"
         style="fill:none;stroke:#000000;stroke-width:0.59465545;stroke-linecap:round;stroke-linejoin:miter;stroke-miterlimit:4;stroke-dasharray:none" />
      <path
         inkscape:connector-curvature="0"
         d="m 10.318698,1030.5108 -0.09248,0.9894"
         id="13"
         style="fill:none;stroke:#000000;stroke-width:0.59465545;stroke-linecap:round;stroke-linejoin:miter;stroke-miterlimit:4;stroke-dasharray:none" />
      <path
         inkscape:connector-curvature="0"
         d="m 34.926328,1032.8068 -0.09248,0.9896"
         id="14"
         style="fill:none;stroke:#000000;stroke-width:0.59465545;stroke-linecap:round;stroke-linejoin:miter;stroke-miterlimit:4;stroke-dasharray:none" />
      <path
         inkscape:connector-curvature="0"
         d="m 26.40673,1033.6158 0.131456,-1.4063"
         id="15"
         style="fill:none;stroke:#000000;stroke-width:0.59465545;stroke-linecap:round;stroke-linejoin:miter;stroke-miterlimit:4;stroke-dasharray:none" />
      <path
         inkscape:connector-curvature="0"
         d="m 20.052482,1033.5242 0.01772,-0.1789"
         id="16"
         style="fill:none;stroke:#000000;stroke-width:0.59465545;stroke-linecap:round;stroke-linejoin:miter;stroke-miterlimit:4;stroke-dasharray:none" />
      <path
         inkscape:connector-curvature="0"
         d="m 18.642458,1031.799 0.272126,-2.916"
         id="17"
         style="fill:none;stroke:#000000;stroke-width:0.59465545;stroke-linecap:round;stroke-linejoin:miter;stroke-miterlimit:4;stroke-dasharray:none" />
      <path
         inkscape:connector-curvature="0"
         d="m 25.140068,1030.3531 0.290552,-3.113"
         id="18"
         style="fill:none;stroke:#000000;stroke-width:0.59465545;stroke-linecap:round;stroke-linejoin:miter;stroke-miterlimit:4;stroke-dasharray:none" />
      <path
         sodipodi:nodetypes="cccccccc"
         inkscape:connector-curvature="0"
         d="m 14.843733,1041.9163 c -0.399419,4.2819 6.41094,7.1179 10.887059,4.5337 m 0,0 c 1.374552,-0.7936 2.220057,-1.9842 2.342835,-3.2991 m 0.361717,-2.2781 -0.361717,2.2781 m -12.868389,-3.5125 -0.361505,2.2779"
         style="fill:none;stroke:#000000;stroke-width:0.59465545;stroke-linecap:round;stroke-linejoin:miter;stroke-miterlimit:4;stroke-dasharray:none"
         id="path4271" />
      <g
         id="g4277"
         transform="matrix(2.6459873,0.24688619,0.24688619,-2.6459873,-111.90998,1060.3646)"
         style="fill:none;stroke:#000000;stroke-width:0.22376665;stroke-linecap:round;stroke-linejoin:miter;stroke-miterlimit:4;stroke-dasharray:none">
        <ellipse
           id="ellipse4279"
           ry="1.6665601"
           rx="2.2727301"
           cy="16.097401"
           cx="49.4016"
           style="stroke-width:0.22376665;stroke-linecap:round;stroke-miterlimit:4;stroke-dasharray:none" />
      </g>
      <path
         inkscape:connector-curvature="0"
         id="path4281"
         d="m 30.568698,1038.9436 a 12.357284,9.0613964 5.3305994 0 0 4.35763,-6.1368"
         style="fill:none;stroke:#000000;stroke-width:0.59465545;stroke-linecap:round;stroke-linejoin:miter;stroke-miterlimit:4;stroke-dasharray:none" />
      <path
         inkscape:connector-curvature="0"
         id="path4283"
         d="m 34.926328,1032.8068 a 12.357284,9.0613964 5.3305994 0 0 -24.60763,-2.296"
         style="fill:none;stroke:#000000;stroke-width:0.59465545;stroke-linecap:round;stroke-linejoin:miter;stroke-miterlimit:4;stroke-dasharray:none" />
      <path
         inkscape:connector-curvature="0"
         id="path4285"
         d="m 10.318698,1030.5108 a 12.357284,9.0613964 5.3305994 0 0 20.25,8.4328"
         style="fill:none;stroke:#000000;stroke-width:0.59465545;stroke-linecap:round;stroke-linejoin:miter;stroke-miterlimit:4;stroke-dasharray:none" />
      <path
         inkscape:connector-curvature="0"
         id="path4287"
         d="m 30.476183,1039.933 a 12.357284,9.0613964 5.3305994 0 0 4.357736,-6.1366"
         style="fill:none;stroke:#000000;stroke-width:0.59465545;stroke-linecap:round;stroke-linejoin:miter;stroke-miterlimit:4;stroke-dasharray:none" />
      <path
         inkscape:connector-curvature="0"
         id="path4291"
         d="m 25.288568,1033.718 c 0.210118,0.043 0.453544,0.06 0.810355,-0.011 0.155197,-0.032 0.344409,-0.091 0.524267,-0.1938"
         style="fill:none;stroke:#000000;stroke-width:0.59465545;stroke-linecap:round;stroke-linejoin:miter;stroke-miterlimit:4;stroke-dasharray:none" />
      <path
         inkscape:connector-curvature="0"
         id="path4293"
         d="m 21.962076,1034.0122 c 0.225709,-0.1333 0.566788,-0.2328 1.02352,-0.298 0.180709,-0.028 0.477071,-0.06 0.760535,-0.076 0.33874,-0.018 0.547229,-0.018 0.736618,-0.011 0.308268,0.011 0.592229,0.044 0.805819,0.091"
         style="fill:none;stroke:#000000;stroke-width:0.59465545;stroke-linecap:round;stroke-linejoin:miter;stroke-miterlimit:4;stroke-dasharray:none" />
      <path
         inkscape:connector-curvature="0"
         id="path4295"
         d="m 20.054466,1033.4224 -0.0071,0.035"
         style="fill:none;stroke:#000000;stroke-width:0.59465545;stroke-linecap:round;stroke-linejoin:miter;stroke-miterlimit:4;stroke-dasharray:none" />
      <path
         inkscape:connector-curvature="0"
         id="path4297"
         d="m 20.047769,1033.4576 c -0.01417,0.1222 0.09992,0.2803 0.326693,0.4134 0.0776,0.05 0.20374,0.1045 0.378142,0.163 0.109842,0.032 0.221456,0.058 0.33626,0.075 0.233858,0.032 0.438378,0.032 0.613913,0 0.114094,-0.025 0.200551,-0.055 0.25937,-0.092"
         style="fill:none;stroke:#000000;stroke-width:0.59465545;stroke-linecap:round;stroke-linejoin:miter;stroke-miterlimit:4;stroke-dasharray:none" />
      <path
         inkscape:connector-curvature="0"
         id="path4299"
         d="m 17.877175,1031.4265 c 0.439228,0.1672 0.894862,0.4263 1.283917,0.7196 0.09921,0.073 0.215433,0.1691 0.34937,0.2885 0.06484,0.06 0.124724,0.118 0.179646,0.1754 0.04961,0.047 0.236693,0.2636 0.300118,0.4018 0.06343,0.1272 0.08964,0.2384 0.07902,0.3334"
         style="fill:none;stroke:#000000;stroke-width:0.59465545;stroke-linecap:round;stroke-linejoin:miter;stroke-miterlimit:4;stroke-dasharray:none" />
      <path
         inkscape:connector-curvature="0"
         id="path4301"
         d="m 20.0691,1033.3452 -0.01417,0.077"
         style="fill:none;stroke:#000000;stroke-width:0.59465545;stroke-linecap:round;stroke-linejoin:miter;stroke-miterlimit:4;stroke-dasharray:none" />
      <path
         inkscape:connector-curvature="0"
         id="path4303"
         d="m 17.520824,1029.9408 c -0.173622,-0.018 -0.319606,0.011 -0.437598,0.08 -0.107717,0.071 -0.176457,0.1559 -0.193819,0.3089"
         style="fill:none;stroke:#000000;stroke-width:0.59465545;stroke-linecap:round;stroke-linejoin:miter;stroke-miterlimit:4;stroke-dasharray:none" />
      <path
         inkscape:connector-curvature="0"
         id="path4305"
         d="m 16.889372,1030.3299 q -0.01063,0.072 0.01417,0.1807 0.06095,0.2357 0.27496,0.4602 0.140669,0.146 0.317126,0.2608 0.201969,0.1286 0.380799,0.1949"
         style="fill:none;stroke:#000000;stroke-width:0.59465545;stroke-linecap:round;stroke-linejoin:miter;stroke-miterlimit:4;stroke-dasharray:none" />
      <path
         inkscape:connector-curvature="0"
         id="path4307"
         d="m 18.670415,1027.6507 c 0.187086,0.4038 0.280275,0.8424 0.244134,1.2323"
         style="fill:none;stroke:#000000;stroke-width:0.59465545;stroke-linecap:round;stroke-linejoin:miter;stroke-miterlimit:4;stroke-dasharray:none" />
      <path
         inkscape:connector-curvature="0"
         id="path4309"
         d="m 18.914513,1028.883 c -0.01417,0.1463 -0.04323,0.3026 -0.12933,0.4818 -0.03543,0.069 -0.07335,0.1311 -0.118347,0.1882 -0.154842,0.1878 -0.294803,0.254 -0.426756,0.3082 -0.219331,0.085 -0.481854,0.1031 -0.719362,0.08"
         style="fill:none;stroke:#000000;stroke-width:0.59465545;stroke-linecap:round;stroke-linejoin:miter;stroke-miterlimit:4;stroke-dasharray:none" />
      <path
         inkscape:connector-curvature="0"
         id="path4311"
         d="m 20.221604,1026.7551 c -0.23315,-0.2537 -0.576744,-0.4148 -0.902693,-0.4 -0.100276,0.01 -0.22748,0.018 -0.388807,0.1098 -0.215079,0.1241 -0.349016,0.3512 -0.370595,0.6034"
         style="fill:none;stroke:#000000;stroke-width:0.59465545;stroke-linecap:round;stroke-linejoin:miter;stroke-miterlimit:4;stroke-dasharray:none" />
      <path
         inkscape:connector-curvature="0"
         id="path4313"
         d="m 18.559509,1027.0685 c -0.02126,0.2087 0.03189,0.4152 0.110906,0.5822"
         style="fill:none;stroke:#000000;stroke-width:0.59465545;stroke-linecap:round;stroke-linejoin:miter;stroke-miterlimit:4;stroke-dasharray:none" />
      <path
         inkscape:connector-curvature="0"
         id="path4315"
         d="m 23.548096,1026.4609 c -0.246969,0.4166 -0.622134,0.7732 -1.084146,0.9503 -0.185315,0.075 -0.484299,0.1375 -0.764043,0.1127 -0.334134,-0.028 -0.534898,-0.1145 -0.717201,-0.1984 -0.295866,-0.1421 -0.563031,-0.3565 -0.761102,-0.5705"
         style="fill:none;stroke:#000000;stroke-width:0.59465545;stroke-linecap:round;stroke-linejoin:miter;stroke-miterlimit:4;stroke-dasharray:none" />
      <path
         inkscape:connector-curvature="0"
         id="path4317"
         d="m 25.455848,1027.0509 0.01063,-0.087"
         style="fill:none;stroke:#000000;stroke-width:0.59465545;stroke-linecap:round;stroke-linejoin:miter;stroke-miterlimit:4;stroke-dasharray:none" />
      <path
         inkscape:connector-curvature="0"
         id="path4319"
         d="m 25.467364,1026.9636 c 0.02835,-0.2959 -0.07016,-0.6 -0.290197,-0.8056 -0.07937,-0.074 -0.194528,-0.1598 -0.373217,-0.2154 -0.109842,-0.032 -0.222874,-0.047 -0.339094,-0.042 -0.238111,0.014 -0.449929,0.094 -0.635705,0.2396 -0.121181,0.099 -0.214724,0.2058 -0.280984,0.321"
         style="fill:none;stroke:#000000;stroke-width:0.59465545;stroke-linecap:round;stroke-linejoin:miter;stroke-miterlimit:4;stroke-dasharray:none" />
      <path
         inkscape:connector-curvature="0"
         id="path4321"
         d="m 27.633104,1029.0469 c -0.465733,0.1155 -0.945355,0.1144 -1.344792,-0.068 -0.102047,-0.041 -0.220393,-0.1183 -0.354685,-0.2321 -0.06484,-0.059 -0.12437,-0.1236 -0.177519,-0.1945 -0.02835,-0.032 -0.07618,-0.1084 -0.139961,-0.2247 -0.05882,-0.1133 -0.111968,-0.2625 -0.140669,-0.3873 -0.05492,-0.2267 -0.06591,-0.4799 -0.04465,-0.7002"
         style="fill:none;stroke:#000000;stroke-width:0.59465545;stroke-linecap:round;stroke-linejoin:miter;stroke-miterlimit:4;stroke-dasharray:none" />
      <path
         inkscape:connector-curvature="0"
         id="path4323"
         d="m 25.430655,1027.2401 0.0248,-0.1892"
         style="fill:none;stroke:#000000;stroke-width:0.59465545;stroke-linecap:round;stroke-linejoin:miter;stroke-miterlimit:4;stroke-dasharray:none" />
      <path
         inkscape:connector-curvature="0"
         id="path4325"
         d="m 27.989348,1030.5323 c 0.184961,-0.1038 0.340512,-0.2342 0.466724,-0.3901 0.115512,-0.1513 0.189213,-0.2919 0.209764,-0.4785"
         style="fill:none;stroke:#000000;stroke-width:0.59465545;stroke-linecap:round;stroke-linejoin:miter;stroke-miterlimit:4;stroke-dasharray:none" />
      <path
         inkscape:connector-curvature="0"
         id="path4327"
         d="m 28.665836,1029.6637 q 0.01063,-0.089 -0.01417,-0.1981 -0.0613,-0.2335 -0.284528,-0.3575 -0.147047,-0.08 -0.332362,-0.096 -0.212598,-0.014 -0.402272,0.035"
         style="fill:none;stroke:#000000;stroke-width:0.59465545;stroke-linecap:round;stroke-linejoin:miter;stroke-miterlimit:4;stroke-dasharray:none" />
      <path
         inkscape:connector-curvature="0"
         id="path4329"
         d="m 26.83997,1032.8222 q -0.32811,-0.2168 -0.30189,-0.6127"
         style="fill:none;stroke:#000000;stroke-width:0.59465545;stroke-linecap:round;stroke-linejoin:miter;stroke-miterlimit:4;stroke-dasharray:none" />
      <path
         inkscape:connector-curvature="0"
         id="path4331"
         d="m 26.538045,1032.2095 c 0.01063,-0.1003 0.03543,-0.2169 0.120826,-0.3927 0.03543,-0.068 0.0737,-0.1371 0.120119,-0.2073 0.159448,-0.2363 0.307204,-0.3861 0.446421,-0.5188 0.231378,-0.2183 0.511086,-0.4169 0.763831,-0.5586"
         style="fill:none;stroke:#000000;stroke-width:0.59465545;stroke-linecap:round;stroke-linejoin:miter;stroke-miterlimit:4;stroke-dasharray:none" />
      <path
         inkscape:connector-curvature="0"
         id="path4333"
         d="m 26.62319,1033.5129 c 0.28063,-0.1683 0.342638,-0.3135 0.357201,-0.4241"
         style="fill:none;stroke:#000000;stroke-width:0.59465545;stroke-linecap:round;stroke-linejoin:miter;stroke-miterlimit:4;stroke-dasharray:none" />
      <path
         inkscape:connector-curvature="0"
         id="path4335"
         d="m 26.980391,1033.0888 q 0.0071,-0.169 -0.140315,-0.2664"
         style="fill:none;stroke:#000000;stroke-width:0.59465545;stroke-linecap:round;stroke-linejoin:miter;stroke-miterlimit:4;stroke-dasharray:none" />
      <path
         inkscape:connector-curvature="0"
         id="path4337"
         d="m 19.931513,1029.8663 q -0.216496,-0.2349 -0.510307,-0.3433 -0.194527,-0.07 -0.392102,-0.064 -0.07512,0 -0.170433,0.021"
         style="fill:none;stroke:#000000;stroke-width:0.59465545;stroke-linecap:round;stroke-linejoin:miter;stroke-miterlimit:4;stroke-dasharray:none" />
      <path
         inkscape:connector-curvature="0"
         id="path4339"
         d="m 23.258005,1029.5721 c -0.09957,0.1698 -0.217913,0.3257 -0.355181,0.4681 -0.207283,0.2165 -0.450638,0.3807 -0.730027,0.4926 -0.126142,0.053 -0.282402,0.09 -0.468851,0.1113 -0.422185,0.042 -0.851811,-0.084 -1.213582,-0.3115 -0.222874,-0.1431 -0.408898,-0.2983 -0.558851,-0.4662"
         style="fill:none;stroke:#000000;stroke-width:0.59465545;stroke-linecap:round;stroke-linejoin:miter;stroke-miterlimit:4;stroke-dasharray:none" />
      <path
         inkscape:connector-curvature="0"
         id="path4341"
         d="m 25.180639,1029.9184 c -0.0035,-0.1158 -0.02835,-0.2275 -0.07335,-0.3348 -0.04996,-0.1219 -0.123307,-0.2289 -0.219685,-0.3214 -0.07937,-0.074 -0.194528,-0.1609 -0.374563,-0.2168 -0.203386,-0.059 -0.407622,-0.056 -0.613276,0.01 -0.133937,0.044 -0.255118,0.1085 -0.363401,0.196 -0.120119,0.099 -0.212953,0.2069 -0.278504,0.3224"
         style="fill:none;stroke:#000000;stroke-width:0.59465545;stroke-linecap:round;stroke-linejoin:miter;stroke-miterlimit:4;stroke-dasharray:none" />
      <path
         inkscape:connector-curvature="0"
         id="path4343"
         d="m 26.535458,1032.2358 c -0.190275,-0.014 -0.369709,-0.06 -0.53837,-0.1346 -0.102402,-0.041 -0.220748,-0.118 -0.355642,-0.2325 -0.278858,-0.2501 -0.446811,-0.6245 -0.494716,-1.02 -0.02126,-0.1772 -0.02126,-0.3419 -0.0071,-0.4958"
         style="fill:none;stroke:#000000;stroke-width:0.59465545;stroke-linecap:round;stroke-linejoin:miter;stroke-miterlimit:4;stroke-dasharray:none" />
      <path
         inkscape:connector-curvature="0"
         id="path4345"
         d="m 25.140068,1030.3531 0.0248,-0.1907"
         style="fill:none;stroke:#000000;stroke-width:0.59465545;stroke-linecap:round;stroke-linejoin:miter;stroke-miterlimit:4;stroke-dasharray:none" />
    </g>
  </g>
</svg>
