<?xml version="1.0" encoding="UTF-8" standalone="no"?>
<!-- Created with Inkscape (http://www.inkscape.org/) -->

<svg
   xmlns:dc="http://purl.org/dc/elements/1.1/"
   xmlns:cc="http://creativecommons.org/ns#"
   xmlns:rdf="http://www.w3.org/1999/02/22-rdf-syntax-ns#"
   xmlns:svg="http://www.w3.org/2000/svg"
   xmlns="http://www.w3.org/2000/svg"
   xmlns:sodipodi="http://sodipodi.sourceforge.net/DTD/sodipodi-0.dtd"
   xmlns:inkscape="http://www.inkscape.org/namespaces/inkscape"
   width="48"
   height="48"
   viewBox="0 0 48.000001 48.000001"
   id="svg15825"
   version="1.1"
   inkscape:version="0.91 r13725"
   sodipodi:docname="ISO14579.svg">
  <defs
     id="defs15827" />
  <sodipodi:namedview
     id="base"
     pagecolor="#ffffff"
     bordercolor="#666666"
     borderopacity="1.0"
     inkscape:pageopacity="0.0"
     inkscape:pageshadow="2"
     inkscape:zoom="12.625"
     inkscape:cx="24"
     inkscape:cy="24"
     inkscape:document-units="px"
     inkscape:current-layer="layer1"
     showgrid="false"
     units="px"
     inkscape:window-width="1260"
     inkscape:window-height="787"
     inkscape:window-x="0"
     inkscape:window-y="0"
     inkscape:window-maximized="0" />
  <metadata
     id="metadata15830">
    <rdf:RDF>
      <cc:Work
         rdf:about="">
        <dc:format>image/svg+xml</dc:format>
        <dc:type
           rdf:resource="http://purl.org/dc/dcmitype/StillImage" />
        <dc:title></dc:title>
      </cc:Work>
    </rdf:RDF>
  </metadata>
  <g
     inkscape:label="Layer 1"
     inkscape:groupmode="layer"
     id="layer1"
     transform="translate(0,-1004.3622)">
    <g
       transform="matrix(3.5433071,0,0,3.543307,-828.64022,182.09)"
       id="g14932">
      <path
         sodipodi:nodetypes="cccccccccc"
         inkscape:connector-curvature="0"
         id="path14926"
         d="m 238.33186,233.67469 c -0.20108,0.0632 -1.08358,0.86032 -1.34412,1.396 -0.50858,0.87715 -0.5273,2.00458 -0.0512,2.89933 0.28415,0.5766 0.77422,1.02444 1.29084,1.39211 1.38792,0.91122 3.25973,1.08637 4.75732,0.3374 1.02273,-0.49452 1.90085,-1.44292 2.03776,-2.60445 0.0461,-0.56848 -0.01,-1.15505 -0.25975,-1.67468 -0.0565,-0.13488 -0.44132,-1.01439 -1.1591,-1.37518 -1.56556,-1.2422 -3.39748,-0.96244 -5.27173,-0.37053 z"
         style="opacity:1;fill:#ffaa00;fill-opacity:0.94117647;fill-rule:evenodd;stroke:none;stroke-width:1;stroke-linecap:round;stroke-linejoin:round;stroke-miterlimit:4;stroke-dasharray:none;stroke-dashoffset:0;stroke-opacity:1" />
      <path
         transform="scale(0.28222222,0.28222223)"
         inkscape:connector-curvature="0"
         id="path14928"
         d="m 838.08635,842.43696 c -0.23419,1.44966 -0.2268,2.95445 -0.28653,4.42938 -0.1003,3.68265 2.0195,7.12503 4.90941,9.28121 4.87804,3.72901 11.85701,4.56899 17.43221,1.95601 3.48965,-1.52375 6.48354,-4.53684 7.33452,-8.32504 0.35376,-1.69567 0.42194,-3.44338 0.4458,-5.17016 -0.0638,-0.59399 -0.90141,-0.56881 -1.08268,-0.0534 -1.06409,1.63713 -2.5134,3.01709 -4.10138,4.14044 -2.57829,1.62969 -5.62513,2.57805 -8.63906,2.5399 -3.79957,0.16501 -7.71196,-1.05366 -10.82522,-3.3284 -1.89361,-1.37862 -3.38922,-3.26781 -4.32669,-5.41279 -0.21387,-0.31947 -0.60513,-0.34562 -0.86038,-0.0572 z"
         style="opacity:1;fill:#ffaa00;fill-opacity:0.94117647;fill-rule:evenodd;stroke:none;stroke-width:1;stroke-linecap:round;stroke-linejoin:round;stroke-miterlimit:4;stroke-dasharray:none;stroke-dashoffset:0;stroke-opacity:1" />
      <path
         transform="scale(0.28222222,0.28222223)"
         inkscape:connector-curvature="0"
         id="path14930"
         d="m 843.82091,857.3001 c -0.78338,0.1784 -0.45506,1.15599 -0.54122,1.73607 -0.12025,1.4505 0.27258,2.91873 1.15494,4.08205 2.01316,2.73436 5.6024,4.11545 8.94225,3.66297 3.05671,-0.26278 6.13422,-2.21729 7.13425,-5.20615 0.28467,-0.98465 0.40898,-2.04867 0.30954,-3.05787 -0.36856,-0.69495 -1.13108,0.025 -1.6719,0.14791 -1.94982,0.69926 -4.01255,1.08953 -6.08914,0.9824 -2.95029,0.13938 -5.84675,-0.76671 -8.45465,-2.08542 -0.25445,-0.0986 -0.50449,-0.25437 -0.78407,-0.26196 z"
         style="opacity:1;fill:#ffaa00;fill-opacity:0.94117647;fill-rule:evenodd;stroke:none;stroke-width:1;stroke-linecap:round;stroke-linejoin:round;stroke-miterlimit:4;stroke-dasharray:none;stroke-dashoffset:0;stroke-opacity:1" />
      <g
         id="g14558">
        <path
           style="fill:none;stroke:#000000;stroke-width:0.28222224;stroke-linecap:round;stroke-linejoin:round;stroke-miterlimit:4;stroke-dasharray:none"
           d="m 243.29924,239.61871 a 4.25,3.52422 3.5595999 0 0 1.76251,-2.64803"
           id="path10611"
           inkscape:connector-curvature="0" />
        <path
           style="fill:none;stroke:#000000;stroke-width:0.28222224;stroke-linecap:round;stroke-linejoin:round;stroke-miterlimit:4;stroke-dasharray:none"
           d="m 236.57861,236.44364 a 4.25,3.52422 3.5595999 0 0 6.72063,3.17507"
           id="path10613"
           inkscape:connector-curvature="0" />
        <path
           style="fill:none;stroke:#000000;stroke-width:0.28222224;stroke-linecap:round;stroke-linejoin:round;stroke-miterlimit:4;stroke-dasharray:none"
           id="path9317"
           d="m 237.99995,241.77528 -0.0375,0.65778"
           inkscape:connector-curvature="0"
           sodipodi:nodetypes="cc" />
        <path
           style="fill:none;stroke:#000000;stroke-width:0.28222224;stroke-linecap:round;stroke-linejoin:round;stroke-miterlimit:4;stroke-dasharray:none"
           id="path9319"
           d="m 242.99025,242.08572 -0.0375,0.65778"
           inkscape:connector-curvature="0"
           sodipodi:nodetypes="cc" />
        <path
           style="fill:none;stroke:#000000;stroke-width:0.28222224;stroke-linecap:round;stroke-linejoin:round;stroke-miterlimit:4;stroke-dasharray:none"
           id="path9321"
           d="m 242.15813,237.96466 0.0347,-0.55467"
           inkscape:connector-curvature="0" />
        <path
           style="fill:none;stroke:#000000;stroke-width:0.28222224;stroke-linecap:round;stroke-linejoin:round;stroke-miterlimit:4;stroke-dasharray:none"
           d="m 245.06175,236.97068 c 0.0282,-0.49089 -0.0484,-0.9882 -0.28667,-1.51573 -0.13019,-0.2851 -0.31018,-0.57725 -0.57406,-0.8787 -0.26578,-0.30034 -0.61545,-0.60999 -1.13343,-0.89637 -0.2259,-0.12246 -0.5178,-0.25646 -0.85045,-0.36001 -0.33253,-0.10477 -0.70639,-0.17991 -1.08959,-0.20923 -0.38319,-0.0305 -0.77522,-0.0143 -1.13701,0.0398 -0.36128,0.0539 -0.6924,0.14572 -0.94602,0.24365 -0.58615,0.22295 -0.98876,0.49581 -1.30035,0.76692 -0.30948,0.27337 -0.52802,0.54504 -0.69449,0.81551 -0.30276,0.4958 -0.43834,0.97938 -0.47107,1.46708"
           id="path9323"
           inkscape:connector-curvature="0" />
        <path
           style="fill:none;stroke:#000000;stroke-width:0.28222224;stroke-linecap:round;stroke-linejoin:round;stroke-miterlimit:4;stroke-dasharray:none"
           id="9"
           d="m 241.88779,236.42102 0.0667,-1.06966"
           inkscape:connector-curvature="0" />
        <path
           style="fill:none;stroke:#000000;stroke-width:0.28222224;stroke-linecap:round;stroke-linejoin:round;stroke-miterlimit:4;stroke-dasharray:none"
           id="10"
           d="m 236.57861,236.44364 -0.14825,2.37883"
           inkscape:connector-curvature="0" />
        <path
           style="fill:none;stroke:#000000;stroke-width:0.28222224;stroke-linecap:round;stroke-linejoin:round;stroke-miterlimit:4;stroke-dasharray:none"
           id="path9327"
           d="m 245.06175,236.97068 -0.14766,2.37964"
           inkscape:connector-curvature="0" />
        <path
           style="fill:none;stroke:#000000;stroke-width:0.28222224;stroke-linecap:round;stroke-linejoin:round;stroke-miterlimit:4;stroke-dasharray:none"
           id="path9329"
           d="m 239.69402,237.93009 0.0127,-0.19785"
           inkscape:connector-curvature="0" />
        <path
           style="fill:none;stroke:#000000;stroke-width:0.28222224;stroke-linecap:round;stroke-linejoin:round;stroke-miterlimit:4;stroke-dasharray:none"
           id="path9331"
           d="m 239.39537,236.84042 0.0668,-1.06854"
           inkscape:connector-curvature="0" />
        <path
           style="fill:none;stroke:#000000;stroke-width:0.28222224;stroke-linecap:round;stroke-linejoin:round;stroke-miterlimit:4;stroke-dasharray:none"
           d="m 241.9157,244.30065 c 0.61628,-0.35576 0.99785,-0.92868 1.03707,-1.55715"
           id="path9536"
           inkscape:connector-curvature="0"
           sodipodi:nodetypes="cc" />
        <path
           style="fill:none;stroke:#000000;stroke-width:0.28222224;stroke-linecap:round;stroke-linejoin:round;stroke-miterlimit:4;stroke-dasharray:none"
           d="m 237.96247,242.43306 c -0.10753,1.73469 2.2522,2.84948 3.95323,1.86759"
           id="path9538"
           inkscape:connector-curvature="0"
           sodipodi:nodetypes="cc" />
        <path
           style="fill:none;stroke:#000000;stroke-width:0.28222224;stroke-linecap:round;stroke-linejoin:round;stroke-miterlimit:4;stroke-dasharray:none"
           d="m 242.14982,237.96946 a 2.25,1.86576 3.5595999 0 0 0.92538,-1.6832"
           id="path9542"
           inkscape:connector-curvature="0" />
        <path
           style="fill:none;stroke:#000000;stroke-width:0.28222224;stroke-linecap:round;stroke-linejoin:round;stroke-miterlimit:4;stroke-dasharray:none"
           d="m 242.79631,236.69901 c 0.0707,-0.035 0.14721,-0.0896 0.20673,-0.17132 0.0423,-0.0579 0.0669,-0.12176 0.0736,-0.19142"
           id="path9544"
           inkscape:connector-curvature="0" />
        <path
           style="fill:none;stroke:#000000;stroke-width:0.28222224;stroke-linecap:round;stroke-linejoin:round;stroke-miterlimit:4;stroke-dasharray:none"
           d="m 243.07659,236.33627 q 10e-4,-0.0261 -0.001,-0.05"
           id="path9546"
           inkscape:connector-curvature="0" />
        <path
           style="fill:none;stroke:#000000;stroke-width:0.28222224;stroke-linecap:round;stroke-linejoin:round;stroke-miterlimit:4;stroke-dasharray:none"
           d="m 242.27264,237.6526 q -0.0867,-0.10004 -0.0798,-0.24261"
           id="path9548"
           inkscape:connector-curvature="0" />
        <path
           style="fill:none;stroke:#000000;stroke-width:0.28222224;stroke-linecap:round;stroke-linejoin:round;stroke-miterlimit:4;stroke-dasharray:none"
           d="m 242.19285,237.40999 c 0.006,-0.0644 0.0165,-0.12039 0.0708,-0.22445 0.0153,-0.0285 0.0328,-0.057 0.053,-0.0849 0.0677,-0.0957 0.12734,-0.15204 0.18265,-0.20245 0.0927,-0.0812 0.20075,-0.15169 0.29709,-0.19923"
           id="path9550"
           inkscape:connector-curvature="0" />
        <path
           style="fill:none;stroke:#000000;stroke-width:0.28222224;stroke-linecap:round;stroke-linejoin:round;stroke-miterlimit:4;stroke-dasharray:none"
           d="m 242.14982,237.96946 c 0.12842,-0.0788 0.1532,-0.14965 0.15992,-0.2078"
           id="path9552"
           inkscape:connector-curvature="0" />
        <path
           style="fill:none;stroke:#000000;stroke-width:0.28222224;stroke-linecap:round;stroke-linejoin:round;stroke-miterlimit:4;stroke-dasharray:none"
           d="m 242.30974,237.76166 q 0.002,-0.0646 -0.0371,-0.10906"
           id="path9554"
           inkscape:connector-curvature="0" />
        <path
           style="fill:none;stroke:#000000;stroke-width:0.28222224;stroke-linecap:round;stroke-linejoin:round;stroke-miterlimit:4;stroke-dasharray:none"
           d="m 239.91265,238.11216 a 2.25,1.86576 3.5595999 0 0 2.23717,-0.1427"
           id="path9556"
           inkscape:connector-curvature="0" />
        <path
           style="fill:none;stroke:#000000;stroke-width:0.28222224;stroke-linecap:round;stroke-linejoin:round;stroke-miterlimit:4;stroke-dasharray:none"
           d="m 243.0752,236.28626 a 2.25,1.86576 3.5595999 0 0 -1.31238,-1.5413"
           id="path9558"
           inkscape:connector-curvature="0" />
        <path
           style="fill:none;stroke:#000000;stroke-width:0.28222224;stroke-linecap:round;stroke-linejoin:round;stroke-miterlimit:4;stroke-dasharray:none"
           d="m 238.60027,236.57086 a 2.25,1.86576 3.5595999 0 0 1.31238,1.5413"
           id="path9560"
           inkscape:connector-curvature="0" />
        <path
           style="fill:none;stroke:#000000;stroke-width:0.28222224;stroke-linecap:round;stroke-linejoin:round;stroke-miterlimit:4;stroke-dasharray:none"
           d="m 241.76282,234.74496 a 2.25,1.86576 3.5595999 0 0 -2.23767,0.14184"
           id="path9562"
           inkscape:connector-curvature="0" />
        <path
           style="fill:none;stroke:#000000;stroke-width:0.28222224;stroke-linecap:round;stroke-linejoin:round;stroke-miterlimit:4;stroke-dasharray:none"
           d="m 239.52515,234.8868 a 2.25,1.86576 3.5595999 0 0 -0.92488,1.68406"
           id="path9564"
           inkscape:connector-curvature="0" />
        <path
           style="fill:none;stroke:#000000;stroke-width:0.28222224;stroke-linecap:round;stroke-linejoin:round;stroke-miterlimit:4;stroke-dasharray:none"
           d="m 243.0752,236.28626 c -0.006,-0.0751 -0.0622,-0.15114 -0.11703,-0.18069 -0.0683,-0.0425 -0.16439,-0.0517 -0.23775,-0.0394"
           id="path9566"
           inkscape:connector-curvature="0" />
        <path
           style="fill:none;stroke:#000000;stroke-width:0.28222224;stroke-linecap:round;stroke-linejoin:round;stroke-miterlimit:4;stroke-dasharray:none"
           d="m 241.65188,238.011 c 0.0731,0.0294 0.16076,0.0481 0.29488,0.0284 0.0585,-0.01 0.13135,-0.0285 0.20306,-0.0699"
           id="path9568"
           inkscape:connector-curvature="0" />
        <path
           style="fill:none;stroke:#000000;stroke-width:0.28222224;stroke-linecap:round;stroke-linejoin:round;stroke-miterlimit:4;stroke-dasharray:none"
           d="m 240.38477,238.09131 c 0.099,-0.0699 0.23752,-0.11981 0.41596,-0.14894 0.0706,-0.0119 0.18453,-0.0234 0.29122,-0.0238 0.12737,-7.9e-4 0.20356,0.007 0.27295,0.0168 0.11201,0.015 0.21291,0.0434 0.28698,0.0756"
           id="path9570"
           inkscape:connector-curvature="0" />
        <path
           style="fill:none;stroke:#000000;stroke-width:0.28222224;stroke-linecap:round;stroke-linejoin:round;stroke-miterlimit:4;stroke-dasharray:none"
           d="m 239.91265,238.11216 c 0.0867,0.0342 0.1859,0.0474 0.26385,0.0428 0.0992,-0.005 0.16582,-0.0334 0.20827,-0.0637"
           id="path9572"
           inkscape:connector-curvature="0" />
        <path
           style="fill:none;stroke:#000000;stroke-width:0.28222224;stroke-linecap:round;stroke-linejoin:round;stroke-miterlimit:4;stroke-dasharray:none"
           d="m 241.97748,235.19376 q 0.008,-0.0368 0.0104,-0.073"
           id="path9574"
           inkscape:connector-curvature="0" />
        <path
           style="fill:none;stroke:#000000;stroke-width:0.28222224;stroke-linecap:round;stroke-linejoin:round;stroke-miterlimit:4;stroke-dasharray:none"
           d="m 241.98788,235.12078 c 0.007,-0.10313 -0.0246,-0.20748 -0.0928,-0.28358 -0.0386,-0.0424 -0.0828,-0.0734 -0.13224,-0.0922"
           id="path9576"
           inkscape:connector-curvature="0" />
        <path
           style="fill:none;stroke:#000000;stroke-width:0.28222224;stroke-linecap:round;stroke-linejoin:round;stroke-miterlimit:4;stroke-dasharray:none"
           d="m 242.72042,236.06617 c -0.17258,0.0269 -0.34623,0.006 -0.48685,-0.0827 -0.0361,-0.0207 -0.0771,-0.0559 -0.12292,-0.1057 -0.0225,-0.0263 -0.0424,-0.054 -0.0603,-0.0841 -0.01,-0.014 -0.025,-0.0456 -0.0451,-0.0929 -0.0189,-0.0469 -0.035,-0.10798 -0.0425,-0.15794 -0.009,-0.0627 -0.0123,-0.12685 -0.008,-0.19152"
           id="path9578"
           inkscape:connector-curvature="0" />
        <path
           style="fill:none;stroke:#000000;stroke-width:0.28222224;stroke-linecap:round;stroke-linejoin:round;stroke-miterlimit:4;stroke-dasharray:none"
           d="m 241.9545,235.35136 q 0.005,-0.0839 0.023,-0.1576"
           id="path9580"
           inkscape:connector-curvature="0" />
        <path
           style="fill:none;stroke:#000000;stroke-width:0.28222224;stroke-linecap:round;stroke-linejoin:round;stroke-miterlimit:4;stroke-dasharray:none"
           d="m 239.68812,237.81687 q -0.007,0.019 -0.008,0.0393"
           id="path9582"
           inkscape:connector-curvature="0" />
        <path
           style="fill:none;stroke:#000000;stroke-width:0.28222224;stroke-linecap:round;stroke-linejoin:round;stroke-miterlimit:4;stroke-dasharray:none"
           d="m 239.67999,237.8562 c -0.004,0.0566 0.0298,0.12365 0.0991,0.17948 0.0393,0.0316 0.0837,0.0568 0.13353,0.0765"
           id="path9584"
           inkscape:connector-curvature="0" />
        <path
           style="fill:none;stroke:#000000;stroke-width:0.28222224;stroke-linecap:round;stroke-linejoin:round;stroke-miterlimit:4;stroke-dasharray:none"
           d="m 238.94518,236.94446 c 0.16698,0.0606 0.33578,0.16178 0.47426,0.28505 0.035,0.0294 0.0757,0.0706 0.12211,0.1235 0.022,0.0254 0.0423,0.0517 0.0602,0.0772 0.0165,0.0205 0.0766,0.11973 0.0914,0.1851 0.0116,0.0418 0.0156,0.0799 0.0136,0.11688"
           id="path9586"
           inkscape:connector-curvature="0" />
        <path
           style="fill:none;stroke:#000000;stroke-width:0.28222224;stroke-linecap:round;stroke-linejoin:round;stroke-miterlimit:4;stroke-dasharray:none"
           d="m 239.70669,237.73224 q -0.003,0.047 -0.0186,0.0846"
           id="path9588"
           inkscape:connector-curvature="0" />
        <path
           style="fill:none;stroke:#000000;stroke-width:0.28222224;stroke-linecap:round;stroke-linejoin:round;stroke-miterlimit:4;stroke-dasharray:none"
           d="m 238.60027,236.57086 c 0.006,0.073 0.0604,0.16948 0.1135,0.22199 0.067,0.0722 0.16056,0.12669 0.23141,0.15161"
           id="path9590"
           inkscape:connector-curvature="0" />
        <path
           style="fill:none;stroke:#000000;stroke-width:0.28222224;stroke-linecap:round;stroke-linejoin:round;stroke-miterlimit:4;stroke-dasharray:none"
           d="m 240.01372,234.99963 c -0.07,-0.0785 -0.15477,-0.13928 -0.28718,-0.15521 -0.0575,-0.005 -0.12977,10e-4 -0.20139,0.0424"
           id="path9592"
           inkscape:connector-curvature="0" />
        <path
           style="fill:none;stroke:#000000;stroke-width:0.28222224;stroke-linecap:round;stroke-linejoin:round;stroke-miterlimit:4;stroke-dasharray:none"
           d="m 241.28082,234.91932 c -0.10186,0.15696 -0.25072,0.28793 -0.42895,0.35042 -0.0712,0.0273 -0.18613,0.0474 -0.29176,0.0357 -0.1261,-0.0138 -0.20099,-0.0479 -0.26861,-0.0816 -0.10976,-0.0567 -0.20689,-0.14035 -0.27778,-0.22413"
           id="path9594"
           inkscape:connector-curvature="0" />
        <path
           style="fill:none;stroke:#000000;stroke-width:0.28222224;stroke-linecap:round;stroke-linejoin:round;stroke-miterlimit:4;stroke-dasharray:none"
           d="m 241.76282,234.74496 c -0.0871,-0.0351 -0.18763,-0.0314 -0.26688,-6.5e-4 -0.10097,0.0375 -0.17072,0.1055 -0.21512,0.17501"
           id="path9596"
           inkscape:connector-curvature="0" />
        <path
           style="fill:none;stroke:#000000;stroke-width:0.28222224;stroke-linecap:round;stroke-linejoin:round;stroke-miterlimit:4;stroke-dasharray:none"
           d="m 238.86929,236.31162 c -0.0687,-0.003 -0.14274,0.012 -0.2001,0.0624 -0.0412,0.0353 -0.0647,0.0847 -0.0708,0.14829"
           id="path9598"
           inkscape:connector-curvature="0" />
        <path
           style="fill:none;stroke:#000000;stroke-width:0.28222224;stroke-linecap:round;stroke-linejoin:round;stroke-miterlimit:4;stroke-dasharray:none"
           d="m 238.59834,236.52232 q -0.001,0.0238 0.002,0.0485"
           id="path9600"
           inkscape:connector-curvature="0" />
        <path
           style="fill:none;stroke:#000000;stroke-width:0.28222224;stroke-linecap:round;stroke-linejoin:round;stroke-miterlimit:4;stroke-dasharray:none"
           d="m 239.39295,235.35803 q 0.0798,0.20448 0.0692,0.41385"
           id="path9602"
           inkscape:connector-curvature="0" />
        <path
           style="fill:none;stroke:#000000;stroke-width:0.28222224;stroke-linecap:round;stroke-linejoin:round;stroke-miterlimit:4;stroke-dasharray:none"
           d="m 239.46215,235.77188 c -0.002,0.0418 -0.008,0.0821 -0.0174,0.12088 -0.009,0.0457 -0.0282,0.096 -0.0567,0.15165 -0.0153,0.0285 -0.0329,0.0548 -0.0521,0.0797 -0.0675,0.0794 -0.12518,0.11038 -0.17929,0.13585 -0.0895,0.0413 -0.19466,0.0547 -0.2874,0.0516"
           id="path9604"
           inkscape:connector-curvature="0" />
        <path
           style="fill:none;stroke:#000000;stroke-width:0.28222224;stroke-linecap:round;stroke-linejoin:round;stroke-miterlimit:4;stroke-dasharray:none"
           d="m 239.52515,234.8868 c -0.0943,0.0568 -0.1329,0.13561 -0.15166,0.20072 -0.006,0.0256 -0.0105,0.0511 -0.012,0.0774"
           id="path9606"
           inkscape:connector-curvature="0" />
        <path
           style="fill:none;stroke:#000000;stroke-width:0.28222224;stroke-linecap:round;stroke-linejoin:round;stroke-miterlimit:4;stroke-dasharray:none"
           d="m 239.36147,235.16489 q -0.005,0.10325 0.0315,0.19314"
           id="path9608"
           inkscape:connector-curvature="0" />
        <path
           style="fill:none;stroke:#000000;stroke-width:0.28222224;stroke-linecap:round;stroke-linejoin:round;stroke-miterlimit:4;stroke-dasharray:none"
           d="m 242.30585,237.11612 c -0.0492,-0.0155 -0.0952,-0.0363 -0.13888,-0.0642 -0.0356,-0.0199 -0.0765,-0.0551 -0.12283,-0.10575 -0.022,-0.0254 -0.0419,-0.0532 -0.0598,-0.0832 -0.0656,-0.11568 -0.0776,-0.19077 -0.0899,-0.26333 -0.008,-0.0588 -0.0105,-0.11863 -0.007,-0.17863"
           id="path9610"
           inkscape:connector-curvature="0" />
        <path
           style="fill:none;stroke:#000000;stroke-width:0.28222224;stroke-linecap:round;stroke-linejoin:round;stroke-miterlimit:4;stroke-dasharray:none"
           d="m 241.88779,236.42102 q 0.006,-0.083 0.0231,-0.15654"
           id="path9612"
           inkscape:connector-curvature="0" />
        <path
           style="fill:none;stroke:#000000;stroke-width:0.28222224;stroke-linecap:round;stroke-linejoin:round;stroke-miterlimit:4;stroke-dasharray:none"
           d="m 239.39537,236.84042 c -0.002,0.0418 -0.008,0.082 -0.0172,0.12079 -0.0112,0.0515 -0.0332,0.11614 -0.0713,0.17739"
           id="path9614"
           inkscape:connector-curvature="0" />
        <path
           style="fill:none;stroke:#000000;stroke-width:0.28222224;stroke-linecap:round;stroke-linejoin:round;stroke-miterlimit:4;stroke-dasharray:none"
           d="m 239.94708,236.0704 c -0.0522,-0.0611 -0.11488,-0.10457 -0.18868,-0.1324 -0.0484,-0.0171 -0.0984,-0.0252 -0.14876,-0.0226 -0.0386,0.003 -0.088,0.008 -0.15236,0.0441 -0.0153,0.009 -0.0294,0.0193 -0.0429,0.0305"
           id="path9616"
           inkscape:connector-curvature="0" />
        <path
           style="fill:none;stroke:#000000;stroke-width:0.28222224;stroke-linecap:round;stroke-linejoin:round;stroke-miterlimit:4;stroke-dasharray:none"
           d="m 241.21377,235.98918 c -0.10169,0.15686 -0.2502,0.28763 -0.42809,0.34992 -0.0715,0.0263 -0.18569,0.0472 -0.29124,0.0354 -0.13396,-0.015 -0.21079,-0.0515 -0.28095,-0.0872 -0.1171,-0.064 -0.19742,-0.13775 -0.26641,-0.21685"
           id="path9618"
           inkscape:connector-curvature="0" />
        <path
           style="fill:none;stroke:#000000;stroke-width:0.28222224;stroke-linecap:round;stroke-linejoin:round;stroke-miterlimit:4;stroke-dasharray:none"
           d="m 241.92116,236.1916 c 0.003,-0.0526 -0.003,-0.1034 -0.019,-0.15302 -0.0158,-0.0486 -0.0401,-0.0911 -0.0738,-0.12944 -0.028,-0.0312 -0.0684,-0.0667 -0.13352,-0.0927 -0.0738,-0.0278 -0.14988,-0.0324 -0.22791,-0.0128 -0.0509,0.0132 -0.0976,0.0356 -0.13997,0.067 -0.0479,0.0358 -0.0858,0.075 -0.11323,0.11849"
           id="path9620"
           inkscape:connector-curvature="0" />
        <path
           style="fill:none;stroke:#000000;stroke-width:0.28222224;stroke-linecap:round;stroke-linejoin:round;stroke-miterlimit:4;stroke-dasharray:none"
           d="m 243.15099,241.99754 a 4.25,3.52422 3.5595999 0 0 1.7631,-2.64722"
           id="path9622"
           inkscape:connector-curvature="0" />
        <path
           style="fill:none;stroke:#000000;stroke-width:0.28222224;stroke-linecap:round;stroke-linejoin:round;stroke-miterlimit:4;stroke-dasharray:none"
           d="m 242.03899,235.7737 a 4.25,3.52422 3.5595999 0 0 -0.0904,-0.0263"
           id="path9626"
           inkscape:connector-curvature="0" />
        <path
           style="fill:none;stroke:#000000;stroke-width:0.28222224;stroke-linecap:round;stroke-linejoin:round;stroke-miterlimit:4;stroke-dasharray:none"
           d="m 236.43036,238.82247 a 4.25,3.52422 3.5595999 0 0 6.72063,3.17507"
           id="path9630"
           inkscape:connector-curvature="0" />
        <g
           style="fill:none;stroke:#000000;stroke-width:0.28222224;stroke-linecap:round;stroke-linejoin:round;stroke-miterlimit:4;stroke-dasharray:none"
           transform="matrix(0.99807075,0.06208678,0.06208678,-0.99807075,-42.79236,272.46957)"
           id="g10603">
          <ellipse
             cx="280.845"
             cy="53.5816"
             rx="3.75"
             ry="3.1096001"
             id="ellipse10605"
             style="stroke-width:0.28222224;stroke-linecap:round;stroke-linejoin:round;stroke-miterlimit:4;stroke-dasharray:none" />
        </g>
        <path
           style="fill:none;stroke:#000000;stroke-width:0.28222224;stroke-linecap:round;stroke-linejoin:round;stroke-miterlimit:4;stroke-dasharray:none"
           id="path10607"
           d="m 242.72042,236.06617 -0.0433,0.70047"
           inkscape:connector-curvature="0" />
        <path
           style="fill:none;stroke:#000000;stroke-width:0.28222224;stroke-linecap:round;stroke-linejoin:round;stroke-miterlimit:4;stroke-dasharray:none"
           id="path10609"
           d="m 242.27264,237.6526 -0.0141,0.22754"
           inkscape:connector-curvature="0" />
        <path
           style="fill:none;stroke:#000000;stroke-width:0.28222224;stroke-linecap:round;stroke-linejoin:round;stroke-miterlimit:4;stroke-dasharray:none"
           id="path10615"
           d="m 239.68812,237.81687 -0.005,0.0802"
           inkscape:connector-curvature="0" />
        <path
           style="fill:none;stroke:#000000;stroke-width:0.28222224;stroke-linecap:round;stroke-linejoin:round;stroke-miterlimit:4;stroke-dasharray:none"
           id="path10617"
           d="m 241.28082,234.91932 -0.067,1.06986"
           inkscape:connector-curvature="0" />
        <path
           style="fill:none;stroke:#000000;stroke-width:0.28222224;stroke-linecap:round;stroke-linejoin:round;stroke-miterlimit:4;stroke-dasharray:none"
           id="path10619"
           d="m 238.86929,236.31162 -0.0365,0.57762"
           inkscape:connector-curvature="0" />
        <path
           style="fill:none;stroke:#000000;stroke-width:0.28222224;stroke-linecap:round;stroke-linejoin:round;stroke-miterlimit:4;stroke-dasharray:none"
           id="path10621"
           d="m 240.01372,234.99963 -0.0666,1.07077"
           inkscape:connector-curvature="0" />
      </g>
    </g>
  </g>
</svg>
