<?xml version="1.0" encoding="UTF-8" standalone="no"?>
<!-- Created with Inkscape (http://www.inkscape.org/) -->

<svg
   xmlns:dc="http://purl.org/dc/elements/1.1/"
   xmlns:cc="http://creativecommons.org/ns#"
   xmlns:rdf="http://www.w3.org/1999/02/22-rdf-syntax-ns#"
   xmlns:svg="http://www.w3.org/2000/svg"
   xmlns="http://www.w3.org/2000/svg"
   xmlns:sodipodi="http://sodipodi.sourceforge.net/DTD/sodipodi-0.dtd"
   xmlns:inkscape="http://www.inkscape.org/namespaces/inkscape"
   width="48"
   height="48"
   viewBox="0 0 48.000001 48.000001"
   id="svg15825"
   version="1.1"
   inkscape:version="0.91 r13725"
   sodipodi:docname="ISO14582.svg">
  <defs
     id="defs15827" />
  <sodipodi:namedview
     id="base"
     pagecolor="#ffffff"
     bordercolor="#666666"
     borderopacity="1.0"
     inkscape:pageopacity="0.0"
     inkscape:pageshadow="2"
     inkscape:zoom="12.625"
     inkscape:cx="23.360489"
     inkscape:cy="24.02074"
     inkscape:document-units="px"
     inkscape:current-layer="layer1"
     showgrid="false"
     units="px"
     inkscape:window-width="1260"
     inkscape:window-height="787"
     inkscape:window-x="197"
     inkscape:window-y="135"
     inkscape:window-maximized="0" />
  <metadata
     id="metadata15830">
    <rdf:RDF>
      <cc:Work
         rdf:about="">
        <dc:format>image/svg+xml</dc:format>
        <dc:type
           rdf:resource="http://purl.org/dc/dcmitype/StillImage" />
        <dc:title />
      </cc:Work>
    </rdf:RDF>
  </metadata>
  <g
     inkscape:label="Layer 1"
     inkscape:groupmode="layer"
     id="layer1"
     transform="translate(0,-1004.3622)">
    <g
       id="g7225"
       transform="matrix(1.4163176,0,0,1.4163176,-7.7996216,-413.80453)"
       style="stroke-width:0.70605633;stroke-miterlimit:4;stroke-dasharray:none">
      <path
         transform="translate(0,1004.3622)"
         inkscape:connector-curvature="0"
         id="path7223"
         d="m 15.547772,20.313481 c -0.694654,0.05607 -0.562011,0.912176 -0.640149,1.399937 -0.08777,1.447462 0.0018,-0.05411 0.06243,1.396084 0.304575,1.943295 2.055329,3.27528 3.788095,3.941433 1.723999,0.687974 3.67779,0.733941 5.460358,0.255195 1.698759,-0.516148 3.378496,-1.733457 3.790841,-3.545483 0.167358,-1.593188 0.05043,-0.236049 0.123976,-1.83609 -0.11082,-0.638495 -0.833349,-0.454457 -1.280167,-0.363397 -3.720442,0.73909 -7.621461,0.194186 -11.113707,-1.22927 -0.06285,-0.01363 -0.127316,-0.02089 -0.191677,-0.01841 z"
         style="opacity:1;fill:#ffaa00;fill-opacity:1;fill-rule:evenodd;stroke:none;stroke-width:0.70605633;stroke-linecap:round;stroke-linejoin:round;stroke-miterlimit:4;stroke-dasharray:none;stroke-dashoffset:0;stroke-opacity:1"
         sodipodi:nodetypes="cccccccccc" />
      <path
         sodipodi:nodetypes="cccccccccc"
         inkscape:connector-curvature="0"
         id="path7221"
         d="m 21.386881,1004.0587 c -3.228547,-0.016 -6.478232,1.0159 -9.126083,2.9753 -2.5093669,1.8506 -4.2201814,5.0838 -3.8740716,8.3648 0.292919,3.1732 2.3189956,5.8749 4.7607036,7.6049 4.74962,3.3918 11.062695,4.238 16.448919,2.1469 2.198297,-0.9427 4.338939,-2.2815 5.718293,-4.3775 0.966104,-1.43 1.649728,-3.1589 1.516054,-4.9458 0.07579,-1.3412 -0.192805,-2.6826 -0.786959,-3.8719 -1.476261,-3.0833 -4.238736,-5.2836 -7.239661,-6.5259 -2.348302,-1.0123 -4.884722,-1.4605 -7.417195,-1.3708 z"
         style="opacity:1;fill:#ffaa00;fill-opacity:1;fill-rule:evenodd;stroke:none;stroke-width:0.70605633;stroke-linecap:round;stroke-linejoin:round;stroke-miterlimit:4;stroke-dasharray:none;stroke-dashoffset:0;stroke-opacity:1" />
      <path
         inkscape:connector-curvature="0"
         d="m 8.3369471,1013.2189 -0.1006299,1.0794"
         id="1"
         style="fill:none;stroke:#000000;stroke-width:0.70605633;stroke-linecap:round;stroke-linejoin:miter;stroke-miterlimit:4;stroke-dasharray:none" />
      <path
         inkscape:connector-curvature="0"
         d="m 36.913719,1015.8853 -0.100985,1.0795"
         id="2"
         style="fill:none;stroke:#000000;stroke-width:0.70605633;stroke-linecap:round;stroke-linejoin:miter;stroke-miterlimit:4;stroke-dasharray:none" />
      <path
         inkscape:connector-curvature="0"
         d="m 26.254671,1018.1708 0.182126,-1.9553"
         id="5"
         style="fill:none;stroke:#000000;stroke-width:0.70605633;stroke-linecap:round;stroke-linejoin:miter;stroke-miterlimit:4;stroke-dasharray:none" />
      <path
         inkscape:connector-curvature="0"
         d="m 19.916156,1017.9096 0.02835,-0.3047"
         id="6"
         style="fill:none;stroke:#000000;stroke-width:0.70605633;stroke-linecap:round;stroke-linejoin:miter;stroke-miterlimit:4;stroke-dasharray:none" />
      <path
         inkscape:connector-curvature="0"
         d="m 18.533203,1015.8929 0.280276,-3.004"
         id="7"
         style="fill:none;stroke:#000000;stroke-width:0.70605633;stroke-linecap:round;stroke-linejoin:miter;stroke-miterlimit:4;stroke-dasharray:none" />
      <path
         inkscape:connector-curvature="0"
         d="m 24.968416,1015.1175 0.337677,-3.618"
         id="8"
         style="fill:none;stroke:#000000;stroke-width:0.70605633;stroke-linecap:round;stroke-linejoin:miter;stroke-miterlimit:4;stroke-dasharray:none" />
      <path
         inkscape:connector-curvature="0"
         id="path4183"
         d="m 31.853168,1023.0119 a 14.350394,10.522904 5.3305994 0 0 5.060551,-7.1266"
         style="fill:none;stroke:#000000;stroke-width:0.70605633;stroke-linecap:round;stroke-linejoin:miter;stroke-miterlimit:4;stroke-dasharray:none" />
      <path
         inkscape:connector-curvature="0"
         id="path4185"
         d="M 36.913719,1015.8853 A 14.350459,10.522952 5.3305994 1 0 8.3369471,1013.2189"
         style="fill:none;stroke:#000000;stroke-width:0.70605633;stroke-linecap:round;stroke-linejoin:miter;stroke-miterlimit:4;stroke-dasharray:none" />
      <path
         inkscape:connector-curvature="0"
         id="path4187"
         d="m 8.3369471,1013.2189 a 14.350394,10.522904 5.3305994 0 0 23.5162209,9.793"
         style="fill:none;stroke:#000000;stroke-width:0.70605633;stroke-linecap:round;stroke-linejoin:miter;stroke-miterlimit:4;stroke-dasharray:none" />
      <path
         inkscape:connector-curvature="0"
         id="path4189"
         d="m 31.752467,1024.0913 a 14.350394,10.522904 5.3305994 0 0 5.060338,-7.1265"
         style="fill:none;stroke:#000000;stroke-width:0.70605633;stroke-linecap:round;stroke-linejoin:miter;stroke-miterlimit:4;stroke-dasharray:none" />
      <path
         inkscape:connector-curvature="0"
         id="path4191"
         d="m 8.2361754,1014.2983 a 14.350394,10.522904 5.3305994 0 0 23.5162916,9.793"
         style="fill:none;stroke:#000000;stroke-width:0.70605633;stroke-linecap:round;stroke-linejoin:miter;stroke-miterlimit:4;stroke-dasharray:none" />
      <path
         sodipodi:nodetypes="cccccccc"
         inkscape:connector-curvature="0"
         d="m 14.876424,1026.386 c -0.399257,4.2818 6.410955,7.1177 10.887023,4.5336 m 0,0 c 1.374617,-0.7937 2.220129,-1.9844 2.342835,-3.2993 m 0.166693,-2.0844 -0.166693,2.0844 m -13.063201,-3.319 -0.166657,2.0847"
         style="fill:none;stroke:#000000;stroke-width:0.70605633;stroke-linecap:round;stroke-linejoin:miter;stroke-miterlimit:4;stroke-dasharray:none"
         id="path4195" />
      <path
         inkscape:connector-curvature="0"
         id="path4197"
         d="m 25.326077,1011.3665 a 1.0364173,0.75998886 5.3305994 0 0 0.01063,-0.061"
         style="fill:none;stroke:#000000;stroke-width:0.70605633;stroke-linecap:round;stroke-linejoin:miter;stroke-miterlimit:4;stroke-dasharray:none" />
      <path
         inkscape:connector-curvature="0"
         id="path4199"
         d="m 25.335148,1011.3051 a 1.0364173,0.75998886 5.3305994 0 0 -1.916823,-0.5286"
         style="fill:none;stroke:#000000;stroke-width:0.70605633;stroke-linecap:round;stroke-linejoin:miter;stroke-miterlimit:4;stroke-dasharray:none" />
      <path
         inkscape:connector-curvature="0"
         id="path4201"
         d="m 20.091833,1011.0707 a 2.253732,1.6526258 5.3305994 0 0 3.326492,-0.2941"
         style="fill:none;stroke:#000000;stroke-width:0.70605633;stroke-linecap:round;stroke-linejoin:miter;stroke-miterlimit:4;stroke-dasharray:none" />
      <path
         inkscape:connector-curvature="0"
         id="path4203"
         d="m 20.091833,1011.0707 a 1.0364173,0.75998886 5.3305994 0 0 -1.676906,0.4714"
         style="fill:none;stroke:#000000;stroke-width:0.70605633;stroke-linecap:round;stroke-linejoin:miter;stroke-miterlimit:4;stroke-dasharray:none" />
      <path
         inkscape:connector-curvature="0"
         id="path4205"
         d="m 18.414927,1011.5421 a 1.0364173,0.75998886 5.3305994 0 0 0.125433,0.4243"
         style="fill:none;stroke:#000000;stroke-width:0.70605633;stroke-linecap:round;stroke-linejoin:miter;stroke-miterlimit:4;stroke-dasharray:none" />
      <path
         inkscape:connector-curvature="0"
         id="path4207"
         d="m 17.391124,1014.2563 a 2.253732,1.6526258 5.3305994 0 0 1.422425,-1.3674"
         style="fill:none;stroke:#000000;stroke-width:0.70605633;stroke-linecap:round;stroke-linejoin:miter;stroke-miterlimit:4;stroke-dasharray:none" />
      <path
         inkscape:connector-curvature="0"
         id="path4209"
         d="m 18.813549,1012.8889 a 2.253732,1.6526258 5.3305994 0 0 -0.272834,-0.9225"
         style="fill:none;stroke:#000000;stroke-width:0.70605633;stroke-linecap:round;stroke-linejoin:miter;stroke-miterlimit:4;stroke-dasharray:none" />
      <path
         inkscape:connector-curvature="0"
         id="path4211"
         d="m 17.391124,1014.2563 a 1.0364173,0.75998886 5.3305994 0 0 -0.654094,0.629"
         style="fill:none;stroke:#000000;stroke-width:0.70605633;stroke-linecap:round;stroke-linejoin:miter;stroke-miterlimit:4;stroke-dasharray:none" />
      <path
         inkscape:connector-curvature="0"
         id="path4213"
         d="m 16.73703,1014.8853 a 1.0364173,0.75998886 5.3305994 0 0 1.010409,0.8567"
         style="fill:none;stroke:#000000;stroke-width:0.70605633;stroke-linecap:round;stroke-linejoin:miter;stroke-miterlimit:4;stroke-dasharray:none" />
      <path
         inkscape:connector-curvature="0"
         id="path4215"
         d="m 19.92466,1017.738 a 2.253732,1.6526258 5.3305994 0 0 0.02126,-0.1332"
         style="fill:none;stroke:#000000;stroke-width:0.70605633;stroke-linecap:round;stroke-linejoin:miter;stroke-miterlimit:4;stroke-dasharray:none" />
      <path
         inkscape:connector-curvature="0"
         id="path4217"
         d="m 19.944467,1017.6048 a 2.253732,1.6526258 5.3305994 0 0 -2.197028,-1.8628"
         style="fill:none;stroke:#000000;stroke-width:0.70605633;stroke-linecap:round;stroke-linejoin:miter;stroke-miterlimit:4;stroke-dasharray:none" />
      <path
         inkscape:connector-curvature="0"
         id="path4219"
         d="m 19.92466,1017.738 a 1.0364173,0.75998886 5.3305994 0 0 -0.01063,0.061"
         style="fill:none;stroke:#000000;stroke-width:0.70605633;stroke-linecap:round;stroke-linejoin:miter;stroke-miterlimit:4;stroke-dasharray:none" />
      <path
         inkscape:connector-curvature="0"
         id="path4221"
         d="m 19.915482,1017.7992 a 1.0364173,0.75998886 5.3305994 0 0 1.916717,0.5286"
         style="fill:none;stroke:#000000;stroke-width:0.70605633;stroke-linecap:round;stroke-linejoin:miter;stroke-miterlimit:4;stroke-dasharray:none" />
      <path
         inkscape:connector-curvature="0"
         id="path4223"
         d="m 25.158939,1018.0338 a 2.253732,1.6526258 5.3305994 0 0 -3.32674,0.2941"
         style="fill:none;stroke:#000000;stroke-width:0.70605633;stroke-linecap:round;stroke-linejoin:miter;stroke-miterlimit:4;stroke-dasharray:none" />
      <path
         inkscape:connector-curvature="0"
         id="path4225"
         d="m 25.158939,1018.0338 a 1.0364173,0.75998886 5.3305994 0 0 1.676764,-0.4713"
         style="fill:none;stroke:#000000;stroke-width:0.70605633;stroke-linecap:round;stroke-linejoin:miter;stroke-miterlimit:4;stroke-dasharray:none" />
      <path
         inkscape:connector-curvature="0"
         id="path4227"
         d="m 26.835703,1017.5625 a 1.0364173,0.75998886 5.3305994 0 0 -0.125433,-0.4243"
         style="fill:none;stroke:#000000;stroke-width:0.70605633;stroke-linecap:round;stroke-linejoin:miter;stroke-miterlimit:4;stroke-dasharray:none" />
      <path
         inkscape:connector-curvature="0"
         id="path4229"
         d="m 27.859577,1014.8479 a 2.253732,1.6526258 5.3305994 0 0 -1.422602,1.3676"
         style="fill:none;stroke:#000000;stroke-width:0.70605633;stroke-linecap:round;stroke-linejoin:miter;stroke-miterlimit:4;stroke-dasharray:none" />
      <path
         inkscape:connector-curvature="0"
         id="path4231"
         d="m 26.436975,1016.2155 a 2.253732,1.6526258 5.3305994 0 0 0.273189,0.9227"
         style="fill:none;stroke:#000000;stroke-width:0.70605633;stroke-linecap:round;stroke-linejoin:miter;stroke-miterlimit:4;stroke-dasharray:none" />
      <path
         inkscape:connector-curvature="0"
         id="path4233"
         d="m 27.859577,1014.8479 a 1.0364173,0.75998886 5.3305994 0 0 0.653988,-0.6286"
         style="fill:none;stroke:#000000;stroke-width:0.70605633;stroke-linecap:round;stroke-linejoin:miter;stroke-miterlimit:4;stroke-dasharray:none" />
      <path
         inkscape:connector-curvature="0"
         id="path4235"
         d="m 28.513565,1014.2193 a 1.0364173,0.75998886 5.3305994 0 0 -1.010197,-0.8568"
         style="fill:none;stroke:#000000;stroke-width:0.70605633;stroke-linecap:round;stroke-linejoin:miter;stroke-miterlimit:4;stroke-dasharray:none" />
      <path
         inkscape:connector-curvature="0"
         id="path4237"
         d="m 25.326077,1011.3665 a 2.253732,1.6526258 5.3305994 0 0 -0.02126,0.1329"
         style="fill:none;stroke:#000000;stroke-width:0.70605633;stroke-linecap:round;stroke-linejoin:miter;stroke-miterlimit:4;stroke-dasharray:none" />
      <path
         inkscape:connector-curvature="0"
         id="path4239"
         d="m 25.306199,1011.4995 a 2.253732,1.6526258 5.3305994 0 0 2.197169,1.863"
         style="fill:none;stroke:#000000;stroke-width:0.70605633;stroke-linecap:round;stroke-linejoin:miter;stroke-miterlimit:4;stroke-dasharray:none" />
      <path
         inkscape:connector-curvature="0"
         id="path4241"
         d="m 19.759612,1014.6306 q -0.216141,-0.2349 -0.510165,-0.3433 -0.194528,-0.07 -0.39189,-0.063 -0.07547,0 -0.170787,0.021"
         style="fill:none;stroke:#000000;stroke-width:0.70605633;stroke-linecap:round;stroke-linejoin:miter;stroke-miterlimit:4;stroke-dasharray:none" />
      <path
         inkscape:connector-curvature="0"
         id="path4243"
         d="m 23.086353,1014.3366 c -0.09957,0.1697 -0.217914,0.3256 -0.355288,0.4678 -0.207283,0.2165 -0.450638,0.3808 -0.729886,0.4929 -0.126141,0.052 -0.282401,0.089 -0.46885,0.1112 -0.42215,0.042 -0.851917,-0.085 -1.213654,-0.3114 -0.222519,-0.1432 -0.408968,-0.2984 -0.559063,-0.4665"
         style="fill:none;stroke:#000000;stroke-width:0.70605633;stroke-linecap:round;stroke-linejoin:miter;stroke-miterlimit:4;stroke-dasharray:none" />
      <path
         inkscape:connector-curvature="0"
         id="path4245"
         d="m 25.009022,1014.6829 c -0.0071,-0.1162 -0.02835,-0.2278 -0.07335,-0.3348 -0.04996,-0.1219 -0.123307,-0.2289 -0.219685,-0.3218 -0.07937,-0.074 -0.194173,-0.1605 -0.374456,-0.2165 -0.203032,-0.059 -0.407587,-0.057 -0.61324,0.01 -0.133938,0.043 -0.255119,0.1085 -0.363544,0.196 -0.119764,0.1 -0.212598,0.2073 -0.278149,0.3228"
         style="fill:none;stroke:#000000;stroke-width:0.70605633;stroke-linecap:round;stroke-linejoin:miter;stroke-miterlimit:4;stroke-dasharray:none" />
      <path
         inkscape:connector-curvature="0"
         id="path4247"
         d="m 26.363841,1017.0003 c -0.190276,-0.014 -0.369709,-0.06 -0.538406,-0.1347 -0.102401,-0.041 -0.220748,-0.118 -0.355641,-0.2324 -0.278859,-0.2505 -0.446812,-0.6246 -0.494859,-1.0203 -0.02126,-0.1768 -0.02126,-0.3419 -0.0071,-0.4955"
         style="fill:none;stroke:#000000;stroke-width:0.70605633;stroke-linecap:round;stroke-linejoin:miter;stroke-miterlimit:4;stroke-dasharray:none" />
      <path
         inkscape:connector-curvature="0"
         id="path4249"
         d="m 24.968416,1015.1175 0.0248,-0.191"
         style="fill:none;stroke:#000000;stroke-width:0.70605633;stroke-linecap:round;stroke-linejoin:miter;stroke-miterlimit:4;stroke-dasharray:none" />
    </g>
  </g>
</svg>
