<?xml version="1.0" encoding="UTF-8"?>
<!-- Created with Inkscape (http://www.inkscape.org/) -->
<svg width="48" height="48" version="1.1" viewBox="0 0 12.7 12.7" xml:space="preserve" xmlns="http://www.w3.org/2000/svg"><g><g transform="matrix(1.01 0 0 1.01 .01084 -.09815)" stroke="#000000" stroke-linecap="round" stroke-linejoin="round" stroke-width=".2623"><path d="m12.12 4.115-0.2605 0.704-7.357 7.082-0.7475 0.2514s-0.3695-0.03405-1.005-0.5646c-0.6357-0.5305-0.8844-0.8116-0.8844-0.8116l0.6248-0.6213-0.1186-0.1163-0.6253 0.6108s-0.6532-0.6965-0.9617-1.144c-0.4488-0.6508-0.365-0.8714-0.365-0.8714l0.2537-0.6736 7.342-7.069 0.779-0.2705s0.2133-0.1469 1.164 0.6734c0.8441 0.7282 1.069 1.007 1.603 1.669 0.7367 0.9124 0.5581 1.151 0.5581 1.151z" fill="#ffaf00"/><path d="m2.167 10.24s-0.7904-0.8066-1.205-1.482c-0.4146-0.6755-0.2902-0.7943-0.2902-0.7943" fill="none"/><path d="m2.298 10.35s0.4349 0.4825 1.045 0.982c0.9581 0.7849 1.158 0.5744 1.158 0.5744" fill="none"/><path d="m12.12 4.115s-0.155 0.1677-0.6592-0.1661c-0.5042-0.3338-1.335-1.134-1.335-1.134l0.0614-0.0722s0.4199 0.4592 0.9903 0.8782c0.5704 0.419 0.6528 0.3107 0.6931 0.2837 0.04034-0.02694 0.05075-0.1471-0.08528-0.4185-0.136-0.2714-0.5699-0.7891-0.9113-1.172-0.3414-0.383-0.9164-0.9438-1.354-1.236-0.4377-0.2922-0.5078-0.2362-0.5555-0.2029s-0.01569 0.2449 0.06589 0.4061c0.08158 0.1612 0.4554 0.6633 0.6345 0.8688s0.4386 0.5008 0.4386 0.5008l-0.07527 0.05983s-0.2849-0.2646-0.7253-0.8359c-0.4405-0.5713-0.5774-0.8698-0.5967-1.043-0.01926-0.1729 0.08906-0.2105 0.08906-0.2105" fill="none"/><path d="m10.12 2.816-7.635 7.34" fill="none"/><path d="m2.37 10.04 7.656-7.328" fill="none"/><path d="m11.86 4.819s-0.1202 0.1154-0.4423-0.05516c-0.3221-0.1706-1.031-0.7515-1.282-0.9719-0.251-0.2204-0.5039-0.5018-0.5039-0.5018" fill="none"/><path d="m9.519 3.197s-0.3572-0.3572-0.7134-0.8232c-0.3562-0.466-0.6586-0.9251-0.7151-1.059-0.1433-0.3403-0.07643-0.4213-0.07643-0.4213" fill="none"/></g></g></svg>
