<?xml version="1.0" encoding="UTF-8"?>
<!-- Created with Inkscape (http://www.inkscape.org/) -->
<svg width="48" height="48" version="1.1" viewBox="0 0 12.7 12.7" xml:space="preserve" xmlns="http://www.w3.org/2000/svg"><g><g transform="matrix(1.066 0 0 1.066 -.7405 -.2282)" fill="#ffaf00" stroke="#000000" stroke-linecap="round" stroke-linejoin="round" stroke-width=".2482"><path d="m3.481 11.54 4.859-4.859c0.2837-0.2837 0.7125-0.6 1.408-0.6264 0.6953-0.02641 1.249-0.2407 1.702-0.6934 0.4527-0.4527 0.8201-1.048 0.8201-1.877s-0.2889-1.457-0.6378-1.806c-0.3489-0.3489-0.9467-0.8826-2.017-0.8826s-1.637 0.5716-1.991 0.925c-0.3535 0.3535-0.6124 1.084-0.6124 1.59 0 0.5058-0.2534 1.043-0.626 1.415l-5.352 5.352v0.6762l0.2793 0.2793h0.6513l5.369-5.369c0.2746-0.2746 0.5348-0.6143 0.7235-1.011 0.18-0.3785 0.2948-0.809 0.2948-1.284 0-0.4145 0.1989-0.6358 0.364-0.8009 0.3109-0.3109 0.5988-0.4173 0.963-0.4173 0.5258 0 0.7663 0.2486 1.052 0.5724 0.166 0.1884 0.1987 0.5775 0.1987 0.7571 0 0.1796-0.06831 0.536-0.4153 0.8891-0.1662 0.1692-0.4892 0.3509-0.7977 0.3509-0.3085 0-0.9831 0.1295-1.399 0.3696-0.416 0.2402-0.6775 0.4261-0.9066 0.6552l-4.872 4.872v0.6647l0.2659 0.2659z"/><path d="m2.538 10.62 0.9428 0.9228"/><path d="m1.033 10.08 0.9306 0.9555"/></g></g></svg>
