<?xml version="1.0" encoding="UTF-8" standalone="no"?>
<!-- Created with Inkscape (http://www.inkscape.org/) -->

<svg
   xmlns:dc="http://purl.org/dc/elements/1.1/"
   xmlns:cc="http://creativecommons.org/ns#"
   xmlns:rdf="http://www.w3.org/1999/02/22-rdf-syntax-ns#"
   xmlns:svg="http://www.w3.org/2000/svg"
   xmlns="http://www.w3.org/2000/svg"
   xmlns:sodipodi="http://sodipodi.sourceforge.net/DTD/sodipodi-0.dtd"
   xmlns:inkscape="http://www.inkscape.org/namespaces/inkscape"
   width="48"
   height="48"
   viewBox="0 0 48.000001 48.000001"
   id="svg15825"
   version="1.1"
   inkscape:version="0.91 r13725"
   sodipodi:docname="ISO1207.svg">
  <defs
     id="defs15827" />
  <sodipodi:namedview
     id="base"
     pagecolor="#ffffff"
     bordercolor="#666666"
     borderopacity="1.0"
     inkscape:pageopacity="0.0"
     inkscape:pageshadow="2"
     inkscape:zoom="12.625"
     inkscape:cx="24"
     inkscape:cy="24"
     inkscape:document-units="px"
     inkscape:current-layer="layer1"
     showgrid="false"
     units="px"
     inkscape:window-width="1260"
     inkscape:window-height="787"
     inkscape:window-x="0"
     inkscape:window-y="0"
     inkscape:window-maximized="0" />
  <metadata
     id="metadata15830">
    <rdf:RDF>
      <cc:Work
         rdf:about="">
        <dc:format>image/svg+xml</dc:format>
        <dc:type
           rdf:resource="http://purl.org/dc/dcmitype/StillImage" />
        <dc:title></dc:title>
      </cc:Work>
    </rdf:RDF>
  </metadata>
  <g
     inkscape:label="Layer 1"
     inkscape:groupmode="layer"
     id="layer1"
     transform="translate(0,-1004.3622)">
    <g
       transform="matrix(3.8879218,0,0,3.8879217,-639.92859,416.47829)"
       id="g15287">
      <path
         sodipodi:nodetypes="cssccsc"
         inkscape:connector-curvature="0"
         id="path15280"
         d="m 174.71659,155.32098 c 1e-5,1.80518 -1.78622,3.26958 -3.99254,3.27321 -2.20632,0.004 -3.99972,-1.45488 -4.0086,-3.26004 -0.004,-0.90258 0.55447,-1.896 1.2739,-2.49058 0.27242,0.31371 0.96322,0.24707 1.00369,-0.50241 0.4769,-0.16757 1.14725,-0.29061 1.69882,-0.29333 2.20628,-0.0109 4.00685,1.4417 4.0246,3.24682"
         style="opacity:1;fill:#ffaa00;fill-opacity:0.94117647;fill-rule:evenodd;stroke:none;stroke-width:1;stroke-linecap:round;stroke-linejoin:round;stroke-miterlimit:4;stroke-dasharray:none;stroke-dashoffset:0;stroke-opacity:1" />
      <path
         sodipodi:nodetypes="cccccccccccccc"
         transform="scale(0.28222222,0.28222223)"
         inkscape:connector-curvature="0"
         id="path15282"
         d="m 590.29724,552.55442 c -0.84553,2.69429 -0.76655,5.75972 0.56097,8.30001 1.72284,3.37495 4.99433,5.77442 8.52573,6.99866 2.9276,1.05103 6.12877,1.19615 9.17207,0.62138 4.05773,-0.84086 7.93406,-3.24643 9.93641,-6.95054 1.11133,-2.04209 1.40565,-4.45379 1.06315,-6.73146 -0.189,-0.64815 -1.05441,-0.40315 -1.18235,0.15807 -0.73614,1.58447 -1.88425,2.94209 -3.15242,4.1137 -1.83583,-2.03542 -4.21039,-0.26916 -4.39939,2.4164 -2.84767,0.91596 -5.93067,1.14906 -8.8633,0.49741 -4.02403,-0.84831 -7.85581,-3.26484 -9.87,-6.91566 -0.49457,-0.82819 -0.61646,-1.82833 -1.15965,-2.60925 -0.25616,-0.0914 -0.41533,-0.0618 -0.63125,0.10128 z"
         style="opacity:1;fill:#ffaa00;fill-opacity:0.94117647;fill-rule:evenodd;stroke:none;stroke-width:1;stroke-linecap:round;stroke-linejoin:round;stroke-miterlimit:4;stroke-dasharray:none;stroke-dashoffset:0;stroke-opacity:1" />
      <path
         transform="scale(0.28222222,0.28222223)"
         inkscape:connector-curvature="0"
         id="path15284"
         d="m 595.38445,566.62403 c -0.19666,1.04464 -0.10537,2.16767 0.0981,3.21683 0.60836,2.52388 2.74892,4.37189 5.10291,5.26802 2.35388,0.9863 5.10472,0.91972 7.46269,-0.0131 2.19128,-0.88571 4.15229,-2.67051 4.66308,-5.05078 0.16512,-0.8203 0.29541,-1.71328 0.0598,-2.52071 -0.61201,-0.44614 -1.25937,0.30094 -1.8972,0.39391 -1.64269,0.57129 -3.35667,0.99845 -5.10991,0.90543 -1.78667,0.0417 -3.59798,0.0223 -5.3158,-0.53525 -1.59585,-0.39428 -3.05292,-1.19585 -4.54661,-1.83106 -0.22116,-0.0846 -0.34596,0.0487 -0.51698,0.16672 z"
         style="opacity:1;fill:#ffaa00;fill-opacity:0.94117647;fill-rule:evenodd;stroke:none;stroke-width:1;stroke-linecap:round;stroke-linejoin:round;stroke-miterlimit:4;stroke-dasharray:none;stroke-dashoffset:0;stroke-opacity:1" />
      <g
         id="g14191">
        <path
           style="fill:none;stroke:#000000;stroke-width:0.28222224;stroke-linecap:round;stroke-linejoin:round;stroke-miterlimit:4;stroke-dasharray:none"
           d="m 166.84436,154.70138 a 3.99476,3.31257 3.5595999 0 0 5.71686,3.6703"
           id="path10693"
           inkscape:connector-curvature="0" />
        <path
           style="fill:none;stroke:#000000;stroke-width:0.28222224;stroke-linecap:round;stroke-linejoin:round;stroke-miterlimit:4;stroke-dasharray:none"
           d="m 168.20728,153.03923 a 3.59628,2.98214 3.5595999 0 0 4.13082,4.85159"
           id="path10697"
           inkscape:connector-curvature="0" />
        <path
           style="fill:none;stroke:#000000;stroke-width:0.28222224;stroke-linecap:round;stroke-linejoin:round;stroke-miterlimit:4;stroke-dasharray:none"
           id="53"
           d="m 167.99763,159.7005 -0.006,0.59374"
           inkscape:connector-curvature="0"
           sodipodi:nodetypes="cc" />
        <path
           style="fill:none;stroke:#000000;stroke-width:0.28222224;stroke-linecap:round;stroke-linejoin:round;stroke-miterlimit:4;stroke-dasharray:none"
           id="54"
           d="m 172.98793,160.01095 -0.006,0.59374"
           inkscape:connector-curvature="0"
           sodipodi:nodetypes="cc" />
        <path
           style="fill:none;stroke:#000000;stroke-width:0.28222224;stroke-linecap:round;stroke-linejoin:round;stroke-miterlimit:4;stroke-dasharray:none"
           d="m 174.75131,155.19043 c -0.0466,-0.4592 -0.18869,-0.94184 -0.54466,-1.46378 -0.14292,-0.20616 -0.32017,-0.41675 -0.553,-0.62643 -0.23233,-0.20881 -0.52025,-0.4167 -0.86854,-0.59436 -0.54249,-0.28262 -1.23432,-0.46631 -1.87744,-0.49222 -0.73268,-0.0343 -1.37883,0.1044 -1.88847,0.30627"
           id="path9392"
           inkscape:connector-curvature="0" />
        <path
           style="fill:none;stroke:#000000;stroke-width:0.28222224;stroke-linecap:round;stroke-linejoin:round;stroke-miterlimit:4;stroke-dasharray:none"
           id="56"
           d="m 174.75145,155.19266 0.15241,1.62558"
           inkscape:connector-curvature="0" />
        <path
           style="fill:none;stroke:#000000;stroke-width:0.28222224;stroke-linecap:round;stroke-linejoin:round;stroke-miterlimit:4;stroke-dasharray:none"
           id="57"
           d="m 166.84436,154.70138 -0.35288,1.594"
           inkscape:connector-curvature="0" />
        <path
           style="fill:none;stroke:#000000;stroke-width:0.28222224;stroke-linecap:round;stroke-linejoin:round;stroke-miterlimit:4;stroke-dasharray:none"
           d="m 167.98386,152.91766 c -0.35404,0.28639 -0.60325,0.59193 -0.78352,0.8923 -0.17926,0.30211 -0.29066,0.59736 -0.35551,0.88884"
           id="path9396"
           inkscape:connector-curvature="0" />
        <path
           style="fill:none;stroke:#000000;stroke-width:0.28222224;stroke-linecap:round;stroke-linejoin:round;stroke-miterlimit:4;stroke-dasharray:none"
           d="m 171.94511,162.16184 c 0.61627,-0.35576 0.99784,-0.92869 1.03707,-1.55715"
           id="path10154"
           inkscape:connector-curvature="0"
           sodipodi:nodetypes="cc" />
        <path
           style="fill:none;stroke:#000000;stroke-width:0.28222224;stroke-linecap:round;stroke-linejoin:round;stroke-miterlimit:4;stroke-dasharray:none"
           d="m 167.99188,160.29424 c -0.10755,1.73469 2.2522,2.84949 3.95323,1.8676"
           id="path10156"
           inkscape:connector-curvature="0"
           sodipodi:nodetypes="cc" />
        <path
           style="fill:none;stroke:#000000;stroke-width:0.28222224;stroke-linecap:round;stroke-linejoin:round;stroke-miterlimit:4;stroke-dasharray:none"
           id="375"
           d="m 173.36062,157.30047 -4.13082,-4.85159"
           inkscape:connector-curvature="0" />
        <path
           style="fill:none;stroke:#000000;stroke-width:0.28222224;stroke-linecap:round;stroke-linejoin:round;stroke-miterlimit:4;stroke-dasharray:none"
           d="m 173.36062,157.30047 c 0.12617,0.14654 0.22322,0.36764 0.22321,0.48081"
           id="path10163"
           inkscape:connector-curvature="0" />
        <path
           style="fill:none;stroke:#000000;stroke-width:0.28222224;stroke-linecap:round;stroke-linejoin:round;stroke-miterlimit:4;stroke-dasharray:none"
           d="m 169.2298,152.44888 c -0.0847,-0.10006 -0.16775,-0.14794 -0.2106,-0.12897"
           id="path10165"
           inkscape:connector-curvature="0" />
        <path
           style="fill:none;stroke:#000000;stroke-width:0.28222224;stroke-linecap:round;stroke-linejoin:round;stroke-miterlimit:4;stroke-dasharray:none"
           d="m 169.0192,152.31991 q -0.0296,0.0125 -0.0375,0.0563"
           id="path10167"
           inkscape:connector-curvature="0" />
        <path
           style="fill:none;stroke:#000000;stroke-width:0.28222224;stroke-linecap:round;stroke-linejoin:round;stroke-miterlimit:4;stroke-dasharray:none"
           d="m 168.98172,152.37619 -0.006,0.0332 -0.006,0.0324 -0.006,0.0332 -0.006,0.0333 -0.006,0.0333 -0.006,0.0325 -0.006,0.0333 -0.006,0.0333 -0.006,0.0334 -0.006,0.0333 -0.006,0.0334 -0.006,0.0334 -0.006,0.0334 -0.005,0.0343"
           id="path10169"
           inkscape:connector-curvature="0" />
        <path
           style="fill:none;stroke:#000000;stroke-width:0.28222224;stroke-linecap:round;stroke-linejoin:round;stroke-miterlimit:4;stroke-dasharray:none"
           id="380"
           d="m 173.59924,158.35897 -4.69774,-5.51731"
           inkscape:connector-curvature="0" />
        <path
           style="fill:none;stroke:#000000;stroke-width:0.28222224;stroke-linecap:round;stroke-linejoin:round;stroke-miterlimit:4;stroke-dasharray:none"
           d="m 173.59924,158.35897 -0.001,-0.042 -8.5e-4,-0.0411 -10e-4,-0.0419 -8.5e-4,-0.0411 -0.001,-0.0419 -9.4e-4,-0.041 -0.001,-0.0419 -9.4e-4,-0.041 -10e-4,-0.041 -0.001,-0.041 -0.001,-0.041 -0.001,-0.041 -0.002,-0.0418 -6.1e-4,-0.0401"
           id="path10172"
           inkscape:connector-curvature="0" />
        <path
           style="fill:none;stroke:#000000;stroke-width:0.28222224;stroke-linecap:round;stroke-linejoin:round;stroke-miterlimit:4;stroke-dasharray:none"
           d="m 173.59924,158.35897 a 4.07606,3.37999 3.5599999 0 1 -0.48288,0.32844"
           id="path10174"
           inkscape:connector-curvature="0" />
        <path
           style="fill:none;stroke:#000000;stroke-width:0.28222224;stroke-linecap:round;stroke-linejoin:round;stroke-miterlimit:4;stroke-dasharray:none"
           d="m 173.14875,159.92271 a 4.25,3.52422 3.5595999 0 0 1.75511,-3.10447"
           id="path10176"
           inkscape:connector-curvature="0" />
        <path
           style="fill:none;stroke:#000000;stroke-width:0.28222224;stroke-linecap:round;stroke-linejoin:round;stroke-miterlimit:4;stroke-dasharray:none"
           d="m 174.90386,156.81824 a 4.25,3.52422 3.5595999 0 0 -0.19538,-0.8202"
           id="path10178"
           inkscape:connector-curvature="0" />
        <path
           style="fill:none;stroke:#000000;stroke-width:0.28222224;stroke-linecap:round;stroke-linejoin:round;stroke-miterlimit:4;stroke-dasharray:none"
           d="m 166.49148,156.29538 a 4.25,3.52422 3.5595999 0 0 6.65727,3.62733"
           id="path10182"
           inkscape:connector-curvature="0" />
        <path
           style="fill:none;stroke:#000000;stroke-width:0.28222224;stroke-linecap:round;stroke-linejoin:round;stroke-miterlimit:4;stroke-dasharray:none"
           d="m 173.11636,158.68741 a 4.07606,3.37999 3.5599999 0 1 -0.53964,0.26191"
           id="path10184"
           inkscape:connector-curvature="0" />
        <path
           style="fill:none;stroke:#000000;stroke-width:0.28222224;stroke-linecap:round;stroke-linejoin:round;stroke-miterlimit:4;stroke-dasharray:none"
           d="m 172.57672,158.94932 -0.001,-0.042 -8.5e-4,-0.0411 -0.001,-0.0419 -8.5e-4,-0.0411 -0.001,-0.0419 -9.4e-4,-0.041 -0.001,-0.0419 -9.4e-4,-0.041 -0.001,-0.041 -0.001,-0.041 -0.001,-0.041 -10e-4,-0.0409 -0.002,-0.0418 -7e-4,-0.04"
           id="path10186"
           inkscape:connector-curvature="0" />
        <path
           style="fill:none;stroke:#000000;stroke-width:0.28222224;stroke-linecap:round;stroke-linejoin:round;stroke-miterlimit:4;stroke-dasharray:none"
           d="m 168.29492,153.14222 a 4.07606,3.37999 3.5599999 0 1 0.60658,-0.30056"
           id="path10188"
           inkscape:connector-curvature="0" />
        <path
           style="fill:none;stroke:#000000;stroke-width:0.28222224;stroke-linecap:round;stroke-linejoin:round;stroke-miterlimit:4;stroke-dasharray:none"
           id="391"
           d="m 172.3381,157.89082 -4.13082,-4.85159"
           inkscape:connector-curvature="0" />
        <path
           style="fill:none;stroke:#000000;stroke-width:0.28222224;stroke-linecap:round;stroke-linejoin:round;stroke-miterlimit:4;stroke-dasharray:none"
           d="m 168.20728,153.03923 c -0.0943,-0.1118 -0.18475,-0.1566 -0.22342,-0.12157"
           id="path10192"
           inkscape:connector-curvature="0" />
        <path
           style="fill:none;stroke:#000000;stroke-width:0.28222224;stroke-linecap:round;stroke-linejoin:round;stroke-miterlimit:4;stroke-dasharray:none"
           d="m 167.98386,152.91766 q -0.0188,0.0155 -0.0247,0.0489"
           id="path10194"
           inkscape:connector-curvature="0" />
        <path
           style="fill:none;stroke:#000000;stroke-width:0.28222224;stroke-linecap:round;stroke-linejoin:round;stroke-miterlimit:4;stroke-dasharray:none"
           d="m 172.3381,157.89082 c 0.12618,0.14654 0.22323,0.36764 0.22312,0.48086"
           id="path10196"
           inkscape:connector-curvature="0" />
        <path
           style="fill:none;stroke:#000000;stroke-width:0.28222224;stroke-linecap:round;stroke-linejoin:round;stroke-miterlimit:4;stroke-dasharray:none"
           d="m 173.36062,157.30047 a 3.59628,2.98214 3.5595999 0 0 -4.13082,-4.85159"
           id="path10683"
           inkscape:connector-curvature="0" />
        <path
           style="fill:none;stroke:#000000;stroke-width:0.28222224;stroke-linecap:round;stroke-linejoin:round;stroke-miterlimit:4;stroke-dasharray:none"
           d="m 173.58383,157.78128 a 3.99476,3.31257 3.5595999 0 0 1.16762,-2.58862"
           id="path10685"
           inkscape:connector-curvature="0" />
        <path
           style="fill:none;stroke:#000000;stroke-width:0.28222224;stroke-linecap:round;stroke-linejoin:round;stroke-miterlimit:4;stroke-dasharray:none"
           d="m 174.75145,155.19266 a 3.99476,3.31257 3.5595999 0 0 -1.4e-4,-0.002"
           id="path10687"
           inkscape:connector-curvature="0" />
        <path
           style="fill:none;stroke:#000000;stroke-width:0.28222224;stroke-linecap:round;stroke-linejoin:round;stroke-miterlimit:4;stroke-dasharray:none"
           d="m 167.9592,152.96654 a 3.99476,3.31257 3.5595999 0 0 -1.11437,1.73226"
           id="path10689"
           inkscape:connector-curvature="0" />
        <path
           style="fill:none;stroke:#000000;stroke-width:0.28222224;stroke-linecap:round;stroke-linejoin:round;stroke-miterlimit:4;stroke-dasharray:none"
           d="m 166.84483,154.6988 a 3.99476,3.31257 3.5595999 0 0 -4.7e-4,0.003"
           id="path10691"
           inkscape:connector-curvature="0" />
      </g>
    </g>
  </g>
</svg>
