<?xml version="1.0" encoding="UTF-8" standalone="no"?>
<!-- Created with Inkscape (http://www.inkscape.org/) -->

<svg
   xmlns:dc="http://purl.org/dc/elements/1.1/"
   xmlns:cc="http://creativecommons.org/ns#"
   xmlns:rdf="http://www.w3.org/1999/02/22-rdf-syntax-ns#"
   xmlns:svg="http://www.w3.org/2000/svg"
   xmlns="http://www.w3.org/2000/svg"
   xmlns:sodipodi="http://sodipodi.sourceforge.net/DTD/sodipodi-0.dtd"
   xmlns:inkscape="http://www.inkscape.org/namespaces/inkscape"
   width="48"
   height="48"
   viewBox="0 0 48.000001 48.000001"
   id="svg15825"
   version="1.1"
   inkscape:version="0.91 r13725"
   sodipodi:docname="ISO1580.svg">
  <defs
     id="defs15827" />
  <sodipodi:namedview
     id="base"
     pagecolor="#ffffff"
     bordercolor="#666666"
     borderopacity="1.0"
     inkscape:pageopacity="0.0"
     inkscape:pageshadow="2"
     inkscape:zoom="12.625"
     inkscape:cx="24"
     inkscape:cy="24"
     inkscape:document-units="px"
     inkscape:current-layer="layer1"
     showgrid="false"
     units="px"
     inkscape:window-width="1260"
     inkscape:window-height="787"
     inkscape:window-x="0"
     inkscape:window-y="0"
     inkscape:window-maximized="0" />
  <metadata
     id="metadata15830">
    <rdf:RDF>
      <cc:Work
         rdf:about="">
        <dc:format>image/svg+xml</dc:format>
        <dc:type
           rdf:resource="http://purl.org/dc/dcmitype/StillImage" />
        <dc:title></dc:title>
      </cc:Work>
    </rdf:RDF>
  </metadata>
  <g
     inkscape:label="Layer 1"
     inkscape:groupmode="layer"
     id="layer1"
     transform="translate(0,-1004.3622)">
    <g
       transform="matrix(3.6628806,0,0,3.6628805,-644.54628,400.79948)"
       id="g15245">
      <path
         sodipodi:open="true"
         d="m 186.99478,169.70854 a 4.6115875,3.9278505 0 0 1 -4.60231,3.92784 4.6115875,3.9278505 0 0 1 -4.62083,-3.91204 4.6115875,3.9278505 0 0 1 4.58373,-3.94358 4.6115875,3.9278505 0 0 1 4.63926,3.89618"
         sodipodi:end="6.2751408"
         sodipodi:start="0"
         sodipodi:ry="3.9278505"
         sodipodi:rx="4.6115875"
         sodipodi:cy="169.70854"
         sodipodi:cx="182.38319"
         sodipodi:type="arc"
         id="path15239"
         style="opacity:1;fill:#ffaa00;fill-opacity:0.94117647;fill-rule:evenodd;stroke:none;stroke-width:1;stroke-linecap:round;stroke-linejoin:round;stroke-miterlimit:4;stroke-dasharray:none;stroke-dashoffset:0;stroke-opacity:1" />
      <path
         transform="scale(0.28222222,0.28222223)"
         inkscape:connector-curvature="0"
         id="path15241"
         d="m 629.4501,604.46003 c -0.32006,0.9883 0.004,2.07235 0.19659,3.06706 1.14557,4.42001 4.80298,7.79764 8.87472,9.60728 5.14924,2.3436 11.3343,2.28055 16.39232,-0.28056 2.9474,-1.45548 5.4714,-3.87518 6.88182,-6.85818 0.41304,-1.10962 0.96693,-2.28472 0.82403,-3.48469 -0.42204,-0.60261 -1.03575,0.0547 -1.16108,0.5483 -2.04066,4.0846 -6.18934,6.76288 -10.55253,7.77193 -2.17432,0.51858 -4.42632,0.48891 -6.62758,0.32159 -4.942,-0.60832 -9.75929,-3.21136 -12.51191,-7.37059 -0.68774,-0.988 -1.10258,-2.13261 -1.53515,-3.23579 -0.15127,-0.30553 -0.55186,-0.2924 -0.78123,-0.0864 z"
         style="opacity:1;fill:#ffaa00;fill-opacity:0.94117647;fill-rule:evenodd;stroke:none;stroke-width:1;stroke-linecap:round;stroke-linejoin:round;stroke-miterlimit:4;stroke-dasharray:none;stroke-dashoffset:0;stroke-opacity:1" />
      <path
         transform="scale(0.28222222,0.28222223)"
         inkscape:connector-curvature="0"
         id="path15243"
         d="m 636.6189,616.83423 c -0.18274,1.15688 -0.14325,2.38732 0.0727,3.55088 0.73024,2.933 3.52946,4.86655 6.32576,5.58464 1.76438,0.426 3.65597,0.35104 5.4023,-0.12654 2.6961,-0.77082 5.1395,-2.95612 5.56282,-5.82145 0.0522,-0.71737 0.373,-1.59264 -0.0953,-2.22405 -0.53577,-0.36812 -1.12435,0.21731 -1.6811,0.28633 -4.89291,1.4904 -10.40072,0.95827 -14.96885,-1.4119 -0.26375,-0.0659 -0.41936,-0.0212 -0.61836,0.16209 z"
         style="opacity:1;fill:#ffaa00;fill-opacity:0.94117647;fill-rule:evenodd;stroke:none;stroke-width:1;stroke-linecap:round;stroke-linejoin:round;stroke-miterlimit:4;stroke-dasharray:none;stroke-dashoffset:0;stroke-opacity:1" />
      <g
         id="g14226">
        <path
           style="fill:none;stroke:#000000;stroke-width:0.28222224;stroke-linecap:round;stroke-linejoin:round;stroke-miterlimit:4;stroke-dasharray:none"
           id="68"
           d="m 179.65568,173.96627 -0.0394,0.56364"
           inkscape:connector-curvature="0"
           sodipodi:nodetypes="cc" />
        <path
           style="fill:none;stroke:#000000;stroke-width:0.28222224;stroke-linecap:round;stroke-linejoin:round;stroke-miterlimit:4;stroke-dasharray:none"
           id="69"
           d="m 184.64606,174.23553 -0.0395,0.60482"
           inkscape:connector-curvature="0"
           sodipodi:nodetypes="cc" />
        <path
           style="fill:none;stroke:#000000;stroke-width:0.28222224;stroke-linecap:round;stroke-linejoin:round;stroke-miterlimit:4;stroke-dasharray:none"
           d="m 186.98779,169.59042 c -0.0508,-0.51683 -0.20407,-1.05305 -0.53809,-1.6096 -0.19212,-0.31516 -0.44175,-0.63754 -0.7905,-0.95118 -0.34808,-0.31289 -0.79485,-0.61612 -1.34587,-0.84532 -0.32369,-0.13644 -0.68388,-0.24371 -1.04647,-0.31034 -0.36318,-0.0674 -0.72859,-0.0943 -1.07599,-0.0855 -0.69854,0.0165 -1.31441,0.16998 -1.81539,0.37724"
           id="path9412"
           inkscape:connector-curvature="0" />
        <path
           style="fill:none;stroke:#000000;stroke-width:0.28222224;stroke-linecap:round;stroke-linejoin:round;stroke-miterlimit:4;stroke-dasharray:none"
           d="m 177.8574,169.02253 c 0.0826,-0.3687 0.22341,-0.74444 0.45316,-1.1265 0.23032,-0.38008 0.55001,-0.76557 0.99988,-1.11537"
           id="path9414"
           inkscape:connector-curvature="0" />
        <path
           style="fill:none;stroke:#000000;stroke-width:0.28222224;stroke-linecap:round;stroke-linejoin:round;stroke-miterlimit:4;stroke-dasharray:none"
           id="72"
           d="m 186.98993,169.61113 0.0795,0.90327"
           inkscape:connector-curvature="0" />
        <path
           style="fill:none;stroke:#000000;stroke-width:0.28222224;stroke-linecap:round;stroke-linejoin:round;stroke-miterlimit:4;stroke-dasharray:none"
           id="73"
           d="m 177.85313,169.04232 -0.19117,0.88749"
           inkscape:connector-curvature="0" />
        <path
           style="fill:none;stroke:#000000;stroke-width:0.28222224;stroke-linecap:round;stroke-linejoin:round;stroke-miterlimit:4;stroke-dasharray:none"
           d="m 183.57004,176.39837 c 0.61636,-0.35602 0.99777,-0.92931 1.03656,-1.55802"
           id="path10316"
           inkscape:connector-curvature="0"
           sodipodi:nodetypes="cc" />
        <path
           style="fill:none;stroke:#000000;stroke-width:0.28222224;stroke-linecap:round;stroke-linejoin:round;stroke-miterlimit:4;stroke-dasharray:none"
           d="m 179.61631,174.52991 c -0.1088,1.73545 2.25223,2.85123 3.95373,1.86846"
           id="path10318"
           inkscape:connector-curvature="0"
           sodipodi:nodetypes="cc" />
        <path
           style="fill:none;stroke:#000000;stroke-width:0.28222224;stroke-linecap:round;stroke-linejoin:round;stroke-miterlimit:4;stroke-dasharray:none"
           id="472"
           d="m 184.73241,170.83599 -3.56331,-4.18504"
           inkscape:connector-curvature="0" />
        <path
           style="fill:none;stroke:#000000;stroke-width:0.28222224;stroke-linecap:round;stroke-linejoin:round;stroke-miterlimit:4;stroke-dasharray:none"
           d="m 184.73241,170.83599 c 0.19504,0.22802 0.39121,0.52699 0.53918,0.82608 0.1572,0.31569 0.2597,0.62602 0.28862,0.86451"
           id="path10323"
           inkscape:connector-curvature="0" />
        <path
           style="fill:none;stroke:#000000;stroke-width:0.28222224;stroke-linecap:round;stroke-linejoin:round;stroke-miterlimit:4;stroke-dasharray:none"
           d="m 185.56021,172.52658 q -0.0969,0.0756 -0.2355,0.1683 -0.12188,0.0819 -0.25065,0.15626"
           id="path10325"
           inkscape:connector-curvature="0" />
        <path
           style="fill:none;stroke:#000000;stroke-width:0.28222224;stroke-linecap:round;stroke-linejoin:round;stroke-miterlimit:4;stroke-dasharray:none"
           d="m 185.08273,172.96276 a 4.61306,3.82528 3.5595999 0 0 1.9072,-3.35163"
           id="path10327"
           inkscape:connector-curvature="0" />
        <path
           style="fill:none;stroke:#000000;stroke-width:0.28222224;stroke-linecap:round;stroke-linejoin:round;stroke-miterlimit:4;stroke-dasharray:none"
           d="m 186.98993,169.61113 a 4.61306,3.82528 3.5595999 0 0 -0.002,-0.0207"
           id="path10329"
           inkscape:connector-curvature="0" />
        <path
           style="fill:none;stroke:#000000;stroke-width:0.28222224;stroke-linecap:round;stroke-linejoin:round;stroke-miterlimit:4;stroke-dasharray:none"
           d="m 177.8574,169.02253 a 4.61306,3.82528 3.5595999 0 0 -0.004,0.0198"
           id="path10331"
           inkscape:connector-curvature="0" />
        <path
           style="fill:none;stroke:#000000;stroke-width:0.28222224;stroke-linecap:round;stroke-linejoin:round;stroke-miterlimit:4;stroke-dasharray:none"
           d="m 177.85313,169.04232 a 4.61306,3.82528 3.5595999 0 0 7.2296,3.92044"
           id="path10333"
           inkscape:connector-curvature="0" />
        <path
           style="fill:none;stroke:#000000;stroke-width:0.28222224;stroke-linecap:round;stroke-linejoin:round;stroke-miterlimit:4;stroke-dasharray:none"
           d="m 185.07406,172.85114 q -0.12869,0.0743 -0.26369,0.14069 -0.15333,0.0758 -0.27268,0.1251"
           id="path10335"
           inkscape:connector-curvature="0" />
        <path
           style="fill:none;stroke:#000000;stroke-width:0.28222224;stroke-linecap:round;stroke-linejoin:round;stroke-miterlimit:4;stroke-dasharray:none"
           d="m 183.70989,171.42634 c 0.19505,0.22802 0.39121,0.52699 0.53918,0.82608 0.15721,0.31569 0.2597,0.62602 0.28862,0.86451"
           id="path10337"
           inkscape:connector-curvature="0" />
        <path
           style="fill:none;stroke:#000000;stroke-width:0.28222224;stroke-linecap:round;stroke-linejoin:round;stroke-miterlimit:4;stroke-dasharray:none"
           d="m 180.14658,167.2413 c -0.16912,-0.19912 -0.34572,-0.35581 -0.49473,-0.4349 -0.14816,-0.0784 -0.26183,-0.0867 -0.34141,-0.0257"
           id="path10339"
           inkscape:connector-curvature="0" />
        <path
           style="fill:none;stroke:#000000;stroke-width:0.28222224;stroke-linecap:round;stroke-linejoin:round;stroke-miterlimit:4;stroke-dasharray:none"
           d="m 179.44045,166.74024 c 0.15518,-0.10461 0.32273,-0.20481 0.49572,-0.29198 0.0493,-0.0238 0.0981,-0.0485 0.14736,-0.0724 0.0654,-0.0297 0.12356,-0.0552 0.17452,-0.0765"
           id="path10341"
           inkscape:connector-curvature="0" />
        <path
           style="fill:none;stroke:#000000;stroke-width:0.28222224;stroke-linecap:round;stroke-linejoin:round;stroke-miterlimit:4;stroke-dasharray:none"
           d="m 181.1691,166.65095 c -0.15659,-0.18441 -0.31894,-0.33201 -0.46024,-0.41555 -0.13774,-0.081 -0.24901,-0.1045 -0.33338,-0.0696"
           id="path10343"
           inkscape:connector-curvature="0" />
        <path
           style="fill:none;stroke:#000000;stroke-width:0.28222224;stroke-linecap:round;stroke-linejoin:round;stroke-miterlimit:4;stroke-dasharray:none"
           d="m 180.37548,166.16576 q -0.0802,0.0336 -0.11743,0.13361"
           id="path10345"
           inkscape:connector-curvature="0" />
        <path
           style="fill:none;stroke:#000000;stroke-width:0.28222224;stroke-linecap:round;stroke-linejoin:round;stroke-miterlimit:4;stroke-dasharray:none"
           id="485"
           d="m 185.56021,172.52658 -5.30216,-6.22721"
           inkscape:connector-curvature="0" />
        <path
           style="fill:none;stroke:#000000;stroke-width:0.28222224;stroke-linecap:round;stroke-linejoin:round;stroke-miterlimit:4;stroke-dasharray:none"
           d="m 185.10574,173.96561 a 4.75,3.93883 3.5595999 0 0 1.96367,-3.45121"
           id="path10348"
           inkscape:connector-curvature="0" />
        <path
           style="fill:none;stroke:#000000;stroke-width:0.28222224;stroke-linecap:round;stroke-linejoin:round;stroke-miterlimit:4;stroke-dasharray:none"
           d="m 187.06941,170.5144 a 4.75,3.93883 3.5595999 0 0 -0.072,-0.45383"
           id="path10350"
           inkscape:connector-curvature="0" />
        <path
           style="fill:none;stroke:#000000;stroke-width:0.28222224;stroke-linecap:round;stroke-linejoin:round;stroke-miterlimit:4;stroke-dasharray:none"
           d="m 177.78946,169.48784 a 4.75,3.93883 3.5595999 0 0 -0.1275,0.44197"
           id="path10352"
           inkscape:connector-curvature="0" />
        <path
           style="fill:none;stroke:#000000;stroke-width:0.28222224;stroke-linecap:round;stroke-linejoin:round;stroke-miterlimit:4;stroke-dasharray:none"
           d="m 177.66196,169.92981 a 4.75,3.93883 3.5595999 0 0 7.44378,4.0358"
           id="path10354"
           inkscape:connector-curvature="0" />
        <path
           style="fill:none;stroke:#000000;stroke-width:0.28222224;stroke-linecap:round;stroke-linejoin:round;stroke-miterlimit:4;stroke-dasharray:none"
           id="490"
           d="m 183.70989,171.42634 -3.56331,-4.18504"
           inkscape:connector-curvature="0" />
        <path
           style="fill:none;stroke:#000000;stroke-width:0.28222224;stroke-linecap:round;stroke-linejoin:round;stroke-miterlimit:4;stroke-dasharray:none"
           d="m 184.73241,170.83599 a 3.11877,2.58617 3.5595999 0 0 -3.56331,-4.18504"
           id="path10715"
           inkscape:connector-curvature="0" />
        <path
           style="fill:none;stroke:#000000;stroke-width:0.28222224;stroke-linecap:round;stroke-linejoin:round;stroke-miterlimit:4;stroke-dasharray:none"
           d="m 180.14658,167.2413 a 3.11877,2.58617 3.5595999 0 0 3.56331,4.18504"
           id="path10717"
           inkscape:connector-curvature="0" />
      </g>
    </g>
  </g>
</svg>
