<?xml version="1.0" encoding="UTF-8" standalone="no"?>
<!-- Created with Inkscape (http://www.inkscape.org/) -->

<svg
   xmlns:dc="http://purl.org/dc/elements/1.1/"
   xmlns:cc="http://creativecommons.org/ns#"
   xmlns:rdf="http://www.w3.org/1999/02/22-rdf-syntax-ns#"
   xmlns:svg="http://www.w3.org/2000/svg"
   xmlns="http://www.w3.org/2000/svg"
   xmlns:sodipodi="http://sodipodi.sourceforge.net/DTD/sodipodi-0.dtd"
   xmlns:inkscape="http://www.inkscape.org/namespaces/inkscape"
   width="48"
   height="48"
   viewBox="0 0 48.000001 48.000001"
   id="svg15825"
   version="1.1"
   inkscape:version="0.91 r13725"
   sodipodi:docname="ISO2010.svg">
  <defs
     id="defs15827" />
  <sodipodi:namedview
     id="base"
     pagecolor="#ffffff"
     bordercolor="#666666"
     borderopacity="1.0"
     inkscape:pageopacity="0.0"
     inkscape:pageshadow="2"
     inkscape:zoom="12.625"
     inkscape:cx="24"
     inkscape:cy="24"
     inkscape:document-units="px"
     inkscape:current-layer="layer1"
     showgrid="false"
     units="px"
     inkscape:window-width="1260"
     inkscape:window-height="787"
     inkscape:window-x="0"
     inkscape:window-y="0"
     inkscape:window-maximized="0" />
  <metadata
     id="metadata15830">
    <rdf:RDF>
      <cc:Work
         rdf:about="">
        <dc:format>image/svg+xml</dc:format>
        <dc:type
           rdf:resource="http://purl.org/dc/dcmitype/StillImage" />
        <dc:title></dc:title>
      </cc:Work>
    </rdf:RDF>
  </metadata>
  <g
     inkscape:label="Layer 1"
     inkscape:groupmode="layer"
     id="layer1"
     transform="translate(0,-1004.3622)">
    <g
       transform="matrix(3.8961866,0,0,3.8961865,-595.7721,464.52645)"
       id="g15338">
      <path
         transform="scale(0.28222222,0.28222223)"
         inkscape:connector-curvature="0"
         id="path15326"
         d="m 562.6584,494.35107 c -1.94201,-0.0163 -3.88525,0.335 -5.72026,0.95543 -0.61233,0.32625 -0.19819,1.06919 0.28129,1.28322 4.13401,3.0424 7.56859,6.91195 10.70901,10.97258 2.34081,3.03373 4.40036,6.27119 6.38734,9.54116 0.55598,0.5883 1.26457,-0.0987 1.64053,-0.53932 2.21857,-2.23892 3.723,-5.30619 3.62951,-8.50389 0.12957,-4.25968 -2.51408,-8.16767 -5.94578,-10.49094 -3.04518,-2.07784 -6.71399,-3.27388 -10.4124,-3.21581 -0.18973,-0.003 -0.37949,-0.003 -0.56924,-0.002 z"
         style="opacity:1;fill:#ffaa00;fill-opacity:0.94117647;fill-rule:evenodd;stroke:none;stroke-width:1;stroke-linecap:round;stroke-linejoin:round;stroke-miterlimit:4;stroke-dasharray:none;stroke-dashoffset:0;stroke-opacity:1" />
      <path
         sodipodi:nodetypes="ccccccccccc"
         transform="scale(0.28222222,0.28222223)"
         inkscape:connector-curvature="0"
         id="path15328"
         d="m 556.15568,496.2734 c -0.68103,0.39146 -0.075,1.16271 0.1039,1.67506 1.20366,1.90218 -2.66273,0.32613 -1.25665,2.07737 4.38079,5.16101 11.7533,14.65047 16.16106,19.78846 0.55956,0.50925 3.59475,-1.44869 3.32234,-1.9775 -1.16042,-2.39288 -2.72042,-4.57121 -4.17588,-6.79127 -3.4931,-5.0822 -7.51283,-9.87373 -12.33433,-13.74864 -0.5504,-0.33565 -1.02025,-0.96073 -1.67906,-1.03924 l -0.10246,0.0114 -0.0389,0.004 z"
         style="opacity:1;fill:#ffaa00;fill-opacity:0.94117647;fill-rule:evenodd;stroke:none;stroke-width:1;stroke-linecap:round;stroke-linejoin:round;stroke-miterlimit:4;stroke-dasharray:none;stroke-dashoffset:0;stroke-opacity:1" />
      <path
         inkscape:connector-curvature="0"
         id="path15334"
         d="m 155.73238,140.57077 c -0.51741,0.50349 -0.98275,1.09917 -1.17491,1.82169 -0.23076,0.81271 -0.15504,1.71589 0.2159,2.47189 0.63718,1.29792 1.94307,2.12107 3.28769,2.40634 0.93413,0.20713 1.91708,0.11501 2.81753,-0.20354 0.16191,-0.0385 0.20602,-0.23866 0.0988,-0.36225 -0.98763,-1.76609 -2.16137,-3.43165 -3.55923,-4.87165 -0.47367,-0.47329 -0.97177,-0.93575 -1.53436,-1.28811 -0.0581,-0.0343 -0.0986,-0.001 -0.15138,0.0256 z"
         style="opacity:1;fill:#ffaa00;fill-opacity:0.94117647;fill-rule:evenodd;stroke:none;stroke-width:1;stroke-linecap:round;stroke-linejoin:round;stroke-miterlimit:4;stroke-dasharray:none;stroke-dashoffset:0;stroke-opacity:1" />
      <path
         transform="scale(0.28222222,0.28222223)"
         inkscape:connector-curvature="0"
         id="path15336"
         d="m 554.08495,520.29391 c -0.55546,0.3978 -0.35852,1.20703 -0.41962,1.80232 0.15018,3.0911 2.62406,5.62797 5.45103,6.59131 1.64507,0.595 3.42067,0.7929 5.14974,0.49874 3.12542,-0.41304 6.19982,-2.65296 6.86346,-5.8471 0.0467,-0.63856 0.45842,-1.48623 -0.10168,-1.98776 -0.64401,-0.21444 -1.28536,0.32397 -1.90553,0.41196 -4.42549,1.34966 -9.4209,0.95798 -13.62077,-1.03865 -0.4544,-0.15472 -0.91714,-0.55077 -1.41663,-0.43082 z"
         style="opacity:1;fill:#ffaa00;fill-opacity:0.94117647;fill-rule:evenodd;stroke:none;stroke-width:1;stroke-linecap:round;stroke-linejoin:round;stroke-miterlimit:4;stroke-dasharray:none;stroke-dashoffset:0;stroke-opacity:1" />
      <g
         id="g14166">
        <path
           style="fill:none;stroke:#000000;stroke-width:0.28222224;stroke-linecap:round;stroke-linejoin:round;stroke-miterlimit:4;stroke-dasharray:none"
           id="path9352"
           d="m 156.28897,146.6851 -0.045,0.48443"
           inkscape:connector-curvature="0"
           sodipodi:nodetypes="cc" />
        <path
           style="fill:none;stroke:#000000;stroke-width:0.28222224;stroke-linecap:round;stroke-linejoin:round;stroke-miterlimit:4;stroke-dasharray:none"
           id="path9354"
           d="m 161.2907,146.80996 -0.0564,0.67001"
           inkscape:connector-curvature="0"
           sodipodi:nodetypes="cc" />
        <path
           style="fill:none;stroke:#000000;stroke-width:0.28222224;stroke-linecap:round;stroke-linejoin:round;stroke-miterlimit:4;stroke-dasharray:none"
           id="path9356"
           d="m 163.59482,143.59521 -0.0206,0.33519"
           inkscape:connector-curvature="0" />
        <path
           style="fill:none;stroke:#000000;stroke-width:0.28222224;stroke-linecap:round;stroke-linejoin:round;stroke-miterlimit:4;stroke-dasharray:none"
           id="path9358"
           d="m 154.41243,143.02385 -0.0206,0.33519"
           inkscape:connector-curvature="0" />
        <path
           style="fill:none;stroke:#000000;stroke-width:0.28222224;stroke-linecap:round;stroke-linejoin:round;stroke-miterlimit:4;stroke-dasharray:none"
           d="m 160.19724,149.03712 c 0.61628,-0.35576 0.99785,-0.92868 1.03707,-1.55715"
           id="path9792"
           inkscape:connector-curvature="0"
           sodipodi:nodetypes="cc" />
        <path
           style="fill:none;stroke:#000000;stroke-width:0.28222224;stroke-linecap:round;stroke-linejoin:round;stroke-miterlimit:4;stroke-dasharray:none"
           d="m 156.24401,147.16953 c -0.10753,1.73469 2.25221,2.84948 3.95323,1.86759"
           id="path9794"
           inkscape:connector-curvature="0"
           sodipodi:nodetypes="cc" />
        <path
           style="fill:none;stroke:#000000;stroke-width:0.28222224;stroke-linecap:round;stroke-linejoin:round;stroke-miterlimit:4;stroke-dasharray:none"
           d="m 162.17311,146.13654 a 4.6,3.81445 3.5595999 0 0 1.42171,-2.54133"
           id="path9798"
           inkscape:connector-curvature="0" />
        <path
           style="fill:none;stroke:#000000;stroke-width:0.28222224;stroke-linecap:round;stroke-linejoin:round;stroke-miterlimit:4;stroke-dasharray:none"
           d="m 163.59482,143.59521 a 4.6,3.81445 3.5595999 0 0 -6.73766,-3.70217"
           id="path9800"
           inkscape:connector-curvature="0" />
        <path
           style="fill:none;stroke:#000000;stroke-width:0.28222224;stroke-linecap:round;stroke-linejoin:round;stroke-miterlimit:4;stroke-dasharray:none"
           d="m 156.85716,139.89304 a 9.47909,3.30961 60 0 1 5.31595,6.2435"
           id="path9802"
           inkscape:connector-curvature="0" />
        <path
           style="fill:none;stroke:#000000;stroke-width:0.28222224;stroke-linecap:round;stroke-linejoin:round;stroke-miterlimit:4;stroke-dasharray:none"
           id="186"
           d="m 162.17311,146.13654 -0.0211,0.33432"
           inkscape:connector-curvature="0" />
        <path
           style="fill:none;stroke:#000000;stroke-width:0.28222224;stroke-linecap:round;stroke-linejoin:round;stroke-miterlimit:4;stroke-dasharray:none"
           d="m 162.15205,146.47086 a 4.6,3.81445 3.5595999 0 0 1.42221,-2.54046"
           id="path9805"
           inkscape:connector-curvature="0" />
        <path
           style="fill:none;stroke:#000000;stroke-width:0.28222224;stroke-linecap:round;stroke-linejoin:round;stroke-miterlimit:4;stroke-dasharray:none"
           id="188"
           d="m 156.85716,139.89304 -0.0211,0.33432"
           inkscape:connector-curvature="0" />
        <path
           style="fill:none;stroke:#000000;stroke-width:0.28222224;stroke-linecap:round;stroke-linejoin:round;stroke-miterlimit:4;stroke-dasharray:none"
           d="m 161.89467,146.41507 0.018,0.005 0.0176,0.004 0.0177,0.004 0.0178,0.004 0.0184,0.004 0.018,0.004 0.0185,0.004 0.018,0.003 0.0187,0.004 0.0188,0.004 0.0188,0.004 0.019,0.004 0.019,0.004 0.0191,0.004"
           id="path9808"
           inkscape:connector-curvature="0" />
        <path
           style="fill:none;stroke:#000000;stroke-width:0.28222224;stroke-linecap:round;stroke-linejoin:round;stroke-miterlimit:4;stroke-dasharray:none"
           d="m 156.8361,140.22736 0.0172,0.0386 0.0172,0.0386 0.0167,0.0377 0.0167,0.0377 0.0168,0.0377 0.0163,0.0368 0.0163,0.0368 0.0164,0.0367 0.0164,0.0367 0.0159,0.0359 0.0159,0.0359 0.0159,0.0358 0.016,0.0358 0.0154,0.035"
           id="path9810"
           inkscape:connector-curvature="0" />
        <path
           style="fill:none;stroke:#000000;stroke-width:0.28222224;stroke-linecap:round;stroke-linejoin:round;stroke-miterlimit:4;stroke-dasharray:none"
           id="191"
           d="M 161.89467,146.41507 157.06498,140.743"
           inkscape:connector-curvature="0" />
        <path
           style="fill:none;stroke:#000000;stroke-width:0.28222224;stroke-linecap:round;stroke-linejoin:round;stroke-miterlimit:4;stroke-dasharray:none"
           d="m 161.89467,146.41507 a 4.18796,3.47277 3.5599999 0 1 -0.48304,0.32854"
           id="path9813"
           inkscape:connector-curvature="0" />
        <path
           style="fill:none;stroke:#000000;stroke-width:0.28222224;stroke-linecap:round;stroke-linejoin:round;stroke-miterlimit:4;stroke-dasharray:none"
           d="m 161.41163,146.74361 a 4.18796,3.47277 3.5599999 0 1 -0.27153,0.14291"
           id="path9815"
           inkscape:connector-curvature="0" />
        <path
           style="fill:none;stroke:#000000;stroke-width:0.28222224;stroke-linecap:round;stroke-linejoin:round;stroke-miterlimit:4;stroke-dasharray:none"
           d="m 154.39187,143.35904 a 4.6,3.81445 3.5595999 0 0 6.73766,3.70217"
           id="path9817"
           inkscape:connector-curvature="0" />
        <path
           style="fill:none;stroke:#000000;stroke-width:0.28222224;stroke-linecap:round;stroke-linejoin:round;stroke-miterlimit:4;stroke-dasharray:none"
           d="m 156.54827,140.99283 a 4.18796,3.47277 3.5599999 0 1 0.51671,-0.24983"
           id="path9819"
           inkscape:connector-curvature="0" />
        <path
           style="fill:none;stroke:#000000;stroke-width:0.28222224;stroke-linecap:round;stroke-linejoin:round;stroke-miterlimit:4;stroke-dasharray:none"
           id="196"
           d="m 161.15059,146.72689 -0.0211,0.33432"
           inkscape:connector-curvature="0" />
        <path
           style="fill:none;stroke:#000000;stroke-width:0.28222224;stroke-linecap:round;stroke-linejoin:round;stroke-miterlimit:4;stroke-dasharray:none"
           d="m 155.83464,140.48339 a 9.47909,3.30961 60 0 1 5.31595,6.2435"
           id="path9822"
           inkscape:connector-curvature="0" />
        <path
           style="fill:none;stroke:#000000;stroke-width:0.28222224;stroke-linecap:round;stroke-linejoin:round;stroke-miterlimit:4;stroke-dasharray:none"
           d="m 155.83464,140.48339 a 4.6,3.81445 3.5595999 0 0 -1.42221,2.54046"
           id="path9824"
           inkscape:connector-curvature="0" />
        <path
           style="fill:none;stroke:#000000;stroke-width:0.28222224;stroke-linecap:round;stroke-linejoin:round;stroke-miterlimit:4;stroke-dasharray:none"
           d="m 154.41243,143.02385 a 4.6,3.81445 3.5595999 0 0 6.73816,3.70304"
           id="path9826"
           inkscape:connector-curvature="0" />
      </g>
    </g>
  </g>
</svg>
