<?xml version="1.0" encoding="UTF-8"?>
<!-- Created with Inkscape (http://www.inkscape.org/) -->
<svg width="48" height="48" version="1.1" viewBox="0 0 12.7 12.7" xml:space="preserve" xmlns="http://www.w3.org/2000/svg"><g transform="matrix(.64033 0 0 .64999 3.4717 2.5049)" stroke="#000" stroke-dashoffset="12" stroke-linecap="round" stroke-linejoin="round" stroke-width=".41011"><path d="m2.2e-6 12.7v-13.342c0-0.74916 1.3735-2.8361 4.5128-2.8361 0.76587 0 1.3918 0.10282 1.9499 0.28831l0.68009 0.41805c0.010343 0.20006 0.012843 0.12059 0.00868 0.44357 0.22254-0.12707 0.22888-0.13069 0.49957-0.28526 0.91848 0.63091 1.3389 1.463 1.3389 1.9893v13.413s-0.44593 2.2475-4.4771 2.2475-4.5128-2.3367-4.5128-2.3367z" fill="#ffaf00"/><g fill="none"><path d="m8.9899 4.6912s-0.53511 2.3188-4.5485 2.3188c-4.0133 0-4.4414-2.3545-4.4414-2.3545"/><path d="m2.2e-6 -0.64213s0.06283 0.45263 0.334 0.83101 0.55496 0.61172 0.55496 0.61172l0.62433-1.0847 4.9494-2.9058"/><path d="m7.651-2.6136-5.0846 2.9033s1.6144 0.55496 2.9766 0.23964 2.2829-0.7946 2.4595-1.5388c0.17658-0.74415-0.094358-1.1758-0.46352-1.5324"/><path d="m2.5665 0.28978-0.66681 1.0837v2.2386s-0.35674-0.19621-0.65105-0.34782c-0.29431-0.15162-0.36566-0.2408-0.36566-0.2408l6e-3 -2.2228"/><path d="m0.88294 3.0234 1.0167-0.62207"/><path d="m1.5133-0.2841s-0.44074-0.42697-0.53996-0.95613c-0.09922-0.52917 0.15932-0.84151 0.29379-1.0344s0.96514-0.76684 0.96514-0.76684"/></g><path d="m8.0462 14.094-1.4032 0.8496s-0.80097 0.40926-2.058 0.36248c-1.257-0.046772-2.3614-0.26433-3.0048-0.86006" fill="#ffaf00"/></g></svg>
