<?xml version="1.0" encoding="UTF-8"?>
<!-- Created with Inkscape (http://www.inkscape.org/) -->
<svg width="48" height="48" version="1.1" viewBox="0 0 12.7 12.7" xml:space="preserve" xmlns="http://www.w3.org/2000/svg"><g><g stroke="#000000" stroke-linecap="round" stroke-linejoin="round" stroke-width=".2646"><path d="m11.88 4.297-0.6336 0.8844-6.954 5.993-0.9085 0.3782c-0.5128 0.3015-1.559-0.6169-1.95-1.066-0.3897-0.4474-1.203-1.633-0.7751-2.093l0.5446-0.8658 6.954-5.993 0.9762-0.4852c0.4225-0.1725 1.258 0.3131 1.954 1.135 0.6952 0.822 1.034 1.726 0.793 2.112" fill="#ffaa00" fill-opacity=".9412"/><path transform="matrix(.6461 .7632 -.7632 .6462 0 0)" d="m11.22-5.237a2.391 0.872 0 0 1-2.387 0.8394 2.391 0.872 0 0 1-2.392-0.8378" fill="none"/><path transform="matrix(.6461 .7632 -.7632 .6462 0 0)" d="m11.3 3.943a2.391 0.872 0 0 1-2.387 0.8394 2.391 0.872 0 0 1-2.392-0.8378" fill="none"/><path transform="matrix(.6461 .7632 -.7632 .6462 0 0)" d="m10.78-6.543a2.145 0.872 0 0 1-1.053 1.157 2.145 0.872 0 0 1-2.844-0.4282 2.145 0.872 0 0 1 1.053-1.157 2.145 0.872 0 0 1 2.844 0.4282" fill="none"/></g></g></svg>
