<?xml version="1.0" encoding="UTF-8"?>
<!-- Created with Inkscape (http://www.inkscape.org/) -->
<svg width="48" height="48" version="1.1" viewBox="0 0 12.7 12.7" xml:space="preserve" xmlns="http://www.w3.org/2000/svg"><g fill="#ffaf00" stroke="#000000" stroke-linecap="round" stroke-linejoin="round" stroke-width=".2646"><path d="m8.202 0.4913 4.106 4.106v0.5188l-0.7817 0.7817-0.8829-0.8829c-0.04448-0.04448-0.1888-0.08987-0.3006 0.02191l-7.073 7.073-0.8213 0.2201-1.97-1.97 0.2158-0.8053 7.081-7.081c0.04898-0.04898 0.1602-0.1678 0.05071-0.2773l-0.9284-0.9284 0.7705-0.7705z"/><path d="m10.64 5.015-2.817-2.819"/><path d="m3.025 9.999a0.4712 0.4712 0 0 1-0.2314 0.6248 0.4712 0.4712 0 0 1-0.6248-0.2314 0.4712 0.4712 0 0 1 0.2314-0.6248 0.4712 0.4712 0 0 1 0.6249 0.2313" fill-opacity=".4482"/><path d="m3.27 12.11-2.575-2.555"/></g></svg>
