<?xml version="1.0" encoding="UTF-8"?>
<!-- Created with Inkscape (http://www.inkscape.org/) -->
<svg width="48" height="48" version="1.1" viewBox="0 0 12.7 12.7" xml:space="preserve" xmlns="http://www.w3.org/2000/svg"><g stroke="#000" stroke-dashoffset="12" stroke-linecap="round" stroke-linejoin="round" stroke-width=".26458"><g fill="#ffaf00"><path d="m1.6453 9.5912 0.35174 0.60923s0.25047 0.20745 0.91044 0.43042c0.65997 0.22296 1.0435 0.29431 1.0435 0.29431l0.1725-0.21072"/><path d="m11.303 9.5912-0.35174 0.60923s-0.25047 0.20745-0.91044 0.43042c-0.65997 0.22296-1.0435 0.29431-1.0435 0.29431l-0.1725-0.21072"/><path d="m10.658 4.1685s1.1036 0.42883 1.5072 1.3117c0.40361 0.88289 0.32793 1.4442 0.32793 1.4442v0.68739s0.01089 1.9846-3.0571 2.8764c-3.068 0.89185-6.1895 0.30323-7.4202-0.60646-1.2308-0.90969-1.7034-1.7674-1.7034-2.1501v-1.3275c0-0.53919 0.89866-2.0779 2.387-2.532"/><ellipse cx="6.4213" cy="6.3502" rx="5.6187" ry="3.3177"/></g><path d="m0.31532 6.3316s-0.21442 2.2198 2.4721 3.1153c0 0 1.7784 0.80721 3.6577 0.6937 1.8793-0.11351 3.191-0.35316 4.4901-1.1478 1.2991-0.7946 1.5451-1.8856 1.5577-2.3018" fill="none"/><path d="m3.0947 5.039v2.4437l3.3177 1.0881 3.2909-1.097 0.0089191-2.4437" fill="none"/><path d="m8.2407 2.185 1.4448 0.63322 0.026756 2.2118s-1.2664 0.026756-1.6678 0.18729c-0.40133 0.16053-1.641 0.88294-1.641 0.88294s-1.2932-0.77591-1.7213-0.89185c-0.42809-0.11594-1.5875-0.16945-1.5875-0.16945l0.017838-2.2207 1.3645-0.59754s0.76699-0.34782 1.8907-0.3389c1.1237 0.00892 1.8729 0.30323 1.8729 0.30323z" fill="#ffaf00"/><g fill="none"><ellipse cx="6.3857" cy="4.049" rx="1.5518" ry=".85618"/><ellipse cx="6.3857" cy="3.7458" rx="1.9621" ry="1.1594"/><ellipse cx="6.3857" cy="3.6655" rx="3.2463" ry="1.7926"/></g><path d="m6.4035 6.1003 0.00892 2.4704" fill="#ffaf00"/></g></svg>
