<svg version="1.1" viewBox="0 0 48 48" xmlns="http://www.w3.org/2000/svg">
 <path d="m24.798 2.733c-0.55144 0.00221-1.1016 0.081181-1.6335 0.22558-3.9567 1.0488-7.9141 2.0953-11.871 3.1426-0.38459 0.47284-0.74167 0.73626-1.0057 1.2376-0.65485 2.225-0.0029 3.6406 0.89392 5.6437 0.90115 0.88159 2.051 0.9682 3.2289 1.0107 3.2087-0.79357 6.4127-1.67 9.6128-2.517 1.8386 10.789 3.6772 21.579 5.5158 32.368 1.0452 1.1509 1.9078 1.304 3.4149 1.401 0.86711-0.11118 1.7298-0.28481 2.5783-0.46732 1.0033-0.2836 1.612-0.83621 2.1464-1.7027 0.13998-0.22386 0.27982-0.44781 0.41974-0.67172-1.9115-11.215-3.8223-22.431-5.734-33.647-0.21935-1.2602-0.74565-2.4715-1.5505-3.4686-0.68563-0.85321-1.5775-1.5456-2.5898-1.9671-1.138-0.44397-1.448-0.47194-3.426-0.58832z" color="#000000" fill="#ffaf00" stroke="#000000" stroke-width="1.1298"/>
</svg>
