<?xml version="1.0" encoding="UTF-8" standalone="no"?>
<!-- Created with Inkscape (http://www.inkscape.org/) -->

<svg
   xmlns:dc="http://purl.org/dc/elements/1.1/"
   xmlns:cc="http://creativecommons.org/ns#"
   xmlns:rdf="http://www.w3.org/1999/02/22-rdf-syntax-ns#"
   xmlns:svg="http://www.w3.org/2000/svg"
   xmlns="http://www.w3.org/2000/svg"
   xmlns:sodipodi="http://sodipodi.sourceforge.net/DTD/sodipodi-0.dtd"
   xmlns:inkscape="http://www.inkscape.org/namespaces/inkscape"
   width="48"
   height="48"
   viewBox="0 0 48.000001 48.000001"
   id="svg15825"
   version="1.1"
   inkscape:version="0.91 r13725"
   sodipodi:docname="ISO2009.svg">
  <defs
     id="defs15827" />
  <sodipodi:namedview
     id="base"
     pagecolor="#ffffff"
     bordercolor="#666666"
     borderopacity="1.0"
     inkscape:pageopacity="0.0"
     inkscape:pageshadow="2"
     inkscape:zoom="12.625"
     inkscape:cx="24"
     inkscape:cy="24"
     inkscape:document-units="px"
     inkscape:current-layer="layer1"
     showgrid="false"
     units="px"
     inkscape:window-width="1260"
     inkscape:window-height="787"
     inkscape:window-x="0"
     inkscape:window-y="0"
     inkscape:window-maximized="0" />
  <metadata
     id="metadata15830">
    <rdf:RDF>
      <cc:Work
         rdf:about="">
        <dc:format>image/svg+xml</dc:format>
        <dc:type
           rdf:resource="http://purl.org/dc/dcmitype/StillImage" />
        <dc:title></dc:title>
      </cc:Work>
    </rdf:RDF>
  </metadata>
  <g
     inkscape:label="Layer 1"
     inkscape:groupmode="layer"
     id="layer1"
     transform="translate(0,-1004.3622)">
    <g
       transform="matrix(4.1124146,0,0,4.1124144,-582.17872,490.65342)"
       id="g15378">
      <path
         transform="scale(0.28222222,0.28222223)"
         inkscape:connector-curvature="0"
         id="path15368"
         d="m 521.18937,445.84553 c -1.97606,-0.0685 -3.93568,0.29783 -5.7834,0.98974 -0.7818,0.14731 -0.48026,1.0014 -0.003,1.32801 5.65647,6.59623 11.21652,13.27646 16.95689,19.79995 0.39224,0.40986 0.9749,1.25945 1.58846,0.69045 2.6739,-2.38912 4.55628,-5.90873 4.31156,-9.56481 -0.0841,-4.37311 -2.9652,-8.27527 -6.59744,-10.50206 -2.48583,-1.51197 -5.3278,-2.54021 -8.24286,-2.72415 -0.74327,-0.0224 -1.48713,-0.0176 -2.23065,-0.0171 z"
         style="opacity:1;fill:#ffaa00;fill-opacity:0.94117647;fill-rule:evenodd;stroke:none;stroke-width:1;stroke-linecap:round;stroke-linejoin:round;stroke-miterlimit:4;stroke-dasharray:none;stroke-dashoffset:0;stroke-opacity:1" />
      <path
         transform="scale(0.28222222,0.28222223)"
         inkscape:connector-curvature="0"
         id="path15370"
         d="m 515.10647,449.04907 c -0.27678,0.65973 0.27039,1.34606 0.62543,1.87508 3.96633,4.94422 8.15154,9.70905 12.25457,14.53969 1.38491,1.55362 2.67406,3.20647 4.16158,4.66154 0.63282,0.39496 1.35715,-0.45112 0.89381,-1.02791 -4.05875,-4.92123 -8.25977,-9.72869 -12.3984,-14.58464 -1.63447,-1.85644 -3.18742,-3.79889 -4.88631,-5.59077 -0.25027,-0.10553 -0.45181,-0.0529 -0.65068,0.12701 z"
         style="opacity:1;fill:#ffaa00;fill-opacity:0.94117647;fill-rule:evenodd;stroke:none;stroke-width:1;stroke-linecap:round;stroke-linejoin:round;stroke-miterlimit:4;stroke-dasharray:none;stroke-dashoffset:0;stroke-opacity:1" />
      <path
         transform="scale(0.28222222,0.28222223)"
         inkscape:connector-curvature="0"
         id="path15372"
         d="m 515.34407,451.16429 c -0.57804,0.19806 -1.30056,0.46379 -1.56976,1.05328 0.0615,0.72687 0.83362,1.15928 1.19916,1.75068 4.83704,5.74592 9.72556,11.44816 14.59162,17.16954 0.60855,0.43988 1.21092,-0.30844 1.70775,-0.62153 0.69328,-0.51541 -0.1507,-1.15294 -0.49428,-1.58371 -5.0127,-5.882 -10.01061,-11.77785 -15.0332,-17.65067 -0.11319,-0.0898 -0.25782,-0.13183 -0.40129,-0.11759 z"
         style="opacity:1;fill:#ffaa00;fill-opacity:0.94117647;fill-rule:evenodd;stroke:none;stroke-width:1;stroke-linecap:round;stroke-linejoin:round;stroke-miterlimit:4;stroke-dasharray:none;stroke-dashoffset:0;stroke-opacity:1" />
      <path
         inkscape:connector-curvature="0"
         id="path15374"
         d="m 144.22556,126.87354 c -0.25711,0.0896 -0.41636,0.3482 -0.60761,0.53143 -0.86667,0.96739 -1.10685,2.44408 -0.57984,3.63518 0.55811,1.31597 1.84149,2.18661 3.18062,2.55574 1.10365,0.30079 2.30875,0.26852 3.37812,-0.14703 0.19628,-0.15976 -0.0589,-0.33846 -0.15118,-0.47271 -1.68455,-2.02766 -3.37698,-4.04896 -5.09245,-6.05032 -0.0317,-0.0353 -0.0807,-0.0546 -0.12766,-0.0523 z"
         style="opacity:1;fill:#ffaa00;fill-opacity:0.94117647;fill-rule:evenodd;stroke:none;stroke-width:1;stroke-linecap:round;stroke-linejoin:round;stroke-miterlimit:4;stroke-dasharray:none;stroke-dashoffset:0;stroke-opacity:1" />
      <path
         transform="scale(0.28222222,0.28222223)"
         inkscape:connector-curvature="0"
         id="path15376"
         d="m 512.99406,471.7942 c -0.59568,0.3452 -0.33233,1.17576 -0.36183,1.74574 0.13711,2.1659 1.43358,4.10941 3.21964,5.28684 1.81066,1.26731 4.03997,1.92594 6.25095,1.73148 1.52289,0.0173 3.0104,-0.41082 4.32126,-1.17907 2.28469,-1.17638 4.02225,-3.73289 3.7465,-6.35302 -0.26515,-0.78349 -1.17095,-0.12344 -1.69891,-0.0176 -4.90183,1.6431 -10.49006,1.24736 -15.03543,-1.17509 -0.13672,-0.0829 -0.29257,-0.0367 -0.44218,-0.0393 z"
         style="opacity:1;fill:#ffaa00;fill-opacity:0.94117647;fill-rule:evenodd;stroke:none;stroke-width:1;stroke-linecap:round;stroke-linejoin:round;stroke-miterlimit:4;stroke-dasharray:none;stroke-dashoffset:0;stroke-opacity:1" />
      <g
         id="g14141">
        <path
           style="fill:none;stroke:#000000;stroke-width:0.28222224;stroke-linecap:round;stroke-linejoin:round;stroke-miterlimit:4;stroke-dasharray:none"
           id="88"
           d="m 144.62348,132.98428 0.0368,0.44246"
           inkscape:connector-curvature="0"
           sodipodi:nodetypes="cc" />
        <path
           style="fill:none;stroke:#000000;stroke-width:0.28222224;stroke-linecap:round;stroke-linejoin:round;stroke-miterlimit:4;stroke-dasharray:none"
           id="89"
           d="m 149.63054,133.01716 0.0201,0.71998"
           inkscape:connector-curvature="0"
           sodipodi:nodetypes="cc" />
        <path
           style="fill:none;stroke:#000000;stroke-width:0.28222224;stroke-linecap:round;stroke-linejoin:round;stroke-miterlimit:4;stroke-dasharray:none"
           id="90"
           d="m 151.92924,129.89444 -0.0211,0.33432"
           inkscape:connector-curvature="0" />
        <path
           style="fill:none;stroke:#000000;stroke-width:0.28222224;stroke-linecap:round;stroke-linejoin:round;stroke-miterlimit:4;stroke-dasharray:none"
           id="91"
           d="m 142.74686,129.32309 -0.0211,0.33432"
           inkscape:connector-curvature="0" />
        <path
           style="fill:none;stroke:#000000;stroke-width:0.28222224;stroke-linecap:round;stroke-linejoin:round;stroke-miterlimit:4;stroke-dasharray:none"
           d="m 148.61397,135.2952 c 0.6164,-0.35602 0.99785,-0.92932 1.03665,-1.55806"
           id="path10521"
           inkscape:connector-curvature="0"
           sodipodi:nodetypes="cc" />
        <path
           style="fill:none;stroke:#000000;stroke-width:0.28222224;stroke-linecap:round;stroke-linejoin:round;stroke-miterlimit:4;stroke-dasharray:none"
           d="m 144.66024,133.42674 c -0.1088,1.73545 2.25223,2.85123 3.95373,1.86846"
           id="path10523"
           inkscape:connector-curvature="0"
           sodipodi:nodetypes="cc" />
        <path
           style="fill:none;stroke:#000000;stroke-width:0.28222224;stroke-linecap:round;stroke-linejoin:round;stroke-miterlimit:4;stroke-dasharray:none"
           d="m 150.50703,132.4349 a 4.6,3.81445 3.5595999 0 0 1.42221,-2.54046"
           id="path10527"
           inkscape:connector-curvature="0" />
        <path
           style="fill:none;stroke:#000000;stroke-width:0.28222224;stroke-linecap:round;stroke-linejoin:round;stroke-miterlimit:4;stroke-dasharray:none"
           d="m 151.92924,129.89444 a 4.6,3.81445 3.5595999 0 0 -6.73765,-3.70217"
           id="path10529"
           inkscape:connector-curvature="0" />
        <path
           style="fill:none;stroke:#000000;stroke-width:0.28222224;stroke-linecap:round;stroke-linejoin:round;stroke-miterlimit:4;stroke-dasharray:none"
           id="580"
           d="m 150.50703,132.4349 -5.31544,-6.24263"
           inkscape:connector-curvature="0" />
        <path
           style="fill:none;stroke:#000000;stroke-width:0.28222224;stroke-linecap:round;stroke-linejoin:round;stroke-miterlimit:4;stroke-dasharray:none"
           id="581"
           d="m 150.50703,132.4349 -0.0206,0.33519"
           inkscape:connector-curvature="0" />
        <path
           style="fill:none;stroke:#000000;stroke-width:0.28222224;stroke-linecap:round;stroke-linejoin:round;stroke-miterlimit:4;stroke-dasharray:none"
           d="m 150.48647,132.77009 a 4.6,3.81445 3.5595999 0 0 1.42171,-2.54133"
           id="path10533"
           inkscape:connector-curvature="0" />
        <path
           style="fill:none;stroke:#000000;stroke-width:0.28222224;stroke-linecap:round;stroke-linejoin:round;stroke-miterlimit:4;stroke-dasharray:none"
           id="583"
           d="m 145.19159,126.19227 -0.0211,0.33432"
           inkscape:connector-curvature="0" />
        <path
           style="fill:none;stroke:#000000;stroke-width:0.28222224;stroke-linecap:round;stroke-linejoin:round;stroke-miterlimit:4;stroke-dasharray:none"
           d="m 145.17052,126.52659 0.0253,0.057 0.0254,0.0569 0.0249,0.0561 0.0245,0.0552 0.0245,0.0552 0.024,0.0543 0.0241,0.0542 0.0236,0.0533 0.0232,0.0524 0.0233,0.0524 0.0228,0.0515 0.0229,0.0514 0.0225,0.0505 0.022,0.0497"
           id="path10536"
           inkscape:connector-curvature="0" />
        <path
           style="fill:none;stroke:#000000;stroke-width:0.28222224;stroke-linecap:round;stroke-linejoin:round;stroke-miterlimit:4;stroke-dasharray:none"
           id="585"
           d="m 150.11152,132.68866 -4.60808,-5.41204"
           inkscape:connector-curvature="0" />
        <path
           style="fill:none;stroke:#000000;stroke-width:0.28222224;stroke-linecap:round;stroke-linejoin:round;stroke-miterlimit:4;stroke-dasharray:none"
           d="m 150.11152,132.68866 0.0255,0.006 0.025,0.005 0.0258,0.006 0.0255,0.005 0.0261,0.006 0.0263,0.006 0.027,0.006 0.0266,0.005 0.0273,0.006 0.027,0.005 0.0277,0.006 0.0284,0.007 0.0281,0.006 0.0287,0.007"
           id="path10539"
           inkscape:connector-curvature="0" />
        <path
           style="fill:none;stroke:#000000;stroke-width:0.28222224;stroke-linecap:round;stroke-linejoin:round;stroke-miterlimit:4;stroke-dasharray:none"
           d="m 150.11152,132.68866 a 4,3.31691 3.5599999 0 1 -0.4822,0.3292"
           id="path10541"
           inkscape:connector-curvature="0" />
        <path
           style="fill:none;stroke:#000000;stroke-width:0.28222224;stroke-linecap:round;stroke-linejoin:round;stroke-miterlimit:4;stroke-dasharray:none"
           d="m 149.62932,133.01786 a 4,3.31691 3.5599999 0 1 -0.14933,0.0827"
           id="path10543"
           inkscape:connector-curvature="0" />
        <path
           style="fill:none;stroke:#000000;stroke-width:0.28222224;stroke-linecap:round;stroke-linejoin:round;stroke-miterlimit:4;stroke-dasharray:none"
           d="m 142.7258,129.65741 a 4.6,3.81445 3.5595999 0 0 6.73816,3.70303"
           id="path10545"
           inkscape:connector-curvature="0" />
        <path
           style="fill:none;stroke:#000000;stroke-width:0.28222224;stroke-linecap:round;stroke-linejoin:round;stroke-miterlimit:4;stroke-dasharray:none"
           d="m 144.86323,127.59775 a 4,3.31691 3.5599999 0 1 0.64021,-0.32113"
           id="path10547"
           inkscape:connector-curvature="0" />
        <path
           style="fill:none;stroke:#000000;stroke-width:0.28222224;stroke-linecap:round;stroke-linejoin:round;stroke-miterlimit:4;stroke-dasharray:none"
           id="591"
           d="m 149.48452,133.02525 -5.31545,-6.24263"
           inkscape:connector-curvature="0" />
        <path
           style="fill:none;stroke:#000000;stroke-width:0.28222224;stroke-linecap:round;stroke-linejoin:round;stroke-miterlimit:4;stroke-dasharray:none"
           id="592"
           d="m 149.48452,133.02525 -0.0206,0.33519"
           inkscape:connector-curvature="0" />
        <path
           style="fill:none;stroke:#000000;stroke-width:0.28222224;stroke-linecap:round;stroke-linejoin:round;stroke-miterlimit:4;stroke-dasharray:none"
           d="m 144.16907,126.78262 a 4.6,3.81445 3.5595999 0 0 -1.42221,2.54047"
           id="path10551"
           inkscape:connector-curvature="0" />
        <path
           style="fill:none;stroke:#000000;stroke-width:0.28222224;stroke-linecap:round;stroke-linejoin:round;stroke-miterlimit:4;stroke-dasharray:none"
           d="m 142.74686,129.32309 a 4.6,3.81445 3.5595999 0 0 6.73766,3.70216"
           id="path10553"
           inkscape:connector-curvature="0" />
      </g>
    </g>
  </g>
</svg>
