<?xml version="1.0" encoding="UTF-8" standalone="no"?>
<svg
   xmlns:dc="http://purl.org/dc/elements/1.1/"
   xmlns:cc="http://creativecommons.org/ns#"
   xmlns:rdf="http://www.w3.org/1999/02/22-rdf-syntax-ns#"
   xmlns:svg="http://www.w3.org/2000/svg"
   xmlns="http://www.w3.org/2000/svg"
   xmlns:sodipodi="http://sodipodi.sourceforge.net/DTD/sodipodi-0.dtd"
   xmlns:inkscape="http://www.inkscape.org/namespaces/inkscape"
   sodipodi:docname="ISO4027.svg"
   inkscape:version="1.0 (4035a4fb49, 2020-05-01)"
   id="svg8"
   version="1.1"
   viewBox="0 0 12.7 12.7"
   height="48"
   width="48">
  <defs
     id="defs2" />
  <sodipodi:namedview
     inkscape:window-maximized="1"
     inkscape:window-y="0"
     inkscape:window-x="0"
     inkscape:window-height="1027"
     inkscape:window-width="1920"
     inkscape:snap-nodes="false"
     inkscape:snap-bbox-midpoints="true"
     inkscape:snap-bbox="true"
     units="px"
     showgrid="false"
     inkscape:document-rotation="0"
     inkscape:current-layer="layer6"
     inkscape:document-units="mm"
     inkscape:cy="22.109351"
     inkscape:cx="-3.3591176"
     inkscape:zoom="11.2"
     inkscape:pageshadow="2"
     inkscape:pageopacity="0.0"
     borderopacity="1.0"
     bordercolor="#666666"
     pagecolor="#ffffff"
     id="base" />
  <metadata
     id="metadata5">
    <rdf:RDF>
      <cc:Work
         rdf:about="">
        <dc:format>image/svg+xml</dc:format>
        <dc:type
           rdf:resource="http://purl.org/dc/dcmitype/StillImage" />
        <dc:title />
      </cc:Work>
    </rdf:RDF>
  </metadata>
  <g
     inkscape:groupmode="layer"
     id="layer6"
     inkscape:label="Layer 3"
     style="display:inline">
    <path
       style="fill:#ffaa00;fill-opacity:1;stroke:none;stroke-width:0.0206241"
       d="M 11.018219,7.3618898 C 10.982446,7.2395441 10.848246,6.9942481 10.74087,6.8549383 10.51852,6.5664631 10.144815,6.1972089 9.9222506,6.0460678 9.786661,5.953991 9.2538316,5.690001 8.9483063,5.5635286 8.4725625,5.3665938 7.4276099,5.1737454 6.5375842,5.1186236 5.9494983,5.0821973 5.3423277,5.1348802 4.5025008,5.295193 3.7251392,5.4435811 2.9646267,5.7792088 2.3774312,6.2330229 1.9628766,6.5534121 1.7199486,6.8685996 1.5603448,7.2931569 L 1.5139711,7.4165228 1.4962526,6.1181761 C 1.4692242,4.1374213 1.4710268,3.9217634 1.5162354,3.726749 1.5769421,3.464922 1.664442,3.2627783 1.8171893,3.0315014 1.9831166,2.7802659 2.1794973,2.5866122 2.5518858,2.3070084 2.8683533,2.0693916 3.0406854,1.970501 3.4004247,1.8200829 3.8176843,1.645614 4.0685043,1.5662237 4.5373266,1.4602282 5.2804823,1.2922081 5.7637663,1.2506619 6.6110126,1.2819606 c 0.537066,0.01984 0.7704391,0.043164 1.163805,0.1163012 0.3690338,0.068621 1.0010994,0.3006615 1.7050118,0.6259476 0.4784405,0.221091 0.7129386,0.3714904 0.9536566,0.6116409 0.11656,0.1162859 0.432762,0.5840882 0.511816,0.7572029 0.123858,0.2712238 0.119277,0.1825764 0.113682,2.200182 -0.0029,1.0152242 -0.0074,1.8482422 -0.01011,1.8511513 -0.0027,0.00291 -0.01654,-0.034215 -0.03066,-0.082497 z"
       id="path3195" />
    <path
       style="fill:#ffaa00;fill-opacity:1;stroke:none;stroke-width:0.0206241"
       d="M 3.962345,10.490728 C 3.2651981,10.087631 2.6019977,9.6955454 2.4885652,9.6194265 2.2238023,9.4417581 2.0537004,9.2707495 1.8493365,8.9767883 1.6414332,8.6777369 1.5559382,8.4516027 1.5300474,8.1322665 1.4976551,7.7327171 1.5514152,7.461984 1.7357227,7.0964585 1.857534,6.8548814 1.9251721,6.7620291 2.1261033,6.5605544 2.6146534,6.070684 3.4148974,5.6398408 4.2090695,5.4391065 4.4167661,5.3866094 4.9582266,5.2891575 5.3759467,5.2290927 c 0.3811653,-0.054804 1.2290656,-0.04955 1.6911808,0.010442 0.6134634,0.0797 1.0841015,0.1640114 1.3984586,0.2505196 0.3627114,0.099815 0.3969416,0.1129154 0.8495754,0.3251548 0.5665233,0.265642 0.6880405,0.3494263 1.0307705,0.7107018 0.268098,0.2826053 0.441218,0.5078917 0.524694,0.6827988 0.101343,0.2123431 0.167287,0.4885264 0.180574,0.7562587 0.01088,0.2188604 0.0076,0.2495744 -0.04241,0.3976911 -0.137403,0.4071048 -0.304271,0.6608001 -0.628332,0.9552738 L 10.121954,9.5528409 8.7389104,10.360997 C 7.9782363,10.805484 7.336785,11.181289 7.313463,11.19612 7.272189,11.22237 7.271079,11.2194 7.271695,11.084123 7.272795,10.843547 7.1385744,10.661243 6.8645489,10.531109 6.3087916,10.267181 5.5226147,10.418655 5.2934427,10.833816 c -0.052221,0.0946 -0.061124,0.132273 -0.059223,0.250556 0.00121,0.07657 7.607e-4,0.139213 -0.00105,0.139213 -0.00176,0 -0.5736813,-0.329806 -1.2708282,-0.732902 z"
       id="path3197" />
    <path
       style="fill:#ffaa00;fill-opacity:1;stroke:none;stroke-width:0.0103121"
       d="M 9.1872312,1.8102696 C 8.9231113,1.6875657 8.3622835,1.4781709 8.0822841,1.3977199 7.8694093,1.3365516 7.5246714,1.2739235 7.2083446,1.2389438 6.9961162,1.2154766 6.3990722,1.1984726 6.0018316,1.2045839 5.6432564,1.2100798 5.4824247,1.2223464 5.1043404,1.2729298 4.858493,1.3058168 4.1190492,1.4751361 3.9090312,1.54663 3.8497864,1.5667997 3.7964177,1.5832211 3.7904426,1.5831222 3.7659313,1.5827177 3.8924669,1.5175242 4.0383521,1.4553754 4.5279189,1.2468181 4.975268,1.138233 5.7646533,1.0363484 c 0.1463799,-0.018895 0.2270529,-0.022137 0.5774768,-0.023225 0.4568085,-0.00143 0.4601334,-0.0011 1.0054278,0.090857 0.4778168,0.080591 0.9001314,0.1952398 1.1549524,0.3135349 0.1837524,0.085306 0.8812631,0.4654018 0.8507471,0.4636036 -0.00846,-5.188e-4 -0.083218,-0.032392 -0.1660262,-0.070863 z"
       id="path3199" />
    <path
       transform="scale(0.26458333)"
       id="path6008"
       d="m 22.801597,43.699495 c -0.512452,-0.08568 -1.351439,-0.412999 -1.693192,-0.660563 -1.716125,-1.243155 -0.216349,-3.112246 2.500326,-3.116021 2.577395,-0.0036 4.147921,1.648544 2.777979,2.922315 -0.727986,0.67688 -2.343617,1.061857 -3.585113,0.854269 z"
       style="display:inline;fill:#ffaa00;fill-opacity:1;stroke:none;stroke-width:0.0892857" />
  </g>
  <g
     inkscape:groupmode="layer"
     id="layer5"
     inkscape:label="Layer 2"
     style="display:inline">
    <path
       d="m 7.2048697,11.066439 a 0.9518795,0.59519076 0 0 1 -0.9518795,0.59519 0.9518795,0.59519076 0 0 1 -0.9518795,-0.59519 0.9518795,0.59519076 0 0 1 0.9518795,-0.595191 0.9518795,0.59519076 0 0 1 0.9518795,0.595191"
       style="fill:none;stroke:#000000;stroke-width:0.4;stroke-miterlimit:4;stroke-dasharray:none"
       id="path3176" />
    <path
       style="fill:none;stroke:#000000;stroke-width:0.4;stroke-linecap:butt;stroke-linejoin:miter;stroke-miterlimit:4;stroke-dasharray:none;stroke-opacity:1"
       d="M 5.4430572,11.393336 2.6249174,9.7612422 c 0,0 -0.4419907,-0.2724512 -0.6099833,-0.488469 C 1.8469403,9.0567555 1.6537823,8.757725 1.6537823,8.757725 c 0,0 -0.1391935,-0.313228 -0.1596302,-0.5390503 -0.020433,-0.2258224 -0.017598,-0.4827539 -0.017598,-0.4827539 0,0 0.049671,-0.4410701 0.3829228,-0.9337235 0.3332484,-0.4926534 1.1060683,-0.9137954 1.1060683,-0.9137954 0,0 0.6743437,-0.381626 1.4089368,-0.5294008 0.7345932,-0.1477742 1.2642773,-0.1964616 1.2642773,-0.1964616 0,0 0.5602726,-0.04611 1.1561867,0.00956 0.595913,0.055694 1.3371,0.1915568 1.3371,0.1915568 0,0 0.5074931,0.1233669 0.7074483,0.1956187 0.1999541,0.072251 0.8439918,0.3879694 0.8439918,0.3879694 0,0 0.2652019,0.1304941 0.4887359,0.343156 0.223534,0.212662 0.495184,0.5309324 0.495184,0.5309324 0,0 0.197342,0.2364745 0.283857,0.4663323 0.08651,0.2298578 0.200418,0.6623761 0.125908,0.9870579 -0.07451,0.3246818 -0.358949,0.7993626 -0.472374,0.8977476 -0.113425,0.098385 -0.458028,0.4113079 -0.458028,0.4113079 L 7.050816,11.394656"
       id="path3178"
       sodipodi:nodetypes="ccscscscscscscscscscc" />
    <path
       style="fill:none;stroke:#000000;stroke-width:0.4;stroke-linecap:butt;stroke-linejoin:miter;stroke-miterlimit:4;stroke-dasharray:none;stroke-opacity:1"
       d="M 1.485472,7.8509691 1.4307557,4.1047399 c 0,0 0.00539,-0.4847503 0.2319716,-0.9032014 0.2265329,-0.418451 0.4801404,-0.6172301 0.4801404,-0.6172301 0,0 0.4788336,-0.4227092 0.8679106,-0.6339374 0.3890759,-0.2112293 0.8823788,-0.4692466 0.8823788,-0.4692466 0,0 0.3889682,-0.1857343 0.8631193,-0.3044779 0.47415,-0.1187436 1.1393575,-0.18983517 1.1393575,-0.18983517 0,0 0.6483265,-0.0274131 0.9086939,0.001429 0.2603684,0.0287981 0.7873298,0.12300397 0.7873298,0.12300397 0,0 0.65261,0.1269939 1.0013335,0.3112981 0.3487235,0.1843042 0.5879737,0.3083062 0.8812991,0.4811703 0.293326,0.1728642 0.9198168,0.5524324 1.1404498,0.8824338 0.220632,0.3300026 0.309901,0.4738016 0.309901,0.4738016 0,0 0.153931,0.2464596 0.179499,0.5916779 0.02557,0.3452172 0.0018,0.7178562 0.0018,0.7178562 l -0.0032,3.3791572"
       id="path3180" />
    <path
       style="fill:none;stroke:#000000;stroke-width:0.4;stroke-linecap:butt;stroke-linejoin:miter;stroke-miterlimit:4;stroke-dasharray:none;stroke-opacity:1"
       d="m 3.1010316,1.9036467 c 0,0 0.6652064,-0.2959791 1.0190959,-0.3852739 C 4.4740171,1.4290768 4.959439,1.327113 4.959439,1.327113 c 0,0 0.5305524,-0.083404 0.9639597,-0.093572 0.4334074,-0.010222 1.2042344,0.028688 1.2042344,0.028688 0,0 0.3425319,0.03392 0.7346108,0.112962 0.3920777,0.079041 1.1475561,0.3947278 1.1732897,0.4022956 0.025731,0.00758 0.8752654,0.404329 0.8752654,0.404329"
       id="path3182" />
  </g>
</svg>
