<?xml version="1.0" encoding="UTF-8" standalone="no"?>
<!-- Created with Inkscape (http://www.inkscape.org/) -->

<svg
   xmlns:dc="http://purl.org/dc/elements/1.1/"
   xmlns:cc="http://creativecommons.org/ns#"
   xmlns:rdf="http://www.w3.org/1999/02/22-rdf-syntax-ns#"
   xmlns:svg="http://www.w3.org/2000/svg"
   xmlns="http://www.w3.org/2000/svg"
   xmlns:sodipodi="http://sodipodi.sourceforge.net/DTD/sodipodi-0.dtd"
   xmlns:inkscape="http://www.inkscape.org/namespaces/inkscape"
   width="48"
   height="48"
   viewBox="0 0 48.000001 48.000001"
   id="svg15825"
   version="1.1"
   inkscape:version="0.91 r13725"
   sodipodi:docname="ISO4017.svg">
  <defs
     id="defs15827" />
  <sodipodi:namedview
     id="base"
     pagecolor="#ffffff"
     bordercolor="#666666"
     borderopacity="1.0"
     inkscape:pageopacity="0.0"
     inkscape:pageshadow="2"
     inkscape:zoom="12.625"
     inkscape:cx="24"
     inkscape:cy="24"
     inkscape:document-units="px"
     inkscape:current-layer="layer1"
     showgrid="false"
     units="px"
     inkscape:window-width="1260"
     inkscape:window-height="787"
     inkscape:window-x="0"
     inkscape:window-y="0"
     inkscape:window-maximized="0" />
  <metadata
     id="metadata15830">
    <rdf:RDF>
      <cc:Work
         rdf:about="">
        <dc:format>image/svg+xml</dc:format>
        <dc:type
           rdf:resource="http://purl.org/dc/dcmitype/StillImage" />
        <dc:title></dc:title>
      </cc:Work>
    </rdf:RDF>
  </metadata>
  <g
     inkscape:label="Layer 1"
     inkscape:groupmode="layer"
     id="layer1"
     transform="translate(0,-1004.3622)">
    <g
       transform="matrix(3.854294,0,0,3.8542939,-229.07189,898.3003)"
       id="g15773">
      <path
         inkscape:connector-curvature="0"
         id="path15769"
         d="m 61.0708,33.863117 c 0,0 0.02909,-1.512948 0.11638,-1.658425 0.08729,-0.145474 1.920282,-3.578708 1.920282,-3.578708 l 4.626136,-0.261857 2.647662,3.200471 -0.11638,1.803902 -1.891188,3.375042 -4.65523,0.23276 z"
         style="opacity:1;fill:#ffaa00;fill-opacity:0.94117647;fill-rule:evenodd;stroke:none;stroke-width:1;stroke-linecap:round;stroke-linejoin:round;stroke-miterlimit:4;stroke-dasharray:none;stroke-dashoffset:0;stroke-opacity:1" />
      <path
         transform="scale(0.28222222,0.28222223)"
         inkscape:connector-curvature="0"
         id="path15771"
         d="m 223.76109,129.17426 c -0.69946,0.32093 -0.32126,1.26377 -0.39123,1.85729 1.4e-4,1.7425 0.77158,3.41952 2.05824,4.58745 1.91848,1.90698 4.67014,2.88971 7.36366,2.69351 3.05469,-0.0228 6.20697,-1.69941 7.55244,-4.50952 0.43279,-0.98089 0.69619,-2.10941 0.5207,-3.1669 -0.60835,-0.45195 -1.44975,-0.0774 -2.15516,-0.13335 -4.2509,0.23536 -8.52787,0.61084 -12.75389,0.73661 -0.6743,-0.63685 -1.15404,-1.48968 -1.88105,-2.05441 -0.10401,-0.0401 -0.20715,-0.0279 -0.31371,-0.0107 z"
         style="opacity:1;fill:#ffaa00;fill-opacity:0.94117647;fill-rule:evenodd;stroke:none;stroke-width:1;stroke-linecap:round;stroke-linejoin:round;stroke-miterlimit:4;stroke-dasharray:none;stroke-dashoffset:0;stroke-opacity:1" />
      <g
         id="g13865">
        <path
           style="fill:none;stroke:#000000;stroke-width:0.28222224;stroke-linecap:round;stroke-linejoin:round;stroke-miterlimit:4;stroke-dasharray:none"
           id="66"
           d="m 63.020742,36.147366 -0.0035,0.686917"
           inkscape:connector-curvature="0"
           sodipodi:nodetypes="cc" />
        <path
           style="fill:none;stroke:#000000;stroke-width:0.28222224;stroke-linecap:round;stroke-linejoin:round;stroke-miterlimit:4;stroke-dasharray:none"
           id="67"
           d="m 67.991155,36.778287 0.01639,0.36641"
           inkscape:connector-curvature="0"
           sodipodi:nodetypes="cc" />
        <path
           style="fill:none;stroke:#000000;stroke-width:0.28222224;stroke-linecap:round;stroke-linejoin:round;stroke-miterlimit:4;stroke-dasharray:none"
           d="m 66.970598,38.702129 c 0.616322,-0.355836 0.997858,-0.928878 1.036952,-1.557432"
           id="path10265"
           inkscape:connector-curvature="0"
           sodipodi:nodetypes="cc" />
        <path
           style="fill:none;stroke:#000000;stroke-width:0.28222224;stroke-linecap:round;stroke-linejoin:round;stroke-miterlimit:4;stroke-dasharray:none"
           d="m 63.017203,36.834283 c -0.107916,1.734925 2.252228,2.850014 3.953395,1.867846"
           id="path10267"
           inkscape:connector-curvature="0"
           sodipodi:nodetypes="cc" />
        <path
           style="fill:none;stroke:#000000;stroke-width:0.28222224;stroke-linecap:round;stroke-linejoin:round;stroke-miterlimit:4;stroke-dasharray:none"
           d="m 68.132342,34.488869 a 4,3.31691 3.5595999 0 0 1.310479,-1.304164"
           id="path10271"
           inkscape:connector-curvature="0" />
        <path
           style="fill:none;stroke:#000000;stroke-width:0.28222224;stroke-linecap:round;stroke-linejoin:round;stroke-miterlimit:4;stroke-dasharray:none"
           d="m 66.196724,35.05884 a 4,3.31691 3.5595999 0 0 1.935618,-0.569971"
           id="path10273"
           inkscape:connector-curvature="0" />
        <path
           style="fill:none;stroke:#000000;stroke-width:0.28222224;stroke-linecap:round;stroke-linejoin:round;stroke-miterlimit:4;stroke-dasharray:none"
           d="M 69.442821,33.184705 A 4,3.31691 3.5595999 0 0 69.045324,29.874581"
           id="path10275"
           inkscape:connector-curvature="0" />
        <path
           style="fill:none;stroke:#000000;stroke-width:0.28222224;stroke-linecap:round;stroke-linejoin:round;stroke-miterlimit:4;stroke-dasharray:none"
           d="m 62.553133,33.622849 a 4,3.31691 3.5595999 0 0 3.643591,1.435991"
           id="path10277"
           inkscape:connector-curvature="0" />
        <path
           style="fill:none;stroke:#000000;stroke-width:0.28222224;stroke-linecap:round;stroke-linejoin:round;stroke-miterlimit:4;stroke-dasharray:none"
           d="M 69.045324,29.874581 A 4,3.31691 3.5595999 0 0 65.40168,28.438505"
           id="path10279"
           inkscape:connector-curvature="0" />
        <path
           style="fill:none;stroke:#000000;stroke-width:0.28222224;stroke-linecap:round;stroke-linejoin:round;stroke-miterlimit:4;stroke-dasharray:none"
           d="m 62.155583,30.31264 a 4,3.31691 3.5595999 0 0 0.39755,3.310209"
           id="path10281"
           inkscape:connector-curvature="0" />
        <path
           style="fill:none;stroke:#000000;stroke-width:0.28222224;stroke-linecap:round;stroke-linejoin:round;stroke-miterlimit:4;stroke-dasharray:none"
           d="M 65.40168,28.438505 A 4,3.31691 3.5595999 0 0 62.155583,30.31264"
           id="path10283"
           inkscape:connector-curvature="0" />
        <path
           style="fill:none;stroke:#000000;stroke-width:0.28222224;stroke-linecap:round;stroke-linejoin:round;stroke-miterlimit:4;stroke-dasharray:none"
           d="m 69.442821,33.184705 -0.06458,0.118117 -0.06476,0.119601 -0.06504,0.121267 -0.06542,0.123104 -0.06591,0.125118 -0.06651,0.127314 -0.06718,0.129778 -0.06795,0.132413 -0.06885,0.135246 -0.06986,0.138254 -0.07095,0.141535 -0.07216,0.14501 -0.0735,0.148669 -0.07492,0.152608"
           id="path10285"
           inkscape:connector-curvature="0" />
        <path
           style="fill:none;stroke:#000000;stroke-width:0.28222224;stroke-linecap:round;stroke-linejoin:round;stroke-miterlimit:4;stroke-dasharray:none"
           d="m 68.485212,35.042739 -0.177366,-0.0069 -0.174181,-0.0057 -0.171302,-0.0044 -0.168656,-0.0032 -0.166259,-0.0019 -0.164152,-7.21e-4 -0.162278,5.07e-4 -0.160652,0.0018 -0.159259,0.003 -0.158155,0.0042 -0.157276,0.0055 -0.156636,0.0067 -0.156246,0.008 -0.15607,0.0093"
           id="path10287"
           inkscape:connector-curvature="0" />
        <path
           style="fill:none;stroke:#000000;stroke-width:0.28222224;stroke-linecap:round;stroke-linejoin:round;stroke-miterlimit:4;stroke-dasharray:none"
           d="m 70.384273,31.586569 -0.07269,0.115982 -0.07141,0.115014 -0.07026,0.114233 -0.0692,0.113622 -0.06831,0.113108 -0.06745,0.112845 -0.06672,0.112766 -0.06612,0.11277 -0.06559,0.113038 -0.0652,0.113392 -0.06482,0.114094 -0.06468,0.114708 -0.06449,0.115755 -0.06452,0.116809"
           id="path10289"
           inkscape:connector-curvature="0" />
        <path
           style="fill:none;stroke:#000000;stroke-width:0.28222224;stroke-linecap:round;stroke-linejoin:round;stroke-miterlimit:4;stroke-dasharray:none"
           d="m 69.045324,29.874581 0.0915,0.108139 0.09161,0.109691 0.09176,0.111219 0.09213,0.113083 0.09264,0.115099 0.09323,0.117184 0.094,0.119512 0.09495,0.12208 0.09597,0.124725 0.09722,0.127696 0.09856,0.130734 0.100068,0.134022 0.10174,0.137559 0.103556,0.141245"
           id="path10291"
           inkscape:connector-curvature="0" />
        <path
           style="fill:none;stroke:#000000;stroke-width:0.28222224;stroke-linecap:round;stroke-linejoin:round;stroke-miterlimit:4;stroke-dasharray:none"
           d="m 63.892084,35.334836 -0.103557,-0.141244 -0.101747,-0.137556 -0.100065,-0.134023 -0.09856,-0.130737 -0.09723,-0.127694 -0.09597,-0.124723 -0.09495,-0.122082 -0.094,-0.119511 -0.09323,-0.117183 -0.09264,-0.115099 -0.09213,-0.113083 -0.09176,-0.111222 -0.09161,-0.109691 -0.0915,-0.108139"
           id="path10293"
           inkscape:connector-curvature="0" />
        <path
           style="fill:none;stroke:#000000;stroke-width:0.28222224;stroke-linecap:round;stroke-linejoin:round;stroke-miterlimit:4;stroke-dasharray:none"
           d="m 66.196724,35.05884 -0.156144,0.01059 -0.1565,0.01183 -0.156995,0.01328 -0.157882,0.01448 -0.158867,0.01597 -0.160185,0.01731 -0.161701,0.01877 -0.163526,0.02016 -0.165541,0.02168 -0.167814,0.02322 -0.170404,0.02471 -0.173201,0.02633 -0.176273,0.02799 -0.179607,0.02968"
           id="path10295"
           inkscape:connector-curvature="0" />
        <path
           style="fill:none;stroke:#000000;stroke-width:0.28222224;stroke-linecap:round;stroke-linejoin:round;stroke-miterlimit:4;stroke-dasharray:none"
           d="m 67.690169,28.422404 0.105852,0.104701 0.103833,0.103904 0.101966,0.10325 0.100309,0.102821 0.09874,0.102458 0.09741,0.102417 0.09614,0.10234 0.0951,0.102596 0.09411,0.102821 0.09335,0.103373 0.09269,0.103986 0.09221,0.104839 0.09183,0.105753 0.09161,0.106918"
           id="path10297"
           inkscape:connector-curvature="0" />
        <path
           style="fill:none;stroke:#000000;stroke-width:0.28222224;stroke-linecap:round;stroke-linejoin:round;stroke-miterlimit:4;stroke-dasharray:none"
           d="m 65.40168,28.438505 0.156079,-0.0093 0.156238,-0.008 0.156636,-0.0067 0.157284,-0.0055 0.158147,-0.0042 0.159259,-0.003 0.160652,-0.0018 0.162286,-5.12e-4 0.164144,7.26e-4 0.166309,0.002 0.168606,0.0031 0.171302,0.0044 0.174181,0.0057 0.177366,0.0069"
           id="path10299"
           inkscape:connector-curvature="0" />
        <path
           style="fill:none;stroke:#000000;stroke-width:0.28222224;stroke-linecap:round;stroke-linejoin:round;stroke-miterlimit:4;stroke-dasharray:none"
           d="m 61.197975,32.170674 0.07493,-0.152612 0.0735,-0.148669 0.07216,-0.145007 0.071,-0.14145 0.06981,-0.13834 0.06885,-0.135243 0.06796,-0.132419 0.06717,-0.129773 0.06652,-0.127314 0.06591,-0.125118 0.06542,-0.123104 0.06504,-0.121267 0.06475,-0.119601 0.06458,-0.118117"
           id="path10301"
           inkscape:connector-curvature="0" />
        <path
           style="fill:none;stroke:#000000;stroke-width:0.28222224;stroke-linecap:round;stroke-linejoin:round;stroke-miterlimit:4;stroke-dasharray:none"
           d="m 62.553133,33.622849 -0.09162,-0.106914 -0.09182,-0.105757 -0.09221,-0.10484 -0.09269,-0.103986 -0.09335,-0.103372 -0.09411,-0.102821 -0.0951,-0.102594 -0.09614,-0.102343 -0.09742,-0.102413 -0.09874,-0.102458 -0.100304,-0.102823 -0.101971,-0.103248 -0.103833,-0.103903 -0.105849,-0.104703"
           id="path10303"
           inkscape:connector-curvature="0" />
        <path
           style="fill:none;stroke:#000000;stroke-width:0.28222224;stroke-linecap:round;stroke-linejoin:round;stroke-miterlimit:4;stroke-dasharray:none"
           d="m 63.097045,28.714499 0.179603,-0.02968 0.176323,-0.0279 0.173151,-0.02641 0.170403,-0.02471 0.167814,-0.02322 0.16555,-0.02168 0.163518,-0.02016 0.161701,-0.01876 0.160185,-0.01731 0.158917,-0.01589 0.157832,-0.01457 0.156995,-0.01328 0.156499,-0.01183 0.156144,-0.01059"
           id="path10305"
           inkscape:connector-curvature="0" />
        <path
           style="fill:none;stroke:#000000;stroke-width:0.28222224;stroke-linecap:round;stroke-linejoin:round;stroke-miterlimit:4;stroke-dasharray:none"
           d="m 62.155583,30.31264 0.06452,-0.116809 0.06449,-0.115755 0.06468,-0.114709 0.06487,-0.114007 0.06515,-0.113478 0.06559,-0.113038 0.06613,-0.112775 0.06672,-0.112766 0.06746,-0.112845 0.0683,-0.113103 0.0692,-0.113622 0.07031,-0.114146 0.07137,-0.115106 0.07269,-0.115982"
           id="path10307"
           inkscape:connector-curvature="0" />
        <path
           style="fill:none;stroke:#000000;stroke-width:0.28222224;stroke-linecap:round;stroke-linejoin:round;stroke-miterlimit:4;stroke-dasharray:none"
           id="462"
           d="m 70.27781,33.29741 -1.89902,3.456261"
           inkscape:connector-curvature="0" />
        <path
           style="fill:none;stroke:#000000;stroke-width:0.28222224;stroke-linecap:round;stroke-linejoin:round;stroke-miterlimit:4;stroke-dasharray:none"
           id="463"
           d="m 70.27781,33.29741 0.106463,-1.710841"
           inkscape:connector-curvature="0" />
        <path
           style="fill:none;stroke:#000000;stroke-width:0.28222224;stroke-linecap:round;stroke-linejoin:round;stroke-miterlimit:4;stroke-dasharray:none"
           id="464"
           d="m 68.37879,36.753671 0.106422,-1.710932"
           inkscape:connector-curvature="0" />
        <path
           style="fill:none;stroke:#000000;stroke-width:0.28222224;stroke-linecap:round;stroke-linejoin:round;stroke-miterlimit:4;stroke-dasharray:none"
           id="465"
           d="m 68.37879,36.753671 -4.593173,0.292008"
           inkscape:connector-curvature="0" />
        <path
           style="fill:none;stroke:#000000;stroke-width:0.28222224;stroke-linecap:round;stroke-linejoin:round;stroke-miterlimit:4;stroke-dasharray:none"
           id="466"
           d="m 63.785617,37.045679 0.106467,-1.710843"
           inkscape:connector-curvature="0" />
        <path
           style="fill:none;stroke:#000000;stroke-width:0.28222224;stroke-linecap:round;stroke-linejoin:round;stroke-miterlimit:4;stroke-dasharray:none"
           id="467"
           d="M 63.785617,37.045679 61.091558,33.881603"
           inkscape:connector-curvature="0" />
        <path
           style="fill:none;stroke:#000000;stroke-width:0.28222224;stroke-linecap:round;stroke-linejoin:round;stroke-miterlimit:4;stroke-dasharray:none"
           id="468"
           d="m 61.091558,33.881603 0.106417,-1.710929"
           inkscape:connector-curvature="0" />
      </g>
    </g>
  </g>
</svg>
