<?xml version="1.0" encoding="UTF-8" standalone="no"?>
<svg
   xmlns:dc="http://purl.org/dc/elements/1.1/"
   xmlns:cc="http://creativecommons.org/ns#"
   xmlns:rdf="http://www.w3.org/1999/02/22-rdf-syntax-ns#"
   xmlns:svg="http://www.w3.org/2000/svg"
   xmlns="http://www.w3.org/2000/svg"
   xmlns:sodipodi="http://sodipodi.sourceforge.net/DTD/sodipodi-0.dtd"
   xmlns:inkscape="http://www.inkscape.org/namespaces/inkscape"
   sodipodi:docname="ISO4026.svg"
   inkscape:version="1.0 (4035a4fb49, 2020-05-01)"
   id="svg8"
   version="1.1"
   viewBox="0 0 12.7 12.7"
   height="48"
   width="48">
  <defs
     id="defs2" />
  <sodipodi:namedview
     inkscape:window-maximized="1"
     inkscape:window-y="0"
     inkscape:window-x="0"
     inkscape:window-height="1027"
     inkscape:window-width="1920"
     inkscape:snap-nodes="false"
     inkscape:snap-bbox-midpoints="true"
     inkscape:snap-bbox="true"
     units="px"
     showgrid="false"
     inkscape:document-rotation="0"
     inkscape:current-layer="layer4"
     inkscape:document-units="mm"
     inkscape:cy="19.215627"
     inkscape:cx="3.3640912"
     inkscape:zoom="11.2"
     inkscape:pageshadow="2"
     inkscape:pageopacity="0.0"
     borderopacity="1.0"
     bordercolor="#666666"
     pagecolor="#ffffff"
     id="base" />
  <metadata
     id="metadata5">
    <rdf:RDF>
      <cc:Work
         rdf:about="">
        <dc:format>image/svg+xml</dc:format>
        <dc:type
           rdf:resource="http://purl.org/dc/dcmitype/StillImage" />
        <dc:title />
      </cc:Work>
    </rdf:RDF>
  </metadata>
  <g
     inkscape:groupmode="layer"
     id="layer4"
     inkscape:label="Layer 3"
     style="display:inline">
    <path
       style="opacity:1;fill:#ffaa00;fill-opacity:1;stroke:none;stroke-width:0.0192252"
       d="M 9.117442,10.776211 C 9.2509479,10.572893 9.3255594,10.361984 9.3409686,10.144353 9.3581401,9.9018362 9.2543544,9.5674378 9.0908555,9.3384847 9.0063448,9.2201417 8.6364765,8.9037952 8.5058991,8.8381747 8.2033474,8.6861299 7.4527326,8.4390194 7.146837,8.3907567 6.8075191,8.3372206 5.8870893,8.3673758 5.3012188,8.4512214 4.7719866,8.5269617 4.1716159,8.8247089 3.7758641,9.2077033 3.6519845,9.3275897 3.5406494,9.4862736 3.4589928,9.6593342 c -0.054926,0.1164103 -0.061204,0.1489927 -0.06734,0.3494688 -0.010269,0.335501 0.056568,0.560194 0.2369119,0.796457 0.03849,0.05042 0.066886,0.09478 0.063104,0.09856 C 3.6878887,10.90752 3.5726644,10.85428 3.43562,10.785343 3.1052851,10.619156 2.7810231,10.401005 2.5859063,10.213685 2.3335648,9.9714267 2.0533975,9.5195772 1.9739743,9.2267719 1.9572749,9.1652047 1.9387763,9.0235963 1.9328682,8.9120862 1.90387,8.3647874 2.1307025,7.9134421 2.6654699,7.4543765 3.0153932,7.1539885 3.2226212,7.0274029 3.7345722,6.8013139 4.1719786,6.6081456 4.5668422,6.4841292 4.90511,6.433679 5.5143262,6.342819 6.6578238,6.2932239 7.1852878,6.334785 7.8651741,6.388357 8.2190059,6.4818318 9.0530133,6.8281996 9.4032715,6.9736638 9.5877841,7.0765643 9.8553245,7.2756386 10.228331,7.5531903 10.51595,7.8871621 10.675872,8.2284257 10.78442,8.4600603 10.815374,8.5973923 10.815,8.8456789 c -9.81e-4,0.6705436 -0.277665,1.1397589 -0.9444445,1.6018061 -0.1228552,0.08513 -0.838025,0.503353 -0.8607493,0.503353 -0.00386,0 0.044569,-0.07858 0.1076358,-0.174627 z"
       id="path2443" />
    <path
       style="opacity:1;fill:#ffaa00;fill-opacity:1;stroke:none;stroke-width:0.0192252"
       d="M 6.0029385,11.745149 C 5.5885053,11.70208 5.0501284,11.611838 4.9071724,11.56148 4.5159805,11.423675 4.046636,11.139457 3.8463482,10.919083 3.6039338,10.652355 3.5175782,10.480007 3.4824484,10.192811 3.4561897,9.9781385 3.482556,9.8287881 3.5827141,9.6242995 3.7699697,9.2420868 4.3298168,8.8311281 4.9405107,8.6276025 5.2268142,8.5321861 5.6993601,8.4777507 6.4066673,8.4587067 c 0.6529408,-0.01758 0.9044612,0.025719 1.5938703,0.274387 0.4209387,0.1518313 0.5384,0.2158173 0.7699703,0.4194347 0.2802709,0.2464396 0.3771113,0.399686 0.4533707,0.7174434 0.059983,0.2499382 0.00749,0.5462392 -0.1394826,0.7874422 -0.039994,0.06563 -0.129957,0.190943 -0.1999185,0.278471 -0.1236898,0.154747 -0.1348385,0.163218 -0.4037289,0.306765 -0.3286274,0.175437 -0.4266914,0.216011 -0.8003576,0.331148 -0.3398287,0.104711 -0.4001183,0.117434 -0.7354184,0.15521 -0.2314486,0.02608 -0.7593942,0.03512 -0.9420341,0.01614 z"
       id="path2445" />
    <path
       style="opacity:1;fill:#ffaa00;fill-opacity:1;stroke:none;stroke-width:0.0192252"
       d="M 10.784057,8.2364397 C 10.617764,7.8054995 10.130485,7.3006447 9.55027,6.9581522 9.2331813,6.7709792 8.2677581,6.4082327 7.8767607,6.3293505 7.1689857,6.1865599 5.9157066,6.1941653 4.8748643,6.3475674 4.4247,6.4139134 3.9163101,6.5929631 3.3223166,6.8943573 2.7400587,7.1897967 2.2080343,7.6818328 1.9988318,8.118366 L 1.9331718,8.2553753 1.9206348,7.2047641 C 1.8817071,3.9427486 1.8811683,3.4719216 1.9161655,3.2992128 1.9610674,3.0776447 2.0338547,2.9122574 2.1892409,2.6787271 2.3834125,2.3869053 2.7591107,2.0335133 3.1576078,1.7678543 3.4162092,1.5954572 4.4362266,1.1925072 4.8494249,1.0995143 5.1171763,1.0392557 5.916776,0.99199317 6.656592,0.99269737 7.3341516,0.99334839 7.4610274,1.0075065 7.8389414,1.1246985 8.5046367,1.3311316 9.0045021,1.5094828 9.170363,1.5997486 c 0.6390276,0.3477743 1.133767,0.7327169 1.343925,1.0456688 0.166936,0.2485871 0.268659,0.4592287 0.293089,0.6069084 0.016,0.096734 0.02061,0.8124222 0.01677,2.603837 -0.0052,2.4071992 -0.0062,2.4681288 -0.04009,2.3802769 z"
       id="path2447" />
    <path
       style="opacity:1;fill:#ffaa00;fill-opacity:1;stroke:none;stroke-width:0.0192252"
       d="M 9.0597432,1.4339047 C 9.026004,1.411557 8.0773083,1.0977262 7.7459699,0.99930548 7.4720288,0.91793367 7.2511665,0.89712013 6.6565944,0.89664386 6.0524275,0.89615555 5.1573901,0.94611571 4.9071023,0.99428978 4.8489463,1.0054834 4.711768,1.0403915 4.6022617,1.0718642 4.4927554,1.1033361 4.3995737,1.1255011 4.3951912,1.1211184 4.3828095,1.1087366 4.5925286,1.0196908 4.7629135,0.96498393 5.1977468,0.82537008 5.5630521,0.78071295 6.270284,0.78071295 c 0.6036,0 0.9304377,0.0198733 1.2374924,0.0752452 0.2752276,0.0496324 0.8641759,0.22913825 1.1397598,0.34738705 0.2185115,0.093761 0.4698825,0.2229958 0.4698825,0.241577 0,0.01441 -0.027102,0.00923 -0.057675,-0.011019 z"
       id="path2449" />
  </g>
  <g
     inkscape:groupmode="layer"
     id="layer3"
     inkscape:label="Layer 2"
     style="display:inline;opacity:1">
    <path
       style="fill:none;stroke:#000000;stroke-width:0.4;stroke-linecap:butt;stroke-linejoin:miter;stroke-miterlimit:4;stroke-dasharray:none;stroke-opacity:1"
       d="m 3.8520223,11.029317 c 0,0 -1.0567206,-0.409265 -1.4780878,-0.970221 C 1.9525669,9.4981392 1.9153664,9.1752748 1.9153664,9.1752748 c 0,0 -0.1412164,-0.5014002 0.1294786,-1.0552305 0.2706948,-0.5538303 1.03947,-1.047396 1.03947,-1.047396 0,0 0.9836501,-0.5713334 1.7926547,-0.6817103 0.8090044,-0.1103771 1.6728228,-0.1288702 1.6728228,-0.1288702 0,0 0.7931094,-5.087e-4 1.3503207,0.1182311 0.5572113,0.1187482 1.4466249,0.5222557 1.4466249,0.5222557 0,0 0.4804473,0.214951 0.9452559,0.690569 0.464808,0.475618 0.548944,0.9589243 0.548944,0.9589243 0,0 0.119591,0.5080441 -0.149543,1.0977315 -0.269135,0.5896886 -1.1253116,1.0436696 -1.1253116,1.0436696 0,0 -1.1380137,0.653916 -1.4163758,0.769585 -0.2783619,0.115669 -0.8042717,0.258424 -0.8042717,0.258424 0,0 -0.5814297,0.101209 -1.0216331,0.09048 -0.4402034,-0.01074 -1.2843522,-0.155475 -1.2843522,-0.155475 0,0 -0.3454477,-0.09497 -0.7122058,-0.314103 C 3.960487,11.123227 3.8520223,11.029317 3.8520223,11.029317 Z"
       id="path2434" />
    <path
       style="fill:none;stroke:#000000;stroke-width:0.4;stroke-linecap:butt;stroke-linejoin:miter;stroke-miterlimit:4;stroke-dasharray:none;stroke-opacity:1"
       d="m 3.9052446,11.052048 c 0,0 -0.3005541,-0.277289 -0.408443,-0.568432 -0.1078886,-0.291145 -0.059289,-0.6184791 -0.059289,-0.6184791 0,0 0.033198,-0.1990239 0.2193335,-0.4576017 0.1861358,-0.258578 0.6381675,-0.5402869 0.6381675,-0.5402869 0,0 0.5039211,-0.2948674 0.9238648,-0.361773 0.4199433,-0.066906 1.1640464,-0.099262 1.1640464,-0.099262 0,0 0.6083802,-0.029134 1.0106274,0.08118 C 7.7957995,8.597707 8.08949,8.7152972 8.08949,8.7152972 c 0,0 0.4355607,0.1599675 0.5240513,0.2356485 0.08849,0.075681 0.1995083,0.1810638 0.1995083,0.1810638 0,0 0.2168923,0.1504003 0.3301918,0.3705175 0.1132994,0.2201175 0.150209,0.4723866 0.150209,0.4723866 0,0 0.043943,0.2022244 -0.071982,0.5142694 -0.1159248,0.312045 -0.4752109,0.680032 -0.4752109,0.680032"
       id="path2436" />
    <path
       style="opacity:1;fill:none;stroke:#000000;stroke-width:0.4;stroke-linecap:butt;stroke-linejoin:miter;stroke-miterlimit:4;stroke-dasharray:none;stroke-opacity:1"
       d="M 1.8898669,8.8312278 1.8379517,3.6143874 c 0,0 -0.00835,-0.3175948 0.1213083,-0.6303915 C 2.0889206,2.6711991 2.3843709,2.346784 2.3843709,2.346784 c 0,0 0.3572312,-0.3660405 0.7803155,-0.6430681 0.4230847,-0.2770277 1.3651939,-0.70560462 1.3651939,-0.70560462 0,0 0.4001229,-0.1788692 1.0331988,-0.24469919 0.6330761,-0.0658295 1.585292,0.003533 1.585292,0.003533 0,0 0.3986665,0.0433844 0.5809492,0.0953806 0.1822828,0.0519973 0.633218,0.18530041 0.633218,0.18530041 0,0 0.4499802,0.1670963 0.6687894,0.2963608 0.2188093,0.1292642 0.7669046,0.4717109 0.7669046,0.4717109 0,0 0.2940217,0.1959319 0.5365487,0.5092804 0.242527,0.3133491 0.334293,0.4879941 0.334293,0.4879941 0,0 0.130067,0.2208715 0.153281,0.3023699 0.02321,0.081498 0.05938,0.2907743 0.05938,0.2907743 l -0.01202,5.3813299"
       id="path2438" />
    <path
       style="fill:none;stroke:#000000;stroke-width:0.4;stroke-linecap:butt;stroke-linejoin:miter;stroke-miterlimit:4;stroke-dasharray:none;stroke-opacity:1"
       d="m 3.2943328,1.6274951 c 0,0 1.2190246,-0.5581624 1.7561514,-0.6104931 0.5371264,-0.0523318 1.1329771,-0.0677475 1.1329771,-0.0677475 0,0 1.085704,-0.0279393 1.3588791,0.0388412 0.273175,0.0667805 1.4435282,0.4630917 1.4435282,0.4630917 0,0 0.90081,0.4276972 1.4102404,0.9679105"
       id="path2441" />
  </g>
</svg>
