<?xml version="1.0" encoding="UTF-8"?>
<svg width="48" height="48" version="1.1" viewBox="0 0 12.7 12.7" xmlns="http://www.w3.org/2000/svg">
 <g fill="#ffaa00">
  <path d="m1.85 3.42c0 1.43-0.02 2.8 0.02 5.41 0.144 1.24 1.26 1.9 1.98 2.2 0.67 0.525 1.43 0.83 2.53 0.8 1.07-0.045 1.56-0.1 2.4-0.76 1.34-0.7 2.1-0.9 2.1-2.3 0-2.24 0.04-3.56-0.02-5.51-0.26-1.25-2.47-2.52-4.46-2.56-2.1 0-4.35 1.42-4.55 2.71z"/>
 </g>
 <g fill="none" stroke="#000000" stroke-width=".4">
  <path d="m3.85 11c-0.937-0.346-1.92-1.08-1.98-2.17-0-0.958 0.832-1.63 1.62-2 1.22-0.573 2.61-0.66 3.93-0.535 1.17 0.172 2.43 0.62 3.15 1.62 0.56 0.762 0.276 1.88-0.462 2.41-1.09 0.684-2.24 1.46-3.58 1.46-0.94 0.02-1.93-0.162-2.67-0.778z"/>
  <path d="m9.34 10.1c-0 0.953-1.34 1.72-2.98 1.71s-2.96-0.792-2.96-1.75c0-0.953 1.34-1.72 2.98-1.71s2.96 0.792 2.96 1.75z"/>
  <path d="m1.87 8.83c-7.67e-4 -1.8-0.03-3.61-0.02-5.41 0.127-0.91 0.945-1.51 1.7-1.93 0.758-0.432 1.59-0.791 2.48-0.754 1.22-0.0728 2.47 0.194 3.48 0.892 0.619 0.367 1.15 0.942 1.35 1.64 0.0482 1.86 7e-3 3.58 0.0018 5.51"/>
  <path d="m3.29 1.63c0.293-0.1 1.1-0.5 1.76-0.61 0.735-0.13 1.72-0.139 2.43-0.04 0.573 0.08 1.04 0.23 1.52 0.46 0.5 0.24 1.18 0.8 1.41 0.968"/>
 </g>
</svg>
