<?xml version="1.0" encoding="UTF-8"?>
<svg width="48" height="48" version="1.1" viewBox="0 0 48 48" xmlns="http://www.w3.org/2000/svg">
 <g fill="#ffaa00">
  <path d="m24 3.05c-7.79-0.21-13.6 5.06-14.7 10-2.02 16.6 1.12 18.2 4.8 20.8-0.373 6.3 3.65 9.57 8.4 9.78 5.1 0.41 9.83-3.15 9.27-8.68 2.28-1.18 5.79-3.39 6.76-8.78 0.262-4.6 1.61-11.8-0.493-14.7-1.01-3.43-7.5-8.97-14-8.42z"/>
 </g>
 <g fill="none" stroke="#000000" stroke-linecap="round" stroke-linejoin="round">
  <path d="m27.6 8.71c-5.12-2.18-12.2 0.838-11.7 6.73 0.297 3.6 5.71 8.75 13.1 5.16 5.22-3.08 4.39-9.61-1.4-11.9z"/>
  <path d="m39.1 14.8c-0.71-5.24-5.06-9.36-9.93-11-6.44-2.13-14.3 0.039-18.2 5.67-2.57 3.82-2.42 9.27 0.507 12.9 4.9 6.33 14.7 7.86 21.5 3.86 3.21-2 6.63-7.36 6.12-11.4z"/>
  <path d="m14.1 33.9v1.89c0.81 10.4 16.5 10.2 17.7 1.1l1.77e-4 -1.89"/>
  <path d="m9.12 15.2c-0.21 6.88-0.236 7.69-0.29 9.78-0.025 9.5 12.8 13.2 19.5 11.4 5.16-1.42 9.57-5.23 10.2-10.5 0.328-2.97 0.327-6.54 0.616-9.51"/>
  <path d="m29 20.6c-2.64 0.942-5.53 1.21-8.25 0.537-2.11-1.4-3.58-3.54-4.85-5.7 1.52-1.83 2.49-4 3.41-6.22 2.72 0.66 5.63 0.43 8.26-0.525 1.27 2.15 2.73 4.28 4.86 5.69-0.767 2.42-2 4.63-3.43 6.22z"/>
  <path d="m27.6 8.71-0.31 4.94"/>
  <path d="m17.3 17.6c0.618-1.13 1.18-2.28 1.73-3.45 2.76 0.3 5.57 0.11 8.27-0.525 1 1.54 2.16 3 3.46 4.37"/>
  <path d="m19.3 9.24-0.31 4.94"/>
  <ellipse transform="matrix(.998 .0621 .0621 -.998 0 0)" cx="25" cy="-13.4" rx="13.3" ry="11"/>
 </g>
</svg>
