<svg width="48" height="48" version="1.2" viewBox="0 0 127 127" xmlns="http://www.w3.org/2000/svg">
 <title>ISO4034</title>
 <desc>Drawing page: Page exported from FreeCAD document: Unnamed</desc>
 <path d="m41.721 8.8227c-6.8855 4.8527-12.391 9.3922-17.665 14.315l-0.0019 2e-3c-6.2417 5.9112-13.741 13.324-17.792 19.9l-0.95177 29.552c3.9457 8.5161 7.3968 15.328 10.883 21.47 2.7027-1.5347 0-0.36531 0 0.0019l11.998 17.804c10.273 2.6308 19.232 4.3276 28.22 5.3394h0.0019l29.282 0.6929c6.2813-4.4426 11.766-8.9002 17.265-14.033-1.6558-1.7738-1.6561-1.7738 2e-3 -2e-3l17.773-19.336c0.02-10.029 1.3546-20.095 0.97271-30.116-3.9455-8.5162-7.3986-15.327-10.884-21.47v-0.0019c-3.8735-6.8083-7.4353-12.185-11.431-17.659-10.818-2.7683-19.604-4.4504-28.787-5.484h-0.0019c-9.7012-1.0767-18.784-1.289-28.882-0.97461z" color="#000000" fill="#ffaf00" stroke-width=".97461" style="-inkscape-stroke:none"/>
 <path d="m28.593 110.29c10.216 2.6162 19.092 4.2958 27.999 5.2985 8.908 0.98914 17.837 1.3001 28.165 0.9809m-56.164-6.2794 1.1236-29.373m-12.111 12.339c3.4593 6.0811 6.9423 11.48 10.988 17.033m-21.809-38.385c3.9326 8.4881 7.3633 15.257 10.822 21.351m-10.822-21.351 1.1236-29.373m77.973 44.664-1.1237 29.373m34.355-32.106 1.1236-29.373m-18.384 47.584c5.449-5.0987 10.921-10.872 17.26-18.212m-34.355 32.106c6.2272-4.4043 11.646-8.8087 17.095-13.894m-15.971-15.479c-10.216-2.6162-19.092-4.2959-28-5.2985-8.9079-0.98914-17.837-1.3001-28.165-0.98081-3.9326-8.4881-7.3633-15.257-10.822-21.351-3.4593-6.0811-6.9423-11.48-10.988-17.033 6.3395-7.3396 11.811-13.113 17.26-18.212 5.4485-5.0852 10.868-9.4901 17.095-13.894 10.328-0.31918 19.256-0.0078 28.165 0.9809 8.9074 1.0026 17.783 2.6824 27.999 5.2985 4.045 5.5526 7.528 10.952 10.988 17.033 3.4586 6.0947 6.8894 12.863 10.822 21.351-6.2271 4.4042-11.646 8.8086-17.095 13.894-5.4491 5.0987-10.921 10.872-17.26 18.212m7.6875-39.418c0.45145-11.801-12.352-21.871-28.597-22.493-16.245-0.62139-29.78 8.4415-30.231 20.242-0.45145 11.801 12.352 21.871 28.597 22.493 16.245 0.62139 29.78-8.4415 30.231-20.242" fill="none" stroke="#000000" stroke-width="3.2491"/>
</svg>
