<?xml version="1.0" encoding="UTF-8" standalone="no"?>
<svg
   xmlns:dc="http://purl.org/dc/elements/1.1/"
   xmlns:cc="http://creativecommons.org/ns#"
   xmlns:rdf="http://www.w3.org/1999/02/22-rdf-syntax-ns#"
   xmlns:svg="http://www.w3.org/2000/svg"
   xmlns="http://www.w3.org/2000/svg"
   xmlns:sodipodi="http://sodipodi.sourceforge.net/DTD/sodipodi-0.dtd"
   xmlns:inkscape="http://www.inkscape.org/namespaces/inkscape"
   sodipodi:docname="ISO4026.svg"
   inkscape:version="1.0 (4035a4fb49, 2020-05-01)"
   id="svg8"
   version="1.1"
   viewBox="0 0 12.7 12.7"
   height="48"
   width="48">
  <defs
     id="defs2" />
  <sodipodi:namedview
     inkscape:window-maximized="1"
     inkscape:window-y="0"
     inkscape:window-x="0"
     inkscape:window-height="1027"
     inkscape:window-width="1920"
     inkscape:snap-nodes="false"
     inkscape:snap-bbox-midpoints="true"
     inkscape:snap-bbox="true"
     units="px"
     showgrid="false"
     inkscape:document-rotation="0"
     inkscape:current-layer="layer1"
     inkscape:document-units="mm"
     inkscape:cy="24.3601"
     inkscape:cx="25.89526"
     inkscape:zoom="15.839192"
     inkscape:pageshadow="2"
     inkscape:pageopacity="0.0"
     borderopacity="1.0"
     bordercolor="#666666"
     pagecolor="#ffffff"
     id="base" />
  <metadata
     id="metadata5">
    <rdf:RDF>
      <cc:Work
         rdf:about="">
        <dc:format>image/svg+xml</dc:format>
        <dc:type
           rdf:resource="http://purl.org/dc/dcmitype/StillImage" />
        <dc:title></dc:title>
      </cc:Work>
    </rdf:RDF>
  </metadata>
  <g
     id="layer1"
     inkscape:groupmode="layer"
     inkscape:label="Layer 1">
    <g
       style="stroke:#000000;stroke-width:0.320525;stroke-miterlimit:4;stroke-dasharray:none;stroke-opacity:1"
       transform="matrix(0.16234038,0,0,0.16234038,-11.059943,-11.699727)"
       id="g1895">
      <path
         id="path1190"
         d="m 101.9091,147.61088 c -1.9565,-0.21004 -4.03154,-0.72672 -6.55706,-1.63269 -1.835923,-0.65859 -1.85891,-0.89028 -0.0364,-0.36665 5.52982,1.58875 15.62182,1.53554 22.09211,-0.11647 1.18657,-0.30296 2.20679,-0.50144 2.26715,-0.44108 0.23438,0.23437 -4.90385,1.83901 -7.43016,2.3204 -2.77028,0.52787 -6.76924,0.61937 -10.33566,0.23649 z m -2.73906,-2.52782 c -7.042512,-1.0257 -14.076264,-4.24938 -16.604836,-7.61026 -1.031811,-1.37144 -1.687401,-2.38439 -1.689089,-2.60978 -0.0016,-0.19657 0.114228,-0.12815 4.496524,2.65931 3.198696,2.03461 6.620671,3.42178 10.583331,4.29021 2.37943,0.52145 3.53755,0.60935 8.06979,0.61246 6.1434,0.004 9.37079,-0.50351 14.20563,-2.2348 6.6905,-2.39577 14.45069,-7.95626 16.74452,-11.99812 0.84772,-1.49373 0.8925,-1.53013 0.97645,-0.79375 0.14612,1.28179 -0.82195,4.64044 -1.82394,6.32803 -3.38338,5.69842 -11.60645,10.02987 -21.63599,11.39663 -3.32537,0.45316 -10.07574,0.43293 -13.32239,-0.0399 z m 2.73906,-3.57473 c -1.41622,-0.11893 -1.01149,-0.15952 1.71979,-0.17249 1.96453,-0.009 4.34578,-0.0826 5.29166,-0.16275 1.62564,-0.13781 1.65461,-0.13074 0.52917,0.12911 -1.4135,0.32637 -4.95573,0.42319 -7.54062,0.20613 z m -3.90261,-0.41658 c 0.1819,-0.0734 0.47956,-0.0734 0.66146,0 0.1819,0.0734 0.0331,0.13346 -0.33073,0.13346 -0.3638,0 -0.51263,-0.0601 -0.33073,-0.13346 z m -1.30638,-0.27009 c 0.191,-0.0764 0.4192,-0.067 0.50712,0.0209 0.0879,0.0879 -0.0684,0.15045 -0.34726,0.13896 -0.30823,-0.0127 -0.37092,-0.0754 -0.15986,-0.15985 z m 7.3859,-0.53938 c 0.4697,-0.0584 1.30313,-0.0594 1.85208,-0.002 0.54895,0.0573 0.16465,0.1051 -0.85399,0.10627 -1.01865,0.001 -1.46779,-0.0457 -0.99809,-0.10414 z m -5.94219,-0.25698 c 0.25743,-0.0671 0.61462,-0.0627 0.79375,0.01 0.17913,0.0725 -0.0315,0.12736 -0.46806,0.12197 -0.43656,-0.005 -0.58312,-0.0647 -0.32569,-0.13177 z m 13.62101,-0.25646 c 0.1819,-0.0734 0.47955,-0.0734 0.66145,0 0.1819,0.0734 0.0331,0.13345 -0.33073,0.13345 -0.3638,0 -0.51263,-0.0601 -0.33072,-0.13345 z m 1.3185,-0.12219 c 0.17948,-0.18082 0.39297,-0.26211 0.47443,-0.18065 0.0815,0.0815 -0.0654,0.22941 -0.32631,0.32876 -0.37709,0.14359 -0.40748,0.1132 -0.14812,-0.14811 z m -15.40757,-1.00274 c -5.738766,-0.81792 -8.801744,-1.74115 -12.567704,-3.78809 -5.160777,-2.80507 -7.703169,-5.96114 -8.051516,-9.99497 -0.168228,-1.94806 0.129272,-3.31707 0.480414,-2.21073 0.2868,0.90363 4.01356,4.34875 5.924047,5.47635 1.02688,0.60608 2.718678,1.6264 3.759549,2.26737 5.23327,3.22264 14.23328,4.66466 22.50381,3.60566 6.32034,-0.80929 10.96317,-2.51525 16.55849,-6.08424 4.21555,-2.68889 7.33235,-5.53247 8.71082,-7.94724 0.49842,-0.87312 0.91821,-1.4089 0.93286,-1.19062 0.23239,3.46259 -0.9838,6.92339 -3.56508,10.1448 -1.30428,1.62772 -5.36336,4.54134 -8.19223,5.88039 -7.60665,3.60062 -17.80628,5.07948 -26.49346,3.84132 z m 21.43125,-0.55193 c 0.72737,-0.31255 1.14511,-0.31255 0.66146,0 -0.21828,0.14107 -0.57547,0.24994 -0.79375,0.24194 -0.26169,-0.01 -0.21662,-0.092 0.13229,-0.24194 z m -18.04815,-4.95831 c 0.84206,-0.0527 2.15175,-0.0522 2.91042,0.001 0.75867,0.0533 0.0697,0.0964 -1.53102,0.0957 -1.60073,-5.3e-4 -2.22146,-0.0442 -1.3794,-0.0968 z m 5.55023,0.006 c 0.40218,-0.0608 0.99749,-0.0592 1.32292,0.004 0.32542,0.0628 -0.004,0.11256 -0.73125,0.11058 -0.7276,-0.002 -0.99385,-0.0534 -0.59167,-0.11419 z m -8.32148,-0.25546 c 0.191,-0.0764 0.4192,-0.067 0.50712,0.0209 0.0879,0.0879 -0.0683,0.15045 -0.34726,0.13896 -0.30823,-0.0127 -0.37092,-0.0754 -0.15986,-0.15985 z m 11.09905,-0.006 c 0.32912,-0.0633 0.80537,-0.0609 1.05833,0.005 0.25297,0.0662 -0.0163,0.11801 -0.59839,0.11507 -0.58209,-0.003 -0.78906,-0.0571 -0.45994,-0.12041 z m 2.3947,-0.2582 c 0.191,-0.0764 0.4192,-0.067 0.50712,0.0209 0.0879,0.0879 -0.0683,0.15045 -0.34726,0.13896 -0.30823,-0.0127 -0.37092,-0.0754 -0.15986,-0.15985 z m -16.66875,-0.26458 c 0.191,-0.0764 0.4192,-0.067 0.50712,0.0209 0.0879,0.0879 -0.0683,0.15045 -0.34726,0.13896 -0.30823,-0.0127 -0.37092,-0.0754 -0.15986,-0.15985 z m 3.3569,-0.34841 -0.79375,-0.20198 0.71199,-0.0313 c 0.3916,-0.0172 0.78558,0.0878 0.87551,0.23328 0.0899,0.14552 0.12673,0.25049 0.0818,0.23328 -0.045,-0.0172 -0.43895,-0.1222 -0.87552,-0.23328 z m 5.75469,0.0718 c 0.5457,-0.0571 1.43867,-0.0571 1.98438,0 0.5457,0.0571 0.0992,0.10378 -0.99219,0.10378 -1.09141,0 -1.53789,-0.0467 -0.99219,-0.10378 z m 7.36424,-0.43127 c 0.0606,-0.0522 0.58649,-0.16785 1.16857,-0.25708 0.72072,-0.11049 0.93173,-0.0815 0.66146,0.0908 -0.3615,0.23047 -2.08688,0.38726 -1.83003,0.16629 z m -14.04497,-1.22817 c -5.895031,-0.84153 -8.705257,-1.71634 -12.826402,-3.99278 -3.020314,-1.66837 -5.620416,-4.08271 -6.699972,-6.2213 -0.866912,-1.71734 -1.369933,-5.17952 -0.860904,-5.92541 0.211836,-0.31041 0.271727,-0.3182 0.274897,-0.0358 0.007,0.62531 4.029011,4.52748 5.555041,5.38954 0.803256,0.45377 2.115311,1.26351 2.915676,1.79943 2.084194,1.39556 3.319248,1.98108 6.123069,2.90286 6.991485,2.29852 15.876995,2.4143 23.510265,0.30636 4.03247,-1.11357 6.54536,-2.26402 10.7178,-4.90681 4.23961,-2.68533 7.336,-5.5084 8.74073,-7.96916 0.49842,-0.87312 0.91864,-1.40891 0.93381,-1.19062 0.23499,3.38004 -1.03276,7.06087 -3.44715,10.00864 -1.35593,1.65547 -5.32092,4.56804 -8.10758,5.95559 -7.28442,3.6271 -17.8722,5.15806 -26.82928,3.87942 z m 21.56354,-0.52907 c 0.72737,-0.31256 1.14511,-0.31256 0.66146,0 -0.21828,0.14106 -0.57547,0.24994 -0.79375,0.24193 -0.26169,-0.01 -0.21662,-0.092 0.13229,-0.24193 z m -18.1901,-4.95756 c 0.76398,-0.0534 2.01414,-0.0534 2.77812,0 0.76399,0.0534 0.13891,0.0972 -1.38906,0.0972 -1.52797,0 -2.15304,-0.0437 -1.38906,-0.0972 z m 5.82083,0.008 c 0.32742,-0.0631 0.86321,-0.0631 1.19063,0 0.32742,0.0631 0.0595,0.11466 -0.59531,0.11466 -0.65485,0 -0.92274,-0.0516 -0.59532,-0.11466 z m 2.64892,-0.26499 c 0.32912,-0.0633 0.80537,-0.0609 1.05833,0.005 0.25297,0.0662 -0.0163,0.118 -0.59839,0.11507 -0.58209,-0.003 -0.78906,-0.0571 -0.45994,-0.12041 z m 2.3947,-0.25819 c 0.191,-0.0764 0.4192,-0.067 0.50712,0.0209 0.0879,0.0879 -0.0683,0.15045 -0.34726,0.13896 -0.30823,-0.0127 -0.37092,-0.0754 -0.15986,-0.15985 z m -16.66875,-0.26458 c 0.191,-0.0764 0.4192,-0.067 0.50712,0.0209 0.0879,0.0879 -0.0683,0.15046 -0.34726,0.13897 -0.30823,-0.0127 -0.37092,-0.0754 -0.15986,-0.15985 z m 3.3569,-0.34843 -0.79375,-0.20197 0.71199,-0.0313 c 0.3916,-0.0172 0.78558,0.0878 0.87551,0.23328 0.0899,0.14552 0.12673,0.2505 0.0818,0.23328 -0.045,-0.0172 -0.43895,-0.12219 -0.87552,-0.23328 z m 5.62939,0.0705 c 0.62231,-0.0559 1.57481,-0.0551 2.11667,0.002 0.54185,0.0568 0.0327,0.10258 -1.13147,0.10162 -1.16417,-10e-4 -1.60751,-0.0475 -0.9852,-0.10337 z m 7.79822,-0.51748 c 0.25466,-0.0665 0.67138,-0.0665 0.92604,0 0.25466,0.0666 0.0463,0.12101 -0.46302,0.12101 -0.50932,0 -0.71768,-0.0545 -0.46302,-0.12101 z M 98.1043,122.32584 c -1.51055,-0.19394 -3.653675,-0.55135 -4.762496,-0.79424 -6.873657,-1.50571 -13.288035,-5.4941 -15.324708,-9.52872 -0.866912,-1.71735 -1.369933,-5.17952 -0.860904,-5.92541 0.211836,-0.31041 0.271727,-0.3182 0.274897,-0.0358 0.0021,0.19861 0.92097,1.30333 2.041647,2.45493 1.93499,1.98839 2.611045,2.46567 8.095283,5.71512 6.621759,3.92344 18.491851,4.87173 27.967121,2.23425 4.04659,-1.12638 6.55481,-2.27612 10.7178,-4.91292 4.23961,-2.68533 7.336,-5.5084 8.74073,-7.96916 0.49842,-0.87313 0.91864,-1.40891 0.93381,-1.19063 0.23765,3.41841 -1.03963,7.08841 -3.51456,10.09838 -1.37657,1.67418 -5.11466,4.39929 -8.04017,5.8614 -3.15892,1.57876 -8.6119,3.18446 -13.12802,3.86571 -4.16829,0.62879 -8.87786,0.67432 -13.14043,0.12705 z m 21.00271,-0.63795 c 0.72737,-0.31256 1.14511,-0.31256 0.66146,0 -0.21828,0.14106 -0.57547,0.24993 -0.79375,0.24193 -0.26169,-0.01 -0.21662,-0.092 0.13229,-0.24193 z m -12.85485,-4.84577 c 0.11957,-0.11958 0.67959,-0.17701 1.24447,-0.12762 l 1.02705,0.0898 -1.24447,0.12762 c -0.68446,0.0702 -1.14663,0.0298 -1.02705,-0.0898 z m -5.32638,-0.1121 c 0.76886,-0.0536 1.95949,-0.0531 2.64583,0.001 0.68635,0.0543 0.0573,0.0982 -1.39793,0.0975 -1.45521,-7.9e-4 -2.01676,-0.0451 -1.2479,-0.0987 z m 8.46088,-0.25635 c 0.32912,-0.0633 0.80537,-0.0609 1.05833,0.005 0.25297,0.0662 -0.0163,0.118 -0.59839,0.11507 -0.58209,-0.003 -0.78906,-0.0571 -0.45994,-0.12041 z m -12.95113,-0.25819 c 0.19099,-0.0764 0.4192,-0.067 0.50712,0.0209 0.0879,0.0879 -0.0683,0.15045 -0.34727,0.13896 -0.30822,-0.0127 -0.37092,-0.0754 -0.15985,-0.15985 z m 2.03398,-0.61301 -0.79375,-0.20198 0.71199,-0.0313 c 0.3916,-0.0172 0.78558,0.0878 0.87551,0.23328 0.0899,0.14552 0.12673,0.2505 0.0818,0.23328 -0.045,-0.0172 -0.43895,-0.1222 -0.87552,-0.23328 z m 5.75469,0.0718 c 0.5457,-0.0571 1.43867,-0.0571 1.98438,0 0.5457,0.0571 0.0992,0.10379 -0.99219,0.10379 -1.09141,0 -1.53789,-0.0467 -0.99219,-0.10379 z m 7.67292,-0.51881 c 0.25466,-0.0666 0.67138,-0.0666 0.92604,0 0.25466,0.0665 0.0463,0.121 -0.46302,0.121 -0.50932,0 -0.71768,-0.0545 -0.46302,-0.121 z M 98.07264,114.1287 c -5.691038,-0.72904 -9.233774,-1.80957 -13.27707,-4.04947 -4.706847,-2.60751 -7.238103,-5.76786 -7.810823,-9.75205 -0.359219,-2.498948 -0.02482,-2.758898 1.360853,-1.057848 1.230889,1.511038 3.117032,3.053608 5.439539,4.448678 0.800365,0.48076 1.812396,1.13565 2.248959,1.4553 1.338609,0.98015 3.851748,2.12487 6.349999,2.89239 8.839993,2.71585 19.400633,2.14963 28.068993,-1.50495 2.96434,-1.24977 4.56791,-2.33161 7.73976,-5.22156 4.1996,-3.826368 5.73183,-6.287108 6.09671,-9.791208 l 0.18143,-1.74243 0.44678,0.83289 c 1.14978,2.14344 1.3208,5.52687 0.41929,8.29524 -1.10813,3.402828 -2.70986,5.575928 -5.95782,8.083018 -7.39937,5.71155 -19.96155,8.56534 -31.3066,7.112 z m 20.24062,-0.37835 c 0.29104,-0.12507 0.70776,-0.2274 0.92604,-0.2274 0.25016,0 0.20126,0.0841 -0.13229,0.2274 -0.29104,0.12506 -0.70776,0.22739 -0.92604,0.22739 -0.25016,0 -0.20125,-0.0841 0.13229,-0.22739 z m -15.7427,-5.02516 -3.04271,-0.16096 4.12512,-0.0528 c 2.26881,-0.029 5.10375,-0.18449 6.29985,-0.34546 1.19611,-0.16097 2.23282,-0.2346 2.3038,-0.16362 0.10583,0.10583 -2.81034,0.50479 -5.9819,0.81837 -0.3638,0.036 -2.03068,-0.007 -3.70416,-0.0956 z m -4.16216,-0.44986 c 0.25743,-0.0671 0.61462,-0.0627 0.79375,0.01 0.17913,0.0725 -0.0315,0.12736 -0.46805,0.12197 -0.43657,-0.005 -0.58313,-0.0647 -0.3257,-0.13177 z m -1.98941,-0.25646 c 0.1819,-0.0734 0.47956,-0.0734 0.66146,0 0.1819,0.0734 0.0331,0.13345 -0.33073,0.13345 -0.3638,0 -0.51263,-0.0601 -0.33073,-0.13345 z m 16.42071,-0.2701 c 0.19099,-0.0764 0.4192,-0.067 0.50711,0.0209 0.0879,0.0879 -0.0683,0.15045 -0.34726,0.13896 -0.30823,-0.0127 -0.37092,-0.0754 -0.15985,-0.15985 z m -12.56427,-0.63091 c -9.469196,-0.72872 -18.204994,-4.38312 -21.045188,-8.803728 -0.452667,-0.70455 -0.963427,-1.42139 -1.13502,-1.59299 -0.6229,-0.6229 -1.505976,-3.82767 -1.303843,-4.73178 l 0.192474,-0.86089 0.291788,0.82034 c 1.17838,3.31289 6.411701,6.88624 11.962653,8.168188 1.415712,0.32695 5.813386,0.87479 7.114556,0.88631 0.29104,0.003 1.5412,0.18971 2.77812,0.41587 4.45797,0.81507 12.71665,0.63874 17.08071,-0.36469 6.87948,-1.581808 12.76615,-5.649348 14.55805,-10.059248 0.83311,-2.05029 0.87193,-4.68375 0.098,-6.64723 -0.6407,-1.62547 -0.14912,-1.41212 0.89113,0.38676 1.05503,1.82444 1.60798,3.85795 1.59468,5.86453 -0.0104,1.56537 -0.15922,2.15929 -0.96153,3.83646 -3.34117,6.984578 -12.58748,11.696868 -24.89894,12.689498 -1.87652,0.1513 -3.66246,0.25814 -3.96875,0.23742 -0.30629,-0.0207 -1.76829,-0.13088 -3.24889,-0.24482 z m 2.16283,-6.24536 c -5.31637,-0.66014 -9.072693,-1.894338 -12.832287,-4.216238 -5.441397,-3.36058 -7.637902,-7.86295 -6.084464,-12.47186 3.217595,-9.54634 24.351201,-13.65943 37.935441,-7.38313 5.73113,2.64795 9.14674,7.1053 8.71787,11.37678 -0.31049,3.09244 -2.23796,5.92151 -5.46702,8.02429 -4.88603,3.1818 -11.61845,4.899328 -18.82995,4.803778 -1.45521,-0.0193 -3.00302,-0.0794 -3.43959,-0.13362 z m 10.26713,-3.646748 c 4.88398,-1.15838 8.59839,-3.32951 10.55062,-6.16698 1.11426,-1.61953 1.33872,-4.1388 0.53137,-5.96396 -2.15433,-4.87021 -8.96939,-8.12005 -17.03049,-8.12119 -6.72078,-9.5e-4 -12.249731,1.83089 -15.622229,5.17593 -6.058847,6.00951 -1.132025,13.20732 10.509849,15.35433 2.42349,0.44693 8.66564,0.28998 11.06088,-0.27813 z m -9.95844,-0.58513 c -0.097,-0.097 -0.17639,-4.13451 -0.17639,-8.97221 v -8.79583 l 2.3151,1.02874 c 3.39825,1.51004 5.56843,1.92397 9.28386,1.77075 1.69697,-0.07 3.29377,-0.21608 3.54843,-0.32467 0.43374,-0.18494 0.46302,0.21224 0.46302,6.28078 0,4.86802 -0.0822,6.54259 -0.33073,6.73725 -0.61677,0.48309 -4.02526,1.62833 -6.07426,2.04092 -2.04205,0.4112 -8.67988,0.58343 -9.02903,0.23427 z m -3.61598,-0.71612 c -3.88161,-1.04013 -5.458757,-2.07921 -6.59683,-4.3462 -0.561017,-1.11752 -2.212663,-5.90127 -2.073256,-6.00488 0.03912,-0.0291 0.785505,-0.19039 1.65863,-0.35846 2.336165,-0.4497 4.473016,-1.61699 7.077606,-3.86625 l 2.3151,-1.99927 v 8.6015 c 0,4.73082 -0.0298,8.5958 -0.0661,8.58885 -0.0364,-0.007 -1.07818,-0.28383 -2.31511,-0.61529 z m 19.85818,-7.24343 0.0144,-4.69635 0.5217,1.32292 c 0.78179,1.98244 1.06359,2.52918 1.99931,3.87895 l 0.85485,1.23312 -1.55042,1.47886 c -0.85273,0.81337 -1.61879,1.47886 -1.70235,1.47886 -0.0836,0 -0.14545,-2.11336 -0.13751,-4.69636 z m -27.98949,2.51994 c -0.557258,-0.69781 -1.061569,-1.96411 -1.236713,-3.10532 -0.235117,-1.53197 -0.115993,-1.37143 0.865719,1.1667 0.800037,2.06843 0.902587,2.60429 0.370994,1.93862 z m 30.96518,-3.45741 c -0.88145,-1.4737 -1.68744,-3.35732 -2.14206,-5.00604 l -0.27093,-0.98257 0.6211,0.40696 c 0.71055,0.46557 1.71314,1.72142 2.30007,2.8811 0.48502,0.9583 0.77503,2.99847 0.51729,3.63894 -0.14958,0.3717 -0.35346,0.18513 -1.02547,-0.93839 z m -30.632744,-4.26058 c 0.92643,-1.41391 5.120414,-3.71471 8.029174,-4.40476 l 0.89176,-0.21156 -0.89176,0.93198 c -1.88481,1.96984 -5.104267,3.80256 -7.344697,4.18108 l -1.135671,0.19187 z m 20.102004,-2.98482 c -1.50849,-0.12867 -3.95525,-0.79597 -5.95014,-1.62277 l -1.7168,-0.71154 1.17554,-0.15726 c 2.55002,-0.34114 9.22385,0.82072 11.24438,1.95755 0.47654,0.26811 0.38606,0.32407 -0.78423,0.48499 -1.38121,0.18992 -2.19866,0.20001 -3.96875,0.049 z m -25.555008,17.28744 c -4.273651,-1.78079 -6.906914,-4.20266 -7.708516,-7.08967 -0.480285,-1.72977 -0.259975,-3.57731 0.549251,-4.60608 1.525873,-1.93983 3.585154,-3.80581 3.877468,-3.5135 0.05753,0.0575 -0.06045,0.63607 -0.262191,1.28563 -0.835999,2.69181 -1.050211,3.9206 -0.986264,5.65753 0.05423,1.47322 0.222774,2.10224 0.863161,3.22152 1.005184,1.75688 3.209454,3.89094 5.196155,5.03064 1.947354,1.11714 1.1362,1.12453 -1.529064,0.0139 z m -3.164414,-6.28296 c -0.162431,-0.3035 -0.245491,-0.60166 -0.184579,-0.66257 0.06091,-0.0609 0.2466,0.18741 0.412639,0.55182 0.364614,0.80025 0.187084,0.88646 -0.22806,0.11075 z"
         style="fill:#fca700;stroke:#000000;stroke-width:0.320525;stroke-miterlimit:4;stroke-dasharray:none;stroke-opacity:1" />
      <path
         id="path1176"
         d="m 102.17368,148.49476 c -3.37187,-0.29184 -8.708209,-2.16561 -11.244791,-3.94844 -0.654844,-0.46025 -1.964531,-1.22064 -2.910416,-1.68974 -4.012166,-1.98982 -7.38274,-5.32623 -8.351271,-8.26662 -0.48082,-1.45973 -1.434002,-3.42398 -1.444321,-2.97635 -0.0033,0.14336 -0.426209,-0.51324 -0.939787,-1.45913 -1.356849,-2.49899 -1.724861,-5.85407 -0.912212,-8.31642 0.187688,-0.5687 0.199928,-1.09519 0.03551,-1.52763 -0.137983,-0.36292 -0.334317,-1.61638 -0.436298,-2.78547 -0.144203,-1.65313 -0.08836,-2.41785 0.251232,-3.44026 0.313254,-0.94311 0.365655,-1.50137 0.18542,-1.97542 -0.138178,-0.36343 -0.334671,-1.61732 -0.436652,-2.78641 -0.144203,-1.65312 -0.08836,-2.41784 0.251232,-3.44025 0.318236,-0.95812 0.366927,-1.49803 0.179544,-1.99088 -0.51685,-1.35942 -0.626102,-5.009748 -0.186314,-6.225138 0.3723,-1.02889 0.371284,-1.2881 -0.01087,-2.77813 -0.87717,-3.42 0.0099,-7.09563 2.376144,-9.84545 1.556001,-1.80825 1.983036,-2.18178 4.393837,-3.84339 0.955638,-0.65866 2.51143,-1.77787 3.457316,-2.48713 3.531396,-2.64797 9.164127,-4.78347 14.416387,-5.46559 2.77409,-0.36028 11.46641,-0.17145 13.49715,0.2932 2.99607,0.68553 5.18221,1.44333 7.96002,2.75923 5.54574,2.62712 9.72805,6.37533 11.11769,9.96375 0.24733,0.63865 0.65656,1.39931 0.9094,1.69035 0.75349,0.8673 1.82518,3.2031 2.27801,4.965 0.33028,1.28512 0.37813,2.1757 0.21657,4.03083 -0.11407,1.30969 -0.16808,2.97657 -0.12003,3.704168 0.048,0.7276 0.0821,2.27542 0.0756,3.43958 -0.0249,4.49635 -0.0284,5.89626 -0.0202,8.0698 0.005,1.23692 0.005,3.08239 0,4.10104 -0.005,1.01864 -0.004,2.86411 0.002,4.10104 0.006,1.23693 0.002,3.14193 -0.008,4.23333 -0.0101,1.09141 -0.001,2.75828 0.0199,3.70417 0.0714,3.2086 -1.48824,6.38082 -4.64328,9.44429 -2.07766,2.01735 -4.94569,3.97548 -7.50426,5.12349 -0.89242,0.40042 -1.70132,0.85546 -1.79757,1.01119 -0.15738,0.25465 -3.53418,2.25751 -3.85589,2.28702 -0.0728,0.007 -0.37042,0.14078 -0.66146,0.29801 -3.04128,1.64301 -10.19885,2.54255 -16.13959,2.02836 z m 10.31875,-1.05086 c 3.02023,-0.49429 8.74502,-2.55154 8.4461,-3.03519 -0.0749,-0.12126 -0.3391,-0.10766 -0.58701,0.0302 -0.54847,0.30503 -4.06739,1.25958 -5.34555,1.45004 -3.73121,0.556 -5.12487,0.6598 -8.92059,0.66444 -4.6379,0.006 -8.96053,-0.4789 -11.703229,-1.31192 -0.93836,-0.285 -1.744657,-0.47964 -1.791766,-0.43253 -0.165092,0.16509 3.779415,1.73494 5.482255,2.18184 4.21758,1.1069 9.42502,1.27053 14.41979,0.4531 z m -0.90922,-2.07022 c 13.22418,-1.70974 22.44874,-7.63358 24.17151,-15.52245 0.24758,-1.13373 0.36208,-2.34063 0.26047,-2.74549 -0.17617,-0.70192 -0.20584,-0.67919 -1.04467,0.80082 -1.4107,2.48896 -4.5626,5.43382 -8.32288,7.77616 -4.88869,3.04524 -5.48521,3.35426 -8.49301,4.39972 -7.33975,2.55117 -15.71631,3.02727 -23.25699,1.32186 -1.52797,-0.34556 -3.46613,-0.93455 -4.307023,-1.30885 -0.840896,-0.3743 -1.649945,-0.68055 -1.797886,-0.68055 -0.147945,0 -1.126816,-0.57398 -2.175269,-1.27552 -1.048454,-0.70154 -2.576939,-1.6548 -3.396634,-2.11835 -0.819692,-0.46355 -1.637943,-1.02066 -1.818333,-1.23802 -0.490476,-0.59099 -0.853892,-0.4775 -0.640858,0.20012 0.347398,1.105 2.575653,3.64821 4.346832,4.96124 6.014479,4.45872 16.828691,6.67645 26.474741,5.42931 z m 0.36562,-4.40051 c 2.17488,-0.42886 4.01042,-0.83585 4.07899,-0.90443 0.21237,-0.21237 -0.58391,-0.1377 -1.55276,0.1456 -0.50836,0.14865 -2.6507,0.45734 -4.76076,0.68597 -4.30112,0.46604 -10.07524,0.33079 -13.49374,-0.31608 -2.800346,-0.52989 -3.171723,-0.42367 -0.66146,0.1892 2.6009,0.635 9.00771,1.28127 10.98021,1.10761 0.80036,-0.0705 3.23465,-0.47901 5.40952,-0.90787 z m -3.84407,-0.66004 c 0.0606,-0.0575 -1.54671,-0.10825 -3.57188,-0.11286 -2.02516,-0.005 -4.93227,-0.17943 -6.46024,-0.3885 -3.493612,-0.478 -4.344928,-0.46016 -2.11667,0.0444 2.74422,0.62135 11.62294,0.95533 12.14879,0.45699 z m 5.71059,-0.64617 c 0.7276,-0.1782 1.42936,-0.42022 1.55946,-0.53781 0.13011,-0.1176 -0.004,-0.15093 -0.29776,-0.0741 -0.29387,0.0768 -1.94813,0.3643 -3.67613,0.63879 -3.12192,0.49591 -3.12841,0.49844 -1.02516,0.39809 1.16417,-0.0555 2.71198,-0.24679 3.43959,-0.42499 z M 92.119514,138.7836 c -1.164167,-0.32556 -2.414323,-0.68867 -2.778125,-0.80692 -0.363802,-0.11826 -0.590301,-0.13899 -0.50333,-0.0461 0.31982,0.34171 3.83531,1.4449 4.604372,1.4449 0.487722,0 -0.02233,-0.22821 -1.322917,-0.59191 z m 19.631276,-0.16 c 10.10284,-1.54846 19.03856,-6.29451 22.26484,-11.82558 1.51919,-2.60448 2.74495,-7.8906 1.94441,-8.38536 -0.11692,-0.0723 -0.58709,0.54579 -1.04482,1.37344 -1.33499,2.41392 -4.69096,5.47875 -8.99519,8.21482 -2.07367,1.31817 -3.77031,2.34875 -3.77031,2.29017 0,-0.0586 -0.90043,0.30384 -2.00096,0.80537 -6.11303,2.7858 -16.00008,3.84105 -23.53133,2.51152 -3.991715,-0.70467 -8.227906,-2.32741 -10.715624,-4.10476 -0.654844,-0.46786 -1.845469,-1.22168 -2.645833,-1.67515 -1.890231,-1.07098 -4.907359,-3.81706 -5.542261,-5.04437 l -0.498478,-0.96359 -0.266674,0.69157 c -0.367696,0.95356 0.04834,4.00731 0.77088,5.65843 0.379709,0.86769 1.2866,2.01581 2.635475,3.33649 3.034117,2.97071 7.141805,5.0652 12.666402,6.45854 4.963253,1.25177 13.012203,1.53474 18.729473,0.65846 z m 6.44349,0.0103 c 1.16483,-0.24757 3.83014,-1.32117 3.29398,-1.32683 -0.39203,-0.004 -5.48771,1.55424 -5.66639,1.73291 -0.0843,0.0844 0.14406,0.0851 0.50756,0.002 0.3635,-0.0835 1.20268,-0.26693 1.86485,-0.40766 z m -30.462438,-1.17154 c -0.269066,-0.24519 -2.888369,-1.48237 -2.888369,-1.36427 0,0.16106 2.417855,1.43524 2.756077,1.45242 0.133392,0.007 0.192923,-0.0329 0.132292,-0.0881 z m 36.611108,-1.19744 c 0.94236,-0.42281 1.79865,-0.90671 1.90286,-1.07533 0.10421,-0.16862 -0.50688,0.0357 -1.35799,0.45394 -0.85111,0.41828 -1.84513,0.89412 -2.20893,1.05742 -0.3638,0.16329 -0.52373,0.30495 -0.3554,0.3148 0.16834,0.01 1.07709,-0.32803 2.01946,-0.75083 z m -39.764061,-0.41509 c 0,-0.069 -0.357187,-0.31021 -0.79375,-0.53596 -0.995066,-0.51457 -1.055274,-0.29107 -0.06614,0.24554 0.831466,0.45108 0.859895,0.46068 0.859895,0.29042 z m -2.645833,-1.55329 c 0,-0.0502 -0.26789,-0.3181 -0.595312,-0.59531 l -0.595313,-0.50403 0.504029,0.59531 c 0.473662,0.55945 0.686596,0.71577 0.686596,0.50403 z m 27.465684,-1.08186 c 3.74712,-0.4465 4.26855,-0.82131 0.71244,-0.51211 -4.04861,0.35202 -11.13352,0.20021 -13.77742,-0.29521 -2.185339,-0.4095 -3.340735,-0.41395 -1.779172,-0.007 4.274102,1.11425 9.787922,1.41668 14.844152,0.81418 z m 20.43389,-0.44364 c 0.95114,-0.85456 0.67724,-0.74924 -0.64099,0.24649 -0.4198,0.3171 -0.65343,0.57655 -0.51917,0.57655 0.13426,0 0.65634,-0.37037 1.16016,-0.82304 z m -22.45257,-0.49053 c 1.06555,-0.14038 2.7684,-0.32239 3.78411,-0.40447 1.78879,-0.14456 3.76873,-0.57994 4.17002,-0.91698 0.10777,-0.0905 -1.02333,0.0532 -2.51354,0.31945 -4.08845,0.73035 -10.42266,0.88113 -14.71512,0.35029 -1.94644,-0.24071 -3.585473,-0.39117 -3.642297,-0.33435 -0.251069,0.25107 3.774627,0.81573 6.916697,0.97017 1.89177,0.093 3.5798,0.19202 3.75117,0.22009 0.17137,0.0281 1.1834,-0.0638 2.24896,-0.2042 z m 6.23134,0.0954 c -0.0879,-0.0879 -0.31613,-0.0973 -0.50712,-0.0209 -0.21107,0.0845 -0.14837,0.14716 0.15985,0.15985 0.27892,0.0115 0.43519,-0.051 0.34727,-0.13896 z m -21.624178,-1.82236 c -1.236927,-0.34129 -2.592892,-0.75261 -3.013257,-0.91406 -0.420365,-0.16144 -0.814758,-0.24307 -0.876432,-0.1814 -0.198414,0.19842 4.523075,1.71293 5.344898,1.71448 0.464645,8e-4 -0.138713,-0.25578 -1.455209,-0.61902 z m 19.927568,-0.14677 c 10.02154,-1.55572 18.88347,-6.2915 22.10125,-11.81082 1.4944,-2.56327 2.69875,-7.65484 1.98055,-8.37304 -0.0968,-0.0968 -0.52874,0.44887 -0.95982,1.21267 -1.40972,2.49776 -4.68234,5.51002 -8.91616,8.20681 -2.10887,1.34328 -3.89481,2.44363 -3.96875,2.44522 -0.0739,0.002 -1.14646,0.43881 -2.38339,0.9716 -6.3734,2.74522 -15.51389,3.66239 -23.28333,2.33628 -3.49121,-0.59589 -8.226222,-2.37405 -10.186459,-3.82535 -0.436562,-0.32322 -1.627187,-1.07619 -2.645833,-1.67328 -2.265371,-1.32787 -5.265296,-4.01265 -5.939136,-5.31522 l -0.498478,-0.9636 -0.266674,0.69157 c -0.367696,0.95356 0.04834,4.00732 0.77088,5.65843 0.899289,2.05501 4.12106,5.04313 7.264609,6.73777 5.501893,2.96599 10.845961,4.14177 19.125531,4.20794 3.18104,0.0254 5.23507,-0.10799 7.80521,-0.50698 z m 5.80898,0.14901 c 0.93076,-0.21585 2.33713,-0.69398 3.12527,-1.0625 1.68866,-0.78958 1.32091,-0.71344 -2.40349,0.49762 -3.0723,0.99903 -3.27382,1.15674 -0.72178,0.56488 z M 87.731842,129.2603 c -0.269066,-0.24519 -2.888369,-1.48238 -2.888369,-1.36427 0,0.16105 2.417855,1.43523 2.756077,1.45241 0.133392,0.007 0.192923,-0.0329 0.132292,-0.0881 z m 36.636708,-1.18956 c 0.92292,-0.41848 1.76529,-0.90204 1.87193,-1.07458 0.1563,-0.2529 -3.41162,1.37358 -3.80413,1.73416 -0.29529,0.27128 0.41089,0.0302 1.9322,-0.65958 z M 84.049723,127.3857 c 0,-0.0676 -0.267891,-0.25281 -0.595313,-0.41147 -0.571666,-0.27703 -0.57491,-0.27215 -0.08172,0.12298 0.539819,0.43248 0.677035,0.49095 0.677035,0.28849 z m -2.116667,-1.29983 c 0,-0.0549 -0.208359,-0.2633 -0.463021,-0.46302 -0.419645,-0.32911 -0.429003,-0.31975 -0.0999,0.0999 0.345644,0.44073 0.562917,0.58089 0.562917,0.36313 z m 48.678574,-2.09939 c 0.005,-0.22645 -2.32022,1.36498 -2.55909,1.75149 -0.0765,0.12376 0.46694,-0.17134 1.20763,-0.65579 0.74069,-0.48445 1.34885,-0.97752 1.35146,-1.0957 z m -21.2942,1.02449 c 1.74625,-0.20703 3.47266,-0.50424 3.83646,-0.66047 0.64494,-0.27695 0.64163,-0.28102 -0.13229,-0.16284 -5.11748,0.78144 -12.42882,0.78241 -16.86622,0.002 -2.134557,-0.37529 -3.015384,-0.36672 -1.600792,0.0156 4.117382,1.11275 9.632832,1.41368 14.762842,0.80549 z m -0.87219,-1.16996 c 0.10237,-0.0928 -1.38591,-0.13099 -3.3073,-0.0848 -1.92138,0.0462 -4.68405,-0.0499 -6.13926,-0.21359 -4.738877,-0.53311 -4.863578,-0.53704 -3.04271,-0.096 2.87752,0.69696 11.84347,0.98008 12.48927,0.39437 z m 7.12881,-0.96411 c 2.69312,-0.62576 6.69946,-1.94724 6.50202,-2.14468 -0.0421,-0.0421 -1.40083,0.3377 -3.01942,0.84399 -1.61858,0.50629 -4.59112,1.21007 -6.60563,1.56396 -3.09449,0.5436 -3.36937,0.62723 -1.77176,0.53905 1.04004,-0.0574 3.2427,-0.41845 4.89479,-0.80232 z m -22.263911,-0.16193 c -2.878823,-0.77109 -5.60275,-1.70574 -6.943185,-2.38239 -0.837914,-0.42298 -1.523481,-0.70981 -1.523481,-0.6374 0,0.53644 7.206474,3.27827 8.598958,3.27162 0.789956,-0.004 0.789323,-0.005 -0.132292,-0.25183 z m 18.601241,-0.51049 c 9.99234,-1.55324 18.6736,-6.14189 22.0012,-11.62916 1.54761,-2.55204 2.82853,-7.81 2.08401,-8.55452 -0.0968,-0.0968 -0.52874,0.44888 -0.95982,1.21267 -1.41806,2.51254 -4.68453,5.52128 -8.91496,8.21154 -2.10821,1.34068 -3.89415,2.4389 -3.96875,2.4405 -0.0746,0.002 -1.14766,0.43881 -2.38459,0.97159 -7.90372,3.40439 -19.11922,3.91804 -27.465671,1.25789 -2.601029,-0.82899 -5.384824,-2.11084 -6.268701,-2.88653 -0.291042,-0.25542 -1.362604,-0.945 -2.38125,-1.53241 -2.226834,-1.28411 -5.256916,-3.99784 -5.941552,-5.32123 l -0.496062,-0.95888 -0.266674,0.69157 c -0.368162,0.95476 0.04879,4.00922 0.772409,5.65843 0.372557,0.8491 1.302512,2.0376 2.596457,3.31834 2.974898,2.94452 7.886176,5.42384 13.125005,6.62578 4.916619,1.12803 13.000619,1.34444 18.468949,0.49442 z m 12.45717,-2.33586 c 0.92292,-0.41847 1.76529,-0.90203 1.87193,-1.07458 0.1563,-0.2529 -3.41162,1.37359 -3.80413,1.73417 -0.29529,0.27127 0.41089,0.0302 1.9322,-0.65959 z m -40.318827,-0.68504 c 0,-0.0676 -0.267891,-0.2528 -0.595313,-0.41147 -0.571666,-0.27703 -0.57491,-0.27214 -0.08172,0.12298 0.539819,0.43249 0.677035,0.49096 0.677035,0.28849 z m -2.116667,-1.29983 c 0,-0.0549 -0.208359,-0.2633 -0.463021,-0.46302 -0.419645,-0.32911 -0.429003,-0.31975 -0.0999,0.0999 0.345644,0.44073 0.562917,0.58089 0.562917,0.36312 z m 47.689334,-1.23622 c 0.54471,-0.35654 0.9912,-0.74495 0.99219,-0.86313 0.002,-0.24396 -2.33681,1.38212 -2.58429,1.79671 -0.10392,0.17409 -0.0256,0.17141 0.2202,-0.008 0.20984,-0.15278 0.82719,-0.5695 1.3719,-0.92604 z m -20.17267,0.15235 c 1.67349,-0.21219 3.57849,-0.56716 4.23333,-0.78883 0.65485,-0.22167 0.89297,-0.34065 0.52917,-0.26441 -4.61064,0.9663 -13.68968,1.09275 -18.0845,0.25189 -2.37874,-0.45513 -2.680868,-0.47035 -1.759248,-0.0886 1.305378,0.54068 6.272478,1.21942 9.128128,1.24732 1.60073,0.0156 4.27963,-0.14518 5.95312,-0.35736 z m -1.00743,-1.16095 c 0.10075,-0.0928 -2.04237,-0.17949 -4.7625,-0.19253 -7.33298,-0.0351 -12.389594,-1.00541 -17.248817,-3.30971 -2.380038,-1.12865 -2.623646,-1.05428 -0.396875,0.12115 3.564075,1.88134 9.705972,3.32673 15.345832,3.61138 3.51319,0.17731 6.73402,0.0723 7.06236,-0.23029 z m 7.09285,-0.93986 c 2.73629,-0.64464 6.73769,-1.97217 6.54009,-2.16977 -0.0426,-0.0426 -1.33428,0.31719 -2.87047,0.79945 -2.75149,0.86378 -4.12057,1.17441 -8.29983,1.88311 l -2.11667,0.35893 1.85209,-0.0774 c 1.01864,-0.0426 3.2213,-0.40002 4.89479,-0.79428 z m -3.63222,-0.68221 c 6.70433,-1.03485 12.85804,-3.41367 17.11563,-6.61633 2.54495,-1.91437 3.7824,-3.19517 4.98558,-5.16026 1.03537,-1.69101 2.16197,-5.208038 2.161,-6.746198 -0.001,-1.61051 -0.59043,-4.00615 -1.23683,-5.02706 l -0.5302,-0.8374 -0.17965,1.75347 c -0.1974,1.92678 -1.06186,4.12596 -2.34397,5.96307 -1.5362,2.2012 -8.90407,8.466668 -9.95637,8.466668 -0.13652,0 -1.063,0.36748 -2.05883,0.81663 -2.59091,1.16857 -7.09505,2.29695 -11.01832,2.76032 -3.55594,0.41998 -8.94385,0.24344 -12.48811,-0.40917 -3.659669,-0.67386 -8.322633,-2.51453 -10.89806,-4.30191 -0.46414,-0.32211 -1.676659,-1.10803 -2.69449,-1.74647 -1.940179,-1.217 -4.274738,-3.358688 -5.00757,-4.593878 -0.237424,-0.40019 -0.511189,-0.72761 -0.608362,-0.72761 -0.681122,0 -0.297471,3.961018 0.576601,5.953128 0.37288,0.84983 1.303174,2.03825 2.60146,3.32326 2.948972,2.91883 7.126761,5.0756 12.590835,6.49998 4.641116,1.20985 13.358576,1.49894 18.989656,0.62976 z m 12.82179,-2.53654 c 1.08298,-0.52089 1.91138,-1.00474 1.8409,-1.07522 -0.0705,-0.0705 -1.06312,0.34975 -2.20587,0.93385 -2.58305,1.32028 -2.30778,1.42691 0.36497,0.14137 z m -42.791654,-1.79004 c 0,-0.0502 -0.26789,-0.3181 -0.595312,-0.59531 l -0.595313,-0.50403 0.504029,0.59531 c 0.473662,0.55945 0.686596,0.71576 0.686596,0.50403 z m 27.526724,-1.0889 c 2.99622,-0.38179 7.82803,-1.55264 8.30647,-2.01284 0.1357,-0.13053 -0.16195,-0.11573 -0.66146,0.0329 -6.40369,1.90517 -14.65073,2.23675 -22.604026,0.90883 -0.774909,-0.12939 -0.77805,-0.1256 -0.132292,0.15952 1.239788,0.5474 6.210688,1.23688 9.138178,1.26751 1.60626,0.0168 4.28517,-0.14335 5.95313,-0.35589 z m 20.74042,-0.5324 c 0.28042,-0.21924 0.45156,-0.45691 0.38031,-0.52815 -0.0712,-0.0712 -0.53881,0.23099 -1.03902,0.67165 -0.87993,0.77516 -0.37588,0.66535 0.65871,-0.1435 z m -20.08902,-1.05153 c 7.1021,-0.9827 12.91375,-3.12036 17.21484,-6.33202 4.9448,-3.692318 7.23496,-9.125748 5.69201,-13.504378 -0.65559,-1.86047 -1.79438,-3.70334 -2.95999,-4.7901 l -0.84466,-0.78751 0.55498,0.79375 c 0.92748,1.32652 1.71333,4.07582 1.55036,5.42396 -0.37923,3.1372 -1.04969,4.57005 -3.17622,6.78789 -2.90682,3.03167 -6.66305,4.99231 -12.09774,6.314678 -2.83387,0.68954 -3.4042,0.73724 -9.10858,0.76182 -4.67763,0.0202 -6.60569,-0.0754 -8.33437,-0.4131 -1.23693,-0.24163 -3.38006,-0.51496 -4.762504,-0.6074 -6.125551,-0.40959 -12.039023,-2.904748 -14.885961,-6.281048 -0.616733,-0.7314 -1.081397,-1.39262 -1.032586,-1.46936 0.04881,-0.0767 -0.01651,-0.21237 -0.145172,-0.3014 -0.128656,-0.089 -0.406479,-0.69765 -0.617387,-1.3525 l -0.383471,-1.19062 -0.08288,1.45521 c -0.122177,2.14516 0.578445,4.26498 2.126821,6.43494 1.551726,2.174668 1.838659,2.447218 4.242107,4.029508 3.537101,2.32863 8.922409,4.18396 14.482693,4.98953 3.30105,0.47825 9.25639,0.49633 12.56771,0.0382 z m 0.39687,-6.09526 c 7.40245,-0.8021 13.50596,-3.260178 16.95018,-6.826378 1.62868,-1.68636 2.89357,-4.44965 2.89357,-6.32131 0,-5.54514 -5.32574,-10.55986 -13.55113,-12.75974 -5.39542,-1.443 -10.06355,-1.77337 -15.29971,-1.08275 -9.29226,1.22558 -16.517121,5.26887 -18.103165,10.13116 -0.251418,0.77076 -0.462121,2.19966 -0.468228,3.17534 -0.01511,2.41268 1.192263,4.82546 3.546102,7.08645 4.122065,3.95947 9.839431,6.217148 17.020931,6.721238 1.45521,0.10215 2.82442,0.20311 3.04271,0.22438 0.21828,0.0213 2.00421,-0.13551 3.96874,-0.34839 z m -6.48229,-3.309578 c -1.30968,-0.10072 -2.79797,-0.27175 -3.30729,-0.38005 -6.15414,-1.3086 -11.033271,-4.62144 -11.854254,-8.04882 -0.330526,-1.37986 -0.126553,-3.35395 0.469828,-4.54711 0.324697,-0.64961 1.285283,-1.84092 2.134635,-2.64736 6.770271,-6.42823 22.643161,-6.5572 29.698791,-0.24132 2.18282,1.95396 2.96804,3.61888 2.94089,6.2356 -0.0596,5.74069 -9.81606,10.41867 -20.0826,9.62906 z m 8.73125,-1.30202 c 2.01471,-0.49277 3.51599,-1.01101 4.82865,-1.66684 0.59344,-0.2965 0.59531,-0.31819 0.59531,-6.8792 v -6.58176 l -1.52135,0.20752 c -2.4124,0.32908 -6.39074,0.17952 -8.26823,-0.31081 -0.94589,-0.24704 -2.59976,-0.85529 -3.67528,-1.35167 -1.07552,-0.49638 -2.05937,-0.90252 -2.18633,-0.90252 -0.12822,0 -0.19987,3.96479 -0.16118,8.91784 l 0.0697,8.91783 0.66146,0.20329 c 1.16322,0.3575 7.39194,2.7e-4 9.65729,-0.55368 z m -10.9802,-8.68078 v -8.9226 l -1.78594,1.75329 c -2.91955,2.86617 -5.445796,4.27055 -8.354064,4.64416 -0.556533,0.0715 -1.073703,0.2911 -1.149266,0.48802 -0.2931,0.76381 2.000009,6.68558 3.051199,7.87946 0.897784,1.01966 5.744111,2.99035 7.510461,3.05403 l 0.72761,0.0262 z m 20.63749,2.52772 c 0,-0.10585 -0.3125,-0.52601 -0.69444,-0.93369 -0.70475,-0.75223 -1.35694,-2.05486 -2.2257,-4.4454 l -0.48078,-1.32292 -0.0193,5.15173 -0.0193,5.15174 1.71973,-1.70451 c 0.94589,-0.93748 1.71979,-1.79111 1.71979,-1.89695 z m -31.39999,-0.28586 c -1.348179,-3.66896 -1.369727,-3.70365 -1.39043,-2.23842 -0.01884,1.33298 0.655976,3.0104 1.645573,4.0905 0.299984,0.32742 0.567642,0.59532 0.594796,0.59532 0.02716,0 -0.355319,-1.10133 -0.849939,-2.4474 z m 32.18969,-2.52234 c 0.005,-1.46855 -0.96756,-3.38256 -2.3574,-4.6382 -0.59381,-0.53647 -1.1483,-0.9754 -1.23221,-0.9754 -0.49004,0 1.17969,4.43638 2.37929,6.32165 0.85482,1.34341 1.20372,1.1393 1.21032,-0.70805 z m -28.497271,-4.14974 c 2.579951,-1.23871 6.246201,-4.37428 5.114621,-4.37428 -0.69793,0 -4.1358,1.34036 -5.542825,2.16103 -1.369381,0.79872 -3.349636,2.52483 -3.349636,2.91976 0,0.51471 2.021853,0.1366 3.77784,-0.70651 z m 21.622161,-2.76322 c 0.63686,-0.18127 0.64178,-0.1989 0.13229,-0.47402 -0.84727,-0.4575 -4.07519,-1.42619 -6.08542,-1.8262 -2.00345,-0.39867 -6.36876,-0.50234 -6.5826,-0.15633 -0.16308,0.26387 2.59073,1.48039 4.87633,2.15415 1.75451,0.5172 6.27741,0.69577 7.6594,0.3024 z m -26.215799,18.66911 c -0.06063,-0.051 -0.88415,-0.49142 -1.830035,-0.97867 -3.987398,-2.05405 -6.591519,-5.2545 -6.763139,-8.31188 -0.09711,-1.72991 0.390845,-4.9042 0.753875,-4.9042 0.120814,0 0.153911,-0.10638 0.07355,-0.23641 -0.08036,-0.13003 0.03168,-0.74031 0.248968,-1.35618 0.217294,-0.61588 0.395078,-1.17173 0.395078,-1.23524 0,-0.34507 -2.560335,1.80205 -3.669482,3.07727 -1.058579,1.21707 -1.325747,1.73208 -1.479872,2.85271 -0.541428,3.93665 2.493396,7.69166 7.927479,9.80873 2.427703,0.94582 4.761778,1.63572 4.343578,1.28387 z m -4.424798,-4.22135 c -0.909389,-0.91754 -1.590559,-1.75098 -1.513711,-1.85208 0.07685,-0.1011 0.05489,-0.11883 -0.04879,-0.0394 -0.10368,0.0794 -0.574154,-0.60518 -1.045496,-1.52135 -0.618453,-1.20212 -0.860557,-1.49327 -0.869823,-1.04604 -0.0071,0.34085 0.225288,0.92245 0.516329,1.29245 0.291042,0.37 0.529167,0.82562 0.529167,1.01249 0,0.3083 3.632022,3.82221 3.950689,3.82221 0.07429,0 -0.608981,-0.75072 -1.518369,-1.66827 z"
         style="fill:#1a1918;stroke:#000000;stroke-width:0.320525;stroke-miterlimit:4;stroke-dasharray:none;stroke-opacity:1" />
    </g>
  </g>
</svg>
