<?xml version="1.0" encoding="UTF-8" standalone="no"?>
<!-- Created with Inkscape (http://www.inkscape.org/) -->

<svg
   xmlns:dc="http://purl.org/dc/elements/1.1/"
   xmlns:cc="http://creativecommons.org/ns#"
   xmlns:rdf="http://www.w3.org/1999/02/22-rdf-syntax-ns#"
   xmlns:svg="http://www.w3.org/2000/svg"
   xmlns="http://www.w3.org/2000/svg"
   xmlns:sodipodi="http://sodipodi.sourceforge.net/DTD/sodipodi-0.dtd"
   xmlns:inkscape="http://www.inkscape.org/namespaces/inkscape"
   width="48"
   height="48"
   viewBox="0 0 48.000001 48.000001"
   id="svg15825"
   version="1.1"
   inkscape:version="0.91 r13725"
   sodipodi:docname="ISO7048.svg">
  <defs
     id="defs15827" />
  <sodipodi:namedview
     id="base"
     pagecolor="#ffffff"
     bordercolor="#666666"
     borderopacity="1.0"
     inkscape:pageopacity="0.0"
     inkscape:pageshadow="2"
     inkscape:zoom="12.625"
     inkscape:cx="24"
     inkscape:cy="24"
     inkscape:document-units="px"
     inkscape:current-layer="layer1"
     showgrid="false"
     units="px"
     inkscape:window-width="1260"
     inkscape:window-height="787"
     inkscape:window-x="0"
     inkscape:window-y="0"
     inkscape:window-maximized="0" />
  <metadata
     id="metadata15830">
    <rdf:RDF>
      <cc:Work
         rdf:about="">
        <dc:format>image/svg+xml</dc:format>
        <dc:type
           rdf:resource="http://purl.org/dc/dcmitype/StillImage" />
        <dc:title></dc:title>
      </cc:Work>
    </rdf:RDF>
  </metadata>
  <g
     inkscape:label="Layer 1"
     inkscape:groupmode="layer"
     id="layer1"
     transform="translate(0,-1004.3622)">
    <g
       transform="matrix(3.7697293,0,0,3.7697292,-838.9722,177.21782)"
       id="g15008">
      <path
         sodipodi:nodetypes="ccccccccc"
         inkscape:connector-curvature="0"
         id="path15002"
         d="m 228.88249,220.44967 c -1.3403,0.0205 -2.73353,0.66728 -3.41813,1.87812 -0.51905,0.91394 -0.47199,2.11655 0.109,2.99037 0.62261,0.99503 1.71687,1.59748 2.84208,1.78957 0.5527,0.10643 1.1233,0.0409 1.67665,-0.0282 1.22409,-0.24671 2.40789,-1.05892 2.82957,-2.29256 0.3505,-1.011 0.0418,-2.18462 -0.67683,-2.95137 -0.84166,-0.94953 -2.12077,-1.41611 -3.36234,-1.38594 z"
         style="opacity:1;fill:#ffaa00;fill-opacity:0.94117647;fill-rule:evenodd;stroke:none;stroke-width:1;stroke-linecap:round;stroke-linejoin:round;stroke-miterlimit:4;stroke-dasharray:none;stroke-dashoffset:0;stroke-opacity:1" />
      <path
         transform="scale(0.28222222,0.28222223)"
         inkscape:connector-curvature="0"
         id="path15004"
         d="m 796.97512,795.41539 c -0.64008,1.69234 -0.5285,3.55951 -0.4158,5.33588 0.76869,4.03052 3.88996,7.24194 7.48747,8.99882 2.64581,1.31577 5.62833,1.94103 8.58037,1.72569 4.93713,-0.10187 9.93173,-2.68115 12.42092,-7.02503 1.20573,-2.14026 1.64388,-4.7487 1.12793,-7.14583 -0.28374,-0.66026 -1.04841,-0.13735 -1.12652,0.39184 -1.478,3.11486 -4.35904,5.36809 -7.55117,6.47571 -1.61316,0.59297 -3.26497,0.92047 -5.01231,0.83478 -1.7123,0.0515 -3.38799,-0.0366 -5.03666,-0.58993 -3.55745,-1.03077 -6.88433,-3.30157 -8.68641,-6.61347 -0.48416,-0.78814 -0.61763,-1.76257 -1.15839,-2.50021 -0.25759,-0.087 -0.41628,-0.0549 -0.62943,0.11175 z"
         style="opacity:1;fill:#ffaa00;fill-opacity:0.94117647;fill-rule:evenodd;stroke:none;stroke-width:1;stroke-linecap:round;stroke-linejoin:round;stroke-miterlimit:4;stroke-dasharray:none;stroke-dashoffset:0;stroke-opacity:1" />
      <path
         transform="scale(0.28222222,0.28222223)"
         inkscape:connector-curvature="0"
         id="path15006"
         d="m 802.01783,809.29733 c -0.501,2.09622 -0.0737,4.47266 1.37283,6.1266 2.79968,3.26708 7.84756,4.21318 11.68817,2.31663 2.38094,-1.06489 4.27663,-3.38913 4.35086,-6.06266 0.0199,-0.51821 0.32564,-1.5593 -0.49259,-1.52342 -1.74902,0.66468 -3.52104,1.23866 -5.40465,1.40245 -3.66423,0.4137 -7.4089,-0.50421 -10.62815,-2.27266 -0.28083,-0.17534 -0.63602,-0.25982 -0.88647,0.0131 z"
         style="opacity:1;fill:#ffaa00;fill-opacity:0.94117647;fill-rule:evenodd;stroke:none;stroke-width:1;stroke-linecap:round;stroke-linejoin:round;stroke-miterlimit:4;stroke-dasharray:none;stroke-dashoffset:0;stroke-opacity:1" />
      <g
         id="g14502">
        <path
           style="fill:none;stroke:#000000;stroke-width:0.28222224;stroke-linecap:round;stroke-linejoin:round;stroke-miterlimit:4;stroke-dasharray:none"
           d="m 225.17315,223.207 a 3.99476,3.31257 3.5595999 0 0 6.25726,3.4091"
           id="path10709"
           inkscape:connector-curvature="0" />
        <path
           style="fill:none;stroke:#000000;stroke-width:0.28222224;stroke-linecap:round;stroke-linejoin:round;stroke-miterlimit:4;stroke-dasharray:none"
           id="60"
           d="m 226.32592,228.20526 -0.0463,0.63569"
           inkscape:connector-curvature="0"
           sodipodi:nodetypes="cc" />
        <path
           style="fill:none;stroke:#000000;stroke-width:0.28222224;stroke-linecap:round;stroke-linejoin:round;stroke-miterlimit:4;stroke-dasharray:none"
           id="61"
           d="m 231.3163,228.51565 -0.0464,0.63575"
           inkscape:connector-curvature="0"
           sodipodi:nodetypes="cc" />
        <path
           style="fill:none;stroke:#000000;stroke-width:0.28222224;stroke-linecap:round;stroke-linejoin:round;stroke-miterlimit:4;stroke-dasharray:none"
           d="m 233.08019,223.69599 c -0.0398,-0.40078 -0.15512,-0.81226 -0.40922,-1.25099 -0.13854,-0.23755 -0.32061,-0.48231 -0.57573,-0.73339 -0.25735,-0.25094 -0.58775,-0.50821 -1.06707,-0.74301 -0.39535,-0.19436 -0.99695,-0.39436 -1.63793,-0.43998 -0.63706,-0.0548 -1.3125,0.0465 -1.75891,0.19567 -0.54101,0.17495 -0.91901,0.39664 -1.21596,0.6189 -0.29544,0.22369 -0.51043,0.44711 -0.68012,0.66979 -0.30862,0.40566 -0.47305,0.79966 -0.56154,1.19139"
           id="path9402"
           inkscape:connector-curvature="0" />
        <path
           style="fill:none;stroke:#000000;stroke-width:0.28222224;stroke-linecap:round;stroke-linejoin:round;stroke-miterlimit:4;stroke-dasharray:none"
           id="63"
           d="m 233.08023,223.69828 0.1525,1.62553"
           inkscape:connector-curvature="0" />
        <path
           style="fill:none;stroke:#000000;stroke-width:0.28222224;stroke-linecap:round;stroke-linejoin:round;stroke-miterlimit:4;stroke-dasharray:none"
           id="64"
           d="m 225.17315,223.207 -0.35288,1.594"
           inkscape:connector-curvature="0" />
        <path
           style="fill:none;stroke:#000000;stroke-width:0.28222224;stroke-linecap:round;stroke-linejoin:round;stroke-miterlimit:4;stroke-dasharray:none"
           d="m 230.23284,230.70855 c 0.61627,-0.35576 0.99784,-0.92868 1.03706,-1.55715"
           id="path10198"
           inkscape:connector-curvature="0"
           sodipodi:nodetypes="cc" />
        <path
           style="fill:none;stroke:#000000;stroke-width:0.28222224;stroke-linecap:round;stroke-linejoin:round;stroke-miterlimit:4;stroke-dasharray:none"
           d="m 226.27961,228.84095 c -0.10754,1.7347 2.2522,2.84949 3.95323,1.8676"
           id="path10200"
           inkscape:connector-curvature="0"
           sodipodi:nodetypes="cc" />
        <path
           style="fill:none;stroke:#000000;stroke-width:0.28222224;stroke-linecap:round;stroke-linejoin:round;stroke-miterlimit:4;stroke-dasharray:none"
           id="399"
           d="m 228.11955,223.07052 -1.23706,-0.17145"
           inkscape:connector-curvature="0" />
        <path
           style="fill:none;stroke:#000000;stroke-width:0.28222224;stroke-linecap:round;stroke-linejoin:round;stroke-miterlimit:4;stroke-dasharray:none"
           id="400"
           d="m 228.52324,222.98294 -0.40369,0.0876"
           inkscape:connector-curvature="0" />
        <path
           style="fill:none;stroke:#000000;stroke-width:0.28222224;stroke-linecap:round;stroke-linejoin:round;stroke-miterlimit:4;stroke-dasharray:none"
           id="401"
           d="m 228.76067,222.70037 -0.23743,0.28257"
           inkscape:connector-curvature="0" />
        <path
           style="fill:none;stroke:#000000;stroke-width:0.28222224;stroke-linecap:round;stroke-linejoin:round;stroke-miterlimit:4;stroke-dasharray:none"
           id="402"
           d="m 228.98676,221.68417 -0.22609,1.0162"
           inkscape:connector-curvature="0" />
        <path
           style="fill:none;stroke:#000000;stroke-width:0.28222224;stroke-linecap:round;stroke-linejoin:round;stroke-miterlimit:4;stroke-dasharray:none"
           d="m 229.99542,221.84083 a 2.4,1.99015 3.5595999 0 0 -1.00866,-0.15666"
           id="path10210"
           inkscape:connector-curvature="0" />
        <path
           style="fill:none;stroke:#000000;stroke-width:0.28222224;stroke-linecap:round;stroke-linejoin:round;stroke-miterlimit:4;stroke-dasharray:none"
           id="404"
           d="m 229.81843,222.86447 0.17699,-1.02364"
           inkscape:connector-curvature="0" />
        <path
           style="fill:none;stroke:#000000;stroke-width:0.28222224;stroke-linecap:round;stroke-linejoin:round;stroke-miterlimit:4;stroke-dasharray:none"
           id="405"
           d="m 229.93298,223.20248 -0.11455,-0.33801"
           inkscape:connector-curvature="0" />
        <path
           style="fill:none;stroke:#000000;stroke-width:0.28222224;stroke-linecap:round;stroke-linejoin:round;stroke-miterlimit:4;stroke-dasharray:none"
           id="406"
           d="m 230.27921,223.40557 -0.34623,-0.20309"
           inkscape:connector-curvature="0" />
        <path
           style="fill:none;stroke:#000000;stroke-width:0.28222224;stroke-linecap:round;stroke-linejoin:round;stroke-miterlimit:4;stroke-dasharray:none"
           id="407"
           d="m 231.50813,223.61751 -1.22892,-0.21194"
           inkscape:connector-curvature="0" />
        <path
           style="fill:none;stroke:#000000;stroke-width:0.28222224;stroke-linecap:round;stroke-linejoin:round;stroke-miterlimit:4;stroke-dasharray:none"
           d="m 231.34315,224.45177 a 2.4,1.99015 3.5595999 0 0 0.16498,-0.83426"
           id="path10216"
           inkscape:connector-curvature="0" />
        <path
           style="fill:none;stroke:#000000;stroke-width:0.28222224;stroke-linecap:round;stroke-linejoin:round;stroke-miterlimit:4;stroke-dasharray:none"
           id="409"
           d="m 230.10601,224.28037 1.23714,0.1714"
           inkscape:connector-curvature="0" />
        <path
           style="fill:none;stroke:#000000;stroke-width:0.28222224;stroke-linecap:round;stroke-linejoin:round;stroke-miterlimit:4;stroke-dasharray:none"
           id="410"
           d="m 229.70232,224.36795 0.40369,-0.0876"
           inkscape:connector-curvature="0" />
        <path
           style="fill:none;stroke:#000000;stroke-width:0.28222224;stroke-linecap:round;stroke-linejoin:round;stroke-miterlimit:4;stroke-dasharray:none"
           id="411"
           d="m 229.46489,224.65052 0.23743,-0.28257"
           inkscape:connector-curvature="0" />
        <path
           style="fill:none;stroke:#000000;stroke-width:0.28222224;stroke-linecap:round;stroke-linejoin:round;stroke-miterlimit:4;stroke-dasharray:none"
           id="412"
           d="m 229.2388,225.66672 0.22609,-1.0162"
           inkscape:connector-curvature="0" />
        <path
           style="fill:none;stroke:#000000;stroke-width:0.28222224;stroke-linecap:round;stroke-linejoin:round;stroke-miterlimit:4;stroke-dasharray:none"
           d="m 228.23013,225.51006 a 2.4,1.99015 3.5595999 0 0 1.00867,0.15666"
           id="path10222"
           inkscape:connector-curvature="0" />
        <path
           style="fill:none;stroke:#000000;stroke-width:0.28222224;stroke-linecap:round;stroke-linejoin:round;stroke-miterlimit:4;stroke-dasharray:none"
           id="414"
           d="m 228.40713,224.48642 -0.177,1.02364"
           inkscape:connector-curvature="0" />
        <path
           style="fill:none;stroke:#000000;stroke-width:0.28222224;stroke-linecap:round;stroke-linejoin:round;stroke-miterlimit:4;stroke-dasharray:none"
           id="415"
           d="m 228.29308,224.14928 0.11405,0.33714"
           inkscape:connector-curvature="0" />
        <path
           style="fill:none;stroke:#000000;stroke-width:0.28222224;stroke-linecap:round;stroke-linejoin:round;stroke-miterlimit:4;stroke-dasharray:none"
           id="416"
           d="m 227.94634,223.94532 0.34674,0.20396"
           inkscape:connector-curvature="0" />
        <path
           style="fill:none;stroke:#000000;stroke-width:0.28222224;stroke-linecap:round;stroke-linejoin:round;stroke-miterlimit:4;stroke-dasharray:none"
           id="417"
           d="m 226.71743,223.73338 1.22891,0.21194"
           inkscape:connector-curvature="0" />
        <path
           style="fill:none;stroke:#000000;stroke-width:0.28222224;stroke-linecap:round;stroke-linejoin:round;stroke-miterlimit:4;stroke-dasharray:none"
           d="m 226.88249,222.89907 a 2.4,1.99015 3.5595999 0 0 -0.16506,0.83431"
           id="path10228"
           inkscape:connector-curvature="0" />
        <path
           style="fill:none;stroke:#000000;stroke-width:0.28222224;stroke-linecap:round;stroke-linejoin:round;stroke-miterlimit:4;stroke-dasharray:none"
           id="419"
           d="m 228.11955,223.07052 0.0381,0.99876"
           inkscape:connector-curvature="0" />
        <path
           style="fill:none;stroke:#000000;stroke-width:0.28222224;stroke-linecap:round;stroke-linejoin:round;stroke-miterlimit:4;stroke-dasharray:none"
           d="m 227.51493,223.87108 -0.0383,-0.0587 -0.0389,-0.0595 -0.0404,-0.0621 -0.041,-0.0629 -0.0421,-0.0646 -0.0431,-0.0663 -0.0443,-0.0679 -0.0458,-0.0705 -0.0465,-0.0713 -0.048,-0.0739 -0.0491,-0.0755 -0.0502,-0.0773 -0.0518,-0.0798 -0.0529,-0.0815"
           id="path10231"
           inkscape:connector-curvature="0" />
        <path
           style="fill:none;stroke:#000000;stroke-width:0.28222224;stroke-linecap:round;stroke-linejoin:round;stroke-miterlimit:4;stroke-dasharray:none"
           id="421"
           d="m 228.52324,222.98294 0.0659,1.71477"
           inkscape:connector-curvature="0" />
        <path
           style="fill:none;stroke:#000000;stroke-width:0.28222224;stroke-linecap:round;stroke-linejoin:round;stroke-miterlimit:4;stroke-dasharray:none"
           d="m 228.58916,224.69771 -0.0112,6.7e-4 -0.0108,0.002 -0.0112,7.2e-4 -0.0113,7.7e-4 -0.0113,7.7e-4 -0.0113,7.7e-4 -0.0114,8.2e-4 -0.0119,-5e-5 -0.0115,8.7e-4 -0.0116,9.2e-4 -0.0121,5e-5 -0.0116,9.2e-4 -0.0123,1.6e-4 -0.0122,1e-4"
           id="path10234"
           inkscape:connector-curvature="0" />
        <path
           style="fill:none;stroke:#000000;stroke-width:0.28222224;stroke-linecap:round;stroke-linejoin:round;stroke-miterlimit:4;stroke-dasharray:none"
           id="423"
           d="m 228.76067,222.70037 0.0627,1.63463"
           inkscape:connector-curvature="0" />
        <path
           style="fill:none;stroke:#000000;stroke-width:0.28222224;stroke-linecap:round;stroke-linejoin:round;stroke-miterlimit:4;stroke-dasharray:none"
           d="m 228.82339,224.335 -0.0196,0.031 -0.0183,0.0313 -0.0185,0.0291 -0.0178,0.0288 -0.0176,0.0275 -0.0169,0.0271 -0.0167,0.0258 -0.0162,0.0255 -0.0161,0.0243 -0.0157,0.0241 -0.0156,0.0229 -0.0151,0.0226 -0.0152,0.0215 -0.0148,0.0213"
           id="path10237"
           inkscape:connector-curvature="0" />
        <path
           style="fill:none;stroke:#000000;stroke-width:0.28222224;stroke-linecap:round;stroke-linejoin:round;stroke-miterlimit:4;stroke-dasharray:none"
           d="m 228.98676,221.68417 -0.013,0.24424 -0.0129,0.23029 -0.0116,0.21915 -0.0116,0.20647 -0.0104,0.19655 -0.0105,0.18503 -0.009,0.17627 -0.009,0.16593 -0.009,0.15747 -0.008,0.15002 -0.008,0.14089 -0.007,0.13364 -0.007,0.12737 -0.007,0.1195"
           id="path10239"
           inkscape:connector-curvature="0" />
        <path
           style="fill:none;stroke:#000000;stroke-width:0.28222224;stroke-linecap:round;stroke-linejoin:round;stroke-miterlimit:4;stroke-dasharray:none"
           d="m 228.85236,224.13699 -0.002,0.0152 -0.002,0.0151 -0.002,0.0151 -0.002,0.015 -0.002,0.0141 -0.002,0.014 -0.002,0.0149 -0.002,0.0139 -0.002,0.0139 -0.002,0.0138 -0.002,0.0129 -0.002,0.0137 -0.002,0.0128 -0.002,0.0136"
           id="path10241"
           inkscape:connector-curvature="0" />
        <path
           style="fill:none;stroke:#000000;stroke-width:0.28222224;stroke-linecap:round;stroke-linejoin:round;stroke-miterlimit:4;stroke-dasharray:none"
           d="m 229.55009,224.24569 a 1.145,0.949466 3.5595999 0 0 -0.69773,-0.1087"
           id="path10243"
           inkscape:connector-curvature="0" />
        <path
           style="fill:none;stroke:#000000;stroke-width:0.28222224;stroke-linecap:round;stroke-linejoin:round;stroke-miterlimit:4;stroke-dasharray:none"
           d="m 229.55009,224.24569 0.0218,-0.11766 0.0231,-0.12419 0.0241,-0.13168 0.0258,-0.13842 0.0272,-0.14616 0.0284,-0.15497 0.0304,-0.16302 0.0321,-0.17208 0.0336,-0.18221 0.0359,-0.19162 0.0376,-0.20297 0.0395,-0.21451 0.0419,-0.22625 0.0442,-0.23912"
           id="path10245"
           inkscape:connector-curvature="0" />
        <path
           style="fill:none;stroke:#000000;stroke-width:0.28222224;stroke-linecap:round;stroke-linejoin:round;stroke-miterlimit:4;stroke-dasharray:none"
           id="429"
           d="m 229.81843,222.86447 -0.3033,1.57807"
           inkscape:connector-curvature="0" />
        <path
           style="fill:none;stroke:#000000;stroke-width:0.28222224;stroke-linecap:round;stroke-linejoin:round;stroke-miterlimit:4;stroke-dasharray:none"
           d="m 229.51513,224.44254 0.002,-0.0138 0.002,-0.013 0.003,-0.013 0.002,-0.0139 0.003,-0.0131 0.002,-0.014 0.002,-0.0141 0.003,-0.0142 0.003,-0.0142 0.003,-0.0143 0.003,-0.0143 0.002,-0.0152 0.002,-0.0153 0.003,-0.0145"
           id="path10248"
           inkscape:connector-curvature="0" />
        <path
           style="fill:none;stroke:#000000;stroke-width:0.28222224;stroke-linecap:round;stroke-linejoin:round;stroke-miterlimit:4;stroke-dasharray:none"
           id="431"
           d="m 229.93298,223.20248 -0.22412,1.16401"
           inkscape:connector-curvature="0" />
        <path
           style="fill:none;stroke:#000000;stroke-width:0.28222224;stroke-linecap:round;stroke-linejoin:round;stroke-miterlimit:4;stroke-dasharray:none"
           d="m 229.54128,224.56023 -0.002,-0.008 -0.002,-0.008 -0.002,-0.008 -0.002,-0.008 -0.002,-0.008 -0.002,-0.008 -0.002,-0.008 -0.002,-0.009 -0.002,-0.008 -0.002,-0.008 -0.002,-0.009 -0.002,-0.008 -0.002,-0.009 -0.002,-0.008"
           id="path10251"
           inkscape:connector-curvature="0" />
        <path
           style="fill:none;stroke:#000000;stroke-width:0.28222224;stroke-linecap:round;stroke-linejoin:round;stroke-miterlimit:4;stroke-dasharray:none"
           id="433"
           d="m 230.27921,223.40557 -0.16849,0.87555"
           inkscape:connector-curvature="0" />
        <path
           style="fill:none;stroke:#000000;stroke-width:0.28222224;stroke-linecap:round;stroke-linejoin:round;stroke-miterlimit:4;stroke-dasharray:none"
           d="m 231.50813,223.61751 -0.0633,0.0631 -0.0619,0.0611 -0.0601,0.0601 -0.0589,0.0582 -0.0571,0.0572 -0.0559,0.0554 -0.0543,0.0544 -0.0531,0.0526 -0.0516,0.0518 -0.0505,0.0499 -0.0491,0.0491 -0.0481,0.0474 -0.0467,0.0466 -0.0459,0.045"
           id="path10254"
           inkscape:connector-curvature="0" />
        <path
           style="fill:none;stroke:#000000;stroke-width:0.28222224;stroke-linecap:round;stroke-linejoin:round;stroke-miterlimit:4;stroke-dasharray:none"
           id="435"
           d="m 228.40713,224.48642 0.10149,1.10419"
           inkscape:connector-curvature="0" />
        <path
           style="fill:none;stroke:#000000;stroke-width:0.28222224;stroke-linecap:round;stroke-linejoin:round;stroke-miterlimit:4;stroke-dasharray:none"
           d="m 231.47704,228.42746 a 4.25,3.52422 3.5595999 0 0 1.75569,-3.10365"
           id="path10257"
           inkscape:connector-curvature="0" />
        <path
           style="fill:none;stroke:#000000;stroke-width:0.28222224;stroke-linecap:round;stroke-linejoin:round;stroke-miterlimit:4;stroke-dasharray:none"
           d="m 233.23273,225.32381 a 4.25,3.52422 3.5595999 0 0 -0.19546,-0.82015"
           id="path10259"
           inkscape:connector-curvature="0" />
        <path
           style="fill:none;stroke:#000000;stroke-width:0.28222224;stroke-linecap:round;stroke-linejoin:round;stroke-miterlimit:4;stroke-dasharray:none"
           d="m 225.11588,224.01141 a 4.25,3.52422 3.5595999 0 0 -0.29561,0.78959"
           id="path10261"
           inkscape:connector-curvature="0" />
        <path
           style="fill:none;stroke:#000000;stroke-width:0.28222224;stroke-linecap:round;stroke-linejoin:round;stroke-miterlimit:4;stroke-dasharray:none"
           d="m 224.82027,224.801 a 4.25,3.52422 3.5595999 0 0 6.65677,3.62646"
           id="path10263"
           inkscape:connector-curvature="0" />
        <g
           style="fill:none;stroke:#000000;stroke-width:0.28222224;stroke-linecap:round;stroke-linejoin:round;stroke-miterlimit:4;stroke-dasharray:none"
           transform="matrix(0.99807075,0.06208678,0.06208678,-0.99807075,-37.408936,256.99667)"
           id="g10699">
          <ellipse
             cx="263.939"
             cy="49.804001"
             rx="3.5962801"
             ry="2.9821401"
             id="ellipse10701"
             style="stroke-width:0.28222224;stroke-linecap:round;stroke-linejoin:round;stroke-miterlimit:4;stroke-dasharray:none" />
        </g>
        <path
           style="fill:none;stroke:#000000;stroke-width:0.28222224;stroke-linecap:round;stroke-linejoin:round;stroke-miterlimit:4;stroke-dasharray:none"
           d="m 231.43041,226.6161 a 3.99476,3.31257 3.5595999 0 0 1.64982,-2.91782"
           id="path10703"
           inkscape:connector-curvature="0" />
        <path
           style="fill:none;stroke:#000000;stroke-width:0.28222224;stroke-linecap:round;stroke-linejoin:round;stroke-miterlimit:4;stroke-dasharray:none"
           d="m 233.08023,223.69828 a 3.99476,3.31257 3.5595999 0 0 -4e-5,-0.002"
           id="path10705"
           inkscape:connector-curvature="0" />
        <path
           style="fill:none;stroke:#000000;stroke-width:0.28222224;stroke-linecap:round;stroke-linejoin:round;stroke-miterlimit:4;stroke-dasharray:none"
           d="m 225.17371,223.20437 a 3.99476,3.31257 3.5595999 0 0 -5.6e-4,0.003"
           id="path10707"
           inkscape:connector-curvature="0" />
      </g>
    </g>
  </g>
</svg>
