<?xml version="1.0" encoding="UTF-8"?>
<!-- Created with Inkscape (http://www.inkscape.org/) -->
<svg width="48" height="48" version="1.1" viewBox="0 0 12.7 12.7" xml:space="preserve" xmlns="http://www.w3.org/2000/svg"><g transform="matrix(1.0476 0 0 1.0477 -.30683 -.4747)" stroke="#000" stroke-dashoffset="12" stroke-linecap="round" stroke-linejoin="round" stroke-width=".25255"><path d="m12.29 4.3522v3.1393s-0.19621 0.70456-0.63322 1.6321c-0.43701 0.92753-0.93645 1.7748-0.93645 1.7748s-1.3824 0.44593-2.5507 0.65105c-1.1683 0.20513-3.4069 0.26756-3.4069 0.26756s-1.6321-0.65105-2.6756-1.3021c-1.0435-0.65105-1.6678-1.2129-1.6678-1.2129v-3.1393s0.42809-1.4894 0.60646-1.9086c0.17837-0.41917 0.57079-1.1327 0.57079-1.1327s0.57079-0.4816 1.0346-0.7224c0.46376-0.2408 0.84726-0.49052 0.84726-0.49052s1.0497-0.68513 2.929-0.68513 3.8469 1.236 3.8469 1.236 0.64325 0.42883 1.0847 0.85766c0.44145 0.42883 0.95091 1.0351 0.95091 1.0351z" fill="#ffaf00"/><g fill="none"><path d="m12.29 4.3522s-0.46376 0.19621-0.92753 1.3378-0.67781 2.0691-0.67781 2.0691-1.8194-0.42809-2.9431-0.19621c-1.1237 0.23188-2.9966 1.0881-2.9966 1.0881s-1.1416-1.3913-2.0156-1.8372-2.3099-0.65105-2.3099-0.65105"/><path d="m4.7447 8.651 0.017837 3.1661"/><path d="m10.684 7.7591 0.03567 3.1393"/><ellipse cx="6.3604" cy="4.0047" rx="2.5876" ry="1.3382"/><ellipse cx="6.3442" cy="3.5316" rx="3.2793" ry="1.8036"/><ellipse cx="6.3442" cy="3.4937" rx="3.9099" ry="2.2829"/></g></g></svg>
