<svg version="1.2" viewBox="0 0 48 48" xmlns="http://www.w3.org/2000/svg">
 <title>ISO7049-F</title>
 <path transform="matrix(.72308 0 0 .72308 -381.84 -500.72)" d="m559.71 698.09c-3.6999 0.21553-7.3395 1.3038-10.508 3.207-3.0947 1.8491-5.7223 4.4626-7.5762 7.582-1.5865 2.6512-2.5979 5.6548-2.9805 8.7266l-2e-3 2e-3c-0.0679 0.53997-0.11133 1.0825-0.12891 1.627-0.20747 6.4252 3.0936 12.286 8.3301 16.232l-0.66992 5.3242h-2e-3c-0.0372 0.29587-0.0606 0.59445-0.0703 0.89257-0.19028 5.8929 4.9242 10.955 11.514 11.547 6.5878 0.59158 12.434-3.4954 13.172-9.3379h4e-3l0.66797-5.3281c6.6197-2.7659 11.494-8.3198 12.369-15.27h2e-3c0.39027-3.0989 0.14796-6.2855-0.74609-9.2695-1.0098-3.3855-2.8491-6.4897-5.3047-9.0039l-2e-3 -2e-3c-3.7646-3.8875-8.9621-6.332-14.367-6.8535l4e-3 2e-3c-1.2315-0.1246-2.4718-0.14997-3.7051-0.0781z" color="#000000" fill="#ffaf00" style="-inkscape-stroke:none"/>
 <path transform="matrix(.72308 0 0 .72308 -381.84 -500.72)" d="m559.71 698.09c-3.6999 0.21553-7.3395 1.3038-10.508 3.207-3.0947 1.8491-5.7223 4.4626-7.5762 7.582-1.5865 2.6512-2.5979 5.6548-2.9805 8.7266l0.99219 0.125c0.36575-2.9371 1.3336-5.8135 2.8457-8.3398h2e-3v-2e-3c1.767-2.9732 4.2779-5.4702 7.2305-7.2344 4.0301-2.421 8.8858-3.4689 13.598-2.9922h2e-3c5.1691 0.4988 10.156 2.8464 13.746 6.5547v2e-3c2.3434 2.3988 4.1016 5.364 5.0644 8.5918v2e-3c0.85192 2.8434 1.0858 5.8926 0.71289 8.8555h-2e-3c-1.2681 10.078-11.422 17.27-23.09 16.223-11.668-1.0478-20.561-9.962-20.232-20.125 0.0166-0.51353 0.057-1.024 0.1211-1.5332l-0.99219-0.125c-0.0679 0.53997-0.11133 1.0825-0.12891 1.627-0.20747 6.4252 3.0936 12.286 8.3301 16.232l-0.66992 5.3242h-2e-3c-0.0372 0.29587-0.0606 0.59445-0.0703 0.89257-0.19028 5.8929 4.9242 10.955 11.514 11.547 6.5878 0.59158 12.434-3.4954 13.172-9.3379h4e-3l0.66797-5.3281c6.6197-2.7659 11.494-8.3198 12.369-15.27h2e-3c0.39027-3.0989 0.14796-6.2855-0.74609-9.2695-1.0098-3.3855-2.8491-6.4897-5.3047-9.0039l-2e-3 -2e-3c-3.7646-3.8875-8.9621-6.332-14.367-6.8535l4e-3 2e-3c-1.2315-0.1246-2.4718-0.14997-3.7051-0.0781zm-5.5566 4.9648c-0.2031 0.0446-0.30388 0.0208-0.45703 0.0312-0.99532 0.60607-1.8845 1.3191-2.666 2.1348 0.01 0.4519 0.0234 0.48307 0.0352 0.72461 1.0961 0.94002 2.2812 2.1194 3.4648 3.373 0.32102 0.98078 0.6299 1.9472 0.92773 2.9004-0.36738 0.9806-0.74731 2.0241-1.1426 3.1406-1.2928 1.494-2.5904 3.0823-3.8086 4.7578 0.0261 0.27799 0.0104 0.40517 0.0156 0.60937 0.72673 0.89404 1.5656 1.6973 2.5117 2.4062 0.31609 0.0472 0.41071-9e-3 0.61718-0.0137 1.5681-1.2945 3.2121-2.5316 4.834-3.6914 1.234-0.32106 2.4125-0.6086 3.5391-0.86523 1.1029 0.37724 2.2486 0.79116 3.4414 1.2441 1.5094 1.3262 3.0201 2.7323 4.4199 4.1875 0.2621-0.11833 0.41528 0.0534 0.62305 0.0801 0.99233-0.60846 1.8809-1.3215 2.6621-2.1367 0.0723-0.59375 0.0482-0.39615 0.0723-0.59375-1.026-1.7965-2.1727-3.5248-3.3359-5.1523-0.30786-1.1585-0.61064-2.2436-0.91015-3.2656 0.35363-0.91364 0.71197-1.8405 1.0781-2.7812 1.2302-1.1245 2.4413-2.1727 3.5176-2.998 0.0517-0.52915 0.0559-0.47483 0.084-0.71289-0.72456-0.89459-1.5628-1.6972-2.5117-2.4062-0.45508-0.0742-0.30333-0.0495-0.45508-0.0742-1.5022 0.49692-3.099 1.2229-4.6914 2.041-1.2432 0.16975-2.439 0.36571-3.5898 0.58398-1.1378-0.34205-2.3248-0.66631-3.5664-0.96875-1.5694-0.99202-3.1637-1.894-4.709-2.5547zm-0.14453 1.0527c1.3438 0.5944 2.7454 1.375 4.1426 2.25l-0.86132 7.7305-0.01-0.0176c-0.21898 0.11277-0.40293 0.27033-0.60742 0.40235l-0.20899-2.3926-1.1309-3.373c-1.0803-1.1474-2.1523-2.1824-3.1914-3.1074 0.56932-0.5462 1.1805-1.054 1.8672-1.4922zm16.754 0.9082c0.66301 0.51643 1.2474 1.0949 1.7852 1.709l-3.3574 2.9375c-0.40327 1.0359-0.79935 2.0554-1.1875 3.0586l0.46679 0.18164-0.47265-0.16015-1.0078 2.9707c-0.38843-0.40191-0.75981-0.81903-1.2383-1.1348l0.86524-7.7558c1.423-0.72514 2.8304-1.3525 4.1465-1.8066zm-11.645 1.6992c0.94493 0.23717 1.862 0.48578 2.7422 0.7461l-0.93946 8.4375c-0.7687-0.35837-1.5924-0.77988-2.6699-1.4121zm6.4629 0.36524-0.86328 7.7344c-1.1468 0.50944-1.9925 0.82621-2.791 1.0996l0.9336-8.3926c0.8765-0.16278 1.7882-0.30658 2.7207-0.4414zm-9.9043 7.4629 0.45118 5.4277c-0.15994 0.11948-0.31689 0.24241-0.47657 0.36328l-0.38476-4.6621c0.1421-0.40125 0.27177-0.74556 0.41015-1.1289zm12.748 0.0527c0.16589 0.59135 0.32941 1.1537 0.49805 1.7871l-1.3672 4.0274c-0.28311-0.25981-0.55143-0.5387-0.83594-0.79297zm-10.906 0.50782-0.0566 0.0957c1.5225 0.90587 2.6418 1.4952 3.6777 1.9414 0.18464-0.0532 0.23035 0.013 0.34571 0.0195 1.0788-0.32986 2.263-0.79728 3.9023-1.5352l-0.0312-0.0703c0.4875 0.34408 0.9226 0.7366 1.2871 1.1777l-0.73828 2.1719c-1.2804-0.48732-2.5104-0.93384-3.6914-1.3359-0.36043 7e-3 -0.18116-9e-3 -0.27148-0.0137-1.3226 0.28647-3.1232 0.75841-3.9668 1.0059-0.30252 0.21598-0.60049 0.4699-0.90429 0.6914l-0.30469-3.6504c0.23552-0.18218 0.48685-0.34766 0.75195-0.49804zm-3.1562 1.793 0.3457 4.1582c-0.28365 0.2209-0.57067 0.42542-0.85156 0.65039-0.61909-0.39386-1.3677-0.8734-2.209-1.4141 0.87568-1.1812 1.7921-2.3003 2.7148-3.3945zm15.225 0.64063c0.85735 1.2305 1.696 2.4976 2.4688 3.8125-0.91918 0.36197-1.7684 0.69585-2.4824 0.97266-0.39912-0.39558-0.81015-0.76863-1.2188-1.1543zm-21.824 18.639c3.3661 2.2845 7.4384 3.8106 11.896 4.2109 3.822 0.34321 7.4557-0.24863 10.746-1.4434l-0.60547 4.8223h-2e-3c-0.66044 5.2485-5.9612 9.0193-12.092 8.4688-6.1299-0.55045-10.773-5.225-10.604-10.518 2e-5 -6.5e-4 -3e-5 -1e-3 0-2e-3 9e-3 -0.26615 0.0294-0.53314 0.0625-0.79687h2e-3z"/>
</svg>
