<?xml version="1.0" encoding="UTF-8" standalone="no"?>
<!-- Created with Inkscape (http://www.inkscape.org/) -->

<svg
   xmlns:dc="http://purl.org/dc/elements/1.1/"
   xmlns:cc="http://creativecommons.org/ns#"
   xmlns:rdf="http://www.w3.org/1999/02/22-rdf-syntax-ns#"
   xmlns:svg="http://www.w3.org/2000/svg"
   xmlns="http://www.w3.org/2000/svg"
   xmlns:sodipodi="http://sodipodi.sourceforge.net/DTD/sodipodi-0.dtd"
   xmlns:inkscape="http://www.inkscape.org/namespaces/inkscape"
   width="48"
   height="48"
   viewBox="0 0 48.000001 48.000001"
   id="svg15825"
   version="1.1"
   inkscape:version="0.91 r13725"
   sodipodi:docname="ISO7380-2.svg">
  <defs
     id="defs15827" />
  <sodipodi:namedview
     id="base"
     pagecolor="#ffffff"
     bordercolor="#666666"
     borderopacity="1.0"
     inkscape:pageopacity="0.0"
     inkscape:pageshadow="2"
     inkscape:zoom="12.625"
     inkscape:cx="21.895142"
     inkscape:cy="24"
     inkscape:document-units="px"
     inkscape:current-layer="layer1"
     showgrid="false"
     units="px"
     inkscape:window-width="1260"
     inkscape:window-height="787"
     inkscape:window-x="187"
     inkscape:window-y="227"
     inkscape:window-maximized="0" />
  <metadata
     id="metadata15830">
    <rdf:RDF>
      <cc:Work
         rdf:about="">
        <dc:format>image/svg+xml</dc:format>
        <dc:type
           rdf:resource="http://purl.org/dc/dcmitype/StillImage" />
        <dc:title />
      </cc:Work>
    </rdf:RDF>
  </metadata>
  <g
     inkscape:label="Layer 1"
     inkscape:groupmode="layer"
     id="layer1"
     transform="translate(0,-1004.3622)">
    <g
       id="g4162"
       transform="matrix(1.2547038,0,0,1.2547038,-6.2002966,-261.11551)">
      <path
         transform="translate(0,1004.3622)"
         inkscape:connector-curvature="0"
         id="path6862"
         d="m 16.346658,30.348144 c -0.452903,0.428415 -0.269056,1.142023 -0.423598,1.698631 -0.121343,1.387005 -0.590036,2.90395 0.137242,4.207686 1.107872,2.070824 3.474694,3.131109 5.716895,3.40773 2.219537,0.233518 4.659048,-0.372369 6.224474,-2.033416 0.816443,-0.830696 1.01155,-2.011179 1.106281,-3.121751 0.06365,-0.869071 0.285592,-1.752752 0.192822,-2.619399 -0.321953,-0.606327 -1.077975,-0.222084 -1.606189,-0.209809 -2.125166,0.192208 -4.258092,0.185301 -6.378094,-0.105662 -1.600615,-0.248187 -3.147615,-0.742699 -4.665377,-1.288522 -0.101485,0.0215 -0.20297,0.04301 -0.304456,0.06451 z"
         style="opacity:1;fill:#ffaa00;fill-opacity:1;fill-rule:evenodd;stroke:none;stroke-width:1;stroke-linecap:round;stroke-linejoin:round;stroke-miterlimit:4;stroke-dasharray:none;stroke-dashoffset:0;stroke-opacity:1" />
      <path
         transform="translate(0,1004.3622)"
         sodipodi:nodetypes="ccccccccc"
         inkscape:connector-curvature="0"
         id="path6860"
         d="m 22.880075,7.2030322 c -4.426162,0.045862 -9.032391,1.480723 -12.141554,4.7506188 -2.1615067,2.229629 -3.28782,5.50424 -2.6289274,8.575064 0.7447021,3.676173 3.5320354,6.621751 6.7233694,8.410799 3.318873,1.865729 7.183103,2.705705 10.978114,2.515993 3.782346,-0.136778 7.606132,-1.391958 10.513614,-3.861231 2.471577,-2.096444 4.050042,-5.37512 3.637112,-8.647838 -0.421257,-3.658615 -2.921175,-6.78544 -5.987206,-8.678895 C 30.684043,8.1604827 26.773275,7.1560761 22.880075,7.2030322 Z"
         style="opacity:1;fill:#ffaa00;fill-opacity:1;fill-rule:evenodd;stroke:none;stroke-width:1;stroke-linecap:round;stroke-linejoin:round;stroke-miterlimit:4;stroke-dasharray:none;stroke-dashoffset:0;stroke-opacity:1" />
      <g
         style="stroke-width:0.83534038;stroke-miterlimit:4;stroke-dasharray:none"
         transform="matrix(1.1971168,0,0,1.1971168,-2.8210361,-195.05871)"
         id="g6263">
        <path
           style="fill:none;stroke:#000000;stroke-width:0.83534038;stroke-linecap:round;stroke-linejoin:miter;stroke-miterlimit:4;stroke-dasharray:none"
           d="m 27.053433,1010.8666 a 13.31904,13.31904 0 0 0 -7.919953,-0.739"
           id="path4173"
           inkscape:connector-curvature="0" />
        <path
           style="fill:none;stroke:#000000;stroke-width:0.83534038;stroke-linecap:round;stroke-linejoin:miter;stroke-miterlimit:4;stroke-dasharray:none"
           d="m 30.959144,1026.4113 c 1.597074,-0.9304 2.630782,-1.9552 3.364185,-2.9544 0.728149,-1.0048 1.155993,-1.9837 1.399979,-2.9692 0.227557,-0.926 0.283448,-1.8711 0.167673,-2.8355 -0.120073,-0.9702 -0.412672,-1.9786 -0.987768,-3.0546 -0.596192,-1.0819 -1.454212,-2.2488 -2.891842,-3.3978 -1.425438,-1.1362 -3.430423,-2.2546 -5.990942,-2.8889 -1.81256,-0.4636 -3.852431,-0.6263 -5.699664,-0.4838 -1.857457,0.1352 -3.522275,0.5755 -4.861696,1.1211 -1.983365,0.8185 -3.311393,1.8464 -4.261584,2.8554 -0.946679,1.0176 -1.5154963,2.0166 -1.8862329,3.012 -0.3363566,0.9242 -0.4994944,1.8573 -0.4893911,2.7991 0.00952,0.9474 0.179926,1.9201 0.582956,2.9536 0.4320754,1.0751 1.090476,2.2185 2.25988,3.409 1.165557,1.1775 2.842105,2.4021 5.205716,3.2914 1.129921,0.4439 2.454908,0.7731 3.804433,0.9518 1.351551,0.1804 2.727639,0.2102 4.014515,0.098 1.288904,-0.111 2.488568,-0.3642 3.542022,-0.7076 1.055481,-0.3418 1.964787,-0.7736 2.72767,-1.1992"
           id="path4175"
           inkscape:connector-curvature="0" />
        <g
           style="fill:none;stroke:#000000;stroke-width:0.36268616;stroke-linecap:round;stroke-linejoin:miter;stroke-miterlimit:4;stroke-dasharray:none"
           transform="matrix(2.2932436,0.21397313,0.21397313,-2.2932436,25.979856,1017.3799)"
           id="g4726">
          <ellipse
             style="stroke-width:0.36268616;stroke-linecap:round;stroke-miterlimit:4;stroke-dasharray:none"
             cx="-1.52543"
             cy="1.08128"
             rx="1.77871"
             ry="1.3043"
             id="ellipse4728" />
        </g>
        <path
           style="fill:none;stroke:#000000;stroke-width:0.83534038;stroke-linecap:round;stroke-linejoin:miter;stroke-miterlimit:4;stroke-dasharray:none"
           d="m 28.975042,1023.2766 a 10.134099,7.431174 5.3305994 0 0 -1.921609,-12.41"
           id="path4730"
           inkscape:connector-curvature="0" />
        <path
           style="fill:none;stroke:#000000;stroke-width:0.83534038;stroke-linecap:round;stroke-linejoin:miter;stroke-miterlimit:4;stroke-dasharray:none"
           d="m 19.13348,1010.1276 a 10.134099,7.431174 5.3305994 1 0 9.841562,13.149"
           id="path4732"
           inkscape:connector-curvature="0" />
        <path
           id="path4736"
           style="fill:none;stroke:#000000;stroke-width:0.83534038;stroke-linecap:round;stroke-linejoin:miter;stroke-miterlimit:4;stroke-dasharray:none"
           d="m 15.273992,1030.4696 c -0.346329,3.7111 5.556262,6.1692 9.435708,3.9294 m 0,0 c 1.191409,-0.6879 1.924208,-1.7199 2.030506,-2.8596 m 0.383516,-3.5144 -0.383516,3.5144 m -11.003487,-4.6635 -0.462727,3.5937"
           inkscape:connector-curvature="0"
           sodipodi:nodetypes="cccccccc" />
        <path
           style="fill:none;stroke:#000000;stroke-width:0.83534038;stroke-linecap:round;stroke-linejoin:miter;stroke-miterlimit:4;stroke-dasharray:none"
           d="m 25.318474,1016.9925 -0.316153,0.1266 -0.30433,0.1092 -0.294196,0.093 -0.285905,0.077 -0.279455,0.062 -0.27485,0.046 -0.271777,0.031 -0.27055,0.016 -0.270549,0 -0.2727,-0.013 -0.276385,-0.027 -0.281605,-0.042 -0.288668,-0.058 -0.297574,-0.072"
           id="path4738"
           inkscape:connector-curvature="0" />
        <path
           style="fill:none;stroke:#000000;stroke-width:0.83534038;stroke-linecap:round;stroke-linejoin:miter;stroke-miterlimit:4;stroke-dasharray:none"
           d="m 21.333715,1017.3447 -0.210052,-0.085 -0.20176,-0.095 -0.194698,-0.1056 -0.188863,-0.1168 -0.184256,-0.1288 -0.180571,-0.1416 -0.178114,-0.1553 -0.176579,-0.17 -0.176579,-0.1857 -0.177194,-0.2024 -0.179036,-0.2206 -0.182107,-0.2401 -0.186406,-0.261 -0.191626,-0.2836"
           id="path4740"
           inkscape:connector-curvature="0" />
        <path
           style="fill:none;stroke:#000000;stroke-width:0.83534038;stroke-linecap:round;stroke-linejoin:miter;stroke-miterlimit:4;stroke-dasharray:none"
           d="m 18.725721,1014.9539 0.09674,-0.1119 0.09458,-0.121 0.09305,-0.1309 0.09243,-0.1417 0.09182,-0.1533 0.09213,-0.1656 0.09305,-0.1793 0.09428,-0.194 0.09643,-0.2097 0.09888,-0.227 0.101956,-0.2455 0.105635,-0.2655 0.110248,-0.2871 0.11516,-0.3107"
           id="path4742"
           inkscape:connector-curvature="0" />
        <path
           style="fill:none;stroke:#000000;stroke-width:0.83534038;stroke-linecap:round;stroke-linejoin:miter;stroke-miterlimit:4;stroke-dasharray:none"
           d="m 20.102484,1012.2107 0.297574,0.072 0.288668,0.058 0.281605,0.042 0.276385,0.027 0.272699,0.012 0.27055,0 0.27055,-0.017 0.271777,-0.031 0.27485,-0.046 0.279455,-0.062 0.285905,-0.077 0.294196,-0.093 0.30433,-0.1092 0.316123,-0.1266"
           id="path4744"
           inkscape:connector-curvature="0" />
        <path
           style="fill:none;stroke:#000000;stroke-width:0.83534038;stroke-linecap:round;stroke-linejoin:miter;stroke-miterlimit:4;stroke-dasharray:none"
           d="m 24.087212,1011.8584 0.191626,0.2836 0.186407,0.261 0.182106,0.24 0.179037,0.2206 0.177192,0.2025 0.176579,0.1857 0.176579,0.1699 0.178115,0.1553 0.18057,0.1418 0.184258,0.1287 0.188862,0.1168 0.194698,0.1056 0.20176,0.095 0.210052,0.085"
           id="path4746"
           inkscape:connector-curvature="0" />
        <path
           style="fill:none;stroke:#000000;stroke-width:0.83534038;stroke-linecap:round;stroke-linejoin:miter;stroke-miterlimit:4;stroke-dasharray:none"
           d="m 26.695207,1014.2494 -0.11516,0.3106 -0.110247,0.2872 -0.105635,0.2655 -0.101956,0.2454 -0.09888,0.227 -0.09643,0.2097 -0.09428,0.194 -0.09305,0.1793 -0.09213,0.1657 -0.09182,0.1532 -0.09243,0.1416 -0.09305,0.131 -0.09459,0.121 -0.09674,0.1119"
           id="path4748"
           inkscape:connector-curvature="0" />
        <path
           style="fill:none;stroke:#000000;stroke-width:0.83534038;stroke-linecap:round;stroke-linejoin:miter;stroke-miterlimit:4;stroke-dasharray:none"
           id="290"
           d="m 24.087212,1011.8584 -0.229706,2.4637"
           inkscape:connector-curvature="0" />
        <path
           style="fill:none;stroke:#000000;stroke-width:0.83534038;stroke-linecap:round;stroke-linejoin:miter;stroke-miterlimit:4;stroke-dasharray:none"
           d="m 23.857352,1014.3221 0.149862,0.188 0.146483,0.1782 0.143414,0.1694 0.140648,0.1611 0.138808,0.1534 0.13727,0.1462 0.136042,0.1395 0.135429,0.1334 0.135429,0.1277 0.135735,0.1227 0.136656,0.1178 0.138194,0.1134 0.140034,0.1096 0.142492,0.1056"
           id="path4751"
           inkscape:connector-curvature="0" />
        <path
           style="fill:none;stroke:#000000;stroke-width:0.83534038;stroke-linecap:round;stroke-linejoin:miter;stroke-miterlimit:4;stroke-dasharray:none"
           d="m 19.368283,1015.8419 0.03347,-0.072 0.03378,-0.075 0.03409,-0.076 0.0344,-0.077 0.03471,-0.079 0.03532,-0.08 0.03562,-0.082 0.03593,-0.084 0.03654,-0.086 0.03685,-0.087 0.03747,-0.09 0.03808,-0.092 0.0387,-0.094 0.0393,-0.096"
           id="path4753"
           inkscape:connector-curvature="0" />
        <path
           style="fill:none;stroke:#000000;stroke-width:0.83534038;stroke-linecap:round;stroke-linejoin:miter;stroke-miterlimit:4;stroke-dasharray:none"
           d="m 19.872593,1014.6744 0.30126,0.032 0.291739,0.024 0.284062,0.015 0.278227,0.011 0.273927,0 0.271472,-0.012 0.270549,-0.02 0.271471,-0.029 0.273928,-0.037 0.278228,-0.047 0.284062,-0.057 0.291738,-0.066 0.301259,-0.077 0.312438,-0.086"
           id="path4755"
           inkscape:connector-curvature="0" />
        <path
           style="fill:none;stroke:#000000;stroke-width:0.83534038;stroke-linecap:round;stroke-linejoin:miter;stroke-miterlimit:4;stroke-dasharray:none"
           id="294"
           d="m 20.102484,1012.2107 -0.230014,2.4637"
           inkscape:connector-curvature="0" />
      </g>
    </g>
  </g>
</svg>
