<?xml version="1.0" encoding="UTF-8" standalone="no"?>
<!-- Created with Inkscape (http://www.inkscape.org/) -->

<svg
   xmlns:dc="http://purl.org/dc/elements/1.1/"
   xmlns:cc="http://creativecommons.org/ns#"
   xmlns:rdf="http://www.w3.org/1999/02/22-rdf-syntax-ns#"
   xmlns:svg="http://www.w3.org/2000/svg"
   xmlns="http://www.w3.org/2000/svg"
   xmlns:sodipodi="http://sodipodi.sourceforge.net/DTD/sodipodi-0.dtd"
   xmlns:inkscape="http://www.inkscape.org/namespaces/inkscape"
   width="48"
   height="48"
   viewBox="0 0 48.000001 48.000001"
   id="svg15825"
   version="1.1"
   inkscape:version="0.91 r13725"
   sodipodi:docname="ISO7047.svg">
  <defs
     id="defs15827" />
  <sodipodi:namedview
     id="base"
     pagecolor="#ffffff"
     bordercolor="#666666"
     borderopacity="1.0"
     inkscape:pageopacity="0.0"
     inkscape:pageshadow="2"
     inkscape:zoom="12.625"
     inkscape:cx="24"
     inkscape:cy="24"
     inkscape:document-units="px"
     inkscape:current-layer="layer1"
     showgrid="false"
     units="px"
     inkscape:window-width="1260"
     inkscape:window-height="787"
     inkscape:window-x="0"
     inkscape:window-y="0"
     inkscape:window-maximized="0" />
  <metadata
     id="metadata15830">
    <rdf:RDF>
      <cc:Work
         rdf:about="">
        <dc:format>image/svg+xml</dc:format>
        <dc:type
           rdf:resource="http://purl.org/dc/dcmitype/StillImage" />
        <dc:title></dc:title>
      </cc:Work>
    </rdf:RDF>
  </metadata>
  <g
     inkscape:label="Layer 1"
     inkscape:groupmode="layer"
     id="layer1"
     transform="translate(0,-1004.3622)">
    <g
       transform="matrix(3.8811364,0,0,3.8811363,-819.35969,201.14221)"
       id="g15072">
      <path
         sodipodi:nodetypes="ccccccccccc"
         inkscape:connector-curvature="0"
         id="path15068"
         d="m 217.09299,208.01815 c -1.31644,0.0187 -2.70415,0.48735 -3.56446,1.57744 -0.55053,0.67708 -0.81126,1.58503 -0.75826,2.46803 -0.006,1.02572 0.55508,1.97541 1.279,2.63012 0.81924,0.73094 1.87127,1.16981 2.94194,1.26033 0.6855,0.007 1.3878,0.0168 2.04122,-0.23479 1.24038,-0.41369 2.38807,-1.38395 2.75744,-2.72829 0.16008,-0.62606 0.1604,-1.30188 0.005,-1.92908 -0.25606,-0.99821 -0.95051,-1.83063 -1.81396,-2.31484 -0.87642,-0.51058 -1.88903,-0.74201 -2.88838,-0.72892 z"
         style="opacity:1;fill:#ffaa00;fill-opacity:0.94117647;fill-rule:evenodd;stroke:none;stroke-width:1;stroke-linecap:round;stroke-linejoin:round;stroke-miterlimit:4;stroke-dasharray:none;stroke-dashoffset:0;stroke-opacity:1" />
      <path
         transform="scale(0.28222222,0.28222223)"
         inkscape:connector-curvature="0"
         id="path15070"
         d="m 760.9668,763.0691 c -0.69576,0.28127 -0.37987,1.18348 -0.45787,1.76748 -0.14039,2.79157 1.82836,5.27141 4.22063,6.49427 2.04014,1.10318 4.46085,1.33319 6.72491,0.96994 2.94332,-0.56723 5.85107,-2.63505 6.48244,-5.70115 0.1,-0.80209 0.21559,-1.66358 -0.0103,-2.44222 -0.62467,-0.43157 -1.34763,0.22974 -2.00733,0.32287 -2.53908,0.91657 -5.3139,0.7713 -7.98022,0.67685 -2.27003,-0.28592 -4.45034,-1.07529 -6.52991,-2.02622 -0.1415,-0.0489 -0.29134,-0.0916 -0.44238,-0.0618 z"
         style="opacity:1;fill:#ffaa00;fill-opacity:0.94117647;fill-rule:evenodd;stroke:none;stroke-width:1;stroke-linecap:round;stroke-linejoin:round;stroke-miterlimit:4;stroke-dasharray:none;stroke-dashoffset:0;stroke-opacity:1" />
      <g
         id="g14453">
        <path
           style="fill:none;stroke:#000000;stroke-width:0.28222224;stroke-linecap:round;stroke-linejoin:round;stroke-miterlimit:4;stroke-dasharray:none"
           id="48"
           d="m 214.61784,215.19067 -0.004,0.60786"
           inkscape:connector-curvature="0"
           sodipodi:nodetypes="cc" />
        <path
           style="fill:none;stroke:#000000;stroke-width:0.28222224;stroke-linecap:round;stroke-linejoin:round;stroke-miterlimit:4;stroke-dasharray:none"
           id="49"
           d="m 219.60822,215.50107 -0.004,0.60791"
           inkscape:connector-curvature="0"
           sodipodi:nodetypes="cc" />
        <path
           style="fill:none;stroke:#000000;stroke-width:0.28222224;stroke-linecap:round;stroke-linejoin:round;stroke-miterlimit:4;stroke-dasharray:none"
           id="50"
           d="m 212.74131,211.52942 -0.0206,0.33519"
           inkscape:connector-curvature="0" />
        <path
           style="fill:none;stroke:#000000;stroke-width:0.28222224;stroke-linecap:round;stroke-linejoin:round;stroke-miterlimit:4;stroke-dasharray:none"
           id="51"
           d="m 221.92369,212.10078 -0.0211,0.33432"
           inkscape:connector-curvature="0" />
        <path
           style="fill:none;stroke:#000000;stroke-width:0.28222224;stroke-linecap:round;stroke-linejoin:round;stroke-miterlimit:4;stroke-dasharray:none"
           d="m 218.56726,217.66613 c 0.61628,-0.35575 0.99785,-0.92868 1.03707,-1.55715"
           id="path10073"
           inkscape:connector-curvature="0"
           sodipodi:nodetypes="cc" />
        <path
           style="fill:none;stroke:#000000;stroke-width:0.28222224;stroke-linecap:round;stroke-linejoin:round;stroke-miterlimit:4;stroke-dasharray:none"
           d="m 214.61403,215.79853 c -0.10754,1.7347 2.2522,2.84949 3.95323,1.8676"
           id="path10075"
           inkscape:connector-curvature="0"
           sodipodi:nodetypes="cc" />
        <path
           style="fill:none;stroke:#000000;stroke-width:0.28222224;stroke-linecap:round;stroke-linejoin:round;stroke-miterlimit:4;stroke-dasharray:none"
           d="m 217.75332,212.21069 a 2.01401,9.4994 33.192 0 1 0.23944,-0.29528"
           id="path10079"
           inkscape:connector-curvature="0" />
        <path
           style="fill:none;stroke:#000000;stroke-width:0.28222224;stroke-linecap:round;stroke-linejoin:round;stroke-miterlimit:4;stroke-dasharray:none"
           d="m 217.48287,213.44186 a 0.119318,9.49959 12.083 0 1 0.27045,-1.23117"
           id="path10081"
           inkscape:connector-curvature="0" />
        <path
           style="fill:none;stroke:#000000;stroke-width:0.28222224;stroke-linecap:round;stroke-linejoin:round;stroke-miterlimit:4;stroke-dasharray:none"
           d="m 217.48287,213.44186 a 2.52907,2.09718 3.5599999 0 1 -1.04057,-0.16133"
           id="path10083"
           inkscape:connector-curvature="0" />
        <path
           style="fill:none;stroke:#000000;stroke-width:0.28222224;stroke-linecap:round;stroke-linejoin:round;stroke-miterlimit:4;stroke-dasharray:none"
           d="m 216.62293,212.0354 a 1.05002,9.49959 5.5443999 0 0 -0.18063,1.24513"
           id="path10085"
           inkscape:connector-curvature="0" />
        <path
           style="fill:none;stroke:#000000;stroke-width:0.28222224;stroke-linecap:round;stroke-linejoin:round;stroke-miterlimit:4;stroke-dasharray:none"
           d="m 216.50756,211.68516 a 9.4994,0.956773 74.9148 0 1 0.11537,0.35024"
           id="path10087"
           inkscape:connector-curvature="0" />
        <path
           style="fill:none;stroke:#000000;stroke-width:0.28222224;stroke-linecap:round;stroke-linejoin:round;stroke-miterlimit:4;stroke-dasharray:none"
           d="m 216.16215,211.4943 a 9.4994,3.76754 38.0008 0 1 0.34541,0.19086"
           id="path10089"
           inkscape:connector-curvature="0" />
        <path
           style="fill:none;stroke:#000000;stroke-width:0.28222224;stroke-linecap:round;stroke-linejoin:round;stroke-miterlimit:4;stroke-dasharray:none"
           d="m 214.83725,211.39551 a 9.49959,4.67989 12.1454 0 1 1.3249,0.0988"
           id="path10091"
           inkscape:connector-curvature="0" />
        <path
           style="fill:none;stroke:#000000;stroke-width:0.28222224;stroke-linecap:round;stroke-linejoin:round;stroke-miterlimit:4;stroke-dasharray:none"
           d="m 214.83725,211.39551 a 2.52907,2.09718 3.5599999 0 1 0.17039,-0.86048"
           id="path10093"
           inkscape:connector-curvature="0" />
        <path
           style="fill:none;stroke:#000000;stroke-width:0.28222224;stroke-linecap:round;stroke-linejoin:round;stroke-miterlimit:4;stroke-dasharray:none"
           d="m 216.34725,210.55951 a 9.49959,5.84419 10.138 0 0 -1.33961,-0.0245"
           id="path10095"
           inkscape:connector-curvature="0" />
        <path
           style="fill:none;stroke:#000000;stroke-width:0.28222224;stroke-linecap:round;stroke-linejoin:round;stroke-miterlimit:4;stroke-dasharray:none"
           d="m 216.75036,210.4561 a 5.74756,9.4994 69.8578 0 0 -0.40311,0.10341"
           id="path10097"
           inkscape:connector-curvature="0" />
        <path
           style="fill:none;stroke:#000000;stroke-width:0.28222224;stroke-linecap:round;stroke-linejoin:round;stroke-miterlimit:4;stroke-dasharray:none"
           d="m 216.98837,210.18936 a 3.49895,9.4994 27.5391 0 0 -0.23801,0.26674"
           id="path10099"
           inkscape:connector-curvature="0" />
        <path
           style="fill:none;stroke:#000000;stroke-width:0.28222224;stroke-linecap:round;stroke-linejoin:round;stroke-miterlimit:4;stroke-dasharray:none"
           d="m 217.24086,209.24568 a 1.26026,9.49959 7.4503999 0 0 -0.25249,0.94368"
           id="path10101"
           inkscape:connector-curvature="0" />
        <path
           style="fill:none;stroke:#000000;stroke-width:0.28222224;stroke-linecap:round;stroke-linejoin:round;stroke-miterlimit:4;stroke-dasharray:none"
           d="m 217.24086,209.24568 a 2.52907,2.09718 3.5599999 0 1 1.04058,0.16133"
           id="path10103"
           inkscape:connector-curvature="0" />
        <path
           style="fill:none;stroke:#000000;stroke-width:0.28222224;stroke-linecap:round;stroke-linejoin:round;stroke-miterlimit:4;stroke-dasharray:none"
           d="m 218.11876,210.36465 a 0.0909138,9.49959 10.185 0 0 0.16268,-0.95764"
           id="path10105"
           inkscape:connector-curvature="0" />
        <path
           style="fill:none;stroke:#000000;stroke-width:0.28222224;stroke-linecap:round;stroke-linejoin:round;stroke-miterlimit:4;stroke-dasharray:none"
           d="m 218.23606,210.68721 a 9.4994,2.44172 80.844 0 0 -0.1173,-0.32256"
           id="path10107"
           inkscape:connector-curvature="0" />
        <path
           style="fill:none;stroke:#000000;stroke-width:0.28222224;stroke-linecap:round;stroke-linejoin:round;stroke-miterlimit:4;stroke-dasharray:none"
           d="m 218.57946,210.9058 a 9.4994,5.25248 42.102 0 0 -0.3434,-0.21859"
           id="path10109"
           inkscape:connector-curvature="0" />
        <path
           style="fill:none;stroke:#000000;stroke-width:0.28222224;stroke-linecap:round;stroke-linejoin:round;stroke-miterlimit:4;stroke-dasharray:none"
           d="m 219.88648,211.29203 a 9.49959,5.82083 13.022 0 0 -1.30702,-0.38623"
           id="path10111"
           inkscape:connector-curvature="0" />
        <path
           style="fill:none;stroke:#000000;stroke-width:0.28222224;stroke-linecap:round;stroke-linejoin:round;stroke-miterlimit:4;stroke-dasharray:none"
           d="m 219.88648,211.29203 a 2.52907,2.09718 3.5599999 0 1 -0.17039,0.86048"
           id="path10113"
           inkscape:connector-curvature="0" />
        <path
           style="fill:none;stroke:#000000;stroke-width:0.28222224;stroke-linecap:round;stroke-linejoin:round;stroke-miterlimit:4;stroke-dasharray:none"
           d="m 218.39435,211.84059 a 9.49959,4.70325 9.5266999 0 1 1.32174,0.31192"
           id="path10115"
           inkscape:connector-curvature="0" />
        <path
           style="fill:none;stroke:#000000;stroke-width:0.28222224;stroke-linecap:round;stroke-linejoin:round;stroke-miterlimit:4;stroke-dasharray:none"
           d="m 217.99276,211.91541 a 4.26262,9.4994 72.5742 0 1 0.40159,-0.0748"
           id="path10117"
           inkscape:connector-curvature="0" />
        <path
           style="fill:none;stroke:#000000;stroke-width:0.28222224;stroke-linecap:round;stroke-linejoin:round;stroke-miterlimit:4;stroke-dasharray:none"
           d="m 220.01583,214.96666 a 4.6,3.81445 3.5595999 0 0 1.90786,-2.86588"
           id="path10119"
           inkscape:connector-curvature="0" />
        <path
           style="fill:none;stroke:#000000;stroke-width:0.28222224;stroke-linecap:round;stroke-linejoin:round;stroke-miterlimit:4;stroke-dasharray:none"
           d="m 221.92369,212.10078 a 4.6000711,3.814509 3.5595999 0 0 -9.18238,-0.57136"
           id="path10121"
           inkscape:connector-curvature="0" />
        <path
           style="fill:none;stroke:#000000;stroke-width:0.28222224;stroke-linecap:round;stroke-linejoin:round;stroke-miterlimit:4;stroke-dasharray:none"
           d="m 212.74131,211.52942 a 4.6,3.81445 3.5595999 0 0 7.27452,3.43724"
           id="path10123"
           inkscape:connector-curvature="0" />
        <path
           style="fill:none;stroke:#000000;stroke-width:0.28222224;stroke-linecap:round;stroke-linejoin:round;stroke-miterlimit:4;stroke-dasharray:none"
           id="353"
           d="m 216.62293,212.0354 0.12238,1.33115"
           inkscape:connector-curvature="0" />
        <path
           style="fill:none;stroke:#000000;stroke-width:0.28222224;stroke-linecap:round;stroke-linejoin:round;stroke-miterlimit:4;stroke-dasharray:none"
           d="m 215.59609,211.44006 -0.0365,-0.0563 -0.0372,-0.057 -0.0377,-0.0579 -0.0388,-0.0596 -0.0399,-0.0613 -0.0404,-0.0621 -0.0415,-0.0638 -0.042,-0.0646 -0.0436,-0.0672 -0.0442,-0.068 -0.0452,-0.0697 -0.0459,-0.0705 -0.0474,-0.0731 -0.0481,-0.0739"
           id="path10126"
           inkscape:connector-curvature="0" />
        <path
           style="fill:none;stroke:#000000;stroke-width:0.28222224;stroke-linecap:round;stroke-linejoin:round;stroke-miterlimit:4;stroke-dasharray:none"
           id="355"
           d="m 216.34725,210.55951 0.0406,1.05851"
           inkscape:connector-curvature="0" />
        <path
           style="fill:none;stroke:#000000;stroke-width:0.28222224;stroke-linecap:round;stroke-linejoin:round;stroke-miterlimit:4;stroke-dasharray:none"
           id="356"
           d="m 216.75036,210.4561 0.0791,2.0547"
           inkscape:connector-curvature="0" />
        <path
           style="fill:none;stroke:#000000;stroke-width:0.28222224;stroke-linecap:round;stroke-linejoin:round;stroke-miterlimit:4;stroke-dasharray:none"
           d="m 216.82951,212.5108 -0.0112,7.2e-4 -0.0112,7.2e-4 -0.0112,7.2e-4 -0.0113,7.2e-4 -0.0113,7.7e-4 -0.0114,8.2e-4 -0.0114,8.2e-4 -0.0114,8.2e-4 -0.0115,8.7e-4 -0.012,0 -0.0116,9.2e-4 -0.0122,1.1e-4 -0.0122,1e-4 -0.0118,0.001"
           id="path10130"
           inkscape:connector-curvature="0" />
        <path
           style="fill:none;stroke:#000000;stroke-width:0.28222224;stroke-linecap:round;stroke-linejoin:round;stroke-miterlimit:4;stroke-dasharray:none"
           id="358"
           d="m 216.98837,210.18936 0.0748,1.95792"
           inkscape:connector-curvature="0" />
        <path
           style="fill:none;stroke:#000000;stroke-width:0.28222224;stroke-linecap:round;stroke-linejoin:round;stroke-miterlimit:4;stroke-dasharray:none"
           d="m 217.06315,212.14728 -0.0191,0.0318 -0.0189,0.0305 -0.018,0.03 -0.0178,0.0288 -0.0175,0.0274 -0.0169,0.0271 -0.0168,0.0259 -0.0167,0.0247 -0.0156,0.0252 -0.0161,0.0232 -0.0157,0.0229 -0.0151,0.0226 -0.0147,0.0223 -0.0148,0.0212"
           id="path10133"
           inkscape:connector-curvature="0" />
        <path
           style="fill:none;stroke:#000000;stroke-width:0.28222224;stroke-linecap:round;stroke-linejoin:round;stroke-miterlimit:4;stroke-dasharray:none"
           d="m 217.24086,209.24568 -0.0151,0.27429 -0.0142,0.25878 -0.0133,0.24438 -0.0128,0.23024 -0.0116,0.21799 -0.0113,0.2051 -0.0107,0.19325 -0.0101,0.1825 -0.009,0.17272 -0.009,0.16223 -0.009,0.15285 -0.007,0.14521 -0.008,0.13613 -0.007,0.12878"
           id="path10135"
           inkscape:connector-curvature="0" />
        <path
           style="fill:none;stroke:#000000;stroke-width:0.28222224;stroke-linecap:round;stroke-linejoin:round;stroke-miterlimit:4;stroke-dasharray:none"
           d="m 217.09262,211.95013 -0.002,0.0151 -0.002,0.0151 -0.002,0.015 -0.003,0.0142 -0.002,0.0149 -0.002,0.014 -0.002,0.014 -0.002,0.0139 -0.002,0.0139 -0.002,0.0138 -0.002,0.0138 -0.002,0.0129 -0.002,0.0137 -0.002,0.0128"
           id="path10137"
           inkscape:connector-curvature="0" />
        <path
           style="fill:none;stroke:#000000;stroke-width:0.28222224;stroke-linecap:round;stroke-linejoin:round;stroke-miterlimit:4;stroke-dasharray:none"
           d="m 217.78994,212.05791 a 1.145,0.949466 3.5595999 0 0 -0.69732,-0.10778"
           id="path10139"
           inkscape:connector-curvature="0" />
        <path
           style="fill:none;stroke:#000000;stroke-width:0.28222224;stroke-linecap:round;stroke-linejoin:round;stroke-miterlimit:4;stroke-dasharray:none"
           d="m 217.78994,212.05791 0.0236,-0.12565 0.0245,-0.13422 0.0266,-0.1412 0.0279,-0.15006 0.0291,-0.15998 0.0316,-0.16834 0.0329,-0.17947 0.0355,-0.18909 0.037,-0.2015 0.0394,-0.2133 0.0423,-0.22534 0.044,-0.24018 0.0471,-0.25354 0.05,-0.26903"
           id="path10141"
           inkscape:connector-curvature="0" />
        <path
           style="fill:none;stroke:#000000;stroke-width:0.28222224;stroke-linecap:round;stroke-linejoin:round;stroke-miterlimit:4;stroke-dasharray:none"
           id="364"
           d="m 218.11876,210.36465 -0.35196,1.83018"
           inkscape:connector-curvature="0" />
        <path
           style="fill:none;stroke:#000000;stroke-width:0.28222224;stroke-linecap:round;stroke-linejoin:round;stroke-miterlimit:4;stroke-dasharray:none"
           d="m 217.76541,212.19563 0.002,-0.009 0.002,-0.009 0.001,-0.01 0.002,-0.009 0.001,-0.0101 0.002,-0.009 0.002,-0.0101 0.002,-0.009 0.002,-0.0102 0.002,-0.0102 0.002,-0.0102 0.002,-0.0103 0.002,-0.0103 0.002,-0.0103"
           id="path10144"
           inkscape:connector-curvature="0" />
        <path
           style="fill:none;stroke:#000000;stroke-width:0.28222224;stroke-linecap:round;stroke-linejoin:round;stroke-miterlimit:4;stroke-dasharray:none"
           id="366"
           d="m 218.23606,210.68721 -0.2365,1.22658"
           inkscape:connector-curvature="0" />
        <path
           style="fill:none;stroke:#000000;stroke-width:0.28222224;stroke-linecap:round;stroke-linejoin:round;stroke-miterlimit:4;stroke-dasharray:none"
           id="367"
           d="m 218.57946,210.9058 -0.18032,0.93549"
           inkscape:connector-curvature="0" />
        <path
           style="fill:none;stroke:#000000;stroke-width:0.28222224;stroke-linecap:round;stroke-linejoin:round;stroke-miterlimit:4;stroke-dasharray:none"
           d="m 219.88648,211.29203 -0.0592,0.0596 -0.0581,0.0578 -0.0571,0.0561 -0.0551,0.056 -0.0546,0.0534 -0.0532,0.0527 -0.0518,0.0519 -0.0504,0.0511 -0.0495,0.0494 -0.0488,0.0478 -0.0475,0.0471 -0.0462,0.0463 -0.0456,0.0448 -0.0443,0.044"
           id="path10148"
           inkscape:connector-curvature="0" />
        <path
           style="fill:none;stroke:#000000;stroke-width:0.28222224;stroke-linecap:round;stroke-linejoin:round;stroke-miterlimit:4;stroke-dasharray:none"
           d="m 219.99477,215.30099 a 4.6,3.81445 3.5595999 0 0 1.90786,-2.86589"
           id="path10150"
           inkscape:connector-curvature="0" />
        <path
           style="fill:none;stroke:#000000;stroke-width:0.28222224;stroke-linecap:round;stroke-linejoin:round;stroke-miterlimit:4;stroke-dasharray:none"
           d="m 212.72075,211.86461 a 4.6,3.81445 3.5595999 0 0 7.27402,3.43638"
           id="path10152"
           inkscape:connector-curvature="0" />
      </g>
    </g>
  </g>
</svg>
