<?xml version="1.0" encoding="UTF-8"?>
<!-- Created with Inkscape (http://www.inkscape.org/) -->
<svg width="48" height="48" version="1.1" viewBox="0 0 12.7 12.7" xml:space="preserve" xmlns="http://www.w3.org/2000/svg"><g transform="matrix(.089991 0 0 .089874 -2.234 5.113)" stroke="#000" stroke-dashoffset="12" stroke-linecap="round" stroke-linejoin="round" stroke-width="11.119"><g fill="#ffaf00" stroke-width="2.942"><ellipse cx="95.388" cy="36.19" rx="69.092" ry="42.317"/><ellipse cx="95.554" cy="32.894" rx="66.898" ry="38.948"/><path d="m49.762-16.851s-3.9528 8.4765-4.6591 11.201c-0.70631 2.7243-3.3802 12.108-3.3802 12.108v30.018s9.862 2.1235 17.139 6.2617c7.2775 4.1382 22.189 16.339 22.189 16.339s17.48-6.564 29.11-7.9197c11.63-1.3556 24.758-0.49944 24.758-0.49944s4.4236-12.201 7.4916-19.05c3.068-6.8494 7.2775-11.987 7.2775-11.987v-29.752s-3.2299-3.3894-4.6677-4.9534c-1.4378-1.564-3.7514-3.582-3.7514-3.582"/></g><g fill="none" stroke-width="2.942"><path d="m149.69-10.131s-5.2984 4.0774-8.6786 12.402c-3.3802 8.3244-6.155 18.919-6.155 18.919s-14.883-4.5406-27.698-1.6144c-12.815 2.9262-26.335 10.09-26.335 10.09s-5.7514-9.0307-16.851-15.892c-11.099-6.8613-22.249-7.3154-22.249-7.3154"/><path d="m80.822 29.665v29.224"/><path d="m134.86 21.189v29.464"/></g><path d="m141.27-23.705v17.177c0 2.1048-4.5478 13.289-19.179 18.334-14.631 5.0451-32.188 6.6595-48.937 1.5135-16.75-5.146-23.46-16.951-23.46-20.281 0-3.3298 0.1315-16.743 0.1315-16.743" fill="#ffaf00" stroke-width="2.942"/><ellipse cx="95.548" cy="-23.705" rx="45.722" ry="27.273" fill="#ffaf00" stroke-width="2.942"/><g fill="none"><ellipse cx="95.535" cy="-22.906" rx="27.754" ry="16.05" stroke-width="2.942"/><g stroke-width="2.942"><ellipse cx="95.958" cy="-24.317" rx="33.197" ry="17.456"/><path d="m65.542-17.273a33.903 19.349 0 0 1 5.8517-22.49 33.903 19.349 0 0 1 39.283-3.787 33.903 19.349 0 0 1 18.471 20.145"/><ellipse cx="95.615" cy="-26.176" rx="41.767" ry="23.953"/></g></g></g></svg>
