<?xml version="1.0" encoding="UTF-8" standalone="no"?>
<!-- Created with Inkscape (http://www.inkscape.org/) -->

<svg
   xmlns:dc="http://purl.org/dc/elements/1.1/"
   xmlns:cc="http://creativecommons.org/ns#"
   xmlns:rdf="http://www.w3.org/1999/02/22-rdf-syntax-ns#"
   xmlns:svg="http://www.w3.org/2000/svg"
   xmlns="http://www.w3.org/2000/svg"
   xmlns:sodipodi="http://sodipodi.sourceforge.net/DTD/sodipodi-0.dtd"
   xmlns:inkscape="http://www.inkscape.org/namespaces/inkscape"
   width="48"
   height="48"
   viewBox="0 0 48.000001 48.000001"
   id="svg15825"
   version="1.1"
   inkscape:version="0.91 r13725"
   sodipodi:docname="ISO7089.svg">
  <defs
     id="defs15827" />
  <sodipodi:namedview
     id="base"
     pagecolor="#ffffff"
     bordercolor="#666666"
     borderopacity="1.0"
     inkscape:pageopacity="0.0"
     inkscape:pageshadow="2"
     inkscape:zoom="12.625"
     inkscape:cx="24"
     inkscape:cy="24"
     inkscape:document-units="px"
     inkscape:current-layer="layer1"
     showgrid="false"
     units="px"
     inkscape:window-width="1260"
     inkscape:window-height="787"
     inkscape:window-x="0"
     inkscape:window-y="0"
     inkscape:window-maximized="0" />
  <metadata
     id="metadata15830">
    <rdf:RDF>
      <cc:Work
         rdf:about="">
        <dc:format>image/svg+xml</dc:format>
        <dc:type
           rdf:resource="http://purl.org/dc/dcmitype/StillImage" />
        <dc:title></dc:title>
      </cc:Work>
    </rdf:RDF>
  </metadata>
  <g
     inkscape:label="Layer 1"
     inkscape:groupmode="layer"
     id="layer1"
     transform="translate(0,-1004.3622)">
    <g
       transform="matrix(4.0960927,0,0,4.0960926,-197.24212,943.75154)"
       id="g15810">
      <path
         sodipodi:nodetypes="cccccccccccccccccc"
         transform="scale(0.28222222,0.28222223)"
         inkscape:connector-curvature="0"
         id="path15808"
         d="m 190.5822,56.209054 c -4.96558,0.06145 -10.18114,1.695284 -13.57719,5.471036 -3.64918,4.112449 -4.5678,12.57355 -1.69215,17.30023 1.1144,1.971725 2.7136,3.757806 4.50003,5.116666 4.68984,3.173664 9.78163,4.632173 16.552,2.985055 6.90203,-1.319806 9.77285,-4.695589 11.78966,-9.469875 1.54051,-3.652277 1.15285,-9.670657 -0.77762,-13.122433 -1.81988,-3.05525 -4.74158,-5.378667 -8.04761,-6.650783 -2.76715,-1.122841 -5.76355,-1.660979 -8.74712,-1.629896 z m 0.61151,9.131801 c 3.69778,0.492166 5.0178,0.719499 7.59748,3.160854 1.24564,1.630114 1.37794,2.106321 1.74494,4.419314 -0.95129,3.08115 -4.01459,5.136421 -7.07336,5.635494 -2.09399,0.166093 -4.31491,0.190242 -6.26076,-0.756753 -1.8146,-0.740734 -3.34158,-2.129787 -4.38462,-3.773106 -0.61486,-1.101488 -0.71169,-2.766189 -0.59714,-4.028074 1.79077,-2.021935 1.38652,-1.952284 3.41227,-3.549477 1.51506,-0.713997 3.90941,-1.106786 5.56119,-1.108252 z"
         style="opacity:1;fill:#ffaa00;fill-opacity:0.94117647;fill-rule:evenodd;stroke:none;stroke-width:1;stroke-linecap:round;stroke-linejoin:round;stroke-miterlimit:4;stroke-dasharray:none;stroke-dashoffset:0;stroke-opacity:1" />
      <g
         id="g13897">
        <path
           style="fill:none;stroke:#000000;stroke-width:0.28222224;stroke-linecap:round;stroke-linejoin:round;stroke-miterlimit:4;stroke-dasharray:none"
           id="42"
           d="m 58.964181,20.924049 0.03818,-0.613617"
           inkscape:connector-curvature="0" />
        <path
           style="fill:none;stroke:#000000;stroke-width:0.28222224;stroke-linecap:round;stroke-linejoin:round;stroke-miterlimit:4;stroke-dasharray:none"
           id="43"
           d="m 48.983476,20.303181 0.03817,-0.613613"
           inkscape:connector-curvature="0" />
        <path
           style="fill:none;stroke:#000000;stroke-width:0.28222224;stroke-linecap:round;stroke-linejoin:round;stroke-miterlimit:4;stroke-dasharray:none"
           d="m 51.374035,20.14389 a 2.65,2.19745 3.5599999 0 1 5.237763,0.325832"
           id="path9972"
           inkscape:connector-curvature="0" />
        <path
           style="fill:none;stroke:#000000;stroke-width:0.28222224;stroke-linecap:round;stroke-linejoin:round;stroke-miterlimit:4;stroke-dasharray:none"
           d="m 56.890266,24.038885 a 5,4.14614 3.5599999 0 1 -7.90679,-3.735704"
           id="path9974"
           inkscape:connector-curvature="0" />
        <path
           style="fill:none;stroke:#000000;stroke-width:0.28222224;stroke-linecap:round;stroke-linejoin:round;stroke-miterlimit:4;stroke-dasharray:none"
           d="m 58.964181,20.924049 a 5,4.14614 3.5599999 0 1 -2.073915,3.114836"
           id="path9976"
           inkscape:connector-curvature="0" />
        <path
           style="fill:none;stroke:#000000;stroke-width:0.28222224;stroke-linecap:round;stroke-linejoin:round;stroke-miterlimit:4;stroke-dasharray:none"
           d="M 56.928438,23.42527 A 5,4.14614 3.5599999 0 1 49.021643,19.689568"
           id="path9978"
           inkscape:connector-curvature="0" />
        <path
           style="fill:none;stroke:#000000;stroke-width:0.28222224;stroke-linecap:round;stroke-linejoin:round;stroke-miterlimit:4;stroke-dasharray:none"
           d="m 49.021643,19.689568 a 5.0000031,4.1461426 3.5599999 0 1 9.980714,0.620864"
           id="path9980"
           inkscape:connector-curvature="0" />
        <path
           style="fill:none;stroke:#000000;stroke-width:0.28222224;stroke-linecap:round;stroke-linejoin:round;stroke-miterlimit:4;stroke-dasharray:none"
           d="M 59.002357,20.310432 A 5,4.14614 3.5599999 0 1 56.928438,23.42527"
           id="path9982"
           inkscape:connector-curvature="0" />
        <path
           style="fill:none;stroke:#000000;stroke-width:0.28222224;stroke-linecap:round;stroke-linejoin:round;stroke-miterlimit:4;stroke-dasharray:none"
           d="M 55.55771,21.815391 A 2.65,2.19745 3.5599999 0 1 51.367117,19.835468"
           id="path9984"
           inkscape:connector-curvature="0" />
        <path
           style="fill:none;stroke:#000000;stroke-width:0.28222224;stroke-linecap:round;stroke-linejoin:round;stroke-miterlimit:4;stroke-dasharray:none"
           d="m 51.367117,19.835468 a 2.65,2.19745 3.5599999 0 1 5.289766,0.329064"
           id="path9986"
           inkscape:connector-curvature="0" />
        <path
           style="fill:none;stroke:#000000;stroke-width:0.28222224;stroke-linecap:round;stroke-linejoin:round;stroke-miterlimit:4;stroke-dasharray:none"
           d="M 56.656883,20.164532 A 2.65,2.19745 3.5599999 0 1 55.55771,21.815391"
           id="path9988"
           inkscape:connector-curvature="0" />
      </g>
    </g>
  </g>
</svg>
