<?xml version="1.0" encoding="UTF-8" standalone="no"?>
<!-- Created with Inkscape (http://www.inkscape.org/) -->

<svg
   xmlns:dc="http://purl.org/dc/elements/1.1/"
   xmlns:cc="http://creativecommons.org/ns#"
   xmlns:rdf="http://www.w3.org/1999/02/22-rdf-syntax-ns#"
   xmlns:svg="http://www.w3.org/2000/svg"
   xmlns="http://www.w3.org/2000/svg"
   xmlns:sodipodi="http://sodipodi.sourceforge.net/DTD/sodipodi-0.dtd"
   xmlns:inkscape="http://www.inkscape.org/namespaces/inkscape"
   width="48"
   height="48"
   viewBox="0 0 48.000001 48.000001"
   id="svg15825"
   version="1.1"
   inkscape:version="0.91 r13725"
   sodipodi:docname="ISO7092.svg">
  <defs
     id="defs15827" />
  <sodipodi:namedview
     id="base"
     pagecolor="#ffffff"
     bordercolor="#666666"
     borderopacity="1.0"
     inkscape:pageopacity="0.0"
     inkscape:pageshadow="2"
     inkscape:zoom="12.625"
     inkscape:cx="21.895142"
     inkscape:cy="24.575195"
     inkscape:document-units="px"
     inkscape:current-layer="layer1"
     showgrid="false"
     units="px"
     inkscape:window-width="1260"
     inkscape:window-height="787"
     inkscape:window-x="184"
     inkscape:window-y="87"
     inkscape:window-maximized="0" />
  <metadata
     id="metadata15830">
    <rdf:RDF>
      <cc:Work
         rdf:about="">
        <dc:format>image/svg+xml</dc:format>
        <dc:type
           rdf:resource="http://purl.org/dc/dcmitype/StillImage" />
        <dc:title></dc:title>
      </cc:Work>
    </rdf:RDF>
  </metadata>
  <g
     inkscape:label="Layer 1"
     inkscape:groupmode="layer"
     id="layer1"
     transform="translate(0,-1004.3622)">
    <g
       id="g7592"
       transform="matrix(1.2181261,0,0,1.2181261,-16.763555,-218.47756)">
      <path
         sodipodi:nodetypes="ccccccccccccccccc"
         transform="translate(0,1004.3622)"
         inkscape:connector-curvature="0"
         id="path7586"
         d="m 32.925092,9.4186787 c -3.431946,0.059998 -7.039547,1.2604753 -9.303836,3.9464733 -1.543484,1.797566 -2.735337,5.285194 -1.266708,8.694307 0.755563,2.101518 2.488364,3.711451 4.360149,4.845142 2.738294,1.585607 5.971983,2.315109 9.126031,2.019784 3.126504,-0.209085 6.297506,-1.518737 8.327867,-3.965483 2.130085,-3.026544 2.058465,-6.370199 1.22432,-8.535273 C 44.253114,13.324192 41.328166,11.23768 38.282884,10.23931 36.560902,9.664125 34.740008,9.388411 32.925092,9.4186787 Z m 2.619122,5.7025063 c 1.519553,0.449187 2.06341,0.726606 4.144647,2.324567 0.817255,0.915847 0,0 1.229809,1.479962 -0.156523,1.829485 -1.726991,3.181999 -3.333083,3.837029 -3.066288,1.230296 -6.865154,0.617874 -9.283638,-1.668631 -1.170836,-1.094608 -1.669541,-1.787078 -1.190783,-3.357129 1.495909,-1.676106 2.359046,-2.152252 4.116835,-2.582228 0.79422,-0.230424 3.500848,-0.03359 4.316213,-0.03357 z"
         style="opacity:1;fill:#ffaa00;fill-opacity:1;fill-rule:evenodd;stroke:none;stroke-width:1;stroke-linecap:round;stroke-linejoin:round;stroke-miterlimit:4;stroke-dasharray:none;stroke-dashoffset:0;stroke-opacity:1" />
      <path
         inkscape:connector-curvature="0"
         d="m 22.008728,1021.4101 -0.184606,1.979"
         id="26"
         style="fill:none;stroke:#000000;stroke-width:1;stroke-linecap:round;stroke-linejoin:miter;stroke-miterlimit:4;stroke-dasharray:none" />
      <path
         inkscape:connector-curvature="0"
         d="m 45.822764,1023.6321 -0.184606,1.9788"
         id="27"
         style="fill:none;stroke:#000000;stroke-width:1;stroke-linecap:round;stroke-linejoin:miter;stroke-miterlimit:4;stroke-dasharray:none" />
      <path
         inkscape:connector-curvature="0"
         id="path4624"
         d="m 38.444252,1026.6726 a 7.0423229,5.1640156 5.3305994 0 0 2.483327,-3.4973"
         style="fill:none;stroke:#000000;stroke-width:1;stroke-linecap:round;stroke-linejoin:miter;stroke-miterlimit:4;stroke-dasharray:none" />
      <path
         inkscape:connector-curvature="0"
         id="path4626"
         d="m 40.927579,1023.1753 a 7.0423229,5.1640156 5.3305994 0 0 -14.023666,-1.3084"
         style="fill:none;stroke:#000000;stroke-width:1;stroke-linecap:round;stroke-linejoin:miter;stroke-miterlimit:4;stroke-dasharray:none" />
      <path
         inkscape:connector-curvature="0"
         id="path4628"
         d="m 26.903913,1021.8669 a 7.0423229,5.1640156 5.3305994 0 0 11.540339,4.8057"
         style="fill:none;stroke:#000000;stroke-width:1;stroke-linecap:round;stroke-linejoin:miter;stroke-miterlimit:4;stroke-dasharray:none" />
      <path
         inkscape:connector-curvature="0"
         id="path4630"
         d="m 41.605804,1029.5708 a 11.958661,8.7691002 5.3305994 0 0 4.21696,-5.9387"
         style="fill:none;stroke:#000000;stroke-width:1;stroke-linecap:round;stroke-linejoin:miter;stroke-miterlimit:4;stroke-dasharray:none" />
      <path
         inkscape:connector-curvature="0"
         id="path4632"
         d="m 45.822764,1023.6321 a 11.958751,8.7691654 5.3305994 0 0 -23.814036,-2.222"
         style="fill:none;stroke:#000000;stroke-width:1;stroke-linecap:round;stroke-linejoin:miter;stroke-miterlimit:4;stroke-dasharray:none" />
      <path
         inkscape:connector-curvature="0"
         id="path4634"
         d="m 22.008728,1021.4101 a 11.958661,8.7691002 5.3305994 0 0 19.597076,8.1607"
         style="fill:none;stroke:#000000;stroke-width:1;stroke-linecap:round;stroke-linejoin:miter;stroke-miterlimit:4;stroke-dasharray:none" />
      <path
         inkscape:connector-curvature="0"
         id="path4636"
         d="m 41.420985,1031.55 a 11.958661,8.7691002 5.3305994 0 0 4.217067,-5.9391"
         style="fill:none;stroke:#000000;stroke-width:1;stroke-linecap:round;stroke-linejoin:miter;stroke-miterlimit:4;stroke-dasharray:none" />
      <path
         inkscape:connector-curvature="0"
         id="path4638"
         d="m 21.824158,1023.3891 a 11.958661,8.7691002 5.3305994 0 0 19.596827,8.1609"
         style="fill:none;stroke:#000000;stroke-width:1;stroke-linecap:round;stroke-linejoin:miter;stroke-miterlimit:4;stroke-dasharray:none" />
      <path
         inkscape:connector-curvature="0"
         id="path4640"
         d="m 40.704422,1024.1526 a 7.0423229,5.1640156 5.3305994 0 0 -13.761709,-1.2841"
         style="fill:none;stroke:#000000;stroke-width:1;stroke-linecap:round;stroke-linejoin:miter;stroke-miterlimit:4;stroke-dasharray:none" />
    </g>
  </g>
</svg>
