<?xml version="1.0" encoding="UTF-8" standalone="no"?>
<!-- Created with Inkscape (http://www.inkscape.org/) -->

<svg
   xmlns:dc="http://purl.org/dc/elements/1.1/"
   xmlns:cc="http://creativecommons.org/ns#"
   xmlns:rdf="http://www.w3.org/1999/02/22-rdf-syntax-ns#"
   xmlns:svg="http://www.w3.org/2000/svg"
   xmlns="http://www.w3.org/2000/svg"
   xmlns:sodipodi="http://sodipodi.sourceforge.net/DTD/sodipodi-0.dtd"
   xmlns:inkscape="http://www.inkscape.org/namespaces/inkscape"
   width="48"
   height="48"
   viewBox="0 0 48.000001 48.000001"
   id="svg15825"
   version="1.1"
   inkscape:version="0.91 r13725"
   sodipodi:docname="ISO7090.svg">
  <defs
     id="defs15827" />
  <sodipodi:namedview
     id="base"
     pagecolor="#ffffff"
     bordercolor="#666666"
     borderopacity="1.0"
     inkscape:pageopacity="0.0"
     inkscape:pageshadow="2"
     inkscape:zoom="12.625"
     inkscape:cx="21.895142"
     inkscape:cy="24.575195"
     inkscape:document-units="px"
     inkscape:current-layer="layer1"
     showgrid="false"
     units="px"
     inkscape:window-width="1260"
     inkscape:window-height="787"
     inkscape:window-x="184"
     inkscape:window-y="87"
     inkscape:window-maximized="0" />
  <metadata
     id="metadata15830">
    <rdf:RDF>
      <cc:Work
         rdf:about="">
        <dc:format>image/svg+xml</dc:format>
        <dc:type
           rdf:resource="http://purl.org/dc/dcmitype/StillImage" />
        <dc:title></dc:title>
      </cc:Work>
    </rdf:RDF>
  </metadata>
  <g
     inkscape:label="Layer 1"
     inkscape:groupmode="layer"
     id="layer1"
     transform="translate(0,-1004.3622)">
    <g
       id="g7525"
       transform="matrix(1.3235639,0,0,1.3235639,-6.5214664,-331.08892)">
      <path
         sodipodi:nodetypes="ccccccccccccccccc"
         transform="translate(0,1004.3622)"
         inkscape:connector-curvature="0"
         id="path7523"
         d="m 21.907302,11.894081 c -3.052762,0.05807 -6.174147,1.012647 -8.525526,3.006652 -1.379554,1.203107 -3.185647,3.251323 -3.4255883,5.090657 -0.04027,1.186339 -0.2569358,3.770006 0.2770143,4.868753 1.299517,3.253116 5.160537,6.248264 8.40306,7.263672 3.182364,0.996925 6.6815,1.036679 9.864016,0.01918 2.864565,-0.920478 6.413303,-3.628526 7.385984,-6.582766 0.686931,-2.124507 0.284446,-5.874057 -1.007073,-7.672255 C 32.751478,14.868382 28.449452,12.59541 24.860581,12.08065 23.88254,11.946322 22.894513,11.882753 21.907302,11.894081 Z m 0.334003,5.901918 c 1.7452,-0.0076 2.275895,0.201083 4.282865,0.556508 1.669309,1.333478 2.767014,2.098417 3.475025,4.059365 -0.599836,2.101667 -2.711694,3.302625 -4.727735,3.723278 -3.072499,0.590501 -6.624939,-0.367863 -8.506344,-3.008195 -1.317085,-1.808175 -0.770722,-2.689537 1.050138,-3.953945 1.286461,-0.944291 2.843111,-1.37867 4.426051,-1.377011 z"
         style="opacity:1;fill:#ffaa00;fill-opacity:1;fill-rule:evenodd;stroke:none;stroke-width:1;stroke-linecap:round;stroke-linejoin:round;stroke-miterlimit:4;stroke-dasharray:none;stroke-dashoffset:0;stroke-opacity:1" />
      <path
         inkscape:connector-curvature="0"
         d="m 9.8112748,1024.7014 -0.1385433,1.4845"
         id="34"
         style="fill:none;stroke:#000000;stroke-width:1;stroke-linecap:round;stroke-linejoin:miter;stroke-miterlimit:4;stroke-dasharray:none" />
      <path
         inkscape:connector-curvature="0"
         d="m 36.271239,1027.1704 -0.138543,1.4842"
         id="35"
         style="fill:none;stroke:#000000;stroke-width:1;stroke-linecap:round;stroke-linejoin:miter;stroke-miterlimit:4;stroke-dasharray:none" />
      <path
         inkscape:connector-curvature="0"
         id="path4758"
         d="m 27.615861,1029.5928 a 7.0423229,5.1640156 5.3305994 0 0 2.483327,-3.4974"
         style="fill:none;stroke:#000000;stroke-width:1;stroke-linecap:round;stroke-linejoin:miter;stroke-miterlimit:4;stroke-dasharray:none" />
      <path
         inkscape:connector-curvature="0"
         id="path4760"
         d="M 30.099188,1026.0954 A 7.0423229,5.1640156 5.3305994 0 0 16.075523,1024.787"
         style="fill:none;stroke:#000000;stroke-width:1;stroke-linecap:round;stroke-linejoin:miter;stroke-miterlimit:4;stroke-dasharray:none" />
      <path
         inkscape:connector-curvature="0"
         id="path4762"
         d="m 16.075523,1024.787 a 7.0423229,5.1640156 5.3305994 0 0 11.540338,4.8058"
         style="fill:none;stroke:#000000;stroke-width:1;stroke-linecap:round;stroke-linejoin:miter;stroke-miterlimit:4;stroke-dasharray:none" />
      <g
         id="g4764"
         transform="matrix(2.6459873,0.24688619,0.24688619,-2.6459873,-156.70974,1065.79)"
         style="fill:none;stroke:#000000;stroke-width:0.37629631;stroke-linecap:round;stroke-linejoin:miter;stroke-miterlimit:4;stroke-dasharray:none">
        <ellipse
           id="ellipse4766"
           ry="3.4647701"
           rx="4.7249999"
           cy="21.402901"
           cx="65.953903"
           style="stroke-width:0.37629631;stroke-linecap:round;stroke-miterlimit:4;stroke-dasharray:none" />
      </g>
      <path
         inkscape:connector-curvature="0"
         id="path4768"
         d="m 31.585463,1033.7689 a 13.287402,9.7434387 5.3305994 0 0 4.685776,-6.5985"
         style="fill:none;stroke:#000000;stroke-width:1;stroke-linecap:round;stroke-linejoin:miter;stroke-miterlimit:4;stroke-dasharray:none" />
      <path
         inkscape:connector-curvature="0"
         id="path4770"
         d="m 36.271239,1027.1704 a 13.287465,9.7434848 5.3305994 0 0 -26.4599642,-2.469"
         style="fill:none;stroke:#000000;stroke-width:1;stroke-linecap:round;stroke-linejoin:miter;stroke-miterlimit:4;stroke-dasharray:none" />
      <path
         inkscape:connector-curvature="0"
         id="path4772"
         d="m 9.8112748,1024.7014 a 13.287402,9.7434387 5.3305994 0 0 21.7741882,9.0675"
         style="fill:none;stroke:#000000;stroke-width:1;stroke-linecap:round;stroke-linejoin:miter;stroke-miterlimit:4;stroke-dasharray:none" />
      <path
         inkscape:connector-curvature="0"
         id="path4774"
         d="m 31.447062,1035.2533 a 13.287402,9.7434387 5.3305994 0 0 4.685634,-6.5987"
         style="fill:none;stroke:#000000;stroke-width:1;stroke-linecap:round;stroke-linejoin:miter;stroke-miterlimit:4;stroke-dasharray:none" />
      <path
         inkscape:connector-curvature="0"
         id="path4776"
         d="m 9.6728378,1026.1859 a 13.287402,9.7434387 5.3305994 0 0 21.7742242,9.0674"
         style="fill:none;stroke:#000000;stroke-width:1;stroke-linecap:round;stroke-linejoin:miter;stroke-miterlimit:4;stroke-dasharray:none" />
      <path
         inkscape:connector-curvature="0"
         id="path4778"
         d="m 29.87603,1027.0727 a 7.0423229,5.1640156 5.3305994 0 0 -13.761708,-1.2841"
         style="fill:none;stroke:#000000;stroke-width:1;stroke-linecap:round;stroke-linejoin:miter;stroke-miterlimit:4;stroke-dasharray:none" />
    </g>
  </g>
</svg>
