<?xml version="1.0" encoding="UTF-8"?>
<!-- Created with Inkscape (http://www.inkscape.org/) -->
<svg width="48" height="48" version="1.1" viewBox="0 0 12.7 12.7" xml:space="preserve" xmlns="http://www.w3.org/2000/svg"><g transform="matrix(.084038 0 0 .083828 5.2467 6.4586)" stroke="#000" stroke-dashoffset="12" stroke-linecap="round" stroke-linejoin="round" stroke-width="11.914"><g stroke-width="3.1523"><ellipse cx="13.128" cy="19.978" rx="73.917" ry="44.236" fill="#ffaf00"/><ellipse cx="13.128" cy="16.489" rx="70.207" ry="40.661" fill="none"/><path d="m73.283-36.71v39.755s-5.5496 6.6595-8.4757 13.824c-2.9262 7.164-7.4667 20.18-7.4667 20.18s-19.373-1.4126-31.38 0.90812-28.152 8.3748-28.152 8.3748-13.622-12.714-23.308-17.355c-9.6866-4.6415-20.382-8.0721-20.382-8.0721v-38.847s3.4307-12.714 5.5496-18.768c2.1189-6.0541 6.6595-13.319 6.6595-13.319s18.261-16.753 46.515-16.753c28.254 0 48.677 14.338 60.441 30.072z" fill="#ffaf00"/></g><g fill="none"><g stroke-width="3.1523"><path d="m73.283-36.71s-4.9442 2.1189-10.191 15.337c-5.2469 13.218-5.8523 19.272-5.8523 19.272s-20.079-6.3568-33.298-2.2198c-13.218 4.137-26.134 11.2-26.134 11.2s-9.3839-11.705-19.373-17.961c-9.9893-6.2559-24.317-6.8613-24.317-6.8613"/><path d="m-2.1912 6.8791v39.453"/><path d="m57.24-2.1011 0.1009 39.15"/></g><ellipse cx="13.65" cy="-37.946" rx="28.353" ry="16.321" stroke-width="3.1523"/><ellipse cx="13.668" cy="-39.271" rx="47.861" ry="27.534" stroke-width="3.1523"/><ellipse cx="13.708" cy="-39.221" rx="34.381" ry="19.855" stroke-width="3.1523"/></g></g></svg>
