<?xml version="1.0" encoding="UTF-8" standalone="no"?>
<!-- Created with Inkscape (http://www.inkscape.org/) -->

<svg
   xmlns:dc="http://purl.org/dc/elements/1.1/"
   xmlns:cc="http://creativecommons.org/ns#"
   xmlns:rdf="http://www.w3.org/1999/02/22-rdf-syntax-ns#"
   xmlns:svg="http://www.w3.org/2000/svg"
   xmlns="http://www.w3.org/2000/svg"
   xmlns:sodipodi="http://sodipodi.sourceforge.net/DTD/sodipodi-0.dtd"
   xmlns:inkscape="http://www.inkscape.org/namespaces/inkscape"
   width="48"
   height="48"
   viewBox="0 0 48.000001 48.000001"
   id="svg15825"
   version="1.1"
   inkscape:version="0.91 r13725"
   sodipodi:docname="ISO7380.svg">
  <defs
     id="defs15827" />
  <sodipodi:namedview
     id="base"
     pagecolor="#ffffff"
     bordercolor="#666666"
     borderopacity="1.0"
     inkscape:pageopacity="0.0"
     inkscape:pageshadow="2"
     inkscape:zoom="12.625"
     inkscape:cx="24"
     inkscape:cy="24"
     inkscape:document-units="px"
     inkscape:current-layer="layer1"
     showgrid="false"
     units="px"
     inkscape:window-width="1260"
     inkscape:window-height="787"
     inkscape:window-x="0"
     inkscape:window-y="0"
     inkscape:window-maximized="0" />
  <metadata
     id="metadata15830">
    <rdf:RDF>
      <cc:Work
         rdf:about="">
        <dc:format>image/svg+xml</dc:format>
        <dc:type
           rdf:resource="http://purl.org/dc/dcmitype/StillImage" />
        <dc:title></dc:title>
      </cc:Work>
    </rdf:RDF>
  </metadata>
  <g
     inkscape:label="Layer 1"
     inkscape:groupmode="layer"
     id="layer1"
     transform="translate(0,-1004.3622)">
    <g
       transform="matrix(3.8814771,0,0,3.881477,-457.52842,627.18861)"
       id="g15450">
      <path
         sodipodi:nodetypes="cccccccccc"
         transform="scale(0.28222222,0.28222223)"
         inkscape:connector-curvature="0"
         id="path15446"
         d="m 438.82939,347.99882 c -5.49594,0.0702 -10.95823,2.74714 -14.23934,7.17947 -1.39938,1.97456 -2.31741,4.38347 -2.1202,6.83333 -0.0264,3.00877 1.49169,5.83173 3.40984,8.0604 4.34023,4.94615 11.46453,7.26339 17.8726,5.69531 4.49304,-1.05759 8.88402,-3.68016 11.04406,-7.88885 1.77498,-3.31267 1.80881,-7.46985 0.0521,-10.7972 -2.33689,-4.49925 -6.93172,-7.58156 -11.82041,-8.66388 -1.37717,-0.30066 -2.78936,-0.44007 -4.1987,-0.41858 z"
         style="opacity:1;fill:#ffaa00;fill-opacity:0.94117647;fill-rule:evenodd;stroke:none;stroke-width:1;stroke-linecap:round;stroke-linejoin:round;stroke-miterlimit:4;stroke-dasharray:none;stroke-dashoffset:0;stroke-opacity:1" />
      <path
         transform="scale(0.28222222,0.28222223)"
         inkscape:connector-curvature="0"
         id="path15448"
         d="m 429.94948,374.13676 c -0.39594,1.193 -0.25121,2.53381 0.0677,3.73371 1.01002,3.09643 4.16304,4.97473 7.24573,5.46172 3.00358,0.43825 6.28985,-0.49989 8.35174,-2.79499 1.04167,-1.0918 1.59548,-2.55281 1.6956,-4.04681 0.0773,-0.52338 0.27994,-1.52966 -0.54687,-1.49384 -1.88591,0.62163 -3.76871,1.20549 -5.76275,1.24336 -2.32208,0.18138 -4.6998,-0.041 -6.88369,-0.74481 -1.28414,-0.36363 -2.43978,-0.96761 -3.64699,-1.51458 -0.21941,-0.0889 -0.34703,0.0417 -0.52043,0.15624 z"
         style="opacity:1;fill:#ffaa00;fill-opacity:0.94117647;fill-rule:evenodd;stroke:none;stroke-width:1;stroke-linecap:round;stroke-linejoin:round;stroke-miterlimit:4;stroke-dasharray:none;stroke-dashoffset:0;stroke-opacity:1" />
      <g
         id="g14085">
        <path
           style="fill:none;stroke:#000000;stroke-width:0.28222224;stroke-linecap:round;stroke-linejoin:round;stroke-miterlimit:4;stroke-dasharray:none"
           id="path9333"
           d="m 121.3034,105.39392 -0.0398,0.60406"
           inkscape:connector-curvature="0"
           sodipodi:nodetypes="cc" />
        <path
           style="fill:none;stroke:#000000;stroke-width:0.28222224;stroke-linecap:round;stroke-linejoin:round;stroke-miterlimit:4;stroke-dasharray:none"
           id="15"
           d="m 126.29369,105.70436 -0.0397,0.60401"
           inkscape:connector-curvature="0"
           sodipodi:nodetypes="cc" />
        <path
           style="fill:none;stroke:#000000;stroke-width:0.28222224;stroke-linecap:round;stroke-linejoin:round;stroke-miterlimit:4;stroke-dasharray:none"
           d="m 127.66652,99.767568 a 5.2195,5.2195 0 0 0 -6.98911,-0.434684"
           id="path9336"
           inkscape:connector-curvature="0" />
        <path
           style="fill:none;stroke:#000000;stroke-width:0.28222224;stroke-linecap:round;stroke-linejoin:round;stroke-miterlimit:4;stroke-dasharray:none"
           d="m 125.21681,107.86557 c 0.61633,-0.35576 0.99793,-0.92871 1.03715,-1.5572"
           id="path9632"
           inkscape:connector-curvature="0"
           sodipodi:nodetypes="cc" />
        <path
           style="fill:none;stroke:#000000;stroke-width:0.28222224;stroke-linecap:round;stroke-linejoin:round;stroke-miterlimit:4;stroke-dasharray:none"
           d="m 121.26358,105.99798 c -0.10753,1.73468 2.25221,2.84947 3.95323,1.86759"
           id="path9634"
           inkscape:connector-curvature="0"
           sodipodi:nodetypes="cc" />
        <path
           style="fill:none;stroke:#000000;stroke-width:0.28222224;stroke-linecap:round;stroke-linejoin:round;stroke-miterlimit:4;stroke-dasharray:none"
           d="m 125.12925,101.87909 a 1.76092,1.4602 3.5595999 0 0 0.72404,-1.31753"
           id="path9638"
           inkscape:connector-curvature="0" />
        <path
           style="fill:none;stroke:#000000;stroke-width:0.28222224;stroke-linecap:round;stroke-linejoin:round;stroke-miterlimit:4;stroke-dasharray:none"
           d="m 125.12925,101.87909 0.0532,-0.0665 0.0521,-0.0682 0.0509,-0.071 0.0501,-0.074 0.0493,-0.0781 0.049,-0.0826 0.049,-0.0872 0.0495,-0.0921 0.05,-0.0982 0.051,-0.10449 0.052,-0.11199 0.0541,-0.11897 0.0556,-0.12793 0.0583,-0.13642"
           id="path9640"
           inkscape:connector-curvature="0" />
        <path
           style="fill:none;stroke:#000000;stroke-width:0.28222224;stroke-linecap:round;stroke-linejoin:round;stroke-miterlimit:4;stroke-dasharray:none"
           d="m 126.77736,105.46091 a 4.75,3.93883 3.5595999 0 0 0.88916,-5.693342"
           id="path9642"
           inkscape:connector-curvature="0" />
        <path
           style="fill:none;stroke:#000000;stroke-width:0.28222224;stroke-linecap:round;stroke-linejoin:round;stroke-miterlimit:4;stroke-dasharray:none"
           d="m 120.67741,99.332884 a 4.75,3.93883 3.5595999 0 0 6.09995,6.128026"
           id="path9644"
           inkscape:connector-curvature="0" />
        <path
           style="fill:none;stroke:#000000;stroke-width:0.28222224;stroke-linecap:round;stroke-linejoin:round;stroke-miterlimit:4;stroke-dasharray:none"
           d="m 123.37819,101.99056 a 1.76092,1.4602 3.5595999 0 0 1.75106,-0.11147"
           id="path9646"
           inkscape:connector-curvature="0" />
        <path
           style="fill:none;stroke:#000000;stroke-width:0.28222224;stroke-linecap:round;stroke-linejoin:round;stroke-miterlimit:4;stroke-dasharray:none"
           d="m 122.35066,100.78362 a 1.76092,1.4602 3.5595999 0 0 1.02753,1.20694"
           id="path9648"
           inkscape:connector-curvature="0" />
        <path
           style="fill:none;stroke:#000000;stroke-width:0.28222224;stroke-linecap:round;stroke-linejoin:round;stroke-miterlimit:4;stroke-dasharray:none"
           d="m 123.07478,99.466041 a 1.76092,1.4602 3.5595999 0 0 -0.72412,1.317579"
           id="path9650"
           inkscape:connector-curvature="0" />
        <path
           style="fill:none;stroke:#000000;stroke-width:0.28222224;stroke-linecap:round;stroke-linejoin:round;stroke-miterlimit:4;stroke-dasharray:none"
           d="m 124.82584,99.354575 a 1.76092,1.4602 3.5595999 0 0 -1.75106,0.111466"
           id="path9652"
           inkscape:connector-curvature="0" />
        <path
           style="fill:none;stroke:#000000;stroke-width:0.28222224;stroke-linecap:round;stroke-linejoin:round;stroke-miterlimit:4;stroke-dasharray:none"
           d="m 125.85329,100.56156 a 1.76092,1.4602 3.5595999 0 0 -1.02745,-1.206985"
           id="path9654"
           inkscape:connector-curvature="0" />
        <path
           style="fill:none;stroke:#000000;stroke-width:0.28222224;stroke-linecap:round;stroke-linejoin:round;stroke-miterlimit:4;stroke-dasharray:none"
           d="m 123.37819,101.99056 0.13231,0.0264 0.12854,0.0216 0.12486,0.0157 0.12262,0.0112 0.12049,0.005 0.11946,3.1e-4 0.11887,-0.005 0.11937,-0.01 0.1205,-0.0153 0.12213,-0.0209 0.12446,-0.0268 0.12799,-0.0323 0.13202,-0.0381 0.13744,-0.0436"
           id="path9657"
           inkscape:connector-curvature="0" />
        <path
           style="fill:none;stroke:#000000;stroke-width:0.28222224;stroke-linecap:round;stroke-linejoin:round;stroke-miterlimit:4;stroke-dasharray:none"
           d="m 122.35066,100.78362 0.0771,0.12871 0.0747,0.11971 0.0724,0.11061 0.0716,0.10417 0.0703,0.0968 0.0697,0.0902 0.0696,0.0845 0.0701,0.0796 0.0708,0.0746 0.072,0.0705 0.0739,0.067 0.0755,0.0626 0.0782,0.06 0.0817,0.0579"
           id="path9659"
           inkscape:connector-curvature="0" />
        <path
           style="fill:none;stroke:#000000;stroke-width:0.28222224;stroke-linecap:round;stroke-linejoin:round;stroke-miterlimit:4;stroke-dasharray:none"
           d="m 123.07478,99.466041 -0.0578,0.137292 -0.0557,0.127981 -0.054,0.118917 -0.0525,0.111122 -0.051,0.104487 -0.05,0.0982 -0.049,0.0929 -0.0496,0.0864 -0.0489,0.0825 -0.0493,0.0781 -0.0496,0.0748 -0.0509,0.071 -0.0521,0.0682 -0.0538,0.0657"
           id="path9661"
           inkscape:connector-curvature="0" />
        <path
           style="fill:none;stroke:#000000;stroke-width:0.28222224;stroke-linecap:round;stroke-linejoin:round;stroke-miterlimit:4;stroke-dasharray:none"
           d="m 124.82584,99.354575 -0.13693,0.04442 -0.13203,0.03812 -0.12799,0.03232 -0.12496,0.02596 -0.12213,0.02086 -0.12049,0.0153 -0.11888,0.0109 -0.11937,0.0043 -0.11946,-3.11e-4 -0.12049,-0.0055 -0.12212,-0.01032 -0.12486,-0.01567 -0.12854,-0.02163 -0.13281,-0.02724"
           id="path9663"
           inkscape:connector-curvature="0" />
        <path
           style="fill:none;stroke:#000000;stroke-width:0.28222224;stroke-linecap:round;stroke-linejoin:round;stroke-miterlimit:4;stroke-dasharray:none"
           d="m 125.85329,100.56156 -0.0816,-0.058 -0.0782,-0.0599 -0.0754,-0.0627 -0.0739,-0.067 -0.072,-0.0705 -0.0708,-0.0746 -0.0701,-0.0796 -0.0697,-0.0845 -0.0697,-0.09026 -0.0703,-0.09681 -0.0717,-0.104119 -0.0723,-0.110666 -0.0747,-0.119659 -0.077,-0.128754"
           id="path9665"
           inkscape:connector-curvature="0" />
        <path
           style="fill:none;stroke:#000000;stroke-width:0.28222224;stroke-linecap:round;stroke-linejoin:round;stroke-miterlimit:4;stroke-dasharray:none"
           d="m 123.02085,100.33664 -0.0339,0.0715 -0.0328,0.0698 -0.0318,0.068 -0.0319,0.0646 -0.0307,0.0639 -0.0304,0.0614 -0.0303,0.0591 -0.0294,0.0585 -0.0295,0.0563 -0.0292,0.055 -0.0285,0.0546 -0.0289,0.0525 -0.0285,0.0523 -0.029,0.0502"
           id="path9667"
           inkscape:connector-curvature="0" />
        <path
           style="fill:none;stroke:#000000;stroke-width:0.28222224;stroke-linecap:round;stroke-linejoin:round;stroke-miterlimit:4;stroke-dasharray:none"
           d="m 124.77192,100.22518 -0.13625,0.029 -0.13146,0.0251 -0.12705,0.0225 -0.12424,0.0186 -0.12204,0.015 -0.12035,0.0117 -0.11885,0.01 -0.11939,0.005 -0.11952,0.003 -0.12067,3.8e-4 -0.12293,-0.003 -0.12571,-0.006 -0.1291,-0.009 -0.13351,-0.0118"
           id="path9669"
           inkscape:connector-curvature="0" />
        <path
           style="fill:none;stroke:#000000;stroke-width:0.28222224;stroke-linecap:round;stroke-linejoin:round;stroke-miterlimit:4;stroke-dasharray:none"
           d="m 125.55959,101.20686 -0.0572,-0.0582 -0.056,-0.0589 -0.0555,-0.0603 -0.0545,-0.0609 -0.0546,-0.0632 -0.0542,-0.0645 -0.0549,-0.0676 -0.0546,-0.0689 -0.0554,-0.0719 -0.0556,-0.0741 -0.057,-0.0779 -0.0578,-0.0809 -0.0597,-0.0856 -0.0606,-0.0886"
           id="path9671"
           inkscape:connector-curvature="0" />
        <path
           style="fill:none;stroke:#000000;stroke-width:0.28222224;stroke-linecap:round;stroke-linejoin:round;stroke-miterlimit:4;stroke-dasharray:none"
           id="114"
           d="m 124.77192,100.22518 0.0539,-0.870605"
           inkscape:connector-curvature="0" />
        <path
           style="fill:none;stroke:#000000;stroke-width:0.28222224;stroke-linecap:round;stroke-linejoin:round;stroke-miterlimit:4;stroke-dasharray:none"
           id="115"
           d="m 123.02085,100.33664 0.0539,-0.870599"
           inkscape:connector-curvature="0" />
      </g>
    </g>
  </g>
</svg>
