<?xml version="1.0" encoding="UTF-8"?>
<svg width="48" height="48" version="1.1" viewBox="0 0 48 48" xmlns="http://www.w3.org/2000/svg">
 <g fill="#ffaa00">
  <path d="m23.9 4.28c-10.5-0.466-20.6 7.24-20.5 16.3-1.44 14.4 12.4 20.3 20.9 20.2 9.82 0.057 20.2-5.65 20.1-18.2-0.0028-12.8-11.2-18.1-20.5-18.3zm10.7 18.9c-3.67 10.7-20.4 8.18-21.5-1.33 1.14-5.01 6.44-7.11 10.9-6.95s9.97 3.28 10.6 8.28z"/>
 </g>
 <g fill="none" stroke="#000000" stroke-linecap="round" stroke-linejoin="round">
  <path d="m44.5 22.5c0.19 5.25-2.19 10.8-6.56 13.9-9.19 7.14-23.9 5.56-31.2-3.48-2.93-3.56-3.92-8.38-3.2-12.9"/>
  <path d="m13.2 21.9c2.53-10 20.1-8.96 21.4 1.29"/>
  <path d="m25.1 4.32c11.3 0.702 20 8.86 19.4 18.2-0.32 5.13-3.45 9.82-8.5 12.8-13.9 8.07-33.3-1.07-32.4-15.3 0.582-9.36 10.2-16.4 21.5-15.7z"/>
  <path d="m34.7 22.7c-1.16 5.91-8.22 8.77-13.6 7.18-4.64-1.05-9.05-5.69-7.69-10.7 1.19-4.14 5.26-6.99 11.1-6.63 5.18 0.153 11.1 4.49 10.2 10.1z"/>
 </g>
</svg>
