<?xml version="1.0" encoding="UTF-8" standalone="no"?>
<!-- Created with Inkscape (http://www.inkscape.org/) -->

<svg
   xmlns:dc="http://purl.org/dc/elements/1.1/"
   xmlns:cc="http://creativecommons.org/ns#"
   xmlns:rdf="http://www.w3.org/1999/02/22-rdf-syntax-ns#"
   xmlns:svg="http://www.w3.org/2000/svg"
   xmlns="http://www.w3.org/2000/svg"
   xmlns:sodipodi="http://sodipodi.sourceforge.net/DTD/sodipodi-0.dtd"
   xmlns:inkscape="http://www.inkscape.org/namespaces/inkscape"
   width="48"
   height="48"
   viewBox="0 0 48.000001 48.000001"
   id="svg15825"
   version="1.1"
   inkscape:version="0.91 r13725"
   sodipodi:docname="ISO7046.svg">
  <defs
     id="defs15827" />
  <sodipodi:namedview
     id="base"
     pagecolor="#ffffff"
     bordercolor="#666666"
     borderopacity="1.0"
     inkscape:pageopacity="0.0"
     inkscape:pageshadow="2"
     inkscape:zoom="12.625"
     inkscape:cx="24"
     inkscape:cy="24"
     inkscape:document-units="px"
     inkscape:current-layer="layer1"
     showgrid="false"
     units="px"
     inkscape:window-width="1260"
     inkscape:window-height="787"
     inkscape:window-x="0"
     inkscape:window-y="0"
     inkscape:window-maximized="0" />
  <metadata
     id="metadata15830">
    <rdf:RDF>
      <cc:Work
         rdf:about="">
        <dc:format>image/svg+xml</dc:format>
        <dc:type
           rdf:resource="http://purl.org/dc/dcmitype/StillImage" />
        <dc:title></dc:title>
      </cc:Work>
    </rdf:RDF>
  </metadata>
  <g
     inkscape:label="Layer 1"
     inkscape:groupmode="layer"
     id="layer1"
     transform="translate(0,-1004.3622)">
    <g
       transform="matrix(3.9638189,0,0,3.9638187,-791.32838,237.96149)"
       id="g15128">
      <path
         sodipodi:nodetypes="ccccccccccc"
         inkscape:connector-curvature="0"
         id="path15124"
         d="m 205.48026,194.31391 c -1.28679,0.0101 -2.64309,0.43379 -3.52148,1.46481 -0.76924,0.87015 -1.04623,2.16739 -0.76205,3.30673 0.36703,1.40295 1.54366,2.43401 2.83031,2.88 0.54304,0.17968 1.10903,0.32273 1.68269,0.28557 0.56269,0.0101 1.1318,-0.0307 1.66451,-0.23622 1.2305,-0.40931 2.36218,-1.3686 2.73983,-2.69611 0.18663,-0.64362 0.15407,-1.34085 0.0106,-1.98985 -0.30073,-1.17886 -1.23212,-2.07542 -2.28654,-2.53068 -0.74203,-0.33251 -1.55172,-0.48986 -2.35784,-0.48425 z"
         style="opacity:1;fill:#ffaa00;fill-opacity:0.94117647;fill-rule:evenodd;stroke:none;stroke-width:1;stroke-linecap:round;stroke-linejoin:round;stroke-miterlimit:4;stroke-dasharray:none;stroke-dashoffset:0;stroke-opacity:1" />
      <path
         transform="scale(0.28222222,0.28222223)"
         inkscape:connector-curvature="0"
         id="path15126"
         d="m 719.22695,714.58691 c -0.53664,2.10902 -0.12686,4.50886 1.32672,6.18378 2.05953,2.45011 5.43264,3.63305 8.58653,3.23743 3.01979,-0.26857 6.06143,-2.15102 7.11505,-5.08183 0.28615,-0.99366 0.47646,-2.0624 0.35821,-3.09259 -0.35445,-0.72468 -1.22135,-0.08 -1.75098,0.0149 -1.75459,0.59871 -3.60026,0.90751 -5.45608,0.81117 -1.79201,0.0421 -3.61677,-0.007 -5.31514,-0.56129 -1.52095,-0.39593 -2.92949,-1.02236 -4.34562,-1.67336 -0.22033,-0.0865 -0.34654,0.0454 -0.51869,0.16179 z"
         style="opacity:1;fill:#ffaa00;fill-opacity:0.94117647;fill-rule:evenodd;stroke:none;stroke-width:1;stroke-linecap:round;stroke-linejoin:round;stroke-miterlimit:4;stroke-dasharray:none;stroke-dashoffset:0;stroke-opacity:1" />
      <g
         id="g14404">
        <path
           style="fill:none;stroke:#000000;stroke-width:0.28222224;stroke-linecap:round;stroke-linejoin:round;stroke-miterlimit:4;stroke-dasharray:none"
           id="1"
           d="m 202.95176,201.48904 -0.045,0.64901"
           inkscape:connector-curvature="0"
           sodipodi:nodetypes="cc" />
        <path
           style="fill:none;stroke:#000000;stroke-width:0.28222224;stroke-linecap:round;stroke-linejoin:round;stroke-miterlimit:4;stroke-dasharray:none"
           id="2"
           d="m 207.94215,201.79943 -0.0451,0.64907"
           inkscape:connector-curvature="0"
           sodipodi:nodetypes="cc" />
        <path
           style="fill:none;stroke:#000000;stroke-width:0.28222224;stroke-linecap:round;stroke-linejoin:round;stroke-miterlimit:4;stroke-dasharray:none"
           id="path9313"
           d="m 201.07573,197.82866 -0.0211,0.33432"
           inkscape:connector-curvature="0" />
        <path
           style="fill:none;stroke:#000000;stroke-width:0.28222224;stroke-linecap:round;stroke-linejoin:round;stroke-miterlimit:4;stroke-dasharray:none"
           id="path9315"
           d="m 210.25812,198.40001 -0.0211,0.33432"
           inkscape:connector-curvature="0" />
        <path
           style="fill:none;stroke:#000000;stroke-width:0.28222224;stroke-linecap:round;stroke-linejoin:round;stroke-miterlimit:4;stroke-dasharray:none"
           d="m 206.86004,204.00565 c 0.61628,-0.35576 0.99784,-0.92868 1.03706,-1.55715"
           id="path9448"
           inkscape:connector-curvature="0"
           sodipodi:nodetypes="cc" />
        <path
           style="fill:none;stroke:#000000;stroke-width:0.28222224;stroke-linecap:round;stroke-linejoin:round;stroke-miterlimit:4;stroke-dasharray:none"
           d="m 202.90681,202.13805 c -0.10754,1.73469 2.2522,2.84949 3.95323,1.8676"
           id="path9450"
           inkscape:connector-curvature="0"
           sodipodi:nodetypes="cc" />
        <path
           style="fill:none;stroke:#000000;stroke-width:0.28222224;stroke-linecap:round;stroke-linejoin:round;stroke-miterlimit:4;stroke-dasharray:none"
           d="m 208.34975,201.26503 a 4.6,3.81445 3.5595999 0 0 1.90837,-2.86502"
           id="path9454"
           inkscape:connector-curvature="0" />
        <path
           style="fill:none;stroke:#000000;stroke-width:0.28222224;stroke-linecap:round;stroke-linejoin:round;stroke-miterlimit:4;stroke-dasharray:none"
           d="m 210.25812,198.40001 a 4.6000741,3.8145115 3.5595999 0 0 -9.18239,-0.57135"
           id="path9456"
           inkscape:connector-curvature="0" />
        <path
           style="fill:none;stroke:#000000;stroke-width:0.28222224;stroke-linecap:round;stroke-linejoin:round;stroke-miterlimit:4;stroke-dasharray:none"
           d="m 201.07573,197.82866 a 4.6,3.81445 3.5595999 0 0 7.27402,3.43637"
           id="path9458"
           inkscape:connector-curvature="0" />
        <path
           style="fill:none;stroke:#000000;stroke-width:0.28222224;stroke-linecap:round;stroke-linejoin:round;stroke-miterlimit:4;stroke-dasharray:none"
           id="path9460"
           d="m 206.68358,198.74673 1.40562,0.19421"
           inkscape:connector-curvature="0" />
        <path
           style="fill:none;stroke:#000000;stroke-width:0.28222224;stroke-linecap:round;stroke-linejoin:round;stroke-miterlimit:4;stroke-dasharray:none"
           id="path9462"
           d="m 206.27988,198.83431 0.4037,-0.0876"
           inkscape:connector-curvature="0" />
        <path
           style="fill:none;stroke:#000000;stroke-width:0.28222224;stroke-linecap:round;stroke-linejoin:round;stroke-miterlimit:4;stroke-dasharray:none"
           id="path9464"
           d="m 206.04246,199.11688 0.23742,-0.28257"
           inkscape:connector-curvature="0" />
        <path
           style="fill:none;stroke:#000000;stroke-width:0.28222224;stroke-linecap:round;stroke-linejoin:round;stroke-miterlimit:4;stroke-dasharray:none"
           id="path9466"
           d="m 205.78514,200.27119 0.25732,-1.15431"
           inkscape:connector-curvature="0" />
        <path
           style="fill:none;stroke:#000000;stroke-width:0.28222224;stroke-linecap:round;stroke-linejoin:round;stroke-miterlimit:4;stroke-dasharray:none"
           d="m 204.72711,200.10724 a 2.6,2.15599 3.5595999 0 0 1.05803,0.16395"
           id="path9468"
           inkscape:connector-curvature="0" />
        <path
           style="fill:none;stroke:#000000;stroke-width:0.28222224;stroke-linecap:round;stroke-linejoin:round;stroke-miterlimit:4;stroke-dasharray:none"
           id="path9470"
           d="m 204.92816,198.94385 -0.20105,1.16339"
           inkscape:connector-curvature="0" />
        <path
           style="fill:none;stroke:#000000;stroke-width:0.28222224;stroke-linecap:round;stroke-linejoin:round;stroke-miterlimit:4;stroke-dasharray:none"
           id="path9472"
           d="m 204.81419,198.60666 0.11397,0.33719"
           inkscape:connector-curvature="0" />
        <path
           style="fill:none;stroke:#000000;stroke-width:0.28222224;stroke-linecap:round;stroke-linejoin:round;stroke-miterlimit:4;stroke-dasharray:none"
           id="path9474"
           d="m 204.46746,198.4027 0.34673,0.20396"
           inkscape:connector-curvature="0" />
        <path
           style="fill:none;stroke:#000000;stroke-width:0.28222224;stroke-linecap:round;stroke-linejoin:round;stroke-miterlimit:4;stroke-dasharray:none"
           id="path9476"
           d="m 203.07127,198.16263 1.39619,0.24007"
           inkscape:connector-curvature="0" />
        <path
           style="fill:none;stroke:#000000;stroke-width:0.28222224;stroke-linecap:round;stroke-linejoin:round;stroke-miterlimit:4;stroke-dasharray:none"
           d="m 203.24415,197.28686 a 2.6,2.15599 3.5595999 0 0 -0.17288,0.87577"
           id="path9478"
           inkscape:connector-curvature="0" />
        <path
           style="fill:none;stroke:#000000;stroke-width:0.28222224;stroke-linecap:round;stroke-linejoin:round;stroke-miterlimit:4;stroke-dasharray:none"
           id="path9480"
           d="m 204.64968,197.48112 -1.40553,-0.19426"
           inkscape:connector-curvature="0" />
        <path
           style="fill:none;stroke:#000000;stroke-width:0.28222224;stroke-linecap:round;stroke-linejoin:round;stroke-miterlimit:4;stroke-dasharray:none"
           id="path9482"
           d="m 205.05396,197.39435 -0.40428,0.0868"
           inkscape:connector-curvature="0" />
        <path
           style="fill:none;stroke:#000000;stroke-width:0.28222224;stroke-linecap:round;stroke-linejoin:round;stroke-miterlimit:4;stroke-dasharray:none"
           id="path9484"
           d="m 205.2908,197.11097 -0.23684,0.28338"
           inkscape:connector-curvature="0" />
        <path
           style="fill:none;stroke:#000000;stroke-width:0.28222224;stroke-linecap:round;stroke-linejoin:round;stroke-miterlimit:4;stroke-dasharray:none"
           id="path9486"
           d="m 205.54812,195.95666 -0.25732,1.15431"
           inkscape:connector-curvature="0" />
        <path
           style="fill:none;stroke:#000000;stroke-width:0.28222224;stroke-linecap:round;stroke-linejoin:round;stroke-miterlimit:4;stroke-dasharray:none"
           d="m 206.60673,196.12143 a 2.6,2.15599 3.5595999 0 0 -1.05861,-0.16477"
           id="path9488"
           inkscape:connector-curvature="0" />
        <path
           style="fill:none;stroke:#000000;stroke-width:0.28222224;stroke-linecap:round;stroke-linejoin:round;stroke-miterlimit:4;stroke-dasharray:none"
           id="path9490"
           d="m 206.4051,197.284 0.20163,-1.16257"
           inkscape:connector-curvature="0" />
        <path
           style="fill:none;stroke:#000000;stroke-width:0.28222224;stroke-linecap:round;stroke-linejoin:round;stroke-miterlimit:4;stroke-dasharray:none"
           id="path9492"
           d="M 206.51966,197.62201 206.4051,197.284"
           inkscape:connector-curvature="0" />
        <path
           style="fill:none;stroke:#000000;stroke-width:0.28222224;stroke-linecap:round;stroke-linejoin:round;stroke-miterlimit:4;stroke-dasharray:none"
           id="path9494"
           d="m 206.86589,197.8251 -0.34623,-0.20309"
           inkscape:connector-curvature="0" />
        <path
           style="fill:none;stroke:#000000;stroke-width:0.28222224;stroke-linecap:round;stroke-linejoin:round;stroke-miterlimit:4;stroke-dasharray:none"
           id="path9496"
           d="m 208.26258,198.06604 -1.39669,-0.24094"
           inkscape:connector-curvature="0" />
        <path
           style="fill:none;stroke:#000000;stroke-width:0.28222224;stroke-linecap:round;stroke-linejoin:round;stroke-miterlimit:4;stroke-dasharray:none"
           d="m 208.0892,198.94094 a 2.6,2.15599 3.5595999 0 0 0.17338,-0.8749"
           id="path9498"
           inkscape:connector-curvature="0" />
        <path
           style="fill:none;stroke:#000000;stroke-width:0.28222224;stroke-linecap:round;stroke-linejoin:round;stroke-miterlimit:4;stroke-dasharray:none"
           d="m 208.32919,201.60022 a 4.6,3.81445 3.5595999 0 0 1.90786,-2.86589"
           id="path9500"
           inkscape:connector-curvature="0" />
        <path
           style="fill:none;stroke:#000000;stroke-width:0.28222224;stroke-linecap:round;stroke-linejoin:round;stroke-miterlimit:4;stroke-dasharray:none"
           d="m 201.05467,198.16298 a 4.6,3.81445 3.5595999 0 0 7.27452,3.43724"
           id="path9502"
           inkscape:connector-curvature="0" />
        <path
           style="fill:none;stroke:#000000;stroke-width:0.28222224;stroke-linecap:round;stroke-linejoin:round;stroke-miterlimit:4;stroke-dasharray:none"
           id="path9504"
           d="m 204.92816,198.94385 0.11521,1.25215"
           inkscape:connector-curvature="0" />
        <path
           style="fill:none;stroke:#000000;stroke-width:0.28222224;stroke-linecap:round;stroke-linejoin:round;stroke-miterlimit:4;stroke-dasharray:none"
           d="m 203.90675,198.30612 -0.0399,-0.0613 -0.0416,-0.0638 -0.0421,-0.0646 -0.0431,-0.0663 -0.0442,-0.068 -0.0459,-0.0705 -0.0464,-0.0714 -0.0475,-0.073 -0.0491,-0.0756 -0.0502,-0.0773 -0.0513,-0.0789 -0.0523,-0.0806 -0.054,-0.0831 -0.0551,-0.0848"
           id="path9506"
           inkscape:connector-curvature="0" />
        <path
           style="fill:none;stroke:#000000;stroke-width:0.28222224;stroke-linecap:round;stroke-linejoin:round;stroke-miterlimit:4;stroke-dasharray:none"
           id="path9508"
           d="m 204.64968,197.48112 0.0406,1.05273"
           inkscape:connector-curvature="0" />
        <path
           style="fill:none;stroke:#000000;stroke-width:0.28222224;stroke-linecap:round;stroke-linejoin:round;stroke-miterlimit:4;stroke-dasharray:none"
           id="path9510"
           d="m 205.05396,197.39435 0.0753,1.96574"
           inkscape:connector-curvature="0" />
        <path
           style="fill:none;stroke:#000000;stroke-width:0.28222224;stroke-linecap:round;stroke-linejoin:round;stroke-miterlimit:4;stroke-dasharray:none"
           d="m 205.12921,199.36009 -0.0112,7.2e-4 -0.0107,0.002 -0.0112,7.2e-4 -0.0113,7.7e-4 -0.0113,7.7e-4 -0.0113,7.7e-4 -0.0114,8.2e-4 -0.012,1e-5 -0.0115,8.7e-4 -0.0115,8.7e-4 -0.0121,5e-5 -0.0117,9.7e-4 -0.0122,1e-4 -0.0123,1.6e-4"
           id="path9512"
           inkscape:connector-curvature="0" />
        <path
           style="fill:none;stroke:#000000;stroke-width:0.28222224;stroke-linecap:round;stroke-linejoin:round;stroke-miterlimit:4;stroke-dasharray:none"
           id="path9514"
           d="m 205.2908,197.11097 0.0726,1.88646"
           inkscape:connector-curvature="0" />
        <path
           style="fill:none;stroke:#000000;stroke-width:0.28222224;stroke-linecap:round;stroke-linejoin:round;stroke-miterlimit:4;stroke-dasharray:none"
           d="m 205.36335,198.99743 -0.0191,0.0318 -0.0188,0.0305 -0.0185,0.0292 -0.0178,0.0288 -0.0176,0.0275 -0.0169,0.0271 -0.0167,0.0258 -0.0162,0.0255 -0.0162,0.0244 -0.0156,0.024 -0.0156,0.0228 -0.0152,0.0226 -0.0152,0.0215 -0.0148,0.0212"
           id="path9516"
           inkscape:connector-curvature="0" />
        <path
           style="fill:none;stroke:#000000;stroke-width:0.28222224;stroke-linecap:round;stroke-linejoin:round;stroke-miterlimit:4;stroke-dasharray:none"
           d="m 205.54812,195.95666 -0.0157,0.29198 -0.0153,0.27438 -0.014,0.25868 -0.0129,0.24419 -0.0127,0.22902 -0.0118,0.2158 -0.0114,0.20288 -0.0102,0.19178 -0.01,0.18012 -0.009,0.16937 -0.009,0.1598 -0.008,0.15027 -0.008,0.14181 -0.008,0.13263"
           id="path9518"
           inkscape:connector-curvature="0" />
        <path
           style="fill:none;stroke:#000000;stroke-width:0.28222224;stroke-linecap:round;stroke-linejoin:round;stroke-miterlimit:4;stroke-dasharray:none"
           d="m 205.39241,198.79937 -0.002,0.0152 -0.002,0.0151 -0.002,0.015 -0.002,0.015 -0.002,0.0141 -0.002,0.0149 -0.002,0.014 -0.002,0.0139 -0.002,0.0139 -0.002,0.0138 -0.002,0.0129 -0.002,0.0137 -0.002,0.0128 -0.002,0.0136"
           id="path9520"
           inkscape:connector-curvature="0" />
        <path
           style="fill:none;stroke:#000000;stroke-width:0.28222224;stroke-linecap:round;stroke-linejoin:round;stroke-miterlimit:4;stroke-dasharray:none"
           d="m 206.09014,198.90806 a 1.145,0.949466 3.5595999 0 0 -0.69773,-0.10869"
           id="path9522"
           inkscape:connector-curvature="0" />
        <path
           style="fill:none;stroke:#000000;stroke-width:0.28222224;stroke-linecap:round;stroke-linejoin:round;stroke-miterlimit:4;stroke-dasharray:none"
           d="m 206.09014,198.90806 0.0242,-0.13061 0.0253,-0.13933 0.0273,-0.14738 0.0291,-0.15649 0.0311,-0.16575 0.0325,-0.17695 0.0348,-0.18752 0.037,-0.19917 0.0396,-0.21106 0.0415,-0.22489 0.0441,-0.23906 0.047,-0.25349 0.0501,-0.26909 0.0531,-0.28584"
           id="path9524"
           inkscape:connector-curvature="0" />
        <path
           style="fill:none;stroke:#000000;stroke-width:0.28222224;stroke-linecap:round;stroke-linejoin:round;stroke-miterlimit:4;stroke-dasharray:none"
           id="path9526"
           d="m 206.4051,197.284 -0.34977,1.81737"
           inkscape:connector-curvature="0" />
        <path
           style="fill:none;stroke:#000000;stroke-width:0.28222224;stroke-linecap:round;stroke-linejoin:round;stroke-miterlimit:4;stroke-dasharray:none"
           d="m 206.05524,199.10142 0.002,-0.0129 0.002,-0.0129 0.002,-0.013 0.003,-0.013 0.002,-0.0139 0.003,-0.0131 0.002,-0.014 0.002,-0.0141 0.002,-0.0141 0.003,-0.0142 0.003,-0.0142 0.003,-0.0143 0.002,-0.0152 0.003,-0.0144"
           id="path9528"
           inkscape:connector-curvature="0" />
        <path
           style="fill:none;stroke:#000000;stroke-width:0.28222224;stroke-linecap:round;stroke-linejoin:round;stroke-miterlimit:4;stroke-dasharray:none"
           id="path9530"
           d="m 206.51966,197.62201 -0.23297,1.21068"
           inkscape:connector-curvature="0" />
        <path
           style="fill:none;stroke:#000000;stroke-width:0.28222224;stroke-linecap:round;stroke-linejoin:round;stroke-miterlimit:4;stroke-dasharray:none"
           id="path9532"
           d="m 206.86589,197.8251 -0.17743,0.92228"
           inkscape:connector-curvature="0" />
        <path
           style="fill:none;stroke:#000000;stroke-width:0.28222224;stroke-linecap:round;stroke-linejoin:round;stroke-miterlimit:4;stroke-dasharray:none"
           d="m 208.26258,198.06604 -0.066,0.0658 -0.0646,0.0639 -0.0627,0.0628 -0.0615,0.0609 -0.0598,0.0599 -0.0585,0.058 -0.057,0.0571 -0.0557,0.0553 -0.0542,0.0544 -0.0531,0.0526 -0.0516,0.0518 -0.0507,0.05 -0.0493,0.0492 -0.0483,0.0475"
           id="path9534"
           inkscape:connector-curvature="0" />
      </g>
    </g>
  </g>
</svg>
