<?xml version="1.0" encoding="UTF-8"?>
<!-- Created with Inkscape (http://www.inkscape.org/) -->
<svg width="48" height="48" version="1.1" viewBox="0 0 12.7 12.7" xml:space="preserve" xmlns="http://www.w3.org/2000/svg"><g><g transform="matrix(1.025 0 0 1.025 -.2746 .02953)" stroke="#000000" stroke-linecap="round" stroke-linejoin="round" stroke-width=".2584"><path d="m12.34 3.6-0.3357 0.5815-8.641 7.85s-0.9042-0.3011-1.676-1.073c-0.7723-0.7723-1.101-1.742-1.101-1.742l7.881-8.579 0.5898-0.3405z" fill="#ffaf00"/><path d="m12 4.181-3.538-3.544" fill="none"/><path d="m3.361 12.03-2.777-2.815" fill="none"/><path d="m11.9 3.159-0.5751 0.5751-0.6433 0.025-4.16 4.178-1.459-0.3777-0.3515-1.432 4.169-4.168 0.03021-0.6437 0.58-0.58" fill="none" stroke-dasharray="0.258447, 0.516895"/><path d="m11.33 3.734-2.415-2.419" fill="none" stroke-dasharray="0.258447, 0.516895"/><path d="m8.88 1.959 1.802 1.8" fill="none" stroke-dasharray="0.258447, 0.516895"/><path d="m4.711 6.127 1.81 1.81" fill="none" stroke-dasharray="0.258447, 0.516895"/></g></g></svg>
