<?xml version="1.0" encoding="UTF-8" standalone="no"?>
<!-- Created with Inkscape (http://www.inkscape.org/) -->

<svg
   xmlns:dc="http://purl.org/dc/elements/1.1/"
   xmlns:cc="http://creativecommons.org/ns#"
   xmlns:rdf="http://www.w3.org/1999/02/22-rdf-syntax-ns#"
   xmlns:svg="http://www.w3.org/2000/svg"
   xmlns="http://www.w3.org/2000/svg"
   xmlns:sodipodi="http://sodipodi.sourceforge.net/DTD/sodipodi-0.dtd"
   xmlns:inkscape="http://www.inkscape.org/namespaces/inkscape"
   width="48"
   height="48"
   viewBox="0 0 48.000001 48.000001"
   id="svg15825"
   version="1.1"
   inkscape:version="0.91 r13725"
   sodipodi:docname="ISO4035.svg">
  <defs
     id="defs15827" />
  <sodipodi:namedview
     id="base"
     pagecolor="#ffffff"
     bordercolor="#666666"
     borderopacity="1.0"
     inkscape:pageopacity="0.0"
     inkscape:pageshadow="2"
     inkscape:zoom="12.625"
     inkscape:cx="21.90099"
     inkscape:cy="19.321749"
     inkscape:document-units="px"
     inkscape:current-layer="layer1"
     showgrid="false"
     units="px"
     inkscape:window-width="1260"
     inkscape:window-height="787"
     inkscape:window-x="109"
     inkscape:window-y="42"
     inkscape:window-maximized="0" />
  <metadata
     id="metadata15830">
    <rdf:RDF>
      <cc:Work
         rdf:about="">
        <dc:format>image/svg+xml</dc:format>
        <dc:type
           rdf:resource="http://purl.org/dc/dcmitype/StillImage" />
        <dc:title />
      </cc:Work>
    </rdf:RDF>
  </metadata>
  <g
     inkscape:label="Layer 1"
     inkscape:groupmode="layer"
     id="layer1"
     transform="translate(0,-1004.3622)">
    <g
       id="g8157"
       transform="matrix(1.7073821,0,0,1.7073821,-18.586356,-749.37863)"
       style="stroke-width:0.58569198;stroke-miterlimit:4;stroke-dasharray:none">
      <path
         sodipodi:nodetypes="cccccccccccccccc"
         transform="translate(0,1004.3622)"
         inkscape:connector-curvature="0"
         id="path8155"
         d="m 29.137159,26.305909 c -3.163609,0.03294 -9.532129,0.510434 -11.79836,1.226356 -1.350192,1.648401 -2.880321,4.826871 -3.903836,8.043293 -0.465192,4.080754 -0.910901,2.549912 -0.465192,4.397586 1.638526,1.865535 5.349588,5.676311 7.765907,7.03935 3.558882,0.09379 8.485169,0.14603 11.951752,-1.110832 1.804209,-2.569554 4.396022,-6.872694 4.267954,-8.499682 0.138895,-1.801315 0.399254,-2.124134 0.305012,-3.776396 -2.373193,-2.39744 -4.478317,-5.674201 -8.123237,-7.319675 z m -5.61711,8.546566 c 1.316554,-0.13093 2.581958,0.144586 3.649493,0.42478 1.103759,0.658033 1.52506,0.907667 2.331671,1.966491 -1.817013,1.063929 -0.967403,0.569961 -2.630979,1.327499 -2.449523,0.208399 -3.107183,-0.04275 -3.95006,-0.254979 -0.8422,-0.515205 -1.741711,-1.232856 -2.468294,-1.952316 0,0 2.11476,-1.331878 3.068169,-1.511475 z"
         style="opacity:1;fill:#ffaa00;fill-opacity:1;fill-rule:evenodd;stroke:none;stroke-width:0.58569198;stroke-linecap:round;stroke-linejoin:round;stroke-miterlimit:4;stroke-dasharray:none;stroke-dashoffset:0;stroke-opacity:1" />
      <path
         inkscape:connector-curvature="0"
         id="path4347"
         d="m 28.752173,1042.318 a 5.4929853,4.0279162 5.3305994 0 0 1.937729,-2.7267"
         style="fill:none;stroke:#000000;stroke-width:0.58569198;stroke-linecap:round;stroke-linejoin:miter;stroke-miterlimit:4;stroke-dasharray:none" />
      <path
         inkscape:connector-curvature="0"
         id="path4349"
         d="M 30.689902,1039.5913 A 5.4932297,4.0280955 5.3305994 0 0 19.75104,1038.5699"
         style="fill:none;stroke:#000000;stroke-width:0.58569198;stroke-linecap:round;stroke-linejoin:miter;stroke-miterlimit:4;stroke-dasharray:none" />
      <path
         inkscape:connector-curvature="0"
         id="path4351"
         d="m 19.75104,1038.5699 a 5.4929853,4.0279162 5.3305994 0 0 9.001133,3.7481"
         style="fill:none;stroke:#000000;stroke-width:0.58569198;stroke-linecap:round;stroke-linejoin:miter;stroke-miterlimit:4;stroke-dasharray:none" />
      <g
         id="g4353"
         transform="matrix(2.6459873,0.24688619,0.24688619,-2.6459873,-469.63037,1149.2664)"
         style="fill:none;stroke:#000000;stroke-width:0.22039372;stroke-linecap:round;stroke-linejoin:miter;stroke-miterlimit:4;stroke-dasharray:none">
        <ellipse
           id="ellipse4355"
           ry="2.1081901"
           rx="2.875"
           cy="58.730099"
           cx="181.55299"
           style="stroke-width:0.22039372;stroke-linecap:round;stroke-miterlimit:4;stroke-dasharray:none" />
      </g>
      <path
         inkscape:connector-curvature="0"
         id="path4357"
         d="m 29.739055,1041.558 a 5.4929853,4.0279162 5.3305994 0 0 -9.41818,-0.8776"
         style="fill:none;stroke:#000000;stroke-width:0.58569198;stroke-linecap:round;stroke-linejoin:miter;stroke-miterlimit:4;stroke-dasharray:none" />
      <path
         inkscape:connector-curvature="0"
         id="path4359"
         d="m 32.092874,1044.9584 a 10.629921,7.7947616 5.3305994 0 0 3.140575,-3.1818"
         style="fill:none;stroke:#000000;stroke-width:0.58569198;stroke-linecap:round;stroke-linejoin:miter;stroke-miterlimit:4;stroke-dasharray:none" />
      <path
         inkscape:connector-curvature="0"
         id="path4361"
         d="m 27.120374,1046.4607 a 10.629921,7.7947616 5.3305994 0 0 4.9725,-1.5023"
         style="fill:none;stroke:#000000;stroke-width:0.58569198;stroke-linecap:round;stroke-linejoin:miter;stroke-miterlimit:4;stroke-dasharray:none" />
      <path
         inkscape:connector-curvature="0"
         id="path4363"
         d="m 35.233449,1041.7766 a 10.629921,7.7947616 5.3305994 0 0 -1.864169,-7.7705"
         style="fill:none;stroke:#000000;stroke-width:0.58569198;stroke-linecap:round;stroke-linejoin:miter;stroke-miterlimit:4;stroke-dasharray:none" />
      <path
         inkscape:connector-curvature="0"
         id="path4365"
         d="m 17.143378,1043.3741 a 10.629921,7.7947616 5.3305994 0 0 9.976996,3.0866"
         style="fill:none;stroke:#000000;stroke-width:0.58569198;stroke-linecap:round;stroke-linejoin:miter;stroke-miterlimit:4;stroke-dasharray:none" />
      <path
         inkscape:connector-curvature="0"
         id="path4367"
         d="m 33.36928,1034.0061 a 10.629921,7.7947616 5.3305994 0 0 -9.975685,-3.0842"
         style="fill:none;stroke:#000000;stroke-width:0.58569198;stroke-linecap:round;stroke-linejoin:miter;stroke-miterlimit:4;stroke-dasharray:none" />
      <path
         inkscape:connector-curvature="0"
         id="path4369"
         d="m 15.280556,1035.606 a 10.629921,7.7947616 5.3305994 0 0 1.862822,7.7681"
         style="fill:none;stroke:#000000;stroke-width:0.58569198;stroke-linecap:round;stroke-linejoin:miter;stroke-miterlimit:4;stroke-dasharray:none" />
      <path
         inkscape:connector-curvature="0"
         id="path4371"
         d="m 23.393595,1030.9219 a 10.629921,7.7947616 5.3305994 0 0 -8.113039,4.6841"
         style="fill:none;stroke:#000000;stroke-width:0.58569198;stroke-linecap:round;stroke-linejoin:miter;stroke-miterlimit:4;stroke-dasharray:none" />
      <path
         inkscape:connector-curvature="0"
         id="path4373"
         d="m 35.233449,1041.7766 -0.141732,0.2845 -0.142796,0.2881 -0.142795,0.2941 -0.144921,0.2983 -0.14563,0.3051 -0.147047,0.3118 -0.148465,0.3189 -0.15059,0.3264 -0.153071,0.3338 -0.154488,0.344 -0.159095,0.3497 -0.159803,0.3624 -0.164055,0.371 -0.167244,0.3818"
         style="fill:none;stroke:#000000;stroke-width:0.58569198;stroke-linecap:round;stroke-linejoin:miter;stroke-miterlimit:4;stroke-dasharray:none" />
      <path
         inkscape:connector-curvature="0"
         id="path4375"
         d="m 33.111079,1046.3467 -0.463252,-0.018 -0.455138,-0.014 -0.448334,-0.011 -0.439831,0 -0.435685,0 -0.429201,0 -0.424913,0.01 -0.42091,0.011 -0.417295,0.014 -0.414177,0.018 -0.411768,0.021 -0.410882,0.025 -0.409642,0.032 -0.409677,0.035"
         style="fill:none;stroke:#000000;stroke-width:0.58569198;stroke-linecap:round;stroke-linejoin:miter;stroke-miterlimit:4;stroke-dasharray:none" />
      <path
         inkscape:connector-curvature="0"
         id="path4377"
         d="m 37.277016,1038.0437 -0.155906,0.2646 -0.154488,0.2612 -0.151299,0.2622 -0.149527,0.2611 -0.148111,0.2605 -0.145984,0.2622 -0.143858,0.2639 -0.143859,0.264 -0.143858,0.264 -0.141378,0.2689 -0.142086,0.2693 -0.140315,0.2743 -0.141733,0.2753 -0.141023,0.281"
         style="fill:none;stroke:#000000;stroke-width:0.58569198;stroke-linecap:round;stroke-linejoin:miter;stroke-miterlimit:4;stroke-dasharray:none" />
      <path
         inkscape:connector-curvature="0"
         id="path4379"
         d="m 33.36928,1034.0061 0.268937,0.2498 0.267165,0.2509 0.269291,0.259 0.268937,0.2618 0.271063,0.27 0.271418,0.2729 0.275315,0.2827 0.276732,0.2881 0.279567,0.2959 0.28311,0.3029 0.287717,0.3125 0.290551,0.32 0.296929,0.3316 0.300472,0.3391"
         style="fill:none;stroke:#000000;stroke-width:0.58569198;stroke-linecap:round;stroke-linejoin:miter;stroke-miterlimit:4;stroke-dasharray:none" />
      <path
         inkscape:connector-curvature="0"
         id="path4381"
         d="m 21.050902,1047.4118 -0.300472,-0.3391 -0.296929,-0.3316 -0.290552,-0.32 -0.287716,-0.3125 -0.282756,-0.3033 -0.279921,-0.2955 -0.276733,-0.2881 -0.275315,-0.2828 -0.271417,-0.2728 -0.271063,-0.27 -0.268937,-0.2622 -0.269291,-0.2587 -0.267166,-0.2508 -0.268937,-0.2498"
         style="fill:none;stroke:#000000;stroke-width:0.58569198;stroke-linecap:round;stroke-linejoin:miter;stroke-miterlimit:4;stroke-dasharray:none" />
      <path
         inkscape:connector-curvature="0"
         id="path4383"
         d="m 27.120374,1046.4607 -0.410386,0.038 -0.410527,0.044 -0.413504,0.045 -0.414532,0.052 -0.418677,0.054 -0.420626,0.062 -0.425905,0.065 -0.431433,0.068 -0.436323,0.074 -0.441921,0.08 -0.449256,0.084 -0.457087,0.089 -0.464492,0.096 -0.474803,0.099"
         style="fill:none;stroke:#000000;stroke-width:0.58569198;stroke-linecap:round;stroke-linejoin:miter;stroke-miterlimit:4;stroke-dasharray:none" />
      <path
         inkscape:connector-curvature="0"
         id="path4385"
         d="m 29.384299,1030.8079 0.311811,0.2218 0.306497,0.2222 0.300826,0.2222 0.295512,0.2221 0.290551,0.2218 0.287008,0.224 0.282402,0.2235 0.280275,0.2279 0.276024,0.2271 0.274252,0.2314 0.272835,0.2353 0.270708,0.2367 0.267874,0.2381 0.268583,0.2437"
         style="fill:none;stroke:#000000;stroke-width:0.58569198;stroke-linecap:round;stroke-linejoin:miter;stroke-miterlimit:4;stroke-dasharray:none" />
      <path
         inkscape:connector-curvature="0"
         id="path4387"
         d="m 23.393595,1030.9219 0.409677,-0.035 0.409606,-0.032 0.410917,-0.025 0.413079,-0.021 0.414425,-0.018 0.417083,-0.014 0.420874,-0.011 0.424913,-0.01 0.429201,0 0.434374,8e-4 0.441142,0.01 0.446988,0.011 0.455138,0.014 0.463287,0.018"
         style="fill:none;stroke:#000000;stroke-width:0.58569198;stroke-linecap:round;stroke-linejoin:miter;stroke-miterlimit:4;stroke-dasharray:none" />
      <path
         inkscape:connector-curvature="0"
         id="path4389"
         d="m 13.158186,1040.1761 0.167244,-0.382 0.164055,-0.3709 0.16122,-0.36 0.158032,-0.3519 0.155551,-0.3415 0.153071,-0.3338 0.15059,-0.3264 0.148465,-0.3189 0.147047,-0.3118 0.14563,-0.3051 0.143504,-0.3008 0.14315,-0.2944 0.142795,-0.2881 0.141732,-0.2845"
         style="fill:none;stroke:#000000;stroke-width:0.58569198;stroke-linecap:round;stroke-linejoin:miter;stroke-miterlimit:4;stroke-dasharray:none" />
      <path
         inkscape:connector-curvature="0"
         id="path4391"
         d="m 17.143378,1043.3741 -0.268582,-0.2437 -0.268229,-0.2381 -0.270708,-0.2367 -0.272835,-0.2353 -0.274252,-0.2314 -0.275669,-0.2275 -0.280276,-0.2278 -0.282401,-0.2236 -0.287008,-0.2239 -0.290551,-0.2222 -0.295867,-0.2222 -0.300826,-0.2221 -0.306496,-0.2222 -0.311811,-0.2218"
         style="fill:none;stroke:#000000;stroke-width:0.58569198;stroke-linecap:round;stroke-linejoin:miter;stroke-miterlimit:4;stroke-dasharray:none" />
      <path
         inkscape:connector-curvature="0"
         id="path4393"
         d="m 17.325434,1031.8753 0.473492,-0.1013 0.465838,-0.094 0.45574,-0.091 0.449256,-0.084 0.443233,-0.078 0.436322,-0.074 0.430335,-0.071 0.425693,-0.065 0.421937,-0.059 0.417366,-0.057 0.415843,-0.05 0.412192,-0.048 0.410528,-0.044 0.410386,-0.038"
         style="fill:none;stroke:#000000;stroke-width:0.58569198;stroke-linecap:round;stroke-linejoin:miter;stroke-miterlimit:4;stroke-dasharray:none" />
      <path
         inkscape:connector-curvature="0"
         id="path4395"
         d="m 15.280556,1035.606 0.141023,-0.281 0.141733,-0.2753 0.141732,-0.2722 0.140669,-0.2714 0.142441,-0.2664 0.142441,-0.2665 0.143858,-0.264 0.145276,-0.2618 0.145984,-0.2622 0.146693,-0.2629 0.149882,-0.2615 0.152362,-0.2597 0.153425,-0.2637 0.156969,-0.2625"
         style="fill:none;stroke:#000000;stroke-width:0.58569198;stroke-linecap:round;stroke-linejoin:miter;stroke-miterlimit:4;stroke-dasharray:none" />
      <path
         inkscape:connector-curvature="0"
         id="path4397"
         d="m 32.735559,1050.3655 0.155906,-0.2647 0.154842,-0.2611 0.1513,-0.2622 0.149527,-0.2612 0.148465,-0.2607 0.145984,-0.2623 0.143858,-0.2639 0.144921,-0.2615 0.142441,-0.2665 0.141378,-0.2689 0.142087,-0.2693 0.142087,-0.2721 0.140669,-0.2775 0.141023,-0.281"
         style="fill:none;stroke:#000000;stroke-width:0.58569198;stroke-linecap:round;stroke-linejoin:miter;stroke-miterlimit:4;stroke-dasharray:none" />
      <path
         inkscape:connector-curvature="0"
         id="path4399"
         d="m 34.779339,1046.6325 0.141732,-0.2846 0.142795,-0.288 0.14315,-0.2945 0.144921,-0.2983 0.14563,-0.3051 0.146693,-0.3118 0.148819,-0.3189 0.150591,-0.3264 0.15307,-0.3337 0.154489,-0.3437 0.159094,-0.3498 0.160158,-0.3625 0.164055,-0.3708 0.167244,-0.382"
         style="fill:none;stroke:#000000;stroke-width:0.58569198;stroke-linecap:round;stroke-linejoin:miter;stroke-miterlimit:4;stroke-dasharray:none" />
      <path
         inkscape:connector-curvature="0"
         d="m 36.901709,1042.0623 0.375307,-4.0186"
         id="108"
         style="fill:none;stroke:#000000;stroke-width:0.58569198;stroke-linecap:round;stroke-linejoin:miter;stroke-miterlimit:4;stroke-dasharray:none" />
      <path
         inkscape:connector-curvature="0"
         d="m 32.735559,1050.3655 0.37552,-4.0188"
         id="109"
         style="fill:none;stroke:#000000;stroke-width:0.58569198;stroke-linecap:round;stroke-linejoin:miter;stroke-miterlimit:4;stroke-dasharray:none" />
      <path
         inkscape:connector-curvature="0"
         id="path4403"
         d="m 20.675595,1051.4305 0.463287,0.018 0.45489,0.014 0.448583,0.011 0.439795,0 0.43572,0 0.429201,0 0.424913,-0.01 0.420662,-0.011 0.417295,-0.014 0.414425,-0.018 0.41152,-0.021 0.41113,-0.025 0.409394,-0.032 0.409889,-0.035"
         style="fill:none;stroke:#000000;stroke-width:0.58569198;stroke-linecap:round;stroke-linejoin:miter;stroke-miterlimit:4;stroke-dasharray:none" />
      <path
         inkscape:connector-curvature="0"
         id="path4405"
         d="m 26.666299,1051.3165 0.410422,-0.037 0.411838,-0.042 0.412193,-0.048 0.414532,-0.052 0.418677,-0.055 0.421937,-0.059 0.424346,-0.067 0.431433,-0.068 0.436571,-0.074 0.441886,-0.08 0.449256,-0.084 0.457087,-0.089 0.464279,-0.096 0.474803,-0.099"
         style="fill:none;stroke:#000000;stroke-width:0.58569198;stroke-linecap:round;stroke-linejoin:miter;stroke-miterlimit:4;stroke-dasharray:none" />
      <path
         inkscape:connector-curvature="0"
         d="m 20.675595,1051.4305 0.375307,-4.0187"
         id="112"
         style="fill:none;stroke:#000000;stroke-width:0.58569198;stroke-linecap:round;stroke-linejoin:miter;stroke-miterlimit:4;stroke-dasharray:none" />
      <path
         inkscape:connector-curvature="0"
         id="path4408"
         d="m 12.782914,1044.1947 0.301535,0.3413 0.295866,0.3295 0.291969,0.3224 0.286299,0.3104 0.284173,0.3055 0.279922,0.2955 0.276732,0.288 0.273898,0.2807 0.27248,0.2753 0.27,0.2675 0.27,0.2643 0.267874,0.2566 0.268228,0.2533 0.267874,0.2473"
         style="fill:none;stroke:#000000;stroke-width:0.58569198;stroke-linecap:round;stroke-linejoin:miter;stroke-miterlimit:4;stroke-dasharray:none" />
      <path
         inkscape:connector-curvature="0"
         id="path4410"
         d="m 16.690402,1048.2324 0.268583,0.2438 0.269291,0.2402 0.270354,0.2367 0.271772,0.2328 0.274252,0.2314 0.277087,0.2296 0.279212,0.2257 0.283465,0.2261 0.28559,0.2218 0.291969,0.2243 0.295866,0.2221 0.299409,0.2201 0.306142,0.2221 0.312166,0.2218"
         style="fill:none;stroke:#000000;stroke-width:0.58569198;stroke-linecap:round;stroke-linejoin:miter;stroke-miterlimit:4;stroke-dasharray:none" />
      <path
         inkscape:connector-curvature="0"
         d="m 12.782914,1044.1947 0.375272,-4.0186"
         id="115"
         style="fill:none;stroke:#000000;stroke-width:0.58569198;stroke-linecap:round;stroke-linejoin:miter;stroke-miterlimit:4;stroke-dasharray:none" />
    </g>
  </g>
</svg>
