<?xml version="1.0" encoding="UTF-8"?>
<!-- Created with Inkscape (http://www.inkscape.org/) -->
<svg width="48" height="48" version="1.1" viewBox="0 0 12.7 12.7" xml:space="preserve" xmlns="http://www.w3.org/2000/svg"><g><g transform="translate(-.01008 .08682)" stroke="#000000" stroke-linecap="round" stroke-linejoin="round" stroke-width=".265"><path d="m12.42 4.328-5.954 5.954-0.4727 0.2729-1.77 1.77s-1.326-0.2857-2.484-1.443c-1.158-1.158-1.442-2.477-1.442-2.477l1.767-1.767 0.2854-0.4944 5.944-5.944s1.454 0.2811 2.651 1.478c1.197 1.197 1.476 2.65 1.476 2.65z" fill="#ffaa00"/><path d="m12.42 4.328-1.836-1.836-0.03534-0.4218-0.4393-0.04804-1.816-1.822" fill="none"/><path d="m4.225 12.33-3.926-3.92" fill="none"/><path d="m2.065 6.639 3.929 3.917" fill="none"/><path d="m10.59 2.493-5.949 5.949-0.3141 0.2383-0.3835-0.3835 0.2306-0.3259 5.941-5.947" fill="none"/><path d="m4.637 8.441 1.83 1.841" fill="none"/><path d="m4.17 7.97-1.819-1.826" fill="none"/></g></g></svg>
