<?xml version="1.0" encoding="UTF-8"?>
<!-- Created with Inkscape (http://www.inkscape.org/) -->
<svg width="48" height="48" version="1.1" viewBox="0 0 12.7 12.7" xml:space="preserve" xmlns="http://www.w3.org/2000/svg"><g><g transform="matrix(.9374 0 0 .9374 -15.94 .2105)" stroke="#000000" stroke-linecap="round" stroke-linejoin="round" stroke-width=".2827"><path d="m30.18 4.415s-0.3967-1.547-1.559-2.709c-1.162-1.162-2.718-1.559-2.718-1.559l-7.914 7.914-0.6286 1.542s0.3427 1.027 1.335 2.02c0.9928 0.9928 2.02 1.329 2.02 1.329l1.539-0.6048z" fill="#ffaf00"/><path d="m28.3 2.549-0.05105-0.4658-0.459-0.03538-7.925 7.925-0.5907 1.082 1.095-0.609z" fill="none"/><path d="m30.18 4.415-1.88-1.866" fill="none"/><path d="m27.79 2.048-1.887-1.901" fill="none"/><path d="m17.36 9.603 3.355 3.349" fill="none"/><path d="m22.26 12.35-1.884-1.902" fill="none"/><path d="m19.87 9.972-1.876-1.911" fill="none"/></g></g></svg>
