<?xml version="1.0" encoding="UTF-8"?>
<!-- Created with Inkscape (http://www.inkscape.org/) -->
<svg width="48" height="48" version="1.1" viewBox="0 0 12.7 12.7" xml:space="preserve" xmlns="http://www.w3.org/2000/svg"><g><g transform="matrix(.9742 0 0 .9742 .2009 .2406)" stroke="#000000" stroke-linecap="round" stroke-linejoin="round" stroke-width=".272"><path d="m12.47 4.57-0.8996 1.244-6.239 5.611-1.291 0.7579s-1.185 0.4306-2.647-1.291c-1.462-1.722-1.068-2.639-1.068-2.639l-0.2462-0.2317 0.9105-1.256 6.141-5.53 1.439-0.8696s1.136-0.4868 2.847 1.466c0.648 0.7398 0.8997 1.33 1.033 1.756 0.2179 0.6974 0.02101 0.9819 0.02101 0.9819z" fill="#ffaf00"/><path d="m11.57 5.814s-0.5457 0.5071-1.444 0.0424c-0.8983-0.4647-1.416-1.022-1.747-1.367-0.3317-0.345-0.9429-1.216-1.093-1.878-0.1504-0.6619-0.008684-0.97-0.008684-0.97" fill="none"/><path d="m8.566 0.3666s-0.26 0.1791-0.3195 0.3305" fill="none"/><path d="m8.477 0.9166-0.2303-0.2195-1.166 0.7079-6.098 5.472-0.9077 1.145" fill="none"/><path d="m0.983 6.877 0.002844-0.1108" fill="none"/><path d="m7.081 1.405 0.04655-0.1688" fill="none"/><path d="m8.477 0.9166-1.204 0.7248-6.137 5.517-0.8142 1.095" fill="none"/><path d="m1.136 7.159s-0.3062 0.6685 0.4207 1.889c0.7269 1.22 1.51 1.773 2.118 2.141 0.6082 0.3678 1.364 0.4976 1.654 0.2371" fill="none"/><path d="m8.477 0.9166s0.1332-0.2855 0.4768-0.3287c0.3436-0.04324 0.8974 0.1249 1.413 0.5015 0.5154 0.3766 0.8096 0.6983 1.129 1.094 0.3194 0.3961 0.5705 0.8425 0.7012 1.295 0.1307 0.4523 0.138 0.766-0.06362 0.989-0.2016 0.223-0.607 0.2137-0.9245 0.1147-0.3175-0.09901-0.9179-0.5052-1.355-0.934-0.4368-0.4288-0.8434-1.031-1.004-1.43s-0.2548-0.991-0.02308-1.2c0.2317-0.2088 0.6727-0.2286 1.204 0.06331 0.5318 0.2919 1.032 0.7725 1.43 1.323 0.3974 0.5501 0.5704 1.046 0.5672 1.393-0.0032 0.3469-0.1592 0.5322-0.4242 0.577-0.265 0.04475-0.7959-0.1476-1.124-0.3957-0.3279-0.2482-0.9288-0.8131-1.2-1.306-0.2716-0.4931-0.3936-0.8995-0.336-1.165 0.05758-0.2658 0.3231-0.5061 0.8522-0.3072 0.5291 0.1989 0.9913 0.6588 0.9913 0.6588l0.04005-0.1884" fill="none"/><path d="m10.79 1.858-0.9846 0.7709-0.3416 0.3221" fill="none"/><path d="m9.006 2.059s0.1402 0.03256 0.4186 0.2461c0.2784 0.2135 0.3787 0.3239 0.3787 0.3239" fill="none"/><path d="m9.919 2.538s0.3916 0.3029 0.7472 0.8626 0.4541 0.9038 0.4541 0.9038" fill="none"/><path d="m12.47 4.57c-0.3077 0.4254-0.7296 0.4582-1.285 0.2099-0.5557-0.2483-1.07-0.6412-1.585-1.161-0.5146-0.5195-1.04-1.457-1.113-1.865-0.07302-0.4078-0.006562-0.8378-0.006562-0.8378" fill="none"/></g></g></svg>
