<?xml version="1.0" encoding="UTF-8"?>
<!-- Created with Inkscape (http://www.inkscape.org/) -->
<svg width="48" height="48" version="1.1" viewBox="0 0 12.7 12.7" xml:space="preserve" xmlns="http://www.w3.org/2000/svg"><g><g transform="matrix(1.059 0 0 1.059 -.4002 -.5276)" stroke="#000000" stroke-linecap="round" stroke-linejoin="round" stroke-width=".2502"><path d="m11.99 3.419-8.695 8.695s-1.014-0.3261-1.605-0.9168c-0.5907-0.5907-0.9374-1.624-0.9374-1.624l8.697-8.697s0.892 0.2012 1.613 0.9226c0.7214 0.7214 0.9262 1.621 0.9262 1.621z" fill="#ffaf00"/><path d="m11.99 3.419-2.54-2.544" fill="none"/><path d="m0.756 9.573 2.542 2.541" fill="none"/><path d="m4.813 8.052s0.4737-0.8179 1.402-1.746c0.9281-0.9281 1.712-1.369 1.712-1.369s-0.5094 0.8464-1.359 1.696-1.755 1.419-1.755 1.419z" fill="none"/></g></g></svg>
