<?xml version="1.0" encoding="UTF-8" standalone="no"?>
<!-- Created with Inkscape (http://www.inkscape.org/) -->

<svg
   xmlns:dc="http://purl.org/dc/elements/1.1/"
   xmlns:cc="http://creativecommons.org/ns#"
   xmlns:rdf="http://www.w3.org/1999/02/22-rdf-syntax-ns#"
   xmlns:svg="http://www.w3.org/2000/svg"
   xmlns="http://www.w3.org/2000/svg"
   xmlns:sodipodi="http://sodipodi.sourceforge.net/DTD/sodipodi-0.dtd"
   xmlns:inkscape="http://www.inkscape.org/namespaces/inkscape"
   width="48"
   height="48"
   viewBox="0 0 48.000001 48.000001"
   id="svg15825"
   version="1.1"
   inkscape:version="0.91 r13725"
   sodipodi:docname="ISO4033.svg">
  <defs
     id="defs15827" />
  <sodipodi:namedview
     id="base"
     pagecolor="#ffffff"
     bordercolor="#666666"
     borderopacity="1.0"
     inkscape:pageopacity="0.0"
     inkscape:pageshadow="2"
     inkscape:zoom="12.625"
     inkscape:cx="17.782178"
     inkscape:cy="23.920792"
     inkscape:document-units="px"
     inkscape:current-layer="layer1"
     showgrid="false"
     units="px"
     inkscape:window-width="1260"
     inkscape:window-height="787"
     inkscape:window-x="88"
     inkscape:window-y="102"
     inkscape:window-maximized="0" />
  <metadata
     id="metadata15830">
    <rdf:RDF>
      <cc:Work
         rdf:about="">
        <dc:format>image/svg+xml</dc:format>
        <dc:type
           rdf:resource="http://purl.org/dc/dcmitype/StillImage" />
        <dc:title />
      </cc:Work>
    </rdf:RDF>
  </metadata>
  <g
     inkscape:label="Layer 1"
     inkscape:groupmode="layer"
     id="layer1"
     transform="translate(0,-1004.3622)">
    <g
       id="g8001"
       transform="matrix(1.6023925,0,0,1.6023925,-17.334942,-620.95205)"
       style="stroke-width:0.62406683;stroke-miterlimit:4;stroke-dasharray:none">
      <path
         sodipodi:nodetypes="ccccccccc"
         inkscape:connector-curvature="0"
         id="path7999"
         d="m 13.70297,1025.7483 4.277228,-8.396 c 0,0 7.960953,-1.6161 11.960396,-1.0297 3.761819,2.8042 5.418746,4.1654 8,7.2871 -0.184173,2.9628 -0.712871,8.2376 -0.712871,8.2376 0,0 -2.349633,5.431 -4.118812,8.3961 -4.343054,1.1899 -8.565205,1.1047 -12.039604,1.1881 -3.712023,-1.8968 -8.079208,-7.2079 -8.079208,-7.2079 z"
         style="opacity:1;fill:#ffaa00;fill-opacity:1;fill-rule:evenodd;stroke:none;stroke-width:0.62406683;stroke-linecap:round;stroke-linejoin:round;stroke-miterlimit:4;stroke-dasharray:none;stroke-dashoffset:0;stroke-opacity:1" />
      <path
         inkscape:connector-curvature="0"
         id="path4413"
         d="m 29.349528,1027.8822 a 5.4929853,4.0279162 5.3305994 0 0 1.937764,-2.7267"
         style="fill:none;stroke:#000000;stroke-width:0.62406683;stroke-linecap:round;stroke-linejoin:miter;stroke-miterlimit:4;stroke-dasharray:none" />
      <path
         inkscape:connector-curvature="0"
         id="path4415"
         d="M 31.287292,1025.1555 A 5.4932448,4.0281064 5.3305994 1 0 20.348394,1024.134"
         style="fill:none;stroke:#000000;stroke-width:0.62406683;stroke-linecap:round;stroke-linejoin:miter;stroke-miterlimit:4;stroke-dasharray:none" />
      <path
         inkscape:connector-curvature="0"
         id="path4417"
         d="m 20.348394,1024.134 a 5.4929853,4.0279162 5.3305994 0 0 9.001134,3.7482"
         style="fill:none;stroke:#000000;stroke-width:0.62406683;stroke-linecap:round;stroke-linejoin:miter;stroke-miterlimit:4;stroke-dasharray:none" />
      <g
         id="g4419"
         transform="matrix(2.6459873,0.24688619,0.24688619,-2.6459873,-420.41797,1127.8927)"
         style="fill:none;stroke:#000000;stroke-width:0.23483404;stroke-linecap:round;stroke-linejoin:miter;stroke-miterlimit:4;stroke-dasharray:none">
        <ellipse
           id="ellipse4421"
           ry="2.1081901"
           rx="2.875"
           cy="54.431198"
           cx="163.58099"
           style="stroke-width:0.23483404;stroke-linecap:round;stroke-miterlimit:4;stroke-dasharray:none" />
      </g>
      <path
         inkscape:connector-curvature="0"
         id="path4423"
         d="m 32.688705,1030.5204 a 10.629921,7.7947616 5.3305994 0 0 3.140788,-3.1819"
         style="fill:none;stroke:#000000;stroke-width:0.62406683;stroke-linecap:round;stroke-linejoin:miter;stroke-miterlimit:4;stroke-dasharray:none" />
      <path
         inkscape:connector-curvature="0"
         id="path4425"
         d="m 27.716418,1032.0225 a 10.629921,7.7947616 5.3305994 0 0 4.972287,-1.5021"
         style="fill:none;stroke:#000000;stroke-width:0.62406683;stroke-linecap:round;stroke-linejoin:miter;stroke-miterlimit:4;stroke-dasharray:none" />
      <path
         inkscape:connector-curvature="0"
         id="path4427"
         d="m 35.829493,1027.3385 a 10.629921,7.7947616 5.3305994 0 0 -1.862859,-7.7682"
         style="fill:none;stroke:#000000;stroke-width:0.62406683;stroke-linecap:round;stroke-linejoin:miter;stroke-miterlimit:4;stroke-dasharray:none" />
      <path
         inkscape:connector-curvature="0"
         id="path4429"
         d="m 17.74052,1028.9384 a 10.629921,7.7947616 5.3305994 0 0 9.975898,3.0841"
         style="fill:none;stroke:#000000;stroke-width:0.62406683;stroke-linecap:round;stroke-linejoin:miter;stroke-miterlimit:4;stroke-dasharray:none" />
      <path
         inkscape:connector-curvature="0"
         id="path4431"
         d="m 33.966634,1019.5703 a 10.629921,7.7947616 5.3305994 0 0 -9.975649,-3.0843"
         style="fill:none;stroke:#000000;stroke-width:0.62406683;stroke-linecap:round;stroke-linejoin:miter;stroke-miterlimit:4;stroke-dasharray:none" />
      <path
         inkscape:connector-curvature="0"
         id="path4433"
         d="m 15.87791,1021.1701 a 10.629921,7.7947616 5.3305994 0 0 1.86261,7.7683"
         style="fill:none;stroke:#000000;stroke-width:0.62406683;stroke-linecap:round;stroke-linejoin:miter;stroke-miterlimit:4;stroke-dasharray:none" />
      <path
         inkscape:connector-curvature="0"
         id="path4435"
         d="m 23.990985,1016.486 a 10.629921,7.7947616 5.3305994 0 0 -8.113075,4.6841"
         style="fill:none;stroke:#000000;stroke-width:0.62406683;stroke-linecap:round;stroke-linejoin:miter;stroke-miterlimit:4;stroke-dasharray:none" />
      <path
         inkscape:connector-curvature="0"
         id="path4437"
         d="m 35.829493,1027.3385 -0.141733,0.2845 -0.141732,0.2905 -0.14315,0.2945 -0.144566,0.2983 -0.14563,0.3051 -0.147048,0.3118 -0.148819,0.3189 -0.15059,0.3264 -0.152717,0.3337 -0.155905,0.3416 -0.157677,0.3519 -0.161221,0.36 -0.162992,0.3733 -0.168307,0.3796"
         style="fill:none;stroke:#000000;stroke-width:0.62406683;stroke-linecap:round;stroke-linejoin:miter;stroke-miterlimit:4;stroke-dasharray:none" />
      <path
         inkscape:connector-curvature="0"
         id="path4439"
         d="m 33.707123,1031.9086 -0.462189,-0.014 -0.456237,-0.014 -0.447236,-0.01 -0.441106,-0.01 -0.434162,-9e-4 -0.429413,0 -0.424701,0.01 -0.420874,0.011 -0.41733,0.014 -0.414178,0.018 -0.411767,0.021 -0.41113,0.025 -0.410705,0.028 -0.409677,0.035"
         style="fill:none;stroke:#000000;stroke-width:0.62406683;stroke-linecap:round;stroke-linejoin:miter;stroke-miterlimit:4;stroke-dasharray:none" />
      <path
         inkscape:connector-curvature="0"
         id="path4441"
         d="m 37.874371,1023.6078 -0.156969,0.2626 -0.153425,0.2632 -0.151299,0.2622 -0.149528,0.2612 -0.14811,0.2604 -0.145984,0.2622 -0.145276,0.2619 -0.143504,0.2639 -0.142441,0.2665 -0.142795,0.2665 -0.140669,0.2714 -0.141733,0.2721 -0.140669,0.2778 -0.142087,0.2785"
         style="fill:none;stroke:#000000;stroke-width:0.62406683;stroke-linecap:round;stroke-linejoin:miter;stroke-miterlimit:4;stroke-dasharray:none" />
      <path
         inkscape:connector-curvature="0"
         id="path4443"
         d="m 33.966634,1019.5703 0.267874,0.2473 0.268583,0.253 0.269291,0.259 0.268937,0.2622 0.27,0.2675 0.272835,0.2754 0.273898,0.2806 0.276732,0.2881 0.280984,0.2979 0.28311,0.303 0.287363,0.3129 0.290905,0.3199 0.295512,0.3296 0.30189,0.3412"
         style="fill:none;stroke:#000000;stroke-width:0.62406683;stroke-linecap:round;stroke-linejoin:miter;stroke-miterlimit:4;stroke-dasharray:none" />
      <path
         inkscape:connector-curvature="0"
         id="path4445"
         d="m 21.648257,1032.976 -0.30189,-0.3413 -0.295512,-0.3295 -0.290905,-0.3199 -0.287363,-0.3129 -0.28311,-0.303 -0.280984,-0.298 -0.276732,-0.288 -0.273898,-0.2807 -0.272835,-0.2753 -0.27,-0.2675 -0.268937,-0.2619 -0.269291,-0.259 -0.268583,-0.253 -0.267874,-0.2473"
         style="fill:none;stroke:#000000;stroke-width:0.62406683;stroke-linecap:round;stroke-linejoin:miter;stroke-miterlimit:4;stroke-dasharray:none" />
      <path
         inkscape:connector-curvature="0"
         id="path4447"
         d="m 27.716418,1032.0225 -0.409288,0.04 -0.411626,0.041 -0.412405,0.048 -0.415878,0.05 -0.417118,0.057 -0.421937,0.06 -0.425906,0.065 -0.430122,0.071 -0.436323,0.074 -0.441885,0.08 -0.449256,0.084 -0.457122,0.089 -0.465803,0.094 -0.473492,0.1014"
         style="fill:none;stroke:#000000;stroke-width:0.62406683;stroke-linecap:round;stroke-linejoin:miter;stroke-miterlimit:4;stroke-dasharray:none" />
      <path
         inkscape:connector-curvature="0"
         id="path4449"
         d="m 29.981654,1016.3721 0.311811,0.2218 0.306142,0.2222 0.300827,0.2221 0.295511,0.2222 0.290552,0.2218 0.287007,0.2239 0.282048,0.224 0.280275,0.2278 0.276024,0.2271 0.274252,0.2314 0.271772,0.2328 0.270354,0.2367 0.269291,0.2402 0.268583,0.2438"
         style="fill:none;stroke:#000000;stroke-width:0.62406683;stroke-linecap:round;stroke-linejoin:miter;stroke-miterlimit:4;stroke-dasharray:none" />
      <path
         inkscape:connector-curvature="0"
         id="path4451"
         d="m 23.990985,1016.486 0.409641,-0.035 0.409394,-0.032 0.41113,-0.025 0.411768,-0.021 0.414177,-0.018 0.417295,-0.014 0.42091,-0.011 0.424701,-0.01 0.429413,0 0.435472,0 0.441142,0.01 0.447236,0.01 0.45489,0.014 0.4635,0.018"
         style="fill:none;stroke:#000000;stroke-width:0.62406683;stroke-linecap:round;stroke-linejoin:miter;stroke-miterlimit:4;stroke-dasharray:none" />
      <path
         inkscape:connector-curvature="0"
         id="path4453"
         d="m 13.75554,1025.7402 0.167244,-0.3818 0.164055,-0.371 0.161221,-0.3601 0.157677,-0.3518 0.154488,-0.3441 0.153071,-0.3338 0.150591,-0.3263 0.148818,-0.3189 0.147048,-0.3118 0.14563,-0.3051 0.144567,-0.2983 0.143149,-0.2945 0.142795,-0.2881 0.141733,-0.2845"
         style="fill:none;stroke:#000000;stroke-width:0.62406683;stroke-linecap:round;stroke-linejoin:miter;stroke-miterlimit:4;stroke-dasharray:none" />
      <path
         inkscape:connector-curvature="0"
         id="path4455"
         d="m 17.74052,1028.9384 -0.268582,-0.2437 -0.269292,-0.2403 -0.270354,-0.2367 -0.271772,-0.2328 -0.274252,-0.2313 -0.276023,-0.2272 -0.280276,-0.2278 -0.282047,-0.2239 -0.287008,-0.224 -0.290551,-0.2218 -0.295512,-0.2222 -0.300827,-0.2221 -0.306496,-0.2222 -0.311811,-0.2218"
         style="fill:none;stroke:#000000;stroke-width:0.62406683;stroke-linecap:round;stroke-linejoin:miter;stroke-miterlimit:4;stroke-dasharray:none" />
      <path
         inkscape:connector-curvature="0"
         id="path4457"
         d="m 17.921477,1017.4372 0.474803,-0.099 0.464492,-0.096 0.457087,-0.089 0.449256,-0.084 0.441921,-0.08 0.436323,-0.074 0.431433,-0.068 0.425906,-0.065 0.420626,-0.062 0.418429,-0.054 0.414566,-0.052 0.413717,-0.045 0.410279,-0.044 0.41067,-0.038"
         style="fill:none;stroke:#000000;stroke-width:0.62406683;stroke-linecap:round;stroke-linejoin:miter;stroke-miterlimit:4;stroke-dasharray:none" />
      <path
         inkscape:connector-curvature="0"
         id="path4459"
         d="m 15.87791,1021.1701 0.141024,-0.281 0.141732,-0.2753 0.140315,-0.2742 0.142087,-0.2693 0.141378,-0.269 0.143858,-0.2639 0.143858,-0.264 0.143858,-0.264 0.145985,-0.2622 0.14811,-0.2604 0.149527,-0.2612 0.1513,-0.2622 0.154488,-0.2611 0.155905,-0.2647"
         style="fill:none;stroke:#000000;stroke-width:0.62406683;stroke-linecap:round;stroke-linejoin:miter;stroke-miterlimit:4;stroke-dasharray:none" />
      <path
         inkscape:connector-curvature="0"
         id="path4461"
         d="m 32.929615,1040.2468 0.155905,-0.2647 0.154843,-0.2611 0.151299,-0.2622 0.149528,-0.2612 0.148464,-0.2608 0.145984,-0.2622 0.143859,-0.2639 0.143858,-0.264 0.143504,-0.264 0.141378,-0.2689 0.142086,-0.2693 0.142087,-0.2722 0.140315,-0.2774 0.141024,-0.281"
         style="fill:none;stroke:#000000;stroke-width:0.62406683;stroke-linecap:round;stroke-linejoin:miter;stroke-miterlimit:4;stroke-dasharray:none" />
      <path
         inkscape:connector-curvature="0"
         id="path4463"
         d="m 34.973394,1036.5137 0.141733,-0.2845 0.142795,-0.2881 0.143149,-0.2944 0.144922,-0.2984 0.14563,-0.305 0.147047,-0.3118 0.148464,-0.3189 0.150591,-0.3264 0.153071,-0.3338 0.154488,-0.3437 0.159094,-0.3497 0.160158,-0.3625 0.164055,-0.3708 0.167244,-0.382"
         style="fill:none;stroke:#000000;stroke-width:0.62406683;stroke-linecap:round;stroke-linejoin:miter;stroke-miterlimit:4;stroke-dasharray:none" />
      <path
         inkscape:connector-curvature="0"
         d="m 37.095764,1031.9437 0.778607,-8.3359"
         id="141"
         style="fill:none;stroke:#000000;stroke-width:0.62406683;stroke-linecap:round;stroke-linejoin:miter;stroke-miterlimit:4;stroke-dasharray:none" />
      <path
         inkscape:connector-curvature="0"
         d="m 32.929615,1040.2468 0.777508,-8.3382"
         id="142"
         style="fill:none;stroke:#000000;stroke-width:0.62406683;stroke-linecap:round;stroke-linejoin:miter;stroke-miterlimit:4;stroke-dasharray:none" />
      <path
         inkscape:connector-curvature="0"
         id="path4467"
         d="m 20.86965,1041.3118 0.463252,0.018 0.455138,0.014 0.44837,0.011 0.439795,0 0.435685,0 0.429201,0 0.424913,-0.01 0.420662,-0.011 0.417331,-0.014 0.414389,-0.018 0.411555,-0.021 0.41113,-0.025 0.409359,-0.032 0.409925,-0.035"
         style="fill:none;stroke:#000000;stroke-width:0.62406683;stroke-linecap:round;stroke-linejoin:miter;stroke-miterlimit:4;stroke-dasharray:none" />
      <path
         inkscape:connector-curvature="0"
         id="path4469"
         d="m 26.860355,1041.1978 0.410386,-0.037 0.411874,-0.042 0.412157,-0.048 0.414532,-0.052 0.418677,-0.055 0.420626,-0.062 0.425693,-0.065 0.431433,-0.068 0.436535,-0.074 0.441922,-0.08 0.449255,-0.084 0.457087,-0.089 0.46428,-0.096 0.474803,-0.099"
         style="fill:none;stroke:#000000;stroke-width:0.62406683;stroke-linecap:round;stroke-linejoin:miter;stroke-miterlimit:4;stroke-dasharray:none" />
      <path
         inkscape:connector-curvature="0"
         d="m 20.86965,1041.3118 0.778607,-8.3358"
         id="145"
         style="fill:none;stroke:#000000;stroke-width:0.62406683;stroke-linecap:round;stroke-linejoin:miter;stroke-miterlimit:4;stroke-dasharray:none" />
      <path
         inkscape:connector-curvature="0"
         id="path4472"
         d="m 12.976934,1034.0761 0.301535,0.3412 0.295866,0.3295 0.291969,0.3224 0.286299,0.3104 0.284173,0.3055 0.279922,0.2955 0.276732,0.2881 0.273897,0.2806 0.272481,0.2753 0.27,0.2675 0.270354,0.2643 0.267874,0.2566 0.268228,0.2533 0.267875,0.2474"
         style="fill:none;stroke:#000000;stroke-width:0.62406683;stroke-linecap:round;stroke-linejoin:miter;stroke-miterlimit:4;stroke-dasharray:none" />
      <path
         inkscape:connector-curvature="0"
         id="path4474"
         d="m 16.884457,1038.1137 0.268583,0.2438 0.269291,0.2402 0.270709,0.2367 0.271772,0.2328 0.274252,0.2314 0.277086,0.2296 0.279213,0.2257 0.282402,0.2236 0.287007,0.2239 0.291969,0.2243 0.295866,0.2222 0.299409,0.22 0.306497,0.2222 0.311811,0.2218"
         style="fill:none;stroke:#000000;stroke-width:0.62406683;stroke-linecap:round;stroke-linejoin:miter;stroke-miterlimit:4;stroke-dasharray:none" />
      <path
         inkscape:connector-curvature="0"
         d="m 12.976934,1034.0761 0.778606,-8.3359"
         id="148"
         style="fill:none;stroke:#000000;stroke-width:0.62406683;stroke-linecap:round;stroke-linejoin:miter;stroke-miterlimit:4;stroke-dasharray:none" />
    </g>
  </g>
</svg>
