<?xml version="1.0" encoding="UTF-8"?>
<!-- Created with Inkscape (http://www.inkscape.org/) -->
<svg width="48" height="48" version="1.1" viewBox="0 0 12.7 12.7" xml:space="preserve" xmlns="http://www.w3.org/2000/svg"><g><g transform="translate(-.09124 -.1895)" stroke="#000000" stroke-linecap="round" stroke-linejoin="round" stroke-width=".265"><path d="m8.02 0.7502-1.311 0.9186-5.306 5.537-0.8752 1.319 0.5614 0.427s-0.2371 0.742 0.08179 1.421c0.3189 0.6794 0.996 1.445 1.691 1.79 0.6952 0.3452 1.461 0.4985 2.103 0.1277l1.029-0.7514 5.505-5.716 0.7493-1.196s0.1864-0.4905 0.06784-1.095c-0.1185-0.6044-0.5264-1.214-0.9905-1.725-0.4641-0.5102-1.03-0.8229-1.674-1.091-0.6442-0.2678-1.51-0.1045-1.631 0.03301z" fill="#ffaf00"/><path d="m1.089 8.952 0.6965-1.036 5.189-5.39 1.094-0.792-0.5434-0.4444 0.4955-0.5394" fill="none"/><path d="m7.525 1.29-0.9662 0.7087-5.089 5.293-0.9415 1.234" fill="none"/><path d="m1.469 7.291-0.06637-0.08485" fill="none"/><path d="m6.559 1.998 0.1504-0.3295" fill="none"/><path d="m5.994 11.54s-0.414 0.3354-1.117 0.2526c-0.703-0.08282-1.577-0.5535-2.033-0.9864-0.4562-0.4328-0.9691-1.203-1.102-1.726-0.1333-0.5225 0.04472-1.164 0.04472-1.164" fill="none"/><path d="m11.5 5.823s-0.2475 0.3132-0.557 0.4345c-0.3095 0.1213-1.002 0.1516-1.741-0.1594-0.7393-0.311-1.185-0.7096-1.709-1.428-0.524-0.7185-0.6739-1.521-0.5168-2.145" fill="none"/><path d="m8.068 1.734s0.1955-0.5387 0.9223-0.5799c0.7268-0.04115 1.685 0.4928 2.251 1.231s0.6365 1.494 0.3888 1.912c-0.2477 0.4181-1.023 0.5137-1.766 0.09413-0.7432-0.4196-1.252-1.212-1.289-1.844-0.0372-0.6319 0.5715-0.9552 1.222-0.7182 0.6506 0.237 1.182 0.7723 1.309 1.351 0.127 0.5786-0.01814 0.8598-0.5708 0.9065-0.5526 0.04668-1.282-0.7212-1.331-1.12-0.04867-0.3984 0.07453-0.9504 1.008-0.4031l0.1628-0.424" fill="none"/><path d="m10.21 2.563-0.814 0.8148" fill="none"/><path d="m10.4 4.081s-0.06436-0.2439-0.2393-0.5585c-0.1749-0.3147-0.4363-0.467-0.4363-0.467" fill="none"/><path d="m12.25 4.627s-0.3182 0.7142-1.376 0.6325c-1.058-0.08163-2.1-1.057-2.499-1.754-0.3998-0.6973-0.5073-1.483-0.3041-1.772" fill="none"/></g></g></svg>
