<?xml version="1.0" encoding="UTF-8"?>
<!-- Created with Inkscape (http://www.inkscape.org/) -->
<svg width="48" height="48" version="1.1" viewBox="0 0 12.7 12.7" xml:space="preserve" xmlns="http://www.w3.org/2000/svg"><g><g transform="translate(.04203 .1443)" stroke="#000000" stroke-linecap="round" stroke-linejoin="round" stroke-width=".265"><path d="m11.44 6.032-5.217 5.229-1.212 0.7852s-1.222 0.5134-2.513-0.4434c-0.4933-0.3657-0.7712-0.674-0.972-0.9075-0.3246-0.3774-0.3883-0.5698-0.3883-0.5698l-0.3716 0.02563s-0.3699-0.6276-0.4608-1.08c-0.09091-0.452-0.06998-1.024 0.07038-1.32 0.1404-0.2952 0.1639-0.2933 0.1639-0.2933l0.6231-0.9746 5.321-5.334 1.265-0.7913s0.7809-0.331 1.764 0.06157c0.9827 0.3926 1.422 0.9145 1.972 1.511s0.9441 1.549 0.8865 2.228-0.9308 1.872-0.9308 1.872z" fill="#ffaf00"/><path d="m1.134 10.13 0.6332-0.8204 5.084-5.068 1.021-0.8713-0.3426 0.02113-1.005 0.8633-5.075 5.079-0.6873 0.8214" fill="none"/><path d="m6.219 11.26s-0.4198 0.387-1.361 0.2834c-0.461-0.05077-1.16-0.3572-1.758-0.7963-0.622-0.4569-1.059-1.063-1.334-1.443" fill="none"/><path d="m1.159 6.485s-0.3969 0.4918-0.2499 1.422c0.1471 0.9303 0.5405 1.424 0.5405 1.424" fill="none"/><path d="m6.48 1.151s-0.5824 0.4963-0.5191 1.315c0.06335 0.8186 0.5632 1.785 0.5632 1.785" fill="none"/><path d="m6.852 4.238s0.736 1.196 1.731 1.733 2.11 0.8004 2.853 0.0617" fill="none"/><path d="m7.53 3.388s-0.3995-0.5831-0.4919-1.246c-0.09243-0.6633 0.1024-1.422 0.7073-1.782" fill="none"/><path d="m8.633 1.08 0.2341 0.3843c-0.5111 0.08883-0.6338 0.5017-0.5542 1.017 0.0305 0.1977 0.06947 0.4196 0.1702 0.6259 0.0946 0.1938 0.2424 0.3667 0.4343 0.5638 0.6339 0.6514 1.748 1.261 2.26 0.8164 0.6679-0.5796 0.4057-1.49-0.4929-2.545-0.8986-1.055-2.535-1.194-2.779-0.2741-0.1912 0.7182 0.05429 1.359 0.5493 1.994 0.1389 0.1781 0.3097 0.3418 0.4955 0.5244 0.3297 0.324 0.7152 0.5197 1.083 0.646 0.5376 0.1848 1.038 0.1931 1.271 0.1275 0.3935-0.1103 0.8868-0.7347 0.5914-1.647-0.2954-0.9125-0.995-1.671-1.572-2.077-0.5775-0.4061-1.446-0.7606-2.146-0.5295-0.6991 0.2311-0.7449 0.8892-0.7341 1.406 0.01083 0.5163 0.4292 1.255 0.4292 1.255s0.8718 1.439 2.097 1.869c1.226 0.4293 1.98 0.0895 2.156-0.3398" fill="none"/><path d="m10.89 4.624s0.05748-0.8718-0.7226-1.696c-0.7801-0.8243-1.294-1.061-1.78-1.16" fill="none"/></g></g></svg>
