<?xml version="1.0" encoding="UTF-8"?>
<!-- Created with Inkscape (http://www.inkscape.org/) -->
<svg width="48" height="48" version="1.1" viewBox="0 0 12.7 12.7" xml:space="preserve" xmlns="http://www.w3.org/2000/svg"><g><g transform="matrix(1.029 0 0 1.03 -.257 -.1146)" stroke="#000000" stroke-linecap="round" stroke-linejoin="round" stroke-width=".2574"><path d="m12.23 4.299-0.4436 1.077-7.034 5.997-1.288 0.3377s-0.1091 0.0098-0.3954-0.06824c-0.2863-0.07808-0.7714-0.4455-0.8899-0.5546-0.1185-0.109-0.4472-0.4276-0.4472-0.4276l0.07899-0.1918 1.014-0.8497-0.1715-0.1989-1.139 0.9773s-0.429-0.5506-0.5558-0.7655c-0.1268-0.2149-0.3514-0.706-0.3723-0.8652-0.02096-0.1593-0.03464-0.395-0.02096-0.4479 0.01368-0.05289 0.0402-0.1091 0.0402-0.1091l0.4541-1.065 6.993-5.937 1.324-0.3583s0.1808-0.009154 0.3422 0.03889c0.1614 0.04804 0.5477 0.2695 0.729 0.4078s0.5409 0.4719 0.7488 0.6941 0.5015 0.6181 0.667 0.9119c0.1655 0.2938 0.3019 0.5589 0.3543 0.7932 0.05241 0.2343 0.05389 0.2812 0.05156 0.3783-0.0023 0.09702-0.03918 0.2258-0.03918 0.2258z" fill="#ffaf00"/><path d="m4.755 11.37s-0.299 0.2006-0.9966-0.1433c-0.6976-0.3439-1.335-1.055-1.335-1.055" fill="none"/><path d="m1.062 7.144s-0.193 0.3545 0.02751 0.9691c0.2205 0.6146 1.045 1.754 1.045 1.754" fill="none"/><path d="m8.056 1.207s-0.1845 0.2323-0.1701 0.4693c0.0144 0.237 0.1398 0.7498 0.3305 1.104 0.1907 0.354 0.8267 1.228 0.8267 1.228" fill="none"/><path d="m11.79 5.376s-0.2166 0.258-0.5165 0.2144c-0.2999-0.04357-0.8897-0.3412-1.201-0.5848-0.3113-0.2436-0.7431-0.6794-0.7431-0.6794" fill="none"/><path d="m12.23 4.299c-0.1098 0.1696-0.1959 0.2003-0.4722 0.1959-0.2763-0.004429-0.6951-0.3008-0.946-0.4707s-0.608-0.5383-0.608-0.5383l0.1005-0.1986s0.403 0.3879 0.6011 0.5272c0.1981 0.1393 0.4384 0.2752 0.6386 0.2854s0.2999-0.1047 0.331-0.1739c0.03111-0.06921 0.04436-0.2545-0.02499-0.4998-0.06934-0.2453-0.3216-0.687-0.474-0.8966-0.1523-0.2095-0.5033-0.6062-0.6662-0.7484-0.1628-0.1423-0.476-0.3546-0.6644-0.4332-0.1883-0.07857-0.3021-0.09733-0.407-0.07456-0.105 0.02277-0.2158 0.1274-0.2323 0.2748-0.01655 0.1474 0.06983 0.4962 0.149 0.6596 0.07914 0.1634 0.5734 0.8822 0.5734 0.8822l-0.1573 0.1349s-0.2785-0.3574-0.4633-0.6308c-0.1849-0.2734-0.3279-0.6259-0.3774-0.7901s-0.1065-0.429-0.09708-0.5555c0.009389-0.1264 0.107-0.2678 0.1315-0.2966s0.2114-0.1029 0.2114-0.1029" fill="none"/><path d="m9.974 3.225-0.9315 0.7831-6.387 5.412" fill="none"/><path d="m2.828 9.619 7.48-6.332-0.1005 0.1986-0.8779 0.8405-6.906 5.848-0.6887 0.4859" fill="none"/></g></g></svg>
