<?xml version="1.0" encoding="UTF-8" standalone="no"?>
<!-- Created with Inkscape (http://www.inkscape.org/) -->

<svg
   xmlns:dc="http://purl.org/dc/elements/1.1/"
   xmlns:cc="http://creativecommons.org/ns#"
   xmlns:rdf="http://www.w3.org/1999/02/22-rdf-syntax-ns#"
   xmlns:svg="http://www.w3.org/2000/svg"
   xmlns="http://www.w3.org/2000/svg"
   xmlns:sodipodi="http://sodipodi.sourceforge.net/DTD/sodipodi-0.dtd"
   xmlns:inkscape="http://www.inkscape.org/namespaces/inkscape"
   width="48"
   height="48"
   viewBox="0 0 48.000001 48.000001"
   id="svg15825"
   version="1.1"
   inkscape:version="0.91 r13725"
   sodipodi:docname="ISO7094.svg">
  <defs
     id="defs15827" />
  <sodipodi:namedview
     id="base"
     pagecolor="#ffffff"
     bordercolor="#666666"
     borderopacity="1.0"
     inkscape:pageopacity="0.0"
     inkscape:pageshadow="2"
     inkscape:zoom="12.625"
     inkscape:cx="24"
     inkscape:cy="25.34735"
     inkscape:document-units="px"
     inkscape:current-layer="layer1"
     showgrid="false"
     units="px"
     inkscape:window-width="1260"
     inkscape:window-height="787"
     inkscape:window-x="184"
     inkscape:window-y="87"
     inkscape:window-maximized="0" />
  <metadata
     id="metadata15830">
    <rdf:RDF>
      <cc:Work
         rdf:about="">
        <dc:format>image/svg+xml</dc:format>
        <dc:type
           rdf:resource="http://purl.org/dc/dcmitype/StillImage" />
        <dc:title></dc:title>
      </cc:Work>
    </rdf:RDF>
  </metadata>
  <g
     inkscape:label="Layer 1"
     inkscape:groupmode="layer"
     id="layer1"
     transform="translate(0,-1004.3622)">
    <g
       id="g7714"
       transform="matrix(0.89358607,0,0,0.89358607,0.34292486,100.7641)">
      <path
         sodipodi:nodetypes="ccccccccccccccccccccc"
         transform="translate(0,1004.3622)"
         inkscape:connector-curvature="0"
         id="path7712"
         d="M 24.831961,13.847206 C 22.435983,13.829396 20.038608,14.078444 17.7185,14.688999 13.318398,15.797166 9.043563,17.955218 6.0810528,21.468406 3.7826757,24.10176 2.7401777,25.892413 2.3256749,31.150948 2.315182,34.645181 1.0602217,36.449777 4.7155,42.571807 c 3.0489112,4.382391 7.843411,7.272976 12.852047,8.897998 3.312475,1.062476 6.795718,1.631568 10.278949,1.507621 3.4847,0.04739 6.95751,-0.659388 10.197394,-1.925215 4.288263,-1.688207 8.294064,-4.634212 10.361693,-8.847791 2.376493,-5.370582 2.349492,-11.068087 1.093767,-14.368662 -1.626687,-4.458691 -5.223431,-7.956912 -9.32008,-10.213335 -2.45502,-1.355274 -5.082612,-2.3984 -7.826423,-2.993658 -2.464936,-0.563133 -4.990949,-0.854394 -7.520886,-0.781559 z m 0.6431,16.271968 c 2.541903,-0.01782 3.595877,0.300367 5.830626,1.846331 0.829828,1.116931 1.035115,0.94639 1.522098,2.226843 -1.462683,1.347273 -2.17593,2.052892 -4.317606,2.387531 -1.742338,0.255942 -3.485119,0.139579 -5.131033,-0.534808 -1.871809,-1.065678 -2.72387,-1.623405 -3.726537,-3.291558 1.594421,-1.38666 0.384681,-0.393279 1.594421,-1.38666 1.723269,-0.87728 2.396005,-0.990465 4.228031,-1.247679 z"
         style="opacity:1;fill:#ffaa00;fill-opacity:1;fill-rule:evenodd;stroke:none;stroke-width:1;stroke-linecap:round;stroke-linejoin:round;stroke-miterlimit:4;stroke-dasharray:none;stroke-dashoffset:0;stroke-opacity:1" />
      <path
         inkscape:connector-curvature="0"
         d="m 2.6814934,1033.4445 -0.3870709,4.1359"
         id="28"
         style="fill:none;stroke:#000000;stroke-width:1;stroke-linecap:round;stroke-linejoin:miter;stroke-miterlimit:4;stroke-dasharray:none" />
      <path
         inkscape:connector-curvature="0"
         d="m 50.309068,1037.8877 -0.385972,4.1384"
         id="29"
         style="fill:none;stroke:#000000;stroke-width:1;stroke-linecap:round;stroke-linejoin:miter;stroke-miterlimit:4;stroke-dasharray:none" />
      <path
         inkscape:connector-curvature="0"
         id="path4642"
         d="m 31.193635,1039.9729 a 7.3080709,5.3588886 5.3305994 0 0 2.578288,-3.6273"
         style="fill:none;stroke:#000000;stroke-width:1;stroke-linecap:round;stroke-linejoin:miter;stroke-miterlimit:4;stroke-dasharray:none" />
      <path
         inkscape:connector-curvature="0"
         id="path4644"
         d="m 33.771923,1036.3456 a 7.3083121,5.3590655 5.3305994 1 0 -14.553319,-1.3589"
         style="fill:none;stroke:#000000;stroke-width:1;stroke-linecap:round;stroke-linejoin:miter;stroke-miterlimit:4;stroke-dasharray:none" />
      <path
         inkscape:connector-curvature="0"
         id="path4646"
         d="m 19.218604,1034.9867 a 7.3080709,5.3588886 5.3305994 0 0 11.975031,4.9862"
         style="fill:none;stroke:#000000;stroke-width:1;stroke-linecap:round;stroke-linejoin:miter;stroke-miterlimit:4;stroke-dasharray:none" />
      <path
         inkscape:connector-curvature="0"
         id="path4648"
         d="m 41.875112,1049.7657 a 23.917323,17.5382 5.3305994 0 0 8.433956,-11.878"
         style="fill:none;stroke:#000000;stroke-width:1;stroke-linecap:round;stroke-linejoin:miter;stroke-miterlimit:4;stroke-dasharray:none" />
      <path
         inkscape:connector-curvature="0"
         id="path4650"
         d="M 50.309068,1037.8877 A 23.917323,17.5382 5.3305994 0 0 2.6814934,1033.4445"
         style="fill:none;stroke:#000000;stroke-width:1;stroke-linecap:round;stroke-linejoin:miter;stroke-miterlimit:4;stroke-dasharray:none" />
      <path
         inkscape:connector-curvature="0"
         id="path4652"
         d="m 2.6814934,1033.4445 a 23.917323,17.5382 5.3305994 0 0 39.1936186,16.3212"
         style="fill:none;stroke:#000000;stroke-width:1;stroke-linecap:round;stroke-linejoin:miter;stroke-miterlimit:4;stroke-dasharray:none" />
      <path
         inkscape:connector-curvature="0"
         id="path4654"
         d="m 41.487828,1053.9018 a 23.917323,17.5382 5.3305994 0 0 8.435268,-11.8757"
         style="fill:none;stroke:#000000;stroke-width:1;stroke-linecap:round;stroke-linejoin:miter;stroke-miterlimit:4;stroke-dasharray:none" />
      <path
         inkscape:connector-curvature="0"
         id="path4656"
         d="m 2.2944225,1037.5804 a 23.917323,17.5382 5.3305994 0 0 39.1934055,16.3214"
         style="fill:none;stroke:#000000;stroke-width:1;stroke-linecap:round;stroke-linejoin:miter;stroke-miterlimit:4;stroke-dasharray:none" />
      <path
         inkscape:connector-curvature="0"
         id="path4658"
         d="m 33.008942,1038.3603 a 7.3080709,5.3588886 5.3305994 0 0 -13.414641,-1.2522"
         style="fill:none;stroke:#000000;stroke-width:1;stroke-linecap:round;stroke-linejoin:miter;stroke-miterlimit:4;stroke-dasharray:none" />
    </g>
  </g>
</svg>
