<?xml version="1.0" encoding="UTF-8" standalone="no"?>
<svg
   xmlns:dc="http://purl.org/dc/elements/1.1/"
   xmlns:cc="http://creativecommons.org/ns#"
   xmlns:rdf="http://www.w3.org/1999/02/22-rdf-syntax-ns#"
   xmlns:svg="http://www.w3.org/2000/svg"
   xmlns="http://www.w3.org/2000/svg"
   xmlns:sodipodi="http://sodipodi.sourceforge.net/DTD/sodipodi-0.dtd"
   xmlns:inkscape="http://www.inkscape.org/namespaces/inkscape"
   viewBox="0 0 126.99999 127"
   width="48"
   height="48"
   version="1.2"
   id="svg4701"
   sodipodi:docname="NFE27-619.svg"
   inkscape:version="0.92.4 (5da689c313, 2019-01-14)">
  <metadata
     id="metadata4705">
    <rdf:RDF>
      <cc:Work
         rdf:about="">
        <dc:format>image/svg+xml</dc:format>
        <dc:type
           rdf:resource="http://purl.org/dc/dcmitype/StillImage" />
        <dc:title>FreeCAD SVG Export</dc:title>
      </cc:Work>
    </rdf:RDF>
  </metadata>
  <sodipodi:namedview
     pagecolor="#ffffff"
     bordercolor="#666666"
     borderopacity="1"
     objecttolerance="10"
     gridtolerance="10"
     guidetolerance="10"
     inkscape:pageopacity="0"
     inkscape:pageshadow="2"
     inkscape:window-width="1920"
     inkscape:window-height="1017"
     id="namedview4703"
     showgrid="false"
     inkscape:zoom="9.5144352"
     inkscape:cx="14.156304"
     inkscape:cy="29.288717"
     inkscape:window-x="-8"
     inkscape:window-y="-8"
     inkscape:window-maximized="1"
     inkscape:current-layer="DrawingContent"
     units="px"
     fit-margin-top="0"
     fit-margin-left="0"
     fit-margin-right="0"
     fit-margin-bottom="0" />
  <title
     id="title4597">FreeCAD SVG Export</title>
  <desc
     id="desc4599">Drawing page: Page exported from FreeCAD document: US_SB_Senk_check</desc>
  <defs
     id="defs4601" />
  <g
     inkscape:groupmode="layer"
     inkscape:label="TechDraw"
     id="Page"
     transform="translate(-993.76694,-1397.2651)">
    <g
       id="DrawingContent"
       style="fill:none;fill-rule:evenodd;stroke:#000000;stroke-width:1;stroke-linecap:square;stroke-linejoin:bevel">
      <g
         font-size="29.1042"
         font-weight="400"
         transform="translate(1050,1485)"
         font-style="normal"
         id="g4605"
         style="font-style:normal;font-weight:400;font-size:29.10420036px;font-family:'MS Shell Dlg 2';fill:#000000;fill-opacity:0;stroke:none" />
      <g
         font-size="29.1042"
         font-weight="400"
         transform="translate(1050,1485)"
         font-style="normal"
         id="g4609"
         style="font-style:normal;font-weight:400;font-size:29.10420036px;font-family:'MS Shell Dlg 2';fill:#000000;fill-opacity:0;stroke:none" />
      <g
         font-size="29.1042"
         font-weight="400"
         transform="translate(1050,1485)"
         font-style="normal"
         id="g4613"
         style="font-style:normal;font-weight:400;font-size:29.10420036px;font-family:'MS Shell Dlg 2';fill:#000000;fill-opacity:0;stroke:none" />
      <g
         font-size="29.1042"
         font-weight="400"
         transform="translate(1050,1485)"
         font-style="normal"
         id="g4617"
         style="font-style:normal;font-weight:400;font-size:29.10420036px;font-family:'MS Shell Dlg 2';fill:#000000;fill-opacity:0;stroke:none" />
      <g
         font-size="29.1042"
         font-weight="400"
         transform="translate(1050,1485)"
         font-style="normal"
         id="g4621"
         style="font-style:normal;font-weight:400;font-size:29.10420036px;font-family:'MS Shell Dlg 2';fill:#000000;fill-opacity:0;stroke:none" />
      <g
         font-size="29.1042"
         font-weight="400"
         transform="translate(1050,1485)"
         font-style="normal"
         id="g4625"
         style="font-style:normal;font-weight:400;font-size:29.10420036px;font-family:'MS Shell Dlg 2';fill:#000000;fill-opacity:0;stroke:none" />
      <g
         font-size="29.1042"
         font-weight="400"
         transform="translate(1050,1485)"
         font-style="normal"
         id="g4629"
         style="font-style:normal;font-weight:400;font-size:29.10420036px;font-family:'MS Shell Dlg 2';fill:#000000;fill-opacity:0;stroke:none" />
      <g
         font-size="29.1042"
         font-weight="400"
         transform="translate(1050,1485)"
         font-style="normal"
         id="g4633"
         style="font-style:normal;font-weight:400;font-size:29.10420036px;font-family:'MS Shell Dlg 2';fill:#000000;fill-opacity:0;stroke:none" />
      <g
         font-size="29.1042"
         font-weight="400"
         transform="translate(1050,1485)"
         font-style="normal"
         id="g4637"
         style="font-style:normal;font-weight:400;font-size:29.10420036px;font-family:'MS Shell Dlg 2';fill:none;stroke:#000000;stroke-width:2.5;stroke-linecap:round;stroke-linejoin:bevel;stroke-opacity:1" />
      <g
         font-size="29.1042"
         font-weight="400"
         transform="translate(1050,1485)"
         font-style="normal"
         id="g4641"
         style="font-style:normal;font-weight:400;font-size:29.10420036px;font-family:'MS Shell Dlg 2';fill:none;stroke:#000000;stroke-width:2.5;stroke-linecap:round;stroke-linejoin:bevel;stroke-opacity:1" />
      <g
         font-size="29.1042"
         font-weight="400"
         transform="translate(1050,1485)"
         font-style="normal"
         id="g4645"
         style="font-style:normal;font-weight:400;font-size:29.10420036px;font-family:'MS Shell Dlg 2';fill:none;stroke:#000000;stroke-width:2.5;stroke-linecap:round;stroke-linejoin:bevel;stroke-opacity:1" />
      <g
         font-size="29.1042"
         font-weight="400"
         transform="translate(1050,1485)"
         font-style="normal"
         id="g4649"
         style="font-style:normal;font-weight:400;font-size:29.10420036px;font-family:'MS Shell Dlg 2';fill:none;stroke:#000000;stroke-width:2.5;stroke-linecap:round;stroke-linejoin:bevel;stroke-opacity:1" />
      <g
         font-size="29.1042"
         font-weight="400"
         transform="translate(1050,1485)"
         font-style="normal"
         id="g4653"
         style="font-style:normal;font-weight:400;font-size:29.10420036px;font-family:'MS Shell Dlg 2';fill:none;stroke:#000000;stroke-width:2.5;stroke-linecap:round;stroke-linejoin:bevel;stroke-opacity:1" />
      <g
         font-size="29.1042"
         font-weight="400"
         transform="translate(1050,1485)"
         font-style="normal"
         id="g4657"
         style="font-style:normal;font-weight:400;font-size:29.10420036px;font-family:'MS Shell Dlg 2';fill:none;stroke:#000000;stroke-width:2.5;stroke-linecap:round;stroke-linejoin:bevel;stroke-opacity:1" />
      <g
         font-size="29.1042"
         font-weight="400"
         transform="translate(1050,1485)"
         font-style="normal"
         id="g4661"
         style="font-style:normal;font-weight:400;font-size:29.10420036px;font-family:'MS Shell Dlg 2';fill:none;stroke:#000000;stroke-width:2.5;stroke-linecap:round;stroke-linejoin:bevel;stroke-opacity:1" />
      <g
         font-size="29.1042"
         font-weight="400"
         transform="translate(1050,1485)"
         font-style="normal"
         id="g4665"
         style="font-style:normal;font-weight:400;font-size:29.10420036px;font-family:'MS Shell Dlg 2';fill:none;stroke:#000000;stroke-width:2.5;stroke-linecap:round;stroke-linejoin:bevel;stroke-opacity:1" />
      <g
         font-size="29.1042"
         font-weight="400"
         transform="translate(1050,1485)"
         font-style="normal"
         id="g4669"
         style="font-style:normal;font-weight:400;font-size:29.10420036px;font-family:'MS Shell Dlg 2';fill:none;stroke:#000000;stroke-width:2.5;stroke-linecap:round;stroke-linejoin:bevel;stroke-opacity:1" />
      <g
         font-size="29.1042"
         font-weight="400"
         transform="translate(1050,1485)"
         font-style="normal"
         id="g4677"
         style="font-style:normal;font-weight:400;font-size:29.10420036px;font-family:'MS Shell Dlg 2';fill:none;stroke:#000000;stroke-width:2.5;stroke-linecap:round;stroke-linejoin:bevel;stroke-opacity:1" />
      <g
         font-size="29.1042"
         font-weight="400"
         transform="translate(1050,1485)"
         font-style="normal"
         id="g4681"
         style="font-style:normal;font-weight:400;font-size:29.10420036px;font-family:'MS Shell Dlg 2';fill:none;stroke:#000000;stroke-width:2.5;stroke-linecap:round;stroke-linejoin:bevel;stroke-opacity:1" />
      <g
         id="g4586"
         transform="translate(6.6740691,-22.803069)">
        <g
           style="font-style:normal;font-weight:400;font-size:29.10420036px;font-family:'MS Shell Dlg 2';fill:#000000;fill-opacity:0;stroke:#000000;stroke-width:2.5;stroke-linecap:round;stroke-linejoin:bevel;stroke-opacity:1"
           id="g4685"
           font-style="normal"
           transform="translate(1050,1485)"
           font-weight="400"
           font-size="29.1042">
          <path
             inkscape:connector-curvature="0"
             d="m 39.0805,-22.6112 c 7.1484,10.1717 1.6248,21.847187 -13.487,28.50854 -15.1118,6.66136 -36.0752,6.66136 -51.187,0 -15.1118,-6.661353 -20.6354,-18.33684 -13.487,-28.50854 m 78.161,0 c -1.8271,-2.5926 -4.3149,-4.9354 -7.4635,-7.0283 -5.6626,-3.7692 -13.3221,-6.4723 -21.64885,-7.6467 -6.94293,-0.9929 -14.3299,-0.9245 -21.21575,0.1943 -6.891,1.1097 -13.2809,3.2699 -18.3668,6.2135 m 0,0 c -4.054,2.3377 -7.2906,5.1662 -9.4661,8.2672 m 78.161,0 11.8841,16.9104 m -90.0451,-16.9104 -11.8841,16.9104 m 29.0985,8.87696 c 0.9739,-2.318263 3.0346,-4.43694 5.9562,-6.12373 m 0,0 C -10.158,-6.26844 -1.74933,-7.53828 6.08227,-6.26872 13.9139,-4.99917 19.9488,-1.38794 21.8661,3.17616 M -22.5,0.114297 c 0,-3.445267 2.3705,-6.749417 6.5901,-9.185587 M -20.2183,5.81427 C -21.7197,4.03916 -22.5,2.08974 -22.5,0.114297 m 45,0 C 22.5,2.08971 21.7197,4.0391 20.2184,5.8142 M -15.9099,-9.07129 C -9.47495,-12.7865 0.202703,-13.8979 8.61038,-11.8873 17.0181,-9.87659 22.5,-5.13982 22.5,0.114297 M 50.9646,-5.7008 c 9.3222,13.26482 2.119,28.4908 -17.5883,37.1778 -19.7072,8.687 -47.0454,8.687 -66.7526,0 C -53.0836,22.79 -60.2868,7.56402 -50.9646,-5.7008 m 78.9078,8.05325 -0.857,0.48005 c 0.2899,-0.15751 0.5756,-0.31755 0.857,-0.48005 M -21.8661,3.17616 C -22.2872,2.17369 -22.5,1.14583 -22.5,0.114297 c 0,-3.445267 2.3705,-6.749417 6.5901,-9.185587 C -9.47495,-12.7865 0.202703,-13.8979 8.61038,-11.8873 17.0181,-9.87659 22.5,-5.13982 22.5,0.114297 22.5,1.14583 22.2872,2.17369 21.8661,3.17616 19.9488,-1.38794 13.9139,-4.99917 6.08227,-6.26872 c -7.8316,-1.26956 -16.24027,2.8e-4 -21.99217,3.32115 -2.9216,1.68679 -4.9823,3.805467 -5.9562,6.12373 m 43.7322,0 C 21.4833,4.08726 20.9309,4.97175 20.2184,5.8142 13.7737,8.03118 6.14503,9.15984 -1.4125,8.9964 -8.02813,8.86542 -14.5757,7.75257 -20.2183,5.81427 c -0.7126,-0.84246 -1.265,-1.72699 -1.6478,-2.63811 0.9739,-2.318263 3.0346,-4.43694 5.9562,-6.12373 5.7519,-3.32087 14.16057,-4.59071 21.99217,-3.32115 7.83163,1.26955 13.86653,4.88078 15.78383,9.44488 m -42.0844,2.63811 c -2.8442,-0.97624 -5.4191,-2.13018 -7.7249,-3.46182 v 0 c -15.4326,-8.91002 -15.4326,-23.35605 0,-32.26605 15.4326,-8.91 40.4538,-8.91 55.8864,0 15.4326,8.91 15.4326,23.35603 0,32.26605 -0.2814,0.1625 -0.5671,0.32254 -0.857,0.48005 C 25,3.9655 22.7107,4.9594 20.2184,5.8142 20.9309,4.97175 21.4833,4.08726 21.8661,3.17616 22.2872,2.17369 22.5,1.14583 22.5,0.114297 22.5,-5.13982 17.0181,-9.87659 8.61038,-11.8873 0.202703,-13.8979 -9.47495,-12.7865 -15.9099,-9.07129 -20.1295,-6.63512 -22.5,-3.33097 -22.5,0.114297 c 0,1.031533 0.2128,2.059393 0.6339,3.061863 0.3828,0.91112 0.9352,1.79565 1.6478,2.63811 M 27.9432,2.35245 27.0862,2.8325 C 25,3.9655 22.7107,4.9594 20.2184,5.8142 13.7737,8.03118 6.14503,9.15984 -1.4125,8.9964 -8.02813,8.86542 -14.5757,7.75257 -20.2183,5.81427 -23.0625,4.83803 -25.6374,3.68409 -27.9432,2.35245 v 0 c -15.4326,-8.91002 -15.4326,-23.35605 0,-32.26605 15.4326,-8.91 40.4538,-8.91 55.8864,0 15.4326,8.91 15.4326,23.35603 0,32.26605 M 39.0805,-22.6112 50.9646,-5.7008 c 9.3222,13.26482 2.119,28.4908 -17.5883,37.1778 -19.7072,8.687 -47.0454,8.687 -66.7526,0 C -53.0836,22.79 -60.2868,7.56402 -50.9646,-5.7008 l 11.8841,-16.9104 v 0 c -7.1484,10.1717 -1.6248,21.847187 13.487,28.50854 15.1118,6.66136 36.0752,6.66136 51.187,0 15.1118,-6.661353 20.6354,-18.33684 13.487,-28.50854 m 0,0 c -1.8271,-2.5926 -4.3149,-4.9354 -7.4635,-7.0283 -5.6626,-3.7692 -13.3221,-6.4723 -21.64885,-7.6467 -6.94293,-0.9929 -14.3299,-0.9245 -21.21575,0.1943 -6.891,1.1097 -13.2809,3.2699 -18.3668,6.2135 -4.054,2.3377 -7.2906,5.1662 -9.4661,8.2672 v 0 c -7.1484,10.1717 -1.6248,21.847187 13.487,28.50854 15.1118,6.66136 36.0752,6.66136 51.187,0 15.1118,-6.661353 20.6354,-18.33684 13.487,-28.50854 m 0,0 11.8841,16.9104 c 9.3222,13.26482 2.119,28.4908 -17.5883,37.1778 -19.7072,8.687 -47.0454,8.687 -66.7526,0 C -53.0836,22.79 -60.2868,7.56402 -50.9646,-5.7008 l 11.8841,-16.9104 v 0 c 2.1755,-3.101 5.4121,-5.9295 9.4661,-8.2672 5.0859,-2.9436 11.4758,-5.1038 18.3668,-6.2135 6.88585,-1.1188 14.27282,-1.1872 21.21575,-0.1943 8.32675,1.1744 15.98625,3.8775 21.64885,7.6467 3.1486,2.0929 5.6364,4.4357 7.4635,7.0283"
             style="vector-effect:none;fill:#000000;fill-opacity:0;fill-rule:evenodd"
             id="path4683" />
        </g>
        <path
           transform="matrix(2.6458333,0,0,2.6458333,0,2842.9999)"
           inkscape:connector-curvature="0"
           id="path33"
           d="m 393.80406,-499.55226 c -5.93056,-0.55498 -11.19854,-2.55751 -14.22998,-5.40927 -1.06299,-0.99999 -1.71561,-1.85844 -2.23101,-2.93463 -0.52957,-1.1058 -0.72342,-1.90179 -0.72342,-2.97051 0,-1.8707 0.40105,-2.81548 2.41738,-5.69473 l 1.31379,-1.87605 0.0802,0.69864 c 0.30885,2.69143 2.35719,5.09408 5.82332,6.8306 4.41041,2.20959 10.55441,2.84782 16.26139,1.68919 2.32464,-0.47195 4.99888,-1.55618 6.78891,-2.75245 0.97533,-0.65182 2.56327,-2.24377 3.03138,-3.03905 0.47059,-0.79948 0.85416,-1.93861 0.93144,-2.76615 l 0.0636,-0.68144 0.83345,1.18194 c 2.46127,3.49039 2.80934,4.22047 2.89422,6.07057 0.0375,0.81822 0.006,1.28181 -0.12225,1.78675 -1.47275,5.80667 -10.09818,10.04358 -20.29462,9.96896 -1.04053,-0.008 -2.31753,-0.0537 -2.8378,-0.10237 z"
           style="opacity:1;fill:#ffaa00;fill-opacity:0.94117647;stroke:#ffaa00;stroke-width:0.11917242;stroke-miterlimit:4;stroke-dasharray:none;stroke-opacity:0.94117647" />
        <path
           transform="matrix(2.6458333,0,0,2.6458333,0,2842.9999)"
           inkscape:connector-curvature="0"
           id="path35"
           d="m 386.91979,-512.63469 c -4.73099,-2.53306 -5.82759,-6.48781 -2.68247,-9.67397 5.47184,-5.54325 19.18651,-5.68787 24.98521,-0.26348 2.18065,2.0399 2.62103,4.56068 1.18677,6.79322 -0.77327,1.20366 -2.01823,2.28022 -3.6501,3.15639 -0.47753,0.25639 -0.89189,0.46696 -0.92079,0.46792 -0.0289,9.5e-4 -0.0525,-0.45938 -0.0525,-1.023 0,-0.91567 -0.0312,-1.08535 -0.29346,-1.59398 -0.57664,-1.11854 -1.45014,-1.89672 -2.96722,-2.64344 -1.27523,-0.62767 -2.69339,-1.00375 -4.39382,-1.16519 -3.83961,-0.36453 -7.91116,0.96873 -9.49762,3.11006 -0.61464,0.82963 -0.80491,1.4649 -0.7456,2.48945 0.0263,0.45532 0.0203,0.82707 -0.0135,0.8261 -0.0338,-9.6e-4 -0.46346,-0.217 -0.95482,-0.48008 z"
           style="opacity:1;fill:#ffaa00;fill-opacity:0.94117647;stroke:#ffaa00;stroke-width:0.11917242;stroke-miterlimit:4;stroke-dasharray:none;stroke-opacity:0.94117647" />
        <path
           transform="matrix(2.6458333,0,0,2.6458333,0,2842.9999)"
           inkscape:connector-curvature="0"
           id="path37"
           d="m 404.69057,-513.58911 c -0.015,-0.22078 -1.30226,-1.10868 -2.29142,-1.58047 -3.91962,-1.8695 -9.61228,-1.42102 -12.77295,1.00629 -0.39019,0.29966 -0.70945,0.49465 -0.70945,0.43332 0,-0.31301 0.58111,-1.18437 1.12646,-1.68912 0.99598,-0.92183 2.33699,-1.53678 4.25525,-1.95135 1.19971,-0.25928 3.8862,-0.25799 5.10721,0.002 1.93414,0.41256 3.26761,1.02918 4.2886,1.98312 0.63161,0.59012 1.17164,1.50864 1.05506,1.79449 -0.0378,0.0928 -0.0525,0.0931 -0.0588,10e-4 z"
           style="opacity:1;fill:#ffaa00;fill-opacity:0.94117647;stroke:#ffaa00;stroke-width:0.11917242;stroke-miterlimit:4;stroke-dasharray:none;stroke-opacity:0.94117647" />
      </g>
    </g>
  </g>
</svg>
