<?xml version="1.0" encoding="UTF-8"?>
<svg width="48" height="48" version="1.1" viewBox="0 0 48 48" xmlns="http://www.w3.org/2000/svg">
 <g stroke-linejoin="bevel" stroke-width="9.58">
  <path d="m39.3 10.8-6.83-5.43-5.22-1.27-6.09 0.747-14.8 19.4-0.941 5.59 1.57 4.4 3.91 4.46 4.5 2.93 6.12 1.42 5.14-0.934 14.9-19.4 0.515-7.85z" fill="#ffaa00"/>
  <g transform="matrix(.104 0 0 .104 23.9 23.5)" fill="none" stroke="#000000" stroke-linecap="round">
   <path d="m11.4-121c-7.22 9.76-7.04 24.2 0.481 39.2"/>
   <path d="m127-94.4-15.1 7.95-37.2 51c17 2.96 30.8-1.09 38.5-11.2 7.22-10.3 6.69-24.8-1.09-39.7-9.8-18.8-29.5-35.4-50.8-42.8-21.3-7.41-40.5-4.35-49.6 7.88"/>
   <path d="m133-60c4.19-35.9-25.3-65.3-54.9-80.5-20.2-9.78-47.1-14.6-66.3-0.281-19.9 19.7-8.47 51.4 8.01 69.5 20.8 24.9 54.2 42.9 87.2 37.3 12.3-3.43 24.1-12.8 25.9-26.1z"/>
   <path d="m18.8-185c-20.9 1.82-29.4 4.97-39.8 15.1-17.2 16.6-24.8 43.8-13.1 66 22.1 63.3 89 109 156 106 44.4-2 65.1-53.9 44.1-90-26-55.5-85-97.5-147-97.1z"/>
   <path d="m-43.8-92.6c4.09-24.8 5.69-50.1 4.55-75.3"/>
   <path d="m47.7-1.01c-26-29.7-51.3-52-80.8-71.1"/>
   <path d="m71 8.33c17.2-4.91 64.2-8.69 85-4.42l-130 175"/>
   <path d="m156 3.91c4.85-3.15 9.52-6.91 13-11.2"/>
   <path d="m-174 82.6c18.5 47.4 65.4 86.2 115 101"/>
   <path d="m169-7.3-130 175c-3.43 4.35-7.65 8.1-12.5 11.4-25.8 8-56.3 13.8-85.5 4.5l130-175c-7.8-2.49-15.6-5.62-23.3-9.34l-130 175c-29.6-13-62.5-42.5-80.9-71.1l130-175c-4.25-6.75-7.84-13.7-10.7-20.6l-130 175c-7.93-23.4 0.943-64.1 4.63-75.4 43.3-58.4 86.6-117 130-175 3.58-4.2 7.8-7.95 12.6-11.1 26.2-6.83 55.9-9.08 85.4-4.47 7.85 2.62 15.6 5.75 23.4 9.47 28.6 16.3 57.4 41.6 80.8 70.4 4 6.63 8.09 13.3 11.1 20.8 1.4 24.2-0.126 49.4-4.95 75.5"/>
  </g>
 </g>
</svg>
