<?xml version="1.0" encoding="UTF-8" standalone="no"?>
<svg
   xmlns:dc="http://purl.org/dc/elements/1.1/"
   xmlns:cc="http://creativecommons.org/ns#"
   xmlns:rdf="http://www.w3.org/1999/02/22-rdf-syntax-ns#"
   xmlns:svg="http://www.w3.org/2000/svg"
   xmlns="http://www.w3.org/2000/svg"
   xmlns:sodipodi="http://sodipodi.sourceforge.net/DTD/sodipodi-0.dtd"
   xmlns:inkscape="http://www.inkscape.org/namespaces/inkscape"
   version="1.1"
   width="48"
   height="48"
   viewBox="0 0 13.546667 13.546667"
   id="svg4136"
   inkscape:version="0.91 r13725"
   sodipodi:docname="PEMStud.svg">
  <metadata
     id="metadata4183">
    <rdf:RDF>
      <cc:Work
         rdf:about="">
        <dc:format>image/svg+xml</dc:format>
        <dc:type
           rdf:resource="http://purl.org/dc/dcmitype/StillImage" />
        <dc:title></dc:title>
      </cc:Work>
    </rdf:RDF>
  </metadata>
  <defs
     id="defs4181" />
  <sodipodi:namedview
     pagecolor="#ffffff"
     bordercolor="#666666"
     borderopacity="1"
     objecttolerance="10"
     gridtolerance="10"
     guidetolerance="10"
     inkscape:pageopacity="0"
     inkscape:pageshadow="2"
     inkscape:window-width="1103"
     inkscape:window-height="733"
     id="namedview4179"
     showgrid="false"
     units="px"
     inkscape:zoom="11.5"
     inkscape:cx="24"
     inkscape:cy="25.805413"
     inkscape:window-x="0"
     inkscape:window-y="0"
     inkscape:window-maximized="0"
     inkscape:current-layer="svg4136" />
  <!-- Working space 0 0 420 297 -->
  <g
     id="g4249">
    <path
       inkscape:connector-curvature="0"
       id="path4247"
       d="M 2.724058,11.411595 2.2823189,10.724445 2.2086957,9.9882127 2.4050242,9.1783577 2.7976812,8.6384544 3.2885025,8.1721742 3.6566185,8.0249279 3.5584543,1.8896619 4.0247345,1.3006764 l 0.760773,-0.368116 0.8834783,-0.26995168 1.0061835,0 1.0307247,0.24541063 1.0307247,0.71169085 0.1227051,0.5153623 -0.024542,5.7916911 0.8343962,0.6380675 0.441739,0.736232 0.171788,0.9571019 -0.539904,1.055265 -0.9325604,0.68715 -1.3006762,0.490821 -1.7669567,0.07362 -1.3988407,-0.294492 -1.0552656,-0.44174 z"
       style="opacity:1;fill:#ffaa00;fill-opacity:1;fill-rule:evenodd;stroke:none;stroke-width:1;stroke-linecap:round;stroke-linejoin:round;stroke-miterlimit:4;stroke-dasharray:none;stroke-dashoffset:0;stroke-opacity:1" />
    <g
       id="g4226">
      <path
         style="fill:none;stroke:#000000;stroke-width:0.28222223;stroke-linecap:round;stroke-linejoin:round;stroke-miterlimit:4;stroke-dasharray:none"
         d="M 3.4440808,8.2453914 C 2.72223,8.6729377 2.4559818,9.0950856 2.3054446,9.448731 c -0.129407,0.3288828 -0.151575,0.628814 -0.090926,0.943868 0.069588,0.318922 0.2126196,0.659367 0.612607,1.049976 0.2326198,0.220505 0.5634991,0.462309 1.036396,0.666832 0.4683038,0.204054 1.0786401,0.370817 1.7459849,0.428614 0.6290917,0.05898 1.2996823,0.01904 1.8822564,-0.100647 0.5856846,-0.117948 1.0833599,-0.315623 1.4507907,-0.52477 C 9.676837,11.484969 9.9485397,11.05943 10.101892,10.704503 10.233631,10.375041 10.257129,10.074966 10.19831,9.7601768 10.130664,9.4417143 9.9899621,9.1025061 9.5959385,8.7129556 9.3664482,8.4927992 9.0401802,8.2510756 8.5716969,8.0452065 8.1077831,7.8398703 7.5016702,7.6703818 6.8357085,7.609163 6.1955361,7.5455633 5.5095968,7.584937 4.9157722,7.7073627 4.3185772,7.8278967 3.8134984,8.0314819 3.4440808,8.2453914"
         id="path4141"
         inkscape:connector-curvature="0" />
      <path
         style="fill:none;stroke:#000000;stroke-width:0.28222223;stroke-linecap:round;stroke-linejoin:round;stroke-miterlimit:4;stroke-dasharray:none"
         id="2"
         d="m 8.8293129,7.9744214 1.62e-5,-5.7861002"
         inkscape:connector-curvature="0" />
      <path
         style="fill:none;stroke:#000000;stroke-width:0.28222223;stroke-linecap:round;stroke-linejoin:round;stroke-miterlimit:4;stroke-dasharray:none"
         id="3"
         d="m 3.5817678,7.9744222 1.4e-6,-5.7860977"
         inkscape:connector-curvature="0" />
      <path
         style="fill:none;stroke:#000000;stroke-width:0.28222223;stroke-linecap:round;stroke-linejoin:round;stroke-miterlimit:4;stroke-dasharray:none"
         id="4"
         d="M 7.7516175,0.93864242 8.0608323,1.1171747"
         inkscape:connector-curvature="0" />
      <path
         style="fill:none;stroke:#000000;stroke-width:0.28222224;stroke-linecap:round;stroke-linejoin:round;stroke-miterlimit:4;stroke-dasharray:none"
         d="M 3.6452447,7.9368447 C 2.9662151,8.3288847 2.9037724,8.4434061 2.5356527,8.997834"
         id="path4148"
         inkscape:connector-curvature="0"
         sodipodi:nodetypes="cc" />
      <path
         style="fill:none;stroke:#000000;stroke-width:0.28222224;stroke-linecap:round;stroke-linejoin:round;stroke-miterlimit:4;stroke-dasharray:none"
         d="M 9.801807,8.9242094 C 8.9183037,7.3562902 5.9262236,6.6199256 3.6452447,7.9368447"
         id="path4150"
         inkscape:connector-curvature="0"
         sodipodi:nodetypes="cc" />
      <path
         style="fill:none;stroke:#000000;stroke-width:0.28222223;stroke-linecap:round;stroke-linejoin:round;stroke-miterlimit:4;stroke-dasharray:none"
         d="m 7.9098771,7.5706228 a 2.6237771,1.5148377 0 0 0 -3.4086701,5.4e-6"
         id="path4152"
         inkscape:connector-curvature="0" />
      <path
         style="fill:none;stroke:#000000;stroke-width:0.28222223;stroke-linecap:round;stroke-linejoin:round;stroke-miterlimit:4;stroke-dasharray:none"
         d="M 7.9631829,7.5976367 A 2.3613993,1.3633548 0 0 0 4.5357811,7.5440823"
         id="path4154"
         inkscape:connector-curvature="0" />
      <path
         style="fill:none;stroke:#000000;stroke-width:0.28222223;stroke-linecap:round;stroke-linejoin:round;stroke-miterlimit:4;stroke-dasharray:none"
         d="M 4.3502512,7.3298503 A 2.6237771,1.5148377 0 0 0 3.7388718,7.8846876"
         id="path4156"
         inkscape:connector-curvature="0" />
      <path
         style="fill:none;stroke:#000000;stroke-width:0.28222223;stroke-linecap:round;stroke-linejoin:round;stroke-miterlimit:4;stroke-dasharray:none"
         d="M 8.6722135,7.8846873 A 2.6237771,1.5148377 0 0 0 4.3502512,7.3298503"
         id="path4158"
         inkscape:connector-curvature="0" />
      <path
         style="fill:none;stroke:#000000;stroke-width:0.28222223;stroke-linecap:round;stroke-linejoin:round;stroke-miterlimit:4;stroke-dasharray:none"
         d="M 4.3502624,1.1171685 A 2.6237771,1.5148377 0 0 0 3.5817692,2.1883245"
         id="path4160"
         inkscape:connector-curvature="0" />
      <path
         style="fill:none;stroke:#000000;stroke-width:0.28222223;stroke-linecap:round;stroke-linejoin:round;stroke-miterlimit:4;stroke-dasharray:none"
         d="M 8.8293291,2.1883212 A 2.6237771,1.5148377 0 0 0 8.0608323,1.1171747"
         id="path4162"
         inkscape:connector-curvature="0" />
      <path
         style="fill:none;stroke:#000000;stroke-width:0.28222223;stroke-linecap:round;stroke-linejoin:round;stroke-miterlimit:4;stroke-dasharray:none"
         d="m 8.0608323,1.1171747 a 2.6237771,1.5148377 0 0 0 -3.7105699,-6.2e-6"
         id="path4164"
         inkscape:connector-curvature="0" />
      <path
         style="fill:none;stroke:#000000;stroke-width:0.28222223;stroke-linecap:round;stroke-linejoin:round;stroke-miterlimit:4;stroke-dasharray:none"
         d="M 4.6594713,0.93864669 A 2.1864809,1.2623656 0 0 0 4.5189802,1.027899"
         id="path4166"
         inkscape:connector-curvature="0" />
      <path
         style="fill:none;stroke:#000000;stroke-width:0.28222223;stroke-linecap:round;stroke-linejoin:round;stroke-miterlimit:4;stroke-dasharray:none"
         d="M 7.8921028,1.027902 A 2.1864809,1.2623656 0 0 0 7.7516175,0.93864242"
         id="path4168"
         inkscape:connector-curvature="0" />
      <path
         style="fill:none;stroke:#000000;stroke-width:0.28222223;stroke-linecap:round;stroke-linejoin:round;stroke-miterlimit:4;stroke-dasharray:none"
         d="m 7.7516175,0.93864242 a 2.1864809,1.2623656 0 0 0 -3.0921462,4.27e-6"
         id="path4170"
         inkscape:connector-curvature="0" />
      <path
         style="fill:none;stroke:#000000;stroke-width:0.28222223;stroke-linecap:round;stroke-linejoin:round;stroke-miterlimit:4;stroke-dasharray:none"
         id="13"
         d="M 4.3502624,1.1171685 4.6594713,0.93864669"
         inkscape:connector-curvature="0" />
      <g
         style="fill:none;stroke:#000000;stroke-width:0.16134501;stroke-linecap:round;stroke-linejoin:round;stroke-miterlimit:4;stroke-dasharray:none"
         transform="matrix(-1.7491847,-2.7574818e-8,-2.7574818e-8,1.7491847,6.205542,10.400488)"
         id="g4175">
        <ellipse
           cx="-2.9439199e-017"
           cy="1.69967e-017"
           rx="2.0699999"
           ry="1.19512"
           id="ellipse4177"
           style="stroke-width:0.16134501;stroke-miterlimit:4;stroke-dasharray:none;stroke-linejoin:round;stroke-linecap:round" />
      </g>
    </g>
  </g>
</svg>
