<?xml version="1.0" encoding="UTF-8" standalone="no"?>
<svg
   xmlns:dc="http://purl.org/dc/elements/1.1/"
   xmlns:cc="http://creativecommons.org/ns#"
   xmlns:rdf="http://www.w3.org/1999/02/22-rdf-syntax-ns#"
   xmlns:svg="http://www.w3.org/2000/svg"
   xmlns="http://www.w3.org/2000/svg"
   id="svg9408"
   viewBox="0 0 13.546667 13.546667"
   height="48"
   width="48"
   version="1.1">
  <metadata
     id="metadata9478">
    <rdf:RDF>
      <cc:Work
         rdf:about="">
        <dc:format>image/svg+xml</dc:format>
        <dc:type
           rdf:resource="http://purl.org/dc/dcmitype/StillImage" />
        <dc:title></dc:title>
      </cc:Work>
    </rdf:RDF>
  </metadata>
  <defs
     id="defs9476" />
  <!-- Working space 0 0 420 297 -->
  <g
     id="g10097">
    <path
       style="opacity:1;fill:#ffaa00;fill-opacity:1;fill-rule:evenodd;stroke:none;stroke-width:0.28222224;stroke-linecap:round;stroke-linejoin:round;stroke-miterlimit:4;stroke-dasharray:none;stroke-dashoffset:0;stroke-opacity:1"
       d="M 1.3285317,9.9095393 1.3503107,9.0601503 2.4174919,6.9040089 2.439271,2.6570633 3.2668809,1.676999 5.0745549,0.95828513 6.6426579,0.82760989 8.2760986,1.0018435 9.9530975,1.6334406 10.71537,2.5046089 l 0.196013,1.5463238 -0.108896,2.6352839 0,0.2613505 1.08896,0.5444803 -0.02178,0.7622721 -1.437428,3.0708685 -5.248789,0.82761 z"
       id="path10095" />
    <g
       style="fill:none;stroke:#000000;stroke-width:0.23746914;stroke-linecap:round;stroke-linejoin:round;stroke-miterlimit:4;stroke-dasharray:none"
       id="g9411"
       transform="matrix(0.59422931,1.0292353,1.0292353,-0.59422931,6.6207842,9.0827035)">
      <path
         d="M -6.02264,-0.633561 -4.20622,-1.68227"
         id="1"
         style="stroke-width:0.23746914;stroke-miterlimit:4;stroke-dasharray:none;stroke-linecap:round;stroke-linejoin:round" />
      <path
         d="M -2.46264,5.53254 -0.646225,4.48383"
         id="2"
         style="stroke-width:0.23746914;stroke-miterlimit:4;stroke-dasharray:none;stroke-linecap:round;stroke-linejoin:round" />
      <path
         d="m -3.95449,-1.82761 0.40276,-0.23253"
         id="3"
         style="stroke-width:0.23746914;stroke-miterlimit:4;stroke-dasharray:none;stroke-linecap:round;stroke-linejoin:round" />
      <path
         d="M -0.394495,4.3385 0.00827325,4.10596"
         id="4"
         style="stroke-width:0.23746914;stroke-miterlimit:4;stroke-dasharray:none;stroke-linecap:round;stroke-linejoin:round" />
    </g>
    <g
       style="fill:none;stroke:#000000;stroke-width:0.23746914;stroke-linecap:round;stroke-linejoin:round;stroke-miterlimit:4;stroke-dasharray:none"
       id="g9417"
       transform="matrix(0.59422931,1.0292353,1.0292353,-0.59422931,6.6207842,9.0827035)">
      <path
         id="path9419"
         d="M 1.89505,1.09411 A 2.68,1.5473 -120 0 1 0,2.18821"
         style="stroke-width:0.23746914;stroke-miterlimit:4;stroke-dasharray:none;stroke-linecap:round;stroke-linejoin:round" />
      <path
         id="path9421"
         d="M 0,2.18821 A 2.68,1.5473 -120 0 1 -1.89505,-1.09411"
         style="stroke-width:0.23746914;stroke-miterlimit:4;stroke-dasharray:none;stroke-linecap:round;stroke-linejoin:round" />
      <path
         id="path9423"
         d="m -1.89505,-1.09411 a 2.6800043,1.5473025 -120 0 1 3.7901,2.18822"
         style="stroke-width:0.23746914;stroke-miterlimit:4;stroke-dasharray:none;stroke-linecap:round;stroke-linejoin:round" />
      <path
         id="path9425"
         d="M 1.0748,1.09411 A 2.1,1.21244 -120 0 1 0.639878,2.05544"
         style="stroke-width:0.23746914;stroke-miterlimit:4;stroke-dasharray:none;stroke-linecap:round;stroke-linejoin:round" />
      <path
         id="path9427"
         d="M 0.639878,2.05544 A 2.1,1.21244 -120 0 1 -0.217595,2.04811"
         style="stroke-width:0.23746914;stroke-miterlimit:4;stroke-dasharray:none;stroke-linecap:round;stroke-linejoin:round" />
      <path
         id="path9429"
         d="M -1.88251,-0.835612 A 2.1,1.21244 -120 0 1 -1.46012,-1.58187"
         style="stroke-width:0.23746914;stroke-miterlimit:4;stroke-dasharray:none;stroke-linecap:round;stroke-linejoin:round" />
      <path
         id="path9431"
         d="M -1.46012,-1.58187 A 2.1,1.21244 -120 0 1 1.0748,1.09411"
         style="stroke-width:0.23746914;stroke-miterlimit:4;stroke-dasharray:none;stroke-linecap:round;stroke-linejoin:round" />
      <path
         d="m -1.61258,-4.15619 -1.61258,2.29414"
         id="8"
         style="stroke-width:0.23746914;stroke-miterlimit:4;stroke-dasharray:none;stroke-linecap:round;stroke-linejoin:round" />
      <path
         d="m -3.22516,-1.86205 1.61258,4.15619"
         id="9"
         style="stroke-width:0.23746914;stroke-miterlimit:4;stroke-dasharray:none;stroke-linecap:round;stroke-linejoin:round" />
      <path
         d="M -1.61258,2.29414 1.61258,4.15619"
         id="10"
         style="stroke-width:0.23746914;stroke-miterlimit:4;stroke-dasharray:none;stroke-linecap:round;stroke-linejoin:round" />
      <path
         d="M 1.61258,4.15619 3.22516,1.86205"
         id="11"
         style="stroke-width:0.23746914;stroke-miterlimit:4;stroke-dasharray:none;stroke-linecap:round;stroke-linejoin:round" />
      <path
         d="M 3.22516,1.86205 1.61258,-2.29414"
         id="12"
         style="stroke-width:0.23746914;stroke-miterlimit:4;stroke-dasharray:none;stroke-linecap:round;stroke-linejoin:round" />
      <path
         d="M 1.61258,-2.29414 -1.61258,-4.15619"
         id="13"
         style="stroke-width:0.23746914;stroke-miterlimit:4;stroke-dasharray:none;stroke-linecap:round;stroke-linejoin:round" />
      <path
         d="M -3.78378,-1.53953 -2.1712,-3.83367"
         id="14"
         style="stroke-width:0.23746914;stroke-miterlimit:4;stroke-dasharray:none;stroke-linecap:round;stroke-linejoin:round" />
      <path
         d="m -2.1712,-3.83367 0.55862,-0.32252"
         id="15"
         style="stroke-width:0.23746914;stroke-miterlimit:4;stroke-dasharray:none;stroke-linecap:round;stroke-linejoin:round" />
      <path
         d="m -3.78378,-1.53953 0.55862,-0.32252"
         id="16"
         style="stroke-width:0.23746914;stroke-miterlimit:4;stroke-dasharray:none;stroke-linecap:round;stroke-linejoin:round" />
      <path
         d="M -2.1712,2.61665 -3.78378,-1.53953"
         id="17"
         style="stroke-width:0.23746914;stroke-miterlimit:4;stroke-dasharray:none;stroke-linecap:round;stroke-linejoin:round" />
      <path
         d="M -2.1712,2.61665 -1.61258,2.29414"
         id="18"
         style="stroke-width:0.23746914;stroke-miterlimit:4;stroke-dasharray:none;stroke-linecap:round;stroke-linejoin:round" />
      <path
         d="M 1.05397,4.4787 -2.1712,2.61665"
         id="19"
         style="stroke-width:0.23746914;stroke-miterlimit:4;stroke-dasharray:none;stroke-linecap:round;stroke-linejoin:round" />
      <path
         d="M 1.05397,4.4787 1.61258,4.15619"
         id="20"
         style="stroke-width:0.23746914;stroke-miterlimit:4;stroke-dasharray:none;stroke-linecap:round;stroke-linejoin:round" />
      <path
         id="path9446"
         d="m -2.46264,5.53254 a 3.5600001,2.05537 -120 0 1 -3.56,-6.166101"
         style="stroke-width:0.23746914;stroke-miterlimit:4;stroke-dasharray:none;stroke-linecap:round;stroke-linejoin:round" />
      <path
         id="path9448"
         d="M -0.743052,3.44119 A 3.204,1.84983 -120 0 1 -1.49141,3.00913"
         style="stroke-width:0.23746914;stroke-miterlimit:4;stroke-dasharray:none;stroke-linecap:round;stroke-linejoin:round" />
      <path
         id="path9450"
         d="M -2.37227,2.0984 A 3.204,1.84983 -120 0 1 -3.37823,-0.494298"
         style="stroke-width:0.23746914;stroke-miterlimit:4;stroke-dasharray:none;stroke-linecap:round;stroke-linejoin:round" />
      <path
         id="path9452"
         d="m -0.524815,4.40345 a 3.56,2.05537 -120 0 1 -0.12141,0.08038"
         style="stroke-width:0.23746914;stroke-miterlimit:4;stroke-dasharray:none;stroke-linecap:round;stroke-linejoin:round" />
      <path
         id="path9454"
         d="M -0.646225,4.48383 A 3.56,2.05537 -120 0 1 -4.20622,-1.68227"
         style="stroke-width:0.23746914;stroke-miterlimit:4;stroke-dasharray:none;stroke-linecap:round;stroke-linejoin:round" />
      <path
         id="path9456"
         d="M -4.20622,-1.68227 A 3.56,2.05537 -120 0 1 -4.0759,-1.74722"
         style="stroke-width:0.23746914;stroke-miterlimit:4;stroke-dasharray:none;stroke-linecap:round;stroke-linejoin:round" />
      <path
         id="path9458"
         d="M 0.0420814,3.89449 A 3.56,2.05537 -120 0 1 -3.61955,-1.11627"
         style="stroke-width:0.23746914;stroke-miterlimit:4;stroke-dasharray:none;stroke-linecap:round;stroke-linejoin:round" />
      <path
         id="path9460"
         d="M -1.29482,4.4868 A 3.382,1.9526 -120 0 1 -4.53309,-1.12206"
         style="stroke-width:0.23746914;stroke-miterlimit:4;stroke-dasharray:none;stroke-linecap:round;stroke-linejoin:round" />
      <path
         id="path9462"
         d="M 0.206767,3.98957 A 3.56,2.05537 -120 0 1 -3.32694,-2.18944"
         style="stroke-width:0.23746914;stroke-miterlimit:4;stroke-dasharray:none;stroke-linecap:round;stroke-linejoin:round" />
      <path
         id="path9464"
         d="M -0.394495,4.3385 A 3.5600027,2.0553716 -120 0 1 -3.95449,-1.82761"
         style="stroke-width:0.23746914;stroke-miterlimit:4;stroke-dasharray:none;stroke-linecap:round;stroke-linejoin:round" />
      <path
         id="path9466"
         d="M -0.640317,4.10892 A 3.382,1.9526 -120 0 1 -3.87859,-1.49993"
         style="stroke-width:0.23746914;stroke-miterlimit:4;stroke-dasharray:none;stroke-linecap:round;stroke-linejoin:round" />
      <path
         id="path9468"
         d="M 0.129683,4.02557 A 3.56,2.05537 -120 0 1 0.00827325,4.10596"
         style="stroke-width:0.23746914;stroke-miterlimit:4;stroke-dasharray:none;stroke-linecap:round;stroke-linejoin:round" />
      <path
         id="path9470"
         d="M 0.00827325,4.10596 A 3.5600004,2.0553703 -120 0 1 -3.55173,-2.06014"
         style="stroke-width:0.23746914;stroke-miterlimit:4;stroke-dasharray:none;stroke-linecap:round;stroke-linejoin:round" />
      <path
         id="path9472"
         d="m -3.55173,-2.06014 a 3.56,2.05537 -120 0 1 0.13032,-0.06495"
         style="stroke-width:0.23746914;stroke-miterlimit:4;stroke-dasharray:none;stroke-linecap:round;stroke-linejoin:round" />
    </g>
  </g>
</svg>
