<?xml version="1.0" encoding="UTF-8" standalone="no"?>
<!-- Created with Inkscape (http://www.inkscape.org/) -->

<svg
   xmlns:dc="http://purl.org/dc/elements/1.1/"
   xmlns:cc="http://creativecommons.org/ns#"
   xmlns:rdf="http://www.w3.org/1999/02/22-rdf-syntax-ns#"
   xmlns:svg="http://www.w3.org/2000/svg"
   xmlns="http://www.w3.org/2000/svg"
   xmlns:sodipodi="http://sodipodi.sourceforge.net/DTD/sodipodi-0.dtd"
   xmlns:inkscape="http://www.inkscape.org/namespaces/inkscape"
   width="48"
   height="48"
   viewBox="0 0 48.000001 48.000001"
   id="svg15825"
   version="1.1"
   inkscape:version="0.91 r13725"
   sodipodi:docname="ISO7045.svg">
  <defs
     id="defs15827" />
  <sodipodi:namedview
     id="base"
     pagecolor="#ffffff"
     bordercolor="#666666"
     borderopacity="1.0"
     inkscape:pageopacity="0.0"
     inkscape:pageshadow="2"
     inkscape:zoom="12.625"
     inkscape:cx="24"
     inkscape:cy="24"
     inkscape:document-units="px"
     inkscape:current-layer="layer1"
     showgrid="false"
     units="px"
     inkscape:window-width="1260"
     inkscape:window-height="787"
     inkscape:window-x="0"
     inkscape:window-y="0"
     inkscape:window-maximized="0" />
  <metadata
     id="metadata15830">
    <rdf:RDF>
      <cc:Work
         rdf:about="">
        <dc:format>image/svg+xml</dc:format>
        <dc:type
           rdf:resource="http://purl.org/dc/dcmitype/StillImage" />
        <dc:title></dc:title>
      </cc:Work>
    </rdf:RDF>
  </metadata>
  <g
     inkscape:label="Layer 1"
     inkscape:groupmode="layer"
     id="layer1"
     transform="translate(0,-1004.3622)">
    <g
       transform="matrix(3.5433071,0,0,3.543307,-663.7774,373.29479)"
       id="g15186">
      <path
         sodipodi:nodetypes="cccccccc"
         transform="scale(0.28222222,0.28222223)"
         inkscape:connector-curvature="0"
         id="path15180"
         d="m 686.91469,635.29396 c -4.80483,0.0577 -9.89072,1.64643 -13.08529,5.40398 -3.55002,4.16452 -3.93345,10.78842 -0.66951,15.22959 2.98209,4.21979 8.03956,6.62383 13.09692,7.14098 5.49068,0.54318 11.33025,-1.39243 15.05988,-5.53476 2.2997,-2.56211 3.41314,-6.09667 3.04934,-9.51624 -0.32092,-4.24942 -3.14161,-8.02313 -6.804,-10.06557 -3.21301,-1.84843 -6.95635,-2.68932 -10.64734,-2.65798 z"
         style="opacity:1;fill:#ffaa00;fill-opacity:0.94117647;fill-rule:evenodd;stroke:none;stroke-width:1;stroke-linecap:round;stroke-linejoin:round;stroke-miterlimit:4;stroke-dasharray:none;stroke-dashoffset:0;stroke-opacity:1" />
      <path
         transform="scale(0.28222222,0.28222223)"
         inkscape:connector-curvature="0"
         id="path15182"
         d="m 670.72684,653.26821 c -0.17873,1.01787 0.11349,2.08289 0.36063,3.0785 0.74673,2.71441 2.48523,5.05099 4.64805,6.81489 2.95418,2.49171 6.78222,3.80896 10.59705,4.16172 4.60864,0.33982 9.43304,-0.95591 13.00948,-3.93989 1.93235,-1.63195 3.53687,-3.7088 4.27917,-6.15311 0.12267,-0.58774 0.46886,-1.21506 0.34138,-1.80672 -0.24413,-0.61438 -0.97608,-0.21065 -1.14257,0.2516 -1.7225,2.83511 -4.46238,4.92573 -7.51319,6.16173 -3.19959,1.37095 -6.78921,1.60956 -10.18138,1.18116 -5.34079,-0.77044 -10.64147,-3.88385 -13.12787,-8.83412 -0.24341,-0.48083 -0.56895,-1.57967 -1.27075,-0.91576 z"
         style="opacity:1;fill:#ffaa00;fill-opacity:0.94117647;fill-rule:evenodd;stroke:none;stroke-width:1;stroke-linecap:round;stroke-linejoin:round;stroke-miterlimit:4;stroke-dasharray:none;stroke-dashoffset:0;stroke-opacity:1" />
      <path
         transform="scale(0.28222222,0.28222223)"
         inkscape:connector-curvature="0"
         id="path15184"
         d="m 677.95806,665.39213 c -0.34456,1.83733 -0.0556,3.87945 1.10055,5.4056 2.07796,2.81844 5.82038,4.10899 9.23414,3.6066 3.01789,-0.39085 6.05133,-2.37231 6.88349,-5.42286 0.14278,-0.81088 0.3893,-1.66931 0.22612,-2.48793 -0.43134,-0.63547 -1.19117,0.009 -1.74738,0.099 -3.88251,1.18647 -8.29134,1.12691 -12.20544,-0.16461 -1.04221,-0.29164 -2.03805,-0.9041 -3.07935,-1.2182 -0.17081,-0.0678 -0.27566,0.11847 -0.41213,0.18243 z"
         style="opacity:1;fill:#ffaa00;fill-opacity:0.94117647;fill-rule:evenodd;stroke:none;stroke-width:1;stroke-linecap:round;stroke-linejoin:round;stroke-miterlimit:4;stroke-dasharray:none;stroke-dashoffset:0;stroke-opacity:1" />
      <g
         id="g14355">
        <path
           style="fill:none;stroke:#000000;stroke-width:0.28222224;stroke-linecap:round;stroke-linejoin:round;stroke-miterlimit:4;stroke-dasharray:none"
           d="m 193.99209,180.53103 -0.0141,0.25523 -0.013,0.24191 -0.0128,0.22796 -0.0114,0.21671 -0.0114,0.20404 -0.0105,0.19315 -0.0101,0.1825 -0.009,0.17288 -0.009,0.16334 -0.009,0.15397 -0.008,0.14652 -0.007,0.13826 -0.007,0.13014 -0.007,0.12306"
           id="path10052"
           inkscape:connector-curvature="0" />
        <path
           style="fill:none;stroke:#000000;stroke-width:0.28222224;stroke-linecap:round;stroke-linejoin:round;stroke-miterlimit:4;stroke-dasharray:none"
           id="44"
           d="m 191.29776,187.6003 -0.0154,0.54895"
           inkscape:connector-curvature="0"
           sodipodi:nodetypes="cc" />
        <path
           style="fill:none;stroke:#000000;stroke-width:0.28222224;stroke-linecap:round;stroke-linejoin:round;stroke-miterlimit:4;stroke-dasharray:none"
           id="45"
           d="m 196.28814,187.9107 -0.0155,0.549"
           inkscape:connector-curvature="0"
           sodipodi:nodetypes="cc" />
        <path
           style="fill:none;stroke:#000000;stroke-width:0.28222224;stroke-linecap:round;stroke-linejoin:round;stroke-miterlimit:4;stroke-dasharray:none"
           id="46"
           d="m 189.33424,182.9258 -0.0738,1.19271"
           inkscape:connector-curvature="0" />
        <path
           style="fill:none;stroke:#000000;stroke-width:0.28222224;stroke-linecap:round;stroke-linejoin:round;stroke-miterlimit:4;stroke-dasharray:none"
           id="47"
           d="m 198.81613,183.51591 -0.0743,1.19185"
           inkscape:connector-curvature="0" />
        <path
           style="fill:none;stroke:#000000;stroke-width:0.28222224;stroke-linecap:round;stroke-linejoin:round;stroke-miterlimit:4;stroke-dasharray:none"
           d="m 195.23561,190.01685 c 0.61628,-0.35576 0.99785,-0.92868 1.03707,-1.55715"
           id="path9990"
           inkscape:connector-curvature="0"
           sodipodi:nodetypes="cc" />
        <path
           style="fill:none;stroke:#000000;stroke-width:0.28222224;stroke-linecap:round;stroke-linejoin:round;stroke-miterlimit:4;stroke-dasharray:none"
           d="m 191.28238,188.14925 c -0.10754,1.73469 2.2522,2.84949 3.95323,1.8676"
           id="path9992"
           inkscape:connector-curvature="0"
           sodipodi:nodetypes="cc" />
        <path
           style="fill:none;stroke:#000000;stroke-width:0.28222224;stroke-linecap:round;stroke-linejoin:round;stroke-miterlimit:4;stroke-dasharray:none"
           d="m 194.50067,183.40591 a 1.69537,7.99648 33.192 0 1 0.24023,-0.2969"
           id="path9996"
           inkscape:connector-curvature="0" />
        <path
           style="fill:none;stroke:#000000;stroke-width:0.28222224;stroke-linecap:round;stroke-linejoin:round;stroke-miterlimit:4;stroke-dasharray:none"
           d="m 194.23992,184.59568 a 0.100483,7.99999 12.083 0 1 0.26075,-1.18977"
           id="path9998"
           inkscape:connector-curvature="0" />
        <path
           style="fill:none;stroke:#000000;stroke-width:0.28222224;stroke-linecap:round;stroke-linejoin:round;stroke-miterlimit:4;stroke-dasharray:none"
           d="m 193.21927,184.43786 a 2.45,2.03161 3.5595999 0 0 1.02065,0.15782"
           id="path10000"
           inkscape:connector-curvature="0" />
        <path
           style="fill:none;stroke:#000000;stroke-width:0.28222224;stroke-linecap:round;stroke-linejoin:round;stroke-miterlimit:4;stroke-dasharray:none"
           d="m 193.38892,183.23371 a 0.884268,7.99999 5.5443999 0 0 -0.16965,1.20415"
           id="path10002"
           inkscape:connector-curvature="0" />
        <path
           style="fill:none;stroke:#000000;stroke-width:0.28222224;stroke-linecap:round;stroke-linejoin:round;stroke-miterlimit:4;stroke-dasharray:none"
           d="m 193.27283,182.88043 a 7.99648,0.8054 74.9148 0 1 0.11609,0.35328"
           id="path10004"
           inkscape:connector-curvature="0" />
        <path
           style="fill:none;stroke:#000000;stroke-width:0.28222224;stroke-linecap:round;stroke-linejoin:round;stroke-miterlimit:4;stroke-dasharray:none"
           d="m 192.92814,182.69261 a 7.99648,3.17147 38.0008 0 1 0.34469,0.18782"
           id="path10006"
           inkscape:connector-curvature="0" />
        <path
           style="fill:none;stroke:#000000;stroke-width:0.28222224;stroke-linecap:round;stroke-linejoin:round;stroke-miterlimit:4;stroke-dasharray:none"
           d="m 191.67091,182.61942 a 7.99999,3.94113 12.1454 0 1 1.25723,0.0732"
           id="path10008"
           inkscape:connector-curvature="0" />
        <path
           style="fill:none;stroke:#000000;stroke-width:0.28222224;stroke-linecap:round;stroke-linejoin:round;stroke-miterlimit:4;stroke-dasharray:none"
           d="m 191.83786,181.77478 a 2.45,2.03161 3.5595999 0 0 -0.16695,0.84464"
           id="path10010"
           inkscape:connector-curvature="0" />
        <path
           style="fill:none;stroke:#000000;stroke-width:0.28222224;stroke-linecap:round;stroke-linejoin:round;stroke-miterlimit:4;stroke-dasharray:none"
           d="m 193.10982,181.77249 a 7.99999,4.92163 10.138 0 0 -1.27196,0.002"
           id="path10012"
           inkscape:connector-curvature="0" />
        <path
           style="fill:none;stroke:#000000;stroke-width:0.28222224;stroke-linecap:round;stroke-linejoin:round;stroke-miterlimit:4;stroke-dasharray:none"
           d="m 193.51305,181.66671 a 4.83823,7.99648 69.8578 0 0 -0.40323,0.10578"
           id="path10014"
           inkscape:connector-curvature="0" />
        <path
           style="fill:none;stroke:#000000;stroke-width:0.28222224;stroke-linecap:round;stroke-linejoin:round;stroke-miterlimit:4;stroke-dasharray:none"
           d="m 193.75094,181.40234 a 2.94537,7.99648 27.5391 0 0 -0.23789,0.26437"
           id="path10016"
           inkscape:connector-curvature="0" />
        <path
           style="fill:none;stroke:#000000;stroke-width:0.28222224;stroke-linecap:round;stroke-linejoin:round;stroke-miterlimit:4;stroke-dasharray:none"
           d="m 193.99209,180.53103 a 1.06131,7.99999 7.4503999 0 0 -0.24115,0.87131"
           id="path10018"
           inkscape:connector-curvature="0" />
        <path
           style="fill:none;stroke:#000000;stroke-width:0.28222224;stroke-linecap:round;stroke-linejoin:round;stroke-miterlimit:4;stroke-dasharray:none"
           d="m 195.01324,180.68972 a 2.45,2.03161 3.5595999 0 0 -1.02115,-0.15869"
           id="path10020"
           inkscape:connector-curvature="0" />
        <path
           style="fill:none;stroke:#000000;stroke-width:0.28222224;stroke-linecap:round;stroke-linejoin:round;stroke-miterlimit:4;stroke-dasharray:none"
           d="m 194.86327,181.57536 a 0.0765621,7.99999 10.185 0 0 0.14997,-0.88564"
           id="path10022"
           inkscape:connector-curvature="0" />
        <path
           style="fill:none;stroke:#000000;stroke-width:0.28222224;stroke-linecap:round;stroke-linejoin:round;stroke-miterlimit:4;stroke-dasharray:none"
           d="m 194.98063,181.89443 a 7.99648,2.05541 80.844 0 0 -0.11736,-0.31907"
           id="path10024"
           inkscape:connector-curvature="0" />
        <path
           style="fill:none;stroke:#000000;stroke-width:0.28222224;stroke-linecap:round;stroke-linejoin:round;stroke-miterlimit:4;stroke-dasharray:none"
           d="m 195.32397,182.11651 a 7.99648,4.42147 42.102 0 0 -0.34334,-0.22208"
           id="path10026"
           inkscape:connector-curvature="0" />
        <path
           style="fill:none;stroke:#000000;stroke-width:0.28222224;stroke-linecap:round;stroke-linejoin:round;stroke-miterlimit:4;stroke-dasharray:none"
           d="m 196.56161,182.50816 a 7.99999,4.90196 13.022 0 0 -1.23764,-0.39165"
           id="path10028"
           inkscape:connector-curvature="0" />
        <path
           style="fill:none;stroke:#000000;stroke-width:0.28222224;stroke-linecap:round;stroke-linejoin:round;stroke-miterlimit:4;stroke-dasharray:none"
           d="m 196.39416,183.35193 a 2.45,2.03161 3.5595999 0 0 0.16745,-0.84377"
           id="path10030"
           inkscape:connector-curvature="0" />
        <path
           style="fill:none;stroke:#000000;stroke-width:0.28222224;stroke-linecap:round;stroke-linejoin:round;stroke-miterlimit:4;stroke-dasharray:none"
           d="m 195.14178,183.03576 a 7.99999,3.9608 9.5266999 0 1 1.25238,0.31617"
           id="path10032"
           inkscape:connector-curvature="0" />
        <path
           style="fill:none;stroke:#000000;stroke-width:0.28222224;stroke-linecap:round;stroke-linejoin:round;stroke-miterlimit:4;stroke-dasharray:none"
           d="m 194.7409,183.10901 a 3.58822,7.99648 72.5742 0 1 0.40088,-0.0733"
           id="path10034"
           inkscape:connector-curvature="0" />
        <path
           style="fill:none;stroke:#000000;stroke-width:0.28222224;stroke-linecap:round;stroke-linejoin:round;stroke-miterlimit:4;stroke-dasharray:none"
           d="m 196.84565,186.47453 a 4.75,3.93883 3.5595999 0 0 1.97048,-2.95862"
           id="path10036"
           inkscape:connector-curvature="0" />
        <path
           style="fill:none;stroke:#000000;stroke-width:0.28222224;stroke-linecap:round;stroke-linejoin:round;stroke-miterlimit:4;stroke-dasharray:none"
           d="m 198.81613,183.51591 a 4.7501178,3.9389277 3.5595999 1 0 -9.48189,-0.59011"
           id="path10038"
           inkscape:connector-curvature="0" />
        <path
           style="fill:none;stroke:#000000;stroke-width:0.28222224;stroke-linecap:round;stroke-linejoin:round;stroke-miterlimit:4;stroke-dasharray:none"
           d="m 189.33424,182.9258 a 4.75,3.93883 3.5595999 0 0 7.51141,3.54873"
           id="path10040"
           inkscape:connector-curvature="0" />
        <path
           style="fill:none;stroke:#000000;stroke-width:0.28222224;stroke-linecap:round;stroke-linejoin:round;stroke-miterlimit:4;stroke-dasharray:none"
           id="308"
           d="m 193.38892,183.23371 0.11848,1.28721"
           inkscape:connector-curvature="0" />
        <path
           style="fill:none;stroke:#000000;stroke-width:0.28222224;stroke-linecap:round;stroke-linejoin:round;stroke-miterlimit:4;stroke-dasharray:none"
           d="m 192.40625,182.64867 -0.035,-0.0537 -0.0361,-0.0554 -0.0366,-0.0562 -0.0371,-0.0571 -0.0388,-0.0596 -0.0388,-0.0596 -0.0404,-0.0621 -0.041,-0.063 -0.0415,-0.0638 -0.0426,-0.0654 -0.0436,-0.0672 -0.0447,-0.0689 -0.0458,-0.0705 -0.0464,-0.0714"
           id="path10043"
           inkscape:connector-curvature="0" />
        <path
           style="fill:none;stroke:#000000;stroke-width:0.28222224;stroke-linecap:round;stroke-linejoin:round;stroke-miterlimit:4;stroke-dasharray:none"
           id="310"
           d="m 193.10982,181.77249 0.0403,1.04021"
           inkscape:connector-curvature="0" />
        <path
           style="fill:none;stroke:#000000;stroke-width:0.28222224;stroke-linecap:round;stroke-linejoin:round;stroke-miterlimit:4;stroke-dasharray:none"
           id="311"
           d="m 193.51305,181.66671 0.0758,1.97466"
           inkscape:connector-curvature="0" />
        <path
           style="fill:none;stroke:#000000;stroke-width:0.28222224;stroke-linecap:round;stroke-linejoin:round;stroke-miterlimit:4;stroke-dasharray:none"
           d="m 193.58883,183.64137 -0.0107,0.002 -0.0112,7.2e-4 -0.0113,7.2e-4 -0.0112,7.2e-4 -0.0113,7.7e-4 -0.0114,8.2e-4 -0.0114,8.2e-4 -0.0114,8.2e-4 -0.012,1e-5 -0.0115,8.7e-4 -0.0121,5e-5 -0.0117,9.7e-4 -0.0122,1e-4 -0.0123,1.6e-4"
           id="path10047"
           inkscape:connector-curvature="0" />
        <path
           style="fill:none;stroke:#000000;stroke-width:0.28222224;stroke-linecap:round;stroke-linejoin:round;stroke-miterlimit:4;stroke-dasharray:none"
           d="m 193.82297,183.27871 -0.019,0.0318 -0.0189,0.0305 -0.0185,0.0292 -0.0177,0.0287 -0.0171,0.0284 -0.0174,0.0262 -0.0163,0.0267 -0.0167,0.0247 -0.0161,0.0243 -0.0156,0.024 -0.0156,0.0229 -0.0151,0.0226 -0.0152,0.0215 -0.0148,0.0212"
           id="path10050"
           inkscape:connector-curvature="0" />
        <path
           style="fill:none;stroke:#000000;stroke-width:0.28222224;stroke-linecap:round;stroke-linejoin:round;stroke-miterlimit:4;stroke-dasharray:none"
           d="m 193.85195,183.0807 -0.002,0.016 -0.002,0.0152 -0.003,0.0142 -0.002,0.015 -0.002,0.0141 -0.002,0.0149 -0.002,0.014 -0.002,0.0139 -0.002,0.0139 -0.002,0.0138 -0.002,0.0138 -0.002,0.0129 -0.002,0.0137 -0.002,0.0128"
           id="path10054"
           inkscape:connector-curvature="0" />
        <path
           style="fill:none;stroke:#000000;stroke-width:0.28222224;stroke-linecap:round;stroke-linejoin:round;stroke-miterlimit:4;stroke-dasharray:none"
           d="m 194.54976,183.18934 a 1.145,0.949466 3.5595999 0 0 -0.69781,-0.10864"
           id="path10056"
           inkscape:connector-curvature="0" />
        <path
           style="fill:none;stroke:#000000;stroke-width:0.28222224;stroke-linecap:round;stroke-linejoin:round;stroke-miterlimit:4;stroke-dasharray:none"
           d="m 194.54976,183.18934 0.0222,-0.12135 0.0242,-0.12712 0.0249,-0.13564 0.0263,-0.14337 0.0281,-0.15133 0.0295,-0.16024 0.0314,-0.1694 0.0334,-0.17861 0.0348,-0.18985 0.0376,-0.19952 0.0392,-0.21198 0.0416,-0.22377 0.0435,-0.2376 0.0467,-0.24984"
           id="path10058"
           inkscape:connector-curvature="0" />
        <path
           style="fill:none;stroke:#000000;stroke-width:0.28222224;stroke-linecap:round;stroke-linejoin:round;stroke-miterlimit:4;stroke-dasharray:none"
           id="319"
           d="m 194.86327,181.57536 -0.34855,1.81089"
           inkscape:connector-curvature="0" />
        <path
           style="fill:none;stroke:#000000;stroke-width:0.28222224;stroke-linecap:round;stroke-linejoin:round;stroke-miterlimit:4;stroke-dasharray:none"
           d="m 194.51472,183.38625 0.002,-0.0129 0.002,-0.013 0.002,-0.0139 0.003,-0.0131 0.002,-0.014 0.002,-0.0141 0.003,-0.0132 0.002,-0.0141 0.003,-0.0142 0.002,-0.0151 0.003,-0.0143 0.002,-0.0152 0.003,-0.0145 0.003,-0.0154"
           id="path10061"
           inkscape:connector-curvature="0" />
        <path
           style="fill:none;stroke:#000000;stroke-width:0.28222224;stroke-linecap:round;stroke-linejoin:round;stroke-miterlimit:4;stroke-dasharray:none"
           id="321"
           d="m 194.98063,181.89443 -0.23301,1.21301"
           inkscape:connector-curvature="0" />
        <path
           style="fill:none;stroke:#000000;stroke-width:0.28222224;stroke-linecap:round;stroke-linejoin:round;stroke-miterlimit:4;stroke-dasharray:none"
           d="m 194.51511,183.38833 9e-5,-5e-5 0,0 9e-5,-5e-5 -5e-4,-8.7e-4 8e-5,-5e-5 0,0 9e-5,-5e-5 0,0 9e-5,-5e-5 -5e-4,-8.6e-4 8e-5,-5e-5 0,0 9e-5,-5e-5 0,0"
           id="path10064"
           inkscape:connector-curvature="0" />
        <path
           style="fill:none;stroke:#000000;stroke-width:0.28222224;stroke-linecap:round;stroke-linejoin:round;stroke-miterlimit:4;stroke-dasharray:none"
           id="323"
           d="m 195.32397,182.11651 -0.17707,0.92091"
           inkscape:connector-curvature="0" />
        <path
           style="fill:none;stroke:#000000;stroke-width:0.28222224;stroke-linecap:round;stroke-linejoin:round;stroke-miterlimit:4;stroke-dasharray:none"
           d="m 196.56161,182.50816 -0.0576,0.0575 -0.0565,0.0557 -0.055,0.0549 -0.0537,0.0541 -0.0527,0.0523 -0.0518,0.0507 -0.0499,0.0508 -0.0497,0.0483 -0.0478,0.0484 -0.047,0.0468 -0.0464,0.0453 -0.0446,0.0454 -0.0439,0.0438 -0.0433,0.0423"
           id="path10067"
           inkscape:connector-curvature="0" />
        <path
           style="fill:none;stroke:#000000;stroke-width:0.28222224;stroke-linecap:round;stroke-linejoin:round;stroke-miterlimit:4;stroke-dasharray:none"
           d="m 196.77181,187.66725 a 4.75,3.93883 3.5595999 0 0 1.96998,-2.95949"
           id="path10069"
           inkscape:connector-curvature="0" />
        <path
           style="fill:none;stroke:#000000;stroke-width:0.28222224;stroke-linecap:round;stroke-linejoin:round;stroke-miterlimit:4;stroke-dasharray:none"
           d="m 189.2604,184.11851 a 4.75,3.93883 3.5595999 0 0 7.51141,3.54874"
           id="path10071"
           inkscape:connector-curvature="0" />
      </g>
    </g>
  </g>
</svg>
