<?xml version="1.0" encoding="UTF-8"?>
<!-- Created with Inkscape (http://www.inkscape.org/) -->
<svg width="48" height="48" version="1.1" viewBox="0 0 12.7 12.7" xml:space="preserve" xmlns="http://www.w3.org/2000/svg"><g><g transform="translate(-.1951 -.01862)" stroke="#000000" stroke-linecap="round" stroke-linejoin="round" stroke-width=".2646"><path d="m10.94 10.29s-0.6316 0.6427-1.337 1.05c-0.7051 0.4071-1.857 0.7896-1.857 0.7896s-1.087 0.1465-2.206-0.04201c-1.119-0.1885-2.205-0.6241-2.205-0.6241s-0.3806-0.5346-0.7882-1.451c-0.4076-0.9163-0.3992-1.092-0.3992-1.092v-2.791l0.7357-0.6351v-1.47c0-0.3535 0.3038-3.463 3.557-3.463 3.253 0 3.792 2.747 3.792 3.859v1.253s0.1096 0.1721 0.3691 0.808c0.2595 0.636 0.3388 0.9758 0.3388 0.9758z" fill="#5fd3c2"/><path d="m10.23 5.67v0.9611s-0.3446 1.881-3.763 1.881c-3.419 0-3.591-1.913-3.591-1.913l0.0063-1.108" fill="none"/><path d="m2.149 6.125s0.3004 0.3245 0.6998 1.178c0.3994 0.8536 0.4897 1.344 0.4897 1.344s0.8867-0.1539 2.126 0.03754c1.239 0.1914 2.262 0.6369 2.262 0.6369s0.5714-0.5711 1.381-1.059c0.81-0.488 1.833-0.8084 1.833-0.8084" fill="none"/><path d="m7.727 9.321 0.02099 2.804" fill="none"/><path d="m3.338 8.647-0.002117 2.812" fill="none"/></g></g></svg>
