<?xml version="1.0" encoding="UTF-8" standalone="no"?>
<svg
   width="48"
   height="48"
   viewBox="0 0 12.7 12.7"
   version="1.1"
   id="svg8"
   sodipodi:docname="ScrewDieInch.svg"
   inkscape:version="1.1 (c4e8f9ed74, 2021-05-24)"
   xmlns:inkscape="http://www.inkscape.org/namespaces/inkscape"
   xmlns:sodipodi="http://sodipodi.sourceforge.net/DTD/sodipodi-0.dtd"
   xmlns="http://www.w3.org/2000/svg"
   xmlns:svg="http://www.w3.org/2000/svg"
   xmlns:rdf="http://www.w3.org/1999/02/22-rdf-syntax-ns#"
   xmlns:cc="http://creativecommons.org/ns#"
   xmlns:dc="http://purl.org/dc/elements/1.1/">
  <sodipodi:namedview
     id="namedview45"
     pagecolor="#ffffff"
     bordercolor="#666666"
     borderopacity="1.0"
     inkscape:pageshadow="2"
     inkscape:pageopacity="0.0"
     inkscape:pagecheckerboard="0"
     showgrid="false"
     inkscape:zoom="13.12567"
     inkscape:cx="10.742309"
     inkscape:cy="19.122833"
     inkscape:window-width="1920"
     inkscape:window-height="1055"
     inkscape:window-x="0"
     inkscape:window-y="0"
     inkscape:window-maximized="1"
     inkscape:current-layer="svg8" />
  <defs
     id="defs2" />
  <metadata
     id="metadata5">
    <rdf:RDF>
      <cc:Work
         rdf:about="">
        <dc:format>image/svg+xml</dc:format>
        <dc:type
           rdf:resource="http://purl.org/dc/dcmitype/StillImage" />
      </cc:Work>
    </rdf:RDF>
  </metadata>
  <path
     style="fill:none;stroke:#000000;stroke-width:0.3;stroke-linecap:butt;stroke-linejoin:miter;stroke-miterlimit:4;stroke-dasharray:none;stroke-opacity:1"
     d="M 0.81394688,4.1817864 C 1.7406008,2.3155076 3.3826404,1.7435567 4.1951346,1.3955377 c 2.4877072,-1.06557 5.1570995,0.1048844 5.1570995,0.1048844 0,0 3.1824769,1.4423956 2.6094339,4.0389363 -0.207013,0.9380065 -0.522988,1.6256924 -1.518236,2.46837 C 9.6024168,8.7198169 8.266893,9.4016629 6.3883844,9.4562605 5.9400143,9.469292 3.2020753,9.8681505 1.3568304,7.67086 0.23093676,6.3301624 0.44675944,4.9213011 0.81394688,4.1817864 Z"
     id="path1475" />
  <path
     style="fill:none;stroke:#000000;stroke-width:0.3;stroke-linecap:butt;stroke-linejoin:miter;stroke-miterlimit:4;stroke-dasharray:none;stroke-dashoffset:0;stroke-opacity:1"
     d="M 0.56038487,6.0191284 1.0255739,8.547107 c 0,0 0.133437,0.5926101 0.4102273,0.9857142 0.2767902,0.3931042 1.6363127,2.1073408 4.151106,2.3116708 1.0280105,0.08353 3.0911257,0.230755 4.8550568,-1.304133 1.763931,-1.534887 1.663329,-3.085548 1.663329,-3.085548 l -0.07841,-2.5634936"
     id="path1477" />
  <path
     style="fill:none;stroke:#000000;stroke-width:0.3;stroke-linecap:butt;stroke-linejoin:miter;stroke-miterlimit:4;stroke-dasharray:none;stroke-opacity:1"
     d="m 4.8629217,3.8786813 c 0,0 -0.5942856,-0.3504308 -0.7329897,-0.7313769 -0.1387041,-0.3809462 0.089349,-0.7320887 0.089349,-0.7320887 0,0 0.3291853,-0.4762346 0.8324726,-0.5968742 0.5032872,-0.1206397 0.5816346,-0.1119872 0.5816346,-0.1119872 0,0 0.5157909,-0.081397 1.0847175,0.2307312 0.5689267,0.3121279 0.5007978,0.8839678 0.5007978,0.8839678 0,0 -0.034432,0.355486 -0.3094225,0.6619127 0.5315101,0.1095572 0.8175156,0.2715318 0.8175156,0.2715318 0,0 0.2963791,-0.4421071 1.113585,-0.5779103 0.8172055,-0.1358033 1.3337664,0.2273527 1.3337664,0.2273527 0,0 0.633234,0.3683902 0.565754,0.9635445 -0.06748,0.5951543 -0.498424,0.89052 -0.498424,0.89052 0,0 -0.3739353,0.306138 -1.0275368,0.3249914 C 8.5605397,5.6018501 8.191397,5.3625617 8.191397,5.3625617 c 0,0 -0.060049,0.1941264 -0.1383993,0.2936886 -0.07835,0.099562 -0.2318689,0.2810891 -0.2318689,0.2810891 0,0 0.5549185,0.349105 0.7033847,0.7081234 0.1484662,0.3590184 0.05562,0.6550464 0.05562,0.6550464 0,0 -0.2121752,0.8491072 -1.2666197,1.049411 C 6.2590698,8.5502238 5.7131725,8.098298 5.7131725,8.098298 c 0,0 -0.4824876,-0.3055837 -0.5103215,-0.9496387 C 5.1750171,6.5046039 5.4109479,6.3720312 5.4109479,6.3720312 L 4.7710452,6.1021914 c 0,0 -0.4725421,0.4546704 -0.7833135,0.5514309 -0.3107711,0.09676 -0.7946266,0.092198 -0.7946266,0.092198 0,0 -0.5542471,-0.032103 -0.8033499,-0.2059509 C 2.1406524,6.3660223 2.0110632,6.195746 2.0110632,6.195746 c 0,0 -0.2594027,-0.2453757 -0.2128906,-0.656512 0.046512,-0.411136 0.209353,-0.5916866 0.209353,-0.5916866 0,0 0.1624632,-0.2810981 0.6641046,-0.4783161 0.5016412,-0.1972178 0.706838,-0.2036585 0.706838,-0.2036585 0,0 0.2553738,-0.043504 0.5493015,0.033877 0.2939277,0.077382 0.4591026,0.1521855 0.4591026,0.1521855 0,0 0.1060297,-0.19626 0.1824905,-0.2870499 0.076461,-0.09079 0.2935589,-0.285904 0.2935589,-0.2859041 z"
     id="path1479" />
  <path
     style="fill:none;stroke:#000000;stroke-width:0.3;stroke-linecap:butt;stroke-linejoin:miter;stroke-miterlimit:4;stroke-dasharray:none;stroke-opacity:1"
     d="M 5.4109479,6.3720312 5.6817037,6.6551333 5.6019885,6.776178 5.84593,6.7825704 5.7129703,7.1270103 6.0236321,7.113453 5.7688789,7.5097949 6.1064565,7.5195077 5.8414729,7.9046119 6.1345127,7.9146185 5.9257929,8.2228072"
     id="path1481" />
  <path
     style="fill:none;stroke:#000000;stroke-width:0.3;stroke-linecap:butt;stroke-linejoin:miter;stroke-miterlimit:4;stroke-dasharray:none;stroke-opacity:1"
     d="M 7.8321402,5.9411569 7.6774465,6.3370184 7.5602932,6.5176402 7.6790401,6.6267332 7.4214082,6.8098547 7.6355955,6.9898548 7.3666921,7.1828381 7.625971,7.3947448 7.3898606,7.6237983 7.663163,7.7643153 7.4386047,8.0073906 7.7650699,8.1872713"
     id="path1483" />
  <path
     style="fill:none;stroke:#000000;stroke-width:0.3;stroke-linecap:butt;stroke-linejoin:miter;stroke-miterlimit:4;stroke-dasharray:none;stroke-opacity:1"
     d="M 6.909481,3.482966 6.8272495,3.8018563 6.9211557,3.8547627 6.7765696,3.987637 6.7521724,4.2752666 6.9314427,4.3059863 6.6816721,4.6862824 6.898701,4.7042112 6.6510283,5.078259 6.9388979,5.1244566 6.6781084,5.4196805 6.9395736,5.4986332 6.7196567,5.828082 c 0,0 0.2000784,0.014915 0.3340267,0.057431 0.1339482,0.042516 0.6450447,0.3797439 0.6450447,0.3797439"
     id="path1485" />
  <path
     style="fill:none;stroke:#000000;stroke-width:0.3;stroke-linecap:butt;stroke-linejoin:miter;stroke-miterlimit:4;stroke-dasharray:none;stroke-opacity:1"
     d="M 4.3634821,4.436691 4.6914388,4.9401052 4.5675568,5.0653067 4.8717285,5.3636595 4.6330658,5.5211416 4.9434256,5.7947027 4.6226518,5.8823758 4.7750262,6.1189851"
     id="path1493" />
  <path
     style="fill:none;stroke:#000000;stroke-width:0.3;stroke-linecap:butt;stroke-linejoin:miter;stroke-miterlimit:4;stroke-dasharray:none;stroke-opacity:1"
     d="M 4.8504118,3.8813999 5.1451496,4.510229 4.9999217,4.6153459 5.2170745,4.7150194 5.3187226,4.9185112 5.1138825,5.0060134 5.5493274,5.2630405 5.2263836,5.4576601 5.6021813,5.6327537 5.2977245,5.8394083 5.6558513,6.0198862 5.2161643,6.2994148"
     id="path1495" />
  <path
     style="fill:none;stroke:#000000;stroke-width:0.3;stroke-linecap:butt;stroke-linejoin:miter;stroke-miterlimit:4;stroke-dasharray:none;stroke-opacity:1"
     d="M 7.7057512,3.7357971 7.6531882,4.0001466 7.795366,4.0358156 7.61659,4.1676984 7.566079,4.3795155 c 0.06218,0.028443 0.07723,0.026639 0.1722871,0.048463 l -0.1618432,0.294148 0.1751,0.018075 L 7.5478974,5.0539063 7.7631046,5.0947393 7.5480071,5.443325 7.797694,5.4918925 7.6357519,5.7431399 7.8109765,5.9309927"
     id="path1497" />
  <path
     style="fill:none;stroke:#000000;stroke-width:0.3;stroke-linecap:butt;stroke-linejoin:miter;stroke-miterlimit:4;stroke-dasharray:none;stroke-opacity:1"
     d="m 5.1362234,4.4750397 c 0,0 0.1930897,-0.1225254 0.583252,-0.131318 0.3901625,-0.00879 0.5879282,-0.00668 0.5879282,-0.00668 0,0 0.3470132,0.056421 0.4877655,0.1595276"
     id="path1499" />
  <path
     style="fill:none;stroke:#000000;stroke-width:0.3;stroke-linecap:butt;stroke-linejoin:miter;stroke-miterlimit:4;stroke-dasharray:none;stroke-opacity:1"
     d="M 6.9194663,3.8521833 7.7983685,4.0439287"
     id="path1501" />
  <path
     style="fill:none;stroke:#000000;stroke-width:0.3;stroke-linecap:butt;stroke-linejoin:miter;stroke-miterlimit:4;stroke-dasharray:none;stroke-opacity:1"
     d="M 6.7758771,4.2295162 7.7230702,4.4409754"
     id="path1503" />
  <path
     style="fill:none;stroke:#000000;stroke-width:0.3;stroke-linecap:butt;stroke-linejoin:miter;stroke-miterlimit:4;stroke-dasharray:none;stroke-opacity:1"
     d="M 6.7495617,4.6218048 7.7154938,4.7851806"
     id="path1505" />
  <path
     style="fill:none;stroke:#000000;stroke-width:0.3;stroke-linecap:butt;stroke-linejoin:miter;stroke-miterlimit:4;stroke-dasharray:none;stroke-opacity:1"
     d="m 6.7127894,5.013312 0.989637,0.1248652"
     id="path1507" />
  <path
     style="fill:none;stroke:#000000;stroke-width:0.3;stroke-linecap:butt;stroke-linejoin:miter;stroke-miterlimit:4;stroke-dasharray:none;stroke-opacity:1"
     d="M 6.7461427,5.379155 7.7395774,5.5219724"
     id="path1509" />
  <path
     style="fill:none;stroke:#000000;stroke-width:0.3;stroke-linecap:butt;stroke-linejoin:miter;stroke-miterlimit:4;stroke-dasharray:none;stroke-opacity:1"
     d="M 5.0285461,4.5912351 4.6695836,4.8915695"
     id="path1511" />
  <path
     style="fill:none;stroke:#000000;stroke-width:0.3;stroke-linecap:butt;stroke-linejoin:miter;stroke-miterlimit:4;stroke-dasharray:none;stroke-opacity:1"
     d="M 5.1085037,4.9969091 4.8040878,5.2615738"
     id="path1513" />
  <path
     style="fill:none;stroke:#000000;stroke-width:0.3;stroke-linecap:butt;stroke-linejoin:miter;stroke-miterlimit:4;stroke-dasharray:none;stroke-opacity:1"
     d="M 5.2239355,5.4725446 4.8903921,5.7298729"
     id="path1515" />
  <path
     style="fill:none;stroke:#000000;stroke-width:0.3;stroke-linecap:butt;stroke-linejoin:miter;stroke-miterlimit:4;stroke-dasharray:none;stroke-opacity:1"
     d="M 5.3006754,5.836902 4.8508626,6.132817"
     id="path1517" />
  <path
     style="fill:#00e2c1;fill-opacity:1;stroke:none;stroke-width:0.0118118"
     d="M 6.1862022,11.777628 C 5.7384243,11.758195 5.3821739,11.724143 5.0808429,11.671973 4.1111931,11.504098 3.2183879,11.087836 2.4350096,10.438378 2.2510767,10.285889 1.927275,9.9674409 1.7754408,9.7897139 1.5180284,9.4884043 1.4091461,9.3171908 1.2949818,9.0342105 1.1778975,8.743992 1.1403093,8.5916422 1.0074275,7.8687138 0.93995982,7.5016637 0.88602888,7.1998487 0.887581,7.1980144 c 0.001553,-0.00183 0.0261258,0.035329 0.0546082,0.082585 0.1155671,0.1917428 0.3192696,0.4527928 0.5224498,0.6695332 0.8858485,0.9449699 2.0384631,1.4820524 3.4803687,1.6217431 0.2085213,0.020201 0.9898202,0.020315 1.3170109,1.926e-4 0.1364257,-0.00839 0.3330913,-0.020619 0.437035,-0.027176 1.3421497,-0.084657 2.5995844,-0.5292979 3.5671504,-1.2613801 0.329355,-0.2491973 0.782298,-0.6789502 0.99117,-0.940422 0.292214,-0.3658037 0.520202,-0.7891513 0.658369,-1.2225165 l 0.03954,-0.1240235 0.01344,0.425223 c 0.02864,0.9061857 0.03135,1.2068096 0.01215,1.3469427 -0.07598,0.5545846 -0.318365,1.1464274 -0.684338,1.6709609 -0.428509,0.6141642 -1.020609,1.1692992 -1.657715,1.5542202 -0.9712406,0.586798 -2.0978272,0.842528 -3.4526214,0.78373 z"
     id="path1529" />
  <path
     style="fill:#4be2c6;fill-opacity:1;stroke:none;stroke-width:0.012;stroke-miterlimit:4;stroke-dasharray:none"
     d="M 5.2875486,9.3793796 C 4.3656546,9.3456298 3.5035897,9.1181236 2.7893623,8.7200874 1.9059406,8.2277597 1.1634995,7.429697 0.84902515,6.6343855 0.69219815,6.2377668 0.62969623,5.9134427 0.62936275,5.4945509 0.62896977,5.0009234 0.71890537,4.6116194 0.9308852,4.1893519 1.1522832,3.7483232 1.4342847,3.3530132 1.7835362,2.9941041 2.1981425,2.5680334 2.6559338,2.2370495 3.2500207,1.9338336 3.5312101,1.7903173 4.1817356,1.5060092 4.4725375,1.3995401 5.4502909,1.0415627 6.5444978,0.9609811 7.7266762,1.1598928 c 0.5243393,0.088225 1.1485734,0.2585467 1.5372381,0.4194349 0.347498,0.1438471 0.9738967,0.5498339 1.3390557,0.8678799 0.752909,0.6557683 1.169005,1.3295207 1.294757,2.096497 0.02854,0.1740718 0.02879,0.5700813 4.76e-4,0.755291 -0.04093,0.2677167 -0.146536,0.6662065 -0.252173,0.9515078 -0.230651,0.622936 -0.682896,1.2026421 -1.368015,1.7535802 C 9.3156989,8.777929 8.0673447,9.2435891 6.7167704,9.3324962 6.0356175,9.3773359 5.6116344,9.391244 5.2875478,9.3793796 Z M 7.1892413,8.4770165 C 7.8269496,8.3796962 8.2634891,8.1081813 8.5470824,7.6324787 8.695333,7.3838019 8.7432871,7.1354833 8.6956208,6.863309 8.6393511,6.5420096 8.4803955,6.3097065 8.1237838,6.027607 8.0693412,5.9845402 8.0148056,5.9413306 8.002593,5.931586 7.9814607,5.9147241 7.9849955,5.9081624 8.0757846,5.7957508 8.1282528,5.730786 8.188104,5.6416389 8.2087872,5.5976458 c 0.026321,-0.055985 0.042923,-0.078398 0.055324,-0.074692 0.00974,0.00291 0.072099,0.02423 0.1385652,0.047371 0.2197976,0.076528 0.3774186,0.1025477 0.6646341,0.1097179 0.341185,0.00852 0.5356998,-0.01924 0.8112318,-0.1157634 C 10.258254,5.4312602 10.534524,5.1925225 10.707969,4.8475325 10.788344,4.6876649 10.850723,4.438134 10.850838,4.2760262 10.851008,4.0370167 10.739421,3.7852477 10.539413,3.5733683 10.243158,3.2595288 9.866605,3.0914067 9.3620406,3.0476983 8.7939834,2.9984898 8.1292363,3.2113193 7.7597703,3.560691 l -0.0614,0.05806 L 7.5707821,3.568669 C 7.4555831,3.5234493 7.2638782,3.4603137 7.142676,3.4276773 L 7.096766,3.415316 7.1481039,3.3298643 C 7.3119791,3.0570937 7.3612549,2.7719768 7.2911466,2.5021968 7.2409925,2.3092017 7.1208552,2.1123869 6.9787616,1.9904321 6.7944457,1.8322392 6.5001769,1.6989034 6.1835476,1.6301139 6.0775992,1.6070959 6.0264224,1.6035207 5.8013599,1.603414 5.5627354,1.6033006 5.5284716,1.6059831 5.3820427,1.6362256 5.1108271,1.6922428 4.9350773,1.7384081 4.8393685,1.7787729 4.5386616,1.9055951 4.2097446,2.1958554 4.0887065,2.4412121 3.9611725,2.6997363 3.9474655,3.0047768 4.0530174,3.2354453 4.1342632,3.4129964 4.3271199,3.6246892 4.5789476,3.8127432 L 4.6854549,3.8922782 4.5805195,3.9994739 C 4.5228055,4.0584319 4.4453299,4.1531786 4.408352,4.2100224 4.371374,4.2668664 4.338432,4.3133753 4.335147,4.3133753 c -0.00329,0 -0.062747,-0.018822 -0.1321379,-0.04183 C 3.6640516,4.0928536 3.3307356,4.1075906 2.7243976,4.3369198 2.0671762,4.5854942 1.7664138,4.9294705 1.6967093,5.5122685 c -0.023134,0.1934205 0.00695,0.3751929 0.08909,0.5383003 0.059573,0.118296 0.1208021,0.198155 0.2530409,0.3300312 0.222597,0.2219876 0.397095,0.3277024 0.6437432,0.389994 C 2.9601657,6.840698 3.18459,6.8613 3.4561925,6.841608 3.8284491,6.81462 4.0400692,6.765367 4.2153053,6.6649331 4.3331582,6.5973871 4.4902617,6.4836559 4.636459,6.3600481 4.703878,6.3030461 4.7676617,6.2500775 4.7782,6.2423392 c 0.015698,-0.011528 0.05817,0.00228 0.235009,0.076379 0.1187162,0.049747 0.2133629,0.095942 0.2103263,0.1026578 -0.095226,0.21057 -0.12436,0.3570774 -0.1247402,0.6272922 -1.418e-4,0.1004823 0.00732,0.210276 0.018875,0.2775762 0.074069,0.4315555 0.3537672,0.7980907 0.7518019,0.985212 0.1984705,0.093304 0.4248692,0.1559197 0.6595763,0.1824217 0.1371947,0.015491 0.5107027,0.00595 0.660193,-0.016862 z"
     id="path1531" />
  <path
     style="fill:#00e2c1;fill-opacity:1;stroke:none;stroke-width:0.0118118"
     d="m 7.7061138,8.0347996 c -0.043791,-0.024098 -0.082999,-0.047192 -0.087127,-0.051321 -0.00413,-0.00413 0.041003,-0.060076 0.1002917,-0.1243287 0.059289,-0.064253 0.1077978,-0.1202291 0.1077978,-0.1243923 0,-0.00416 -0.054482,-0.034805 -0.1210704,-0.068093 -0.066589,-0.033288 -0.1234516,-0.062737 -0.1263618,-0.065442 -0.00291,-0.00271 0.041462,-0.05189 0.098605,-0.1092997 L 7.7821458,7.3875428 7.6776346,7.3014593 C 7.6201534,7.2541134 7.5660268,7.20892 7.5573535,7.2010298 c -0.012766,-0.011613 0.00918,-0.031975 0.1151643,-0.106867 0.072014,-0.050886 0.1306963,-0.095424 0.1304047,-0.098973 -2.91e-4,-0.00355 -0.045472,-0.043556 -0.1003998,-0.088906 -0.054929,-0.045349 -0.09987,-0.085507 -0.09987,-0.089239 0,-0.00373 0.052974,-0.0437 0.1177197,-0.088817 0.064746,-0.045118 0.1178986,-0.085209 0.1181174,-0.089093 2.191e-4,-0.00388 -0.031491,-0.037478 -0.070468,-0.074655 l -0.070866,-0.067595 0.034842,-0.050641 c 0.019164,-0.027852 0.060655,-0.1153586 0.092205,-0.1944579 L 7.8815658,6.107969 7.9635798,6.169205 C 8.0833639,6.2586451 8.3229232,6.5038067 8.3749943,6.5902429 8.4841172,6.771383 8.5309127,7.0512516 8.484087,7.2426908 8.4107212,7.5426355 8.1408116,7.8798869 7.8388878,8.0488659 l -0.053153,0.029749 z"
     id="path1533" />
  <path
     style="fill:#00e2c1;fill-opacity:1;stroke:none;stroke-width:0.0118118"
     d="M 4.5970525,4.6008498 C 4.4929377,4.4445232 4.4936642,4.465017 4.5871756,4.3222449 c 0.048048,-0.073358 0.2242987,-0.265794 0.2333237,-0.254749 0.00169,0.00206 0.045611,0.09486 0.097624,0.2062303 l 0.094569,0.2024919 -0.1047128,0.074526 c -0.057592,0.04099 -0.1047131,0.078269 -0.1047131,0.082843 0,0.00457 -0.025839,0.02995 -0.057418,0.056391 l -0.057418,0.048073 z"
     id="path1535" />
  <path
     style="fill:#00e2c1;fill-opacity:1;stroke:none;stroke-width:0.0118118"
     d="m 4.7528665,5.0962409 -0.032146,-0.032146 0.055017,-0.055857 c 0.044745,-0.045428 0.052384,-0.05903 0.040914,-0.07285 -0.011615,-0.013997 0.00469,-0.032674 0.09247,-0.1059141 l 0.1065725,-0.088921 0.060314,0.025482 c 0.039674,0.016761 0.066322,0.037102 0.077873,0.059439 0.020066,0.038804 0.01719,0.042567 -0.055321,0.072356 -0.1739366,0.071458 -0.2143361,0.093778 -0.1951419,0.107813 0.01638,0.011978 0.010411,0.021066 -0.044855,0.06828 -0.035063,0.029955 -0.065956,0.054464 -0.068651,0.054464 -0.0027,0 -0.019368,-0.014465 -0.037046,-0.032146 z"
     id="path1537" />
  <path
     style="fill:#00e2c1;fill-opacity:1;stroke:none;stroke-width:0.0118118"
     d="m 4.8456511,5.5665105 -0.032906,-0.034346 0.1074724,-0.072264 c 0.05911,-0.039745 0.1074722,-0.075889 0.1074722,-0.08032 0,-0.00443 -0.019185,-0.027702 -0.042631,-0.051714 l -0.042631,-0.043658 0.045584,-0.040707 c 0.025072,-0.022389 0.064285,-0.056918 0.087142,-0.076732 l 0.041558,-0.036025 0.1135113,0.066739 0.1135113,0.066739 -0.1647857,0.098505 C 5.072543,5.4263345 5.0162595,5.4666963 5.0200803,5.4766539 c 0.00344,0.00896 -0.023426,0.038208 -0.064123,0.069812 -0.038522,0.029915 -0.071696,0.054391 -0.073721,0.054391 -0.00201,0 -0.018486,-0.015457 -0.036585,-0.034346 z"
     id="path1539" />
  <path
     style="fill:#00e2c1;fill-opacity:1;stroke:none;stroke-width:0.0118118"
     d="m 5.0863026,5.7783766 c -0.02662,-0.022841 -0.036353,-0.038304 -0.027884,-0.044294 0.00716,-0.00506 0.05396,-0.040728 0.1040082,-0.079259 l 0.090997,-0.070057 0.065981,0.03236 c 0.036289,0.017799 0.061242,0.036655 0.055451,0.041905 -0.02304,0.020884 -0.2287672,0.1544367 -0.2378993,0.1544367 -0.00537,0 -0.028161,-0.01579 -0.050654,-0.035092 z"
     id="path1541" />
  <path
     style="fill:#00e2c1;fill-opacity:1;stroke:none;stroke-width:0.0118118"
     d="m 4.8119344,5.9803278 -0.02005,-0.033941 0.1118322,-0.031024 c 0.061508,-0.017063 0.1158452,-0.031024 0.12075,-0.031024 0.00491,0 -0.034747,0.029234 -0.088116,0.064965 -0.053369,0.035731 -0.098684,0.064965 -0.100701,0.064965 -0.00201,0 -0.012689,-0.015274 -0.023717,-0.03394 z"
     id="path1543" />
  <path
     style="fill:#00e2c1;fill-opacity:1;stroke:none;stroke-width:0.0118118"
     d="m 5.1298416,6.1396615 -0.057307,-0.026194 0.1139502,-0.075139 0.1139502,-0.075138 0.070387,0.033642 0.070387,0.033642 -0.1069128,0.068673 c -0.058802,0.03777 -0.1159656,0.06823 -0.1270304,0.06769 -0.011065,-5.292e-4 -0.045906,-0.012771 -0.077424,-0.027176 z"
     id="path1545" />
  <path
     style="fill:#00e2c1;fill-opacity:1;stroke:none;stroke-width:0.0118118"
     d="M 5.6120328,7.8664146 C 5.4720225,7.7154187 5.3737657,7.5267377 5.3334668,7.3314885 5.302868,7.1832361 5.3030032,6.8993019 5.3337314,6.7525029 c 0.023778,-0.113556 0.065325,-0.2230168 0.082192,-0.2165483 0.00565,0.00217 0.036971,0.033298 0.069613,0.069183 l 0.059348,0.065246 -0.063709,0.097489 c -0.03504,0.053619 -0.063708,0.099318 -0.063708,0.1015537 0,0.00225 0.05842,0.00647 0.1298236,0.00941 0.071403,0.00294 0.1324208,0.00795 0.135595,0.01112 0.00318,0.00318 -0.023355,0.081497 -0.058953,0.1740521 -0.035598,0.092555 -0.064724,0.1699813 -0.064724,0.1720594 0,0.00209 0.059073,9.789e-4 0.1312741,-0.00243 0.1263343,-0.00599 0.1308013,-0.00538 0.1187011,0.016185 -0.00692,0.012324 -0.060495,0.096821 -0.1190665,0.1877716 l -0.1064935,0.1653646 0.15611,0.010194 c 0.08586,0.00561 0.1576829,0.01161 0.1596057,0.01334 0.00388,0.00349 -0.1808814,0.274537 -0.2038051,0.2989914 -0.011692,0.012472 -0.027642,0.00119 -0.083512,-0.059059 z"
     id="path1547" />
  <path
     style="fill:#00e2c1;fill-opacity:1;stroke:none;stroke-width:0.0118118"
     d="m 5.8279365,8.0509292 c -0.024363,-0.015954 -0.044294,-0.031587 -0.044294,-0.03474 0,-0.00315 0.03485,-0.00573 0.077444,-0.00573 h 0.077444 l -0.020931,0.035435 c -0.024974,0.042279 -0.032177,0.042684 -0.089662,0.00504 z"
     id="path1549" />
  <path
     style="fill:#00e2c1;fill-opacity:1;stroke:none;stroke-width:0.0118118"
     d="M 7.4830238,6.003233 C 7.2091041,5.8307231 7.1262969,5.7921617 6.9381105,5.7494791 l -0.032614,-0.0074 0.072145,-0.1072955 c 0.065477,-0.097378 0.075042,-0.1067493 0.1034841,-0.1013841 0.017238,0.00325 0.1376445,0.020606 0.2675739,0.038565 0.1299292,0.01796 0.2383698,0.034384 0.2409786,0.036499 0.00262,0.00212 -0.014666,0.033078 -0.038388,0.068807 -0.023723,0.035729 -0.043114,0.069029 -0.043091,0.074001 2.24e-5,0.00497 0.03759,0.050158 0.083484,0.1004128 0.045894,0.050255 0.080313,0.096437 0.076487,0.1026269 -0.00383,0.00619 0.00185,0.016179 0.012597,0.022196 0.018116,0.010139 0.018007,0.014989 -0.00151,0.066076 -0.011581,0.030324 -0.024254,0.056684 -0.028163,0.058578 -0.00391,0.0019 -0.079543,-0.042176 -0.1680768,-0.097932 z"
     id="path1551" />
  <path
     style="fill:#00e2c1;fill-opacity:1;stroke:none;stroke-width:0.0118118"
     d="M 7.1862883,5.337407 C 7.0442544,5.316304 6.9413095,5.295742 6.9414683,5.288511 6.9416188,5.281651 6.9664023,5.25018 6.9965433,5.218581 l 0.054801,-0.057452 0.2490782,0.03215 C 7.4374156,5.210961 7.550603,5.226401 7.5519497,5.227588 7.5610597,5.235618 7.4632327,5.3757057 7.4491009,5.3748709 7.4393609,5.3742888 7.321091,5.3574379 7.1862892,5.3374059 Z"
     id="path1553" />
  <path
     style="fill:#00e2c1;fill-opacity:1;stroke:none;stroke-width:0.0118118"
     d="M 7.1434454,4.9622704 C 7.0045693,4.9437072 6.889208,4.9267848 6.8870869,4.9246636 c -0.00755,-0.00755 0.092835,-0.1506339 0.1058352,-0.1508585 0.016901,-2.911e-4 0.5434819,0.085711 0.548577,0.089596 0.00209,0.00159 -0.015931,0.03264 -0.040061,0.068981 -0.035422,0.053349 -0.049805,0.065841 -0.074681,0.064857 -0.016947,-6.615e-4 -0.1444358,-0.016407 -0.2833117,-0.034969 z"
     id="path1555" />
  <path
     style="fill:#00e2c1;fill-opacity:1;stroke:none;stroke-width:0.0118118"
     d="M 7.2010531,4.5915833 C 7.0418896,4.5648718 6.9125816,4.538918 6.9137018,4.5339087 c 0.00111,-0.00501 0.021873,-0.039745 0.046119,-0.07719 l 0.044082,-0.068082 0.2550811,0.056702 c 0.1402945,0.031186 0.2670744,0.059541 0.2817329,0.063013 l 0.026652,0.00631 -0.02938,0.057979 c -0.016158,0.031888 -0.033468,0.060123 -0.038464,0.062743 -0.005,0.00262 -0.1393081,-0.017089 -0.2984714,-0.043802 z"
     id="path1557" />
  <path
     style="fill:#00e2c1;fill-opacity:1;stroke:none;stroke-width:0.0118118"
     d="m 7.1614262,4.2089829 -0.2935798,-0.066248 0.00586,-0.051952 c 0.00419,-0.037214 0.016029,-0.062125 0.041718,-0.087814 l 0.035863,-0.035862 0.2884524,0.062688 0.2884525,0.062689 -0.023286,0.092729 c -0.012808,0.051 -0.029274,0.092119 -0.036591,0.091374 C 7.4609953,4.275846 7.3229008,4.2454209 7.161432,4.2089839 Z"
     id="path1559" />
  <path
     style="fill:#00e2c1;fill-opacity:1;stroke:none;stroke-width:0.0118118"
     d="m 7.2564817,3.8182671 -0.3048299,-0.06595 0.0076,-0.04097 c 0.00418,-0.022534 0.013787,-0.055245 0.021349,-0.072693 l 0.013745,-0.031724 0.141741,0.039068 c 0.077958,0.021487 0.2095111,0.064036 0.2923411,0.094552 0.1412417,0.052037 0.1505886,0.057429 0.150419,0.086779 -9.92e-5,0.017211 -0.00409,0.037054 -0.00886,0.044092 -0.00597,0.0088 -0.1038201,-0.00779 -0.313508,-0.053153 z"
     id="path1561" />
  <path
     style="fill:#00e2c1;fill-opacity:1;stroke:none;stroke-width:0.0118118"
     d="M 5.1344665,4.2386157 C 5.1098074,4.1855347 5.0655791,4.0907245 5.0361802,4.0279259 L 4.982728,3.913747 5.0107699,3.8874025 5.0388117,3.8610579 4.9276595,3.7932881 C 4.748186,3.6838638 4.5936762,3.5625526 4.45482,3.4220464 4.2530156,3.2178439 4.1978516,3.1055265 4.1964382,2.8959646 4.1948772,2.6636366 4.2571619,2.5144573 4.4329244,2.3296064 4.6388811,2.1130004 4.8502347,1.9796649 5.0799687,1.9214095 5.2900492,1.8681378 5.5308939,1.8219793 5.6645277,1.8093772 5.9489757,1.7825529 6.291904,1.8485099 6.5780398,1.9850773 6.9048685,2.1410669 7.0808219,2.377621 7.1130122,2.7043017 7.1253339,2.8293576 7.0860226,2.9857782 6.9980494,3.1617293 6.9458657,3.2660992 6.8948622,3.338168 6.7879337,3.4586264 c -0.03914,0.044092 -0.071162,0.084358 -0.071162,0.089482 0,0.00512 0.013287,0.00932 0.029529,0.00932 0.01624,0 0.029408,0.00664 0.02926,0.014764 -1.476e-4,0.00812 -0.016044,0.073091 -0.035329,0.1443786 -0.030166,0.1115216 -0.032736,0.1319379 -0.01841,0.1462646 0.014327,0.014327 0.012078,0.020497 -0.0161,0.044208 -0.030042,0.025278 -0.033416,0.036625 -0.040801,0.1372174 -0.00443,0.060313 -0.011181,0.1444543 -0.01501,0.1869802 l -0.00696,0.07732 -0.125504,-0.034482 C 6.4057402,4.2433829 6.3679273,4.238971 6.1734279,4.2339349 5.9195011,4.22736 5.51651,4.247053 5.4056639,4.2714539 c -0.042227,0.00929 -0.1104342,0.027424 -0.1515713,0.040286 l -0.074795,0.023387 z"
     id="path1563" />
  <path
     style="fill:#00e2c1;fill-opacity:1;stroke:none;stroke-width:0.0118118"
     d="M 3.0964679,6.6333703 C 2.8135678,6.5924016 2.6325945,6.5474892 2.5176919,6.489734 2.4251014,6.4431941 2.2796281,6.3235921 2.1482779,6.1860178 2.0535435,6.086794 2.0176589,6.0392328 1.9801952,5.9632407 1.8892296,5.7787254 1.8769657,5.6008624 1.9385193,5.3588163 2.0393522,4.962313 2.2889108,4.7246939 2.8069362,4.5319463 2.9718259,4.4705939 3.1531763,4.4149009 3.2736443,4.3886191 3.3896829,4.3633038 3.6193827,4.3548016 3.7426505,4.3712598 3.8440272,4.3847959 4.0945048,4.4525019 4.2278596,4.502418 l 0.068333,0.025577 0.128669,0.196495 0.1286687,0.1964946 -0.066211,0.075416 -0.066211,0.075416 0.1379265,0.1365277 c 0.075859,0.07509 0.1379262,0.1384342 0.1379262,0.1407644 0,0.00233 -0.053879,0.039538 -0.1197314,0.082686 l -0.1197313,0.078449 0.036518,0.030542 c 0.1273046,0.1064723 0.2237195,0.1969955 0.2168512,0.2035998 -0.0044,0.00423 -0.061153,0.022005 -0.1261181,0.039496 -0.064965,0.017492 -0.1199113,0.033541 -0.1221039,0.035666 -0.0022,0.00212 0.034503,0.063721 0.081546,0.1368809 l 0.085532,0.1330182 -0.046111,0.039589 C 4.3568998,6.3236842 4.1792995,6.4504355 4.0414085,6.516 3.8954498,6.5854005 3.6567993,6.6248996 3.332703,6.633298 3.2222633,6.636158 3.1159574,6.636188 3.0964679,6.6333689 Z"
     id="path1565" />
  <path
     style="fill:#00e2c1;fill-opacity:1;stroke:none;stroke-width:0.0118118"
     d="m 7.7890205,5.7519577 c -0.01629,-0.024532 -0.011486,-0.035034 0.081242,-0.17756 0.054205,-0.083316 0.098555,-0.1530797 0.098555,-0.1550294 0,-0.00196 -0.054482,-0.013306 -0.1210707,-0.025236 -0.066589,-0.01193 -0.1226508,-0.022815 -0.1245822,-0.024191 -0.00193,-0.00138 0.041895,-0.07622 0.097393,-0.1663216 0.055498,-0.090101 0.102258,-0.1689838 0.1039116,-0.1752936 0.00167,-0.00631 -0.040845,-0.019045 -0.09444,-0.028301 -0.053596,-0.00926 -0.097447,-0.021196 -0.097447,-0.026532 0,-0.00534 0.044794,-0.078554 0.099542,-0.1627053 0.1060622,-0.163023 0.1066109,-0.166683 0.024992,-0.166683 -0.021394,0 -0.054751,-0.00317 -0.074126,-0.00705 L 7.7477624,4.630013 7.8219659,4.4954652 C 7.8627779,4.4214639 7.8925829,4.3587865 7.8881996,4.356182 7.8838154,4.353589 7.8390363,4.3423469 7.7886887,4.3312265 7.7383411,4.3201034 7.6972201,4.3048951 7.697309,4.2974259 7.6978911,4.2489241 7.723843,4.2211423 7.8710596,4.1114675 7.9586073,4.0462453 8.02837,3.9910149 8.0260882,3.9887331 8.0238128,3.9864577 7.9696939,3.9713183 7.9058385,3.955103 7.8419832,3.9388893 7.786657,3.922541 7.7828914,3.9187755 c -0.00376,-0.00377 -4.233e-4,-0.028324 0.00745,-0.054575 0.00991,-0.033073 0.040805,-0.074234 0.1006203,-0.1340488 0.3592287,-0.3592287 1.0624764,-0.5522004 1.6400967,-0.4500438 0.3760719,0.066511 0.6781336,0.2270236 0.8847466,0.470145 0.09336,0.1098521 0.144326,0.1940259 0.184817,0.3052181 0.02825,0.077581 0.03143,0.1020648 0.03037,0.2342816 -9.79e-4,0.1234562 -0.0063,0.1646463 -0.03245,0.2514023 -0.06702,0.2223297 -0.17144,0.3959606 -0.329254,0.5474679 C 9.9827296,5.3637378 9.49341,5.5096214 8.9854036,5.4713965 8.6596322,5.4468828 8.4038219,5.371647 8.1966288,5.2394085 8.1627614,5.217792 8.1328846,5.203903 8.1302356,5.2085417 c -0.00265,0.00464 -0.01923,0.053614 -0.036847,0.1088339 -0.049534,0.1552636 -0.095163,0.2402002 -0.1907117,0.355001 -0.048366,0.058112 -0.08983,0.1056577 -0.092141,0.1056577 -0.0023,0 -0.011994,-0.011734 -0.021516,-0.026075 z"
     id="path1567" />
</svg>
