<?xml version="1.0" encoding="UTF-8" standalone="no"?>
<svg
   xmlns:dc="http://purl.org/dc/elements/1.1/"
   xmlns:cc="http://creativecommons.org/ns#"
   xmlns:rdf="http://www.w3.org/1999/02/22-rdf-syntax-ns#"
   xmlns:svg="http://www.w3.org/2000/svg"
   xmlns="http://www.w3.org/2000/svg"
   xmlns:sodipodi="http://sodipodi.sourceforge.net/DTD/sodipodi-0.dtd"
   xmlns:inkscape="http://www.inkscape.org/namespaces/inkscape"
   inkscape:version="1.0 (4035a4fb49, 2020-05-01)"
   sodipodi:docname="ScrewTap.svg"
   width="48"
   height="48"
   viewBox="0 0 12.7 12.7"
   version="1.1"
   id="svg8">
  <sodipodi:namedview
     inkscape:current-layer="svg8"
     inkscape:window-maximized="1"
     inkscape:window-y="0"
     inkscape:window-x="0"
     inkscape:cy="13.421863"
     inkscape:cx="16.099744"
     inkscape:zoom="8.75"
     showgrid="false"
     id="namedview971"
     inkscape:window-height="1027"
     inkscape:window-width="1920"
     inkscape:pageshadow="2"
     inkscape:pageopacity="0"
     guidetolerance="10"
     gridtolerance="10"
     objecttolerance="10"
     borderopacity="1"
     bordercolor="#666666"
     pagecolor="#ffffff" />
  <defs
     id="defs2" />
  <metadata
     id="metadata5">
    <rdf:RDF>
      <cc:Work
         rdf:about="">
        <dc:format>image/svg+xml</dc:format>
        <dc:type
           rdf:resource="http://purl.org/dc/dcmitype/StillImage" />
        <dc:title />
      </cc:Work>
    </rdf:RDF>
  </metadata>
  <g
     transform="matrix(1.1007267,0,0,1.1007267,-0.64874884,-0.63797432)"
     id="layer2"
     style="display:inline">
    <path
       style="fill:none;stroke:#000000;stroke-width:0.3;stroke-linecap:butt;stroke-linejoin:miter;stroke-miterlimit:4;stroke-dasharray:none;stroke-opacity:1"
       d="m 3.1069102,11.848907 c 0,0 -0.3006285,-0.266876 -0.3646998,-0.287926 -0.064071,-0.02105 -0.2489117,-0.128228 -0.2489117,-0.128228 0,0 -0.086293,-0.04229 -0.098061,-0.01613 -0.011767,0.02616 -0.096636,0.08066 -0.096636,0.08066 0,0 -0.1606156,-0.102781 -0.2156203,-0.160888 -0.055006,-0.05811 -0.1427828,-0.145599 -0.1427828,-0.145599 0,0 0.039705,-0.0545 0.022477,-0.09159 C 1.9454465,11.062108 1.8258991,10.860713 1.7156367,10.740069 1.6053743,10.619425 1.4747258,10.48632 1.4619926,10.471285 1.4492594,10.45625 1.34391,10.370393 1.2951706,10.338189 c -0.04874,-0.0322 -0.1249894,-0.09763 -0.1249894,-0.09763 M 4.9014864,5.5773234 c 0,0 0.059276,-0.024868 0.1224396,-0.00577 0.063163,0.019106 0.1544381,0.025061 0.1544381,0.025061 0,0 0.048261,0.032442 0.2974864,-0.2263508 C 5.7250761,5.1114758 6.7265758,4.0499289 6.7265758,4.0499289 L 9.5374962,0.98462982 c 0,0 0.1393047,-0.15397755 0.2023184,-0.12604697 0.063014,0.0279306 0.1012002,0.0423837 0.1012002,0.0423837 L 10.820976,1.3750407 c 0,0 0.06888,0.035822 0.128656,0.087141 0.05978,0.051319 0.120627,0.1278186 0.120627,0.1278186 l 0.571375,1.0607816 c 0,0 0.03776,0.054791 0.0045,0.098603 -0.03324,0.043812 -0.07945,0.097248 -0.07945,0.097248 L 7.5557868,7.1944588 c 0,0 -0.2729246,0.2286388 -0.2714281,0.4378232"
       id="path968" />
    <path
       style="fill:none;stroke:#000000;stroke-width:0.3;stroke-linecap:butt;stroke-linejoin:miter;stroke-miterlimit:4;stroke-dasharray:none;stroke-opacity:1"
       d="m 1.2452927,10.255803 0.4869222,0.242058 c 0,0 0.035781,0.02017 0.1384304,0.04501 0.102649,0.02484 0.1413614,0.02238 0.1413614,0.02238 0,0 0.025733,-0.0104 0.019765,-0.04063 -0.00597,-0.03023 0.1301118,0.06911 0.1301118,0.06911 l 0.2422792,0.200879 c 0,0 -0.032728,0.02944 -0.015615,0.0856 0.017113,0.05617 0.1668111,0.270566 0.1668111,0.270566 0,0 0.1183859,0.130842 0.1365985,0.154972 0.018211,0.02413 0.1486236,0.307196 0.1486236,0.307196"
       id="path970" />
    <path
       style="fill:none;stroke:#000000;stroke-width:0.3;stroke-linecap:butt;stroke-linejoin:miter;stroke-miterlimit:4;stroke-dasharray:none;stroke-opacity:1"
       d="M 2.4041627,10.79461 6.3837581,6.9861032 c 0,0 0.1817709,-0.1514435 0.3236711,-0.2253271 0.1419003,-0.073884 0.5741554,-0.2319454 0.5741554,-0.2319454 0,0 0.1674429,-0.00569 0.1945246,0.026876 0.027082,0.032568 0.029041,0.090371 0.029041,0.090371 0,0 0.026623,0.067912 -0.083828,0.2485258 -0.1104503,0.180614 -0.1467491,0.7459683 -0.1467491,0.7459683"
       id="path972" />
    <path
       style="fill:none;stroke:#000000;stroke-width:0.3;stroke-linecap:butt;stroke-linejoin:miter;stroke-miterlimit:4;stroke-dasharray:none;stroke-opacity:1"
       d="m 5.1967412,5.6263481 c 0,0 0.3395179,-0.1585793 0.4515988,-0.1993463 0.1120807,-0.040767 0.1779135,-0.058485 0.1779135,-0.058485 0,0 0.045568,-0.00973 0.071256,0.012107 0.025688,0.021836 0.019439,0.083888 0.019439,0.083888 L 5.8336021,5.8055134 5.5562132,6.1739152 2.287292,9.9852598 2.0120064,10.56525"
       id="path974" />
    <path
       style="fill:none;stroke:#000000;stroke-width:0.3;stroke-linecap:butt;stroke-linejoin:miter;stroke-miterlimit:4;stroke-dasharray:none;stroke-opacity:1"
       d="M 5.6717241,6.0382184 6.5527538,6.8251675"
       id="path976" />
    <path
       style="fill:none;stroke:#000000;stroke-width:0.3;stroke-linecap:butt;stroke-linejoin:miter;stroke-miterlimit:4;stroke-dasharray:none;stroke-opacity:1"
       d="M 5.3212867,6.4534845 6.2036181,7.1644472"
       id="path978" />
    <path
       style="fill:none;stroke:#000000;stroke-width:0.3;stroke-linecap:butt;stroke-linejoin:miter;stroke-miterlimit:4;stroke-dasharray:none;stroke-opacity:1"
       d="m 4.955219,6.9201177 c 0.016362,0 0.7726548,0.6364558 0.7726548,0.6364558"
       id="path980" />
    <path
       style="fill:none;stroke:#000000;stroke-width:0.3;stroke-linecap:butt;stroke-linejoin:miter;stroke-miterlimit:4;stroke-dasharray:none;stroke-opacity:1"
       d="M 4.5324066,7.3508247 5.3500146,7.974921"
       id="path982" />
    <path
       style="fill:none;stroke:#000000;stroke-width:0.3;stroke-linecap:butt;stroke-linejoin:miter;stroke-miterlimit:4;stroke-dasharray:none;stroke-opacity:1"
       d="M 4.1664284,7.8002317 4.9008955,8.374936"
       id="path984" />
    <path
       style="fill:none;stroke:#000000;stroke-width:0.3;stroke-linecap:butt;stroke-linejoin:miter;stroke-miterlimit:4;stroke-dasharray:none;stroke-opacity:1"
       d="M 3.7715658,8.2828219 4.437136,8.8058513"
       id="path986" />
    <path
       style="fill:none;stroke:#000000;stroke-width:0.3;stroke-linecap:butt;stroke-linejoin:miter;stroke-miterlimit:4;stroke-dasharray:none;stroke-opacity:1"
       d="M 3.4000215,8.7143073 4.0434061,9.2060928"
       id="path988" />
    <path
       style="fill:none;stroke:#000000;stroke-width:0.3;stroke-linecap:butt;stroke-linejoin:miter;stroke-miterlimit:4;stroke-dasharray:none;stroke-opacity:1"
       d="M 3.0101143,9.1693914 3.6270345,9.6153752"
       id="path990" />
    <path
       style="fill:none;stroke:#000000;stroke-width:0.3;stroke-linecap:butt;stroke-linejoin:miter;stroke-miterlimit:4;stroke-dasharray:none;stroke-opacity:1"
       d="M 2.6727076,9.5984239 3.2146052,9.9866285"
       id="path992" />
    <path
       style="fill:none;stroke:#000000;stroke-width:0.3;stroke-linecap:butt;stroke-linejoin:miter;stroke-miterlimit:4;stroke-dasharray:none;stroke-opacity:1"
       d="M 2.287292,9.9852598 2.8388132,10.401945"
       id="path994" />
    <path
       style="fill:none;stroke:#000000;stroke-width:0.3;stroke-linecap:butt;stroke-linejoin:miter;stroke-miterlimit:4;stroke-dasharray:none;stroke-opacity:1"
       d="m 7.2639624,7.5459367 -0.032833,0.4579546 -0.4034901,-0.00808 0.032763,0.3742637 -0.4304694,0.057655 0.00516,0.3624492 -0.4163362,0.046274 0.014047,0.3510891 -0.4525563,0.05187 -0.018148,0.4130712 -0.4399794,0.031886 0.013137,0.3897315 -0.4141324,0.05428 -0.0047,0.359429 -0.4156805,0.03762 0.020288,0.352931 -0.404569,0.02541 -0.027036,0.400913 -0.9418053,0.528282"
       id="path1018" />
    <path
       style="fill:none;stroke:#000000;stroke-width:0.3;stroke-linecap:butt;stroke-linejoin:miter;stroke-miterlimit:4;stroke-dasharray:none;stroke-opacity:1"
       d="m 4.9734324,5.5643404 -0.5669328,0.1694584 0.021529,0.4110824 -0.4100396,0.070708 0.00503,0.40478 -0.4028154,0.08851 0.023929,0.3786116 -0.3853725,0.069613 0.049465,0.4072906 -0.4044313,0.032902 0.00985,0.3751948 -0.3422059,0.036966 -0.013436,0.3536757 -0.3373817,0.081372 0.017274,0.3590737 -0.3578365,0.063256 0.024893,0.3805745 -0.3815917,0.061766 -0.3007357,1.0409919"
       id="path1020" />
    <path
       style="fill:none;stroke:#000000;stroke-width:0.3;stroke-linecap:butt;stroke-linejoin:miter;stroke-miterlimit:4;stroke-dasharray:none;stroke-opacity:1"
       d="M 10.702817,1.3347954 9.2252222,2.9464727 c 0,0 -0.089615,0.1061739 -0.2040226,0.072365 C 8.9067922,2.9850283 8.1224251,2.6045266 8.1224251,2.6045266"
       id="path1022" />
    <path
       style="fill:none;stroke:#000000;stroke-width:0.3;stroke-linecap:butt;stroke-linejoin:miter;stroke-miterlimit:4;stroke-dasharray:none;stroke-opacity:1"
       d="m 11.094303,1.6628035 -1.4500144,1.59877 c 0,0 -0.1620554,0.1292003 -0.090166,0.3252782 0.071889,0.1960777 0.4808814,0.8454612 0.4808814,0.8454612"
       id="path1024" />
    <path
       style="fill:#f6a400;fill-opacity:1;stroke:none;stroke-width:0.0883883"
       d="m 37.661891,15.863902 c -0.823034,-1.329822 -1.318483,-2.280392 -1.363499,-2.616015 -0.04523,-0.337205 -0.02161,-0.374652 0.825525,-1.309046 0.479647,-0.52905 1.743582,-1.924052 2.808744,-3.1000034 1.065162,-1.1759513 1.966242,-2.1198094 2.0024,-2.0974624 0.03616,0.022347 0.471855,0.7997298 0.968216,1.7275172 0.688452,1.28684 0.884344,1.7256416 0.826027,1.8503066 -0.06535,0.139693 -5.586331,6.185519 -5.64855,6.185519 -0.01224,0 -0.200731,-0.288367 -0.418863,-0.640816 z"
       id="path1026"
       transform="scale(0.26458333)" />
    <path
       style="fill:#f6a400;fill-opacity:1;stroke:none;stroke-width:0.0883883"
       d="M 32.609717,10.493653 C 31.786258,10.106188 31.07594,9.7525928 31.031233,9.7078858 30.923068,9.59972 36.507664,3.5116306 36.71505,3.5116306 c 0.126559,0 3.234881,1.4383294 3.343883,1.5473312 0.05161,0.051606 -5.456217,6.0314452 -5.609552,6.0902852 -0.235914,0.09053 -0.310321,0.06401 -1.839664,-0.655594 z"
       id="path1028"
       transform="scale(0.26458333)" />
    <path
       style="fill:#ffaa00;fill-opacity:1;stroke:none;stroke-width:0.0869291;stroke-miterlimit:4;stroke-dasharray:none"
       d="m 27.921042,27.241502 c 0.112817,-0.504498 0.245318,-0.884525 0.452698,-1.29839 0.436265,-0.870647 0.206629,-1.483443 -0.555899,-1.483443 -0.394305,0 -2.160522,0.622722 -2.657136,0.936837 -0.10767,0.0681 -0.229636,0.123823 -0.271035,0.123823 -0.09016,0 -3.055874,-2.629268 -3.098215,-2.746743 -0.01621,-0.04499 0.08805,-0.230924 0.231708,-0.413195 0.293562,-0.372476 0.61255,-1.613254 0.514837,-2.002575 -0.08193,-0.326445 -0.404671,-0.376223 -1.005136,-0.155027 -0.274808,0.101231 -0.510108,0.1736 -0.522889,0.160819 -0.01278,-0.01278 0.915775,-1.015528 2.063458,-2.228327 1.147683,-1.212798 3.161424,-3.378443 4.474981,-4.812544 1.313556,-1.434101 2.531755,-2.756693 2.707108,-2.939094 l 0.318823,-0.331638 1.629168,0.762249 c 1.802888,0.843528 2.158479,0.939195 2.548155,0.685546 0.140094,-0.09119 1.500846,-1.5256553 3.023895,-3.1876998 l 2.769178,-3.0218991 0.249137,0.1288336 c 0.297772,0.1539841 0.870242,0.6447197 0.870242,0.7459942 0,0.039503 -1.236224,1.4318085 -2.747162,3.0940127 -1.510939,1.6622044 -2.823358,3.1471474 -2.916485,3.2998744 -0.371123,0.60863 -0.188405,1.147547 1.127572,3.325724 l 0.613291,1.015105 -4.742033,5.127885 c -2.608118,2.820336 -4.830905,5.206353 -4.939527,5.30226 l -0.197494,0.174377 z"
       id="path1030"
       transform="scale(0.26458333)" />
    <path
       style="fill:#ffaa00;fill-opacity:1;stroke:none;stroke-width:0.0883883"
       d="m 21.925378,25.549983 -1.478902,-1.186034 0.503649,-0.612213 0.503648,-0.612214 0.360358,0.329249 c 0.198197,0.181087 0.867486,0.781613 1.487309,1.334501 0.619824,0.552889 1.126952,1.011109 1.126952,1.018268 0,0.0072 -0.230425,0.215845 -0.512055,0.463747 l -0.512056,0.450729 z"
       id="path1032"
       transform="scale(0.26458333)" />
    <path
       style="fill:#f6a400;fill-opacity:1;stroke:none;stroke-width:0.0883883"
       d="m 6.8391107,39.535846 c -0.2399029,-0.08853 -1.7493822,-0.814769 -1.828293,-0.879625 -0.066436,-0.0546 0.935059,-3.19254 1.036539,-3.247739 0.070863,-0.03854 0.4150443,-0.114653 0.7648479,-0.169128 l 0.6360066,-0.09904 -0.051596,-0.731119 -0.051596,-0.731119 0.4762494,-0.06214 c 0.9573564,-0.12492 0.9054133,-0.07302 0.8458712,-0.845148 l -0.05238,-0.679249 0.6589712,-0.155353 0.6589713,-0.155353 v -0.64336 -0.64336 l 0.4100847,-0.05621 c 0.225546,-0.03091 0.526384,-0.05621 0.668528,-0.05621 h 0.258445 l -0.01979,-0.729204 -0.01978,-0.729204 0.30143,-0.02204 c 0.165787,-0.01213 0.514049,-0.04529 0.773916,-0.07371 l 0.472484,-0.05166 -0.04797,-0.279847 c -0.02638,-0.153915 -0.07386,-0.503082 -0.105499,-0.775926 l -0.05753,-0.496079 0.727838,-0.113224 0.727838,-0.113225 -0.05621,-0.731304 -0.05621,-0.731304 0.419799,-0.08878 c 0.230888,-0.04883 0.568953,-0.116212 0.751253,-0.149734 l 0.331456,-0.06095 V 24.45783 23.680158 l 0.640816,-0.102941 c 1.001416,-0.160867 0.921233,-0.07354 0.87898,-0.957308 l -0.0372,-0.77799 0.962838,-0.290182 c 0.882105,-0.26585 1.004873,-0.282411 1.464159,-0.197508 0.480893,0.0889 0.529222,0.07978 1.186149,-0.223737 0.897842,-0.414828 1.62177,-0.660876 1.62177,-0.551206 0,0.04816 -0.06596,0.35427 -0.146588,0.680249 -0.118188,0.477863 -0.257675,0.737467 -0.719975,1.339974 -0.315364,0.411006 -3.327569,3.954702 -6.693789,7.87488 L 8.4495414,37.601972 7.9598296,38.632219 C 7.4325822,39.741431 7.4211614,39.75064 6.8391107,39.535846 Z"
       id="path1034"
       transform="scale(0.26458333)" />
    <path
       style="fill:#f6a400;fill-opacity:1;stroke:none;stroke-width:0.0883883"
       d="M 11.203876,44.013055 C 11.052284,43.880762 10.80769,43.513987 10.660334,43.197999 10.512978,42.88201 10.215445,42.412329 9.9991503,42.154262 9.7828551,41.896196 9.5189986,41.530454 9.4128025,41.341504 L 9.2197187,40.997958 16.757764,33.780244 c 4.145925,-3.969742 7.788766,-7.397557 8.095203,-7.617366 0.674664,-0.48394 2.581562,-1.281755 2.972328,-1.243574 0.360345,0.03521 0.391226,0.280505 0.106137,0.8431 -0.357993,0.706465 -0.612256,1.910861 -0.751269,3.558624 l -0.05593,0.662913 -0.782281,0.02567 -0.782282,0.02567 0.06116,0.690872 0.06116,0.690872 -0.251147,0.0501 c -0.13813,0.02755 -0.499738,0.07817 -0.803573,0.11247 l -0.552428,0.06237 v 0.687011 0.687011 l -0.552427,0.05752 c -0.303835,0.03164 -0.661047,0.07831 -0.793805,0.103719 l -0.241379,0.0462 0.05437,0.643176 0.05437,0.643175 -0.826627,0.106011 c -0.454645,0.05831 -0.842097,0.121481 -0.861004,0.140388 -0.01891,0.01891 -0.05562,0.374838 -0.08158,0.790958 l -0.0472,0.75658 -0.363192,7.96e-4 c -0.199755,4.42e-4 -0.574765,0.02618 -0.833355,0.05723 l -0.470163,0.05646 0.02822,0.728949 0.02822,0.728949 -0.773398,0.105472 -0.773398,0.105472 v 0.65346 c 0,0.745986 0.06773,0.692563 -1.005465,0.793113 l -0.607717,0.05694 0.0415,0.646709 0.0415,0.64671 -0.715418,0.06274 c -0.393479,0.0345 -0.744639,0.107702 -0.780354,0.162659 -0.03572,0.05493 -0.06616,0.378317 -0.06764,0.718612 -0.0015,0.340295 -0.03193,0.660946 -0.06765,0.712557 -0.04981,0.07197 -2.694149,1.599119 -2.932374,1.69349 -0.02716,0.01076 -0.173409,-0.08868 -0.325002,-0.220971 z"
       id="path1036"
       transform="scale(0.26458333)" />
    <path
       style="fill:#d38c00;fill-opacity:1;stroke:none;stroke-width:0.0883883"
       d="M 9.7961945,43.153123 C 9.4380813,42.933138 8.9254433,42.86331 8.8278485,43.021222 8.7242507,43.188847 8.5361902,43.108335 8.0861071,42.703672 7.7574708,42.4082 7.6346058,42.233617 7.6346058,42.062119 c 0,-0.286864 -0.5612555,-1.164357 -1.1790968,-1.843455 -0.2677029,-0.294245 -0.3830709,-0.471747 -0.279311,-0.429741 0.4531585,0.183459 1.0083421,0.324455 1.3836585,0.3514 0.3232292,0.0232 0.498434,0.102296 0.8175923,0.369079 0.2496201,0.208657 0.4062055,0.412229 0.4062055,0.528096 0,0.205653 0.5196992,1.055193 0.9444712,1.543904 0.2832865,0.325927 0.5060615,0.698129 0.4508805,0.753309 -0.01825,0.01825 -0.1905163,-0.06346 -0.3828115,-0.181588 z"
       id="path1038"
       transform="scale(0.26458333)" />
    <path
       style="fill:#ffaa00;fill-opacity:1;stroke:none;stroke-width:0.0883883"
       d="m 8.5106039,40.037032 -0.4940213,-0.406045 0.3526471,-0.772058 0.3526471,-0.772058 0.7600926,0.573327 c 0.4180509,0.315329 0.7600926,0.606335 0.7600926,0.646679 0,0.07183 -1.1464592,1.158293 -1.2067942,1.143641 -0.016853,-0.0041 -0.2529522,-0.190161 -0.5246639,-0.413486 z"
       id="path1040"
       transform="scale(0.26458333)" />
    <path
       style="fill:#ffaa00;fill-opacity:1;stroke:none;stroke-width:0.0883883"
       d="M 9.8443145,38.369617 C 9.4310989,38.053458 9.0799168,37.758086 9.0639097,37.713235 c -0.03525,-0.09877 0.8602301,-1.144363 0.9800713,-1.144363 0.06298,0 1.437233,0.955162 1.739928,1.209319 0.04436,0.03725 -1.069126,1.180162 -1.141546,1.171714 -0.02571,-0.003 -0.384833,-0.264129 -0.7980485,-0.580288 z"
       id="path1042"
       transform="scale(0.26458333)" />
    <path
       style="fill:#ffaa00;fill-opacity:1;stroke:none;stroke-width:0.0883883"
       d="m 11.258528,36.825517 c -0.461829,-0.337805 -0.839689,-0.650059 -0.839689,-0.693897 0,-0.103947 0.863735,-1.152278 0.950059,-1.153104 0.0906,-8.68e-4 1.922562,1.332336 1.922562,1.399139 0,0.09699 -1.008929,1.075244 -1.102088,1.068577 -0.05014,-0.0036 -0.469015,-0.28291 -0.930844,-0.620715 z"
       id="path1044"
       transform="scale(0.26458333)" />
    <path
       style="fill:#ffaa00;fill-opacity:1;stroke:none;stroke-width:0.0883883"
       d="m 12.754869,35.36414 c -0.506999,-0.365295 -0.956819,-0.698295 -0.999599,-0.74 -0.04418,-0.04307 0.172506,-0.362808 0.501584,-0.740127 l 0.579368,-0.6643 1.064866,0.811568 1.064865,0.811568 -0.329013,0.340182 c -0.180958,0.187099 -0.471043,0.453829 -0.644634,0.592731 l -0.31562,0.25255 z"
       id="path1046"
       transform="scale(0.26458333)" />
    <path
       style="fill:#ffaa00;fill-opacity:1;stroke:none;stroke-width:0.0883883"
       d="m 14.264945,33.725907 c -0.55839,-0.425525 -1.027364,-0.810012 -1.042166,-0.854418 -0.02541,-0.07624 0.926991,-1.252364 1.01414,-1.252364 0.06723,0 2.236522,1.717802 2.236522,1.771036 0,0.027 -0.26848,0.287664 -0.596622,0.579257 l -0.596621,0.530169 z"
       id="path1048"
       transform="scale(0.26458333)" />
    <path
       style="fill:#ffaa00;fill-opacity:1;stroke:none;stroke-width:0.0883883"
       d="m 15.695218,32.149057 c -0.59817,-0.479211 -1.088682,-0.896663 -1.090028,-0.927671 -0.004,-0.09167 1.090575,-1.370028 1.173039,-1.370028 0.04155,0 0.606585,0.419161 1.25563,0.931468 l 1.180081,0.931468 -0.677722,0.659522 c -0.372748,0.362738 -0.694754,0.6566 -0.71557,0.653028 -0.02082,-0.0036 -0.52726,-0.398576 -1.12543,-0.877787 z"
       id="path1050"
       transform="scale(0.26458333)" />
    <path
       style="fill:#ffaa00;fill-opacity:1;stroke:none;stroke-width:0.0883883"
       d="m 17.430273,30.504172 c -0.599178,-0.467383 -1.145571,-0.90282 -1.214206,-0.967637 -0.106294,-0.100381 -0.04899,-0.206971 0.386588,-0.719105 0.281259,-0.330691 0.542215,-0.613175 0.579902,-0.627743 0.03769,-0.01457 0.65113,0.420086 1.363207,0.965896 l 1.294685,0.992383 -0.598377,0.602997 c -0.329107,0.331648 -0.626278,0.602997 -0.66038,0.602997 -0.0341,0 -0.552241,-0.382404 -1.151419,-0.849788 z"
       id="path1052"
       transform="scale(0.26458333)" />
    <path
       style="fill:#ffaa00;fill-opacity:1;stroke:none;stroke-width:0.0883883"
       d="M 18.883487,28.824057 C 17.771924,27.979752 17.551601,27.77584 17.620561,27.6552 c 0.04594,-0.08037 0.313763,-0.393948 0.595157,-0.696834 l 0.511625,-0.550701 1.049234,0.884518 c 0.577079,0.486485 1.182869,0.994672 1.346202,1.129304 l 0.296967,0.244785 -0.5949,0.590254 -0.594901,0.590254 z"
       id="path1054"
       transform="scale(0.26458333)" />
    <path
       style="fill:#ffaa00;fill-opacity:1;stroke:none;stroke-width:0.0883883"
       d="m 20.406722,27.226191 c -0.729204,-0.608959 -1.336254,-1.133971 -1.348999,-1.166693 -0.04216,-0.108227 1.05583,-1.335091 1.145337,-1.279772 0.04824,0.02982 0.717251,0.561247 1.48668,1.180957 l 1.398961,1.126744 -0.412912,0.389112 c -0.227101,0.214011 -0.532236,0.494352 -0.678077,0.62298 l -0.265165,0.23387 z"
       id="path1056"
       transform="scale(0.26458333)" />
  </g>
</svg>
