<?xml version="1.0" encoding="UTF-8" standalone="no"?>
<!-- Created with Inkscape (http://www.inkscape.org/) -->

<svg
   xmlns:dc="http://purl.org/dc/elements/1.1/"
   xmlns:cc="http://creativecommons.org/ns#"
   xmlns:rdf="http://www.w3.org/1999/02/22-rdf-syntax-ns#"
   xmlns:svg="http://www.w3.org/2000/svg"
   xmlns="http://www.w3.org/2000/svg"
   xmlns:sodipodi="http://sodipodi.sourceforge.net/DTD/sodipodi-0.dtd"
   xmlns:inkscape="http://www.inkscape.org/namespaces/inkscape"
   width="48"
   height="48"
   viewBox="0 0 48.000001 48.000001"
   id="svg15825"
   version="1.1"
   inkscape:version="0.91 r13725"
   sodipodi:docname="ScrewTap.svg">
  <defs
     id="defs15827" />
  <sodipodi:namedview
     id="base"
     pagecolor="#ffffff"
     bordercolor="#666666"
     borderopacity="1.0"
     inkscape:pageopacity="0.0"
     inkscape:pageshadow="2"
     inkscape:zoom="12.625"
     inkscape:cx="24"
     inkscape:cy="24"
     inkscape:document-units="px"
     inkscape:current-layer="layer1"
     showgrid="false"
     units="px"
     inkscape:window-width="1260"
     inkscape:window-height="787"
     inkscape:window-x="184"
     inkscape:window-y="87"
     inkscape:window-maximized="0" />
  <metadata
     id="metadata15830">
    <rdf:RDF>
      <cc:Work
         rdf:about="">
        <dc:format>image/svg+xml</dc:format>
        <dc:type
           rdf:resource="http://purl.org/dc/dcmitype/StillImage" />
        <dc:title></dc:title>
      </cc:Work>
    </rdf:RDF>
  </metadata>
  <g
     inkscape:label="Layer 1"
     inkscape:groupmode="layer"
     id="layer1"
     transform="translate(0,-1004.3622)">
    <g
       id="g8532"
       transform="matrix(0.92652506,0,0,0.92652506,1.1029049,78.08773)">
      <path
         sodipodi:nodetypes="cccccccccccccccc"
         inkscape:connector-curvature="0"
         id="path8530"
         d="m 9.5841584,1035.0157 c -1.9788984,-1.4988 -3.7392979,-4.4301 -2.3762376,-7.0495 -0.7412208,-1.9071 -0.6950689,-2.9975 0.1584158,-4.5149 -0.5385782,-1.4851 -1.0369412,-1.9932 -0.079208,-4.198 -1.1465479,-2.4962 -0.083417,-5.6995 1.7032969,-7.1976 2.7579205,-2.1132 8.1557875,-3.9604 12.8709605,-4.9212 4.520932,-0.4104 10.551465,0.5961 13.782178,2.2178 3.230713,1.6217 4.438485,3.2444 5.544555,5.3861 1.10607,2.1417 1.712026,3.7443 1.029703,6.6535 0.483125,1.6143 0.605452,2.6901 -0.237624,4.5149 0.613734,0.9507 0.749568,2.7234 0.237624,4.6732 0.556383,1.3671 0.90256,2.2834 -0.39604,4.6733 -1.363347,3.1021 -5.237458,5.4819 -9.188119,7.1287 -3.918288,1.0965 -10.169263,0.9704 -13.861386,0.079 -3.433135,-1.3447 -4.885491,-2.0467 -6.787718,-3.5037 -1.384249,-1.5542 -1.781192,-2.2162 -2.4004006,-3.9416 z"
         style="opacity:1;fill:#ffaa00;fill-opacity:1;fill-rule:evenodd;stroke:none;stroke-width:0.75;stroke-linecap:round;stroke-linejoin:round;stroke-miterlimit:4;stroke-dasharray:none;stroke-dashoffset:0;stroke-opacity:1" />
      <path
         inkscape:connector-curvature="0"
         id="path4783"
         d="m 37.334294,1040.241 c 2.312261,-1.4659 3.643538,-3.0365 4.412372,-4.4828 0.60402,-1.1506 0.877767,-2.2497 0.912478,-3.3376 0.03535,-0.9451 -0.135064,-1.9064 -0.511231,-2.8839"
         style="fill:none;stroke:#000000;stroke-width:0.75;stroke-linecap:round;stroke-linejoin:miter;stroke-miterlimit:4;stroke-dasharray:none" />
      <path
         inkscape:connector-curvature="0"
         id="path4785"
         d="m 7.393236,1027.443 c -0.3462331,0.7113 -0.5475133,1.4044 -0.6038404,2.0793 -0.085555,0.8227 0.029263,1.6565 0.3377718,2.5012 0.371802,0.9842 1.028536,2.0288 2.2292543,3.1072 0.9778073,0.8716 2.3416303,1.7739 4.1777033,2.5305 1.828165,0.757 4.127282,1.3731 6.66486,1.651 3.147542,0.3635 6.623541,0.1691 9.643505,-0.482 3.038029,-0.6412 5.623091,-1.7409 7.494899,-2.9279"
         style="fill:none;stroke:#000000;stroke-width:0.75;stroke-linecap:round;stroke-linejoin:miter;stroke-miterlimit:4;stroke-dasharray:none" />
      <path
         inkscape:connector-curvature="0"
         id="path4787"
         d="m 36.121832,1023.585 c -1.742869,0.9285 -3.949451,1.7484 -6.439557,2.2614 -2.481723,0.5204 -5.246969,0.734 -7.889921,0.5783 -2.70752,-0.147 -5.258991,-0.6829 -7.311197,-1.4169 -2.064955,-0.7349 -3.628873,-1.6649 -4.7470476,-2.5741 -1.3608228,-1.1169 -2.1045016,-2.2136 -2.5309704,-3.2357 -0.3435486,-0.8573 -0.4874774,-1.6948 -0.4291924,-2.5222 0.055564,-0.8462 0.2960999,-1.7052 0.813318,-2.6094 0.6685877,-1.1593 1.8130959,-2.4297 3.8492184,-3.6298 1.507502,-0.8826 3.547049,-1.7083 5.974707,-2.2302"
         style="fill:none;stroke:#000000;stroke-width:0.75;stroke-linecap:round;stroke-linejoin:miter;stroke-miterlimit:4;stroke-dasharray:none" />
      <path
         inkscape:connector-curvature="0"
         id="path4789"
         d="m 40.912074,1014.3426 c 0.403648,0.5362 0.729031,1.0643 0.976147,1.5844 0.547382,1.1324 0.777681,2.2187 0.772834,3.3016 -0.0066,1.0799 -0.249205,2.1692 -0.806722,3.3012 -0.754058,1.5073 -2.098177,3.1548 -4.520434,4.6924"
         style="fill:none;stroke:#000000;stroke-width:0.75;stroke-linecap:round;stroke-linejoin:miter;stroke-miterlimit:4;stroke-dasharray:none" />
      <path
         inkscape:connector-curvature="0"
         id="path4791"
         d="m 37.335644,1031.5622 c 2.31049,-1.469 3.641767,-3.0395 4.410601,-4.4858 0.605791,-1.1476 0.87647,-2.2449 0.912478,-3.3376 0.02595,-0.7842 -0.08656,-1.5744 -0.333176,-2.3771"
         style="fill:none;stroke:#000000;stroke-width:0.75;stroke-linecap:round;stroke-linejoin:miter;stroke-miterlimit:4;stroke-dasharray:none" />
      <path
         inkscape:connector-curvature="0"
         id="path4793"
         d="m 7.1995957,1019.1918 c -0.5654502,1.423 -0.5815539,2.7416 -0.072919,4.154 0.371802,0.9842 1.0264575,2.0259 2.2310954,3.1061 0.9778069,0.8716 2.3398589,1.7709 4.1777039,2.5305 1.828164,0.7571 4.127282,1.3731 6.663088,1.6479 3.149313,0.3666 6.622244,0.174 9.642208,-0.4771 3.041097,-0.6429 5.624388,-1.7457 7.493127,-2.931"
         style="fill:none;stroke:#000000;stroke-width:0.75;stroke-linecap:round;stroke-linejoin:miter;stroke-miterlimit:4;stroke-dasharray:none" />
      <path
         inkscape:connector-curvature="0"
         id="path4795"
         d="m 37.337389,1035.9023 c 2.31049,-1.469 3.638698,-3.0378 4.410601,-4.4859 0.605791,-1.1476 0.87647,-2.2449 0.912478,-3.3376 0.03228,-0.9433 -0.138133,-1.9046 -0.512528,-2.8791"
         style="fill:none;stroke:#000000;stroke-width:0.75;stroke-linecap:round;stroke-linejoin:miter;stroke-miterlimit:4;stroke-dasharray:none" />
      <path
         inkscape:connector-curvature="0"
         id="path4797"
         d="m 7.3963314,1023.1042 c -0.3462332,0.7114 -0.549285,1.4014 -0.6086807,2.0781 -0.082486,0.8209 0.031104,1.6554 0.3407709,2.5036 0.3700303,0.981 1.0264575,2.0259 2.2262552,3.1048 0.9808762,0.8698 2.3446992,1.7721 4.1825442,2.5318 1.825096,0.7588 4.127282,1.373 6.663088,1.6478 3.147541,0.3636 6.622244,0.1741 9.642208,-0.4771 3.038029,-0.6411 5.624388,-1.7457 7.493127,-2.931"
         style="fill:none;stroke:#000000;stroke-width:0.75;stroke-linecap:round;stroke-linejoin:miter;stroke-miterlimit:4;stroke-dasharray:none" />
      <path
         inkscape:connector-curvature="0"
         id="path4799"
         d="m 37.334294,1040.241 q -0.657849,0.4125 -1.210323,0.7029"
         style="fill:none;stroke:#000000;stroke-width:0.75;stroke-linecap:round;stroke-linejoin:miter;stroke-miterlimit:4;stroke-dasharray:none" />
      <path
         inkscape:connector-curvature="0"
         id="path4803"
         d="m 37.239217,1039.7149 c 2.06029,-1.3 3.601087,-2.8974 4.435938,-4.6191 0.842759,-1.7222 0.981343,-3.5656 0.399527,-5.3245"
         style="fill:none;stroke:#000000;stroke-width:0.75;stroke-linecap:round;stroke-linejoin:miter;stroke-miterlimit:4;stroke-dasharray:none" />
      <path
         inkscape:connector-curvature="0"
         id="path4805"
         d="m 7.4598639,1027.6009 c -0.8771407,1.9957 -0.5020343,4.1563 1.0521741,6.0248 1.540846,1.868 4.247639,3.4311 7.588834,4.3497 3.33376,0.927 7.282562,1.2043 11.063267,0.7441 3.787792,-0.4481 7.380693,-1.6305 10.075105,-3.3416"
         style="fill:none;stroke:#000000;stroke-width:0.75;stroke-linecap:round;stroke-linejoin:miter;stroke-miterlimit:4;stroke-dasharray:none" />
      <path
         inkscape:connector-curvature="0"
         id="path4807"
         d="m 37.239217,1039.7149 c 0.168146,0.1566 0.221364,0.4614 0.09508,0.5261"
         style="fill:none;stroke:#000000;stroke-width:0.75;stroke-linecap:round;stroke-linejoin:miter;stroke-miterlimit:4;stroke-dasharray:none" />
      <path
         inkscape:connector-curvature="0"
         id="path4809"
         d="m 37.239244,1035.3779 c 0.166374,0.1536 0.222661,0.4566 0.09815,0.5244"
         style="fill:none;stroke:#000000;stroke-width:0.75;stroke-linecap:round;stroke-linejoin:miter;stroke-miterlimit:4;stroke-dasharray:none" />
      <path
         inkscape:connector-curvature="0"
         id="path4811"
         d="m 37.239495,1022.8988 c 1.532711,-1.0444 2.709931,-2.2724 3.406196,-3.6318 0.719388,-1.3972 0.926533,-2.9448 0.409226,-4.5282 -0.492029,-1.5325 -1.732711,-3.1074 -3.684044,-4.3825 -1.917452,-1.266 -4.452987,-2.1711 -6.979401,-2.6068"
         style="fill:none;stroke:#000000;stroke-width:0.75;stroke-linecap:round;stroke-linejoin:miter;stroke-miterlimit:4;stroke-dasharray:none" />
      <path
         inkscape:connector-curvature="0"
         id="path4813"
         d="m 11.004356,1012.3882 c 0.419694,-0.5983 0.986239,-1.1832 1.702704,-1.7564 0.680117,-0.544 1.471213,-1.0376 2.368446,-1.482 1.722117,-0.851 3.671446,-1.4078 5.497973,-1.7095 3.741348,-0.6135 7.059908,-0.3364 9.817993,0.3092"
         style="fill:none;stroke:#000000;stroke-width:0.75;stroke-linecap:round;stroke-linejoin:miter;stroke-miterlimit:4;stroke-dasharray:none" />
      <path
         inkscape:connector-curvature="0"
         id="path4815"
         d="m 24.711784,1025.8971 c -2.380409,-0.1191 -5.047284,-0.5146 -7.727204,-1.4714 -1.351413,-0.484 -2.678913,-1.125 -3.77342,-1.8515 -1.132406,-0.7495 -1.995692,-1.5645 -2.599978,-2.3489 -1.1745631,-1.5313 -1.4722532,-2.9469 -1.3574457,-4.2079 0.1349566,-1.3749 0.7800377,-2.582 1.7506197,-3.6292"
         style="fill:none;stroke:#000000;stroke-width:0.75;stroke-linecap:round;stroke-linejoin:miter;stroke-miterlimit:4;stroke-dasharray:none" />
      <path
         inkscape:connector-curvature="0"
         id="path4817"
         d="m 37.239495,1022.8988 q -0.498977,0.3618 -1.117663,0.6862"
         style="fill:none;stroke:#000000;stroke-width:0.75;stroke-linecap:round;stroke-linejoin:miter;stroke-miterlimit:4;stroke-dasharray:none" />
      <path
         inkscape:connector-curvature="0"
         id="path4819"
         d="m 36.121832,1023.585 c -0.858512,0.4548 -1.805224,0.8418 -2.748775,1.1493 -1.00894,0.3288 -2.005039,0.5807 -2.989592,0.7604 -1.015713,0.1896 -1.998749,0.3152 -2.949107,0.377 -0.953427,0.064 -1.884203,0.081 -2.722574,0.025"
         style="fill:none;stroke:#000000;stroke-width:0.75;stroke-linecap:round;stroke-linejoin:miter;stroke-miterlimit:4;stroke-dasharray:none" />
      <path
         inkscape:connector-curvature="0"
         id="path4821"
         d="m 35.205873,1024.1671 q 0.329984,-0.2151 0.638836,-0.4384"
         style="fill:none;stroke:#000000;stroke-width:0.75;stroke-linecap:round;stroke-linejoin:miter;stroke-miterlimit:4;stroke-dasharray:none" />
      <path
         inkscape:connector-curvature="0"
         id="path4825"
         d="m 37.238823,1026.6961 c 2.481034,-1.5634 4.19936,-3.5619 4.861029,-5.6828 0.677487,-2.1218 0.300563,-4.355 -1.07034,-6.3539"
         style="fill:none;stroke:#000000;stroke-width:0.75;stroke-linecap:round;stroke-linejoin:miter;stroke-miterlimit:4;stroke-dasharray:none" />
      <path
         inkscape:connector-curvature="0"
         id="path4827"
         d="m 17.268135,1008.2562 c -3.63587,0.8104 -6.664166,2.3542 -8.4303265,4.2699 -1.7855218,1.9106 -2.2971091,4.178 -1.4250307,6.2767 0.8483518,2.1001 3.0763512,4.0174 6.2016432,5.3061 3.111245,1.2928 7.098651,1.9488 11.097363,1.7882"
         style="fill:none;stroke:#000000;stroke-width:0.75;stroke-linecap:round;stroke-linejoin:miter;stroke-miterlimit:4;stroke-dasharray:none" />
      <path
         inkscape:connector-curvature="0"
         id="path4831"
         d="m 37.238823,1026.6961 c 0.168146,0.1566 0.221363,0.4614 0.09508,0.5261"
         style="fill:none;stroke:#000000;stroke-width:0.75;stroke-linecap:round;stroke-linejoin:miter;stroke-miterlimit:4;stroke-dasharray:none" />
      <path
         inkscape:connector-curvature="0"
         id="path4833"
         d="m 12.47153,1024.1632 c 2.438342,1.8777 6.537116,3.0668 10.870187,3.0813 4.333198,0.043 8.805311,-1.0905 11.864156,-3.0774"
         style="fill:none;stroke:#000000;stroke-width:0.75;stroke-linecap:round;stroke-linejoin:miter;stroke-miterlimit:4;stroke-dasharray:none" />
      <path
         inkscape:connector-curvature="0"
         id="path4837"
         d="m 37.240568,1031.0361 c 1.951591,-1.2331 3.437883,-2.7336 4.297791,-4.3552 0.867817,-1.6221 1.104885,-3.3587 0.694376,-5.0406"
         style="fill:none;stroke:#000000;stroke-width:0.75;stroke-linecap:round;stroke-linejoin:miter;stroke-miterlimit:4;stroke-dasharray:none" />
      <path
         inkscape:connector-curvature="0"
         id="path4839"
         d="m 7.2808714,1019.3822 c -0.676351,1.9821 -0.1422337,4.0836 1.5086065,5.8799 1.6367941,1.8004 4.3753161,3.2838 7.6981921,4.1353 3.314146,0.8646 7.193285,1.0922 10.895249,0.616 3.70728,-0.467 7.213658,-1.6363 9.855904,-3.3173"
         style="fill:none;stroke:#000000;stroke-width:0.75;stroke-linecap:round;stroke-linejoin:miter;stroke-miterlimit:4;stroke-dasharray:none" />
      <path
         inkscape:connector-curvature="0"
         id="path4841"
         d="m 37.240568,1031.0361 c 0.163305,0.1553 0.219592,0.4583 0.09508,0.5261"
         style="fill:none;stroke:#000000;stroke-width:0.75;stroke-linecap:round;stroke-linejoin:miter;stroke-miterlimit:4;stroke-dasharray:none" />
      <path
         inkscape:connector-curvature="0"
         id="path4843"
         d="m 11.022885,1027.1108 c 0.934348,1.179 2.42712,2.2196 4.308527,2.9909 1.878339,0.7731 4.135632,1.2742 6.511802,1.4284 2.379714,0.1604 4.873466,-0.027 7.191697,-0.5475 2.318231,-0.5202 4.459169,-1.3757 6.170936,-2.4786"
         style="fill:none;stroke:#000000;stroke-width:0.75;stroke-linecap:round;stroke-linejoin:miter;stroke-miterlimit:4;stroke-dasharray:none" />
      <path
         inkscape:connector-curvature="0"
         id="path4847"
         d="m 37.239244,1035.3779 c 2.058518,-1.303 3.599315,-2.9004 4.437234,-4.6239 0.84276,-1.7222 0.978275,-3.5639 0.399528,-5.3245"
         style="fill:none;stroke:#000000;stroke-width:0.75;stroke-linecap:round;stroke-linejoin:miter;stroke-miterlimit:4;stroke-dasharray:none" />
      <path
         inkscape:connector-curvature="0"
         id="path4849"
         d="m 7.4611876,1023.2591 c -0.8784377,2.0005 -0.5027175,4.1608 1.0521741,6.0248 1.5377773,1.8698 4.2445703,3.4329 7.5888333,4.3497 3.335533,0.9301 7.282562,1.2043 11.06504,0.7471 3.782951,-0.4493 7.378921,-1.6335 10.073333,-3.3446"
         style="fill:none;stroke:#000000;stroke-width:0.75;stroke-linecap:round;stroke-linejoin:miter;stroke-miterlimit:4;stroke-dasharray:none" />
      <path
         inkscape:connector-curvature="0"
         id="path4851"
         d="m 11.024604,1035.7878 c 0.934347,1.179 2.428891,2.2227 4.305458,2.9927 1.878338,0.7731 4.135631,1.2742 6.516642,1.4297 2.374874,0.1591 4.868626,-0.029 7.186856,-0.5489 2.320003,-0.517 4.460941,-1.3726 6.172708,-2.4755"
         style="fill:none;stroke:#000000;stroke-width:0.75;stroke-linecap:round;stroke-linejoin:miter;stroke-miterlimit:4;stroke-dasharray:none" />
      <path
         inkscape:connector-curvature="0"
         id="path4853"
         d="m 11.02463,1031.4508 c 0.932576,1.1759 2.42712,2.2197 4.306755,2.9879 1.87527,0.7748 4.135632,1.2741 6.513574,1.4314 2.377943,0.1573 4.870397,-0.026 7.186857,-0.5488 2.323071,-0.5188 4.46094,-1.3726 6.172707,-2.4755"
         style="fill:none;stroke:#000000;stroke-width:0.75;stroke-linecap:round;stroke-linejoin:miter;stroke-miterlimit:4;stroke-dasharray:none" />
      <path
         inkscape:connector-curvature="0"
         id="path4857"
         d="m 24.712151,1043.2528 c 4.644296,-0.1692 9.255064,-1.4524 12.527066,-3.5379"
         style="fill:none;stroke:#000000;stroke-width:0.75;stroke-linecap:round;stroke-linejoin:miter;stroke-miterlimit:4;stroke-dasharray:none" />
      <path
         inkscape:connector-curvature="0"
         id="path4859"
         d="m 36.123971,1040.9439 c -0.86158,0.4565 -1.806995,0.8387 -2.751843,1.1509 -1.010712,0.3258 -2.005039,0.5808 -2.989592,0.7605 -1.017485,0.1865 -2.000521,0.3122 -2.949107,0.377 -0.953427,0.064 -1.881135,0.08 -2.721278,0.021"
         style="fill:none;stroke:#000000;stroke-width:0.75;stroke-linecap:round;stroke-linejoin:miter;stroke-miterlimit:4;stroke-dasharray:none" />
      <path
         inkscape:connector-curvature="0"
         id="path4861"
         d="m 24.712151,1043.2528 c -1.582531,-0.076 -3.264496,-0.2755 -5.019005,-0.6782 -1.963461,-0.4457 -4.070682,-1.1971 -5.81524,-2.2274 -1.724248,-1.0093 -2.931514,-2.1862 -3.63071,-3.2718 -0.6102368,-0.9365 -0.8994713,-1.8251 -0.990632,-2.6562"
         style="fill:none;stroke:#000000;stroke-width:0.75;stroke-linecap:round;stroke-linejoin:miter;stroke-miterlimit:4;stroke-dasharray:none" />
    </g>
  </g>
</svg>
