<?xml version="1.0" encoding="UTF-8" standalone="no"?>
<svg
   xmlns:dc="http://purl.org/dc/elements/1.1/"
   xmlns:cc="http://creativecommons.org/ns#"
   xmlns:rdf="http://www.w3.org/1999/02/22-rdf-syntax-ns#"
   xmlns:svg="http://www.w3.org/2000/svg"
   xmlns="http://www.w3.org/2000/svg"
   width="48"
   height="48"
   viewBox="0 0 12.7 12.7"
   version="1.1"
   id="svg8">
  <defs
     id="defs2" />
  <metadata
     id="metadata5">
    <rdf:RDF>
      <cc:Work
         rdf:about="">
        <dc:format>image/svg+xml</dc:format>
        <dc:type
           rdf:resource="http://purl.org/dc/dcmitype/StillImage" />
        <dc:title></dc:title>
      </cc:Work>
    </rdf:RDF>
  </metadata>
  <g
     id="layer2">
    <path
       style="fill:none;stroke:#000000;stroke-width:0.3;stroke-linecap:butt;stroke-linejoin:miter;stroke-miterlimit:4;stroke-dasharray:none;stroke-opacity:1"
       d="M 0.81394688,4.1817864 C 1.7406008,2.3155076 3.3826404,1.7435567 4.1951346,1.3955377 c 2.4877072,-1.06557 5.1570995,0.1048844 5.1570995,0.1048844 0,0 3.1824769,1.4423956 2.6094339,4.0389363 -0.207013,0.9380065 -0.522988,1.6256924 -1.518236,2.46837 C 9.6024168,8.7198169 8.266893,9.4016629 6.3883844,9.4562605 5.9400143,9.469292 3.2020753,9.8681505 1.3568304,7.67086 0.23093676,6.3301624 0.44675944,4.9213011 0.81394688,4.1817864 Z"
       id="path1475" />
    <path
       style="fill:none;stroke:#000000;stroke-width:0.3;stroke-linecap:butt;stroke-linejoin:miter;stroke-miterlimit:4;stroke-dasharray:none;stroke-dashoffset:0;stroke-opacity:1"
       d="M 0.56038487,6.0191284 1.0255739,8.547107 c 0,0 0.133437,0.5926101 0.4102273,0.9857142 0.2767902,0.3931042 1.6363127,2.1073408 4.151106,2.3116708 1.0280105,0.08353 3.0911257,0.230755 4.8550568,-1.304133 1.763931,-1.534887 1.663329,-3.085548 1.663329,-3.085548 l -0.07841,-2.5634936"
       id="path1477" />
    <path
       style="fill:none;stroke:#000000;stroke-width:0.3;stroke-linecap:butt;stroke-linejoin:miter;stroke-opacity:1;stroke-miterlimit:4;stroke-dasharray:none"
       d="m 4.8629217,3.8786813 c 0,0 -0.5942856,-0.3504308 -0.7329897,-0.7313769 -0.1387041,-0.3809462 0.089349,-0.7320887 0.089349,-0.7320887 0,0 0.3291853,-0.4762346 0.8324726,-0.5968742 0.5032872,-0.1206397 0.5816346,-0.1119872 0.5816346,-0.1119872 0,0 0.5157909,-0.081397 1.0847175,0.2307312 0.5689267,0.3121279 0.5007978,0.8839678 0.5007978,0.8839678 0,0 -0.034432,0.355486 -0.3094225,0.6619127 0.5315101,0.1095572 0.8175156,0.2715318 0.8175156,0.2715318 0,0 0.2963791,-0.4421071 1.113585,-0.5779103 0.8172055,-0.1358033 1.3337664,0.2273527 1.3337664,0.2273527 0,0 0.633234,0.3683902 0.565754,0.9635445 -0.06748,0.5951543 -0.498424,0.89052 -0.498424,0.89052 0,0 -0.3739353,0.306138 -1.0275368,0.3249914 C 8.5605397,5.6018501 8.191397,5.3625617 8.191397,5.3625617 c 0,0 -0.060049,0.1941264 -0.1383993,0.2936886 -0.07835,0.099562 -0.2318689,0.2810891 -0.2318689,0.2810891 0,0 0.5549185,0.349105 0.7033847,0.7081234 0.1484662,0.3590184 0.05562,0.6550464 0.05562,0.6550464 0,0 -0.2121752,0.8491072 -1.2666197,1.049411 C 6.2590698,8.5502238 5.7131725,8.098298 5.7131725,8.098298 c 0,0 -0.4824876,-0.3055837 -0.5103215,-0.9496387 C 5.1750171,6.5046039 5.4109479,6.3720312 5.4109479,6.3720312 L 4.7710452,6.1021914 c 0,0 -0.4725421,0.4546704 -0.7833135,0.5514309 -0.3107711,0.09676 -0.7946266,0.092198 -0.7946266,0.092198 0,0 -0.5542471,-0.032103 -0.8033499,-0.2059509 C 2.1406524,6.3660223 2.0110632,6.195746 2.0110632,6.195746 c 0,0 -0.2594027,-0.2453757 -0.2128906,-0.656512 0.046512,-0.411136 0.209353,-0.5916866 0.209353,-0.5916866 0,0 0.1624632,-0.2810981 0.6641046,-0.4783161 0.5016412,-0.1972178 0.706838,-0.2036585 0.706838,-0.2036585 0,0 0.2553738,-0.043504 0.5493015,0.033877 0.2939277,0.077382 0.4591026,0.1521855 0.4591026,0.1521855 0,0 0.1060297,-0.19626 0.1824905,-0.2870499 0.076461,-0.09079 0.2935589,-0.285904 0.2935589,-0.2859041 z"
       id="path1479" />
    <path
       style="fill:none;stroke:#000000;stroke-width:0.3;stroke-linecap:butt;stroke-linejoin:miter;stroke-opacity:1;stroke-miterlimit:4;stroke-dasharray:none"
       d="M 5.4109479,6.3720312 5.6817037,6.6551333 5.6019885,6.776178 5.84593,6.7825704 5.7129703,7.1270103 6.0236321,7.113453 5.7688789,7.5097949 6.1064565,7.5195077 5.8414729,7.9046119 6.1345127,7.9146185 5.9257929,8.2228072"
       id="path1481" />
    <path
       style="fill:none;stroke:#000000;stroke-width:0.3;stroke-linecap:butt;stroke-linejoin:miter;stroke-miterlimit:4;stroke-dasharray:none;stroke-opacity:1"
       d="M 7.8321402,5.9411569 7.6774465,6.3370184 7.5602932,6.5176402 7.6790401,6.6267332 7.4214082,6.8098547 7.6355955,6.9898548 7.3666921,7.1828381 7.625971,7.3947448 7.3898606,7.6237983 7.663163,7.7643153 7.4386047,8.0073906 7.7650699,8.1872713"
       id="path1483" />
    <path
       style="fill:none;stroke:#000000;stroke-width:0.3;stroke-linecap:butt;stroke-linejoin:miter;stroke-miterlimit:4;stroke-dasharray:none;stroke-opacity:1"
       d="M 6.909481,3.482966 6.8272495,3.8018563 6.9211557,3.8547627 6.7765696,3.987637 6.7521724,4.2752666 6.9314427,4.3059863 6.6816721,4.6862824 6.898701,4.7042112 6.6510283,5.078259 6.9388979,5.1244566 6.6781084,5.4196805 6.9395736,5.4986332 6.7196567,5.828082 c 0,0 0.2000784,0.014915 0.3340267,0.057431 0.1339482,0.042516 0.6450447,0.3797439 0.6450447,0.3797439"
       id="path1485" />
    <path
       style="fill:none;stroke:#000000;stroke-width:0.3;stroke-linecap:butt;stroke-linejoin:miter;stroke-miterlimit:4;stroke-dasharray:none;stroke-opacity:1"
       d="M 4.3634821,4.436691 4.6914388,4.9401052 4.5675568,5.0653067 4.8717285,5.3636595 4.6330658,5.5211416 4.9434256,5.7947027 4.6226518,5.8823758 4.7750262,6.1189851"
       id="path1493" />
    <path
       style="fill:none;stroke:#000000;stroke-width:0.3;stroke-linecap:butt;stroke-linejoin:miter;stroke-miterlimit:4;stroke-dasharray:none;stroke-opacity:1"
       d="M 4.8504118,3.8813999 5.1451496,4.510229 4.9999217,4.6153459 5.2170745,4.7150194 5.3187226,4.9185112 5.1138825,5.0060134 5.5493274,5.2630405 5.2263836,5.4576601 5.6021813,5.6327537 5.2977245,5.8394083 5.6558513,6.0198862 5.2161643,6.2994148"
       id="path1495" />
    <path
       style="fill:none;stroke:#000000;stroke-width:0.3;stroke-linecap:butt;stroke-linejoin:miter;stroke-miterlimit:4;stroke-dasharray:none;stroke-opacity:1"
       d="m 7.7057512,3.7357971 -0.052563,0.2643495 0.1421778,0.035669 -0.178776,0.1318828 -0.050511,0.2118171 c 0.06218,0.028443 0.07723,0.026639 0.1722871,0.048463 l -0.1618432,0.294148 0.1751,0.018075 L 7.5478974,5.0539063 7.7631046,5.0947393 7.5480071,5.443325 7.797694,5.4918925 7.6357519,5.7431399 7.8109765,5.9309927"
       id="path1497" />
    <path
       style="fill:none;stroke:#000000;stroke-width:0.3;stroke-linecap:butt;stroke-linejoin:miter;stroke-miterlimit:4;stroke-dasharray:none;stroke-opacity:1"
       d="m 5.1362234,4.4750397 c 0,0 0.1930897,-0.1225254 0.583252,-0.131318 0.3901625,-0.00879 0.5879282,-0.00668 0.5879282,-0.00668 0,0 0.3470132,0.056421 0.4877655,0.1595276"
       id="path1499" />
    <path
       style="fill:none;stroke:#000000;stroke-width:0.3;stroke-linecap:butt;stroke-linejoin:miter;stroke-opacity:1;stroke-miterlimit:4;stroke-dasharray:none"
       d="M 6.9194663,3.8521833 7.7983685,4.0439287"
       id="path1501" />
    <path
       style="fill:none;stroke:#000000;stroke-width:0.3;stroke-linecap:butt;stroke-linejoin:miter;stroke-miterlimit:4;stroke-dasharray:none;stroke-opacity:1"
       d="M 6.7758771,4.2295162 7.7230702,4.4409754"
       id="path1503" />
    <path
       style="fill:none;stroke:#000000;stroke-width:0.3;stroke-linecap:butt;stroke-linejoin:miter;stroke-miterlimit:4;stroke-dasharray:none;stroke-opacity:1"
       d="M 6.7495617,4.6218048 7.7154938,4.7851806"
       id="path1505" />
    <path
       style="fill:none;stroke:#000000;stroke-width:0.3;stroke-linecap:butt;stroke-linejoin:miter;stroke-miterlimit:4;stroke-dasharray:none;stroke-opacity:1"
       d="m 6.7127894,5.013312 0.989637,0.1248652"
       id="path1507" />
    <path
       style="fill:none;stroke:#000000;stroke-width:0.3;stroke-linecap:butt;stroke-linejoin:miter;stroke-miterlimit:4;stroke-dasharray:none;stroke-opacity:1"
       d="M 6.7461427,5.379155 7.7395774,5.5219724"
       id="path1509" />
    <path
       style="fill:none;stroke:#000000;stroke-width:0.3;stroke-linecap:butt;stroke-linejoin:miter;stroke-miterlimit:4;stroke-dasharray:none;stroke-opacity:1"
       d="M 5.0285461,4.5912351 4.6695836,4.8915695"
       id="path1511" />
    <path
       style="fill:none;stroke:#000000;stroke-width:0.3;stroke-linecap:butt;stroke-linejoin:miter;stroke-miterlimit:4;stroke-dasharray:none;stroke-opacity:1"
       d="M 5.1085037,4.9969091 4.8040878,5.2615738"
       id="path1513" />
    <path
       style="fill:none;stroke:#000000;stroke-width:0.3;stroke-linecap:butt;stroke-linejoin:miter;stroke-miterlimit:4;stroke-dasharray:none;stroke-opacity:1"
       d="M 5.2239355,5.4725446 4.8903921,5.7298729"
       id="path1515" />
    <path
       style="fill:none;stroke:#000000;stroke-width:0.3;stroke-linecap:butt;stroke-linejoin:miter;stroke-miterlimit:4;stroke-dasharray:none;stroke-opacity:1"
       d="M 5.3006754,5.836902 4.8508626,6.132817"
       id="path1517" />
    <path
       style="fill:#ed9e00;stroke:none;stroke-width:0.0446429;fill-opacity:1"
       d="m 23.380922,44.513871 c -1.692389,-0.07345 -3.038847,-0.202149 -4.177736,-0.399325 -3.664818,-0.63449 -7.0392,-2.207764 -9.9999999,-4.662407 C 8.5080066,38.875802 7.284189,37.672218 6.7103277,37.000494 5.7374304,35.861686 5.3259066,35.21458 4.8944195,34.145048 4.4518961,33.048159 4.3098306,32.472349 3.8076002,29.740021 3.5526041,28.352745 3.3487706,27.212027 3.3546369,27.205094 c 0.00587,-0.0069 0.098743,0.133527 0.2063932,0.312134 0.4367892,0.724697 1.2066883,1.711343 1.9746135,2.530519 3.3480889,3.57154 7.7044274,5.601458 13.1541494,6.129423 0.788112,0.07635 3.741053,0.07678 4.977679,7.28e-4 0.515625,-0.03171 1.258928,-0.07793 1.651786,-0.102712 5.072692,-0.319962 9.825201,-2.000496 13.482142,-4.767421 1.244807,-0.941848 2.95672,-2.566111 3.746154,-3.554351 1.104434,-1.382565 1.966121,-2.982619 2.488327,-4.620535 l 0.149448,-0.46875 0.05079,1.607142 c 0.108242,3.424954 0.118494,4.56117 0.04593,5.090807 -0.28716,2.096068 -1.203272,4.332954 -2.586477,6.315443 -1.619562,2.321251 -3.85742,4.419395 -6.265378,5.874219 -3.670831,2.217817 -7.928796,3.184357 -13.049278,2.962131 z"
       id="path1529"
       transform="scale(0.26458333)" />
    <path
       style="fill:#ffaa00;stroke:none;stroke-width:0.04535433;fill-opacity:1;stroke-miterlimit:4;stroke-dasharray:none"
       d="M 19.984436,35.449624 C 16.500112,35.322066 13.241914,34.4622 10.542472,32.957811 7.2035553,31.097045 4.3974786,28.080745 3.208914,25.074843 2.616182,23.575812 2.3799543,22.35002 2.3786939,20.766807 2.3772086,18.901128 2.7171227,17.429743 3.5183063,15.833771 4.3550862,14.166891 5.4209185,12.672806 6.7409244,11.316299 8.3079401,9.705953 10.038175,8.4549905 12.283543,7.3089773 13.346306,6.7665538 15.804985,5.6920032 16.904079,5.2896004 20.599525,3.9366149 24.73511,3.6320546 29.203186,4.383847 c 1.981755,0.3334475 4.341065,0.9771843 5.810034,1.5852656 1.313378,0.5436743 3.680869,2.0781126 5.060997,3.2801761 2.845641,2.4784943 4.418289,5.0249603 4.893569,7.9237683 0.107868,0.657909 0.108814,2.154638 0.0018,2.854643 -0.154682,1.011843 -0.553836,2.517946 -0.953094,3.59625 -0.871753,2.354404 -2.581023,4.545419 -5.170452,6.627705 -3.637099,2.92477 -8.355288,4.684745 -13.459821,5.020772 -2.574436,0.169473 -4.176892,0.222039 -5.401786,0.177197 z m 7.1875,-3.410506 c 2.410236,-0.367825 4.060149,-1.394023 5.131998,-3.191954 0.560317,-0.939881 0.741561,-1.878408 0.561405,-2.907098 -0.212673,-1.21436 -0.81345,-2.092356 -2.161274,-3.158559 -0.205767,-0.162772 -0.411886,-0.326084 -0.458044,-0.362914 -0.07987,-0.06373 -0.06651,-0.08853 0.27663,-0.513393 0.198305,-0.245536 0.424514,-0.58247 0.502687,-0.748743 0.09948,-0.211596 0.162228,-0.296309 0.209098,-0.2823 0.03683,0.01101 0.272501,0.09158 0.523711,0.179042 0.830731,0.289238 1.426464,0.387582 2.512003,0.414682 1.289518,0.03219 2.024692,-0.07272 3.066073,-0.437531 1.435131,-0.502752 2.4793,-1.405068 3.134843,-2.708967 0.303777,-0.604224 0.539541,-1.547333 0.539976,-2.160024 6.43e-4,-0.903343 -0.421102,-1.854911 -1.177039,-2.655715 -1.119706,-1.186165 -2.542897,-1.821587 -4.449912,-1.986784 -2.146988,-0.185985 -4.659418,0.61841 -6.055825,1.93887 l -0.232063,0.219441 -0.482223,-0.189288 c -0.435398,-0.170909 -1.159952,-0.409532 -1.618039,-0.532882 l -0.173518,-0.04672 0.194033,-0.322967 C 27.635827,11.55437 27.822066,10.476763 27.55709,9.4571218 27.367531,8.7276914 26.913469,7.9838246 26.376422,7.5228929 25.679795,6.9249986 24.567598,6.4210524 23.370889,6.1610604 22.970454,6.0740634 22.77703,6.0605507 21.9264,6.0601474 c -0.901888,-4.286e-4 -1.031389,0.00971 -1.584821,0.1240124 -1.025067,0.2117187 -1.689318,0.3862015 -2.051052,0.5387616 -1.13653,0.4793277 -2.379681,1.5763748 -2.837148,2.5037071 -0.482018,0.9770995 -0.533824,2.1300085 -0.134888,3.0018265 0.307071,0.671059 1.035978,1.471158 1.987768,2.181913 l 0.402547,0.300605 -0.396606,0.405149 c -0.218133,0.222832 -0.510953,0.580931 -0.650712,0.795774 -0.139759,0.214844 -0.264265,0.390625 -0.276681,0.390625 -0.01242,0 -0.237155,-0.07114 -0.499419,-0.158098 -2.037004,-0.67537 -3.296781,-0.619671 -5.588452,0.247085 -2.4839865,0.939494 -3.6207262,2.239562 -3.8841763,4.442263 -0.087434,0.731038 0.026267,1.418052 0.3367161,2.034521 0.2251576,0.447103 0.456575,0.748932 0.956375,1.247362 0.8413116,0.839008 1.5008317,1.23856 2.4330452,1.473993 1.04913,0.264961 1.897348,0.342825 2.923877,0.268401 1.406954,-0.102004 2.206778,-0.288155 2.869088,-0.667748 0.445428,-0.255291 1.039205,-0.685142 1.591762,-1.152321 0.254812,-0.215439 0.495884,-0.415637 0.535714,-0.444884 0.05933,-0.04357 0.219856,0.0086 0.888223,0.288676 0.448691,0.188019 0.806411,0.362617 0.794934,0.387998 -0.35991,0.795855 -0.470022,1.349584 -0.471459,2.370868 -5.36e-4,0.379776 0.02768,0.794744 0.07134,1.049107 0.279946,1.631076 1.337073,3.016406 2.841456,3.723636 0.750125,0.352644 1.605805,0.589303 2.492887,0.689468 0.518531,0.05855 1.930215,0.02249 2.495218,-0.06373 z"
       id="path1531"
       transform="scale(0.26458333)" />
    <path
       style="fill:#e18d00;stroke:none;stroke-width:0.0446429;fill-opacity:1"
       d="m 29.12547,30.367747 c -0.165511,-0.09108 -0.313696,-0.178364 -0.3293,-0.193968 -0.0156,-0.0156 0.154972,-0.22706 0.379055,-0.469904 0.224084,-0.242844 0.407425,-0.454409 0.407425,-0.470144 0,-0.01573 -0.205915,-0.131547 -0.457589,-0.257358 -0.251674,-0.125812 -0.466589,-0.237115 -0.477588,-0.247341 -0.011,-0.01023 0.156707,-0.196121 0.372681,-0.413101 l 0.392681,-0.394509 -0.395003,-0.325355 c -0.217252,-0.178945 -0.421825,-0.349755 -0.454606,-0.379576 -0.04825,-0.04389 0.03469,-0.120849 0.435267,-0.403907 0.27218,-0.192326 0.49397,-0.360658 0.492868,-0.37407 -0.0011,-0.01341 -0.171861,-0.164621 -0.379464,-0.336021 -0.207604,-0.171399 -0.377461,-0.323175 -0.377461,-0.33728 0,-0.01411 0.200216,-0.165164 0.444925,-0.335686 0.244709,-0.170523 0.445601,-0.32205 0.446428,-0.336728 8.28e-4,-0.01468 -0.119023,-0.14165 -0.266335,-0.282162 l -0.267838,-0.255475 0.131685,-0.191398 c 0.07243,-0.105269 0.229248,-0.436001 0.348492,-0.734959 l 0.216805,-0.54356 0.309973,0.231444 c 0.452726,0.338033 1.358147,1.264628 1.554951,1.591316 0.412433,0.684624 0.589298,1.742395 0.412319,2.465945 -0.277288,1.133649 -1.297419,2.4083 -2.438548,3.046961 L 29.4264,30.533346 Z"
       id="path1533"
       transform="scale(0.26458333)" />
    <path
       style="fill:#e18d00;stroke:none;stroke-width:0.0446429;fill-opacity:1"
       d="m 17.374687,17.389039 c -0.393505,-0.590841 -0.390759,-0.513384 -0.03733,-1.052995 0.181597,-0.277259 0.847743,-1.004576 0.881853,-0.962831 0.0064,0.0078 0.172388,0.358525 0.368973,0.779453 l 0.357427,0.765324 -0.395765,0.281673 c -0.217672,0.154921 -0.395766,0.295819 -0.395766,0.313109 0,0.01729 -0.09766,0.113198 -0.217014,0.21313 l -0.217014,0.181694 z"
       id="path1535"
       transform="scale(0.26458333)" />
    <path
       style="fill:#e18d00;stroke:none;stroke-width:0.0446429;fill-opacity:1"
       d="m 17.96359,19.261383 -0.121496,-0.121496 0.207938,-0.211113 c 0.169115,-0.171696 0.197987,-0.223104 0.154637,-0.275337 -0.0439,-0.0529 0.01773,-0.123492 0.349493,-0.400305 l 0.402794,-0.33608 0.227957,0.09631 c 0.14995,0.06335 0.250668,0.140228 0.294325,0.22465 0.07584,0.146662 0.06497,0.160882 -0.209088,0.273471 -0.657398,0.270076 -0.810089,0.354435 -0.737544,0.407482 0.06191,0.04527 0.03935,0.07962 -0.169529,0.258068 -0.13252,0.113216 -0.249281,0.205847 -0.259469,0.205847 -0.01019,0 -0.0732,-0.05467 -0.140018,-0.121496 z"
       id="path1537"
       transform="scale(0.26458333)" />
    <path
       style="fill:#e18d00;stroke:none;stroke-width:0.0446429;fill-opacity:1"
       d="m 18.314272,21.03878 -0.124368,-0.129812 0.406195,-0.273125 c 0.223407,-0.150219 0.406194,-0.286826 0.406194,-0.303573 0,-0.01675 -0.07251,-0.104701 -0.161124,-0.195454 L 18.680045,19.97181 18.85233,19.817957 c 0.09476,-0.08462 0.242966,-0.215124 0.329354,-0.290011 l 0.15707,-0.136157 0.429019,0.252241 0.429019,0.252241 -0.622812,0.372304 c -0.402163,0.240405 -0.614888,0.392953 -0.600447,0.430588 0.013,0.03386 -0.08854,0.14441 -0.242354,0.263856 -0.145596,0.113066 -0.270979,0.205574 -0.278629,0.205574 -0.0076,0 -0.06987,-0.05842 -0.138278,-0.129813 z"
       id="path1539"
       transform="scale(0.26458333)" />
    <path
       style="fill:#e18d00;stroke:none;stroke-width:0.0446429;fill-opacity:1"
       d="m 19.223821,21.839534 c -0.100611,-0.08633 -0.137399,-0.14477 -0.105389,-0.16741 0.02705,-0.01913 0.203942,-0.153933 0.393102,-0.299563 l 0.343927,-0.264782 0.249375,0.122305 c 0.137156,0.06727 0.231466,0.13854 0.209577,0.158382 -0.08708,0.07893 -0.864632,0.583698 -0.899147,0.583698 -0.02028,0 -0.106435,-0.05968 -0.191445,-0.13263 z"
       id="path1541"
       transform="scale(0.26458333)" />
    <path
       style="fill:#e18d00;stroke:none;stroke-width:0.0446429;fill-opacity:1"
       d="m 18.186839,22.602814 -0.07578,-0.12828 0.422673,-0.117256 c 0.23247,-0.06449 0.43784,-0.117257 0.456378,-0.117257 0.01854,0 -0.131328,0.110491 -0.333036,0.245536 -0.201708,0.135045 -0.372979,0.245536 -0.380602,0.245536 -0.0076,0 -0.04796,-0.05773 -0.08964,-0.128279 z"
       id="path1543"
       transform="scale(0.26458333)" />
    <path
       style="fill:#e18d00;stroke:none;stroke-width:0.0446429;fill-opacity:1"
       d="m 19.388378,23.20502 -0.216594,-0.099 0.430678,-0.283988 0.430678,-0.283987 0.266031,0.127151 0.266031,0.127151 -0.40408,0.259551 c -0.222243,0.142753 -0.438295,0.257879 -0.480115,0.255835 -0.04182,-0.002 -0.173502,-0.04827 -0.292629,-0.102713 z"
       id="path1545"
       transform="scale(0.26458333)" />
    <path
       style="fill:#e18d00;stroke:none;stroke-width:0.0446429;fill-opacity:1"
       d="m 21.210833,29.731331 c -0.529173,-0.570693 -0.900537,-1.283818 -1.052848,-2.021768 -0.115649,-0.560324 -0.115138,-1.633461 0.001,-2.188292 0.08987,-0.429188 0.246897,-0.842898 0.310646,-0.81845 0.02134,0.0082 0.139734,0.125849 0.263103,0.26148 l 0.224308,0.246601 -0.240789,0.368461 c -0.132434,0.202653 -0.240788,0.375375 -0.240788,0.383825 0,0.0085 0.220802,0.02446 0.490672,0.03558 0.26987,0.01112 0.500488,0.03003 0.512485,0.04203 0.012,0.012 -0.08827,0.308022 -0.222816,0.657835 -0.134545,0.349813 -0.244627,0.642449 -0.244627,0.650303 0,0.0079 0.223269,0.0037 0.496154,-0.0092 0.477484,-0.02263 0.494367,-0.02033 0.448634,0.06117 -0.02614,0.04658 -0.228643,0.365938 -0.450015,0.709688 l -0.402495,0.625 0.590022,0.03853 c 0.324512,0.02119 0.595967,0.04388 0.603234,0.05042 0.01465,0.01318 -0.683646,1.03762 -0.770287,1.130046 -0.04419,0.04714 -0.104475,0.0045 -0.315636,-0.223215 z"
       id="path1547"
       transform="scale(0.26458333)" />
    <path
       style="fill:#e18d00;stroke:none;stroke-width:0.0446429;fill-opacity:1"
       d="m 22.026847,30.428709 c -0.09208,-0.0603 -0.167411,-0.119383 -0.167411,-0.131302 0,-0.01192 0.131716,-0.02167 0.292703,-0.02167 h 0.292702 l -0.07911,0.133928 c -0.09439,0.159795 -0.121613,0.161325 -0.338881,0.01905 z"
       id="path1549"
       transform="scale(0.26458333)" />
    <path
       style="fill:#e18d00;stroke:none;stroke-width:0.0446429;fill-opacity:1"
       d="m 28.282295,22.689385 c -1.035287,-0.652006 -1.348259,-0.79775 -2.059515,-0.95907 l -0.123264,-0.02796 0.272675,-0.405526 c 0.247471,-0.368043 0.283624,-0.403462 0.391121,-0.383184 0.06515,0.01229 0.520231,0.07788 1.011303,0.145759 0.491071,0.06788 0.900925,0.129956 0.910785,0.137949 0.0099,0.008 -0.05543,0.125019 -0.145089,0.260057 -0.08966,0.135037 -0.162949,0.260898 -0.162865,0.27969 8.5e-5,0.01879 0.142073,0.189574 0.31553,0.379513 0.173457,0.189939 0.303546,0.364485 0.289086,0.387881 -0.01446,0.0234 0.007,0.06115 0.04761,0.08389 0.06847,0.03832 0.06806,0.05665 -0.0057,0.249737 -0.04377,0.11461 -0.09167,0.214238 -0.106442,0.221396 -0.01477,0.0072 -0.300636,-0.159404 -0.635251,-0.370138 z"
       id="path1551"
       transform="scale(0.26458333)" />
    <path
       style="fill:#e18d00;stroke:none;stroke-width:0.0446429;fill-opacity:1"
       d="m 27.160775,20.172877 c -0.536821,-0.07976 -0.925904,-0.157474 -0.925304,-0.184803 5.69e-4,-0.02594 0.09424,-0.144874 0.208156,-0.264302 l 0.20712,-0.217141 0.941398,0.121513 c 0.517769,0.06683 0.945564,0.125184 0.950654,0.129672 0.03443,0.03034 -0.33531,0.559815 -0.38872,0.55666 -0.03683,-0.0022 -0.483817,-0.06589 -0.993304,-0.141599 z"
       id="path1553"
       transform="scale(0.26458333)" />
    <path
       style="fill:#e18d00;stroke:none;stroke-width:0.0446429;fill-opacity:1"
       d="m 26.998849,18.755038 c -0.524886,-0.07016 -0.960897,-0.134119 -0.968914,-0.142136 -0.02853,-0.02853 0.350871,-0.569325 0.400007,-0.570174 0.06388,-0.0011 2.054105,0.323948 2.073362,0.33863 0.0079,0.006 -0.06021,0.123363 -0.15141,0.260716 -0.133877,0.201634 -0.188241,0.248846 -0.282261,0.245129 -0.06405,-0.0025 -0.545899,-0.06201 -1.070784,-0.132165 z"
       id="path1555"
       transform="scale(0.26458333)" />
    <path
       style="fill:#e18d00;stroke:none;stroke-width:0.0446429;fill-opacity:1"
       d="m 27.216579,17.354016 c -0.601563,-0.100957 -1.090286,-0.19905 -1.086052,-0.217983 0.0042,-0.01893 0.08267,-0.150217 0.174307,-0.291741 l 0.166609,-0.257316 0.964086,0.214305 c 0.530247,0.117868 1.009415,0.225039 1.064817,0.238159 l 0.100731,0.02385 -0.111043,0.219133 c -0.06107,0.120523 -0.126492,0.227236 -0.145374,0.23714 -0.01888,0.0099 -0.526519,-0.06459 -1.128081,-0.165551 z"
       id="path1557"
       transform="scale(0.26458333)" />
    <path
       style="fill:#e18d00;stroke:none;stroke-width:0.0446429;fill-opacity:1"
       d="m 27.066808,15.907967 -1.109593,-0.250388 0.02213,-0.196352 c 0.01585,-0.14065 0.06058,-0.234804 0.157675,-0.331896 l 0.135544,-0.135543 1.090214,0.236932 1.090214,0.236933 -0.08801,0.35047 c -0.04841,0.192758 -0.110642,0.348166 -0.138297,0.345351 -0.02765,-0.0028 -0.549598,-0.117794 -1.159874,-0.255507 z"
       id="path1559"
       transform="scale(0.26458333)" />
    <path
       style="fill:#e18d00;stroke:none;stroke-width:0.0446429;fill-opacity:1"
       d="m 27.426073,14.431246 -1.152113,-0.24926 0.02873,-0.154847 c 0.0158,-0.08517 0.05211,-0.208802 0.08069,-0.274747 l 0.05195,-0.119901 0.535714,0.147657 c 0.294643,0.08121 0.791853,0.242024 1.104911,0.357361 0.533827,0.196674 0.569154,0.217054 0.568513,0.327983 -3.75e-4,0.06505 -0.01544,0.140045 -0.03348,0.166647 -0.02256,0.03327 -0.392391,-0.02943 -1.184912,-0.200893 z"
       id="path1561"
       transform="scale(0.26458333)" />
    <path
       style="fill:#e18d00;stroke:none;stroke-width:0.0446429;fill-opacity:1"
       d="m 19.405858,16.019965 c -0.0932,-0.200621 -0.260362,-0.558959 -0.371476,-0.796308 l -0.202024,-0.431542 0.105985,-0.09957 0.105985,-0.09957 -0.420103,-0.256138 C 17.9459,13.923265 17.361926,13.464766 16.837115,12.933719 16.07439,12.16193 15.865896,11.737423 15.860554,10.945378 c -0.0059,-0.87809 0.229507,-1.4419171 0.893806,-2.1405664 0.778419,-0.8186684 1.577236,-1.3226134 2.445522,-1.5427913 0.794005,-0.201342 1.704284,-0.3757993 2.209357,-0.4234293 1.075079,-0.1013832 2.371186,0.1479032 3.452644,0.6640636 1.235258,0.5895669 1.900279,1.4836296 2.021943,2.7183284 0.04657,0.472652 -0.102008,1.063848 -0.434505,1.72886 -0.19723,0.394469 -0.389999,0.666855 -0.794138,1.122131 -0.147929,0.166646 -0.268961,0.318835 -0.268961,0.338198 0,0.01936 0.05022,0.03521 0.111607,0.03521 0.06138,0 0.11115,0.02511 0.110591,0.0558 -5.58e-4,0.03069 -0.06064,0.276249 -0.133526,0.545683 -0.114015,0.421499 -0.123727,0.498663 -0.06958,0.552811 0.05415,0.05415 0.04565,0.07747 -0.06085,0.167086 -0.113543,0.09554 -0.126295,0.138427 -0.154207,0.518617 -0.01674,0.227955 -0.04226,0.545969 -0.05673,0.706697 l -0.0263,0.292232 -0.474346,-0.130325 c -0.422209,-0.116 -0.565124,-0.132675 -1.30024,-0.151709 -0.959723,-0.02485 -2.482839,0.04958 -2.901785,0.141804 -0.159599,0.03513 -0.417389,0.103651 -0.572868,0.152264 l -0.282689,0.08839 z"
       id="path1563"
       transform="scale(0.26458333)" />
    <path
       style="fill:#e18d00;stroke:none;stroke-width:0.0446429;fill-opacity:1"
       d="M 11.703186,25.071006 C 10.633957,24.916164 9.9499635,24.746416 9.5156861,24.528129 9.1657377,24.35223 8.6159175,23.900191 8.1194756,23.380225 7.7614243,23.005206 7.6257976,22.825447 7.4842023,22.538233 7.1403954,21.840852 7.0940438,21.168614 7.3266873,20.253794 7.707788,18.755199 8.6510017,17.857111 10.608893,17.128616 c 0.623205,-0.231883 1.308624,-0.442376 1.763936,-0.541709 0.438571,-0.09568 1.306728,-0.127814 1.772622,-0.06561 0.383156,0.05116 1.329843,0.307057 1.833861,0.495716 l 0.258267,0.09667 0.486308,0.742658 0.486307,0.742657 -0.250247,0.285035 -0.250247,0.285035 0.521297,0.51601 c 0.286713,0.283806 0.521296,0.523216 0.521296,0.532023 0,0.0088 -0.203637,0.149437 -0.452528,0.312513 l -0.452528,0.2965 0.138021,0.115435 c 0.481151,0.402415 0.845554,0.74455 0.819595,0.769511 -0.01663,0.01599 -0.231131,0.08317 -0.476667,0.149277 -0.245536,0.06611 -0.453208,0.126771 -0.461495,0.1348 -0.0083,0.008 0.130407,0.240834 0.308206,0.517345 l 0.323271,0.502746 -0.174277,0.149629 c -0.856868,0.735682 -1.528113,1.214742 -2.049276,1.462545 -0.551655,0.262301 -1.453641,0.411589 -2.678572,0.443331 -0.41741,0.01082 -0.819196,0.01094 -0.892857,2.68e-4 z"
       id="path1565"
       transform="scale(0.26458333)" />
    <path
       style="fill:#e18d00;stroke:none;stroke-width:0.0446429;fill-opacity:1"
       d="m 29.438818,21.739683 c -0.06157,-0.09272 -0.04341,-0.132411 0.307055,-0.671093 0.20487,-0.314897 0.372492,-0.578569 0.372492,-0.585938 0,-0.0074 -0.205915,-0.05029 -0.45759,-0.09538 -0.251674,-0.04509 -0.463562,-0.08623 -0.470862,-0.09143 -0.0073,-0.0052 0.158345,-0.288074 0.368101,-0.628617 0.209756,-0.340541 0.386487,-0.638679 0.392737,-0.662527 0.0063,-0.02385 -0.154373,-0.07198 -0.35694,-0.106964 -0.202567,-0.03498 -0.368303,-0.08011 -0.368303,-0.10028 0,-0.02017 0.1693,-0.296898 0.376222,-0.614949 0.400865,-0.61615 0.402939,-0.629983 0.09446,-0.629983 -0.08086,0 -0.206934,-0.01198 -0.280163,-0.02663 l -0.133145,-0.02663 0.280454,-0.508527 c 0.15425,-0.27969 0.266899,-0.516581 0.250332,-0.526425 -0.01657,-0.0098 -0.185814,-0.05229 -0.376104,-0.09432 -0.19029,-0.04204 -0.345708,-0.09952 -0.345372,-0.12775 0.0022,-0.183314 0.100286,-0.288316 0.656695,-0.702835 0.330889,-0.246509 0.594559,-0.455254 0.585935,-0.463878 -0.0086,-0.0086 -0.213144,-0.06582 -0.454487,-0.127106 -0.241343,-0.06128 -0.45045,-0.123069 -0.464682,-0.137301 -0.01423,-0.01423 -0.0016,-0.107052 0.02817,-0.206266 0.03745,-0.124999 0.154225,-0.280569 0.380297,-0.506641 1.357715,-1.357715 4.015659,-2.087057 6.198791,-1.700953 1.421374,0.251382 2.563023,0.858042 3.343924,1.776926 0.352843,0.415189 0.545482,0.733326 0.69852,1.15358 0.106777,0.293218 0.118774,0.385757 0.114798,0.885474 -0.0037,0.466606 -0.02381,0.622285 -0.122643,0.950182 -0.253291,0.840301 -0.647964,1.496544 -1.244425,2.06917 -1.083083,1.039803 -2.93248,1.591174 -4.852504,1.446702 -1.231262,-0.09265 -2.198104,-0.377006 -2.981196,-0.876805 -0.128003,-0.0817 -0.240923,-0.134194 -0.250935,-0.116662 -0.01001,0.01753 -0.07268,0.202636 -0.139263,0.411341 -0.187214,0.586823 -0.359671,0.907843 -0.7208,1.341736 -0.182802,0.219635 -0.339514,0.399336 -0.348248,0.399336 -0.0087,0 -0.04533,-0.04435 -0.08132,-0.09855 z"
       id="path1567"
       transform="scale(0.26458333)" />
  </g>
</svg>
