<?xml version="1.0" encoding="UTF-8" standalone="no"?>
<svg
   width="48"
   height="48"
   viewBox="0 0 12.7 12.7"
   version="1.1"
   id="svg8"
   sodipodi:docname="ScrewTapInch.svg"
   inkscape:version="1.1 (c4e8f9ed74, 2021-05-24)"
   xmlns:inkscape="http://www.inkscape.org/namespaces/inkscape"
   xmlns:sodipodi="http://sodipodi.sourceforge.net/DTD/sodipodi-0.dtd"
   xmlns="http://www.w3.org/2000/svg"
   xmlns:svg="http://www.w3.org/2000/svg"
   xmlns:rdf="http://www.w3.org/1999/02/22-rdf-syntax-ns#"
   xmlns:cc="http://creativecommons.org/ns#"
   xmlns:dc="http://purl.org/dc/elements/1.1/">
  <sodipodi:namedview
     id="namedview897"
     pagecolor="#ffffff"
     bordercolor="#666666"
     borderopacity="1.0"
     inkscape:pageshadow="2"
     inkscape:pageopacity="0.0"
     inkscape:pagecheckerboard="0"
     showgrid="false"
     inkscape:zoom="18.5625"
     inkscape:cx="24.026936"
     inkscape:cy="24.026936"
     inkscape:window-width="1920"
     inkscape:window-height="1055"
     inkscape:window-x="0"
     inkscape:window-y="0"
     inkscape:window-maximized="1"
     inkscape:current-layer="svg8" />
  <defs
     id="defs2" />
  <metadata
     id="metadata5">
    <rdf:RDF>
      <cc:Work
         rdf:about="">
        <dc:format>image/svg+xml</dc:format>
        <dc:type
           rdf:resource="http://purl.org/dc/dcmitype/StillImage" />
      </cc:Work>
    </rdf:RDF>
  </metadata>
  <path
     style="fill:none;stroke:#000000;stroke-width:0.330218;stroke-linecap:butt;stroke-linejoin:miter;stroke-miterlimit:4;stroke-dasharray:none;stroke-opacity:1"
     d="m 2.7711102,12.404434 c 0,0 -0.3309098,-0.293758 -0.4014348,-0.316928 -0.070525,-0.02317 -0.2739838,-0.141144 -0.2739838,-0.141144 0,0 -0.094985,-0.04655 -0.1079384,-0.01776 -0.012952,0.0288 -0.1063698,0.08878 -0.1063698,0.08878 0,0 -0.1767939,-0.113134 -0.237339,-0.177094 -0.060547,-0.06396 -0.1571648,-0.160264 -0.1571648,-0.160264 0,0 0.043704,-0.05999 0.024741,-0.100816 C 1.4926561,11.538383 1.3610671,11.316702 1.2396983,11.183906 1.1183295,11.05111 0.97452122,10.904598 0.96050545,10.888049 0.94648968,10.871499 0.83052878,10.776994 0.77688002,10.741546 0.7232306,10.706103 0.63930085,10.634082 0.63930085,10.634082 M 4.7464481,5.5011345 c 0,0 0.065247,-0.027373 0.1347725,-0.00635 0.069525,0.021031 0.1699942,0.027585 0.1699942,0.027585 0,0 0.053122,0.03571 0.3274512,-0.2491504 C 5.6529953,4.9883636 6.7553727,3.8198906 6.7553727,3.8198906 L 9.8494279,0.44583401 c 0,0 0.1533361,-0.1694872 0.2226971,-0.13874326 0.06936,0.0307439 0.111394,0.0466529 0.111394,0.0466529 l 1.078669,0.52182607 c 0,0 0.07582,0.0394302 0.141615,0.0959184 0.0658,0.0564882 0.132778,0.14069338 0.132778,0.14069338 l 0.628928,1.1676306 c 0,0 0.04156,0.06031 0.005,0.1085349 -0.03659,0.048225 -0.08745,0.1070435 -0.08745,0.1070435 L 7.6681074,7.2811586 c 0,0 -0.3004154,0.2516688 -0.2987681,0.4819237"
     id="path968" />
  <path
     style="fill:none;stroke:#000000;stroke-width:0.330218;stroke-linecap:butt;stroke-linejoin:miter;stroke-miterlimit:4;stroke-dasharray:none;stroke-opacity:1"
     d="m 0.72197808,10.650862 0.53596832,0.26644 c 0,0 0.039385,0.0222 0.152374,0.04954 0.1129885,0.02734 0.1556003,0.02463 0.1556003,0.02463 0,0 0.028325,-0.01145 0.021756,-0.04472 -0.00657,-0.03327 0.1432176,0.07607 0.1432176,0.07607 l 0.2666831,0.221113 c 0,0 -0.036025,0.03241 -0.017188,0.09422 0.018837,0.06183 0.1836134,0.29782 0.1836134,0.29782 0,0 0.1303105,0.144021 0.1503576,0.170581 0.020045,0.02656 0.163594,0.338139 0.163594,0.338139"
     id="path970" />
  <path
     style="fill:none;stroke:#000000;stroke-width:0.330218;stroke-linecap:butt;stroke-linejoin:miter;stroke-miterlimit:4;stroke-dasharray:none;stroke-opacity:1"
     d="M 1.9975772,11.243941 6.3780241,7.051816 c 0,0 0.2000801,-0.1666979 0.3562735,-0.2480236 C 6.890491,6.7224664 7.3662857,6.548484 7.3662857,6.548484 c 0,0 0.1843089,-0.00626 0.2141185,0.029583 0.02981,0.035848 0.031966,0.099474 0.031966,0.099474 0,0 0.029305,0.074752 -0.092272,0.2735589 C 7.3985231,7.1499065 7.358568,7.7722071 7.358568,7.7722071"
     id="path972" />
  <path
     style="fill:none;stroke:#000000;stroke-width:0.330218;stroke-linecap:butt;stroke-linejoin:miter;stroke-miterlimit:4;stroke-dasharray:none;stroke-opacity:1"
     d="m 5.071443,5.5550973 c 0,0 0.3737164,-0.1745525 0.4970868,-0.2194258 0.1233702,-0.044873 0.1958341,-0.064376 0.1958341,-0.064376 0,0 0.050158,-0.01071 0.078433,0.013326 0.028276,0.024035 0.021397,0.092338 0.021397,0.092338 L 5.7724527,5.7523093 5.4671234,6.157819 1.8689345,10.353068 1.5659203,10.991478"
     id="path974" />
  <path
     style="fill:none;stroke:#000000;stroke-width:0.330218;stroke-linecap:butt;stroke-linejoin:miter;stroke-miterlimit:4;stroke-dasharray:none;stroke-opacity:1"
     d="M 5.5942693,6.0084539 6.5640422,6.8746698"
     id="path976" />
  <path
     style="fill:none;stroke:#000000;stroke-width:0.330218;stroke-linecap:butt;stroke-linejoin:miter;stroke-miterlimit:4;stroke-dasharray:none;stroke-opacity:1"
     d="M 5.2085335,6.4655484 6.1797392,7.248124"
     id="path978" />
  <path
     style="fill:none;stroke:#000000;stroke-width:0.330218;stroke-linecap:butt;stroke-linejoin:miter;stroke-miterlimit:4;stroke-dasharray:none;stroke-opacity:1"
     d="m 4.805593,6.979184 c 0.01801,0 0.8504818,0.7005639 0.8504818,0.7005639"
     id="path980" />
  <path
     style="fill:none;stroke:#000000;stroke-width:0.330218;stroke-linecap:butt;stroke-linejoin:miter;stroke-miterlimit:4;stroke-dasharray:none;stroke-opacity:1"
     d="m 4.3401921,7.4532747 0.899963,0.6869595"
     id="path982" />
  <path
     style="fill:none;stroke:#000000;stroke-width:0.330218;stroke-linecap:butt;stroke-linejoin:miter;stroke-miterlimit:4;stroke-dasharray:none;stroke-opacity:1"
     d="M 3.9373501,7.947949 4.7457977,8.5805413"
     id="path984" />
  <path
     style="fill:none;stroke:#000000;stroke-width:0.330218;stroke-linecap:butt;stroke-linejoin:miter;stroke-miterlimit:4;stroke-dasharray:none;stroke-opacity:1"
     d="M 3.5027143,8.4791489 4.2353252,9.0548613"
     id="path986" />
  <path
     style="fill:none;stroke:#000000;stroke-width:0.330218;stroke-linecap:butt;stroke-linejoin:miter;stroke-miterlimit:4;stroke-dasharray:none;stroke-opacity:1"
     d="M 3.0937456,8.9540964 3.8019362,9.4954178"
     id="path988" />
  <path
     style="fill:none;stroke:#000000;stroke-width:0.330218;stroke-linecap:butt;stroke-linejoin:miter;stroke-miterlimit:4;stroke-dasharray:none;stroke-opacity:1"
     d="M 2.6645643,9.4550196 3.3436249,9.9459259"
     id="path990" />
  <path
     style="fill:none;stroke:#000000;stroke-width:0.330218;stroke-linecap:butt;stroke-linejoin:miter;stroke-miterlimit:4;stroke-dasharray:none;stroke-opacity:1"
     d="M 2.2931718,9.9272671 2.8896529,10.354574"
     id="path992" />
  <path
     style="fill:none;stroke:#000000;stroke-width:0.330218;stroke-linecap:butt;stroke-linejoin:miter;stroke-miterlimit:4;stroke-dasharray:none;stroke-opacity:1"
     d="m 1.8689345,10.353068 0.6070741,0.458656"
     id="path994" />
  <path
     style="fill:none;stroke:#000000;stroke-width:0.330218;stroke-linecap:butt;stroke-linejoin:miter;stroke-miterlimit:4;stroke-dasharray:none;stroke-opacity:1"
     d="m 7.3468885,7.6680397 -0.03614,0.5040828 -0.4441324,-0.00889 0.036063,0.411962 -0.4738291,0.063462 0.00568,0.3989575 -0.4582723,0.050935 0.015462,0.3864531 -0.4981408,0.057095 -0.019976,0.4546785 -0.4842971,0.035098 0.01446,0.428988 -0.4558466,0.05975 -0.00517,0.395633 -0.4575506,0.04141 0.022332,0.38848 -0.4453199,0.02797 -0.029759,0.441295 -1.0366702,0.581494"
     id="path1018" />
  <path
     style="fill:none;stroke:#000000;stroke-width:0.330218;stroke-linecap:butt;stroke-linejoin:miter;stroke-miterlimit:4;stroke-dasharray:none;stroke-opacity:1"
     d="m 4.825641,5.4868437 -0.6240381,0.1865274 0.023698,0.4524894 -0.4513416,0.07783 0.00554,0.4455521 -0.4433897,0.097425 0.026339,0.4167479 -0.4241898,0.076625 0.054447,0.4483157 -0.4451684,0.036216 0.010842,0.4129869 -0.3766752,0.04069 -0.014789,0.3893003 -0.371365,0.089568 0.019014,0.395242 -0.3938802,0.069628 0.0274,0.4189085 -0.4200282,0.067988 -0.33102783,1.1458481"
     id="path1020" />
  <path
     style="fill:none;stroke:#000000;stroke-width:0.330218;stroke-linecap:butt;stroke-linejoin:miter;stroke-miterlimit:4;stroke-dasharray:none;stroke-opacity:1"
     d="M 11.132128,0.83127062 9.5056995,2.6052869 c 0,0 -0.098642,0.1168684 -0.2245731,0.079654 C 9.1551951,2.647726 8.2918213,2.2288976 8.2918213,2.2288976"
     id="path1022" />
  <path
     style="fill:none;stroke:#000000;stroke-width:0.330218;stroke-linecap:butt;stroke-linejoin:miter;stroke-miterlimit:4;stroke-dasharray:none;stroke-opacity:1"
     d="M 11.563047,1.1923179 9.9669771,2.9521267 c 0,0 -0.1783787,0.1422142 -0.099248,0.3580424 0.07913,0.215828 0.5293189,0.9306217 0.5293189,0.9306217"
     id="path1024" />
  <path
     style="fill:#00d6be;fill-opacity:1;stroke:none;stroke-width:0.0257417"
     d="M 10.319672,3.9821324 C 10.079977,3.5948431 9.9356851,3.3180048 9.9225749,3.22026 9.9094024,3.1220545 9.9162813,3.1111486 10.162996,2.8390214 c 0.139689,-0.1540773 0.50779,-0.5603493 0.818001,-0.9028262 0.310212,-0.342477 0.572637,-0.6173605 0.583167,-0.6108523 0.01053,0.00651 0.13742,0.2329085 0.281978,0.5031117 0.2005,0.3747715 0.257551,0.5025654 0.240567,0.5388721 -0.01903,0.040683 -1.62693,1.801433 -1.64505,1.801433 -0.0036,0 -0.05846,-0.083982 -0.121987,-0.1866273 z"
     id="path1026" />
  <path
     style="fill:#00d6be;fill-opacity:1;stroke:none;stroke-width:0.0257417"
     d="M 8.8483075,2.4181336 C 8.6084883,2.3052906 8.4016196,2.2023117 8.3885994,2.1892915 8.3570981,2.15779 9.983522,0.3847317 10.04392,0.3847317 c 0.03686,0 0.942107,0.41889033 0.973852,0.45063536 0.01503,0.0150294 -1.5890355,1.75656154 -1.6336919,1.77369774 -0.068706,0.026365 -0.090376,0.018642 -0.5357726,-0.1909312 z"
     id="path1028" />
  <path
     style="fill:#5fd3c2;fill-opacity:1;stroke:none;stroke-width:0.0253167;stroke-miterlimit:4;stroke-dasharray:none"
     d="M 7.4828062,7.2956756 C 7.5156624,7.1487487 7.5542512,7.0380719 7.6146473,6.9175404 7.7417024,6.6639784 7.6748246,6.4855115 7.4527506,6.4855115 c -0.114835,0 -0.6292173,0.1813577 -0.7738482,0.2728387 -0.031357,0.019833 -0.066878,0.036061 -0.078935,0.036061 -0.026258,0 -0.8899742,-0.765732 -0.9023053,-0.7999447 -0.00472,-0.013103 0.025643,-0.067253 0.067481,-0.1203364 C 5.8506389,5.7656528 5.943539,5.4042961 5.9150817,5.2909126 5.8912209,5.1958408 5.7972278,5.1813437 5.622352,5.2457635 5.5423186,5.2752454 5.4737912,5.2963217 5.470069,5.2925995 5.466347,5.2888775 5.7367737,4.9968432 6.071018,4.643635 6.4052622,4.2904271 6.9917319,3.6597178 7.3742843,3.2420589 7.7568364,2.8244 8.1116173,2.4392163 8.162686,2.3860949 l 0.092852,-0.096584 0.474469,0.2219928 c 0.5250622,0.245664 0.6286224,0.2735254 0.7421093,0.1996542 0.0408,-0.026558 0.4370972,-0.4443226 0.8806607,-0.9283663 l 0.806479,-0.88007961 0.07256,0.0375207 c 0.08672,0.0448454 0.253444,0.18776431 0.253444,0.21725881 0,0.011505 -0.36003,0.4169913 -0.800067,0.9010815 C 10.245153,2.5426632 9.8629325,2.975129 9.8358108,3.0196083 9.7277271,3.196862 9.7809408,3.3538129 10.164198,3.988172 L 10.342809,4.283805 8.9617682,5.7772192 C 8.2021957,6.5985967 7.5548447,7.2934859 7.5232103,7.3214172 l -0.057517,0.050784 z"
     id="path1030" />
  <path
     style="fill:#5fd3c2;fill-opacity:1;stroke:none;stroke-width:0.0257417"
     d="M 5.7366654,6.8030479 5.3059589,6.4576345 5.4526386,6.2793373 5.599318,6.1010398 5.7042665,6.1969283 c 0.057722,0.052739 0.2526413,0.2276323 0.4331548,0.388652 0.1805138,0.1610201 0.3282067,0.2944693 0.3282067,0.2965542 0,0.0021 -0.067108,0.062861 -0.1491278,0.1350589 L 6.1673721,7.148461 Z"
     id="path1032" />
  <path
     style="fill:#00d6be;fill-opacity:1;stroke:none;stroke-width:0.0257417"
     d="M 1.3430323,10.876206 C 1.2731644,10.850423 0.83355284,10.638917 0.81057134,10.620029 0.79122292,10.604128 1.0828923,9.6902532 1.1124467,9.6741774 1.1330844,9.6629532 1.2333217,9.6407866 1.3351963,9.6249216 L 1.5204231,9.5960778 1.5053965,9.3831511 1.49037,9.1702244 1.62907,9.1521272 C 1.9078847,9.1157462 1.8927571,9.1308613 1.8754164,8.9059914 L 1.8601616,8.708171 2.0520764,8.662927 2.2439912,8.6176829 V 8.4303146 8.2429464 l 0.1194306,-0.01637 c 0.065687,-0.009 0.1533009,-0.01637 0.194698,-0.01637 h 0.075268 l -0.00576,-0.2123689 -0.00576,-0.212369 0.087787,-0.00642 c 0.048283,-0.00353 0.1497085,-0.01319 0.2253906,-0.021467 l 0.1376034,-0.015045 -0.01397,-0.081501 C 3.050991,7.6162109 3.0371632,7.5145216 3.0279489,7.4350602 L 3.0111942,7.2905852 3.2231653,7.2576105 3.4351365,7.2246355 3.4187662,7.011655 3.4023959,6.7986744 3.5246557,6.7728187 C 3.5918977,6.7585977 3.6903541,6.7389737 3.743446,6.7292107 L 3.839977,6.7114597 V 6.4849759 6.2584914 l 0.1866273,-0.02998 C 4.318251,6.1816616 4.2948989,6.2070941 4.2825934,5.9497109 L 4.2717595,5.7231338 4.5521706,5.638623 C 4.8090696,5.561198 4.8448238,5.556375 4.9785834,5.581102 5.1186358,5.606993 5.1327108,5.604337 5.3240303,5.515942 5.5855123,5.39513 5.7963447,5.3234725 5.7963447,5.3554121 c 0,0.014026 -0.01921,0.1031755 -0.042691,0.1981116 -0.034421,0.13917 -0.075044,0.2147755 -0.2096815,0.390246 -0.091845,0.1196989 -0.969101,1.1517435 -1.9494586,2.2934324 L 1.8120444,10.312996 1.6694237,10.613039 c -0.1535523,0.32304 -0.1568785,0.325722 -0.3263914,0.263167 z"
     id="path1034" />
  <path
     style="fill:#00d6be;fill-opacity:1;stroke:none;stroke-width:0.0257417"
     d="M 2.6142001,12.180121 C 2.5700514,12.141593 2.4988173,12.034776 2.4559022,11.942749 2.4129872,11.850722 2.3263355,11.713935 2.2633431,11.638777 2.2003506,11.56362 2.1235066,11.457103 2.0925787,11.402075 L 2.0363462,11.302023 4.2316808,9.1999792 C 5.4391149,8.0438556 6.5000338,7.0455596 6.5892787,6.9815437 6.7857637,6.840604 7.3411171,6.6082532 7.4549215,6.6193728 7.5598661,6.6296271 7.5688597,6.7010653 7.4858322,6.8649121 7.3815724,7.0706587 7.3075224,7.4214197 7.2670371,7.9013042 l -0.016289,0.1930628 -0.2278268,0.00748 -0.227827,0.00748 0.017812,0.2012054 0.017812,0.2012054 -0.073143,0.014591 c -0.040228,0.00802 -0.1455407,0.022766 -0.2340278,0.032755 l -0.1608857,0.018164 v 0.2000809 0.200081 l -0.1608855,0.016752 c -0.088487,0.00921 -0.1925194,0.022807 -0.231183,0.030207 L 5.900296,9.0378149 5.9161304,9.2251296 5.9319648,9.412444 5.691223,9.443318 C 5.5588149,9.4603 5.4459758,9.478697 5.4404694,9.484204 c -0.00551,0.00551 -0.016198,0.1091655 -0.023759,0.2303538 l -0.013746,0.2203417 -0.1057738,2.319e-4 c -0.058175,1.287e-4 -0.1673911,0.00762 -0.2427013,0.016667 l -0.1369274,0.016443 0.00822,0.2122946 0.00822,0.212295 -0.2252397,0.03072 -0.2252398,0.03072 v 0.19031 c 0,0.217256 0.019725,0.201698 -0.2928255,0.230981 l -0.1769878,0.01658 0.012086,0.188344 0.012086,0.188344 -0.208354,0.01827 c -0.1145945,0.01005 -0.2168642,0.03137 -0.2272656,0.04737 -0.010403,0.016 -0.019268,0.110179 -0.019699,0.209285 -4.369e-4,0.0991 -0.0093,0.192489 -0.019702,0.20752 -0.014506,0.02096 -0.7846277,0.465718 -0.8540069,0.493202 -0.00791,0.0031 -0.050502,-0.02583 -0.094652,-0.06435 z"
     id="path1036" />
  <path
     style="fill:#00d3b1;fill-opacity:1;stroke:none;stroke-width:0.0257417"
     d="M 2.2042355,11.92968 C 2.0999408,11.86561 1.9506432,11.84528 1.9222203,11.89127 1.8920493,11.94009 1.8372793,11.91664 1.7062,11.79879 1.61049,11.71274 1.5747075,11.661894 1.5747075,11.611948 c 0,-0.08354 -0.1634567,-0.3391 -0.343393,-0.536876 -0.077964,-0.08569 -0.1115633,-0.137389 -0.081345,-0.125156 0.1319752,0.05343 0.2936635,0.09449 0.4029684,0.10234 0.094135,0.0068 0.1451609,0.02979 0.2381106,0.107488 0.072698,0.06077 0.1183008,0.120056 0.1183008,0.1538 0,0.05989 0.1513541,0.307308 0.2750621,0.449637 0.082503,0.09492 0.1473823,0.203319 0.1313117,0.219389 -0.00531,0.0053 -0.055485,-0.01848 -0.1114877,-0.05288 z"
     id="path1038" />
  <path
     style="fill:#5fd3c2;fill-opacity:1;stroke:none;stroke-width:0.0257417"
     d="m 1.8298279,11.022168 -0.1438758,-0.118254 0.1027028,-0.224849 0.1027028,-0.22485 0.2213648,0.166972 c 0.1217506,0.09183 0.2213647,0.176586 0.2213647,0.188335 0,0.02092 -0.3338878,0.337335 -0.3514594,0.333067 -0.00491,-0.0012 -0.073668,-0.05538 -0.1527999,-0.120421 z"
     id="path1040" />
  <path
     style="fill:#5fd3c2;fill-opacity:1;stroke:none;stroke-width:0.0257417"
     d="M 2.2182497,10.53656 C 2.0979073,10.444484 1.9956311,10.358462 1.9909693,10.3454 c -0.010266,-0.02876 0.2505282,-0.333278 0.28543,-0.333278 0.018342,0 0.418571,0.278176 0.5067261,0.352195 0.012919,0.01085 -0.3113658,0.343703 -0.3324569,0.341243 -0.00749,-8.74e-4 -0.1120765,-0.07692 -0.2324188,-0.169 z"
     id="path1042" />
  <path
     style="fill:#5fd3c2;fill-opacity:1;stroke:none;stroke-width:0.0257417"
     d="M 2.6301166,10.086866 C 2.4956163,9.9884858 2.3855707,9.8975468 2.3855707,9.8847797 c 0,-0.030273 0.2515489,-0.3355824 0.2766894,-0.335823 0.026386,-2.528e-4 0.5599153,0.3880215 0.5599153,0.4074768 0,0.028247 -0.2938343,0.3131475 -0.3209654,0.3112055 -0.014602,-0.001 -0.1365931,-0.08239 -0.2710934,-0.180773 z"
     id="path1044" />
  <path
     style="fill:#5fd3c2;fill-opacity:1;stroke:none;stroke-width:0.0257417"
     d="M 3.0659019,9.6612635 C 2.9182466,9.5548772 2.7872437,9.4578963 2.7747848,9.4457504 2.761918,9.4332069 2.8250244,9.3400884 2.920863,9.2302003 l 0.1687317,-0.1934667 0.3101251,0.2363561 0.3101248,0.2363562 -0.09582,0.099073 C 3.5613238,9.663008 3.4768412,9.7406888 3.4262856,9.7811418 l -0.091919,0.073551 z"
     id="path1046" />
  <path
     style="fill:#5fd3c2;fill-opacity:1;stroke:none;stroke-width:0.0257417"
     d="M 3.5056873,9.1841545 C 3.3430652,9.0602271 3.206484,8.9482515 3.2021732,8.9353189 3.1947729,8.9131153 3.4721444,8.570588 3.4975252,8.570588 c 0.01958,0 0.6513511,0.5002823 0.6513511,0.5157858 0,0.00786 -0.078191,0.083778 -0.1737566,0.1686993 L 3.8013634,9.4094763 Z"
     id="path1048" />
  <path
     style="fill:#5fd3c2;fill-opacity:1;stroke:none;stroke-width:0.0257417"
     d="M 3.9222313,8.7249222 C 3.7480239,8.5853597 3.6051702,8.4637835 3.6047782,8.4547529 3.6036133,8.4280555 3.9223906,8.0557543 3.946407,8.0557543 c 0.012101,0 0.1766581,0.1220739 0.365682,0.2712751 L 4.6557687,8.5983045 4.458393,8.7903797 C 4.3498362,8.8960213 4.2560571,8.9816039 4.2499948,8.9805636 4.2439313,8.9795151 4.0964387,8.8644847 3.9222313,8.7249222 Z"
     id="path1050" />
  <path
     style="fill:#5fd3c2;fill-opacity:1;stroke:none;stroke-width:0.0257417"
     d="M 4.4275382,8.2458759 C 4.2530373,8.1097581 4.0939091,7.9829441 4.0739202,7.9640671 4.0429638,7.9348328 4.0596527,7.9037902 4.1865078,7.7546394 4.26842,7.6583309 4.3444192,7.576062 4.3553949,7.5718193 4.3663715,7.567576 4.5450261,7.6941626 4.7524071,7.853121 L 5.1294633,8.1421366 4.9551956,8.3177498 C 4.8593485,8.4143369 4.7728022,8.493363 4.7628705,8.493363 c -0.00993,0 -0.1608313,-0.111369 -0.3353323,-0.2474871 z"
     id="path1052" />
  <path
     style="fill:#5fd3c2;fill-opacity:1;stroke:none;stroke-width:0.0257417"
     d="M 4.8507635,7.7565694 C 4.5270386,7.5106791 4.4628731,7.451293 4.4829566,7.4161585 4.4963359,7.3927521 4.574335,7.3014275 4.6562865,7.2132168 L 4.805289,7.052834 5.1108616,7.3104357 c 0.168065,0.1416809 0.3444916,0.2896822 0.3920597,0.3288916 l 0.086487,0.07129 -0.1732551,0.171902 -0.1732554,0.171902 z"
     id="path1054" />
  <path
     style="fill:#5fd3c2;fill-opacity:1;stroke:none;stroke-width:0.0257417"
     d="M 5.2943812,7.2912166 C 5.0820123,7.113867 4.9052187,6.9609657 4.9015069,6.951436 4.8892285,6.9199166 5.2090004,6.5626121 5.2350679,6.5787229 5.249117,6.5874075 5.4439558,6.7421771 5.6680396,6.9226577 L 6.0754645,7.2508038 5.9552105,7.3641264 C 5.889071,7.4264537 5.8002053,7.5080985 5.7577315,7.5455593 l -0.077225,0.068111 z"
     id="path1056" />
</svg>
