<?xml version="1.0" encoding="UTF-8"?>
<svg width="48" height="48" version="1.1" viewBox="0 0 12.7 12.7" xmlns="http://www.w3.org/2000/svg">
 <g fill="#ffaf00">
  <path d="m7.77 0.625-1.58-0.29-0.0658 0.0699 0.307 1.25-0.209 0.269-1.27-0.32-0.271 0.236 0.324 1.24-0.205 0.268-1.23-0.335-0.27 0.221 0.272 1.24-0.198 0.315-1.21-0.325-0.261 0.231 0.301 1.2-0.268 0.318-1.2-0.326-0.296 0.193 0.309 1.28-0.182 0.348 4.48 4.47 0.687-0.0173 0.0846-0.062-0.174-0.714 0.164-0.219 1.34 0.313 0.222-0.21-0.343-1.31 0.185-0.23 1.35 0.308 0.22-0.277-0.314-1.21 0.174-0.258 1.33 0.333 0.264-0.253-0.355-1.24 0.161-0.234 1.35 0.316 0.251-0.242-0.309-1.25 0.14-0.225 0.595 0.0674 0.0796-0.538z"/>
 </g>
 <g fill="none" stroke="#000000" stroke-width=".265px">
  <path d="m6.13 0.405 0.307 1.25-0.209 0.269-1.27-0.32-0.271 0.236 0.324 1.24-0.205 0.268-1.23-0.335-0.27 0.221 0.272 1.24-0.198 0.315-1.21-0.325-0.261 0.231 0.301 1.2-0.268 0.318-1.2-0.326-0.296 0.193 0.309 1.28-0.182 0.348 4.48 4.47 0.687-0.0173 0.0846-0.062-0.174-0.714 0.164-0.219 1.34 0.313 0.222-0.21-0.343-1.31 0.185-0.23 1.35 0.308 0.22-0.277-0.314-1.21 0.174-0.258 1.33 0.333 0.264-0.253-0.355-1.24 0.161-0.234 1.35 0.316 0.251-0.242-0.309-1.25 0.14-0.225 0.595 0.0674 0.0796-0.538-4.38-4.4-1.58-0.29z"/>
  <path d="m4.84 1.74 6.66 5.33"/>
  <path d="m3.4 3.16 6.67 5.34"/>
  <path d="m6.2 0.373 5.87 5.09"/>
  <path d="m2.05 4.6 6.65 5.32"/>
  <path d="m0.581 6.05 6.63 5.32"/>
  <path d="m5.75 12.1-4.06-3.28"/>
 </g>
</svg>
